<svg xmlns="http://www.w3.org/2000/svg" width="142.332" height="27.284" viewBox="0 0 142.332 27.284">
  <g id="Group_6281" data-name="Group 6281" transform="translate(-434.125 -2913)">
    <path id="Path_6764" data-name="Path 6764" d="M-12.751,7.4H129.58l-8.735,27.284h-133.6Z" transform="translate(446.876 2905.598)" fill="#0c4e97"/>
    <path id="Path_9160" data-name="Path 9160" d="M8.658,0a.2.2,0,0,1-.2-.126L5.94-5.508a.071.071,0,0,0-.072-.054H3.276A.064.064,0,0,0,3.2-5.49V-.18a.159.159,0,0,1-.18.18H1.656a.159.159,0,0,1-.18-.18V-12.42a.159.159,0,0,1,.18-.18H6.5a3.88,3.88,0,0,1,1.9.45,3.166,3.166,0,0,1,1.269,1.26,3.791,3.791,0,0,1,.45,1.872,3.445,3.445,0,0,1-.657,2.133A3.225,3.225,0,0,1,7.632-5.706q-.072.036-.036.09l2.61,5.4a.2.2,0,0,1,.018.09q0,.126-.144.126ZM3.276-11.106a.064.064,0,0,0-.072.072V-7a.064.064,0,0,0,.072.072H6.282A2.086,2.086,0,0,0,7.812-7.5,2.014,2.014,0,0,0,8.388-9a2.068,2.068,0,0,0-.576-1.53,2.068,2.068,0,0,0-1.53-.576ZM16.614.162a4.842,4.842,0,0,1-2.322-.54A3.862,3.862,0,0,1,12.726-1.9a4.489,4.489,0,0,1-.558-2.259V-8.442a4.439,4.439,0,0,1,.558-2.25A3.879,3.879,0,0,1,14.292-12.2a4.842,4.842,0,0,1,2.322-.54,4.881,4.881,0,0,1,2.34.54,3.879,3.879,0,0,1,1.566,1.512,4.439,4.439,0,0,1,.558,2.25v4.284A4.489,4.489,0,0,1,20.52-1.9,3.862,3.862,0,0,1,18.954-.378,4.881,4.881,0,0,1,16.614.162Zm0-1.494a2.678,2.678,0,0,0,1.98-.756,2.7,2.7,0,0,0,.756-2V-8.46a2.755,2.755,0,0,0-.756-2.025,2.66,2.66,0,0,0-1.98-.765,2.63,2.63,0,0,0-1.971.765A2.774,2.774,0,0,0,13.9-8.46v4.374a2.719,2.719,0,0,0,.747,2A2.647,2.647,0,0,0,16.614-1.332ZM27.81.162a4.842,4.842,0,0,1-2.322-.54A3.862,3.862,0,0,1,23.922-1.9a4.489,4.489,0,0,1-.558-2.259V-8.442a4.439,4.439,0,0,1,.558-2.25A3.879,3.879,0,0,1,25.488-12.2a4.842,4.842,0,0,1,2.322-.54,4.881,4.881,0,0,1,2.34.54,3.879,3.879,0,0,1,1.566,1.512,4.439,4.439,0,0,1,.558,2.25v4.284A4.489,4.489,0,0,1,31.716-1.9,3.862,3.862,0,0,1,30.15-.378,4.881,4.881,0,0,1,27.81.162Zm0-1.494a2.678,2.678,0,0,0,1.98-.756,2.7,2.7,0,0,0,.756-2V-8.46a2.755,2.755,0,0,0-.756-2.025,2.66,2.66,0,0,0-1.98-.765,2.63,2.63,0,0,0-1.971.765,2.774,2.774,0,0,0-.747,2.025v4.374a2.719,2.719,0,0,0,.747,2A2.647,2.647,0,0,0,27.81-1.332Zm15.444-9.954a.159.159,0,0,1-.18.18H36.7a.064.064,0,0,0-.072.072v3.87a.064.064,0,0,0,.072.072h4.374a.159.159,0,0,1,.18.18v1.134a.159.159,0,0,1-.18.18H36.7a.064.064,0,0,0-.072.072V-.18a.159.159,0,0,1-.18.18H35.082a.159.159,0,0,1-.18-.18V-12.42a.159.159,0,0,1,.18-.18h7.992a.159.159,0,0,1,.18.18ZM45.252,0a.159.159,0,0,1-.18-.18V-12.42a.159.159,0,0,1,.18-.18H46.62a.159.159,0,0,1,.18.18V-.18a.159.159,0,0,1-.18.18ZM57.168-12.42a.159.159,0,0,1,.18-.18h1.368a.159.159,0,0,1,.18.18V-.18a.159.159,0,0,1-.18.18H57.4a.261.261,0,0,1-.216-.126l-5.634-9.2q-.018-.054-.054-.045t-.036.063L51.48-.18A.159.159,0,0,1,51.3,0H49.932a.159.159,0,0,1-.18-.18V-12.42a.159.159,0,0,1,.18-.18h1.332a.261.261,0,0,1,.216.126l5.616,9.2q.018.054.054.045t.036-.063ZM65.916.144a4.954,4.954,0,0,1-2.3-.513,3.707,3.707,0,0,1-1.548-1.458A4.238,4.238,0,0,1,61.524-4V-8.6a4.225,4.225,0,0,1,.549-2.178,3.724,3.724,0,0,1,1.548-1.449,4.954,4.954,0,0,1,2.3-.513,4.972,4.972,0,0,1,2.286.5,3.773,3.773,0,0,1,1.539,1.395,3.748,3.748,0,0,1,.549,2.007v.2a.159.159,0,0,1-.18.18H68.742a.159.159,0,0,1-.18-.18V-8.8a2.282,2.282,0,0,0-.729-1.755,2.709,2.709,0,0,0-1.917-.675,2.672,2.672,0,0,0-1.935.7,2.479,2.479,0,0,0-.729,1.872v4.716a2.432,2.432,0,0,0,.756,1.872,2.794,2.794,0,0,0,1.98.7,2.715,2.715,0,0,0,1.881-.621,2.168,2.168,0,0,0,.693-1.7V-5.076a.064.064,0,0,0-.072-.072H66.06a.159.159,0,0,1-.18-.18V-6.444a.159.159,0,0,1,.18-.18h4.05a.159.159,0,0,1,.18.18v2.286A4.177,4.177,0,0,1,69.111-.972,4.458,4.458,0,0,1,65.916.144Z" transform="translate(453.125 2933.642)" fill="#fff"/>
  </g>
</svg>
