<svg xmlns="http://www.w3.org/2000/svg" xmlns:xlink="http://www.w3.org/1999/xlink" width="191.908" height="72.317" viewBox="0 0 191.908 72.317">
  <defs>
    <radialGradient id="radial-gradient" cx="0.488" cy="-0.14" r="1.013" gradientTransform="translate(0.09) scale(0.819 1)" gradientUnits="objectBoundingBox">
      <stop offset="0" stop-color="#28aae1"/>
      <stop offset="1" stop-color="#2d368e"/>
    </radialGradient>
  </defs>
  <g id="Group_5003" data-name="Group 5003" transform="translate(-462.404 -6787.693)">
    <path id="Union_5" data-name="Union 5" d="M4662,53.308v-10h.007a35.741,35.741,0,0,1,3.176-14.1,37.826,37.826,0,0,1,8.679-12.078,40.625,40.625,0,0,1,12.874-8.144,43.118,43.118,0,0,1,31.53,0,40.625,40.625,0,0,1,12.874,8.144,37.848,37.848,0,0,1,8.679,12.078,35.746,35.746,0,0,1,3.176,14.1H4743v10Z" transform="translate(-4146 6781.692)" fill="#f5f5f5"/>
    <g id="Group_1550" data-name="Group 1550" transform="translate(462.404 6794.355)">
      <g id="Group_1548" data-name="Group 1548" transform="translate(0 0)">
        <path id="Path_117" data-name="Path 117" d="M134.228,224.984h10.3a.9.9,0,0,1,.63.277.8.8,0,0,1,.251.63.784.784,0,0,1-.251.6.9.9,0,0,1-.63.277h-10.3a1.7,1.7,0,0,0-.881.227,1.613,1.613,0,0,0-.629.6,1.827,1.827,0,0,0-.227.882V230.8a1.661,1.661,0,0,0,.227.855,1.516,1.516,0,0,0,.629.63,1.7,1.7,0,0,0,.881.226h7.706a3.548,3.548,0,0,1,1.36.277,3.618,3.618,0,0,1,1.108.756,3.4,3.4,0,0,1,.731,1.108,3.548,3.548,0,0,1,.276,1.36v2.317a3.515,3.515,0,0,1-.276,1.334,3.818,3.818,0,0,1-.731,1.134,4.032,4.032,0,0,1-1.108.73,3.134,3.134,0,0,1-1.36.277H131.609a.874.874,0,0,1-.629-.251.883.883,0,0,1,0-1.235.906.906,0,0,1,.629-.277h10.325a1.769,1.769,0,0,0,.882-.226,1.749,1.749,0,0,0,.6-.605,1.836,1.836,0,0,0,.227-.881v-2.317a1.77,1.77,0,0,0-.227-.882,1.745,1.745,0,0,0-.6-.6,1.77,1.77,0,0,0-.882-.227h-7.706a3.539,3.539,0,0,1-1.359-.277,3.109,3.109,0,0,1-1.109-.756,3.607,3.607,0,0,1-.755-1.108,3.539,3.539,0,0,1-.277-1.359v-2.317a3.545,3.545,0,0,1,.277-1.36,3.621,3.621,0,0,1,.755-1.108,3.476,3.476,0,0,1,1.109-.756,3.545,3.545,0,0,1,1.359-.277Zm14.355,12.39v.958a1.765,1.765,0,0,0,.226.881,1.624,1.624,0,0,0,.63.605,1.678,1.678,0,0,0,.856.226h8.486a.937.937,0,0,1,.6.251.856.856,0,0,1,0,1.26.82.82,0,0,1-.6.251h-8.486a3.134,3.134,0,0,1-1.36-.277,3.532,3.532,0,0,1-1.108-.73,3.694,3.694,0,0,1-.73-1.109,3.538,3.538,0,0,1-.278-1.359v-4.181a3.752,3.752,0,0,1,.278-1.36,3.574,3.574,0,0,1,.73-1.082,3.614,3.614,0,0,1,1.108-.755,3.548,3.548,0,0,1,1.36-.278h6.27a3.548,3.548,0,0,1,1.36.278,3.619,3.619,0,0,1,1.108.755,3.573,3.573,0,0,1,.73,1.082,3.291,3.291,0,0,1,.278,1.36v2.342a.861.861,0,0,1-.882.881c-1.36.025-2.719,0-4.079,0h-6.5Zm0-1.737h9.694v-1.486a1.678,1.678,0,0,0-.226-.856,2.052,2.052,0,0,0-.605-.63,1.764,1.764,0,0,0-.881-.226h-6.27a1.678,1.678,0,0,0-.856.226,2.151,2.151,0,0,0-.63.63,1.678,1.678,0,0,0-.226.856v1.486Zm22.789,6.144c-.024.026-.075.026-.126.026h-.1a.835.835,0,0,1-.63-.251.783.783,0,0,1-.252-.6v-6.7a1.833,1.833,0,0,0-.226-.881,1.61,1.61,0,0,0-.63-.6,1.478,1.478,0,0,0-.855-.252h-4.079a1.6,1.6,0,0,0-.831.252,1.809,1.809,0,0,0-.63.6,1.833,1.833,0,0,0-.226.881v6.7a1.031,1.031,0,0,1-.126.453,1.26,1.26,0,0,1-.327.3,1,1,0,0,1-.454.1.858.858,0,0,1-.856-.855v-6.7a3.519,3.519,0,0,1,.251-1.359,3.9,3.9,0,0,1,.755-1.133,3.387,3.387,0,0,1,1.109-.78,3.118,3.118,0,0,1,1.335-.3h4.079a3.6,3.6,0,0,1,1.133.2,4.093,4.093,0,0,1,.957.555c.176.151.353.327.529.5a3.53,3.53,0,0,1,.553-.5,4.534,4.534,0,0,1,.957-.555,3.331,3.331,0,0,1,1.109-.2h4.231a3.256,3.256,0,0,1,1.384.3,3.423,3.423,0,0,1,1.134.755,3.833,3.833,0,0,1,.755,1.159,3.544,3.544,0,0,1,.277,1.359v6.7a.859.859,0,0,1-.882.855.9.9,0,0,1-.906-.855v-6.7a1.824,1.824,0,0,0-.227-.881,1.607,1.607,0,0,0-.629-.6,1.64,1.64,0,0,0-.906-.252H173.79a1.6,1.6,0,0,0-.831.252,1.738,1.738,0,0,0-.605.6,1.591,1.591,0,0,0-.226.881v6.7a.752.752,0,0,1-.278.579,1.237,1.237,0,0,1-.478.251Zm13.246,0v4.836a.8.8,0,0,1-.277.6.779.779,0,0,1-.6.252.8.8,0,0,1-.629-.252.855.855,0,0,1-.278-.629V234.176a3.547,3.547,0,0,1,.278-1.36,3.614,3.614,0,0,1,.755-1.108,3.748,3.748,0,0,1,1.108-.755,3.549,3.549,0,0,1,1.36-.278h6.245a3.737,3.737,0,0,1,1.359.278,3.444,3.444,0,0,1,1.84,1.863,3.145,3.145,0,0,1,.277,1.36v4.13a3.215,3.215,0,0,1-.277,1.359,4.066,4.066,0,0,1-.731,1.109,3.527,3.527,0,0,1-1.109.73,3.277,3.277,0,0,1-1.359.276c-1.082.026-2.166,0-3.223,0h-4.735Zm0-1.761h7.958a1.844,1.844,0,0,0,.882-.227,1.806,1.806,0,0,0,.6-.63,1.691,1.691,0,0,0,.251-.855v-4.13a1.7,1.7,0,0,0-.251-.856,1.62,1.62,0,0,0-.6-.629,1.844,1.844,0,0,0-.882-.227H186.33a1.679,1.679,0,0,0-.856.227,1.52,1.52,0,0,0-.63.629,1.679,1.679,0,0,0-.227.856v5.843Zm14.355-2.645v.958a1.766,1.766,0,0,0,.227.881,1.616,1.616,0,0,0,.629.605,1.673,1.673,0,0,0,.856.226h8.461a.949.949,0,0,1,.63.251.856.856,0,0,1,0,1.26.836.836,0,0,1-.63.251h-8.461a3.128,3.128,0,0,1-1.36-.277,3.544,3.544,0,0,1-1.109-.73,3.693,3.693,0,0,1-.73-1.109,3.125,3.125,0,0,1-.277-1.359v-4.181a3.289,3.289,0,0,1,.277-1.36,3.573,3.573,0,0,1,.73-1.082,3.626,3.626,0,0,1,1.109-.755,3.54,3.54,0,0,1,1.36-.278h6.27a3.548,3.548,0,0,1,1.36.278,3.77,3.77,0,0,1,1.839,1.837,3.756,3.756,0,0,1,.277,1.36v2.342a.94.94,0,0,1-.252.629.873.873,0,0,1-.63.251c-1.36.025-2.719,0-4.079,0h-6.5Zm0-1.737h9.7v-1.486a1.679,1.679,0,0,0-.227-.856,1.886,1.886,0,0,0-.63-.63,1.675,1.675,0,0,0-.856-.226h-6.27a1.673,1.673,0,0,0-.856.226,1.875,1.875,0,0,0-.629.63,1.679,1.679,0,0,0-.227.856v1.486Zm15.815-4.961h5.464a3.521,3.521,0,0,1,1.335.278,3.364,3.364,0,0,1,1.033.73,3.161,3.161,0,0,1,.73,1.083,2.891,2.891,0,0,1,.251,1.31.858.858,0,0,1-.855.855.819.819,0,0,1-.605-.251,1.176,1.176,0,0,1-.226-.6,1.584,1.584,0,0,0-.227-.831,1.664,1.664,0,0,0-.579-.6,1.746,1.746,0,0,0-.856-.226h-5.464a1.589,1.589,0,0,0-.832.226,1.733,1.733,0,0,0-.6.6,1.584,1.584,0,0,0-.226.831v6.875a.86.86,0,0,1-.857.855.833.833,0,0,1-.628-.251.876.876,0,0,1-.252-.6v-6.875a3.291,3.291,0,0,1,.277-1.31,3.16,3.16,0,0,1,.731-1.083,3.57,3.57,0,0,1,1.082-.73A3.3,3.3,0,0,1,214.787,230.675Z" transform="translate(-130.728 -181.817)" fill="#2d368e" fill-rule="evenodd"/>
        <path id="Path_118" data-name="Path 118" d="M506.14,230.288a4.283,4.283,0,0,0-1.259-.856,4.071,4.071,0,0,0-1.536-.3h-7.681a4.1,4.1,0,0,0-1.561.3,4.639,4.639,0,0,0-1.259.856,3.942,3.942,0,0,0-.832,1.259,4.013,4.013,0,0,0-.327,1.536v4.155a4.115,4.115,0,0,0,.327,1.536,4.171,4.171,0,0,0,.858,1.26,4.055,4.055,0,0,0,1.233.83,3.687,3.687,0,0,0,1.561.329h7.681a3.662,3.662,0,0,0,1.536-.329,4.515,4.515,0,0,0,1.259-.83,4.25,4.25,0,0,0,.832-1.26,3.676,3.676,0,0,0,.327-1.536v-4.155a3.6,3.6,0,0,0-.327-1.536A3.943,3.943,0,0,0,506.14,230.288Zm-1.561,6.951a1.19,1.19,0,0,1-.152.6,1.639,1.639,0,0,1-.452.479,1.377,1.377,0,0,1-.63.151h-7.681a1.3,1.3,0,0,1-.629-.151,1.19,1.19,0,0,1-.454-.479,1.012,1.012,0,0,1-.175-.6v-4.155a1.146,1.146,0,0,1,.175-.629,1.312,1.312,0,0,1,.454-.453,1.29,1.29,0,0,1,.629-.152h7.681a1.364,1.364,0,0,1,.63.152,1.917,1.917,0,0,1,.452.453,1.357,1.357,0,0,1,.152.629Zm37.848-5.742a3.371,3.371,0,0,0-.8-1.234,4.114,4.114,0,0,0-1.233-.831,3.856,3.856,0,0,0-1.512-.3h-5.464a3.734,3.734,0,0,0-1.487.3,3.822,3.822,0,0,0-1.233.831,3.967,3.967,0,0,0-.83,1.209,3.83,3.83,0,0,0-.3,1.511v6.875a1.221,1.221,0,0,0,.4.931,1.326,1.326,0,0,0,.934.4,1.428,1.428,0,0,0,.957-.4,1.3,1.3,0,0,0,.378-.931v-6.875a1.334,1.334,0,0,1,.15-.605,1.226,1.226,0,0,1,.454-.428,1.154,1.154,0,0,1,.579-.151h5.464a1.35,1.35,0,0,1,.629.151,1.385,1.385,0,0,1,.429.428,1.364,1.364,0,0,1,.152.63,1.347,1.347,0,0,0,.376.907,1.323,1.323,0,0,0,.934.4,1.244,1.244,0,0,0,.957-.4,1.3,1.3,0,0,0,.376-.931A3.708,3.708,0,0,0,542.427,231.5Zm-14.3-1.234a4.122,4.122,0,0,0-1.233-.831,3.95,3.95,0,0,0-1.512-.3h-8.763a1.289,1.289,0,0,0-.931.378,1.276,1.276,0,0,0-.4.957,1.316,1.316,0,0,0,.4.957,1.289,1.289,0,0,0,.931.378h8.763a1.338,1.338,0,0,1,.606.151,1.917,1.917,0,0,1,.452.453,1.359,1.359,0,0,1,.152.629v.353h-7.5a3.471,3.471,0,0,0-1.512.328,3.717,3.717,0,0,0-1.259.806,4.407,4.407,0,0,0-.83,1.234,4.042,4.042,0,0,0-.3,1.536,3.83,3.83,0,0,0,.3,1.511,4.087,4.087,0,0,0,.83,1.234,3.792,3.792,0,0,0,1.233.83,3.474,3.474,0,0,0,1.512.329h6.319a3.857,3.857,0,0,0,2.746-1.134,4.184,4.184,0,0,0,.83-1.259,3.836,3.836,0,0,0,.3-1.511v-4.256a3.956,3.956,0,0,0-.3-1.536A4.073,4.073,0,0,0,528.124,230.263Zm-1.536,6.32v.706a1.185,1.185,0,0,1-.152.6,1.544,1.544,0,0,1-.452.454,1.206,1.206,0,0,1-.606.151h-6.319a1.356,1.356,0,0,1-.606-.151,1.48,1.48,0,0,1-.426-.454.994.994,0,0,1-.177-.6,1.208,1.208,0,0,1,.177-.6.988.988,0,0,1,.452-.453,1.056,1.056,0,0,1,.606-.176h7.5Zm-12.869,1.889h-2.015a1.369,1.369,0,0,1-.629-.151,1.677,1.677,0,0,1-.454-.479,1.212,1.212,0,0,1-.15-.6V224.8a1.356,1.356,0,0,0-.429-.982,1.29,1.29,0,0,0-.932-.378,1.375,1.375,0,0,0-1.36,1.36v12.44a3.676,3.676,0,0,0,.327,1.536,4.586,4.586,0,0,0,.832,1.26,4.17,4.17,0,0,0,1.259.83,3.575,3.575,0,0,0,1.536.329h2.015a1.332,1.332,0,0,0,.957-.4,1.336,1.336,0,0,0,0-1.913A1.329,1.329,0,0,0,513.72,238.473Zm-35.254-11.709a1.113,1.113,0,0,1,.452-.454,1.373,1.373,0,0,1,.629-.151h10.326a1.376,1.376,0,0,0,1.335-1.359,1.332,1.332,0,0,0-1.335-1.36H479.547a4.071,4.071,0,0,0-1.535.3,4.283,4.283,0,0,0-1.259.856,3.942,3.942,0,0,0-.832,1.259,3.593,3.593,0,0,0-.325,1.536v2.317a3.592,3.592,0,0,0,.325,1.535,3.93,3.93,0,0,0,.832,1.259,4.637,4.637,0,0,0,1.259.856,4.071,4.071,0,0,0,1.535.3h7.732a1.279,1.279,0,0,1,1.084.63,1.09,1.09,0,0,1,.175.63v2.317a1.277,1.277,0,0,1-1.259,1.259H476.953a1.349,1.349,0,0,0-.957.378,1.36,1.36,0,0,0,.957,2.317h10.326a3.574,3.574,0,0,0,1.535-.329,4.06,4.06,0,0,0,1.234-.83,4.17,4.17,0,0,0,.857-1.26,4.084,4.084,0,0,0,.3-1.536v-2.317a3.994,3.994,0,0,0-.3-1.537,3.625,3.625,0,0,0-.857-1.259,3.5,3.5,0,0,0-1.234-.856,3.969,3.969,0,0,0-1.535-.3h-7.732a1.142,1.142,0,0,1-.629-.176,1.289,1.289,0,0,1-.452-.453,1.133,1.133,0,0,1-.177-.629v-2.317A1.128,1.128,0,0,1,478.465,226.763Z" transform="translate(-374.512 -180.725)" fill="#ea2127" fill-rule="evenodd"/>
        <path id="Path_119" data-name="Path 119" d="M707.18,238.084a.874.874,0,0,1,.6.253.856.856,0,0,1,.279.629v9.368a.857.857,0,0,1-.279.63.777.777,0,0,1-.6.251.8.8,0,0,1-.629-.251.862.862,0,0,1-.277-.63v-9.368a.861.861,0,0,1,.277-.629.9.9,0,0,1,.629-.253Zm-.906-1.007v-.7a.95.95,0,0,1,.906-.907.875.875,0,0,1,.6.252.911.911,0,0,1,.279.655v.7a.9.9,0,0,1-.279.63.874.874,0,0,1-.6.251,1.01,1.01,0,0,1-.655-.251,1,1,0,0,1-.252-.63Zm7.781,1.007h8.613a.807.807,0,0,1,.6.278.853.853,0,0,1,.277.629.9.9,0,0,1-.277.63.882.882,0,0,1-.6.251h-8.613a2.513,2.513,0,0,0-.956.2,1.965,1.965,0,0,0-.655.555,1.015,1.015,0,0,0-.251.7,1,1,0,0,0,.251.68,1.962,1.962,0,0,0,.655.555,2.513,2.513,0,0,0,.956.2h6.07a3.643,3.643,0,0,1,1.383.251,3.347,3.347,0,0,1,1.16.68,3.05,3.05,0,0,1,1.083,2.266,2.841,2.841,0,0,1-.3,1.284,3.034,3.034,0,0,1-.781,1.007,3.57,3.57,0,0,1-1.134.706,3.874,3.874,0,0,1-1.409.251h-8.79a.782.782,0,0,1-.6-.251.84.84,0,0,1-.251-.63.785.785,0,0,1,.251-.6.809.809,0,0,1,.6-.277h8.79a2,2,0,0,0,.932-.2,2.145,2.145,0,0,0,.68-.553,1.264,1.264,0,0,0,.226-.731,1.113,1.113,0,0,0-.226-.68,1.632,1.632,0,0,0-.68-.553,2.37,2.37,0,0,0-.932-.2h-6.07a3.682,3.682,0,0,1-1.385-.251,3.377,3.377,0,0,1-1.157-.68,2.9,2.9,0,0,1-.781-1.033,2.64,2.64,0,0,1-.3-1.235,2.844,2.844,0,0,1,.3-1.284,3.415,3.415,0,0,1,.781-1.032,4.376,4.376,0,0,1,1.157-.68A4.226,4.226,0,0,1,714.055,238.084Z" transform="translate(-537.578 -189.226)" fill="#2d368e" fill-rule="evenodd"/>
        <path id="Path_120" data-name="Path 120" d="M360.9,80.686h0a7.427,7.427,0,0,0-2.418,2.871,4.59,4.59,0,0,1-2.367,1.913,20.837,20.837,0,0,0-5.59,3.123,2.145,2.145,0,0,0-.327.3,31.71,31.71,0,0,1,10.7-8.209Zm44.548,22.689a1.466,1.466,0,0,1,.477.529h0a32.248,32.248,0,0,1,.5,5.666,31.755,31.755,0,0,1-.5,5.641h0a1.153,1.153,0,0,1-.477.528c-.3.2-.48-.6-.378-1.737a58.037,58.037,0,0,0,0-8.864c-.1-1.133.074-1.939.378-1.763Zm-9.243-1.788c3.9.454,3.9.454,6.875.982.6.126,1.183,1.234,1.309,2.418a69.814,69.814,0,0,1,0,9.166c-.127,1.184-.705,2.292-1.309,2.417-2.972.529-2.972.529-6.875.982a2.057,2.057,0,0,1-1.99-2.417c.1-5.565.1-5.565,0-11.13-.076-1.436.83-2.519,1.99-2.418Zm-17.7-.806c5.817.126,5.817.126,11.255.353a2.842,2.842,0,0,1,2.545,2.8c.125,5.641.125,5.641,0,11.282a2.862,2.862,0,0,1-2.545,2.8c-5.439.226-5.439.226-11.255.353a2.782,2.782,0,0,1-2.822-2.8V103.577a2.766,2.766,0,0,1,2.822-2.8Zm-19.24.327c5.44-.2,5.44-.2,11.257-.327a2.774,2.774,0,0,1,2.8,2.8v11.987a2.775,2.775,0,0,1-2.8,2.8c-5.818-.127-5.818-.127-11.257-.353a2.878,2.878,0,0,1-2.568-2.77c-.1-5.691-.1-5.691,0-11.332a2.924,2.924,0,0,1,2.568-2.8Zm-13.321,1.41c2.972-.5,2.972-.5,6.85-.932,1.184-.126,2.09.982,2.015,2.418-.126,5.54-.126,5.54,0,11.13.075,1.435-.831,2.544-2.015,2.417-3.878-.428-3.878-.428-6.85-.931-.629-.176-1.184-1.259-1.309-2.417a70.944,70.944,0,0,1,0-9.267c.125-1.183.68-2.266,1.309-2.418Zm-2.846,1.335h0a1.381,1.381,0,0,1,.453-.5c.327-.176.5.629.378,1.762a65.753,65.753,0,0,0,0,8.915c.127,1.133-.051,1.939-.378,1.762a1.253,1.253,0,0,1-.453-.529h0a32.5,32.5,0,0,1-.5-5.69,33.01,33.01,0,0,1,.5-5.716Zm62.5-1.537a31.632,31.632,0,0,0-4.431-10.3h0c.074.126.175.277.277.454a34.346,34.346,0,0,1,2.7,6.9,5.136,5.136,0,0,0,1.005,2.342,1.265,1.265,0,0,1,.454.6ZM393.436,86.755c-1.007-.327-1.611.176-1.36,1.134a78.753,78.753,0,0,1,1.588,8.889,2.983,2.983,0,0,0,2.366,2.669,55.319,55.319,0,0,1,6.8,1.234c.6.2.881-.554.655-1.662a38.465,38.465,0,0,0-2.6-7.177,10.368,10.368,0,0,0-1.66-2.165,23,23,0,0,0-5.794-2.922Zm-15.412-2.467a91.934,91.934,0,0,1,9.847,1.082,3.407,3.407,0,0,1,2.543,2.166c.807,4.18.807,4.18,1.411,9.015a2.028,2.028,0,0,1-2.19,2.317c-5.415-.3-5.415-.3-11.156-.454a2.828,2.828,0,0,1-2.845-2.669c-.025-5.162-.025-5.162-.076-9.67-.025-1.033,1.084-1.813,2.467-1.788Zm-16.846,1.058a3.325,3.325,0,0,0-2.543,2.165c-.807,4.18-.807,4.18-1.436,9.015a2.018,2.018,0,0,0,2.191,2.317c5.415-.277,5.415-.277,11.155-.428a2.782,2.782,0,0,0,2.8-2.669c.076-5.162.076-5.162.127-9.67a2.133,2.133,0,0,0-2.443-1.788,97.3,97.3,0,0,0-9.846,1.058ZM349.82,89.651a10.262,10.262,0,0,0-1.687,2.166,38.411,38.411,0,0,0-2.593,7.177c-.227,1.108.05,1.863.655,1.662a61.109,61.109,0,0,1,6.8-1.209,3.041,3.041,0,0,0,2.367-2.695,80.126,80.126,0,0,1,1.587-8.864c.277-.982-.353-1.461-1.36-1.158a23.184,23.184,0,0,0-5.767,2.921Zm-1.964,2.342a32.3,32.3,0,0,0-4.432,10.275h0a1.5,1.5,0,0,1,.429-.579,5.239,5.239,0,0,0,1.032-2.317,32.116,32.116,0,0,1,2.7-6.9c.1-.2.2-.353.277-.479Zm51-3.072c-.025-.025-.127-.1-.353-.327a23.014,23.014,0,0,0-5.591-3.123,4.392,4.392,0,0,1-2.342-1.889,7.88,7.88,0,0,0-2.418-2.871v-.025a32.1,32.1,0,0,1,10.7,8.235ZM377.143,77.74c-1.033-.051-1.863-.051-1.837.1.1,1.184.1,1.184.176,3.5,0,.755,1.134,1.486,2.444,1.511a90.447,90.447,0,0,1,9.568,1.158c1.16.227,1.84-.176,1.538-.881-1.134-2.04-1.134-2.04-2.393-3.1h0a31.723,31.723,0,0,0-7.529-2.065h0c-.982-.126-.982-.126-1.964-.227Zm-7.227.227a32.387,32.387,0,0,0-7.505,2.04v.025c-1.259,1.032-1.259,1.032-2.417,3.072-.3.73.4,1.133,1.536.881a85.887,85.887,0,0,1,9.569-1.133c1.335-.05,2.417-.756,2.468-1.511.076-2.316.076-2.316.126-3.5.025-.151-.781-.151-1.788-.1-.982.1-.982.1-1.964.227Z" transform="translate(-280.494 -77.709)" fill="#2d368e" fill-rule="evenodd"/>
        <path id="Path_121" data-name="Path 121" d="M380.382,82.128c-.251.353-.528.781-1.007,1.562a4.59,4.59,0,0,1-2.367,1.913l-.932.4a22.032,22.032,0,0,1,4.307-3.878Zm15.815-4.18a25.363,25.363,0,0,1,13.169,4.306c.152.277.328.579.556,1.007.3.7-.378,1.108-1.538.881a90.448,90.448,0,0,0-9.568-1.158c-1.31-.025-2.444-.756-2.444-1.511-.076-2.316-.076-2.316-.176-3.5v-.025Zm15.486,6.145c.277.276.556.528.832.806a4.306,4.306,0,0,1-.832-.806Zm2.495,2.744a16.137,16.137,0,0,1,3.273,9.62,14.8,14.8,0,0,1-.327,3.173l-.2-.051a2.983,2.983,0,0,1-2.366-2.669,78.759,78.759,0,0,0-1.588-8.889c-.226-.882.3-1.385,1.211-1.184Zm2.317,14.958a16.991,16.991,0,0,1-1.385,2.9v-.554a2.159,2.159,0,0,1,1.385-2.342Zm-3.225,5.414a24.226,24.226,0,0,1-16.7,7.756V103.71a2.766,2.766,0,0,1,2.822-2.8c5.817.126,5.817.126,11.255.353a2.842,2.842,0,0,1,2.545,2.8c.025,1.31.051,2.292.074,3.148Zm-19.062,7.807a25.007,25.007,0,0,1-16.7-6.547c.025-1.108.049-2.418.075-4.432a2.924,2.924,0,0,1,2.568-2.8c5.44-.2,5.44-.2,11.257-.327a2.774,2.774,0,0,1,2.8,2.8v11.307Zm-18.56-8.638a17.267,17.267,0,0,1-2.568-4.608l.6-.051c1.184-.126,2.09.982,2.015,2.418-.026.856-.026,1.611-.051,2.241Zm-3.148-6.6a16.234,16.234,0,0,1-.353-3.324,15.9,15.9,0,0,1,2.821-8.99c.429-.151.907-.352,1.511-.6,1.008-.3,1.637.176,1.36,1.158a80.112,80.112,0,0,0-1.587,8.864,3.041,3.041,0,0,1-2.367,2.695l-1.386.2Zm9.922-18.862A26.448,26.448,0,0,1,394.535,77.9c.025.025.05.051.05.076-.05,1.184-.05,1.184-.126,3.5-.051.755-1.133,1.461-2.468,1.511a85.885,85.885,0,0,0-9.569,1.133c-1.133.252-1.838-.151-1.536-.881a9.995,9.995,0,0,1,1.536-2.317Zm16.494,3.5c-1.383-.025-2.492.755-2.467,1.788.051,4.508.051,4.508.076,9.67a2.828,2.828,0,0,0,2.845,2.669c5.74.151,5.74.151,11.156.454a2.028,2.028,0,0,0,2.19-2.317c-.6-4.835-.6-4.835-1.411-9.015a3.407,3.407,0,0,0-2.543-2.166,91.932,91.932,0,0,0-9.847-1.082Zm-16.846,1.058a3.325,3.325,0,0,0-2.543,2.165c-.807,4.18-.807,4.18-1.436,9.015a2.018,2.018,0,0,0,2.191,2.317c5.415-.277,5.415-.277,11.155-.428a2.782,2.782,0,0,0,2.8-2.669c.076-5.162.076-5.162.127-9.67a2.133,2.133,0,0,0-2.443-1.788A97.3,97.3,0,0,0,382.069,85.478Z" transform="translate(-301.386 -77.843)" fill-rule="evenodd" fill="url(#radial-gradient)"/>
        <g id="Group_1546" data-name="Group 1546" transform="translate(0.277 43.454)">
          <path id="Path_122" data-name="Path 122" d="M145.19,225.964a.6.6,0,0,1,.61.609.612.612,0,0,1-.61.611H134.883a1.987,1.987,0,0,0-2.012,1.992v2.318a2,2,0,0,0,2.012,1.992h7.726A3.215,3.215,0,0,1,145.8,236.7v2.317a3.215,3.215,0,0,1-3.191,3.212H132.281a.6.6,0,1,1,0-1.2h10.328a2,2,0,0,0,1.992-2.013V236.7a2,2,0,0,0-1.992-1.993h-7.726a3.218,3.218,0,0,1-3.211-3.212v-2.318a3.219,3.219,0,0,1,3.211-3.212Z" transform="translate(-131.672 -225.964)" fill="#2d368e"/>
          <path id="Path_123" data-name="Path 123" d="M196.057,245.384a3.2,3.2,0,0,1,3.192,3.191v2.338a.6.6,0,0,1-.61.609H187.784v1.24a2,2,0,0,0,1.992,1.993h8.478a.6.6,0,1,1,0,1.2h-8.478a3.185,3.185,0,0,1-3.191-3.192v-4.187a3.184,3.184,0,0,1,3.191-3.191Zm-8.273,4.939h10.265v-1.748a2,2,0,0,0-1.993-1.993h-6.281a2,2,0,0,0-1.992,1.993Z" transform="translate(-170.489 -239.692)" fill="#2d368e"/>
          <path id="Path_124" data-name="Path 124" d="M251.709,245.384a3.288,3.288,0,0,1,3.273,3.293v6.688a.61.61,0,0,1-1.22,0v-6.688a2,2,0,0,0-2.053-2.012H247.48a1.978,1.978,0,0,0-1.952,2.012v6.688a.651.651,0,0,1-.59.57.152.152,0,0,1-.1.02.6.6,0,0,1-.609-.59v-6.688a1.987,1.987,0,0,0-1.993-2.012h-4.066a2,2,0,0,0-1.972,2.012v6.688a.627.627,0,0,1-.63.59.59.59,0,0,1-.589-.59v-6.688a3.272,3.272,0,0,1,3.191-3.293h4.066a3.221,3.221,0,0,1,2.6,1.4,3.487,3.487,0,0,1,2.643-1.4Z" transform="translate(-204.698 -239.692)" fill="#2d368e"/>
          <path id="Path_125" data-name="Path 125" d="M310.053,261.647a.6.6,0,0,1-.61-.611V248.6a3.219,3.219,0,0,1,3.212-3.211H318.9a3.219,3.219,0,0,1,3.211,3.211v4.127a3.219,3.219,0,0,1-3.211,3.212h-8.234v5.1A.612.612,0,0,1,310.053,261.647ZM320.908,248.6A2,2,0,0,0,318.9,246.6h-6.241a2,2,0,0,0-1.993,1.992v6.119H318.9a2,2,0,0,0,2.012-1.991Z" transform="translate(-257.337 -239.692)" fill="#2d368e"/>
          <path id="Path_126" data-name="Path 126" d="M367.937,245.384a3.2,3.2,0,0,1,3.192,3.191v2.338a.6.6,0,0,1-.61.609H359.664v1.24a2,2,0,0,0,1.992,1.993h8.478a.6.6,0,1,1,0,1.2h-8.478a3.185,3.185,0,0,1-3.191-3.192v-4.187a3.184,3.184,0,0,1,3.191-3.191Zm-8.273,4.939h10.265v-1.748a2,2,0,0,0-1.993-1.993h-6.281a2,2,0,0,0-1.992,1.993Z" transform="translate(-291.99 -239.692)" fill="#2d368e"/>
          <path id="Path_127" data-name="Path 127" d="M415.437,245.384a3.11,3.11,0,0,1,3.11,3.11.579.579,0,1,1-1.158,0,1.935,1.935,0,0,0-1.952-1.932h-5.469a1.931,1.931,0,0,0-1.932,1.932v6.87a.589.589,0,1,1-1.178,0v-6.87a3.123,3.123,0,0,1,3.11-3.11Z" transform="translate(-326.199 -239.692)" fill="#2d368e"/>
        </g>
        <g id="Group_1547" data-name="Group 1547" transform="translate(101.837 43.454)">
          <path id="Path_128" data-name="Path 128" d="M491.687,225.964a.6.6,0,0,1,.611.609.612.612,0,0,1-.611.611H481.38a1.988,1.988,0,0,0-2.013,1.992v2.318a2,2,0,0,0,2.013,1.992h7.726A3.216,3.216,0,0,1,492.3,236.7v2.317a3.216,3.216,0,0,1-3.191,3.212H478.779a.6.6,0,1,1,0-1.2h10.328a2,2,0,0,0,1.992-2.013V236.7a2,2,0,0,0-1.992-1.993H481.38a3.219,3.219,0,0,1-3.212-3.212v-2.318a3.22,3.22,0,0,1,3.212-3.212Z" transform="translate(-478.168 -225.964)" fill="#ea2127"/>
          <path id="Path_129" data-name="Path 129" d="M543.979,245.384a3.22,3.22,0,0,1,3.212,3.211v4.147a3.22,3.22,0,0,1-3.212,3.212H536.3a3.219,3.219,0,0,1-3.212-3.212V248.6a3.218,3.218,0,0,1,3.212-3.211Zm-9.677,7.358a2,2,0,0,0,1.994,1.993h7.684a2,2,0,0,0,1.992-1.993V248.6a2,2,0,0,0-1.992-1.992H536.3A2,2,0,0,0,534.3,248.6Z" transform="translate(-516.987 -239.692)" fill="#ea2127"/>
          <path id="Path_130" data-name="Path 130" d="M587.992,226.573a.6.6,0,0,1,.61-.609.612.612,0,0,1,.61.609v12.441a2,2,0,0,0,1.992,1.993h2.013a.61.61,0,1,1,0,1.22H591.2a3.22,3.22,0,0,1-3.212-3.212Z" transform="translate(-555.802 -225.964)" fill="#ea2127"/>
          <path id="Path_131" data-name="Path 131" d="M622.475,245.384a3.14,3.14,0,0,1,3.151,3.15v4.27a3.136,3.136,0,0,1-3.13,3.151h-6.321a3.151,3.151,0,1,1,.019-6.3h8.254v-1.118a1.973,1.973,0,0,0-1.973-1.971h-8.74a.59.59,0,1,1,0-1.179Zm-6.3,9.371H622.5a1.953,1.953,0,0,0,1.952-1.951v-1.972h-8.254a1.974,1.974,0,0,0-1.971,1.972A1.952,1.952,0,0,0,616.175,254.755Z" transform="translate(-573.497 -239.692)" fill="#ea2127"/>
          <path id="Path_132" data-name="Path 132" d="M670.9,245.384a3.111,3.111,0,0,1,3.111,3.11.58.58,0,1,1-1.16,0,1.935,1.935,0,0,0-1.951-1.932H665.43a1.929,1.929,0,0,0-1.93,1.932v6.87a.59.59,0,1,1-1.181,0v-6.87a3.123,3.123,0,0,1,3.111-3.11Z" transform="translate(-608.343 -239.692)" fill="#ea2127"/>
          <path id="Path_133" data-name="Path 133" d="M707.456,237.047a.6.6,0,0,1,.611-.609.612.612,0,0,1,.61.609v.712a.625.625,0,0,1-.61.609.611.611,0,0,1-.611-.609Zm1.221,2.6v9.371a.612.612,0,0,1-.61.61.6.6,0,0,1-.611-.61v-9.371a.6.6,0,0,1,.611-.589A.608.608,0,0,1,708.677,239.649Z" transform="translate(-640.25 -233.368)" fill="#2d368e"/>
          <path id="Path_134" data-name="Path 134" d="M733.274,245.384a.61.61,0,1,1,0,1.22h-8.6a1.77,1.77,0,1,0,0,3.455h6.059a3.157,3.157,0,0,1,3.354,2.927,3.2,3.2,0,0,1-3.354,2.969h-8.782a.6.6,0,0,1,0-1.2h8.782a2.02,2.02,0,0,0,2.133-1.769,1.99,1.99,0,0,0-2.133-1.728h-6.059a2.963,2.963,0,1,1,0-5.875Z" transform="translate(-650.051 -239.692)" fill="#2d368e"/>
        </g>
      </g>
      <g id="Group_1549" data-name="Group 1549" transform="translate(187.534 48.566)">
        <path id="Path_135" data-name="Path 135" d="M772.272,243.4v.342h-.662v1.726H771.2v-1.726h-.654V243.4Zm2.236,2.069-.076-1.217c-.008-.16-.008-.35-.015-.578h-.023c-.053.183-.114.426-.175.616l-.373,1.149h-.426l-.365-1.179c-.038-.152-.107-.4-.152-.586h-.023c0,.19-.008.4-.015.578l-.076,1.217h-.4l.152-2.069h.624l.35,1.012a4.684,4.684,0,0,1,.137.525h.015c.046-.182.1-.365.137-.509l.358-1.027h.6l.152,2.069Z" transform="translate(-770.545 -243.404)"/>
      </g>
    </g>
  </g>
</svg>
