<svg xmlns="http://www.w3.org/2000/svg" width="18.829" height="18.829" viewBox="0 0 18.829 18.829">
  <path id="Icon_awesome-phone-square-alt" data-name="Icon awesome-phone-square-alt" d="M16.811,2.25H2.017A2.017,2.017,0,0,0,0,4.267V19.061a2.017,2.017,0,0,0,2.017,2.017H16.811a2.017,2.017,0,0,0,2.017-2.017V4.267A2.017,2.017,0,0,0,16.811,2.25Zm-.689,12.918-.63,2.732a.63.63,0,0,1-.614.489A12.189,12.189,0,0,1,2.69,6.2a.66.66,0,0,1,.489-.614l2.732-.63a.766.766,0,0,1,.142-.016.684.684,0,0,1,.58.382L7.892,8.264a.752.752,0,0,1,.051.248A.714.714,0,0,1,7.712,9L6.12,10.3a9.747,9.747,0,0,0,4.656,4.656l1.3-1.592a.714.714,0,0,1,.488-.231.75.75,0,0,1,.248.051l2.942,1.261a.683.683,0,0,1,.382.58A.732.732,0,0,1,16.122,15.168Z" transform="translate(0 -2.25)"/>
</svg>
