<svg xmlns="http://www.w3.org/2000/svg" width="192.332" height="27.284" viewBox="0 0 192.332 27.284">
  <g id="Group_6280" data-name="Group 6280" transform="translate(-986.125 -1691)">
    <path id="Path_6764" data-name="Path 6764" d="M-12.751,7.4H179.58l-8.735,27.284h-183.6Z" transform="translate(998.876 1683.598)" fill="#0c4e97"/>
    <path id="Path_9159" data-name="Path 9159" d="M8.19-6.57q-.09.054,0,.108A2.986,2.986,0,0,1,10.1-3.456,3.118,3.118,0,0,1,9-.9,4.37,4.37,0,0,1,6.138,0H1.656a.159.159,0,0,1-.18-.18V-12.42a.159.159,0,0,1,.18-.18H5.994a4.443,4.443,0,0,1,2.907.855A3.048,3.048,0,0,1,9.936-9.252,2.679,2.679,0,0,1,8.19-6.57ZM3.276-11.106a.064.064,0,0,0-.072.072v3.8a.064.064,0,0,0,.072.072H5.994a2.432,2.432,0,0,0,1.647-.522,1.783,1.783,0,0,0,.6-1.422,1.859,1.859,0,0,0-.6-1.458,2.379,2.379,0,0,0-1.647-.54ZM6.138-1.512a2.282,2.282,0,0,0,1.629-.567,2.011,2.011,0,0,0,.6-1.539,2,2,0,0,0-.612-1.539,2.367,2.367,0,0,0-1.674-.567H3.276a.064.064,0,0,0-.072.072v4.068a.064.064,0,0,0,.072.072ZM19.836,0a.21.21,0,0,1-.216-.144L18.972-2.25A.071.071,0,0,0,18.9-2.3H13.842a.071.071,0,0,0-.072.054L13.122-.144A.21.21,0,0,1,12.906,0H11.448q-.2,0-.144-.2l3.942-12.258a.21.21,0,0,1,.216-.144h1.8a.21.21,0,0,1,.216.144L21.456-.2l.018.072q0,.126-.162.126ZM14.22-3.762a.05.05,0,0,0,.009.063.086.086,0,0,0,.063.027h4.14a.086.086,0,0,0,.063-.027.05.05,0,0,0,.009-.063L16.416-10.44a.058.058,0,0,0-.054-.036.058.058,0,0,0-.054.036ZM30.24-12.6a.159.159,0,0,1,.18.18v1.152a.159.159,0,0,1-.18.18H26.784a.064.064,0,0,0-.072.072V-.18a.159.159,0,0,1-.18.18H25.164a.159.159,0,0,1-.18-.18V-11.016a.064.064,0,0,0-.072-.072H21.618a.159.159,0,0,1-.18-.18V-12.42a.159.159,0,0,1,.18-.18Zm10.332,0a.159.159,0,0,1,.18.18v1.152a.159.159,0,0,1-.18.18H37.116a.064.064,0,0,0-.072.072V-.18a.159.159,0,0,1-.18.18H35.5a.159.159,0,0,1-.18-.18V-11.016a.064.064,0,0,0-.072-.072H31.95a.159.159,0,0,1-.18-.18V-12.42a.159.159,0,0,1,.18-.18Zm10.692,1.314a.159.159,0,0,1-.18.18h-6.39a.064.064,0,0,0-.072.072v3.87a.064.064,0,0,0,.072.072h4.392a.159.159,0,0,1,.18.18v1.134a.159.159,0,0,1-.18.18H44.694a.064.064,0,0,0-.072.072v3.96a.064.064,0,0,0,.072.072h6.39a.159.159,0,0,1,.18.18V-.18a.159.159,0,0,1-.18.18h-8.01a.159.159,0,0,1-.18-.18V-12.42a.159.159,0,0,1,.18-.18h8.01a.159.159,0,0,1,.18.18ZM60.84,0a.2.2,0,0,1-.2-.126l-2.52-5.382a.071.071,0,0,0-.072-.054H55.458a.064.064,0,0,0-.072.072V-.18a.159.159,0,0,1-.18.18H53.838a.159.159,0,0,1-.18-.18V-12.42a.159.159,0,0,1,.18-.18H58.68a3.88,3.88,0,0,1,1.9.45,3.166,3.166,0,0,1,1.269,1.26,3.791,3.791,0,0,1,.45,1.872,3.445,3.445,0,0,1-.657,2.133,3.225,3.225,0,0,1-1.827,1.179q-.072.036-.036.09l2.61,5.4a.2.2,0,0,1,.018.09q0,.126-.144.126ZM55.458-11.106a.064.064,0,0,0-.072.072V-7a.064.064,0,0,0,.072.072h3.006a2.086,2.086,0,0,0,1.53-.567A2.014,2.014,0,0,0,60.57-9a2.068,2.068,0,0,0-.576-1.53,2.068,2.068,0,0,0-1.53-.576ZM67.464-.018a.159.159,0,0,1-.18-.18V-5.256a.142.142,0,0,0-.018-.09l-3.744-7.038a.2.2,0,0,1-.018-.09q0-.126.144-.126h1.476a.211.211,0,0,1,.216.126L68.094-7.2a.058.058,0,0,0,.054.036A.058.058,0,0,0,68.2-7.2l2.754-5.274a.211.211,0,0,1,.216-.126h1.494a.155.155,0,0,1,.135.063.132.132,0,0,1-.009.153L69.03-5.346a.142.142,0,0,0-.018.09V-.2a.159.159,0,0,1-.18.18ZM82.386.144a6.118,6.118,0,0,1-2.4-.432,3.521,3.521,0,0,1-1.566-1.224,3.173,3.173,0,0,1-.549-1.854v-.522a.159.159,0,0,1,.18-.18h1.314a.159.159,0,0,1,.18.18v.432a1.816,1.816,0,0,0,.792,1.512,3.557,3.557,0,0,0,2.178.594,2.878,2.878,0,0,0,1.872-.522,1.691,1.691,0,0,0,.63-1.368,1.458,1.458,0,0,0-.324-.954,3.088,3.088,0,0,0-.945-.729,18.068,18.068,0,0,0-1.809-.8,18.28,18.28,0,0,1-2.079-.918,3.845,3.845,0,0,1-1.269-1.089,2.765,2.765,0,0,1-.5-1.7,2.936,2.936,0,0,1,1.107-2.43,4.678,4.678,0,0,1,3-.882,5.693,5.693,0,0,1,2.34.45,3.6,3.6,0,0,1,1.557,1.26,3.257,3.257,0,0,1,.549,1.872v.36a.159.159,0,0,1-.18.18H85.1a.159.159,0,0,1-.18-.18v-.27a1.942,1.942,0,0,0-.747-1.557,3.13,3.13,0,0,0-2.061-.621,2.833,2.833,0,0,0-1.728.459,1.553,1.553,0,0,0-.612,1.323,1.5,1.5,0,0,0,.306.972,2.66,2.66,0,0,0,.909.675q.6.3,1.845.765a20.413,20.413,0,0,1,2.07.927A3.952,3.952,0,0,1,86.22-5.013a2.776,2.776,0,0,1,.522,1.719A3.043,3.043,0,0,1,85.581-.783,4.988,4.988,0,0,1,82.386.144ZM96.786-12.6a.159.159,0,0,1,.18.18v1.152a.159.159,0,0,1-.18.18H93.33a.064.064,0,0,0-.072.072V-.18a.159.159,0,0,1-.18.18H91.71a.159.159,0,0,1-.18-.18V-11.016a.064.064,0,0,0-.072-.072H88.164a.159.159,0,0,1-.18-.18V-12.42a.159.159,0,0,1,.18-.18ZM102.474.162a4.842,4.842,0,0,1-2.322-.54A3.862,3.862,0,0,1,98.586-1.9a4.489,4.489,0,0,1-.558-2.259V-8.442a4.439,4.439,0,0,1,.558-2.25,3.879,3.879,0,0,1,1.566-1.512,4.842,4.842,0,0,1,2.322-.54,4.881,4.881,0,0,1,2.34.54,3.879,3.879,0,0,1,1.566,1.512,4.439,4.439,0,0,1,.558,2.25v4.284A4.489,4.489,0,0,1,106.38-1.9a3.862,3.862,0,0,1-1.566,1.521A4.881,4.881,0,0,1,102.474.162Zm0-1.494a2.678,2.678,0,0,0,1.98-.756,2.7,2.7,0,0,0,.756-2V-8.46a2.755,2.755,0,0,0-.756-2.025,2.66,2.66,0,0,0-1.98-.765,2.63,2.63,0,0,0-1.971.765,2.774,2.774,0,0,0-.747,2.025v4.374a2.719,2.719,0,0,0,.747,2A2.647,2.647,0,0,0,102.474-1.332ZM116.748,0a.2.2,0,0,1-.2-.126l-2.52-5.382a.071.071,0,0,0-.072-.054h-2.592a.064.064,0,0,0-.072.072V-.18a.159.159,0,0,1-.18.18h-1.368a.159.159,0,0,1-.18-.18V-12.42a.159.159,0,0,1,.18-.18h4.842a3.88,3.88,0,0,1,1.9.45,3.166,3.166,0,0,1,1.269,1.26,3.791,3.791,0,0,1,.45,1.872,3.445,3.445,0,0,1-.657,2.133,3.225,3.225,0,0,1-1.827,1.179q-.072.036-.036.09l2.61,5.4a.2.2,0,0,1,.018.09q0,.126-.144.126Zm-5.382-11.106a.064.064,0,0,0-.072.072V-7a.064.064,0,0,0,.072.072h3.006A2.086,2.086,0,0,0,115.9-7.5a2.014,2.014,0,0,0,.576-1.5,2.068,2.068,0,0,0-.576-1.53,2.068,2.068,0,0,0-1.53-.576ZM128.772,0a.21.21,0,0,1-.216-.144l-.648-2.106a.071.071,0,0,0-.072-.054h-5.058a.071.071,0,0,0-.072.054l-.648,2.106a.21.21,0,0,1-.216.144h-1.458q-.2,0-.144-.2l3.942-12.258a.21.21,0,0,1,.216-.144h1.8a.21.21,0,0,1,.216.144L130.392-.2l.018.072q0,.126-.162.126Zm-5.616-3.762a.05.05,0,0,0,.009.063.086.086,0,0,0,.063.027h4.14a.086.086,0,0,0,.063-.027.05.05,0,0,0,.009-.063l-2.088-6.678a.058.058,0,0,0-.054-.036.058.058,0,0,0-.054.036ZM136.242.144a4.954,4.954,0,0,1-2.295-.513A3.707,3.707,0,0,1,132.4-1.827,4.238,4.238,0,0,1,131.85-4V-8.6a4.225,4.225,0,0,1,.549-2.178,3.724,3.724,0,0,1,1.548-1.449,4.954,4.954,0,0,1,2.295-.513,4.971,4.971,0,0,1,2.286.5,3.773,3.773,0,0,1,1.539,1.395,3.748,3.748,0,0,1,.549,2.007v.2a.159.159,0,0,1-.18.18h-1.368a.159.159,0,0,1-.18-.18V-8.8a2.282,2.282,0,0,0-.729-1.755,2.709,2.709,0,0,0-1.917-.675,2.672,2.672,0,0,0-1.935.7,2.479,2.479,0,0,0-.729,1.872v4.716a2.432,2.432,0,0,0,.756,1.872,2.794,2.794,0,0,0,1.98.7,2.715,2.715,0,0,0,1.881-.621,2.168,2.168,0,0,0,.693-1.7V-5.076a.064.064,0,0,0-.072-.072h-2.43a.159.159,0,0,1-.18-.18V-6.444a.159.159,0,0,1,.18-.18h4.05a.159.159,0,0,1,.18.18v2.286a4.177,4.177,0,0,1-1.179,3.186A4.458,4.458,0,0,1,136.242.144ZM151.6-11.286a.159.159,0,0,1-.18.18h-6.39a.064.064,0,0,0-.072.072v3.87a.064.064,0,0,0,.072.072h4.392a.159.159,0,0,1,.18.18v1.134a.159.159,0,0,1-.18.18h-4.392a.064.064,0,0,0-.072.072v3.96a.064.064,0,0,0,.072.072h6.39a.159.159,0,0,1,.18.18V-.18a.159.159,0,0,1-.18.18h-8.01a.159.159,0,0,1-.18-.18V-12.42a.159.159,0,0,1,.18-.18h8.01a.159.159,0,0,1,.18.18Z" transform="translate(1005.125 1711.642)" fill="#fff"/>
  </g>
</svg>
