<svg xmlns="http://www.w3.org/2000/svg" width="172.332" height="27.284" viewBox="0 0 172.332 27.284">
  <g id="Group_6279" data-name="Group 6279" transform="translate(-434.5 -1691)">
    <path id="Path_6764" data-name="Path 6764" d="M-12.751,7.4H159.58l-8.735,27.284h-163.6Z" transform="translate(447.251 1683.598)" fill="#0c4e97"/>
    <path id="Path_9158" data-name="Path 9158" d="M5.364.144a6.118,6.118,0,0,1-2.4-.432A3.521,3.521,0,0,1,1.395-1.512,3.173,3.173,0,0,1,.846-3.366v-.522a.159.159,0,0,1,.18-.18H2.34a.159.159,0,0,1,.18.18v.432a1.816,1.816,0,0,0,.792,1.512A3.557,3.557,0,0,0,5.49-1.35a2.878,2.878,0,0,0,1.872-.522,1.691,1.691,0,0,0,.63-1.368,1.458,1.458,0,0,0-.324-.954,3.088,3.088,0,0,0-.945-.729,18.068,18.068,0,0,0-1.809-.8,18.28,18.28,0,0,1-2.079-.918A3.845,3.845,0,0,1,1.566-7.731a2.765,2.765,0,0,1-.5-1.7,2.936,2.936,0,0,1,1.107-2.43,4.678,4.678,0,0,1,3-.882,5.693,5.693,0,0,1,2.34.45,3.6,3.6,0,0,1,1.557,1.26,3.257,3.257,0,0,1,.549,1.872v.36a.159.159,0,0,1-.18.18H8.082A.159.159,0,0,1,7.9-8.8v-.27a1.942,1.942,0,0,0-.747-1.557,3.13,3.13,0,0,0-2.061-.621,2.833,2.833,0,0,0-1.728.459,1.553,1.553,0,0,0-.612,1.323A1.5,1.5,0,0,0,3.06-8.5a2.66,2.66,0,0,0,.909.675q.6.3,1.845.765a20.413,20.413,0,0,1,2.07.927A3.952,3.952,0,0,1,9.2-5.013,2.776,2.776,0,0,1,9.72-3.294,3.043,3.043,0,0,1,8.559-.783,4.988,4.988,0,0,1,5.364.144Zm10.8.018a4.842,4.842,0,0,1-2.322-.54A3.862,3.862,0,0,1,12.276-1.9a4.489,4.489,0,0,1-.558-2.259V-8.442a4.439,4.439,0,0,1,.558-2.25A3.879,3.879,0,0,1,13.842-12.2a4.842,4.842,0,0,1,2.322-.54,4.881,4.881,0,0,1,2.34.54,3.879,3.879,0,0,1,1.566,1.512,4.439,4.439,0,0,1,.558,2.25v4.284A4.489,4.489,0,0,1,20.07-1.9,3.862,3.862,0,0,1,18.5-.378,4.881,4.881,0,0,1,16.164.162Zm0-1.494a2.678,2.678,0,0,0,1.98-.756,2.7,2.7,0,0,0,.756-2V-8.46a2.755,2.755,0,0,0-.756-2.025,2.66,2.66,0,0,0-1.98-.765,2.63,2.63,0,0,0-1.971.765,2.774,2.774,0,0,0-.747,2.025v4.374a2.719,2.719,0,0,0,.747,2A2.647,2.647,0,0,0,16.164-1.332ZM23.436,0a.159.159,0,0,1-.18-.18V-12.42a.159.159,0,0,1,.18-.18H24.8a.159.159,0,0,1,.18.18V-1.566a.064.064,0,0,0,.072.072h6.21a.159.159,0,0,1,.18.18V-.18a.159.159,0,0,1-.18.18ZM41.76,0a.21.21,0,0,1-.216-.144L40.9-2.25a.071.071,0,0,0-.072-.054H35.766a.071.071,0,0,0-.072.054L35.046-.144A.21.21,0,0,1,34.83,0H33.372q-.2,0-.144-.2L37.17-12.456a.21.21,0,0,1,.216-.144h1.8a.21.21,0,0,1,.216.144L43.38-.2l.018.072Q43.4,0,43.236,0ZM36.144-3.762a.05.05,0,0,0,.009.063.086.086,0,0,0,.063.027h4.14a.086.086,0,0,0,.063-.027.05.05,0,0,0,.009-.063L38.34-10.44a.058.058,0,0,0-.054-.036.058.058,0,0,0-.054.036ZM52.632,0a.2.2,0,0,1-.2-.126l-2.52-5.382a.071.071,0,0,0-.072-.054H47.25a.064.064,0,0,0-.072.072V-.18A.159.159,0,0,1,47,0H45.63a.159.159,0,0,1-.18-.18V-12.42a.159.159,0,0,1,.18-.18h4.842a3.88,3.88,0,0,1,1.9.45,3.166,3.166,0,0,1,1.269,1.26,3.791,3.791,0,0,1,.45,1.872,3.445,3.445,0,0,1-.657,2.133,3.225,3.225,0,0,1-1.827,1.179q-.072.036-.036.09l2.61,5.4a.2.2,0,0,1,.018.09Q54.2,0,54.054,0ZM47.25-11.106a.064.064,0,0,0-.072.072V-7a.064.064,0,0,0,.072.072h3.006a2.086,2.086,0,0,0,1.53-.567A2.014,2.014,0,0,0,52.362-9a2.068,2.068,0,0,0-.576-1.53,2.068,2.068,0,0,0-1.53-.576Zm17.766-1.512a3.96,3.96,0,0,1,1.935.459,3.224,3.224,0,0,1,1.3,1.287,3.87,3.87,0,0,1,.459,1.908,3.711,3.711,0,0,1-.468,1.89,3.229,3.229,0,0,1-1.323,1.26,4.17,4.17,0,0,1-1.971.45H61.776a.064.064,0,0,0-.072.072V-.18a.159.159,0,0,1-.18.18H60.156a.159.159,0,0,1-.18-.18V-12.438a.159.159,0,0,1,.18-.18Zm-.234,5.85a2.172,2.172,0,0,0,1.593-.594,2.1,2.1,0,0,0,.6-1.566,2.154,2.154,0,0,0-.6-1.593,2.154,2.154,0,0,0-1.593-.6H61.776a.064.064,0,0,0-.072.072V-6.84a.064.064,0,0,0,.072.072ZM77.778,0a.21.21,0,0,1-.216-.144L76.914-2.25a.071.071,0,0,0-.072-.054H71.784a.071.071,0,0,0-.072.054L71.064-.144A.21.21,0,0,1,70.848,0H69.39q-.2,0-.144-.2l3.942-12.258A.21.21,0,0,1,73.4-12.6h1.8a.21.21,0,0,1,.216.144L79.4-.2l.018.072q0,.126-.162.126ZM72.162-3.762a.05.05,0,0,0,.009.063.086.086,0,0,0,.063.027h4.14a.086.086,0,0,0,.063-.027.05.05,0,0,0,.009-.063L74.358-10.44a.058.058,0,0,0-.054-.036.058.058,0,0,0-.054.036ZM88.884-12.42a.159.159,0,0,1,.18-.18h1.368a.159.159,0,0,1,.18.18V-.18a.159.159,0,0,1-.18.18H89.118A.261.261,0,0,1,88.9-.126l-5.634-9.2q-.018-.054-.054-.045t-.036.063L83.2-.18a.159.159,0,0,1-.18.18H81.648a.159.159,0,0,1-.18-.18V-12.42a.159.159,0,0,1,.18-.18H82.98a.261.261,0,0,1,.216.126l5.616,9.2q.018.054.054.045t.036-.063Zm12.87,1.134a.159.159,0,0,1-.18.18h-6.39a.064.064,0,0,0-.072.072v3.87a.064.064,0,0,0,.072.072h4.392a.159.159,0,0,1,.18.18v1.134a.159.159,0,0,1-.18.18H95.184a.064.064,0,0,0-.072.072v3.96a.064.064,0,0,0,.072.072h6.39a.159.159,0,0,1,.18.18V-.18a.159.159,0,0,1-.18.18h-8.01a.159.159,0,0,1-.18-.18V-12.42a.159.159,0,0,1,.18-.18h8.01a.159.159,0,0,1,.18.18ZM104.328,0a.159.159,0,0,1-.18-.18V-12.42a.159.159,0,0,1,.18-.18H105.7a.159.159,0,0,1,.18.18V-1.566a.064.064,0,0,0,.072.072h6.21a.159.159,0,0,1,.18.18V-.18a.159.159,0,0,1-.18.18ZM118.3.144a6.118,6.118,0,0,1-2.4-.432,3.521,3.521,0,0,1-1.566-1.224,3.173,3.173,0,0,1-.549-1.854v-.522a.159.159,0,0,1,.18-.18h1.314a.159.159,0,0,1,.18.18v.432a1.816,1.816,0,0,0,.792,1.512,3.557,3.557,0,0,0,2.178.594,2.878,2.878,0,0,0,1.872-.522,1.691,1.691,0,0,0,.63-1.368,1.458,1.458,0,0,0-.324-.954,3.088,3.088,0,0,0-.945-.729,18.068,18.068,0,0,0-1.809-.8,18.28,18.28,0,0,1-2.079-.918A3.845,3.845,0,0,1,114.5-7.731a2.765,2.765,0,0,1-.5-1.7,2.936,2.936,0,0,1,1.107-2.43,4.678,4.678,0,0,1,3-.882,5.693,5.693,0,0,1,2.34.45,3.6,3.6,0,0,1,1.557,1.26,3.257,3.257,0,0,1,.549,1.872v.36a.159.159,0,0,1-.18.18h-1.35a.159.159,0,0,1-.18-.18v-.27a1.942,1.942,0,0,0-.747-1.557,3.13,3.13,0,0,0-2.061-.621,2.833,2.833,0,0,0-1.728.459,1.553,1.553,0,0,0-.612,1.323,1.5,1.5,0,0,0,.306.972,2.66,2.66,0,0,0,.909.675q.6.3,1.845.765a20.413,20.413,0,0,1,2.07.927,3.952,3.952,0,0,1,1.314,1.116,2.776,2.776,0,0,1,.522,1.719,3.043,3.043,0,0,1-1.161,2.511A4.988,4.988,0,0,1,118.3.144Z" transform="translate(453.125 1711.642)" fill="#fff"/>
  </g>
</svg>
