<svg xmlns="http://www.w3.org/2000/svg" width="107" height="82" viewBox="0 0 107 82"><g transform="translate(-734 -777)"><rect width="107" height="82" transform="translate(734 777)" fill="#fff"/><g transform="translate(-109.5 -365.333)"><g transform="translate(885.39 1175.019)"><path d="M277.262,163.952V133.075c0-1.621-1.616-2.934-3.607-2.935h-2.583a2.345,2.345,0,0,0-2.275-1.669h-4.333a2.347,2.347,0,0,0-2.276,1.669H259.61c-1.994,0-3.609,1.317-3.61,2.94v30.869c0,1.622,1.617,2.938,3.61,2.94h14.039C275.642,166.887,277.259,165.574,277.262,163.952Zm-17.346.552a.905.905,0,0,1-.982-.8V133.329a.905.905,0,0,1,.982-.8h13.436a.9.9,0,0,1,.978.8v30.383a.906.906,0,0,1-.982.8Z" transform="translate(-256 -128.471)" fill="#004c97"/><rect width="12.169" height="6.353" transform="translate(4.545 13.035)" fill="#efb82a"/><rect width="12.169" height="6.353" transform="translate(4.545 20.701)" fill="#efb82a"/><rect width="12.169" height="6.354" transform="translate(4.545 5.368)" fill="#fff"/><rect width="12.169" height="3.177" transform="translate(4.545 8.545)" fill="#efb82a"/><rect width="12.169" height="6.353" transform="translate(4.545 28.368)" fill="#efb82a"/></g><path d="M0,0H8V15.077L0,10.452Z" transform="translate(911 1161.659)" fill="#004c97"/><path d="M60.494,13.927,97.816,43.879H88.49V77.1H31.178V43.879H22.153ZM89.285,40.879,60.469,17.753l-29.6,23.126h3.311V74.1H85.49V40.879Z" transform="translate(835.99 1143.493)" fill="#004c97"/></g></g></svg>