<svg xmlns="http://www.w3.org/2000/svg" width="37.552" height="39.46" viewBox="0 0 37.552 39.46">
  <g id="ribbon-sharp" transform="translate(-1.406 -1.125)">
    <path id="Path_6733" data-name="Path 6733" d="M20.182,24.356c-.415,0-.827-.019-1.234-.055A14.011,14.011,0,0,1,8.5,18.066L1.406,30.72h9.149l4.614,7.637,6.566-14.089A14.123,14.123,0,0,1,20.182,24.356Z" transform="translate(0 2.227)" fill="#ce0109"/>
    <path id="Path_6734" data-name="Path 6734" d="M29.531,18.052a14.073,14.073,0,0,1-7.015,5.5l-3.271,7.131,3.6,7.677,4.614-7.637h9.149Z" transform="translate(2.345 2.226)" fill="#ce0109"/>
    <path id="Path_6735" data-name="Path 6735" d="M22.263,11.694a3.819,3.819,0,1,1-3.819-3.819,3.819,3.819,0,0,1,3.819,3.819Z" transform="translate(1.738 0.887)" fill="#ce0109"/>
    <path id="Path_6736" data-name="Path 6736" d="M19.331,1.125A11.456,11.456,0,1,0,30.787,12.581,11.469,11.469,0,0,0,19.331,1.125Zm0,17.821A6.365,6.365,0,1,1,25.7,12.581,6.365,6.365,0,0,1,19.331,18.946Z" transform="translate(0.851 0)" fill="#ce0109"/>
  </g>
</svg>
