<svg xmlns="http://www.w3.org/2000/svg" width="107" height="82" viewBox="0 0 107 82"><g transform="translate(-387 -777)"><rect width="107" height="82" transform="translate(387 777)" fill="#fff"/><g transform="translate(337.582 75.924)"><g transform="translate(63.418 735.461)"><path d="M486.98,264.858l12.063-12.119H517l-12.063,12.119Z" transform="translate(-473.3 -239.334)" fill="#004c97" fill-rule="evenodd"/><path d="M511.392,240.343l12.063-12.119h17.958l-12.061,12.119Z" transform="translate(-484.363 -228.224)" fill="#004c97" fill-rule="evenodd"/><path d="M547.884,240.343l12.061-12.119H577.9l-12.061,12.119Z" transform="translate(-500.901 -228.224)" fill="#004c97" fill-rule="evenodd"/><path d="M523.572,264.655l12.063-12.119h17.959l-12.063,12.119Z" transform="translate(-489.883 -239.242)" fill="#004c97" fill-rule="evenodd"/><path d="M461.963,289.874l12.063-12.119h17.959l-12.063,12.119Z" transform="translate(-461.963 -250.67)" fill="#004c97" fill-rule="evenodd"/><path d="M498.555,289.671l12.063-12.119h17.959l-12.063,12.119Z" transform="translate(-478.545 -250.578)" fill="#004c97" fill-rule="evenodd"/><path d="M532.943,269.214l38.387-38.591v1.8l-38.387,38.7Z" transform="translate(-494.13 -229.311)" fill="#004c97" fill-rule="evenodd"/><g transform="translate(0 40.262)"><path d="M461.963,303.715h37.96v-1.862h-37.96Z" transform="translate(-461.963 -301.854)" fill="#004c97" fill-rule="evenodd"/></g></g><g transform="translate(71.939 710.076)"><circle cx="10.92" cy="10.92" r="10.92" transform="translate(12.496 12.101)" fill="#fff"/><g transform="translate(0)"><path d="M524.855,210.59a11.795,11.795,0,1,1-8.34,3.455A11.718,11.718,0,0,1,524.855,210.59Zm0,20.46a8.665,8.665,0,1,0-8.665-8.665A8.675,8.675,0,0,0,524.855,231.05Z" transform="translate(-501.628 -199.16)" fill="#efb82a"/><path d="M530.843,223.071h-4.026l2.525-6.292-6.689,8.091h4l.02-.009-2.531,6.3Z" transform="translate(-503.521 -200.746)" fill="#efb82a"/></g></g></g></g></svg>