<svg xmlns="http://www.w3.org/2000/svg" width="272.332" height="27.284" viewBox="0 0 272.332 27.284">
  <g id="Group_6282" data-name="Group 6282" transform="translate(-986.125 -2913)">
    <path id="Path_6764" data-name="Path 6764" d="M-12.751,7.4H259.58l-8.735,27.284h-263.6Z" transform="translate(998.876 2905.598)" fill="#0c4e97"/>
    <path id="Path_9161" data-name="Path 9161" d="M8.478-12.42a.159.159,0,0,1,.18-.18h1.368a.159.159,0,0,1,.18.18V-.18a.159.159,0,0,1-.18.18H8.658a.159.159,0,0,1-.18-.18V-5.526A.064.064,0,0,0,8.406-5.6H3.276a.064.064,0,0,0-.072.072V-.18a.159.159,0,0,1-.18.18H1.656a.159.159,0,0,1-.18-.18V-12.42a.159.159,0,0,1,.18-.18H3.024a.159.159,0,0,1,.18.18v5.256a.064.064,0,0,0,.072.072h5.13a.064.064,0,0,0,.072-.072Zm12.978,1.134a.159.159,0,0,1-.18.18h-6.39a.064.064,0,0,0-.072.072v3.87a.064.064,0,0,0,.072.072h4.392a.159.159,0,0,1,.18.18v1.134a.159.159,0,0,1-.18.18H14.886a.064.064,0,0,0-.072.072v3.96a.064.064,0,0,0,.072.072h6.39a.159.159,0,0,1,.18.18V-.18a.159.159,0,0,1-.18.18h-8.01a.159.159,0,0,1-.18-.18V-12.42a.159.159,0,0,1,.18-.18h8.01a.159.159,0,0,1,.18.18ZM31.5,0a.21.21,0,0,1-.216-.144L30.636-2.25a.071.071,0,0,0-.072-.054H25.506a.071.071,0,0,0-.072.054L24.786-.144A.21.21,0,0,1,24.57,0H23.112q-.2,0-.144-.2L26.91-12.456a.21.21,0,0,1,.216-.144h1.8a.21.21,0,0,1,.216.144L33.12-.2l.018.072q0,.126-.162.126ZM25.884-3.762a.05.05,0,0,0,.009.063.086.086,0,0,0,.063.027H30.1a.086.086,0,0,0,.063-.027.05.05,0,0,0,.009-.063L28.08-10.44a.058.058,0,0,0-.054-.036.058.058,0,0,0-.054.036ZM41.9-12.6a.159.159,0,0,1,.18.18v1.152a.159.159,0,0,1-.18.18H38.448a.064.064,0,0,0-.072.072V-.18A.159.159,0,0,1,38.2,0H36.828a.159.159,0,0,1-.18-.18V-11.016a.064.064,0,0,0-.072-.072H33.282a.159.159,0,0,1-.18-.18V-12.42a.159.159,0,0,1,.18-.18ZM44.406,0a.159.159,0,0,1-.18-.18V-12.42a.159.159,0,0,1,.18-.18h1.368a.159.159,0,0,1,.18.18V-.18a.159.159,0,0,1-.18.18ZM56.322-12.42a.159.159,0,0,1,.18-.18H57.87a.159.159,0,0,1,.18.18V-.18a.159.159,0,0,1-.18.18H56.556a.261.261,0,0,1-.216-.126l-5.634-9.2q-.018-.054-.054-.045t-.036.063L50.634-.18a.159.159,0,0,1-.18.18H49.086a.159.159,0,0,1-.18-.18V-12.42a.159.159,0,0,1,.18-.18h1.332a.261.261,0,0,1,.216.126l5.616,9.2q.018.054.054.045t.036-.063ZM65.07.144a4.954,4.954,0,0,1-2.3-.513,3.707,3.707,0,0,1-1.548-1.458A4.238,4.238,0,0,1,60.678-4V-8.6a4.225,4.225,0,0,1,.549-2.178,3.724,3.724,0,0,1,1.548-1.449,4.954,4.954,0,0,1,2.3-.513,4.972,4.972,0,0,1,2.286.5,3.773,3.773,0,0,1,1.539,1.395,3.748,3.748,0,0,1,.549,2.007v.2a.159.159,0,0,1-.18.18H67.9a.159.159,0,0,1-.18-.18V-8.8a2.282,2.282,0,0,0-.729-1.755,2.709,2.709,0,0,0-1.917-.675,2.672,2.672,0,0,0-1.935.7,2.479,2.479,0,0,0-.729,1.872v4.716a2.432,2.432,0,0,0,.756,1.872,2.794,2.794,0,0,0,1.98.7,2.715,2.715,0,0,0,1.881-.621,2.168,2.168,0,0,0,.693-1.7V-5.076a.064.064,0,0,0-.072-.072h-2.43a.159.159,0,0,1-.18-.18V-6.444a.159.159,0,0,1,.18-.18h4.05a.159.159,0,0,1,.18.18v2.286A4.177,4.177,0,0,1,68.265-.972,4.458,4.458,0,0,1,65.07.144Zm20.178-.36a.156.156,0,0,1,.054.108Q85.3,0,85.158,0H83.61a.273.273,0,0,1-.216-.108l-.918-1.044q-.036-.054-.108-.018a5.866,5.866,0,0,1-1.746,1,5.734,5.734,0,0,1-1.908.315,4.351,4.351,0,0,1-2.655-.765,2.612,2.612,0,0,1-1.035-2.241,3.223,3.223,0,0,1,.693-2.1,8.243,8.243,0,0,1,1.9-1.647q.072-.036.018-.09A11.719,11.719,0,0,1,76.3-8.559a2.891,2.891,0,0,1-.324-1.323,2.74,2.74,0,0,1,.4-1.467,2.743,2.743,0,0,1,1.152-1.026,3.791,3.791,0,0,1,1.7-.369,3.624,3.624,0,0,1,2.43.81A2.652,2.652,0,0,1,82.62-9.81a2.972,2.972,0,0,1-.657,1.917A8.054,8.054,0,0,1,80.154-6.3q-.072.018-.018.09.684.828,2.25,2.61l.072.09a.058.058,0,0,0,.054.036.073.073,0,0,0,.054-.018q.792-.99,1.17-1.53a.15.15,0,0,1,.234-.054L85-4.5a.154.154,0,0,1,.054.252A13.978,13.978,0,0,1,83.556-2.3v.036a.313.313,0,0,0,.054.126Q84.24-1.386,85.248-.216ZM79.29-11.16a1.662,1.662,0,0,0-1.152.387,1.321,1.321,0,0,0-.432,1.035,1.592,1.592,0,0,0,.243.783,13.529,13.529,0,0,0,1.035,1.413.078.078,0,0,0,.108.018,6.6,6.6,0,0,0,1.341-1.1,1.706,1.706,0,0,0,.459-1.152,1.25,1.25,0,0,0-.45-1.008A1.73,1.73,0,0,0,79.29-11.16Zm-.558,9.828a4.39,4.39,0,0,0,2.61-.99.067.067,0,0,0,0-.108l-.612-.738q-.54-.612-.648-.72L78.768-5.364q-.018-.054-.09-.018a6.548,6.548,0,0,0-1.422,1.188A1.981,1.981,0,0,0,76.77-2.88,1.36,1.36,0,0,0,77.3-1.746,2.267,2.267,0,0,0,78.732-1.332ZM99.054,0a.21.21,0,0,1-.216-.144L98.19-2.25a.071.071,0,0,0-.072-.054H93.06a.071.071,0,0,0-.072.054L92.34-.144A.21.21,0,0,1,92.124,0H90.666q-.2,0-.144-.2l3.942-12.258a.21.21,0,0,1,.216-.144h1.8a.21.21,0,0,1,.216.144L100.674-.2l.018.072q0,.126-.162.126ZM93.438-3.762a.05.05,0,0,0,.009.063.086.086,0,0,0,.063.027h4.14a.086.086,0,0,0,.063-.027.05.05,0,0,0,.009-.063L95.634-10.44a.058.058,0,0,0-.054-.036.058.058,0,0,0-.054.036ZM102.924,0a.159.159,0,0,1-.18-.18V-12.42a.159.159,0,0,1,.18-.18h1.368a.159.159,0,0,1,.18.18V-.18a.159.159,0,0,1-.18.18Zm11.682,0a.2.2,0,0,1-.2-.126l-2.52-5.382a.071.071,0,0,0-.072-.054h-2.592a.064.064,0,0,0-.072.072V-.18a.159.159,0,0,1-.18.18H107.6a.159.159,0,0,1-.18-.18V-12.42a.159.159,0,0,1,.18-.18h4.842a3.88,3.88,0,0,1,1.9.45,3.166,3.166,0,0,1,1.269,1.26,3.791,3.791,0,0,1,.45,1.872,3.445,3.445,0,0,1-.657,2.133,3.225,3.225,0,0,1-1.827,1.179q-.072.036-.036.09l2.61,5.4a.2.2,0,0,1,.018.09q0,.126-.144.126Zm-5.382-11.106a.064.064,0,0,0-.072.072V-7a.064.064,0,0,0,.072.072h3.006a2.086,2.086,0,0,0,1.53-.567,2.014,2.014,0,0,0,.576-1.5,2.068,2.068,0,0,0-.576-1.53,2.068,2.068,0,0,0-1.53-.576ZM126.108.162a4.954,4.954,0,0,1-2.295-.513,3.707,3.707,0,0,1-1.548-1.458,4.238,4.238,0,0,1-.549-2.169V-8.64a4.141,4.141,0,0,1,.549-2.151,3.742,3.742,0,0,1,1.548-1.44,4.954,4.954,0,0,1,2.295-.513,5.047,5.047,0,0,1,2.286.5,3.692,3.692,0,0,1,1.539,1.395,3.929,3.929,0,0,1,.549,2.088v.018a.2.2,0,0,1-.054.144.173.173,0,0,1-.126.054l-1.368.072q-.18,0-.18-.162v-.054a2.472,2.472,0,0,0-.72-1.854,2.641,2.641,0,0,0-1.926-.7,2.672,2.672,0,0,0-1.935.7,2.456,2.456,0,0,0-.729,1.854v4.788a2.456,2.456,0,0,0,.729,1.854,2.672,2.672,0,0,0,1.935.7,2.641,2.641,0,0,0,1.926-.7,2.472,2.472,0,0,0,.72-1.854v-.036q0-.162.18-.162l1.368.072a.159.159,0,0,1,.18.18,3.976,3.976,0,0,1-.549,2.1,3.732,3.732,0,0,1-1.539,1.413A4.972,4.972,0,0,1,126.108.162Zm10.98,0a4.842,4.842,0,0,1-2.322-.54A3.862,3.862,0,0,1,133.2-1.9a4.489,4.489,0,0,1-.558-2.259V-8.442a4.439,4.439,0,0,1,.558-2.25,3.879,3.879,0,0,1,1.566-1.512,4.842,4.842,0,0,1,2.322-.54,4.881,4.881,0,0,1,2.34.54,3.879,3.879,0,0,1,1.566,1.512,4.439,4.439,0,0,1,.558,2.25v4.284a4.489,4.489,0,0,1-.558,2.259,3.862,3.862,0,0,1-1.566,1.521A4.881,4.881,0,0,1,137.088.162Zm0-1.494a2.678,2.678,0,0,0,1.98-.756,2.7,2.7,0,0,0,.756-2V-8.46a2.755,2.755,0,0,0-.756-2.025,2.66,2.66,0,0,0-1.98-.765,2.63,2.63,0,0,0-1.971.765,2.774,2.774,0,0,0-.747,2.025v4.374a2.719,2.719,0,0,0,.747,2A2.647,2.647,0,0,0,137.088-1.332ZM151.6-12.42a.159.159,0,0,1,.18-.18h1.368a.159.159,0,0,1,.18.18V-.18a.159.159,0,0,1-.18.18H151.83a.261.261,0,0,1-.216-.126l-5.634-9.2q-.018-.054-.054-.045t-.036.063l.018,9.126a.159.159,0,0,1-.18.18H144.36a.159.159,0,0,1-.18-.18V-12.42a.159.159,0,0,1,.18-.18h1.332a.261.261,0,0,1,.216.126l5.616,9.2q.018.054.054.045t.036-.063ZM156.276,0a.159.159,0,0,1-.18-.18V-12.42a.159.159,0,0,1,.18-.18h4.356a4.363,4.363,0,0,1,2.988.981A3.314,3.314,0,0,1,164.736-9v5.4A3.314,3.314,0,0,1,163.62-.981,4.363,4.363,0,0,1,160.632,0Zm1.548-1.566a.064.064,0,0,0,.072.072H160.7a2.215,2.215,0,0,0,1.665-.639,2.423,2.423,0,0,0,.639-1.719v-4.9a2.361,2.361,0,0,0-.621-1.719,2.238,2.238,0,0,0-1.683-.639H157.9a.064.064,0,0,0-.072.072ZM167.4,0a.159.159,0,0,1-.18-.18V-12.42a.159.159,0,0,1,.18-.18h1.368a.159.159,0,0,1,.18.18V-.18a.159.159,0,0,1-.18.18Zm12.51-12.6a.159.159,0,0,1,.18.18v1.152a.159.159,0,0,1-.18.18h-3.456a.064.064,0,0,0-.072.072V-.18a.159.159,0,0,1-.18.18h-1.368a.159.159,0,0,1-.18-.18V-11.016a.064.064,0,0,0-.072-.072h-3.294a.159.159,0,0,1-.18-.18V-12.42a.159.159,0,0,1,.18-.18Zm2.5,12.6a.159.159,0,0,1-.18-.18V-12.42a.159.159,0,0,1,.18-.18h1.368a.159.159,0,0,1,.18.18V-.18a.159.159,0,0,1-.18.18Zm8.6.162a4.842,4.842,0,0,1-2.322-.54A3.862,3.862,0,0,1,187.128-1.9a4.489,4.489,0,0,1-.558-2.259V-8.442a4.439,4.439,0,0,1,.558-2.25,3.879,3.879,0,0,1,1.566-1.512,4.842,4.842,0,0,1,2.322-.54,4.881,4.881,0,0,1,2.34.54,3.879,3.879,0,0,1,1.566,1.512,4.439,4.439,0,0,1,.558,2.25v4.284a4.489,4.489,0,0,1-.558,2.259,3.862,3.862,0,0,1-1.566,1.521A4.881,4.881,0,0,1,191.016.162Zm0-1.494A2.678,2.678,0,0,0,193-2.088a2.7,2.7,0,0,0,.756-2V-8.46A2.755,2.755,0,0,0,193-10.485a2.66,2.66,0,0,0-1.98-.765,2.63,2.63,0,0,0-1.971.765A2.774,2.774,0,0,0,188.3-8.46v4.374a2.719,2.719,0,0,0,.747,2A2.647,2.647,0,0,0,191.016-1.332ZM205.524-12.42a.159.159,0,0,1,.18-.18h1.368a.159.159,0,0,1,.18.18V-.18a.159.159,0,0,1-.18.18h-1.314a.261.261,0,0,1-.216-.126l-5.634-9.2q-.018-.054-.054-.045t-.036.063l.018,9.126a.159.159,0,0,1-.18.18h-1.368a.159.159,0,0,1-.18-.18V-12.42a.159.159,0,0,1,.18-.18h1.332a.261.261,0,0,1,.216.126l5.616,9.2q.018.054.054.045t.036-.063ZM210.4,0a.159.159,0,0,1-.18-.18V-12.42a.159.159,0,0,1,.18-.18h1.368a.159.159,0,0,1,.18.18V-.18a.159.159,0,0,1-.18.18Zm11.916-12.42a.159.159,0,0,1,.18-.18h1.368a.159.159,0,0,1,.18.18V-.18a.159.159,0,0,1-.18.18h-1.314a.261.261,0,0,1-.216-.126l-5.634-9.2q-.018-.054-.054-.045t-.036.063L216.63-.18a.159.159,0,0,1-.18.18h-1.368a.159.159,0,0,1-.18-.18V-12.42a.159.159,0,0,1,.18-.18h1.332a.261.261,0,0,1,.216.126l5.616,9.2q.018.054.054.045t.036-.063ZM231.066.144a4.954,4.954,0,0,1-2.295-.513,3.707,3.707,0,0,1-1.548-1.458A4.238,4.238,0,0,1,226.674-4V-8.6a4.225,4.225,0,0,1,.549-2.178,3.724,3.724,0,0,1,1.548-1.449,4.954,4.954,0,0,1,2.295-.513,4.971,4.971,0,0,1,2.286.5,3.773,3.773,0,0,1,1.539,1.395,3.748,3.748,0,0,1,.549,2.007v.2a.159.159,0,0,1-.18.18h-1.368a.159.159,0,0,1-.18-.18V-8.8a2.282,2.282,0,0,0-.729-1.755,2.709,2.709,0,0,0-1.917-.675,2.672,2.672,0,0,0-1.935.7,2.479,2.479,0,0,0-.729,1.872v4.716a2.432,2.432,0,0,0,.756,1.872,2.794,2.794,0,0,0,1.98.7,2.715,2.715,0,0,0,1.881-.621,2.168,2.168,0,0,0,.693-1.7V-5.076a.064.064,0,0,0-.072-.072h-2.43a.159.159,0,0,1-.18-.18V-6.444a.159.159,0,0,1,.18-.18h4.05a.159.159,0,0,1,.18.18v2.286a4.177,4.177,0,0,1-1.179,3.186A4.458,4.458,0,0,1,231.066.144Z" transform="translate(1005.125 2933.642)" fill="#fff"/>
  </g>
</svg>
