<svg xmlns="http://www.w3.org/2000/svg" width="44.302" height="47.135" viewBox="0 0 44.302 47.135">
  <g id="Group_3044" data-name="Group 3044" transform="translate(-1218.084 -831.537)">
    <g id="Group_1118" data-name="Group 1118" transform="translate(440 -1031.401)">
      <path id="Path_2994" data-name="Path 2994" d="M1076.507,192.213h.034l6.163-.177a.856.856,0,0,0,.748-1.205l-1.847-6.475a1.669,1.669,0,0,0-1.435-1.2l-6.262-.094h-.017a.863.863,0,0,0-.807,1.213l1.944,6.744a1.665,1.665,0,0,0,1.48,1.191m9.643-.277h.029l5.616-.16c.547-.017.846-.531.67-1.151l-1.746-6.186a1.559,1.559,0,0,0-1.323-1.143l-5.7-.085h-.017c-.582,0-.907.516-.723,1.157l1.835,6.431a1.549,1.549,0,0,0,1.358,1.137m8.591-.246h.024l5.148-.147c.5-.016.773-.508.607-1.1l-1.657-5.928a1.468,1.468,0,0,0-1.223-1.093l-5.226-.078h-.014c-.531,0-.824.492-.651,1.107l1.735,6.152a1.464,1.464,0,0,0,1.257,1.089m2.577-9.478c.5,0,.767-.472.6-1.062l-1.669-5.963a1.572,1.572,0,0,0-1.24-1.147l-5.314-.339c-.553-.036-.858.44-.682,1.064l1.748,6.192a1.555,1.555,0,0,0,1.3,1.143l5.237.112h.018m-8.259-.176c.545,0,.841-.491.668-1.107l-1.76-6.225a1.668,1.668,0,0,0-1.339-1.2l-5.8-.372c-.6-.039-.942.459-.756,1.11l1.846,6.475a1.658,1.658,0,0,0,1.41,1.2l5.713.122h.019m-9.245-.2c.595,0,.925-.515.741-1.159l-1.861-6.517a1.794,1.794,0,0,0-1.457-1.26l-6.372-.408c-.661-.043-1.042.477-.843,1.161l1.957,6.792a1.784,1.784,0,0,0,1.538,1.257l6.273.134h.023m14.916-9.011c.483,0,.738-.447.574-1.025l-1.677-6a1.687,1.687,0,0,0-1.258-1.2l-5.4-.607c-.56-.062-.874.4-.7,1.023l1.758,6.231a1.674,1.674,0,0,0,1.319,1.2l5.327.374.057,0m-8.4-.59c.525,0,.806-.464.636-1.067l-1.771-6.265a1.791,1.791,0,0,0-1.359-1.258l-5.9-.662c-.61-.069-.959.407-.771,1.063l1.855,6.517a1.786,1.786,0,0,0,1.432,1.26l5.814.409.065,0m-9.4-.662c.573,0,.886-.483.706-1.114l-1.875-6.561a1.92,1.92,0,0,0-1.479-1.323l-6.483-.727c-.673-.076-1.061.422-.863,1.11l1.971,6.839a1.919,1.919,0,0,0,1.561,1.325l6.386.448.075,0m15.125-8.433c.465,0,.708-.421.549-.987l-1.688-6.038a1.814,1.814,0,0,0-1.275-1.256l-5.5-.881c-.57-.092-.889.346-.71.978l1.768,6.272a1.806,1.806,0,0,0,1.34,1.26l5.421.647a.835.835,0,0,0,.1.006m-8.537-1.021c.5,0,.773-.437.606-1.026l-1.782-6.306a1.933,1.933,0,0,0-1.38-1.319l-6.007-.963c-.624-.1-.98.354-.791,1.016l1.87,6.563a1.925,1.925,0,0,0,1.454,1.323l5.918.706a.944.944,0,0,0,.112.007m-9.564-1.143c.551,0,.845-.454.671-1.07l-1.886-6.607a2.081,2.081,0,0,0-1.5-1.39l-6.6-1.058c-.684-.109-1.082.363-.882,1.057l1.986,6.89a2.073,2.073,0,0,0,1.586,1.395l6.5.776a1.088,1.088,0,0,0,.129.008m2.551,33.234a3.642,3.642,0,0,1-3.4-2.639l-1.943-6.742a3.085,3.085,0,0,1,.082-2.015,3.807,3.807,0,0,1-1.185-1.817l-1.957-6.79a3.044,3.044,0,0,1,.084-2.012,3.892,3.892,0,0,1-1.2-1.847l-1.971-6.837a2.993,2.993,0,0,1,.161-2.166,4.044,4.044,0,0,1-1.359-1.99l-1.987-6.894a2.886,2.886,0,0,1,.414-2.561,2.717,2.717,0,0,1,2.2-1.065,3.221,3.221,0,0,1,.5.041l6.6,1.058a3.813,3.813,0,0,1,1.871.915,2.724,2.724,0,0,1,1.366-.358,3.063,3.063,0,0,1,.482.039l6.008.963a3.54,3.54,0,0,1,1.59.717,2.662,2.662,0,0,1,1.124-.244,2.932,2.932,0,0,1,.464.038l5.5.881a3.773,3.773,0,0,1,2.885,2.693l1.688,6.037a2.982,2.982,0,0,1-.067,1.9,3.8,3.8,0,0,1,1.089,1.755l1.676,6a3.04,3.04,0,0,1-.014,1.762,3.7,3.7,0,0,1,.963,1.623l1.669,5.963a3.077,3.077,0,0,1-.012,1.758,3.627,3.627,0,0,1,.952,1.6l1.659,5.932a2.952,2.952,0,0,1-.413,2.563,2.634,2.634,0,0,1-2.056,1.076l-5.154.147h-.082a3.065,3.065,0,0,1-1.443-.372,2.738,2.738,0,0,1-1.443.456l-5.62.16h-.086a3.245,3.245,0,0,1-1.71-.5,2.824,2.824,0,0,1-1.679.6l-6.163.177Z" transform="translate(-281.702 1715.134)" fill="#ce0109"/>
    </g>
    <path id="Path_6737" data-name="Path 6737" d="M9492.252,878.9l-.216-.744L9478.6,831.77l32.48,4.9,11.821,41.334Zm-10.86-44.691,12.351,42.647,26.531-.777-10.761-37.625Z" transform="translate(-8260.519 -0.233)" fill="#ce0109"/>
  </g>
</svg>
