<svg xmlns="http://www.w3.org/2000/svg" width="107" height="82" viewBox="0 0 107 82"><g transform="translate(-1427 -777)"><rect width="107" height="82" transform="translate(1427 777)" fill="#fff"/><g transform="translate(641 -465)"><path d="M0,0H8V15.077L0,10.452Z" transform="translate(854.5 1261.326)" fill="#004c97"/><path d="M60.494,13.927,97.816,43.879H88.49V77.1H31.178V43.879H22.153ZM89.285,40.879,60.469,17.753l-29.6,23.126h3.311V74.1H85.49V40.879Z" transform="translate(779.49 1243.16)" fill="#004c97"/><path d="M123.968,102.43a5.942,5.942,0,0,0-4.926,1.685c-2.106,2.237-1.7,5.813-1.685,5.962a1.053,1.053,0,0,0,1.053.927.872.872,0,0,0,.128,0,1.053,1.053,0,0,0,.918-1.171c0-.027-.291-2.765,1.123-4.267a3.948,3.948,0,0,1,3.269-1.028c2.384.141,4.608,1.342,6.963,2.616,3.53,1.908,7.18,3.884,11.693,2.388a6.446,6.446,0,0,0,4.6-7.144,1.058,1.058,0,0,0-2.106.2,4.312,4.312,0,0,1-3.056,4.911l-.078.023c-3.665,1.228-6.771-.453-10.061-2.232-2.445-1.331-4.981-2.7-7.835-2.871" transform="translate(707.682 1177.211)" fill="#efb82a"/><path d="M118.474,111.256l-.072,0a1.3,1.3,0,0,1-1.293-1.147l0-.036c-.083-.912-.2-4.05,1.754-6.128a5.974,5.974,0,0,1,4.552-1.78c.186,0,.378.006.571.017,2.929.173,5.476,1.56,7.939,2.9,2.493,1.349,4.847,2.622,7.4,2.622a7.622,7.622,0,0,0,2.458-.407l.008,0,.086-.025a4.052,4.052,0,0,0,2.87-4.646,1.308,1.308,0,0,1,1.178-1.426c.041,0,.083-.006.125-.006a1.3,1.3,0,0,1,1.3,1.184,6.959,6.959,0,0,1-1.516,5.3,6.7,6.7,0,0,1-3.261,2.108,10.238,10.238,0,0,1-3.261.536c-3.176,0-5.942-1.5-8.617-2.941l-.006,0c-2.326-1.259-4.524-2.448-6.859-2.586a3.72,3.72,0,0,0-3.071.949c-1.223,1.3-1.095,3.611-1.057,4.061v.01a1.3,1.3,0,0,1-1.137,1.444h-.012Q118.516,111.256,118.474,111.256Zm-.056-.5h.01a.618.618,0,0,0,.086,0,.8.8,0,0,0,.694-.892l0-.023c-.041-.487-.177-2.992,1.191-4.445a4.188,4.188,0,0,1,3.466-1.106c2.446.145,4.69,1.359,7.067,2.645l.006,0c2.62,1.416,5.33,2.881,8.379,2.881a9.748,9.748,0,0,0,3.111-.513l.015,0a6.179,6.179,0,0,0,3.015-1.949,6.387,6.387,0,0,0,1.4-4.929.8.8,0,0,0-.8-.732c-.026,0-.052,0-.078,0a.808.808,0,0,0-.728.881,4.847,4.847,0,0,1-1.335,4.083,4.661,4.661,0,0,1-1.9,1.093l-.07.021a8.112,8.112,0,0,1-2.613.432c-2.683,0-5.091-1.3-7.641-2.682-2.417-1.316-4.914-2.675-7.731-2.841a5.714,5.714,0,0,0-4.729,1.607,7.273,7.273,0,0,0-1.621,5.74l0,.026a.8.8,0,0,0,.8.7Z" transform="translate(707.682 1177.211)" fill="#efb82a"/><path d="M145.931,156.969a1.053,1.053,0,0,0-.948,1.148,4.314,4.314,0,0,1-3.056,4.911l-.078.023c-3.665,1.226-6.771-.455-10.061-2.232-2.452-1.327-4.987-2.7-7.841-2.866a5.942,5.942,0,0,0-4.926,1.685c-2.106,2.239-1.7,5.813-1.685,5.964a1.053,1.053,0,0,0,1.053.925.844.844,0,0,0,.126,0,1.053,1.053,0,0,0,.92-1.167c0-.027-.3-2.765,1.127-4.277a3.96,3.96,0,0,1,3.264-1.019c2.384.139,4.608,1.342,6.961,2.614,3.532,1.91,7.182,3.884,11.7,2.39a6.448,6.448,0,0,0,4.6-7.144,1.053,1.053,0,0,0-1.143-.955h-.009" transform="translate(707.702 1133.381)" fill="#efb82a"/><path d="M118.453,166.779l-.072,0a1.3,1.3,0,0,1-1.293-1.144l0-.037c-.083-.912-.2-4.05,1.754-6.129a5.974,5.974,0,0,1,4.552-1.78c.186,0,.378.006.571.017,2.912.172,5.471,1.557,7.945,2.9l.007,0c2.491,1.346,4.845,2.618,7.4,2.618a7.626,7.626,0,0,0,2.456-.406l.008,0,.084-.025a4.184,4.184,0,0,0,1.69-.974,4.247,4.247,0,0,0,1.182-3.672,1.3,1.3,0,0,1,1.173-1.421h.011c.039,0,.079-.005.118-.005a1.3,1.3,0,0,1,1.3,1.187,6.956,6.956,0,0,1-1.516,5.3,6.718,6.718,0,0,1-3.261,2.108,10.248,10.248,0,0,1-3.26.535c-3.179,0-5.948-1.5-8.626-2.946-2.328-1.259-4.528-2.448-6.856-2.584a3.727,3.727,0,0,0-3.068.941c-1.234,1.307-1.1,3.619-1.061,4.069v.011a1.306,1.306,0,0,1-1.139,1.44h-.011Q118.494,166.779,118.453,166.779Zm-.055-.5h.01a.6.6,0,0,0,.083,0,.8.8,0,0,0,.7-.889l0-.021c-.043-.488-.186-2.994,1.2-4.456a4.2,4.2,0,0,1,3.461-1.1c2.439.142,4.686,1.357,7.065,2.643,2.623,1.419,5.335,2.886,8.388,2.886a9.757,9.757,0,0,0,3.11-.513l.015,0a6.194,6.194,0,0,0,3.015-1.95,6.385,6.385,0,0,0,1.4-4.928.808.808,0,0,0-.8-.733c-.024,0-.049,0-.073,0h-.009a.8.8,0,0,0-.721.875,4.846,4.846,0,0,1-1.335,4.082,4.722,4.722,0,0,1-1.9,1.094l-.071.021a8.117,8.117,0,0,1-2.61.431c-2.682,0-5.089-1.3-7.638-2.678l-.007,0c-2.427-1.313-4.936-2.671-7.737-2.837a5.714,5.714,0,0,0-4.729,1.607,7.282,7.282,0,0,0-1.621,5.741l0,.027a.8.8,0,0,0,.8.7Z" transform="translate(707.702 1133.381)" fill="#efb82a"/><path d="M145.931,212.479a1.053,1.053,0,0,0-.948,1.149h0a4.314,4.314,0,0,1-3.056,4.911l-.078.021c-3.665,1.228-6.771-.453-10.061-2.232-2.452-1.325-4.987-2.7-7.841-2.864a5.935,5.935,0,0,0-4.926,1.685c-2.106,2.237-1.7,5.813-1.685,5.964a1.053,1.053,0,0,0,1.053.925h.128a1.053,1.053,0,0,0,.918-1.172h0c0-.027-.291-2.765,1.123-4.267a3.955,3.955,0,0,1,3.269-1.028c2.384.141,4.608,1.344,6.963,2.616,3.53,1.91,7.18,3.884,11.693,2.388a6.446,6.446,0,0,0,4.6-7.144,1.053,1.053,0,0,0-1.145-.953h-.007" transform="translate(707.702 1089.562)" fill="#efb82a"/><path d="M118.382,222.288a1.3,1.3,0,0,1-1.293-1.144l0-.037c-.083-.913-.2-4.052,1.754-6.129a5.966,5.966,0,0,1,4.546-1.781c.188,0,.382.006.577.018,2.9.169,5.458,1.55,7.929,2.885l.016.008c2.494,1.349,4.848,2.623,7.4,2.623a7.622,7.622,0,0,0,2.458-.407l.014,0,.078-.021a4.183,4.183,0,0,0,1.69-.974,4.244,4.244,0,0,0,1.183-3.663v-.01a1.3,1.3,0,0,1,1.173-1.421h.01c.039,0,.079-.005.119-.005a1.3,1.3,0,0,1,1.3,1.184,6.958,6.958,0,0,1-1.516,5.3,6.7,6.7,0,0,1-3.261,2.107,10.243,10.243,0,0,1-3.262.537c-3.179,0-5.946-1.5-8.621-2.945l-.006,0c-2.327-1.257-4.526-2.445-6.852-2.583-.137-.008-.272-.012-.4-.012a3.5,3.5,0,0,0-2.669.961c-1.223,1.3-1.095,3.611-1.057,4.061v.012a1.3,1.3,0,0,1-1.137,1.445l-.03,0Zm-.8-1.2a.8.8,0,0,0,.8.7h.12a.8.8,0,0,0,.686-.892l0-.024c-.041-.487-.177-2.992,1.191-4.445a4.2,4.2,0,0,1,3.465-1.106c2.438.144,4.683,1.358,7.061,2.642l.006,0c2.621,1.418,5.33,2.885,8.383,2.885a9.753,9.753,0,0,0,3.112-.514l.015,0a6.179,6.179,0,0,0,3.015-1.949,6.387,6.387,0,0,0,1.4-4.929.8.8,0,0,0-.8-.731c-.025,0-.05,0-.075,0h-.009a.8.8,0,0,0-.721.869v.008a4.846,4.846,0,0,1-1.335,4.082,4.718,4.718,0,0,1-1.9,1.094l-.07.019a8.111,8.111,0,0,1-2.61.431c-2.683,0-5.091-1.3-7.641-2.682l-.016-.009c-2.423-1.309-4.929-2.663-7.721-2.826a5.7,5.7,0,0,0-4.73,1.607,7.278,7.278,0,0,0-1.621,5.741Z" transform="translate(707.702 1089.562)" fill="#efb82a"/></g></g></svg>