<svg xmlns="http://www.w3.org/2000/svg" width="35.583" height="35.5" viewBox="0 0 35.583 35.5">
  <path id="time" d="M17.792.25A17.144,17.144,0,0,1,30.375,5.458,17.1,17.1,0,0,1,35.583,18a17.1,17.1,0,0,1-5.208,12.542A17.144,17.144,0,0,1,17.792,35.75,17.144,17.144,0,0,1,5.209,30.542,17.1,17.1,0,0,1,0,18,17.091,17.091,0,0,1,5.208,5.458,17.147,17.147,0,0,1,17.792.25Zm0,32a13.687,13.687,0,0,0,10.042-4.167A13.735,13.735,0,0,0,32,18,13.735,13.735,0,0,0,27.834,7.917,13.687,13.687,0,0,0,17.792,3.75,13.687,13.687,0,0,0,7.75,7.917,13.735,13.735,0,0,0,3.583,18,13.735,13.735,0,0,0,7.75,28.083,13.687,13.687,0,0,0,17.792,32.25Zm.875-23.167v9.333l8,4.75-1.333,2.25L16,19.749V9.083h2.667Z" transform="translate(0 -0.25)" fill="#ce0109"/>
</svg>
