<svg xmlns="http://www.w3.org/2000/svg" width="327.983" height="254.048" viewBox="0 0 327.983 254.048">
  <g id="Group_6223" data-name="Group 6223" transform="translate(-24 -5176.056)">
    <path id="Path_8508" data-name="Path 8508" d="M2358.184,4052.339H2030.2V3798.291h2v252.048h323.983V3798.291h2Z" transform="translate(-2006.2 1377.764)" fill="#0c4e97"/>
    <g id="Group_5843" data-name="Group 5843" transform="translate(0 -0.944)">
      <g id="Group_5826" data-name="Group 5826" transform="translate(26 5191.847)">
        <g id="Group_5825" data-name="Group 5825" transform="translate(0 0)">
          <path id="Icon_awesome-wine-bottle" data-name="Icon awesome-wine-bottle" d="M56.746,8.117,49.153.524a1.79,1.79,0,0,0-2.531,0L44.09,3.056a1.79,1.79,0,0,0,0,2.531L42.565,7.112c-5.21-2.2-18.505,5.851-22.753,10.1L2.1,34.925a7.16,7.16,0,0,0,0,10.124L12.221,55.174a7.16,7.16,0,0,0,10.124,0L40.062,37.456c4.246-4.246,12.3-17.542,10.1-22.753l1.525-1.525a1.79,1.79,0,0,0,2.531,0C57.445,9.949,57.445,8.816,56.746,8.117ZM17.973,54.088h0Z" transform="translate(0 40.389) rotate(-45)" fill="#0c4e97"/>
          <path id="Path_8497" data-name="Path 8497" d="M0,5.967C11.889-4.947,21.19.244,21.19.244V26.42H0Z" transform="translate(29.886 39.622)" fill="#efb82a"/>
        </g>
      </g>
      <path id="Path_9145" data-name="Path 9145" d="M6.48,5.382a3.426,3.426,0,0,1,2.547.972A3.474,3.474,0,0,1,9.99,8.91a3.356,3.356,0,0,1-.981,2.52,3.547,3.547,0,0,1-2.583.954H2.916a.064.064,0,0,0-.072.072V17.82a.159.159,0,0,1-.18.18H1.746a.159.159,0,0,1-.18-.18V5.562a.159.159,0,0,1,.18-.18Zm-.144,5.94a2.355,2.355,0,0,0,1.728-.657A2.331,2.331,0,0,0,8.73,8.928a2.384,2.384,0,0,0-.666-1.764A2.338,2.338,0,0,0,6.336,6.5H2.916a.064.064,0,0,0-.072.072v4.68a.064.064,0,0,0,.072.072Zm12.42.594a9.155,9.155,0,0,1,.072,1.26v.576a.159.159,0,0,1-.18.18H12.834a.064.064,0,0,0-.072.072,8.034,8.034,0,0,0,.108,1.278,2.153,2.153,0,0,0,.846,1.278,2.759,2.759,0,0,0,1.656.468,2.559,2.559,0,0,0,1.332-.342,2.353,2.353,0,0,0,.9-.972q.108-.162.252-.072l.7.414a.179.179,0,0,1,.072.252,3.239,3.239,0,0,1-1.35,1.359,4.225,4.225,0,0,1-2.07.5,3.79,3.79,0,0,1-2.142-.612,3.282,3.282,0,0,1-1.242-1.656A7.392,7.392,0,0,1,11.5,13.41q0-.756.027-1.233a3.927,3.927,0,0,1,.135-.855A3.334,3.334,0,0,1,12.9,9.45a3.6,3.6,0,0,1,2.241-.7,3.544,3.544,0,0,1,2.52.828A3.836,3.836,0,0,1,18.756,11.916ZM15.138,9.864a2.3,2.3,0,0,0-1.467.459,2.126,2.126,0,0,0-.765,1.233,5.829,5.829,0,0,0-.144,1.224.064.064,0,0,0,.072.072H17.5a.064.064,0,0,0,.072-.072,8.091,8.091,0,0,0-.108-1.152,2.274,2.274,0,0,0-.8-1.287A2.376,2.376,0,0,0,15.138,9.864Zm9.9-1.062a2.124,2.124,0,0,1,1.026.234.19.19,0,0,1,.108.234l-.2.882a.153.153,0,0,1-.234.108,1.831,1.831,0,0,0-.7-.126l-.234.018a2.144,2.144,0,0,0-1.548.693,2.347,2.347,0,0,0-.612,1.665v5.31a.159.159,0,0,1-.18.18h-.918a.159.159,0,0,1-.18-.18V9.072a.159.159,0,0,1,.18-.18h.918a.159.159,0,0,1,.18.18v1.1q0,.054.027.063t.045-.027a2.866,2.866,0,0,1,.963-1.035A2.493,2.493,0,0,1,25.038,8.8Zm3.744-1.566a.984.984,0,0,1-1.008-1.008.969.969,0,0,1,.288-.729,1.069,1.069,0,0,1,1.44,0,.969.969,0,0,1,.288.729.984.984,0,0,1-1.008,1.008Zm-.5,10.746a.159.159,0,0,1-.18-.18V9.054a.159.159,0,0,1,.18-.18H29.2a.159.159,0,0,1,.18.18V17.8a.159.159,0,0,1-.18.18Zm7.218.108a4.651,4.651,0,0,1-1.791-.324A2.9,2.9,0,0,1,32.5,16.9a1.907,1.907,0,0,1-.423-1.206V15.48a.159.159,0,0,1,.18-.18h.864a.159.159,0,0,1,.18.18v.144a1.262,1.262,0,0,0,.621,1.035,2.623,2.623,0,0,0,1.557.441,2.494,2.494,0,0,0,1.512-.423,1.28,1.28,0,0,0,.576-1.071.983.983,0,0,0-.3-.738,2.135,2.135,0,0,0-.7-.45q-.405-.162-1.251-.414a12.889,12.889,0,0,1-1.656-.576,3.044,3.044,0,0,1-1.089-.8,1.931,1.931,0,0,1-.441-1.3,2.188,2.188,0,0,1,.9-1.836A3.826,3.826,0,0,1,35.406,8.8a4.466,4.466,0,0,1,1.755.324,2.738,2.738,0,0,1,1.179.891,2.1,2.1,0,0,1,.414,1.269v.054a.159.159,0,0,1-.18.18h-.846a.159.159,0,0,1-.18-.18v-.054a1.224,1.224,0,0,0-.585-1.026,2.678,2.678,0,0,0-1.575-.414,2.637,2.637,0,0,0-1.476.369,1.157,1.157,0,0,0-.558,1.017,1.031,1.031,0,0,0,.54.936,7.363,7.363,0,0,0,1.674.648,16.889,16.889,0,0,1,1.692.576,3.112,3.112,0,0,1,1.116.783,1.912,1.912,0,0,1,.468,1.341,2.238,2.238,0,0,1-.918,1.872A3.9,3.9,0,0,1,35.5,18.09Zm9.45-9.324a3.12,3.12,0,0,1,2.295.846A3.047,3.047,0,0,1,48.1,11.88v5.94a.159.159,0,0,1-.18.18H47a.159.159,0,0,1-.18-.18V12.132a2.247,2.247,0,0,0-.6-1.62,2.059,2.059,0,0,0-1.557-.63A2.1,2.1,0,0,0,42.444,12.1V17.82a.159.159,0,0,1-.18.18h-.918a.159.159,0,0,1-.18-.18V5.58a.159.159,0,0,1,.18-.18h.918a.159.159,0,0,1,.18.18V9.846a.061.061,0,0,0,.027.054q.027.018.045-.018A2.778,2.778,0,0,1,44.946,8.766Zm9.072-.018a3.517,3.517,0,0,1,2.5.828,2.87,2.87,0,0,1,.882,2.2V17.82a.159.159,0,0,1-.18.18H56.3a.159.159,0,0,1-.18-.18v-.738a.061.061,0,0,0-.027-.054q-.027-.018-.063.018a2.811,2.811,0,0,1-1.17.819,4.4,4.4,0,0,1-1.6.279A3.469,3.469,0,0,1,51.12,17.5a2.315,2.315,0,0,1-.864-1.98,2.583,2.583,0,0,1,.981-2.133,4.264,4.264,0,0,1,2.727-.783h2.088a.064.064,0,0,0,.072-.072v-.684a2,2,0,0,0-.513-1.449,2.126,2.126,0,0,0-1.593-.531,2.643,2.643,0,0,0-1.4.333,1.394,1.394,0,0,0-.666.927.191.191,0,0,1-.216.162l-.972-.126q-.2-.036-.162-.144a2.321,2.321,0,0,1,1.08-1.638A4.1,4.1,0,0,1,54.018,8.748Zm-.5,8.3a3.165,3.165,0,0,0,1.836-.531,1.652,1.652,0,0,0,.774-1.431v-1.4a.064.064,0,0,0-.072-.072h-1.89a3.356,3.356,0,0,0-1.908.486,1.541,1.541,0,0,0-.72,1.35,1.393,1.393,0,0,0,.549,1.2A2.351,2.351,0,0,0,53.514,17.046Zm13.554-5.832a9.056,9.056,0,0,1,.216,2.232,8.063,8.063,0,0,1-.252,2.286A3.411,3.411,0,0,1,65.844,17.5a3.362,3.362,0,0,1-2.106.648,2.972,2.972,0,0,1-1.314-.288,2.64,2.64,0,0,1-.99-.828A.044.044,0,0,0,61.38,17a.043.043,0,0,0-.036.045v.774a.159.159,0,0,1-.18.18h-.918a.159.159,0,0,1-.18-.18V5.58a.159.159,0,0,1,.18-.18h.918a.159.159,0,0,1,.18.18V9.828a.042.042,0,0,0,.027.045q.027.009.063-.027a2.708,2.708,0,0,1,.99-.81,2.972,2.972,0,0,1,1.314-.288A3.436,3.436,0,0,1,65.88,9.4,3.327,3.327,0,0,1,67.068,11.214Zm-1.386,4.41a3.031,3.031,0,0,0,.252-.855,9.378,9.378,0,0,0,.072-1.323,7.408,7.408,0,0,0-.1-1.377,3.132,3.132,0,0,0-.315-.891,2.043,2.043,0,0,0-.756-.954,2.133,2.133,0,0,0-1.242-.36,1.917,1.917,0,0,0-1.179.369,2.037,2.037,0,0,0-.711.981,3.243,3.243,0,0,0-.261.864,8.836,8.836,0,0,0-.081,1.368,8.5,8.5,0,0,0,.081,1.341,3.77,3.77,0,0,0,.243.855,2.225,2.225,0,0,0,.72,1.008,1.9,1.9,0,0,0,1.206.378,2.244,2.244,0,0,0,1.305-.378A1.965,1.965,0,0,0,65.682,15.624ZM70.074,18a.159.159,0,0,1-.18-.18V5.58a.159.159,0,0,1,.18-.18h.918a.159.159,0,0,1,.18.18V17.82a.159.159,0,0,1-.18.18Zm10.944-6.084a9.155,9.155,0,0,1,.072,1.26v.576a.159.159,0,0,1-.18.18H75.1a.064.064,0,0,0-.072.072,8.035,8.035,0,0,0,.108,1.278,2.153,2.153,0,0,0,.846,1.278,2.759,2.759,0,0,0,1.656.468,2.559,2.559,0,0,0,1.332-.342,2.353,2.353,0,0,0,.9-.972q.108-.162.252-.072l.7.414a.179.179,0,0,1,.072.252,3.239,3.239,0,0,1-1.35,1.359,4.225,4.225,0,0,1-2.07.5,3.79,3.79,0,0,1-2.142-.612,3.282,3.282,0,0,1-1.242-1.656,7.392,7.392,0,0,1-.324-2.484q0-.756.027-1.233a3.927,3.927,0,0,1,.135-.855A3.334,3.334,0,0,1,75.159,9.45a3.6,3.6,0,0,1,2.241-.7,3.544,3.544,0,0,1,2.52.828A3.836,3.836,0,0,1,81.018,11.916ZM77.4,9.864a2.3,2.3,0,0,0-1.467.459,2.126,2.126,0,0,0-.765,1.233,5.829,5.829,0,0,0-.144,1.224.064.064,0,0,0,.072.072h4.662a.064.064,0,0,0,.072-.072,8.092,8.092,0,0,0-.108-1.152,2.274,2.274,0,0,0-.8-1.287A2.376,2.376,0,0,0,77.4,9.864Zm9.054,8.226a4.651,4.651,0,0,1-1.791-.324,2.9,2.9,0,0,1-1.206-.864,1.907,1.907,0,0,1-.423-1.206V15.48a.159.159,0,0,1,.18-.18h.864a.159.159,0,0,1,.18.18v.144a1.262,1.262,0,0,0,.621,1.035,2.623,2.623,0,0,0,1.557.441,2.494,2.494,0,0,0,1.512-.423,1.28,1.28,0,0,0,.576-1.071.983.983,0,0,0-.3-.738,2.135,2.135,0,0,0-.7-.45q-.4-.162-1.251-.414a12.889,12.889,0,0,1-1.656-.576,3.044,3.044,0,0,1-1.089-.8,1.931,1.931,0,0,1-.441-1.3,2.188,2.188,0,0,1,.9-1.836A3.826,3.826,0,0,1,86.364,8.8a4.466,4.466,0,0,1,1.755.324,2.738,2.738,0,0,1,1.179.891,2.1,2.1,0,0,1,.414,1.269v.054a.159.159,0,0,1-.18.18h-.846a.159.159,0,0,1-.18-.18v-.054a1.224,1.224,0,0,0-.585-1.026,2.678,2.678,0,0,0-1.575-.414,2.637,2.637,0,0,0-1.476.369,1.157,1.157,0,0,0-.558,1.017,1.031,1.031,0,0,0,.54.936,7.362,7.362,0,0,0,1.674.648,16.889,16.889,0,0,1,1.692.576,3.112,3.112,0,0,1,1.116.783,1.912,1.912,0,0,1,.468,1.341,2.238,2.238,0,0,1-.918,1.872A3.9,3.9,0,0,1,86.454,18.09Zm12.708.054a3.674,3.674,0,0,1-2.223-.675,3.381,3.381,0,0,1-1.269-1.827,8.265,8.265,0,0,1-.234-2.232,8.852,8.852,0,0,1,.234-2.2,3.273,3.273,0,0,1,1.26-1.791,3.714,3.714,0,0,1,2.232-.675,3.9,3.9,0,0,1,2.277.666,2.971,2.971,0,0,1,1.359,2.2v.036q0,.126-.162.162l-.9.126H101.7q-.126,0-.162-.162l-.054-.27a2.023,2.023,0,0,0-.792-1.161,2.461,2.461,0,0,0-1.53-.477,2.347,2.347,0,0,0-1.5.477,2.181,2.181,0,0,0-.783,1.269,8.183,8.183,0,0,0-.162,1.818,8,8,0,0,0,.162,1.836,2.189,2.189,0,0,0,.783,1.287,2.347,2.347,0,0,0,1.5.477,2.538,2.538,0,0,0,1.521-.459,1.944,1.944,0,0,0,.8-1.179v-.072l.018-.072q.018-.18.216-.144l.882.144q.18.036.162.2l-.072.36a2.851,2.851,0,0,1-1.242,1.692A4.024,4.024,0,0,1,99.162,18.144Zm9.342,0a3.749,3.749,0,0,1-2.232-.666,3.412,3.412,0,0,1-1.3-1.836,7.849,7.849,0,0,1-.252-2.214,7.654,7.654,0,0,1,.252-2.2,3.321,3.321,0,0,1,1.278-1.818,3.81,3.81,0,0,1,2.268-.666,3.679,3.679,0,0,1,2.205.666,3.336,3.336,0,0,1,1.269,1.8,7.511,7.511,0,0,1,.252,2.214A7.4,7.4,0,0,1,112,15.642a3.339,3.339,0,0,1-1.269,1.836A3.709,3.709,0,0,1,108.5,18.144Zm0-1.116a2.289,2.289,0,0,0,2.3-1.764,7.894,7.894,0,0,0,.162-1.818,8.69,8.69,0,0,0-.144-1.818,2.326,2.326,0,0,0-.837-1.287,2.394,2.394,0,0,0-1.5-.477,2.29,2.29,0,0,0-2.322,1.764,8.69,8.69,0,0,0-.144,1.818,8.69,8.69,0,0,0,.144,1.818,2.239,2.239,0,0,0,.819,1.287A2.423,2.423,0,0,0,108.5,17.028ZM115.02,18a.159.159,0,0,1-.18-.18V5.58a.159.159,0,0,1,.18-.18h.918a.159.159,0,0,1,.18.18V17.82a.159.159,0,0,1-.18.18Zm9.612-12.42a.159.159,0,0,1,.18-.18h.918a.159.159,0,0,1,.18.18V17.82a.159.159,0,0,1-.18.18h-.918a.159.159,0,0,1-.18-.18v-.756a.042.042,0,0,0-.027-.045q-.027-.009-.063.027a2.728,2.728,0,0,1-.981.81,2.914,2.914,0,0,1-1.305.288,3.4,3.4,0,0,1-2.115-.648,3.3,3.3,0,0,1-1.179-1.764,8.063,8.063,0,0,1-.252-2.286,8.541,8.541,0,0,1,.216-2.232A3.327,3.327,0,0,1,120.114,9.4a3.436,3.436,0,0,1,2.142-.657,3.01,3.01,0,0,1,1.3.279,2.626,2.626,0,0,1,.99.8q.036.036.063.027a.042.042,0,0,0,.027-.045Zm-.324,10.062a3.207,3.207,0,0,0,.234-.846,9.753,9.753,0,0,0,.072-1.35,9.96,9.96,0,0,0-.072-1.359,3.041,3.041,0,0,0-.252-.873,2.037,2.037,0,0,0-.711-.981,1.917,1.917,0,0,0-1.179-.369,2.133,2.133,0,0,0-1.242.36,2.043,2.043,0,0,0-.756.954,3.132,3.132,0,0,0-.315.891,7.408,7.408,0,0,0-.1,1.377,9.378,9.378,0,0,0,.072,1.323,3.032,3.032,0,0,0,.252.855,1.965,1.965,0,0,0,.765,1.026,2.244,2.244,0,0,0,1.305.378,1.9,1.9,0,0,0,1.206-.378A2.225,2.225,0,0,0,124.308,15.642Zm11.25-6.894a3.517,3.517,0,0,1,2.5.828,2.87,2.87,0,0,1,.882,2.2V17.82a.159.159,0,0,1-.18.18h-.918a.159.159,0,0,1-.18-.18v-.738a.061.061,0,0,0-.027-.054q-.027-.018-.063.018a2.811,2.811,0,0,1-1.17.819,4.4,4.4,0,0,1-1.6.279,3.469,3.469,0,0,1-2.142-.648,2.315,2.315,0,0,1-.864-1.98,2.583,2.583,0,0,1,.981-2.133A4.264,4.264,0,0,1,135.5,12.6h2.088a.064.064,0,0,0,.072-.072v-.684a2,2,0,0,0-.513-1.449,2.126,2.126,0,0,0-1.593-.531,2.643,2.643,0,0,0-1.4.333,1.394,1.394,0,0,0-.666.927.191.191,0,0,1-.216.162l-.972-.126q-.2-.036-.162-.144a2.321,2.321,0,0,1,1.08-1.638A4.1,4.1,0,0,1,135.558,8.748Zm-.5,8.3a3.165,3.165,0,0,0,1.836-.531,1.652,1.652,0,0,0,.774-1.431v-1.4a.064.064,0,0,0-.072-.072H135.7a3.356,3.356,0,0,0-1.908.486,1.541,1.541,0,0,0-.72,1.35,1.393,1.393,0,0,0,.549,1.2A2.351,2.351,0,0,0,135.054,17.046Zm10.332-8.28a3.12,3.12,0,0,1,2.295.846,3.047,3.047,0,0,1,.855,2.268v5.94a.159.159,0,0,1-.18.18h-.918a.159.159,0,0,1-.18-.18V12.132a2.247,2.247,0,0,0-.6-1.62,2.059,2.059,0,0,0-1.557-.63,2.1,2.1,0,0,0-2.214,2.214V17.82a.159.159,0,0,1-.18.18h-.918a.159.159,0,0,1-.18-.18V9.072a.159.159,0,0,1,.18-.18h.918a.159.159,0,0,1,.18.18v.774a.061.061,0,0,0,.027.054q.027.018.045-.018A2.778,2.778,0,0,1,145.386,8.766ZM156.834,5.58a.159.159,0,0,1,.18-.18h.918a.159.159,0,0,1,.18.18V17.82a.159.159,0,0,1-.18.18h-.918a.159.159,0,0,1-.18-.18v-.756a.042.042,0,0,0-.027-.045q-.027-.009-.063.027a2.728,2.728,0,0,1-.981.81,2.914,2.914,0,0,1-1.3.288,3.4,3.4,0,0,1-2.115-.648,3.3,3.3,0,0,1-1.179-1.764,8.063,8.063,0,0,1-.252-2.286,8.541,8.541,0,0,1,.216-2.232A3.327,3.327,0,0,1,152.316,9.4a3.436,3.436,0,0,1,2.142-.657,3.01,3.01,0,0,1,1.3.279,2.626,2.626,0,0,1,.99.8q.036.036.063.027a.042.042,0,0,0,.027-.045Zm-.324,10.062a3.207,3.207,0,0,0,.234-.846,9.751,9.751,0,0,0,.072-1.35,9.958,9.958,0,0,0-.072-1.359,3.042,3.042,0,0,0-.252-.873,2.037,2.037,0,0,0-.711-.981,1.917,1.917,0,0,0-1.179-.369,2.133,2.133,0,0,0-1.242.36,2.043,2.043,0,0,0-.756.954,3.131,3.131,0,0,0-.315.891,7.409,7.409,0,0,0-.1,1.377,9.377,9.377,0,0,0,.072,1.323,3.031,3.031,0,0,0,.252.855,1.965,1.965,0,0,0,.765,1.026,2.244,2.244,0,0,0,1.3.378,1.9,1.9,0,0,0,1.206-.378A2.225,2.225,0,0,0,156.51,15.642ZM1.026,45.6Q.9,45.6.9,45.42V44.7a.159.159,0,0,1,.18-.18h.072a2.7,2.7,0,0,0,1.089-.207,1.581,1.581,0,0,0,.666-.7,9.106,9.106,0,0,0,.6-1.557q.036-.072,0-.108L.468,33.09.45,33.018q0-.126.162-.126h.954a.21.21,0,0,1,.216.144l2.34,7.272a.058.058,0,0,0,.108,0l2.3-7.272a.21.21,0,0,1,.216-.144h.936q.2,0,.144.2l-3.33,9.7a8.875,8.875,0,0,1-.81,1.782,2.014,2.014,0,0,1-.945.8,4.469,4.469,0,0,1-1.593.225Zm11.88-3.456a3.749,3.749,0,0,1-2.232-.666,3.412,3.412,0,0,1-1.3-1.836,7.849,7.849,0,0,1-.252-2.214,7.654,7.654,0,0,1,.252-2.2,3.321,3.321,0,0,1,1.278-1.818,3.81,3.81,0,0,1,2.268-.666,3.679,3.679,0,0,1,2.2.666,3.336,3.336,0,0,1,1.269,1.8,7.511,7.511,0,0,1,.252,2.214,7.4,7.4,0,0,1-.252,2.214,3.339,3.339,0,0,1-1.269,1.836A3.708,3.708,0,0,1,12.906,42.144Zm0-1.116a2.289,2.289,0,0,0,2.3-1.764,7.893,7.893,0,0,0,.162-1.818,8.69,8.69,0,0,0-.144-1.818,2.326,2.326,0,0,0-.837-1.287,2.394,2.394,0,0,0-1.5-.477,2.29,2.29,0,0,0-2.322,1.764,8.69,8.69,0,0,0-.144,1.818,8.69,8.69,0,0,0,.144,1.818,2.239,2.239,0,0,0,.819,1.287A2.423,2.423,0,0,0,12.906,41.028ZM24.75,33.072a.159.159,0,0,1,.18-.18h.918a.159.159,0,0,1,.18.18V41.82a.159.159,0,0,1-.18.18H24.93a.159.159,0,0,1-.18-.18v-.774a.058.058,0,0,0-.036-.054.036.036,0,0,0-.054.018,2.685,2.685,0,0,1-2.394,1.116,3.624,3.624,0,0,1-1.593-.351,2.746,2.746,0,0,1-1.152-1.017,2.926,2.926,0,0,1-.423-1.6V33.072a.159.159,0,0,1,.18-.18H20.2a.159.159,0,0,1,.18.18v5.706a2.26,2.26,0,0,0,.576,1.629,2.063,2.063,0,0,0,1.566.6,2.183,2.183,0,0,0,1.629-.612,2.208,2.208,0,0,0,.6-1.62Zm7.812-.27a2.124,2.124,0,0,1,1.026.234.19.19,0,0,1,.108.234l-.2.882a.153.153,0,0,1-.234.108,1.831,1.831,0,0,0-.7-.126l-.234.018a2.144,2.144,0,0,0-1.548.693,2.347,2.347,0,0,0-.612,1.665v5.31a.159.159,0,0,1-.18.18H29.07a.159.159,0,0,1-.18-.18V33.072a.159.159,0,0,1,.18-.18h.918a.159.159,0,0,1,.18.18v1.1q0,.054.027.063t.045-.027a2.866,2.866,0,0,1,.963-1.035A2.493,2.493,0,0,1,32.562,32.8Zm9.918,9.342a3.674,3.674,0,0,1-2.223-.675,3.381,3.381,0,0,1-1.269-1.827,8.265,8.265,0,0,1-.234-2.232,8.852,8.852,0,0,1,.234-2.2,3.273,3.273,0,0,1,1.26-1.791,3.714,3.714,0,0,1,2.232-.675,3.9,3.9,0,0,1,2.277.666,2.971,2.971,0,0,1,1.359,2.2v.036q0,.126-.162.162l-.9.126h-.036q-.126,0-.162-.162L44.8,35.5a2.023,2.023,0,0,0-.792-1.161,2.461,2.461,0,0,0-1.53-.477,2.347,2.347,0,0,0-1.5.477,2.181,2.181,0,0,0-.783,1.269,8.184,8.184,0,0,0-.162,1.818,8,8,0,0,0,.162,1.836,2.189,2.189,0,0,0,.783,1.287,2.347,2.347,0,0,0,1.5.477A2.538,2.538,0,0,0,44,40.569a1.944,1.944,0,0,0,.8-1.179v-.072l.018-.072q.018-.18.216-.144l.882.144q.18.036.162.2l-.072.36A2.851,2.851,0,0,1,44.766,41.5,4.024,4.024,0,0,1,42.48,42.144Zm9.342,0a3.749,3.749,0,0,1-2.232-.666,3.412,3.412,0,0,1-1.3-1.836,7.849,7.849,0,0,1-.252-2.214,7.654,7.654,0,0,1,.252-2.2,3.321,3.321,0,0,1,1.278-1.818,3.81,3.81,0,0,1,2.268-.666,3.679,3.679,0,0,1,2.205.666,3.336,3.336,0,0,1,1.269,1.8,7.511,7.511,0,0,1,.252,2.214,7.4,7.4,0,0,1-.252,2.214,3.339,3.339,0,0,1-1.269,1.836A3.708,3.708,0,0,1,51.822,42.144Zm0-1.116a2.289,2.289,0,0,0,2.3-1.764,7.893,7.893,0,0,0,.162-1.818,8.69,8.69,0,0,0-.144-1.818,2.326,2.326,0,0,0-.837-1.287,2.394,2.394,0,0,0-1.5-.477,2.29,2.29,0,0,0-2.322,1.764,8.69,8.69,0,0,0-.144,1.818,8.69,8.69,0,0,0,.144,1.818,2.239,2.239,0,0,0,.819,1.287A2.423,2.423,0,0,0,51.822,41.028ZM61.65,30.516a1.678,1.678,0,0,0-1.35.441,2.411,2.411,0,0,0-.36,1.5v.36a.064.064,0,0,0,.072.072h2.016a.159.159,0,0,1,.18.18v.81a.159.159,0,0,1-.18.18H60.012a.064.064,0,0,0-.072.072V41.82a.159.159,0,0,1-.18.18h-.9a.159.159,0,0,1-.18-.18V34.134a.064.064,0,0,0-.072-.072H57.4a.159.159,0,0,1-.18-.18v-.81a.159.159,0,0,1,.18-.18h1.206a.064.064,0,0,0,.072-.072v-.432a4.92,4.92,0,0,1,.252-1.755,1.691,1.691,0,0,1,.873-.936,4.112,4.112,0,0,1,1.737-.3h.522a.159.159,0,0,1,.18.18v.756a.159.159,0,0,1-.18.18Zm6.408,0a1.678,1.678,0,0,0-1.35.441,2.411,2.411,0,0,0-.36,1.5v.36a.064.064,0,0,0,.072.072h2.016a.159.159,0,0,1,.18.18v.81a.159.159,0,0,1-.18.18H66.42a.064.064,0,0,0-.072.072V41.82a.159.159,0,0,1-.18.18h-.9a.159.159,0,0,1-.18-.18V34.134a.064.064,0,0,0-.072-.072H63.81a.159.159,0,0,1-.18-.18v-.81a.159.159,0,0,1,.18-.18h1.206a.064.064,0,0,0,.072-.072v-.432a4.92,4.92,0,0,1,.252-1.755,1.691,1.691,0,0,1,.873-.936,4.112,4.112,0,0,1,1.737-.3h.522a.159.159,0,0,1,.18.18v.756a.159.159,0,0,1-.18.18ZM77,35.916a9.154,9.154,0,0,1,.072,1.26v.576a.159.159,0,0,1-.18.18H71.082A.064.064,0,0,0,71.01,38a8.035,8.035,0,0,0,.108,1.278,2.153,2.153,0,0,0,.846,1.278,2.759,2.759,0,0,0,1.656.468,2.559,2.559,0,0,0,1.332-.342,2.353,2.353,0,0,0,.9-.972q.108-.162.252-.072l.7.414a.179.179,0,0,1,.072.252,3.239,3.239,0,0,1-1.35,1.359,4.225,4.225,0,0,1-2.07.495,3.79,3.79,0,0,1-2.142-.612,3.282,3.282,0,0,1-1.242-1.656,7.392,7.392,0,0,1-.324-2.484q0-.756.027-1.233a3.927,3.927,0,0,1,.135-.855,3.334,3.334,0,0,1,1.233-1.872,3.6,3.6,0,0,1,2.241-.7,3.544,3.544,0,0,1,2.52.828A3.836,3.836,0,0,1,77,35.916Zm-3.618-2.052a2.3,2.3,0,0,0-1.467.459,2.127,2.127,0,0,0-.765,1.233,5.829,5.829,0,0,0-.144,1.224.064.064,0,0,0,.072.072h4.662a.064.064,0,0,0,.072-.072,8.092,8.092,0,0,0-.108-1.152,2.274,2.274,0,0,0-.8-1.287A2.376,2.376,0,0,0,73.386,33.864ZM86.6,35.916a9.155,9.155,0,0,1,.072,1.26v.576a.159.159,0,0,1-.18.18H80.676A.064.064,0,0,0,80.6,38a8.035,8.035,0,0,0,.108,1.278,2.153,2.153,0,0,0,.846,1.278,2.759,2.759,0,0,0,1.656.468,2.559,2.559,0,0,0,1.332-.342,2.353,2.353,0,0,0,.9-.972q.108-.162.252-.072l.7.414a.179.179,0,0,1,.072.252,3.239,3.239,0,0,1-1.35,1.359,4.225,4.225,0,0,1-2.07.495,3.79,3.79,0,0,1-2.142-.612,3.282,3.282,0,0,1-1.242-1.656,7.392,7.392,0,0,1-.324-2.484q0-.756.027-1.233a3.927,3.927,0,0,1,.135-.855,3.334,3.334,0,0,1,1.233-1.872,3.6,3.6,0,0,1,2.241-.7,3.544,3.544,0,0,1,2.52.828A3.836,3.836,0,0,1,86.6,35.916ZM82.98,33.864a2.3,2.3,0,0,0-1.467.459,2.127,2.127,0,0,0-.765,1.233A5.829,5.829,0,0,0,80.6,36.78a.064.064,0,0,0,.072.072h4.662a.064.064,0,0,0,.072-.072,8.092,8.092,0,0,0-.108-1.152,2.274,2.274,0,0,0-.8-1.287A2.376,2.376,0,0,0,82.98,33.864Zm13.608-1.1a3.12,3.12,0,0,1,2.295.846,3.047,3.047,0,0,1,.855,2.268v5.94a.159.159,0,0,1-.18.18H98.64a.159.159,0,0,1-.18-.18V36.132a2.247,2.247,0,0,0-.6-1.62,2.059,2.059,0,0,0-1.557-.63A2.1,2.1,0,0,0,94.086,36.1V41.82a.159.159,0,0,1-.18.18h-.918a.159.159,0,0,1-.18-.18V29.58a.159.159,0,0,1,.18-.18h.918a.159.159,0,0,1,.18.18v4.266a.061.061,0,0,0,.027.054q.027.018.045-.018A2.778,2.778,0,0,1,96.588,32.766Zm9.27,9.378a3.749,3.749,0,0,1-2.232-.666,3.412,3.412,0,0,1-1.3-1.836,7.849,7.849,0,0,1-.252-2.214,7.654,7.654,0,0,1,.252-2.2,3.321,3.321,0,0,1,1.278-1.818,3.81,3.81,0,0,1,2.268-.666,3.679,3.679,0,0,1,2.205.666,3.336,3.336,0,0,1,1.269,1.8,7.511,7.511,0,0,1,.252,2.214,7.4,7.4,0,0,1-.252,2.214,3.339,3.339,0,0,1-1.269,1.836A3.708,3.708,0,0,1,105.858,42.144Zm0-1.116a2.289,2.289,0,0,0,2.3-1.764,7.893,7.893,0,0,0,.162-1.818,8.69,8.69,0,0,0-.144-1.818,2.326,2.326,0,0,0-.837-1.287,2.394,2.394,0,0,0-1.5-.477,2.29,2.29,0,0,0-2.322,1.764,8.69,8.69,0,0,0-.144,1.818,8.69,8.69,0,0,0,.144,1.818,2.239,2.239,0,0,0,.819,1.287A2.423,2.423,0,0,0,105.858,41.028Zm10.314-7.254a.159.159,0,0,1-.18.18h-2.034a.064.064,0,0,0-.072.072v5.31a1.586,1.586,0,0,0,.387,1.215,1.77,1.77,0,0,0,1.215.351h.45a.159.159,0,0,1,.18.18v.738a.159.159,0,0,1-.18.18q-.216.018-.666.018a3.309,3.309,0,0,1-1.962-.486,2.1,2.1,0,0,1-.666-1.8V34.026a.064.064,0,0,0-.072-.072h-1.1a.159.159,0,0,1-.18-.18v-.7a.159.159,0,0,1,.18-.18h1.1a.064.064,0,0,0,.072-.072V30.732a.159.159,0,0,1,.18-.18h.882a.159.159,0,0,1,.18.18V32.82a.064.064,0,0,0,.072.072h2.034a.159.159,0,0,1,.18.18Z" transform="translate(111 5204.54)"/>
    </g>
    <g id="Group_5844" data-name="Group 5844" transform="translate(0 -0.944)">
      <g id="Group_5824" data-name="Group 5824" transform="translate(48 5280.847)">
        <rect id="Rectangle_1552" data-name="Rectangle 1552" width="30.554" height="49.851" transform="translate(3.216 6.432)" fill="#efb82a"/>
        <path id="Icon_material-phone-android" data-name="Icon material-phone-android" d="M37.25,1.5H15.614A8.1,8.1,0,0,0,7.5,9.614V52.886A8.1,8.1,0,0,0,15.614,61H37.25a8.1,8.1,0,0,0,8.114-8.114V9.614A8.1,8.1,0,0,0,37.25,1.5ZM31.841,55.591H21.023v-2.7H31.841Zm8.79-8.114h-28.4V9.614h28.4Z" transform="translate(-7.5 -1.5)" fill="#0c4e97"/>
      </g>
      <path id="Path_9146" data-name="Path 9146" d="M6.48,5.382a3.426,3.426,0,0,1,2.547.972A3.474,3.474,0,0,1,9.99,8.91a3.356,3.356,0,0,1-.981,2.52,3.547,3.547,0,0,1-2.583.954H2.916a.064.064,0,0,0-.072.072V17.82a.159.159,0,0,1-.18.18H1.746a.159.159,0,0,1-.18-.18V5.562a.159.159,0,0,1,.18-.18Zm-.144,5.94a2.355,2.355,0,0,0,1.728-.657A2.331,2.331,0,0,0,8.73,8.928a2.384,2.384,0,0,0-.666-1.764A2.338,2.338,0,0,0,6.336,6.5H2.916a.064.064,0,0,0-.072.072v4.68a.064.064,0,0,0,.072.072Zm9.54-2.556a3.12,3.12,0,0,1,2.3.846,3.047,3.047,0,0,1,.855,2.268v5.94a.159.159,0,0,1-.18.18h-.918a.159.159,0,0,1-.18-.18V12.132a2.247,2.247,0,0,0-.6-1.62,2.059,2.059,0,0,0-1.557-.63A2.1,2.1,0,0,0,13.374,12.1V17.82a.159.159,0,0,1-.18.18h-.918a.159.159,0,0,1-.18-.18V5.58a.159.159,0,0,1,.18-.18h.918a.159.159,0,0,1,.18.18V9.846A.061.061,0,0,0,13.4,9.9q.027.018.045-.018A2.778,2.778,0,0,1,15.876,8.766Zm9.27,9.378a3.749,3.749,0,0,1-2.232-.666,3.412,3.412,0,0,1-1.3-1.836,7.849,7.849,0,0,1-.252-2.214,7.654,7.654,0,0,1,.252-2.2A3.321,3.321,0,0,1,22.9,9.414a3.81,3.81,0,0,1,2.268-.666,3.679,3.679,0,0,1,2.2.666,3.336,3.336,0,0,1,1.269,1.8,7.511,7.511,0,0,1,.252,2.214,7.4,7.4,0,0,1-.252,2.214,3.339,3.339,0,0,1-1.269,1.836A3.708,3.708,0,0,1,25.146,18.144Zm0-1.116a2.289,2.289,0,0,0,2.3-1.764,7.893,7.893,0,0,0,.162-1.818,8.691,8.691,0,0,0-.144-1.818,2.326,2.326,0,0,0-.837-1.287,2.394,2.394,0,0,0-1.5-.477,2.29,2.29,0,0,0-2.322,1.764,8.691,8.691,0,0,0-.144,1.818,8.691,8.691,0,0,0,.144,1.818,2.239,2.239,0,0,0,.819,1.287A2.423,2.423,0,0,0,25.146,17.028ZM35.262,8.766a3.12,3.12,0,0,1,2.295.846,3.047,3.047,0,0,1,.855,2.268v5.94a.159.159,0,0,1-.18.18h-.918a.159.159,0,0,1-.18-.18V12.132a2.247,2.247,0,0,0-.6-1.62,2.059,2.059,0,0,0-1.557-.63A2.1,2.1,0,0,0,32.76,12.1V17.82a.159.159,0,0,1-.18.18h-.918a.159.159,0,0,1-.18-.18V9.072a.159.159,0,0,1,.18-.18h.918a.159.159,0,0,1,.18.18v.774a.061.061,0,0,0,.027.054q.027.018.045-.018A2.778,2.778,0,0,1,35.262,8.766Zm12.78,3.15a9.155,9.155,0,0,1,.072,1.26v.576a.159.159,0,0,1-.18.18H42.12a.064.064,0,0,0-.072.072,8.034,8.034,0,0,0,.108,1.278A2.153,2.153,0,0,0,43,16.56a2.759,2.759,0,0,0,1.656.468,2.559,2.559,0,0,0,1.332-.342,2.353,2.353,0,0,0,.9-.972q.108-.162.252-.072l.7.414a.179.179,0,0,1,.072.252,3.239,3.239,0,0,1-1.35,1.359,4.225,4.225,0,0,1-2.07.5,3.79,3.79,0,0,1-2.142-.612,3.282,3.282,0,0,1-1.242-1.656,7.392,7.392,0,0,1-.324-2.484q0-.756.027-1.233a3.927,3.927,0,0,1,.135-.855A3.334,3.334,0,0,1,42.183,9.45a3.6,3.6,0,0,1,2.241-.7,3.544,3.544,0,0,1,2.52.828A3.836,3.836,0,0,1,48.042,11.916ZM44.424,9.864a2.3,2.3,0,0,0-1.467.459,2.126,2.126,0,0,0-.765,1.233,5.829,5.829,0,0,0-.144,1.224.064.064,0,0,0,.072.072h4.662a.064.064,0,0,0,.072-.072,8.091,8.091,0,0,0-.108-1.152,2.274,2.274,0,0,0-.8-1.287A2.376,2.376,0,0,0,44.424,9.864Zm9.054,8.226a4.651,4.651,0,0,1-1.791-.324,2.9,2.9,0,0,1-1.206-.864,1.907,1.907,0,0,1-.423-1.206V15.48a.159.159,0,0,1,.18-.18H51.1a.159.159,0,0,1,.18.18v.144a1.262,1.262,0,0,0,.621,1.035,2.623,2.623,0,0,0,1.557.441,2.494,2.494,0,0,0,1.512-.423,1.28,1.28,0,0,0,.576-1.071.983.983,0,0,0-.3-.738,2.135,2.135,0,0,0-.7-.45Q54.144,14.256,53.3,14a12.889,12.889,0,0,1-1.656-.576,3.044,3.044,0,0,1-1.089-.8,1.931,1.931,0,0,1-.441-1.3,2.188,2.188,0,0,1,.9-1.836A3.826,3.826,0,0,1,53.388,8.8a4.466,4.466,0,0,1,1.755.324,2.738,2.738,0,0,1,1.179.891,2.1,2.1,0,0,1,.414,1.269v.054a.159.159,0,0,1-.18.18H55.71a.159.159,0,0,1-.18-.18v-.054a1.224,1.224,0,0,0-.585-1.026,2.678,2.678,0,0,0-1.575-.414,2.637,2.637,0,0,0-1.476.369,1.157,1.157,0,0,0-.558,1.017,1.031,1.031,0,0,0,.54.936,7.363,7.363,0,0,0,1.674.648,16.889,16.889,0,0,1,1.692.576,3.112,3.112,0,0,1,1.116.783,1.912,1.912,0,0,1,.468,1.341,2.238,2.238,0,0,1-.918,1.872A3.9,3.9,0,0,1,53.478,18.09Zm12.708.054a3.674,3.674,0,0,1-2.223-.675,3.381,3.381,0,0,1-1.269-1.827,8.265,8.265,0,0,1-.234-2.232,8.852,8.852,0,0,1,.234-2.2,3.273,3.273,0,0,1,1.26-1.791,3.714,3.714,0,0,1,2.232-.675,3.9,3.9,0,0,1,2.277.666,2.971,2.971,0,0,1,1.359,2.2v.036q0,.126-.162.162l-.9.126h-.036q-.126,0-.162-.162l-.054-.27a2.023,2.023,0,0,0-.792-1.161,2.461,2.461,0,0,0-1.53-.477,2.347,2.347,0,0,0-1.5.477A2.181,2.181,0,0,0,63.9,11.61a8.184,8.184,0,0,0-.162,1.818,8,8,0,0,0,.162,1.836,2.189,2.189,0,0,0,.783,1.287,2.347,2.347,0,0,0,1.5.477,2.538,2.538,0,0,0,1.521-.459,1.944,1.944,0,0,0,.8-1.179v-.072l.018-.072q.018-.18.216-.144l.882.144q.18.036.162.2l-.072.36A2.851,2.851,0,0,1,68.472,17.5,4.024,4.024,0,0,1,66.186,18.144Zm9.7-9.378a3.12,3.12,0,0,1,2.295.846,3.047,3.047,0,0,1,.855,2.268v5.94a.159.159,0,0,1-.18.18H77.94a.159.159,0,0,1-.18-.18V12.132a2.247,2.247,0,0,0-.6-1.62,2.059,2.059,0,0,0-1.557-.63A2.1,2.1,0,0,0,73.386,12.1V17.82a.159.159,0,0,1-.18.18h-.918a.159.159,0,0,1-.18-.18V5.58a.159.159,0,0,1,.18-.18h.918a.159.159,0,0,1,.18.18V9.846a.061.061,0,0,0,.027.054q.027.018.045-.018A2.778,2.778,0,0,1,75.888,8.766Zm9.072-.018a3.517,3.517,0,0,1,2.5.828,2.87,2.87,0,0,1,.882,2.2V17.82a.159.159,0,0,1-.18.18h-.918a.159.159,0,0,1-.18-.18v-.738a.061.061,0,0,0-.027-.054q-.027-.018-.063.018a2.811,2.811,0,0,1-1.17.819,4.4,4.4,0,0,1-1.6.279,3.469,3.469,0,0,1-2.142-.648,2.315,2.315,0,0,1-.864-1.98,2.583,2.583,0,0,1,.981-2.133,4.264,4.264,0,0,1,2.727-.783h2.088a.064.064,0,0,0,.072-.072v-.684a2,2,0,0,0-.513-1.449,2.126,2.126,0,0,0-1.593-.531,2.643,2.643,0,0,0-1.4.333,1.394,1.394,0,0,0-.666.927.191.191,0,0,1-.216.162L81.7,11.16q-.2-.036-.162-.144a2.321,2.321,0,0,1,1.08-1.638A4.1,4.1,0,0,1,84.96,8.748Zm-.5,8.3a3.165,3.165,0,0,0,1.836-.531,1.652,1.652,0,0,0,.774-1.431v-1.4a.064.064,0,0,0-.072-.072H85.1a3.356,3.356,0,0,0-1.908.486,1.541,1.541,0,0,0-.72,1.35,1.393,1.393,0,0,0,.549,1.2A2.351,2.351,0,0,0,84.456,17.046ZM94.68,8.8a2.124,2.124,0,0,1,1.026.234.19.19,0,0,1,.108.234l-.2.882a.153.153,0,0,1-.234.108,1.831,1.831,0,0,0-.7-.126l-.234.018a2.144,2.144,0,0,0-1.548.693,2.347,2.347,0,0,0-.612,1.665v5.31a.159.159,0,0,1-.18.18h-.918a.159.159,0,0,1-.18-.18V9.072a.159.159,0,0,1,.18-.18h.918a.159.159,0,0,1,.18.18v1.1q0,.054.027.063t.045-.027a2.866,2.866,0,0,1,.963-1.035A2.493,2.493,0,0,1,94.68,8.8Zm8.28.27a.159.159,0,0,1,.18-.18h.918a.159.159,0,0,1,.18.18v8.622a3.568,3.568,0,0,1-1.161,2.952,4.955,4.955,0,0,1-3.195.936q-.414,0-.63-.018a.178.178,0,0,1-.18-.2l.036-.828a.166.166,0,0,1,.054-.135.135.135,0,0,1,.126-.027l.486.018a3.666,3.666,0,0,0,2.43-.657,2.614,2.614,0,0,0,.756-2.079v-.666a.042.042,0,0,0-.027-.045q-.027-.009-.063.027a2.8,2.8,0,0,1-2.358,1.08,3.561,3.561,0,0,1-2.079-.63,3.034,3.034,0,0,1-1.215-1.782,8.354,8.354,0,0,1-.216-2.2q0-.792.045-1.332a4.169,4.169,0,0,1,.189-.972A3.36,3.36,0,0,1,98.406,9.4a3.217,3.217,0,0,1,2.034-.657,2.894,2.894,0,0,1,2.43,1.062q.036.036.063.018a.061.061,0,0,0,.027-.054Zm-.09,6.174a4.518,4.518,0,0,0,.072-.666q.018-.4.018-1.152,0-.918-.018-1.233a2.914,2.914,0,0,0-.09-.585,2.146,2.146,0,0,0-.711-1.251,2.1,2.1,0,0,0-1.431-.495,2.165,2.165,0,0,0-1.431.486,2.558,2.558,0,0,0-.819,1.26,6.548,6.548,0,0,0-.18,1.8,6.18,6.18,0,0,0,.18,1.818,2.248,2.248,0,0,0,2.25,1.746,2.148,2.148,0,0,0,1.449-.486A2.106,2.106,0,0,0,102.87,15.246Zm11.088-3.33a9.154,9.154,0,0,1,.072,1.26v.576a.159.159,0,0,1-.18.18h-5.814a.064.064,0,0,0-.072.072,8.035,8.035,0,0,0,.108,1.278,2.153,2.153,0,0,0,.846,1.278,2.759,2.759,0,0,0,1.656.468,2.559,2.559,0,0,0,1.332-.342,2.353,2.353,0,0,0,.9-.972q.108-.162.252-.072l.7.414a.179.179,0,0,1,.072.252,3.239,3.239,0,0,1-1.35,1.359,4.225,4.225,0,0,1-2.07.5,3.79,3.79,0,0,1-2.142-.612,3.282,3.282,0,0,1-1.242-1.656,7.392,7.392,0,0,1-.324-2.484q0-.756.027-1.233a3.927,3.927,0,0,1,.135-.855A3.334,3.334,0,0,1,108.1,9.45a3.6,3.6,0,0,1,2.241-.7,3.544,3.544,0,0,1,2.52.828A3.836,3.836,0,0,1,113.958,11.916ZM110.34,9.864a2.3,2.3,0,0,0-1.467.459,2.126,2.126,0,0,0-.765,1.233,5.829,5.829,0,0,0-.144,1.224.064.064,0,0,0,.072.072H112.7a.064.064,0,0,0,.072-.072,8.092,8.092,0,0,0-.108-1.152,2.274,2.274,0,0,0-.8-1.287A2.376,2.376,0,0,0,110.34,9.864ZM122.22,5.58a.159.159,0,0,1,.18-.18h.918a.159.159,0,0,1,.18.18V17.82a.159.159,0,0,1-.18.18H122.4a.159.159,0,0,1-.18-.18v-.756a.042.042,0,0,0-.027-.045q-.027-.009-.063.027a2.728,2.728,0,0,1-.981.81,2.914,2.914,0,0,1-1.305.288,3.4,3.4,0,0,1-2.115-.648,3.3,3.3,0,0,1-1.179-1.764,8.063,8.063,0,0,1-.252-2.286,8.541,8.541,0,0,1,.216-2.232A3.327,3.327,0,0,1,117.7,9.4a3.436,3.436,0,0,1,2.142-.657,3.01,3.01,0,0,1,1.3.279,2.626,2.626,0,0,1,.99.8q.036.036.063.027a.042.042,0,0,0,.027-.045ZM121.9,15.642a3.207,3.207,0,0,0,.234-.846,9.753,9.753,0,0,0,.072-1.35,9.96,9.96,0,0,0-.072-1.359,3.041,3.041,0,0,0-.252-.873,2.037,2.037,0,0,0-.711-.981,1.917,1.917,0,0,0-1.179-.369,2.133,2.133,0,0,0-1.242.36,2.043,2.043,0,0,0-.756.954,3.132,3.132,0,0,0-.315.891,7.408,7.408,0,0,0-.1,1.377,9.378,9.378,0,0,0,.072,1.323,3.032,3.032,0,0,0,.252.855,1.965,1.965,0,0,0,.765,1.026,2.244,2.244,0,0,0,1.305.378,1.9,1.9,0,0,0,1.206-.378A2.225,2.225,0,0,0,121.9,15.642Zm11.25-6.894a3.517,3.517,0,0,1,2.5.828,2.87,2.87,0,0,1,.882,2.2V17.82a.159.159,0,0,1-.18.18h-.918a.159.159,0,0,1-.18-.18v-.738a.061.061,0,0,0-.027-.054q-.027-.018-.063.018a2.811,2.811,0,0,1-1.17.819,4.4,4.4,0,0,1-1.6.279,3.469,3.469,0,0,1-2.142-.648,2.315,2.315,0,0,1-.864-1.98,2.583,2.583,0,0,1,.981-2.133,4.264,4.264,0,0,1,2.727-.783h2.088a.064.064,0,0,0,.072-.072v-.684a2,2,0,0,0-.513-1.449,2.126,2.126,0,0,0-1.593-.531,2.643,2.643,0,0,0-1.4.333,1.394,1.394,0,0,0-.666.927.191.191,0,0,1-.216.162l-.972-.126q-.2-.036-.162-.144a2.321,2.321,0,0,1,1.08-1.638A4.1,4.1,0,0,1,133.146,8.748Zm-.5,8.3a3.165,3.165,0,0,0,1.836-.531,1.652,1.652,0,0,0,.774-1.431v-1.4a.064.064,0,0,0-.072-.072h-1.89a3.356,3.356,0,0,0-1.908.486,1.541,1.541,0,0,0-.72,1.35,1.393,1.393,0,0,0,.549,1.2A2.351,2.351,0,0,0,132.642,17.046Zm10.332-8.28a3.12,3.12,0,0,1,2.295.846,3.047,3.047,0,0,1,.855,2.268v5.94a.159.159,0,0,1-.18.18h-.918a.159.159,0,0,1-.18-.18V12.132a2.247,2.247,0,0,0-.6-1.62,2.059,2.059,0,0,0-1.557-.63,2.1,2.1,0,0,0-2.214,2.214V17.82a.159.159,0,0,1-.18.18h-.918a.159.159,0,0,1-.18-.18V9.072a.159.159,0,0,1,.18-.18h.918a.159.159,0,0,1,.18.18v.774a.061.061,0,0,0,.027.054q.027.018.045-.018A2.778,2.778,0,0,1,142.974,8.766ZM154.422,5.58a.159.159,0,0,1,.18-.18h.918a.159.159,0,0,1,.18.18V17.82a.159.159,0,0,1-.18.18H154.6a.159.159,0,0,1-.18-.18v-.756a.042.042,0,0,0-.027-.045q-.027-.009-.063.027a2.728,2.728,0,0,1-.981.81,2.914,2.914,0,0,1-1.3.288,3.4,3.4,0,0,1-2.115-.648,3.3,3.3,0,0,1-1.179-1.764,8.063,8.063,0,0,1-.252-2.286,8.541,8.541,0,0,1,.216-2.232A3.327,3.327,0,0,1,149.9,9.4a3.436,3.436,0,0,1,2.142-.657,3.01,3.01,0,0,1,1.3.279,2.626,2.626,0,0,1,.99.8q.036.036.063.027a.042.042,0,0,0,.027-.045ZM154.1,15.642a3.207,3.207,0,0,0,.234-.846,9.751,9.751,0,0,0,.072-1.35,9.958,9.958,0,0,0-.072-1.359,3.042,3.042,0,0,0-.252-.873,2.037,2.037,0,0,0-.711-.981,1.917,1.917,0,0,0-1.179-.369,2.133,2.133,0,0,0-1.242.36,2.043,2.043,0,0,0-.756.954,3.131,3.131,0,0,0-.315.891,7.409,7.409,0,0,0-.1,1.377,9.377,9.377,0,0,0,.072,1.323,3.031,3.031,0,0,0,.252.855,1.965,1.965,0,0,0,.765,1.026,2.244,2.244,0,0,0,1.3.378,1.9,1.9,0,0,0,1.206-.378A2.225,2.225,0,0,0,154.1,15.642ZM162.378,18a.159.159,0,0,1-.18-.18V5.58a.159.159,0,0,1,.18-.18h.918a.159.159,0,0,1,.18.18V17.82a.159.159,0,0,1-.18.18ZM167.2,7.236a.984.984,0,0,1-1.008-1.008.969.969,0,0,1,.288-.729,1.069,1.069,0,0,1,1.44,0,.969.969,0,0,1,.288.729A.984.984,0,0,1,167.2,7.236Zm-.5,10.746a.159.159,0,0,1-.18-.18V9.054a.159.159,0,0,1,.18-.18h.918a.159.159,0,0,1,.18.18V17.8a.159.159,0,0,1-.18.18Zm8.01-9.216A3.12,3.12,0,0,1,177,9.612a3.047,3.047,0,0,1,.855,2.268v5.94a.159.159,0,0,1-.18.18h-.918a.159.159,0,0,1-.18-.18V12.132a2.247,2.247,0,0,0-.6-1.62,2.059,2.059,0,0,0-1.557-.63,2.1,2.1,0,0,0-2.214,2.214V17.82a.159.159,0,0,1-.18.18h-.918a.159.159,0,0,1-.18-.18V9.072a.159.159,0,0,1,.18-.18h.918a.159.159,0,0,1,.18.18v.774a.061.061,0,0,0,.027.054q.027.018.045-.018A2.778,2.778,0,0,1,174.708,8.766Zm12.78,3.15a9.154,9.154,0,0,1,.072,1.26v.576a.159.159,0,0,1-.18.18h-5.814a.064.064,0,0,0-.072.072,8.036,8.036,0,0,0,.108,1.278,2.153,2.153,0,0,0,.846,1.278,2.759,2.759,0,0,0,1.656.468,2.559,2.559,0,0,0,1.332-.342,2.353,2.353,0,0,0,.9-.972q.108-.162.252-.072l.7.414a.179.179,0,0,1,.072.252,3.239,3.239,0,0,1-1.35,1.359,4.225,4.225,0,0,1-2.07.5,3.79,3.79,0,0,1-2.142-.612,3.282,3.282,0,0,1-1.242-1.656,7.392,7.392,0,0,1-.324-2.484q0-.756.027-1.233a3.926,3.926,0,0,1,.135-.855,3.334,3.334,0,0,1,1.233-1.872,3.6,3.6,0,0,1,2.241-.7,3.544,3.544,0,0,1,2.52.828A3.836,3.836,0,0,1,187.488,11.916ZM183.87,9.864a2.3,2.3,0,0,0-1.467.459,2.126,2.126,0,0,0-.765,1.233,5.829,5.829,0,0,0-.144,1.224.064.064,0,0,0,.072.072h4.662a.064.064,0,0,0,.072-.072,8.094,8.094,0,0,0-.108-1.152,2.274,2.274,0,0,0-.8-1.287A2.376,2.376,0,0,0,183.87,9.864Zm9.054,8.226a4.651,4.651,0,0,1-1.791-.324,2.9,2.9,0,0,1-1.206-.864A1.907,1.907,0,0,1,189.5,15.7V15.48a.159.159,0,0,1,.18-.18h.864a.159.159,0,0,1,.18.18v.144a1.262,1.262,0,0,0,.621,1.035,2.623,2.623,0,0,0,1.557.441,2.494,2.494,0,0,0,1.512-.423,1.28,1.28,0,0,0,.576-1.071.983.983,0,0,0-.3-.738,2.135,2.135,0,0,0-.7-.45q-.405-.162-1.251-.414a12.89,12.89,0,0,1-1.656-.576,3.044,3.044,0,0,1-1.089-.8,1.931,1.931,0,0,1-.441-1.3,2.188,2.188,0,0,1,.9-1.836,3.826,3.826,0,0,1,2.376-.684,4.466,4.466,0,0,1,1.755.324,2.738,2.738,0,0,1,1.179.891,2.1,2.1,0,0,1,.414,1.269v.054a.159.159,0,0,1-.18.18h-.846a.159.159,0,0,1-.18-.18v-.054a1.224,1.224,0,0,0-.585-1.026,2.678,2.678,0,0,0-1.575-.414,2.637,2.637,0,0,0-1.476.369,1.157,1.157,0,0,0-.558,1.017,1.031,1.031,0,0,0,.54.936,7.363,7.363,0,0,0,1.674.648,16.888,16.888,0,0,1,1.692.576,3.112,3.112,0,0,1,1.116.783,1.912,1.912,0,0,1,.468,1.341,2.238,2.238,0,0,1-.918,1.872A3.9,3.9,0,0,1,192.924,18.09Zm12.744.054a3.749,3.749,0,0,1-2.232-.666,3.412,3.412,0,0,1-1.3-1.836,7.849,7.849,0,0,1-.252-2.214,7.654,7.654,0,0,1,.252-2.2,3.321,3.321,0,0,1,1.278-1.818,3.81,3.81,0,0,1,2.268-.666,3.679,3.679,0,0,1,2.2.666,3.336,3.336,0,0,1,1.269,1.8,7.511,7.511,0,0,1,.252,2.214,7.4,7.4,0,0,1-.252,2.214,3.339,3.339,0,0,1-1.269,1.836A3.708,3.708,0,0,1,205.668,18.144Zm0-1.116a2.289,2.289,0,0,0,2.3-1.764,7.893,7.893,0,0,0,.162-1.818,8.69,8.69,0,0,0-.144-1.818,2.326,2.326,0,0,0-.837-1.287,2.394,2.394,0,0,0-1.5-.477,2.29,2.29,0,0,0-2.322,1.764,8.69,8.69,0,0,0-.144,1.818,8.69,8.69,0,0,0,.144,1.818,2.239,2.239,0,0,0,.819,1.287A2.423,2.423,0,0,0,205.668,17.028ZM215.5,6.516a1.678,1.678,0,0,0-1.35.441,2.411,2.411,0,0,0-.36,1.5v.36a.064.064,0,0,0,.072.072h2.016a.159.159,0,0,1,.18.18v.81a.159.159,0,0,1-.18.18h-2.016a.064.064,0,0,0-.072.072V17.82a.159.159,0,0,1-.18.18h-.9a.159.159,0,0,1-.18-.18V10.134a.064.064,0,0,0-.072-.072h-1.206a.159.159,0,0,1-.18-.18v-.81a.159.159,0,0,1,.18-.18h1.206a.064.064,0,0,0,.072-.072V8.388a4.92,4.92,0,0,1,.252-1.755,1.691,1.691,0,0,1,.873-.936,4.112,4.112,0,0,1,1.737-.3h.522a.159.159,0,0,1,.18.18v.756a.159.159,0,0,1-.18.18ZM4.878,42.144a3.674,3.674,0,0,1-2.223-.675,3.381,3.381,0,0,1-1.269-1.827,8.265,8.265,0,0,1-.234-2.232,8.852,8.852,0,0,1,.234-2.2,3.273,3.273,0,0,1,1.26-1.791,3.714,3.714,0,0,1,2.232-.675,3.9,3.9,0,0,1,2.277.666,2.971,2.971,0,0,1,1.359,2.2v.036q0,.126-.162.162l-.9.126H7.416q-.126,0-.162-.162L7.2,35.5a2.023,2.023,0,0,0-.792-1.161,2.461,2.461,0,0,0-1.53-.477,2.347,2.347,0,0,0-1.5.477,2.181,2.181,0,0,0-.783,1.269,8.184,8.184,0,0,0-.162,1.818,8,8,0,0,0,.162,1.836,2.189,2.189,0,0,0,.783,1.287,2.347,2.347,0,0,0,1.5.477A2.538,2.538,0,0,0,6.4,40.569a1.944,1.944,0,0,0,.8-1.179v-.072l.018-.072q.018-.18.216-.144l.882.144q.18.036.162.2l-.072.36A2.851,2.851,0,0,1,7.164,41.5,4.024,4.024,0,0,1,4.878,42.144Zm9.342,0a3.749,3.749,0,0,1-2.232-.666,3.412,3.412,0,0,1-1.3-1.836,7.849,7.849,0,0,1-.252-2.214,7.654,7.654,0,0,1,.252-2.2,3.321,3.321,0,0,1,1.278-1.818,3.81,3.81,0,0,1,2.268-.666,3.679,3.679,0,0,1,2.205.666,3.336,3.336,0,0,1,1.269,1.8,7.511,7.511,0,0,1,.252,2.214,7.4,7.4,0,0,1-.252,2.214,3.339,3.339,0,0,1-1.269,1.836A3.708,3.708,0,0,1,14.22,42.144Zm0-1.116a2.289,2.289,0,0,0,2.3-1.764,7.893,7.893,0,0,0,.162-1.818,8.69,8.69,0,0,0-.144-1.818,2.326,2.326,0,0,0-.837-1.287,2.394,2.394,0,0,0-1.5-.477,2.29,2.29,0,0,0-2.322,1.764,8.69,8.69,0,0,0-.144,1.818,8.69,8.69,0,0,0,.144,1.818,2.239,2.239,0,0,0,.819,1.287A2.423,2.423,0,0,0,14.22,41.028Zm15.552-8.262a2.828,2.828,0,0,1,2.133.81,3.051,3.051,0,0,1,.783,2.214v6.03a.159.159,0,0,1-.18.18h-.9a.159.159,0,0,1-.18-.18V36.042a2.167,2.167,0,0,0-.567-1.575,1.975,1.975,0,0,0-1.485-.585,2.1,2.1,0,0,0-1.539.576,2.074,2.074,0,0,0-.585,1.548V41.82a.159.159,0,0,1-.18.18h-.918a.159.159,0,0,1-.18-.18V36.042a2.187,2.187,0,0,0-.558-1.575,1.968,1.968,0,0,0-1.494-.585,2.038,2.038,0,0,0-1.521.576,2.111,2.111,0,0,0-.567,1.548V41.82a.159.159,0,0,1-.18.18h-.918a.159.159,0,0,1-.18-.18V33.072a.159.159,0,0,1,.18-.18h.918a.159.159,0,0,1,.18.18v.72a.042.042,0,0,0,.027.045q.027.009.063-.027a2.437,2.437,0,0,1,1.017-.783,3.52,3.52,0,0,1,1.377-.261,3.2,3.2,0,0,1,1.6.378,2.422,2.422,0,0,1,1.008,1.1q.036.09.09,0a2.582,2.582,0,0,1,1.116-1.107A3.54,3.54,0,0,1,29.772,32.766Zm14.886,0a2.828,2.828,0,0,1,2.133.81,3.051,3.051,0,0,1,.783,2.214v6.03a.159.159,0,0,1-.18.18h-.9a.159.159,0,0,1-.18-.18V36.042a2.167,2.167,0,0,0-.567-1.575,1.975,1.975,0,0,0-1.485-.585,2.1,2.1,0,0,0-1.539.576,2.074,2.074,0,0,0-.585,1.548V41.82a.159.159,0,0,1-.18.18H41.04a.159.159,0,0,1-.18-.18V36.042a2.187,2.187,0,0,0-.558-1.575,1.968,1.968,0,0,0-1.494-.585,2.038,2.038,0,0,0-1.521.576,2.111,2.111,0,0,0-.567,1.548V41.82a.159.159,0,0,1-.18.18h-.918a.159.159,0,0,1-.18-.18V33.072a.159.159,0,0,1,.18-.18h.918a.159.159,0,0,1,.18.18v.72a.042.042,0,0,0,.027.045q.027.009.063-.027a2.437,2.437,0,0,1,1.017-.783,3.52,3.52,0,0,1,1.377-.261,3.2,3.2,0,0,1,1.6.378,2.422,2.422,0,0,1,1.008,1.1q.036.09.09,0a2.582,2.582,0,0,1,1.116-1.107A3.54,3.54,0,0,1,44.658,32.766Zm11.178.306a.159.159,0,0,1,.18-.18h.918a.159.159,0,0,1,.18.18V41.82a.159.159,0,0,1-.18.18h-.918a.159.159,0,0,1-.18-.18v-.774a.058.058,0,0,0-.036-.054.036.036,0,0,0-.054.018,2.685,2.685,0,0,1-2.394,1.116,3.624,3.624,0,0,1-1.593-.351,2.746,2.746,0,0,1-1.152-1.017,2.926,2.926,0,0,1-.423-1.6V33.072a.159.159,0,0,1,.18-.18h.918a.159.159,0,0,1,.18.18v5.706a2.26,2.26,0,0,0,.576,1.629,2.063,2.063,0,0,0,1.566.6,2.183,2.183,0,0,0,1.629-.612,2.208,2.208,0,0,0,.6-1.62Zm7.92-.306a3.12,3.12,0,0,1,2.3.846,3.047,3.047,0,0,1,.855,2.268v5.94a.159.159,0,0,1-.18.18h-.918a.159.159,0,0,1-.18-.18V36.132a2.247,2.247,0,0,0-.6-1.62,2.059,2.059,0,0,0-1.557-.63A2.1,2.1,0,0,0,61.254,36.1V41.82a.159.159,0,0,1-.18.18h-.918a.159.159,0,0,1-.18-.18V33.072a.159.159,0,0,1,.18-.18h.918a.159.159,0,0,1,.18.18v.774a.061.061,0,0,0,.027.054q.027.018.045-.018A2.778,2.778,0,0,1,63.756,32.766Zm6.786-1.53a1.025,1.025,0,0,1-.72-1.737,1.069,1.069,0,0,1,1.44,0,1.013,1.013,0,0,1-.72,1.737Zm-.5,10.746a.159.159,0,0,1-.18-.18V33.054a.159.159,0,0,1,.18-.18h.918a.159.159,0,0,1,.18.18V41.8a.159.159,0,0,1-.18.18Zm7.668.162a3.674,3.674,0,0,1-2.223-.675,3.381,3.381,0,0,1-1.269-1.827,8.265,8.265,0,0,1-.234-2.232,8.852,8.852,0,0,1,.234-2.2,3.273,3.273,0,0,1,1.26-1.791,3.714,3.714,0,0,1,2.232-.675,3.9,3.9,0,0,1,2.277.666,2.971,2.971,0,0,1,1.359,2.2v.036q0,.126-.162.162l-.9.126h-.036q-.126,0-.162-.162l-.054-.27a2.023,2.023,0,0,0-.792-1.161,2.461,2.461,0,0,0-1.53-.477,2.347,2.347,0,0,0-1.5.477,2.181,2.181,0,0,0-.783,1.269,8.183,8.183,0,0,0-.162,1.818,8,8,0,0,0,.162,1.836,2.189,2.189,0,0,0,.783,1.287,2.347,2.347,0,0,0,1.5.477,2.538,2.538,0,0,0,1.521-.459,1.944,1.944,0,0,0,.8-1.179v-.072l.018-.072q.018-.18.216-.144l.882.144q.18.036.162.2l-.072.36A2.851,2.851,0,0,1,79.992,41.5,4.024,4.024,0,0,1,77.706,42.144Zm9.072-9.4a3.517,3.517,0,0,1,2.5.828,2.87,2.87,0,0,1,.882,2.2V41.82a.159.159,0,0,1-.18.18h-.918a.159.159,0,0,1-.18-.18v-.738a.061.061,0,0,0-.027-.054q-.027-.018-.063.018a2.811,2.811,0,0,1-1.17.819,4.4,4.4,0,0,1-1.6.279A3.469,3.469,0,0,1,83.88,41.5a2.315,2.315,0,0,1-.864-1.98A2.583,2.583,0,0,1,84,37.383a4.264,4.264,0,0,1,2.727-.783h2.088a.064.064,0,0,0,.072-.072v-.684a2,2,0,0,0-.513-1.449,2.126,2.126,0,0,0-1.593-.531,2.643,2.643,0,0,0-1.4.333,1.394,1.394,0,0,0-.666.927.191.191,0,0,1-.216.162l-.972-.126q-.2-.036-.162-.144a2.321,2.321,0,0,1,1.08-1.638A4.1,4.1,0,0,1,86.778,32.748Zm-.5,8.3a3.165,3.165,0,0,0,1.836-.531,1.652,1.652,0,0,0,.774-1.431v-1.4a.064.064,0,0,0-.072-.072h-1.89a3.356,3.356,0,0,0-1.908.486,1.541,1.541,0,0,0-.72,1.35,1.393,1.393,0,0,0,.549,1.2A2.351,2.351,0,0,0,86.274,41.046ZM96.84,33.774a.159.159,0,0,1-.18.18H94.626a.064.064,0,0,0-.072.072v5.31a1.586,1.586,0,0,0,.387,1.215,1.77,1.77,0,0,0,1.215.351h.45a.159.159,0,0,1,.18.18v.738a.159.159,0,0,1-.18.18q-.216.018-.666.018a3.309,3.309,0,0,1-1.962-.486,2.1,2.1,0,0,1-.666-1.8V34.026a.064.064,0,0,0-.072-.072h-1.1a.159.159,0,0,1-.18-.18v-.7a.159.159,0,0,1,.18-.18h1.1a.064.064,0,0,0,.072-.072V30.732a.159.159,0,0,1,.18-.18h.882a.159.159,0,0,1,.18.18V32.82a.064.064,0,0,0,.072.072H96.66a.159.159,0,0,1,.18.18Zm3.33-2.538a1.025,1.025,0,0,1-.72-1.737,1.069,1.069,0,0,1,1.44,0,1.013,1.013,0,0,1-.72,1.737Zm-.5,10.746a.159.159,0,0,1-.18-.18V33.054a.159.159,0,0,1,.18-.18h.918a.159.159,0,0,1,.18.18V41.8a.159.159,0,0,1-.18.18Zm7.7.162a3.749,3.749,0,0,1-2.232-.666,3.412,3.412,0,0,1-1.3-1.836,7.849,7.849,0,0,1-.252-2.214,7.654,7.654,0,0,1,.252-2.2,3.321,3.321,0,0,1,1.278-1.818,3.81,3.81,0,0,1,2.268-.666,3.679,3.679,0,0,1,2.205.666,3.336,3.336,0,0,1,1.269,1.8,7.511,7.511,0,0,1,.252,2.214,7.4,7.4,0,0,1-.252,2.214,3.339,3.339,0,0,1-1.269,1.836A3.708,3.708,0,0,1,107.37,42.144Zm0-1.116a2.289,2.289,0,0,0,2.3-1.764,7.893,7.893,0,0,0,.162-1.818,8.69,8.69,0,0,0-.144-1.818,2.326,2.326,0,0,0-.837-1.287,2.394,2.394,0,0,0-1.5-.477,2.29,2.29,0,0,0-2.322,1.764,8.69,8.69,0,0,0-.144,1.818,8.69,8.69,0,0,0,.144,1.818,2.239,2.239,0,0,0,.819,1.287A2.423,2.423,0,0,0,107.37,41.028Zm10.116-8.262a3.12,3.12,0,0,1,2.295.846,3.047,3.047,0,0,1,.855,2.268v5.94a.159.159,0,0,1-.18.18h-.918a.159.159,0,0,1-.18-.18V36.132a2.247,2.247,0,0,0-.6-1.62,2.059,2.059,0,0,0-1.557-.63,2.1,2.1,0,0,0-2.214,2.214V41.82a.159.159,0,0,1-.18.18h-.918a.159.159,0,0,1-.18-.18V33.072a.159.159,0,0,1,.18-.18h.918a.159.159,0,0,1,.18.18v.774a.061.061,0,0,0,.027.054q.027.018.045-.018A2.778,2.778,0,0,1,117.486,32.766Zm13,9.378a3.749,3.749,0,0,1-2.232-.666,3.412,3.412,0,0,1-1.3-1.836,7.849,7.849,0,0,1-.252-2.214,7.654,7.654,0,0,1,.252-2.2,3.321,3.321,0,0,1,1.278-1.818,3.81,3.81,0,0,1,2.268-.666,3.679,3.679,0,0,1,2.205.666,3.336,3.336,0,0,1,1.269,1.8,7.511,7.511,0,0,1,.252,2.214,7.4,7.4,0,0,1-.252,2.214,3.339,3.339,0,0,1-1.269,1.836A3.709,3.709,0,0,1,130.482,42.144Zm0-1.116a2.289,2.289,0,0,0,2.3-1.764,7.893,7.893,0,0,0,.162-1.818,8.691,8.691,0,0,0-.144-1.818,2.326,2.326,0,0,0-.837-1.287,2.394,2.394,0,0,0-1.5-.477,2.29,2.29,0,0,0-2.322,1.764A8.691,8.691,0,0,0,128,37.446a8.691,8.691,0,0,0,.144,1.818,2.239,2.239,0,0,0,.819,1.287A2.423,2.423,0,0,0,130.482,41.028Zm13.41-5.868a7.882,7.882,0,0,1,.27,2.286,8.266,8.266,0,0,1-.234,2.232,3.347,3.347,0,0,1-1.179,1.809,3.427,3.427,0,0,1-2.151.657,3.01,3.01,0,0,1-1.3-.279,2.626,2.626,0,0,1-.99-.8q-.036-.036-.063-.027a.042.042,0,0,0-.027.045v4.23a.159.159,0,0,1-.18.18h-.918a.159.159,0,0,1-.18-.18V33.072a.159.159,0,0,1,.18-.18h.918a.159.159,0,0,1,.18.18v.756a.042.042,0,0,0,.027.045q.027.009.063-.027a2.728,2.728,0,0,1,.981-.81,2.915,2.915,0,0,1,1.305-.288,3.4,3.4,0,0,1,2.115.648A3.3,3.3,0,0,1,143.892,35.16Zm-1.422,4.554a3.533,3.533,0,0,0,.3-.891,7.407,7.407,0,0,0,.1-1.377,9.377,9.377,0,0,0-.072-1.323,3.032,3.032,0,0,0-.252-.855,1.965,1.965,0,0,0-.765-1.026,2.244,2.244,0,0,0-1.305-.378,1.9,1.9,0,0,0-1.206.378,2.225,2.225,0,0,0-.72,1.008,3.206,3.206,0,0,0-.234.846,9.751,9.751,0,0,0-.072,1.35,9.958,9.958,0,0,0,.072,1.359,3.041,3.041,0,0,0,.252.873,2.037,2.037,0,0,0,.711.981,1.917,1.917,0,0,0,1.179.369,2.175,2.175,0,0,0,1.251-.36A2.025,2.025,0,0,0,142.47,39.714Zm11.142-3.8a9.154,9.154,0,0,1,.072,1.26v.576a.159.159,0,0,1-.18.18H147.69a.064.064,0,0,0-.072.072,8.036,8.036,0,0,0,.108,1.278,2.153,2.153,0,0,0,.846,1.278,2.759,2.759,0,0,0,1.656.468,2.559,2.559,0,0,0,1.332-.342,2.353,2.353,0,0,0,.9-.972q.108-.162.252-.072l.7.414a.179.179,0,0,1,.072.252,3.239,3.239,0,0,1-1.35,1.359,4.225,4.225,0,0,1-2.07.495,3.79,3.79,0,0,1-2.142-.612,3.282,3.282,0,0,1-1.242-1.656,7.392,7.392,0,0,1-.324-2.484q0-.756.027-1.233a3.926,3.926,0,0,1,.135-.855,3.334,3.334,0,0,1,1.233-1.872,3.6,3.6,0,0,1,2.241-.7,3.544,3.544,0,0,1,2.52.828A3.836,3.836,0,0,1,153.612,35.916Zm-3.618-2.052a2.3,2.3,0,0,0-1.467.459,2.126,2.126,0,0,0-.765,1.233,5.828,5.828,0,0,0-.144,1.224.064.064,0,0,0,.072.072h4.662a.064.064,0,0,0,.072-.072,8.094,8.094,0,0,0-.108-1.152,2.274,2.274,0,0,0-.8-1.287A2.376,2.376,0,0,0,149.994,33.864ZM160,32.766a3.12,3.12,0,0,1,2.295.846,3.047,3.047,0,0,1,.855,2.268v5.94a.159.159,0,0,1-.18.18h-.918a.159.159,0,0,1-.18-.18V36.132a2.247,2.247,0,0,0-.6-1.62,2.059,2.059,0,0,0-1.557-.63A2.1,2.1,0,0,0,157.5,36.1V41.82a.159.159,0,0,1-.18.18H156.4a.159.159,0,0,1-.18-.18V33.072a.159.159,0,0,1,.18-.18h.918a.159.159,0,0,1,.18.18v.774a.061.061,0,0,0,.027.054q.027.018.045-.018A2.778,2.778,0,0,1,160,32.766Z" transform="translate(111 5287.597)"/>
    </g>
    <g id="Group_5845" data-name="Group 5845" transform="translate(0 -0.944)">
      <g id="Group_5827" data-name="Group 5827" transform="translate(42.109 5363)">
        <rect id="Rectangle_1553" data-name="Rectangle 1553" width="31.934" height="28.177" transform="translate(11.098 17.846)" fill="#efb82a"/>
        <path id="Icon_awesome-briefcase-medical" data-name="Icon awesome-briefcase-medical" d="M49.1,12.408H40.632V7.329A5.08,5.08,0,0,0,35.553,2.25H18.623a5.08,5.08,0,0,0-5.079,5.079v5.079H5.079A5.08,5.08,0,0,0,0,17.487V47.961a5.08,5.08,0,0,0,5.079,5.079H49.1a5.08,5.08,0,0,0,5.079-5.079V17.487A5.08,5.08,0,0,0,49.1,12.408ZM20.316,9.022H33.86v3.386H20.316Zm16.93,26.242a.849.849,0,0,1-.847.847H30.474v5.926a.849.849,0,0,1-.847.847H24.549a.849.849,0,0,1-.847-.847V36.11H17.777a.849.849,0,0,1-.847-.847V30.185a.849.849,0,0,1,.847-.847H23.7V23.413a.849.849,0,0,1,.847-.847h5.079a.849.849,0,0,1,.847.847v5.926H36.4a.849.849,0,0,1,.847.847Z" transform="translate(0 -2.25)" fill="#0c4e97"/>
      </g>
      <path id="Path_9147" data-name="Path 9147" d="M9.2,5.58a.159.159,0,0,1,.18-.18H10.3a.159.159,0,0,1,.18.18V17.82a.159.159,0,0,1-.18.18H9.4a.261.261,0,0,1-.216-.126L3.042,7.884q-.018-.054-.054-.045T2.952,7.9L2.97,17.82a.159.159,0,0,1-.18.18H1.872a.159.159,0,0,1-.18-.18V5.58a.159.159,0,0,1,.18-.18h.9a.261.261,0,0,1,.216.126l6.138,9.99q.018.054.054.045t.036-.063Zm11.394,6.336a9.154,9.154,0,0,1,.072,1.26v.576a.159.159,0,0,1-.18.18H14.67A.064.064,0,0,0,14.6,14a8.034,8.034,0,0,0,.108,1.278,2.153,2.153,0,0,0,.846,1.278,2.759,2.759,0,0,0,1.656.468,2.559,2.559,0,0,0,1.332-.342,2.352,2.352,0,0,0,.9-.972q.108-.162.252-.072l.7.414a.179.179,0,0,1,.072.252,3.239,3.239,0,0,1-1.35,1.359,4.225,4.225,0,0,1-2.07.5A3.79,3.79,0,0,1,14.9,17.55a3.282,3.282,0,0,1-1.242-1.656,7.392,7.392,0,0,1-.324-2.484q0-.756.027-1.233a3.927,3.927,0,0,1,.135-.855A3.334,3.334,0,0,1,14.733,9.45a3.6,3.6,0,0,1,2.241-.7,3.544,3.544,0,0,1,2.52.828A3.836,3.836,0,0,1,20.592,11.916ZM16.974,9.864a2.3,2.3,0,0,0-1.467.459,2.126,2.126,0,0,0-.765,1.233A5.829,5.829,0,0,0,14.6,12.78a.064.064,0,0,0,.072.072h4.662a.064.064,0,0,0,.072-.072,8.092,8.092,0,0,0-.108-1.152,2.274,2.274,0,0,0-.8-1.287A2.376,2.376,0,0,0,16.974,9.864Zm9.666,8.28a3.674,3.674,0,0,1-2.223-.675,3.381,3.381,0,0,1-1.269-1.827,8.265,8.265,0,0,1-.234-2.232,8.852,8.852,0,0,1,.234-2.2,3.273,3.273,0,0,1,1.26-1.791,3.714,3.714,0,0,1,2.232-.675,3.9,3.9,0,0,1,2.277.666,2.971,2.971,0,0,1,1.359,2.2v.036q0,.126-.162.162l-.9.126h-.036q-.126,0-.162-.162l-.054-.27a2.023,2.023,0,0,0-.792-1.161,2.461,2.461,0,0,0-1.53-.477,2.347,2.347,0,0,0-1.5.477,2.181,2.181,0,0,0-.783,1.269,8.184,8.184,0,0,0-.162,1.818,8,8,0,0,0,.162,1.836,2.189,2.189,0,0,0,.783,1.287,2.347,2.347,0,0,0,1.5.477,2.538,2.538,0,0,0,1.521-.459,1.944,1.944,0,0,0,.8-1.179v-.072l.018-.072q.018-.18.216-.144l.882.144q.18.036.162.2l-.072.36A2.851,2.851,0,0,1,28.926,17.5,4.024,4.024,0,0,1,26.64,18.144Zm12.852-6.228a9.155,9.155,0,0,1,.072,1.26v.576a.159.159,0,0,1-.18.18H33.57A.064.064,0,0,0,33.5,14a8.034,8.034,0,0,0,.108,1.278,2.153,2.153,0,0,0,.846,1.278,2.759,2.759,0,0,0,1.656.468,2.559,2.559,0,0,0,1.332-.342,2.353,2.353,0,0,0,.9-.972q.108-.162.252-.072l.7.414a.179.179,0,0,1,.072.252,3.239,3.239,0,0,1-1.35,1.359,4.225,4.225,0,0,1-2.07.5A3.79,3.79,0,0,1,33.8,17.55a3.282,3.282,0,0,1-1.242-1.656,7.392,7.392,0,0,1-.324-2.484q0-.756.027-1.233a3.927,3.927,0,0,1,.135-.855A3.334,3.334,0,0,1,33.633,9.45a3.6,3.6,0,0,1,2.241-.7,3.544,3.544,0,0,1,2.52.828A3.836,3.836,0,0,1,39.492,11.916ZM35.874,9.864a2.3,2.3,0,0,0-1.467.459,2.126,2.126,0,0,0-.765,1.233A5.829,5.829,0,0,0,33.5,12.78a.064.064,0,0,0,.072.072h4.662a.064.064,0,0,0,.072-.072,8.091,8.091,0,0,0-.108-1.152,2.274,2.274,0,0,0-.8-1.287A2.376,2.376,0,0,0,35.874,9.864Zm9.054,8.226a4.651,4.651,0,0,1-1.791-.324,2.9,2.9,0,0,1-1.206-.864,1.907,1.907,0,0,1-.423-1.206V15.48a.159.159,0,0,1,.18-.18h.864a.159.159,0,0,1,.18.18v.144a1.262,1.262,0,0,0,.621,1.035,2.623,2.623,0,0,0,1.557.441,2.494,2.494,0,0,0,1.512-.423A1.28,1.28,0,0,0,47,15.606a.983.983,0,0,0-.3-.738,2.135,2.135,0,0,0-.7-.45q-.405-.162-1.251-.414a12.889,12.889,0,0,1-1.656-.576,3.044,3.044,0,0,1-1.089-.8,1.931,1.931,0,0,1-.441-1.3,2.188,2.188,0,0,1,.9-1.836A3.826,3.826,0,0,1,44.838,8.8a4.466,4.466,0,0,1,1.755.324,2.738,2.738,0,0,1,1.179.891,2.1,2.1,0,0,1,.414,1.269v.054a.159.159,0,0,1-.18.18H47.16a.159.159,0,0,1-.18-.18v-.054A1.224,1.224,0,0,0,46.4,10.26a2.678,2.678,0,0,0-1.575-.414,2.637,2.637,0,0,0-1.476.369,1.157,1.157,0,0,0-.558,1.017,1.031,1.031,0,0,0,.54.936A7.363,7.363,0,0,0,45,12.816a16.889,16.889,0,0,1,1.692.576,3.112,3.112,0,0,1,1.116.783,1.912,1.912,0,0,1,.468,1.341,2.238,2.238,0,0,1-.918,1.872A3.9,3.9,0,0,1,44.928,18.09Zm8.388,0a4.651,4.651,0,0,1-1.791-.324,2.9,2.9,0,0,1-1.206-.864A1.907,1.907,0,0,1,49.9,15.7V15.48a.159.159,0,0,1,.18-.18h.864a.159.159,0,0,1,.18.18v.144a1.262,1.262,0,0,0,.621,1.035A2.623,2.623,0,0,0,53.3,17.1a2.494,2.494,0,0,0,1.512-.423,1.28,1.28,0,0,0,.576-1.071.983.983,0,0,0-.3-.738,2.135,2.135,0,0,0-.7-.45q-.405-.162-1.251-.414a12.889,12.889,0,0,1-1.656-.576,3.044,3.044,0,0,1-1.089-.8,1.931,1.931,0,0,1-.441-1.3,2.188,2.188,0,0,1,.9-1.836A3.826,3.826,0,0,1,53.226,8.8a4.466,4.466,0,0,1,1.755.324,2.738,2.738,0,0,1,1.179.891,2.1,2.1,0,0,1,.414,1.269v.054a.159.159,0,0,1-.18.18h-.846a.159.159,0,0,1-.18-.18v-.054a1.224,1.224,0,0,0-.585-1.026,2.678,2.678,0,0,0-1.575-.414,2.637,2.637,0,0,0-1.476.369,1.157,1.157,0,0,0-.558,1.017,1.031,1.031,0,0,0,.54.936,7.363,7.363,0,0,0,1.674.648,16.889,16.889,0,0,1,1.692.576,3.112,3.112,0,0,1,1.116.783,1.912,1.912,0,0,1,.468,1.341,2.238,2.238,0,0,1-.918,1.872A3.9,3.9,0,0,1,53.316,18.09Zm8.82-9.342a3.517,3.517,0,0,1,2.5.828,2.87,2.87,0,0,1,.882,2.2V17.82a.159.159,0,0,1-.18.18h-.918a.159.159,0,0,1-.18-.18v-.738a.061.061,0,0,0-.027-.054q-.027-.018-.063.018a2.811,2.811,0,0,1-1.17.819,4.4,4.4,0,0,1-1.6.279,3.469,3.469,0,0,1-2.142-.648,2.315,2.315,0,0,1-.864-1.98,2.583,2.583,0,0,1,.981-2.133,4.264,4.264,0,0,1,2.727-.783H64.17a.064.064,0,0,0,.072-.072v-.684a2,2,0,0,0-.513-1.449,2.126,2.126,0,0,0-1.593-.531,2.643,2.643,0,0,0-1.4.333,1.394,1.394,0,0,0-.666.927.191.191,0,0,1-.216.162l-.972-.126q-.2-.036-.162-.144A2.321,2.321,0,0,1,59.8,9.378,4.1,4.1,0,0,1,62.136,8.748Zm-.5,8.3a3.165,3.165,0,0,0,1.836-.531,1.652,1.652,0,0,0,.774-1.431v-1.4a.064.064,0,0,0-.072-.072H62.28a3.356,3.356,0,0,0-1.908.486,1.541,1.541,0,0,0-.72,1.35,1.393,1.393,0,0,0,.549,1.2A2.351,2.351,0,0,0,61.632,17.046ZM71.856,8.8a2.124,2.124,0,0,1,1.026.234.19.19,0,0,1,.108.234l-.2.882a.153.153,0,0,1-.234.108,1.831,1.831,0,0,0-.7-.126l-.234.018a2.144,2.144,0,0,0-1.548.693,2.347,2.347,0,0,0-.612,1.665v5.31a.159.159,0,0,1-.18.18h-.918a.159.159,0,0,1-.18-.18V9.072a.159.159,0,0,1,.18-.18h.918a.159.159,0,0,1,.18.18v1.1q0,.054.027.063t.045-.027A2.866,2.866,0,0,1,70.5,9.171,2.493,2.493,0,0,1,71.856,8.8Zm2.97,12.8q-.126,0-.126-.18V20.7a.159.159,0,0,1,.18-.18h.072a2.7,2.7,0,0,0,1.089-.207,1.581,1.581,0,0,0,.666-.7,9.107,9.107,0,0,0,.6-1.557q.036-.072,0-.108L74.268,9.09l-.018-.072q0-.126.162-.126h.954a.21.21,0,0,1,.216.144l2.34,7.272a.059.059,0,0,0,.108,0l2.3-7.272a.21.21,0,0,1,.216-.144h.936q.2,0,.144.2l-3.33,9.7a8.875,8.875,0,0,1-.81,1.782,2.014,2.014,0,0,1-.945.8,4.469,4.469,0,0,1-1.593.225ZM96.354,8.766a2.828,2.828,0,0,1,2.133.81,3.051,3.051,0,0,1,.783,2.214v6.03a.159.159,0,0,1-.18.18h-.9a.159.159,0,0,1-.18-.18V12.042a2.167,2.167,0,0,0-.567-1.575,1.975,1.975,0,0,0-1.485-.585,2.1,2.1,0,0,0-1.539.576,2.074,2.074,0,0,0-.585,1.548V17.82a.159.159,0,0,1-.18.18h-.918a.159.159,0,0,1-.18-.18V12.042A2.187,2.187,0,0,0,92,10.467,1.968,1.968,0,0,0,90.5,9.882a2.038,2.038,0,0,0-1.521.576,2.111,2.111,0,0,0-.567,1.548V17.82a.159.159,0,0,1-.18.18h-.918a.159.159,0,0,1-.18-.18V9.072a.159.159,0,0,1,.18-.18h.918a.159.159,0,0,1,.18.18v.72a.042.042,0,0,0,.027.045q.027.009.063-.027a2.437,2.437,0,0,1,1.017-.783A3.52,3.52,0,0,1,90.9,8.766a3.2,3.2,0,0,1,1.6.378,2.422,2.422,0,0,1,1.008,1.1q.036.09.09,0a2.582,2.582,0,0,1,1.116-1.107A3.54,3.54,0,0,1,96.354,8.766Zm12.528,3.15a9.155,9.155,0,0,1,.072,1.26v.576a.159.159,0,0,1-.18.18H102.96a.064.064,0,0,0-.072.072A8.035,8.035,0,0,0,103,15.282a2.153,2.153,0,0,0,.846,1.278,2.759,2.759,0,0,0,1.656.468,2.559,2.559,0,0,0,1.332-.342,2.353,2.353,0,0,0,.9-.972q.108-.162.252-.072l.7.414a.179.179,0,0,1,.072.252,3.239,3.239,0,0,1-1.35,1.359,4.225,4.225,0,0,1-2.07.5,3.79,3.79,0,0,1-2.142-.612,3.282,3.282,0,0,1-1.242-1.656,7.392,7.392,0,0,1-.324-2.484q0-.756.027-1.233a3.927,3.927,0,0,1,.135-.855,3.334,3.334,0,0,1,1.233-1.872,3.6,3.6,0,0,1,2.241-.7,3.544,3.544,0,0,1,2.52.828A3.836,3.836,0,0,1,108.882,11.916Zm-3.618-2.052a2.3,2.3,0,0,0-1.467.459,2.126,2.126,0,0,0-.765,1.233,5.829,5.829,0,0,0-.144,1.224.064.064,0,0,0,.072.072h4.662a.064.064,0,0,0,.072-.072,8.092,8.092,0,0,0-.108-1.152,2.274,2.274,0,0,0-.8-1.287A2.376,2.376,0,0,0,105.264,9.864Zm11.88-4.284a.159.159,0,0,1,.18-.18h.918a.159.159,0,0,1,.18.18V17.82a.159.159,0,0,1-.18.18h-.918a.159.159,0,0,1-.18-.18v-.756a.042.042,0,0,0-.027-.045q-.027-.009-.063.027a2.728,2.728,0,0,1-.981.81,2.914,2.914,0,0,1-1.305.288,3.4,3.4,0,0,1-2.115-.648,3.3,3.3,0,0,1-1.179-1.764,8.063,8.063,0,0,1-.252-2.286,8.541,8.541,0,0,1,.216-2.232A3.327,3.327,0,0,1,112.626,9.4a3.436,3.436,0,0,1,2.142-.657,3.01,3.01,0,0,1,1.3.279,2.626,2.626,0,0,1,.99.8q.036.036.063.027a.042.042,0,0,0,.027-.045Zm-.324,10.062a3.207,3.207,0,0,0,.234-.846,9.753,9.753,0,0,0,.072-1.35,9.96,9.96,0,0,0-.072-1.359,3.041,3.041,0,0,0-.252-.873,2.037,2.037,0,0,0-.711-.981,1.917,1.917,0,0,0-1.179-.369,2.133,2.133,0,0,0-1.242.36,2.043,2.043,0,0,0-.756.954,3.131,3.131,0,0,0-.315.891,7.408,7.408,0,0,0-.1,1.377,9.378,9.378,0,0,0,.072,1.323,3.032,3.032,0,0,0,.252.855,1.965,1.965,0,0,0,.765,1.026,2.244,2.244,0,0,0,1.305.378,1.9,1.9,0,0,0,1.206-.378A2.225,2.225,0,0,0,116.82,15.642Zm5.364-8.406a.984.984,0,0,1-1.008-1.008.969.969,0,0,1,.288-.729,1.069,1.069,0,0,1,1.44,0,.969.969,0,0,1,.288.729.984.984,0,0,1-1.008,1.008Zm-.5,10.746a.159.159,0,0,1-.18-.18V9.054a.159.159,0,0,1,.18-.18h.918a.159.159,0,0,1,.18.18V17.8a.159.159,0,0,1-.18.18Zm7.668.162a3.674,3.674,0,0,1-2.223-.675,3.381,3.381,0,0,1-1.269-1.827,8.265,8.265,0,0,1-.234-2.232,8.852,8.852,0,0,1,.234-2.2,3.273,3.273,0,0,1,1.26-1.791,3.714,3.714,0,0,1,2.232-.675,3.9,3.9,0,0,1,2.277.666,2.971,2.971,0,0,1,1.359,2.2v.036q0,.126-.162.162l-.9.126h-.036q-.126,0-.162-.162l-.054-.27a2.023,2.023,0,0,0-.792-1.161,2.461,2.461,0,0,0-1.53-.477,2.347,2.347,0,0,0-1.5.477,2.181,2.181,0,0,0-.783,1.269,8.183,8.183,0,0,0-.162,1.818,8,8,0,0,0,.162,1.836,2.189,2.189,0,0,0,.783,1.287,2.347,2.347,0,0,0,1.5.477,2.538,2.538,0,0,0,1.521-.459,1.944,1.944,0,0,0,.8-1.179v-.072l.018-.072q.018-.18.216-.144l.882.144q.18.036.162.2l-.072.36a2.851,2.851,0,0,1-1.242,1.692A4.024,4.024,0,0,1,129.348,18.144Zm9.072-9.4a3.517,3.517,0,0,1,2.5.828,2.87,2.87,0,0,1,.882,2.2V17.82a.159.159,0,0,1-.18.18h-.918a.159.159,0,0,1-.18-.18v-.738a.061.061,0,0,0-.027-.054q-.027-.018-.063.018a2.811,2.811,0,0,1-1.17.819,4.4,4.4,0,0,1-1.6.279,3.469,3.469,0,0,1-2.142-.648,2.315,2.315,0,0,1-.864-1.98,2.583,2.583,0,0,1,.981-2.133,4.264,4.264,0,0,1,2.727-.783h2.088a.064.064,0,0,0,.072-.072v-.684a2,2,0,0,0-.513-1.449,2.126,2.126,0,0,0-1.593-.531,2.643,2.643,0,0,0-1.4.333,1.394,1.394,0,0,0-.666.927.191.191,0,0,1-.216.162l-.972-.126q-.2-.036-.162-.144a2.321,2.321,0,0,1,1.08-1.638A4.1,4.1,0,0,1,138.42,8.748Zm-.5,8.3a3.165,3.165,0,0,0,1.836-.531,1.652,1.652,0,0,0,.774-1.431v-1.4a.064.064,0,0,0-.072-.072h-1.89a3.356,3.356,0,0,0-1.908.486,1.541,1.541,0,0,0-.72,1.35,1.393,1.393,0,0,0,.549,1.2A2.351,2.351,0,0,0,137.916,17.046Zm6.732.954a.159.159,0,0,1-.18-.18V5.58a.159.159,0,0,1,.18-.18h.918a.159.159,0,0,1,.18.18V17.82a.159.159,0,0,1-.18.18ZM8.424,35.916a9.155,9.155,0,0,1,.072,1.26v.576a.159.159,0,0,1-.18.18H2.5A.064.064,0,0,0,2.43,38a8.034,8.034,0,0,0,.108,1.278,2.153,2.153,0,0,0,.846,1.278,2.759,2.759,0,0,0,1.656.468,2.559,2.559,0,0,0,1.332-.342,2.352,2.352,0,0,0,.9-.972q.108-.162.252-.072l.7.414a.179.179,0,0,1,.072.252,3.239,3.239,0,0,1-1.35,1.359,4.225,4.225,0,0,1-2.07.495,3.79,3.79,0,0,1-2.142-.612,3.282,3.282,0,0,1-1.242-1.656A7.392,7.392,0,0,1,1.17,37.41q0-.756.027-1.233a3.927,3.927,0,0,1,.135-.855A3.334,3.334,0,0,1,2.565,33.45a3.6,3.6,0,0,1,2.241-.7,3.544,3.544,0,0,1,2.52.828A3.836,3.836,0,0,1,8.424,35.916ZM4.806,33.864a2.3,2.3,0,0,0-1.467.459,2.126,2.126,0,0,0-.765,1.233A5.829,5.829,0,0,0,2.43,36.78a.064.064,0,0,0,.072.072H7.164a.064.064,0,0,0,.072-.072,8.092,8.092,0,0,0-.108-1.152,2.274,2.274,0,0,0-.8-1.287A2.376,2.376,0,0,0,4.806,33.864Zm11.88-.792a.159.159,0,0,1,.18-.18h.918a.159.159,0,0,1,.18.18v12.24a.159.159,0,0,1-.18.18h-.918a.159.159,0,0,1-.18-.18v-4.23a.042.042,0,0,0-.027-.045q-.027-.009-.063.027a2.626,2.626,0,0,1-.99.8,3.01,3.01,0,0,1-1.3.279,3.436,3.436,0,0,1-2.142-.657,3.327,3.327,0,0,1-1.188-1.809,8.541,8.541,0,0,1-.216-2.232,8.063,8.063,0,0,1,.252-2.286A3.3,3.3,0,0,1,12.195,33.4a3.4,3.4,0,0,1,2.115-.648,2.914,2.914,0,0,1,1.305.288,2.728,2.728,0,0,1,.981.81q.036.036.063.027a.042.042,0,0,0,.027-.045Zm-.342,6.606a3.042,3.042,0,0,0,.252-.873,9.96,9.96,0,0,0,.072-1.359A9.753,9.753,0,0,0,16.6,36.1a3.207,3.207,0,0,0-.234-.846,2.225,2.225,0,0,0-.72-1.008,1.9,1.9,0,0,0-1.206-.378,2.244,2.244,0,0,0-1.3.378,1.965,1.965,0,0,0-.765,1.026,3.032,3.032,0,0,0-.252.855,9.378,9.378,0,0,0-.072,1.323,7.408,7.408,0,0,0,.1,1.377,3.131,3.131,0,0,0,.315.891,2.043,2.043,0,0,0,.756.954,2.133,2.133,0,0,0,1.242.36,1.917,1.917,0,0,0,1.179-.369A2.037,2.037,0,0,0,16.344,39.678Zm10.134-6.606a.159.159,0,0,1,.18-.18h.918a.159.159,0,0,1,.18.18V41.82a.159.159,0,0,1-.18.18h-.918a.159.159,0,0,1-.18-.18v-.774a.058.058,0,0,0-.036-.054.036.036,0,0,0-.054.018,2.685,2.685,0,0,1-2.394,1.116,3.624,3.624,0,0,1-1.593-.351,2.746,2.746,0,0,1-1.152-1.017,2.926,2.926,0,0,1-.423-1.6V33.072a.159.159,0,0,1,.18-.18h.918a.159.159,0,0,1,.18.18v5.706a2.26,2.26,0,0,0,.576,1.629,2.063,2.063,0,0,0,1.566.6,2.183,2.183,0,0,0,1.629-.612,2.208,2.208,0,0,0,.6-1.62Zm5-1.836a1.025,1.025,0,0,1-.72-1.737,1.069,1.069,0,0,1,1.44,0,1.013,1.013,0,0,1-.72,1.737Zm-.5,10.746a.159.159,0,0,1-.18-.18V33.054a.159.159,0,0,1,.18-.18H31.9a.159.159,0,0,1,.18.18V41.8a.159.159,0,0,1-.18.18Zm11.3-6.822a7.882,7.882,0,0,1,.27,2.286,8.265,8.265,0,0,1-.234,2.232,3.347,3.347,0,0,1-1.179,1.809,3.427,3.427,0,0,1-2.151.657,3.01,3.01,0,0,1-1.3-.279,2.626,2.626,0,0,1-.99-.8q-.036-.036-.063-.027a.042.042,0,0,0-.027.045v4.23a.159.159,0,0,1-.18.18h-.918a.159.159,0,0,1-.18-.18V33.072a.159.159,0,0,1,.18-.18h.918a.159.159,0,0,1,.18.18v.756a.042.042,0,0,0,.027.045q.027.009.063-.027a2.728,2.728,0,0,1,.981-.81,2.914,2.914,0,0,1,1.305-.288A3.4,3.4,0,0,1,41.1,33.4,3.3,3.3,0,0,1,42.282,35.16ZM40.86,39.714a3.534,3.534,0,0,0,.3-.891,7.408,7.408,0,0,0,.1-1.377,9.378,9.378,0,0,0-.072-1.323,3.032,3.032,0,0,0-.252-.855,1.965,1.965,0,0,0-.765-1.026,2.244,2.244,0,0,0-1.305-.378,1.9,1.9,0,0,0-1.206.378,2.225,2.225,0,0,0-.72,1.008,3.207,3.207,0,0,0-.234.846,9.752,9.752,0,0,0-.072,1.35,9.959,9.959,0,0,0,.072,1.359,3.042,3.042,0,0,0,.252.873,2.037,2.037,0,0,0,.711.981,1.917,1.917,0,0,0,1.179.369,2.175,2.175,0,0,0,1.251-.36A2.025,2.025,0,0,0,40.86,39.714Zm13.5-6.948a2.828,2.828,0,0,1,2.133.81,3.051,3.051,0,0,1,.783,2.214v6.03a.159.159,0,0,1-.18.18h-.9a.159.159,0,0,1-.18-.18V36.042a2.167,2.167,0,0,0-.567-1.575,1.975,1.975,0,0,0-1.485-.585,2.1,2.1,0,0,0-1.539.576,2.074,2.074,0,0,0-.585,1.548V41.82a.159.159,0,0,1-.18.18h-.918a.159.159,0,0,1-.18-.18V36.042A2.187,2.187,0,0,0,50,34.467a1.968,1.968,0,0,0-1.494-.585,2.038,2.038,0,0,0-1.521.576,2.111,2.111,0,0,0-.567,1.548V41.82a.159.159,0,0,1-.18.18h-.918a.159.159,0,0,1-.18-.18V33.072a.159.159,0,0,1,.18-.18h.918a.159.159,0,0,1,.18.18v.72a.042.042,0,0,0,.027.045q.027.009.063-.027a2.437,2.437,0,0,1,1.017-.783,3.52,3.52,0,0,1,1.377-.261,3.2,3.2,0,0,1,1.6.378,2.422,2.422,0,0,1,1.008,1.1q.036.09.09,0a2.582,2.582,0,0,1,1.116-1.107A3.54,3.54,0,0,1,54.36,32.766Zm12.528,3.15a9.155,9.155,0,0,1,.072,1.26v.576a.159.159,0,0,1-.18.18H60.966a.064.064,0,0,0-.072.072A8.034,8.034,0,0,0,61,39.282a2.153,2.153,0,0,0,.846,1.278,2.759,2.759,0,0,0,1.656.468,2.559,2.559,0,0,0,1.332-.342,2.352,2.352,0,0,0,.9-.972q.108-.162.252-.072l.7.414a.179.179,0,0,1,.072.252,3.239,3.239,0,0,1-1.35,1.359,4.225,4.225,0,0,1-2.07.495A3.79,3.79,0,0,1,61.2,41.55a3.282,3.282,0,0,1-1.242-1.656,7.392,7.392,0,0,1-.324-2.484q0-.756.027-1.233a3.927,3.927,0,0,1,.135-.855,3.334,3.334,0,0,1,1.233-1.872,3.6,3.6,0,0,1,2.241-.7,3.544,3.544,0,0,1,2.52.828A3.836,3.836,0,0,1,66.888,35.916ZM63.27,33.864a2.3,2.3,0,0,0-1.467.459,2.126,2.126,0,0,0-.765,1.233,5.829,5.829,0,0,0-.144,1.224.064.064,0,0,0,.072.072h4.662a.064.064,0,0,0,.072-.072,8.092,8.092,0,0,0-.108-1.152,2.274,2.274,0,0,0-.8-1.287A2.376,2.376,0,0,0,63.27,33.864Zm10.008-1.1a3.12,3.12,0,0,1,2.295.846,3.047,3.047,0,0,1,.855,2.268v5.94a.159.159,0,0,1-.18.18H75.33a.159.159,0,0,1-.18-.18V36.132a2.247,2.247,0,0,0-.6-1.62,2.059,2.059,0,0,0-1.557-.63A2.1,2.1,0,0,0,70.776,36.1V41.82a.159.159,0,0,1-.18.18h-.918a.159.159,0,0,1-.18-.18V33.072a.159.159,0,0,1,.18-.18H70.6a.159.159,0,0,1,.18.18v.774a.061.061,0,0,0,.027.054q.027.018.045-.018A2.778,2.778,0,0,1,73.278,32.766Zm10.008,1.008a.159.159,0,0,1-.18.18H81.072a.064.064,0,0,0-.072.072v5.31a1.586,1.586,0,0,0,.387,1.215A1.77,1.77,0,0,0,82.6,40.9h.45a.159.159,0,0,1,.18.18v.738a.159.159,0,0,1-.18.18q-.216.018-.666.018a3.309,3.309,0,0,1-1.962-.486,2.1,2.1,0,0,1-.666-1.8V34.026a.064.064,0,0,0-.072-.072h-1.1a.159.159,0,0,1-.18-.18v-.7a.159.159,0,0,1,.18-.18h1.1a.064.064,0,0,0,.072-.072V30.732a.159.159,0,0,1,.18-.18h.882a.159.159,0,0,1,.18.18V32.82a.064.064,0,0,0,.072.072h2.034a.159.159,0,0,1,.18.18Zm9.738-.972a2.124,2.124,0,0,1,1.026.234.19.19,0,0,1,.108.234l-.2.882a.153.153,0,0,1-.234.108,1.831,1.831,0,0,0-.7-.126l-.234.018a2.144,2.144,0,0,0-1.548.693,2.347,2.347,0,0,0-.612,1.665v5.31a.159.159,0,0,1-.18.18h-.918a.159.159,0,0,1-.18-.18V33.072a.159.159,0,0,1,.18-.18h.918a.159.159,0,0,1,.18.18v1.1q0,.054.027.063t.045-.027a2.866,2.866,0,0,1,.963-1.035A2.493,2.493,0,0,1,93.024,32.8Zm8.388.27a.159.159,0,0,1,.18-.18h.918a.159.159,0,0,1,.18.18V41.82a.159.159,0,0,1-.18.18h-.918a.159.159,0,0,1-.18-.18v-.774a.058.058,0,0,0-.036-.054.036.036,0,0,0-.054.018,2.685,2.685,0,0,1-2.394,1.116,3.624,3.624,0,0,1-1.593-.351,2.746,2.746,0,0,1-1.152-1.017,2.926,2.926,0,0,1-.423-1.6V33.072a.159.159,0,0,1,.18-.18h.918a.159.159,0,0,1,.18.18v5.706a2.26,2.26,0,0,0,.576,1.629,2.063,2.063,0,0,0,1.566.6,2.183,2.183,0,0,0,1.629-.612,2.208,2.208,0,0,0,.6-1.62Zm7.92-.306a3.12,3.12,0,0,1,2.295.846,3.047,3.047,0,0,1,.855,2.268v5.94a.159.159,0,0,1-.18.18h-.918a.159.159,0,0,1-.18-.18V36.132a2.247,2.247,0,0,0-.6-1.62,2.059,2.059,0,0,0-1.557-.63A2.1,2.1,0,0,0,106.83,36.1V41.82a.159.159,0,0,1-.18.18h-.918a.159.159,0,0,1-.18-.18V33.072a.159.159,0,0,1,.18-.18h.918a.159.159,0,0,1,.18.18v.774a.061.061,0,0,0,.027.054q.027.018.045-.018A2.778,2.778,0,0,1,109.332,32.766Zm9.7,0a3.12,3.12,0,0,1,2.295.846,3.047,3.047,0,0,1,.855,2.268v5.94A.159.159,0,0,1,122,42h-.918a.159.159,0,0,1-.18-.18V36.132a2.247,2.247,0,0,0-.6-1.62,2.059,2.059,0,0,0-1.557-.63,2.1,2.1,0,0,0-2.214,2.214V41.82a.159.159,0,0,1-.18.18h-.918a.159.159,0,0,1-.18-.18V33.072a.159.159,0,0,1,.18-.18h.918a.159.159,0,0,1,.18.18v.774a.061.061,0,0,0,.027.054q.027.018.045-.018A2.778,2.778,0,0,1,119.034,32.766Zm6.786-1.53a1.025,1.025,0,0,1-.72-1.737,1.069,1.069,0,0,1,1.44,0,1.013,1.013,0,0,1-.72,1.737Zm-.5,10.746a.159.159,0,0,1-.18-.18V33.054a.159.159,0,0,1,.18-.18h.918a.159.159,0,0,1,.18.18V41.8a.159.159,0,0,1-.18.18Zm8.01-9.216a3.12,3.12,0,0,1,2.295.846,3.047,3.047,0,0,1,.855,2.268v5.94a.159.159,0,0,1-.18.18h-.918a.159.159,0,0,1-.18-.18V36.132a2.247,2.247,0,0,0-.6-1.62,2.059,2.059,0,0,0-1.557-.63,2.1,2.1,0,0,0-2.214,2.214V41.82a.159.159,0,0,1-.18.18h-.918a.159.159,0,0,1-.18-.18V33.072a.159.159,0,0,1,.18-.18h.918a.159.159,0,0,1,.18.18v.774a.061.061,0,0,0,.027.054q.027.018.045-.018A2.778,2.778,0,0,1,133.326,32.766Zm11.538.306a.159.159,0,0,1,.18-.18h.918a.159.159,0,0,1,.18.18v8.622a3.568,3.568,0,0,1-1.161,2.952,4.955,4.955,0,0,1-3.2.936q-.414,0-.63-.018a.178.178,0,0,1-.18-.2l.036-.828a.166.166,0,0,1,.054-.135.135.135,0,0,1,.126-.027l.486.018a3.666,3.666,0,0,0,2.43-.657,2.614,2.614,0,0,0,.756-2.079v-.666a.042.042,0,0,0-.027-.045q-.027-.009-.063.027a2.8,2.8,0,0,1-2.358,1.08,3.561,3.561,0,0,1-2.079-.63,3.033,3.033,0,0,1-1.215-1.782,8.355,8.355,0,0,1-.216-2.2q0-.792.045-1.332a4.169,4.169,0,0,1,.189-.972,3.36,3.36,0,0,1,1.17-1.737,3.217,3.217,0,0,1,2.034-.657,2.894,2.894,0,0,1,2.43,1.062q.036.036.063.018a.061.061,0,0,0,.027-.054Zm-.09,6.174a4.517,4.517,0,0,0,.072-.666q.018-.4.018-1.152,0-.918-.018-1.233a2.913,2.913,0,0,0-.09-.585,2.146,2.146,0,0,0-.711-1.251,2.1,2.1,0,0,0-1.431-.5,2.165,2.165,0,0,0-1.431.486,2.558,2.558,0,0,0-.819,1.26,6.548,6.548,0,0,0-.18,1.8,6.181,6.181,0,0,0,.18,1.818,2.248,2.248,0,0,0,2.25,1.746,2.148,2.148,0,0,0,1.449-.486A2.105,2.105,0,0,0,144.774,39.246Zm10.692,2.844a4.651,4.651,0,0,1-1.791-.324,2.9,2.9,0,0,1-1.206-.864,1.907,1.907,0,0,1-.423-1.206V39.48a.159.159,0,0,1,.18-.18h.864a.159.159,0,0,1,.18.18v.144a1.262,1.262,0,0,0,.621,1.035,2.623,2.623,0,0,0,1.557.441,2.494,2.494,0,0,0,1.512-.423,1.28,1.28,0,0,0,.576-1.071.983.983,0,0,0-.3-.738,2.135,2.135,0,0,0-.7-.45q-.405-.162-1.251-.414a12.891,12.891,0,0,1-1.656-.576,3.044,3.044,0,0,1-1.089-.8,1.931,1.931,0,0,1-.441-1.305,2.188,2.188,0,0,1,.9-1.836,3.826,3.826,0,0,1,2.376-.684,4.466,4.466,0,0,1,1.755.324,2.738,2.738,0,0,1,1.179.891,2.1,2.1,0,0,1,.414,1.269v.054a.159.159,0,0,1-.18.18H157.7a.159.159,0,0,1-.18-.18v-.054a1.224,1.224,0,0,0-.585-1.026,2.678,2.678,0,0,0-1.575-.414,2.637,2.637,0,0,0-1.476.369,1.157,1.157,0,0,0-.558,1.017,1.031,1.031,0,0,0,.54.936,7.363,7.363,0,0,0,1.674.648,16.889,16.889,0,0,1,1.692.576,3.112,3.112,0,0,1,1.116.783,1.912,1.912,0,0,1,.468,1.341,2.238,2.238,0,0,1-.918,1.872A3.9,3.9,0,0,1,155.466,42.09Zm14.886-9.324a2.828,2.828,0,0,1,2.133.81,3.051,3.051,0,0,1,.783,2.214v6.03a.159.159,0,0,1-.18.18h-.9a.159.159,0,0,1-.18-.18V36.042a2.167,2.167,0,0,0-.567-1.575,1.975,1.975,0,0,0-1.485-.585,2.1,2.1,0,0,0-1.539.576,2.074,2.074,0,0,0-.585,1.548V41.82a.159.159,0,0,1-.18.18h-.918a.159.159,0,0,1-.18-.18V36.042A2.187,2.187,0,0,0,166,34.467a1.968,1.968,0,0,0-1.494-.585,2.038,2.038,0,0,0-1.521.576,2.111,2.111,0,0,0-.567,1.548V41.82a.159.159,0,0,1-.18.18h-.918a.159.159,0,0,1-.18-.18V33.072a.159.159,0,0,1,.18-.18h.918a.159.159,0,0,1,.18.18v.72a.042.042,0,0,0,.027.045q.027.009.063-.027a2.437,2.437,0,0,1,1.017-.783,3.52,3.52,0,0,1,1.377-.261,3.2,3.2,0,0,1,1.6.378,2.422,2.422,0,0,1,1.008,1.1q.036.09.09,0a2.582,2.582,0,0,1,1.116-1.107A3.54,3.54,0,0,1,170.352,32.766Zm9.018,9.378a3.749,3.749,0,0,1-2.232-.666,3.412,3.412,0,0,1-1.3-1.836,7.849,7.849,0,0,1-.252-2.214,7.654,7.654,0,0,1,.252-2.2,3.321,3.321,0,0,1,1.278-1.818,3.81,3.81,0,0,1,2.268-.666,3.679,3.679,0,0,1,2.2.666,3.336,3.336,0,0,1,1.269,1.8,7.511,7.511,0,0,1,.252,2.214,7.4,7.4,0,0,1-.252,2.214,3.339,3.339,0,0,1-1.269,1.836A3.708,3.708,0,0,1,179.37,42.144Zm0-1.116a2.289,2.289,0,0,0,2.3-1.764,7.893,7.893,0,0,0,.162-1.818,8.69,8.69,0,0,0-.144-1.818,2.326,2.326,0,0,0-.837-1.287,2.394,2.394,0,0,0-1.5-.477,2.29,2.29,0,0,0-2.322,1.764,8.69,8.69,0,0,0-.144,1.818,8.69,8.69,0,0,0,.144,1.818,2.239,2.239,0,0,0,.819,1.287A2.423,2.423,0,0,0,179.37,41.028Zm9.81,1.116a3.749,3.749,0,0,1-2.232-.666,3.412,3.412,0,0,1-1.3-1.836,7.849,7.849,0,0,1-.252-2.214,7.654,7.654,0,0,1,.252-2.2,3.321,3.321,0,0,1,1.278-1.818,3.81,3.81,0,0,1,2.268-.666,3.679,3.679,0,0,1,2.2.666,3.336,3.336,0,0,1,1.269,1.8,7.511,7.511,0,0,1,.252,2.214,7.4,7.4,0,0,1-.252,2.214,3.339,3.339,0,0,1-1.269,1.836A3.708,3.708,0,0,1,189.18,42.144Zm0-1.116a2.289,2.289,0,0,0,2.3-1.764,7.893,7.893,0,0,0,.162-1.818,8.691,8.691,0,0,0-.144-1.818,2.326,2.326,0,0,0-.837-1.287,2.394,2.394,0,0,0-1.5-.477,2.29,2.29,0,0,0-2.322,1.764,8.69,8.69,0,0,0-.144,1.818,8.69,8.69,0,0,0,.144,1.818,2.239,2.239,0,0,0,.819,1.287A2.423,2.423,0,0,0,189.18,41.028Zm10.314-7.254a.159.159,0,0,1-.18.18H197.28a.064.064,0,0,0-.072.072v5.31a1.586,1.586,0,0,0,.387,1.215,1.77,1.77,0,0,0,1.215.351h.45a.159.159,0,0,1,.18.18v.738a.159.159,0,0,1-.18.18q-.216.018-.666.018a3.309,3.309,0,0,1-1.962-.486,2.1,2.1,0,0,1-.666-1.8V34.026a.064.064,0,0,0-.072-.072h-1.1a.159.159,0,0,1-.18-.18v-.7a.159.159,0,0,1,.18-.18h1.1a.064.064,0,0,0,.072-.072V30.732a.159.159,0,0,1,.18-.18h.882a.159.159,0,0,1,.18.18V32.82a.064.064,0,0,0,.072.072h2.034a.159.159,0,0,1,.18.18Zm6.246-1.008a3.12,3.12,0,0,1,2.295.846,3.047,3.047,0,0,1,.855,2.268v5.94a.159.159,0,0,1-.18.18h-.918a.159.159,0,0,1-.18-.18V36.132a2.247,2.247,0,0,0-.6-1.62,2.059,2.059,0,0,0-1.557-.63,2.1,2.1,0,0,0-2.214,2.214V41.82a.159.159,0,0,1-.18.18h-.918a.159.159,0,0,1-.18-.18V29.58a.159.159,0,0,1,.18-.18h.918a.159.159,0,0,1,.18.18v4.266a.061.061,0,0,0,.027.054q.027.018.045-.018A2.778,2.778,0,0,1,205.74,32.766Zm6.1,9.234a.159.159,0,0,1-.18-.18V29.58a.159.159,0,0,1,.18-.18h.918a.159.159,0,0,1,.18.18V41.82a.159.159,0,0,1-.18.18Zm3.546,3.6q-.126,0-.126-.18V44.7a.159.159,0,0,1,.18-.18h.072a2.7,2.7,0,0,0,1.089-.207,1.581,1.581,0,0,0,.666-.7,9.1,9.1,0,0,0,.6-1.557q.036-.072,0-.108L214.83,33.09l-.018-.072q0-.126.162-.126h.954a.21.21,0,0,1,.216.144l2.34,7.272a.058.058,0,0,0,.108,0l2.3-7.272a.21.21,0,0,1,.216-.144h.936q.2,0,.144.2l-3.33,9.7a8.875,8.875,0,0,1-.81,1.782,2.014,2.014,0,0,1-.945.8,4.469,4.469,0,0,1-1.593.225Z" transform="translate(111 5366)"/>
    </g>
  </g>
</svg>
