<svg xmlns="http://www.w3.org/2000/svg" width="41.881" height="35.35" viewBox="0 0 41.881 35.35">
  <g id="Group_5948" data-name="Group 5948" transform="translate(-1006.825 -4168)">
    <path id="Path_8656" data-name="Path 8656" d="M10.325-15.5a18.69,18.69,0,0,1,.55,4.55,15.08,15.08,0,0,1-.6,4.35A9.218,9.218,0,0,1,6.65-1.525,10.823,10.823,0,0,1,.275.35a10.707,10.707,0,0,1-6.25-1.8,9.494,9.494,0,0,1-3.65-4.9,8.678,8.678,0,0,1-.55-2.45v-.1q0-.4.45-.4h3.95a.451.451,0,0,1,.5.45,8.719,8.719,0,0,0,.25,1.05A5.633,5.633,0,0,0-3.1-4.875,5.234,5.234,0,0,0,.225-3.8,5.434,5.434,0,0,0,3.7-4.925,5.553,5.553,0,0,0,5.625-8.05a9.521,9.521,0,0,0,.35-2.9,14.56,14.56,0,0,0-.3-3.05A4.432,4.432,0,0,0,3.9-16.925,5.879,5.879,0,0,0,.375-17.95a6.994,6.994,0,0,0-3.5.875,4.034,4.034,0,0,0-2,2.325.56.56,0,0,1-.55.45h-4a.442.442,0,0,1-.5-.5V-34.5a.442.442,0,0,1,.5-.5h18.7a.442.442,0,0,1,.5.5v3.15a.442.442,0,0,1-.5.5h-14.2a.177.177,0,0,0-.2.2l-.05,10.45q0,.3.25.15A8.013,8.013,0,0,1-2.4-21.625,10.445,10.445,0,0,1,.925-22.15,10.312,10.312,0,0,1,6.95-20.4,8.413,8.413,0,0,1,10.325-15.5Z" transform="translate(1017 4203)" fill="#0c4e97"/>
    <path id="Icon_ionic-ios-arrow-dropright-circle" data-name="Icon ionic-ios-arrow-dropright-circle" d="M25.249,24.1,15.109,14.059a2.39,2.39,0,0,1,3.38-3.38L30.3,22.528a2.387,2.387,0,0,1,.074,3.293L18.736,37.5a2.386,2.386,0,1,1-3.38-3.368Z" transform="translate(1017.708 4159.797)" fill="#efb82a"/>
  </g>
</svg>
