<svg xmlns="http://www.w3.org/2000/svg" xmlns:xlink="http://www.w3.org/1999/xlink" width="373" height="79" viewBox="0 0 373 79">
  <defs>
    <clipPath id="clip-path">
      <rect id="Rectangle_579" data-name="Rectangle 579" width="373" height="79" transform="translate(321 427)" fill="#fff" stroke="#707070" stroke-width="1"/>
    </clipPath>
  </defs>
  <g id="Group_5943" data-name="Group 5943" transform="translate(-260 -427)">
    <g id="Mask_Group_45" data-name="Mask Group 45" transform="translate(-61)" clip-path="url(#clip-path)">
      <path id="Path_6765" data-name="Path 6765" d="M-21.075,69.347V.5l333.712.514,32.709,68.172Z" transform="translate(339.989 433.341)" fill="#cc0109"/>
      <path id="Path_6766" data-name="Path 6766" d="M-19,0H317.272l.174.363,33.148,69.088H-19ZM316.468,1.278H-17.721V68.173H348.563Z" transform="translate(335.755 433.362)" fill="#fffcff"/>
      <rect id="Rectangle_578" data-name="Rectangle 578" width="350.898" height="69.644" transform="translate(326.606 433.266)" fill="none"/>
    </g>
    <path id="Path_8654" data-name="Path 8654" d="M11.856-28.7c.48,0,.624.24.624.672V-20.5a.82.82,0,0,1-.864.912H8.352V-28.7Zm.72,21.888c0,.528-.144.72-.72.72h-3.5V-14.3H11.52c.624,0,1.056.24,1.056,1.008Zm6.576-23.76c0-2.544-1.392-4.224-4.128-4.224H1.44V0H14.064c3.984,0,5.424-1.536,5.424-5.376V-14.4a2.8,2.8,0,0,0-2.736-3.072c1.824-.48,2.4-1.824,2.4-3.552ZM33.312-4.32,33.936,0h7.008L34.656-34.8h-7.44L20.928,0h7.008l.624-4.32ZM30.96-22.176,32.544-9.84H29.328ZM40.848-34.8l-1.824,6.48H43.68V0h7.1V-28.32H55.44L53.712-34.8Zm17.76,0-1.824,6.48H61.44V0h7.1V-28.32H73.2L71.472-34.8ZM75.12,0H88.368l1.2-6.48h-7.3v-7.584h5.76v-6h-5.76V-28.32h7.584l-1.2-6.48H75.12Zm27.5-28.7c.48,0,.672.288.672.72v10.56c0,.528-.144.72-.672.72H99.216v-12Zm7.536-1.584c0-2.736-1.44-4.512-4.7-4.512h-13.2V0h6.96V-11.088h.912L103.488,0h7.2L107.04-11.088a3.011,3.011,0,0,0,3.12-3.072ZM125.952-8.832,132.624-34.8h-7.2l-3.168,16.416L119.136-34.8h-7.2l6.672,25.968V0h7.344ZM150.864,0c3.984,0,5.328-1.44,5.328-5.28V-16.752c0-2.592-1.248-3.552-3.456-3.552h-4.368c-.72,0-1.056-.192-1.056-.912v-6.336c0-.528.288-.768.864-.768h7.872l-1.2-6.48h-9.6c-3.264,0-4.7,1.776-4.7,4.512V-18.48c0,3.456,1.824,3.936,3.888,3.936h3.6c.96,0,1.3.048,1.3,1.008V-7.2c0,.528-.192.72-.816.72h-7.488L142.272,0Zm8.592-34.8-1.824,6.48h4.656V0h7.1V-28.32h4.656L172.32-34.8Zm26.88,6.1c.48,0,.624.24.624.672V-6.816c0,.528-.1.72-.672.72h-2.64c-.576,0-.672-.192-.672-.72V-28.032c0-.432.144-.672.624-.672Zm7.68-1.584c0-2.736-1.44-4.512-4.7-4.512h-8.64c-3.264,0-4.7,1.776-4.7,4.512V-4.944c0,2.64,1.1,4.944,4.992,4.944h8.064c3.888,0,4.992-2.3,4.992-4.944ZM207.264-28.7c.48,0,.672.288.672.72v10.56c0,.528-.144.72-.672.72h-3.408v-12Zm7.536-1.584c0-2.736-1.44-4.512-4.7-4.512H196.9V0h6.96V-11.088h.912L208.128,0h7.2L211.68-11.088a3.011,3.011,0,0,0,3.12-3.072ZM228.864-4.32,229.488,0H236.5l-6.288-34.8h-7.44L216.48,0h7.008l.624-4.32Zm-2.352-17.856L228.1-9.84H224.88Zm11.568,16.8C238.08-1.536,239.52,0,243.5,0h12.144V-20.064H248.88V-6.336h-3.168c-.48,0-.624-.24-.624-.672v-20.64c0-.432.144-.672.624-.672h7.632l-1.2-6.48h-9.936c-2.736,0-4.128,1.68-4.128,4.224ZM258.384,0h13.248l1.2-6.48h-7.3v-7.584h5.76v-6h-5.76V-28.32h7.584l-1.2-6.48H258.384Z" transform="translate(310 485)" fill="#fff"/>
  </g>
</svg>
