<svg xmlns="http://www.w3.org/2000/svg" width="42.606" height="35.4" viewBox="0 0 42.606 35.4">
  <g id="Group_5946" data-name="Group 5946" transform="translate(-459.1 -4172.182)">
    <g id="Group_5448" data-name="Group 5448" transform="translate(-24 350.182)">
      <path id="Path_8658" data-name="Path 8658" d="M9.25-16.6a14.862,14.862,0,0,1,1,5.65,14.529,14.529,0,0,1-.8,4.9A9.2,9.2,0,0,1,5.8-1.275,10.952,10.952,0,0,1-.35.4,10.527,10.527,0,0,1-6.575-1.45a9.7,9.7,0,0,1-3.675-5,12.737,12.737,0,0,1-.65-4,.442.442,0,0,1,.5-.5h3.85a.442.442,0,0,1,.5.5,10.317,10.317,0,0,0,.4,2.65A5.5,5.5,0,0,0-3.775-4.85,5.309,5.309,0,0,0-.35-3.75,4.983,4.983,0,0,0,4.75-7.2a9.909,9.909,0,0,0,.65-3.9,12.171,12.171,0,0,0-.8-4.55,5.034,5.034,0,0,0-5-3.1A4.6,4.6,0,0,0-2.55-18a.767.767,0,0,1-.3.1.452.452,0,0,1-.4-.25l-1.9-2.6a.806.806,0,0,1-.1-.35.617.617,0,0,1,.15-.35L3.45-30.6q.15-.25-.1-.25H-9.95a.442.442,0,0,1-.5-.5V-34.5a.442.442,0,0,1,.5-.5H9.45a.442.442,0,0,1,.5.5v3.6a1.1,1.1,0,0,1-.25.6L2.1-22q-.1.1-.05.175a.376.376,0,0,0,.2.125,8.309,8.309,0,0,1,4.3,1.575A8.587,8.587,0,0,1,9.25-16.6Z" transform="translate(494 3857)" fill="#0c4e97"/>
      <path id="Icon_ionic-ios-arrow-dropright-circle" data-name="Icon ionic-ios-arrow-dropright-circle" d="M25.249,24.1,15.109,14.059a2.39,2.39,0,0,1,3.38-3.38L30.3,22.528a2.387,2.387,0,0,1,.074,3.293L18.736,37.5a2.386,2.386,0,1,1-3.38-3.368Z" transform="translate(494.708 3813.797)" fill="#efb82a"/>
    </g>
  </g>
</svg>
