<svg xmlns="http://www.w3.org/2000/svg" width="115.335" height="120.675" viewBox="0 0 115.335 120.675">
  <g id="Group_5924" data-name="Group 5924" transform="translate(-592.246 -3190.518)">
    <path id="Union_6" data-name="Union 6" d="M-1144,19.914h14.373v-92.4h42.27v92.4h14.791L-1107.8,48.192Z" transform="translate(1757 3263)" fill="#efb82a"/>
    <g id="Group_2083" data-name="Group 2083" transform="translate(647.496 3205.812)">
      <path id="Line_20" data-name="Line 20" d="M0,5.982a.671.671,0,0,1-.671-.671V0A.671.671,0,0,1,0-.671.671.671,0,0,1,.671,0V5.312A.671.671,0,0,1,0,5.982Z" fill="#fff"/>
      <path id="Line_21" data-name="Line 21" d="M0,4.048a.671.671,0,0,1-.671-.671V0A.671.671,0,0,1,0-.671.671.671,0,0,1,.671,0V3.378A.671.671,0,0,1,0,4.048Z" transform="translate(0 9.425)" fill="#fff"/>
    </g>
    <g id="Group_2084" data-name="Group 2084" transform="translate(593.059 3196.583) rotate(-14)">
      <path id="Line_22" data-name="Line 22" d="M0,17.828a.671.671,0,0,1-.671-.671V0A.671.671,0,0,1,0-.671.671.671,0,0,1,.671,0V17.157A.671.671,0,0,1,0,17.828Z" transform="translate(0 9.94)" fill="#fff"/>
      <path id="Line_23" data-name="Line 23" d="M0,5.982a.671.671,0,0,1-.671-.671V0A.671.671,0,0,1,0-.671.671.671,0,0,1,.671,0V5.312A.671.671,0,0,1,0,5.982Z" transform="translate(0)" fill="#fff"/>
      <path id="Line_24" data-name="Line 24" d="M0,2.623a.671.671,0,0,1-.671-.671V0A.671.671,0,0,1,0-.671.671.671,0,0,1,.671,0V1.952A.671.671,0,0,1,0,2.623Z" transform="translate(0 30.779)" fill="#fff"/>
    </g>
    <g id="Group_2085" data-name="Group 2085" transform="translate(659.323 3196.521)">
      <path id="Line_25" data-name="Line 25" d="M0,15.441a.671.671,0,0,1-.671-.671V0A.671.671,0,0,1,0-.671.671.671,0,0,1,.671,0V14.77A.671.671,0,0,1,0,15.441Z" transform="translate(0 7.385)" fill="#fff"/>
      <path id="Line_26" data-name="Line 26" d="M0,4.818a.671.671,0,0,1-.671-.671V0A.671.671,0,0,1,0-.671.671.671,0,0,1,.671,0V4.147A.671.671,0,0,1,0,4.818Z" fill="#fff"/>
    </g>
    <g id="Group_2086" data-name="Group 2086" transform="translate(700.332 3212.754) rotate(9)">
      <path id="Line_27" data-name="Line 27" d="M0,7.943a.671.671,0,0,1-.671-.671V0A.671.671,0,0,1,0-.671.671.671,0,0,1,.671,0V7.272A.671.671,0,0,1,0,7.943Z" transform="translate(0 0)" fill="#fff"/>
      <path id="Line_28" data-name="Line 28" d="M0,5.808a.671.671,0,0,1-.671-.671V0A.671.671,0,0,1,0-.671.671.671,0,0,1,.671,0V5.138A.671.671,0,0,1,0,5.808Z" transform="translate(0 12.272)" fill="#fff"/>
    </g>
    <g id="Group_2087" data-name="Group 2087" transform="translate(706.814 3198.367) rotate(9)">
      <path id="Line_29" data-name="Line 29" d="M0,12.4a.671.671,0,0,1-.671-.671V0A.671.671,0,0,1,0-.671.671.671,0,0,1,.671,0V11.731A.671.671,0,0,1,0,12.4Z" transform="translate(0 8.83)" fill="#fff"/>
      <path id="Line_30" data-name="Line 30" d="M0,4.818a.671.671,0,0,1-.671-.671V0A.671.671,0,0,1,0-.671.671.671,0,0,1,.671,0V4.147A.671.671,0,0,1,0,4.818Z" transform="translate(0 0)" fill="#fff"/>
    </g>
    <g id="Group_5443" data-name="Group 5443" transform="translate(670.995 3206.834) rotate(9)">
      <g id="Group_2824" data-name="Group 2824" transform="translate(0 0)">
        <rect id="Rectangle_484" data-name="Rectangle 484" width="27.336" height="56.533" transform="translate(0 0)" fill="#fff"/>
        <path id="Rectangle_484_-_Outline" data-name="Rectangle 484 - Outline" d="M0,0V56.533H27.336V0H0M-2-2H29.336V58.533H-2Z" transform="translate(0 0)" fill="#004c97"/>
        <g id="Group_2825" data-name="Group 2825" transform="translate(3.332 2.45)">
          <path id="Path_4511" data-name="Path 4511" d="M21.328,46.1V5.046A5.046,5.046,0,0,1,16.282,0H5.046A5.047,5.047,0,0,1,0,5.046V46.1a5.046,5.046,0,0,1,5.046,5.046H16.282A5.046,5.046,0,0,1,21.328,46.1Z" fill="#efb82a"/>
          <g id="Group_2090" data-name="Group 2090" transform="translate(3.372 18.183)">
            <circle id="Ellipse_35" data-name="Ellipse 35" cx="7.47" cy="7.47" r="7.47" fill="#fff"/>
            <path id="Ellipse_35_-_Outline" data-name="Ellipse 35 - Outline" d="M7.47-.571A8.041,8.041,0,1,1-.571,7.47,8.05,8.05,0,0,1,7.47-.571Zm0,14.94a6.9,6.9,0,1,0-6.9-6.9A6.906,6.906,0,0,0,7.47,14.368Z" fill="#004c97"/>
            <circle id="Ellipse_36" data-name="Ellipse 36" cx="5.625" cy="5.625" r="5.625" transform="translate(1.845 1.845)" fill="#efb82a"/>
            <g id="Group_2089" data-name="Group 2089" transform="translate(3.889 5.232)">
              <path id="Path_4512" data-name="Path 4512" d="M4.714.044A1.337,1.337,0,0,1,5.769.572,2.383,2.383,0,0,1,6.2,1.946l.864.033-.023.577L6.2,2.523a4.7,4.7,0,0,1-.434,1.788L4.653,4.267A4.736,4.736,0,0,0,5.007,3.4a4.668,4.668,0,0,0,.2-.913L3.9,2.434l-.121.277a3.149,3.149,0,0,1-.759,1.152,1.371,1.371,0,0,1-.968.312,1.244,1.244,0,0,1-.986-.519,2.421,2.421,0,0,1-.426-1.35L0,2.281.023,1.7l.626.025A4.835,4.835,0,0,1,1.1,0l.97.434a4.574,4.574,0,0,0-.381,1.335l1.242.049A6.547,6.547,0,0,1,3.529.67a1.6,1.6,0,0,1,.53-.488A1.269,1.269,0,0,1,4.714.044Zm.013,1.27a.375.375,0,0,0-.305.133,1.807,1.807,0,0,0-.269.419L5.2,1.907C5.153,1.522,4.994,1.326,4.727,1.314ZM2.1,2.908a.4.4,0,0,0,.311-.118,1.506,1.506,0,0,0,.263-.4l-.989-.04Q1.747,2.894,2.1,2.908Z" fill="#004c97"/>
            </g>
          </g>
          <circle id="Ellipse_37" data-name="Ellipse 37" cx="1.31" cy="1.31" r="1.31" transform="translate(9.353 9.173)" fill="#004c97"/>
          <circle id="Ellipse_38" data-name="Ellipse 38" cx="1.31" cy="1.31" r="1.31" transform="translate(9.353 39.512)" fill="#004c97"/>
        </g>
      </g>
    </g>
    <g id="Group_2826" data-name="Group 2826" transform="translate(634.815 3222.577)">
      <g id="Group_2824-2" data-name="Group 2824" transform="translate(0 0)">
        <rect id="Rectangle_484-2" data-name="Rectangle 484" width="27.336" height="56.533" transform="translate(0 0)" fill="#fff"/>
        <path id="Rectangle_484_-_Outline-2" data-name="Rectangle 484 - Outline" d="M0,0V56.533H27.336V0H0M-2-2H29.336V58.533H-2Z" transform="translate(0 0)" fill="#004c97"/>
        <g id="Group_2825-2" data-name="Group 2825" transform="translate(3.332 2.45)">
          <path id="Path_4511-2" data-name="Path 4511" d="M104.29,276.7V235.65a5.046,5.046,0,0,1-5.046-5.046H88.008a5.047,5.047,0,0,1-5.046,5.046V276.7a5.046,5.046,0,0,1,5.046,5.046H99.244A5.046,5.046,0,0,1,104.29,276.7Z" transform="translate(-82.962 -230.604)" fill="#efb82a"/>
          <g id="Group_2090-2" data-name="Group 2090" transform="translate(3.372 18.183)">
            <circle id="Ellipse_35-2" data-name="Ellipse 35" cx="7.47" cy="7.47" r="7.47" fill="#fff"/>
            <path id="Ellipse_35_-_Outline-2" data-name="Ellipse 35 - Outline" d="M7.47-.571A8.041,8.041,0,1,1-.571,7.47,8.05,8.05,0,0,1,7.47-.571Zm0,14.94a6.9,6.9,0,1,0-6.9-6.9A6.906,6.906,0,0,0,7.47,14.368Z" fill="#004c97"/>
            <circle id="Ellipse_36-2" data-name="Ellipse 36" cx="5.625" cy="5.625" r="5.625" transform="translate(1.845 1.845)" fill="#efb82a"/>
            <g id="Group_2089-2" data-name="Group 2089" transform="translate(3.889 5.232)">
              <path id="Path_4512-2" data-name="Path 4512" d="M93.147,248.291a1.338,1.338,0,0,1,1.055.528,2.383,2.383,0,0,1,.434,1.374l.864.033-.023.577-.845-.033a4.7,4.7,0,0,1-.434,1.788l-1.112-.044a4.735,4.735,0,0,0,.354-.869,4.668,4.668,0,0,0,.2-.913l-1.306-.05-.121.277a3.149,3.149,0,0,1-.759,1.152,1.371,1.371,0,0,1-.968.312,1.244,1.244,0,0,1-.986-.519,2.421,2.421,0,0,1-.426-1.35l-.644-.025.023-.577.626.025a4.836,4.836,0,0,1,.455-1.729l.97.434a4.574,4.574,0,0,0-.381,1.335l1.242.049a6.548,6.548,0,0,1,.593-1.148,1.6,1.6,0,0,1,.53-.488A1.269,1.269,0,0,1,93.147,248.291Zm.013,1.27a.375.375,0,0,0-.305.133,1.807,1.807,0,0,0-.269.419l1.048.041C93.586,249.769,93.427,249.573,93.16,249.561Zm-2.622,1.594a.4.4,0,0,0,.311-.118,1.506,1.506,0,0,0,.263-.4l-.989-.04Q90.18,251.141,90.538,251.155Z" transform="translate(-88.433 -248.247)" fill="#004c97"/>
            </g>
          </g>
          <circle id="Ellipse_37-2" data-name="Ellipse 37" cx="1.31" cy="1.31" r="1.31" transform="translate(9.353 9.173)" fill="#004c97"/>
          <circle id="Ellipse_38-2" data-name="Ellipse 38" cx="1.31" cy="1.31" r="1.31" transform="translate(9.353 39.512)" fill="#004c97"/>
        </g>
      </g>
    </g>
    <g id="Group_5442" data-name="Group 5442" transform="translate(599.225 3200.658) rotate(-13)">
      <g id="Group_2824-3" data-name="Group 2824" transform="translate(0 0)">
        <rect id="Rectangle_484-3" data-name="Rectangle 484" width="27.336" height="56.533" transform="translate(0 0)" fill="#fff"/>
        <path id="Rectangle_484_-_Outline-3" data-name="Rectangle 484 - Outline" d="M0,0V56.533H27.336V0H0M-2-2H29.336V58.533H-2Z" transform="translate(0 0)" fill="#004c97"/>
        <g id="Group_2825-3" data-name="Group 2825" transform="translate(3.332 2.45)">
          <path id="Path_4511-3" data-name="Path 4511" d="M21.328,46.1V5.046A5.046,5.046,0,0,1,16.282,0H5.046A5.047,5.047,0,0,1,0,5.046V46.1a5.046,5.046,0,0,1,5.046,5.046H16.282A5.046,5.046,0,0,1,21.328,46.1Z" fill="#efb82a"/>
          <g id="Group_2090-3" data-name="Group 2090" transform="translate(3.372 18.183)">
            <circle id="Ellipse_35-3" data-name="Ellipse 35" cx="7.47" cy="7.47" r="7.47" fill="#fff"/>
            <path id="Ellipse_35_-_Outline-3" data-name="Ellipse 35 - Outline" d="M7.47-.571A8.041,8.041,0,1,1-.571,7.47,8.05,8.05,0,0,1,7.47-.571Zm0,14.94a6.9,6.9,0,1,0-6.9-6.9A6.906,6.906,0,0,0,7.47,14.368Z" fill="#004c97"/>
            <circle id="Ellipse_36-3" data-name="Ellipse 36" cx="5.625" cy="5.625" r="5.625" transform="translate(1.845 1.845)" fill="#efb82a"/>
            <g id="Group_2089-3" data-name="Group 2089" transform="translate(3.889 5.232)">
              <path id="Path_4512-3" data-name="Path 4512" d="M4.714.044A1.337,1.337,0,0,1,5.769.572,2.383,2.383,0,0,1,6.2,1.946l.864.033-.023.577L6.2,2.523a4.7,4.7,0,0,1-.434,1.788L4.653,4.267A4.736,4.736,0,0,0,5.007,3.4a4.668,4.668,0,0,0,.2-.913L3.9,2.434l-.121.277a3.149,3.149,0,0,1-.759,1.152,1.371,1.371,0,0,1-.968.312,1.244,1.244,0,0,1-.986-.519,2.421,2.421,0,0,1-.426-1.35L0,2.281.023,1.7l.626.025A4.835,4.835,0,0,1,1.1,0l.97.434a4.574,4.574,0,0,0-.381,1.335l1.242.049A6.547,6.547,0,0,1,3.529.67a1.6,1.6,0,0,1,.53-.488A1.269,1.269,0,0,1,4.714.044Zm.013,1.27a.375.375,0,0,0-.305.133,1.807,1.807,0,0,0-.269.419L5.2,1.907C5.153,1.522,4.994,1.326,4.727,1.314ZM2.1,2.908a.4.4,0,0,0,.311-.118,1.506,1.506,0,0,0,.263-.4l-.989-.04Q1.747,2.894,2.1,2.908Z" fill="#004c97"/>
            </g>
          </g>
          <circle id="Ellipse_37-3" data-name="Ellipse 37" cx="1.31" cy="1.31" r="1.31" transform="translate(9.353 9.173)" fill="#004c97"/>
          <circle id="Ellipse_38-3" data-name="Ellipse 38" cx="1.31" cy="1.31" r="1.31" transform="translate(9.353 39.512)" fill="#004c97"/>
        </g>
      </g>
    </g>
  </g>
</svg>
