<svg xmlns="http://www.w3.org/2000/svg" width="37.552" height="39.46" viewBox="0 0 37.552 39.46">
  <g id="Group_5355" data-name="Group 5355" transform="translate(-501.224 -701.27)">
    <path id="Path_6733" data-name="Path 6733" d="M20.182,24.356c-.415,0-.827-.019-1.234-.055A14.011,14.011,0,0,1,8.5,18.066L1.406,30.72h9.149l4.614,7.637,6.566-14.089A14.123,14.123,0,0,1,20.182,24.356Z" transform="translate(499.818 702.372)" fill="#ce0109"/>
    <path id="Path_6734" data-name="Path 6734" d="M29.531,18.052a14.073,14.073,0,0,1-7.015,5.5l-3.271,7.131,3.6,7.677,4.614-7.637h9.149Z" transform="translate(502.163 702.37)" fill="#ce0109"/>
    <path id="Icon_awesome-check-circle" data-name="Icon awesome-check-circle" d="M23.472,12.017A11.455,11.455,0,1,1,12.017.563,11.455,11.455,0,0,1,23.472,12.017Zm-12.78,6.065,8.5-8.5a.739.739,0,0,0,0-1.045L18.146,7.494a.739.739,0,0,0-1.045,0L10.17,14.425,6.934,11.189a.739.739,0,0,0-1.045,0L4.844,12.234a.739.739,0,0,0,0,1.045l4.8,4.8A.739.739,0,0,0,10.693,18.083Z" transform="translate(507.982 700.707)" fill="#ce0109"/>
  </g>
</svg>
