<svg xmlns="http://www.w3.org/2000/svg" width="38.006" height="35" viewBox="0 0 38.006 35">
  <g id="Group_5447" data-name="Group 5447" transform="translate(-487.7 -3822)">
    <g id="Group_5944" data-name="Group 5944">
      <path id="Path_8659" data-name="Path 8659" d="M-.3-34.85A1.433,1.433,0,0,1,.35-35H4.3a.442.442,0,0,1,.5.5v34a.442.442,0,0,1-.5.5H.5A.442.442,0,0,1,0-.5V-29.85A.168.168,0,0,0-.075-30,.165.165,0,0,0-.25-30L-5.5-28.2a.557.557,0,0,1-.25.05q-.3,0-.35-.4l-.2-2.85q0-.5.3-.6Z" transform="translate(494 3857)" fill="#0c4e97"/>
      <path id="Icon_ionic-ios-arrow-dropright-circle" data-name="Icon ionic-ios-arrow-dropright-circle" d="M25.249,24.1,15.109,14.059a2.39,2.39,0,0,1,3.38-3.38L30.3,22.528a2.387,2.387,0,0,1,.074,3.293L18.736,37.5a2.386,2.386,0,1,1-3.38-3.368Z" transform="translate(494.708 3813.797)" fill="#efb82a"/>
    </g>
  </g>
</svg>
