<svg xmlns="http://www.w3.org/2000/svg" width="38.168" height="31.183" viewBox="0 0 38.168 31.183">
  <g id="Group_5354" data-name="Group 5354" transform="translate(-431.069 -811.639)">
    <g id="Icon_ionic-ios-hammer" data-name="Icon ionic-ios-hammer" transform="translate(436.614 807.139)">
      <path id="Path_8176" data-name="Path 8176" d="M24.561,17.905a2.188,2.188,0,0,0-.378-.486l-1.7-1.609a2,2,0,0,0-2.769-.027c-.591.557-1.67,1.574-3.618,3.422C12.37,22.742,7.045,27.127,3.916,29.656a1.39,1.39,0,0,0-.1,2.1l3.618,3.51a1.54,1.54,0,0,0,2.2-.08c2.713-3.059,7.337-8.161,11.019-11.653,1.892-1.786,2.953-2.812,3.553-3.377A1.878,1.878,0,0,0,24.561,17.905Z" transform="translate(-5.095)" fill="#ce0109"/>
      <path id="Path_8177" data-name="Path 8177" d="M32.513,15.335l-2.426-2.4a.387.387,0,0,0-.281-.113.4.4,0,0,0-.281.113h0a.805.805,0,0,1-.675.232,1.5,1.5,0,0,1-.872-.345c-.492-.485.077-1.441-.359-2.053a17.149,17.149,0,0,0-1.631-1.891,17.929,17.929,0,0,0-5.766-3.72A8.75,8.75,0,0,0,16.9,4.5a6.352,6.352,0,0,0-3.853,1.076c-.387.359-.788.991-.218.991a1.631,1.631,0,0,0,.169-.014,11.825,11.825,0,0,1,1.645-.105,5.522,5.522,0,0,1,3.136.71A5.188,5.188,0,0,1,19.948,10.9a4.017,4.017,0,0,1-1.315,3.2.557.557,0,0,0,.028.766l1.35,1.35a.562.562,0,0,0,.788.007,5.538,5.538,0,0,1,2.2-1.6,3.432,3.432,0,0,1,.9-.113,3.979,3.979,0,0,1,1.659.323.958.958,0,0,1,.218.169,1.2,1.2,0,0,1-.035,1.68l-.141.134a.39.39,0,0,0,0,.555l2.426,2.4a.387.387,0,0,0,.281.112.4.4,0,0,0,.281-.112L32.513,15.9A.412.412,0,0,0,32.513,15.335Z" fill="#ce0109"/>
    </g>
    <path id="Icon_metro-wrench" data-name="Icon metro-wrench" d="M30.656,25.2,15.636,12.12A6.941,6.941,0,0,0,7.493,2.226L11.5,6.234a1.546,1.546,0,0,1,0,2.18L9.057,10.859a1.546,1.546,0,0,1-2.18,0L2.868,6.851a6.94,6.94,0,0,0,9.895,8.143L26.2,29.657a1.409,1.409,0,0,0,2.093.08l2.445-2.445a1.409,1.409,0,0,0-.08-2.093Z" transform="translate(428.498 812.658)" fill="#ce0109"/>
  </g>
</svg>
