<svg xmlns="http://www.w3.org/2000/svg" width="42.585" height="35.4" viewBox="0 0 42.585 35.4">
  <g id="Group_5945" data-name="Group 5945" transform="translate(-459 -3959.6)">
    <path id="Path_8655" data-name="Path 8655" d="M-4.65-4.4a.165.165,0,0,0,0,.175.168.168,0,0,0,.15.075H10.55a.442.442,0,0,1,.5.5V-.5a.442.442,0,0,1-.5.5H-10.4a.442.442,0,0,1-.5-.5V-3.55a.818.818,0,0,1,.25-.6q1.7-1.95,7.8-9.15L.6-17.45Q5.25-23,5.25-26.05a4.845,4.845,0,0,0-1.575-3.775A5.985,5.985,0,0,0-.5-31.25,5.83,5.83,0,0,0-4.65-29.8,4.812,4.812,0,0,0-6.15-26v1.5a.442.442,0,0,1-.5.5H-10.5a.442.442,0,0,1-.5-.5v-2.15a8.522,8.522,0,0,1,1.475-4.6A8.909,8.909,0,0,1-5.8-34.325,12.6,12.6,0,0,1-.5-35.4a12.372,12.372,0,0,1,5.6,1.2,8.926,8.926,0,0,1,3.7,3.3,8.839,8.839,0,0,1,1.3,4.75q0,4.15-4.5,9.8Q3.6-13.8.85-10.625T-4.65-4.4Z" transform="translate(470 3995)" fill="#0c4e97"/>
    <path id="Icon_ionic-ios-arrow-dropright-circle" data-name="Icon ionic-ios-arrow-dropright-circle" d="M25.249,24.1,15.109,14.059a2.39,2.39,0,0,1,3.38-3.38L30.3,22.528a2.387,2.387,0,0,1,.074,3.293L18.736,37.5a2.386,2.386,0,1,1-3.38-3.368Z" transform="translate(470.588 3951.797)" fill="#efb82a"/>
  </g>
</svg>
