<svg xmlns="http://www.w3.org/2000/svg" width="602" height="167.731" viewBox="0 0 602 167.731">
  <g id="Group_6209" data-name="Group 6209" transform="translate(-864 -3741)">
    <g id="Group_5952" data-name="Group 5952">
      <rect id="Rectangle_1605" data-name="Rectangle 1605" width="74" height="79" transform="translate(928 3741)" fill="#fff"/>
      <g id="Group_5949" data-name="Group 5949" transform="translate(0.5)">
        <path id="Icon_awesome-wine-bottle" data-name="Icon awesome-wine-bottle" d="M56.746,8.117,49.153.524a1.79,1.79,0,0,0-2.531,0L44.09,3.056a1.79,1.79,0,0,0,0,2.531L42.565,7.112c-5.21-2.2-18.505,5.851-22.753,10.1L2.1,34.925a7.16,7.16,0,0,0,0,10.124L12.221,55.174a7.16,7.16,0,0,0,10.124,0L40.062,37.456c4.246-4.246,12.3-17.542,10.1-22.753l1.525-1.525a1.79,1.79,0,0,0,2.531,0C57.445,9.949,57.445,8.816,56.746,8.117ZM17.973,54.088h0Z" transform="translate(924.5 3781.543) rotate(-45)" fill="#0c4e97"/>
        <path id="Path_8497" data-name="Path 8497" d="M0,5.967C11.889-4.947,21.19.244,21.19.244V26.42H0Z" transform="translate(954.386 3780.776)" fill="#efb82a"/>
      </g>
    </g>
    <path id="Path_8883" data-name="Path 8883" d="M21.94,5.98a3.806,3.806,0,0,1,2.83,1.08A3.86,3.86,0,0,1,25.84,9.9a3.728,3.728,0,0,1-1.09,2.8,3.941,3.941,0,0,1-2.87,1.06h-3.9a.071.071,0,0,0-.08.08V19.8a.177.177,0,0,1-.2.2H16.68a.177.177,0,0,1-.2-.2V6.18a.177.177,0,0,1,.2-.2Zm-.16,6.6a2.617,2.617,0,0,0,1.92-.73,2.59,2.59,0,0,0,.74-1.93,2.649,2.649,0,0,0-.74-1.96,2.6,2.6,0,0,0-1.92-.74h-3.8a.071.071,0,0,0-.08.08v5.2a.071.071,0,0,0,.08.08Zm13.8.66a10.172,10.172,0,0,1,.08,1.4v.64a.177.177,0,0,1-.2.2H29a.071.071,0,0,0-.08.08,8.927,8.927,0,0,0,.12,1.42,2.392,2.392,0,0,0,.94,1.42,3.065,3.065,0,0,0,1.84.52,2.844,2.844,0,0,0,1.48-.38,2.614,2.614,0,0,0,1-1.08q.12-.18.28-.08l.78.46a.2.2,0,0,1,.08.28,3.6,3.6,0,0,1-1.5,1.51,4.694,4.694,0,0,1-2.3.55,4.211,4.211,0,0,1-2.38-.68,3.647,3.647,0,0,1-1.38-1.84,8.214,8.214,0,0,1-.36-2.76q0-.84.03-1.37a4.364,4.364,0,0,1,.15-.95,3.7,3.7,0,0,1,1.37-2.08,4,4,0,0,1,2.49-.78,3.938,3.938,0,0,1,2.8.92A4.262,4.262,0,0,1,35.58,13.24Zm-4.02-2.28a2.56,2.56,0,0,0-1.63.51,2.363,2.363,0,0,0-.85,1.37,6.477,6.477,0,0,0-.16,1.36.071.071,0,0,0,.08.08h5.18a.071.071,0,0,0,.08-.08,8.991,8.991,0,0,0-.12-1.28,2.527,2.527,0,0,0-.89-1.43A2.64,2.64,0,0,0,31.56,10.96Zm11-1.18a2.36,2.36,0,0,1,1.14.26.211.211,0,0,1,.12.26l-.22.98a.17.17,0,0,1-.26.12,2.035,2.035,0,0,0-.78-.14l-.26.02a2.382,2.382,0,0,0-1.72.77,2.608,2.608,0,0,0-.68,1.85v5.9a.177.177,0,0,1-.2.2H38.68a.177.177,0,0,1-.2-.2V10.08a.177.177,0,0,1,.2-.2H39.7a.177.177,0,0,1,.2.2V11.3q0,.06.03.07t.05-.03a3.185,3.185,0,0,1,1.07-1.15A2.77,2.77,0,0,1,42.56,9.78Zm4.16-1.74A1.094,1.094,0,0,1,45.6,6.92a1.077,1.077,0,0,1,.32-.81,1.187,1.187,0,0,1,1.6,0,1.077,1.077,0,0,1,.32.81,1.094,1.094,0,0,1-1.12,1.12Zm-.56,11.94a.177.177,0,0,1-.2-.2V10.06a.177.177,0,0,1,.2-.2h1.02a.177.177,0,0,1,.2.2v9.72a.177.177,0,0,1-.2.2Zm8.02.12a5.168,5.168,0,0,1-1.99-.36,3.218,3.218,0,0,1-1.34-.96,2.119,2.119,0,0,1-.47-1.34V17.2a.177.177,0,0,1,.2-.2h.96a.177.177,0,0,1,.2.2v.16a1.4,1.4,0,0,0,.69,1.15,2.914,2.914,0,0,0,1.73.49,2.771,2.771,0,0,0,1.68-.47,1.423,1.423,0,0,0,.64-1.19,1.092,1.092,0,0,0-.33-.82,2.373,2.373,0,0,0-.78-.5q-.45-.18-1.39-.46a14.321,14.321,0,0,1-1.84-.64,3.383,3.383,0,0,1-1.21-.89,2.145,2.145,0,0,1-.49-1.45,2.431,2.431,0,0,1,1-2.04,4.251,4.251,0,0,1,2.64-.76,4.962,4.962,0,0,1,1.95.36,3.043,3.043,0,0,1,1.31.99,2.334,2.334,0,0,1,.46,1.41v.06a.177.177,0,0,1-.2.2h-.94a.177.177,0,0,1-.2-.2v-.06a1.36,1.36,0,0,0-.65-1.14,2.975,2.975,0,0,0-1.75-.46,2.93,2.93,0,0,0-1.64.41,1.286,1.286,0,0,0-.62,1.13,1.145,1.145,0,0,0,.6,1.04,8.181,8.181,0,0,0,1.86.72,18.766,18.766,0,0,1,1.88.64,3.457,3.457,0,0,1,1.24.87,2.125,2.125,0,0,1,.52,1.49,2.487,2.487,0,0,1-1.02,2.08A4.329,4.329,0,0,1,54.18,20.1ZM64.68,9.74a3.467,3.467,0,0,1,2.55.94,3.385,3.385,0,0,1,.95,2.52v6.6a.177.177,0,0,1-.2.2H66.96a.177.177,0,0,1-.2-.2V13.48a2.5,2.5,0,0,0-.67-1.8,2.288,2.288,0,0,0-1.73-.7,2.334,2.334,0,0,0-2.46,2.46V19.8a.177.177,0,0,1-.2.2H60.68a.177.177,0,0,1-.2-.2V6.2a.177.177,0,0,1,.2-.2H61.7a.177.177,0,0,1,.2.2v4.74a.067.067,0,0,0,.03.06q.03.02.05-.02A3.087,3.087,0,0,1,64.68,9.74Zm10.08-.02a3.907,3.907,0,0,1,2.78.92,3.189,3.189,0,0,1,.98,2.44V19.8a.177.177,0,0,1-.2.2H77.3a.177.177,0,0,1-.2-.2v-.82a.067.067,0,0,0-.03-.06q-.03-.02-.07.02a3.123,3.123,0,0,1-1.3.91,4.89,4.89,0,0,1-1.78.31,3.854,3.854,0,0,1-2.38-.72,2.572,2.572,0,0,1-.96-2.2,2.87,2.87,0,0,1,1.09-2.37A4.738,4.738,0,0,1,74.7,14h2.32a.071.071,0,0,0,.08-.08v-.76a2.22,2.22,0,0,0-.57-1.61,2.363,2.363,0,0,0-1.77-.59,2.937,2.937,0,0,0-1.56.37,1.549,1.549,0,0,0-.74,1.03.212.212,0,0,1-.24.18l-1.08-.14q-.22-.04-.18-.16a2.579,2.579,0,0,1,1.2-1.82A4.555,4.555,0,0,1,74.76,9.72Zm-.56,9.22a3.517,3.517,0,0,0,2.04-.59,1.836,1.836,0,0,0,.86-1.59V15.2a.071.071,0,0,0-.08-.08h-2.1a3.729,3.729,0,0,0-2.12.54,1.712,1.712,0,0,0-.8,1.5,1.548,1.548,0,0,0,.61,1.33A2.613,2.613,0,0,0,74.2,18.94Zm15.06-6.48a10.061,10.061,0,0,1,.24,2.48,8.958,8.958,0,0,1-.28,2.54,3.79,3.79,0,0,1-1.32,1.96,3.735,3.735,0,0,1-2.34.72,3.3,3.3,0,0,1-1.46-.32,2.933,2.933,0,0,1-1.1-.92.049.049,0,0,0-.06-.03.047.047,0,0,0-.04.05v.86a.177.177,0,0,1-.2.2H81.68a.177.177,0,0,1-.2-.2V6.2a.177.177,0,0,1,.2-.2H82.7a.177.177,0,0,1,.2.2v4.72a.046.046,0,0,0,.03.05q.03.01.07-.03a3.008,3.008,0,0,1,1.1-.9,3.3,3.3,0,0,1,1.46-.32,3.818,3.818,0,0,1,2.38.73A3.7,3.7,0,0,1,89.26,12.46Zm-1.54,4.9a3.368,3.368,0,0,0,.28-.95,10.42,10.42,0,0,0,.08-1.47,8.232,8.232,0,0,0-.11-1.53,3.479,3.479,0,0,0-.35-.99,2.27,2.27,0,0,0-.84-1.06,2.37,2.37,0,0,0-1.38-.4,2.13,2.13,0,0,0-1.31.41,2.264,2.264,0,0,0-.79,1.09,3.6,3.6,0,0,0-.29.96,9.819,9.819,0,0,0-.09,1.52,9.446,9.446,0,0,0,.09,1.49,4.189,4.189,0,0,0,.27.95,2.473,2.473,0,0,0,.8,1.12,2.117,2.117,0,0,0,1.34.42,2.493,2.493,0,0,0,1.45-.42A2.184,2.184,0,0,0,87.72,17.36ZM92.6,20a.177.177,0,0,1-.2-.2V6.2a.177.177,0,0,1,.2-.2h1.02a.177.177,0,0,1,.2.2V19.8a.177.177,0,0,1-.2.2Zm12.16-6.76a10.171,10.171,0,0,1,.08,1.4v.64a.177.177,0,0,1-.2.2H98.18a.071.071,0,0,0-.08.08,8.926,8.926,0,0,0,.12,1.42,2.392,2.392,0,0,0,.94,1.42,3.065,3.065,0,0,0,1.84.52,2.844,2.844,0,0,0,1.48-.38,2.614,2.614,0,0,0,1-1.08q.12-.18.28-.08l.78.46a.2.2,0,0,1,.08.28,3.6,3.6,0,0,1-1.5,1.51,4.694,4.694,0,0,1-2.3.55,4.211,4.211,0,0,1-2.38-.68,3.647,3.647,0,0,1-1.38-1.84,8.214,8.214,0,0,1-.36-2.76q0-.84.03-1.37a4.363,4.363,0,0,1,.15-.95,3.7,3.7,0,0,1,1.37-2.08,4,4,0,0,1,2.49-.78,3.938,3.938,0,0,1,2.8.92A4.262,4.262,0,0,1,104.76,13.24Zm-4.02-2.28a2.56,2.56,0,0,0-1.63.51,2.363,2.363,0,0,0-.85,1.37,6.476,6.476,0,0,0-.16,1.36.071.071,0,0,0,.08.08h5.18a.071.071,0,0,0,.08-.08,8.99,8.99,0,0,0-.12-1.28,2.527,2.527,0,0,0-.89-1.43A2.64,2.64,0,0,0,100.74,10.96ZM110.8,20.1a5.168,5.168,0,0,1-1.99-.36,3.218,3.218,0,0,1-1.34-.96,2.119,2.119,0,0,1-.47-1.34V17.2a.177.177,0,0,1,.2-.2h.96a.177.177,0,0,1,.2.2v.16a1.4,1.4,0,0,0,.69,1.15,2.914,2.914,0,0,0,1.73.49,2.771,2.771,0,0,0,1.68-.47,1.423,1.423,0,0,0,.64-1.19,1.092,1.092,0,0,0-.33-.82,2.373,2.373,0,0,0-.78-.5q-.45-.18-1.39-.46a14.322,14.322,0,0,1-1.84-.64,3.383,3.383,0,0,1-1.21-.89,2.145,2.145,0,0,1-.49-1.45,2.431,2.431,0,0,1,1-2.04,4.251,4.251,0,0,1,2.64-.76,4.962,4.962,0,0,1,1.95.36,3.043,3.043,0,0,1,1.31.99,2.334,2.334,0,0,1,.46,1.41v.06a.177.177,0,0,1-.2.2h-.94a.177.177,0,0,1-.2-.2v-.06a1.36,1.36,0,0,0-.65-1.14,2.975,2.975,0,0,0-1.75-.46,2.93,2.93,0,0,0-1.64.41,1.286,1.286,0,0,0-.62,1.13,1.145,1.145,0,0,0,.6,1.04,8.181,8.181,0,0,0,1.86.72,18.766,18.766,0,0,1,1.88.64,3.458,3.458,0,0,1,1.24.87,2.125,2.125,0,0,1,.52,1.49,2.487,2.487,0,0,1-1.02,2.08A4.329,4.329,0,0,1,110.8,20.1Zm14.12.06a4.082,4.082,0,0,1-2.47-.75,3.757,3.757,0,0,1-1.41-2.03,9.184,9.184,0,0,1-.26-2.48,9.836,9.836,0,0,1,.26-2.44,3.637,3.637,0,0,1,1.4-1.99,4.126,4.126,0,0,1,2.48-.75,4.337,4.337,0,0,1,2.53.74,3.3,3.3,0,0,1,1.51,2.44v.04q0,.14-.18.18l-1,.14h-.04q-.14,0-.18-.18l-.06-.3a2.248,2.248,0,0,0-.88-1.29,2.735,2.735,0,0,0-1.7-.53,2.608,2.608,0,0,0-1.67.53,2.424,2.424,0,0,0-.87,1.41,9.093,9.093,0,0,0-.18,2.02,8.885,8.885,0,0,0,.18,2.04,2.432,2.432,0,0,0,.87,1.43,2.608,2.608,0,0,0,1.67.53,2.82,2.82,0,0,0,1.69-.51,2.16,2.16,0,0,0,.89-1.31v-.08l.02-.08q.02-.2.24-.16l.98.16q.2.04.18.22l-.08.4a3.168,3.168,0,0,1-1.38,1.88A4.472,4.472,0,0,1,124.92,20.16Zm10.38,0a4.166,4.166,0,0,1-2.48-.74,3.791,3.791,0,0,1-1.44-2.04,8.722,8.722,0,0,1-.28-2.46,8.5,8.5,0,0,1,.28-2.44,3.69,3.69,0,0,1,1.42-2.02,4.233,4.233,0,0,1,2.52-.74,4.087,4.087,0,0,1,2.45.74,3.707,3.707,0,0,1,1.41,2,8.346,8.346,0,0,1,.28,2.46,8.224,8.224,0,0,1-.28,2.46,3.71,3.71,0,0,1-1.41,2.04A4.121,4.121,0,0,1,135.3,20.16Zm0-1.24a2.543,2.543,0,0,0,2.56-1.96,8.77,8.77,0,0,0,.18-2.02,9.655,9.655,0,0,0-.16-2.02,2.584,2.584,0,0,0-.93-1.43,2.66,2.66,0,0,0-1.67-.53,2.545,2.545,0,0,0-2.58,1.96,9.655,9.655,0,0,0-.16,2.02,9.655,9.655,0,0,0,.16,2.02,2.487,2.487,0,0,0,.91,1.43A2.692,2.692,0,0,0,135.3,18.92ZM142.54,20a.177.177,0,0,1-.2-.2V6.2a.177.177,0,0,1,.2-.2h1.02a.177.177,0,0,1,.2.2V19.8a.177.177,0,0,1-.2.2ZM153.22,6.2a.177.177,0,0,1,.2-.2h1.02a.177.177,0,0,1,.2.2V19.8a.177.177,0,0,1-.2.2h-1.02a.177.177,0,0,1-.2-.2v-.84a.046.046,0,0,0-.03-.05q-.03-.01-.07.03a3.031,3.031,0,0,1-1.09.9,3.238,3.238,0,0,1-1.45.32,3.778,3.778,0,0,1-2.35-.72,3.661,3.661,0,0,1-1.31-1.96,8.959,8.959,0,0,1-.28-2.54,9.491,9.491,0,0,1,.24-2.48,3.7,3.7,0,0,1,1.32-2.01,3.818,3.818,0,0,1,2.38-.73,3.344,3.344,0,0,1,1.44.31,2.918,2.918,0,0,1,1.1.89q.04.04.07.03a.046.046,0,0,0,.03-.05Zm-.36,11.18a3.563,3.563,0,0,0,.26-.94,10.836,10.836,0,0,0,.08-1.5,11.066,11.066,0,0,0-.08-1.51,3.379,3.379,0,0,0-.28-.97,2.264,2.264,0,0,0-.79-1.09,2.13,2.13,0,0,0-1.31-.41,2.37,2.37,0,0,0-1.38.4,2.27,2.27,0,0,0-.84,1.06,3.48,3.48,0,0,0-.35.99,8.231,8.231,0,0,0-.11,1.53,10.42,10.42,0,0,0,.08,1.47,3.368,3.368,0,0,0,.28.95,2.184,2.184,0,0,0,.85,1.14,2.493,2.493,0,0,0,1.45.42,2.117,2.117,0,0,0,1.34-.42A2.473,2.473,0,0,0,152.86,17.38ZM7.6,33.72a3.908,3.908,0,0,1,2.78.92,3.189,3.189,0,0,1,.98,2.44V43.8a.177.177,0,0,1-.2.2H10.14a.177.177,0,0,1-.2-.2v-.82a.067.067,0,0,0-.03-.06q-.03-.02-.07.02a3.123,3.123,0,0,1-1.3.91,4.89,4.89,0,0,1-1.78.31,3.854,3.854,0,0,1-2.38-.72,2.572,2.572,0,0,1-.96-2.2,2.87,2.87,0,0,1,1.09-2.37A4.738,4.738,0,0,1,7.54,38H9.86a.071.071,0,0,0,.08-.08v-.76a2.22,2.22,0,0,0-.57-1.61,2.363,2.363,0,0,0-1.77-.59,2.937,2.937,0,0,0-1.56.37,1.549,1.549,0,0,0-.74,1.03.212.212,0,0,1-.24.18L3.98,36.4q-.22-.04-.18-.16A2.579,2.579,0,0,1,5,34.42,4.555,4.555,0,0,1,7.6,33.72Zm-.56,9.22a3.517,3.517,0,0,0,2.04-.59,1.836,1.836,0,0,0,.86-1.59V39.2a.071.071,0,0,0-.08-.08H7.76a3.728,3.728,0,0,0-2.12.54,1.712,1.712,0,0,0-.8,1.5,1.548,1.548,0,0,0,.61,1.33A2.613,2.613,0,0,0,7.04,42.94Zm11.48-9.2a3.467,3.467,0,0,1,2.55.94,3.386,3.386,0,0,1,.95,2.52v6.6a.177.177,0,0,1-.2.2H20.8a.177.177,0,0,1-.2-.2V37.48a2.5,2.5,0,0,0-.67-1.8,2.288,2.288,0,0,0-1.73-.7,2.334,2.334,0,0,0-2.46,2.46V43.8a.177.177,0,0,1-.2.2H14.52a.177.177,0,0,1-.2-.2V34.08a.177.177,0,0,1,.2-.2h1.02a.177.177,0,0,1,.2.2v.86a.067.067,0,0,0,.03.06q.03.02.05-.02A3.087,3.087,0,0,1,18.52,33.74ZM31.24,30.2a.177.177,0,0,1,.2-.2h1.02a.177.177,0,0,1,.2.2V43.8a.177.177,0,0,1-.2.2H31.44a.177.177,0,0,1-.2-.2v-.84a.046.046,0,0,0-.03-.05q-.03-.01-.07.03a3.031,3.031,0,0,1-1.09.9,3.238,3.238,0,0,1-1.45.32,3.778,3.778,0,0,1-2.35-.72,3.661,3.661,0,0,1-1.31-1.96,8.958,8.958,0,0,1-.28-2.54,9.49,9.49,0,0,1,.24-2.48,3.7,3.7,0,0,1,1.32-2.01,3.818,3.818,0,0,1,2.38-.73,3.344,3.344,0,0,1,1.44.31,2.918,2.918,0,0,1,1.1.89q.04.04.07.03a.046.046,0,0,0,.03-.05Zm-.36,11.18a3.563,3.563,0,0,0,.26-.94,10.835,10.835,0,0,0,.08-1.5,11.065,11.065,0,0,0-.08-1.51,3.379,3.379,0,0,0-.28-.97,2.264,2.264,0,0,0-.79-1.09,2.13,2.13,0,0,0-1.31-.41,2.37,2.37,0,0,0-1.38.4,2.27,2.27,0,0,0-.84,1.06,3.479,3.479,0,0,0-.35.99,8.231,8.231,0,0,0-.11,1.53,10.42,10.42,0,0,0,.08,1.47,3.369,3.369,0,0,0,.28.95,2.184,2.184,0,0,0,.85,1.14,2.493,2.493,0,0,0,1.45.42,2.117,2.117,0,0,0,1.34-.42A2.473,2.473,0,0,0,30.88,41.38ZM39.42,48q-.14,0-.14-.2V47a.177.177,0,0,1,.2-.2h.08a3,3,0,0,0,1.21-.23,1.757,1.757,0,0,0,.74-.78,10.118,10.118,0,0,0,.67-1.73q.04-.08,0-.12L38.8,34.1l-.02-.08q0-.14.18-.14h1.06a.233.233,0,0,1,.24.16l2.6,8.08a.065.065,0,0,0,.12,0l2.56-8.08a.233.233,0,0,1,.24-.16h1.04q.22,0,.16.22l-3.7,10.78a9.86,9.86,0,0,1-.9,1.98,2.238,2.238,0,0,1-1.05.89,4.965,4.965,0,0,1-1.77.25Zm13.2-3.84a4.166,4.166,0,0,1-2.48-.74,3.791,3.791,0,0,1-1.44-2.04,8.722,8.722,0,0,1-.28-2.46,8.5,8.5,0,0,1,.28-2.44,3.69,3.69,0,0,1,1.42-2.02,4.233,4.233,0,0,1,2.52-.74,4.087,4.087,0,0,1,2.45.74,3.707,3.707,0,0,1,1.41,2,8.346,8.346,0,0,1,.28,2.46,8.224,8.224,0,0,1-.28,2.46,3.71,3.71,0,0,1-1.41,2.04A4.121,4.121,0,0,1,52.62,44.16Zm0-1.24a2.543,2.543,0,0,0,2.56-1.96,8.77,8.77,0,0,0,.18-2.02,9.656,9.656,0,0,0-.16-2.02,2.584,2.584,0,0,0-.93-1.43,2.66,2.66,0,0,0-1.67-.53,2.545,2.545,0,0,0-2.58,1.96,9.656,9.656,0,0,0-.16,2.02,9.656,9.656,0,0,0,.16,2.02,2.487,2.487,0,0,0,.91,1.43A2.692,2.692,0,0,0,52.62,42.92Zm13.16-8.84a.177.177,0,0,1,.2-.2H67a.177.177,0,0,1,.2.2V43.8a.177.177,0,0,1-.2.2H65.98a.177.177,0,0,1-.2-.2v-.86a.064.064,0,0,0-.04-.06.04.04,0,0,0-.06.02,2.983,2.983,0,0,1-2.66,1.24,4.026,4.026,0,0,1-1.77-.39,3.051,3.051,0,0,1-1.28-1.13,3.251,3.251,0,0,1-.47-1.78V34.08a.177.177,0,0,1,.2-.2h1.02a.177.177,0,0,1,.2.2v6.34a2.512,2.512,0,0,0,.64,1.81,2.292,2.292,0,0,0,1.74.67,2.426,2.426,0,0,0,1.81-.68,2.453,2.453,0,0,0,.67-1.8Zm8.68-.3a2.36,2.36,0,0,1,1.14.26.211.211,0,0,1,.12.26l-.22.98a.17.17,0,0,1-.26.12,2.035,2.035,0,0,0-.78-.14l-.26.02a2.382,2.382,0,0,0-1.72.77,2.608,2.608,0,0,0-.68,1.85v5.9a.177.177,0,0,1-.2.2H70.58a.177.177,0,0,1-.2-.2V34.08a.177.177,0,0,1,.2-.2H71.6a.177.177,0,0,1,.2.2V35.3q0,.06.03.07t.05-.03a3.185,3.185,0,0,1,1.07-1.15A2.77,2.77,0,0,1,74.46,33.78ZM85.48,44.16a4.082,4.082,0,0,1-2.47-.75,3.757,3.757,0,0,1-1.41-2.03,9.184,9.184,0,0,1-.26-2.48,9.836,9.836,0,0,1,.26-2.44A3.637,3.637,0,0,1,83,34.47a4.126,4.126,0,0,1,2.48-.75,4.337,4.337,0,0,1,2.53.74,3.3,3.3,0,0,1,1.51,2.44v.04q0,.14-.18.18l-1,.14H88.3q-.14,0-.18-.18l-.06-.3a2.248,2.248,0,0,0-.88-1.29,2.735,2.735,0,0,0-1.7-.53,2.608,2.608,0,0,0-1.67.53,2.424,2.424,0,0,0-.87,1.41,9.093,9.093,0,0,0-.18,2.02,8.885,8.885,0,0,0,.18,2.04,2.432,2.432,0,0,0,.87,1.43,2.608,2.608,0,0,0,1.67.53,2.82,2.82,0,0,0,1.69-.51,2.16,2.16,0,0,0,.89-1.31v-.08l.02-.08q.02-.2.24-.16l.98.16q.2.04.18.22l-.08.4a3.168,3.168,0,0,1-1.38,1.88A4.472,4.472,0,0,1,85.48,44.16Zm10.38,0a4.166,4.166,0,0,1-2.48-.74,3.791,3.791,0,0,1-1.44-2.04,8.722,8.722,0,0,1-.28-2.46,8.5,8.5,0,0,1,.28-2.44,3.69,3.69,0,0,1,1.42-2.02,4.233,4.233,0,0,1,2.52-.74,4.087,4.087,0,0,1,2.45.74,3.707,3.707,0,0,1,1.41,2,8.345,8.345,0,0,1,.28,2.46,8.224,8.224,0,0,1-.28,2.46,3.71,3.71,0,0,1-1.41,2.04A4.121,4.121,0,0,1,95.86,44.16Zm0-1.24a2.543,2.543,0,0,0,2.56-1.96,8.77,8.77,0,0,0,.18-2.02,9.656,9.656,0,0,0-.16-2.02,2.584,2.584,0,0,0-.93-1.43,2.66,2.66,0,0,0-1.67-.53,2.545,2.545,0,0,0-2.58,1.96,9.656,9.656,0,0,0-.16,2.02,9.656,9.656,0,0,0,.16,2.02,2.487,2.487,0,0,0,.91,1.43A2.692,2.692,0,0,0,95.86,42.92Zm10.92-11.68a1.864,1.864,0,0,0-1.5.49,2.679,2.679,0,0,0-.4,1.67v.4a.071.071,0,0,0,.08.08h2.24a.177.177,0,0,1,.2.2v.9a.177.177,0,0,1-.2.2h-2.24a.071.071,0,0,0-.08.08V43.8a.177.177,0,0,1-.2.2h-1a.177.177,0,0,1-.2-.2V35.26a.071.071,0,0,0-.08-.08h-1.34a.177.177,0,0,1-.2-.2v-.9a.177.177,0,0,1,.2-.2h1.34a.071.071,0,0,0,.08-.08v-.48a5.467,5.467,0,0,1,.28-1.95,1.879,1.879,0,0,1,.97-1.04,4.569,4.569,0,0,1,1.93-.33h.58a.177.177,0,0,1,.2.2v.84a.177.177,0,0,1-.2.2Zm7.12,0a1.864,1.864,0,0,0-1.5.49,2.679,2.679,0,0,0-.4,1.67v.4a.071.071,0,0,0,.08.08h2.24a.177.177,0,0,1,.2.2v.9a.177.177,0,0,1-.2.2h-2.24a.071.071,0,0,0-.08.08V43.8a.177.177,0,0,1-.2.2h-1a.177.177,0,0,1-.2-.2V35.26a.071.071,0,0,0-.08-.08h-1.34a.177.177,0,0,1-.2-.2v-.9a.177.177,0,0,1,.2-.2h1.34a.071.071,0,0,0,.08-.08v-.48a5.467,5.467,0,0,1,.28-1.95,1.879,1.879,0,0,1,.97-1.04,4.569,4.569,0,0,1,1.93-.33h.58a.177.177,0,0,1,.2.2v.84a.177.177,0,0,1-.2.2Zm9.94,6a10.171,10.171,0,0,1,.08,1.4v.64a.177.177,0,0,1-.2.2h-6.46a.071.071,0,0,0-.08.08,8.926,8.926,0,0,0,.12,1.42,2.392,2.392,0,0,0,.94,1.42,3.065,3.065,0,0,0,1.84.52,2.844,2.844,0,0,0,1.48-.38,2.614,2.614,0,0,0,1-1.08q.12-.18.28-.08l.78.46a.2.2,0,0,1,.08.28,3.6,3.6,0,0,1-1.5,1.51,4.7,4.7,0,0,1-2.3.55,4.211,4.211,0,0,1-2.38-.68,3.647,3.647,0,0,1-1.38-1.84,8.214,8.214,0,0,1-.36-2.76q0-.84.03-1.37a4.363,4.363,0,0,1,.15-.95,3.7,3.7,0,0,1,1.37-2.08,4,4,0,0,1,2.49-.78,3.938,3.938,0,0,1,2.8.92A4.262,4.262,0,0,1,123.84,37.24Zm-4.02-2.28a2.56,2.56,0,0,0-1.63.51,2.363,2.363,0,0,0-.85,1.37,6.476,6.476,0,0,0-.16,1.36.071.071,0,0,0,.08.08h5.18a.071.071,0,0,0,.08-.08,8.99,8.99,0,0,0-.12-1.28,2.527,2.527,0,0,0-.89-1.43A2.64,2.64,0,0,0,119.82,34.96Zm14.68,2.28a10.173,10.173,0,0,1,.08,1.4v.64a.177.177,0,0,1-.2.2h-6.46a.071.071,0,0,0-.08.08,8.926,8.926,0,0,0,.12,1.42,2.392,2.392,0,0,0,.94,1.42,3.065,3.065,0,0,0,1.84.52,2.844,2.844,0,0,0,1.48-.38,2.614,2.614,0,0,0,1-1.08q.12-.18.28-.08l.78.46a.2.2,0,0,1,.08.28,3.6,3.6,0,0,1-1.5,1.51,4.7,4.7,0,0,1-2.3.55,4.211,4.211,0,0,1-2.38-.68,3.647,3.647,0,0,1-1.38-1.84,8.214,8.214,0,0,1-.36-2.76q0-.84.03-1.37a4.363,4.363,0,0,1,.15-.95,3.7,3.7,0,0,1,1.37-2.08,4,4,0,0,1,2.49-.78,3.938,3.938,0,0,1,2.8.92A4.262,4.262,0,0,1,134.5,37.24Zm-4.02-2.28a2.56,2.56,0,0,0-1.63.51,2.363,2.363,0,0,0-.85,1.37,6.476,6.476,0,0,0-.16,1.36.071.071,0,0,0,.08.08h5.18a.071.071,0,0,0,.08-.08,8.99,8.99,0,0,0-.12-1.28,2.527,2.527,0,0,0-.89-1.43A2.64,2.64,0,0,0,130.48,34.96Zm15.12-1.22a3.467,3.467,0,0,1,2.55.94,3.386,3.386,0,0,1,.95,2.52v6.6a.177.177,0,0,1-.2.2h-1.02a.177.177,0,0,1-.2-.2V37.48a2.5,2.5,0,0,0-.67-1.8,2.288,2.288,0,0,0-1.73-.7,2.334,2.334,0,0,0-2.46,2.46V43.8a.177.177,0,0,1-.2.2H141.6a.177.177,0,0,1-.2-.2V30.2a.177.177,0,0,1,.2-.2h1.02a.177.177,0,0,1,.2.2v4.74a.067.067,0,0,0,.03.06q.03.02.05-.02A3.087,3.087,0,0,1,145.6,33.74Zm10.3,10.42a4.166,4.166,0,0,1-2.48-.74,3.791,3.791,0,0,1-1.44-2.04,8.722,8.722,0,0,1-.28-2.46,8.5,8.5,0,0,1,.28-2.44,3.69,3.69,0,0,1,1.42-2.02,4.233,4.233,0,0,1,2.52-.74,4.087,4.087,0,0,1,2.45.74,3.707,3.707,0,0,1,1.41,2,8.346,8.346,0,0,1,.28,2.46,8.224,8.224,0,0,1-.28,2.46,3.71,3.71,0,0,1-1.41,2.04A4.12,4.12,0,0,1,155.9,44.16Zm0-1.24a2.543,2.543,0,0,0,2.56-1.96,8.77,8.77,0,0,0,.18-2.02,9.655,9.655,0,0,0-.16-2.02,2.584,2.584,0,0,0-.93-1.43,2.66,2.66,0,0,0-1.67-.53,2.545,2.545,0,0,0-2.58,1.96,9.655,9.655,0,0,0-.16,2.02,9.655,9.655,0,0,0,.16,2.02,2.487,2.487,0,0,0,.91,1.43A2.692,2.692,0,0,0,155.9,42.92Zm11.46-8.06a.177.177,0,0,1-.2.2H164.9a.071.071,0,0,0-.08.08v5.9a1.762,1.762,0,0,0,.43,1.35,1.967,1.967,0,0,0,1.35.39h.5a.177.177,0,0,1,.2.2v.82a.177.177,0,0,1-.2.2q-.24.02-.74.02a3.677,3.677,0,0,1-2.18-.54,2.33,2.33,0,0,1-.74-2V35.14a.071.071,0,0,0-.08-.08h-1.22a.177.177,0,0,1-.2-.2v-.78a.177.177,0,0,1,.2-.2h1.22a.071.071,0,0,0,.08-.08V31.48a.177.177,0,0,1,.2-.2h.98a.177.177,0,0,1,.2.2V33.8a.071.071,0,0,0,.08.08h2.26a.177.177,0,0,1,.2.2Z" transform="translate(879.5 3819.846)"/>
    <g id="Group_5951" data-name="Group 5951">
      <rect id="Rectangle_1606" data-name="Rectangle 1606" width="74" height="79" transform="translate(1128 3741)" fill="#fff"/>
      <g id="Group_5824" data-name="Group 5824" transform="translate(1146.5 3751.846)">
        <rect id="Rectangle_1552" data-name="Rectangle 1552" width="30.554" height="49.851" transform="translate(3.216 6.432)" fill="#efb82a"/>
        <path id="Icon_material-phone-android" data-name="Icon material-phone-android" d="M37.25,1.5H15.614A8.1,8.1,0,0,0,7.5,9.614V52.886A8.1,8.1,0,0,0,15.614,61H37.25a8.1,8.1,0,0,0,8.114-8.114V9.614A8.1,8.1,0,0,0,37.25,1.5ZM31.841,55.591H21.023v-2.7H31.841Zm8.79-8.114h-28.4V9.614h28.4Z" transform="translate(-7.5 -1.5)" fill="#0c4e97"/>
      </g>
    </g>
    <path id="Path_8884" data-name="Path 8884" d="M35.28,5.98a3.806,3.806,0,0,1,2.83,1.08A3.86,3.86,0,0,1,39.18,9.9a3.728,3.728,0,0,1-1.09,2.8,3.941,3.941,0,0,1-2.87,1.06h-3.9a.071.071,0,0,0-.08.08V19.8a.177.177,0,0,1-.2.2H30.02a.177.177,0,0,1-.2-.2V6.18a.177.177,0,0,1,.2-.2Zm-.16,6.6a2.617,2.617,0,0,0,1.92-.73,2.59,2.59,0,0,0,.74-1.93,2.649,2.649,0,0,0-.74-1.96,2.6,2.6,0,0,0-1.92-.74h-3.8a.071.071,0,0,0-.08.08v5.2a.071.071,0,0,0,.08.08Zm10.6-2.84a3.467,3.467,0,0,1,2.55.94,3.385,3.385,0,0,1,.95,2.52v6.6a.177.177,0,0,1-.2.2H48a.177.177,0,0,1-.2-.2V13.48a2.5,2.5,0,0,0-.67-1.8,2.288,2.288,0,0,0-1.73-.7,2.334,2.334,0,0,0-2.46,2.46V19.8a.177.177,0,0,1-.2.2H41.72a.177.177,0,0,1-.2-.2V6.2a.177.177,0,0,1,.2-.2h1.02a.177.177,0,0,1,.2.2v4.74a.067.067,0,0,0,.03.06q.03.02.05-.02A3.087,3.087,0,0,1,45.72,9.74Zm10.3,10.42a4.166,4.166,0,0,1-2.48-.74,3.791,3.791,0,0,1-1.44-2.04,8.722,8.722,0,0,1-.28-2.46,8.5,8.5,0,0,1,.28-2.44,3.69,3.69,0,0,1,1.42-2.02,4.233,4.233,0,0,1,2.52-.74,4.087,4.087,0,0,1,2.45.74,3.707,3.707,0,0,1,1.41,2,8.346,8.346,0,0,1,.28,2.46,8.224,8.224,0,0,1-.28,2.46,3.71,3.71,0,0,1-1.41,2.04A4.121,4.121,0,0,1,56.02,20.16Zm0-1.24a2.543,2.543,0,0,0,2.56-1.96,8.77,8.77,0,0,0,.18-2.02,9.656,9.656,0,0,0-.16-2.02,2.584,2.584,0,0,0-.93-1.43A2.66,2.66,0,0,0,56,10.96a2.545,2.545,0,0,0-2.58,1.96,9.656,9.656,0,0,0-.16,2.02,9.656,9.656,0,0,0,.16,2.02,2.487,2.487,0,0,0,.91,1.43A2.692,2.692,0,0,0,56.02,18.92ZM67.26,9.74a3.467,3.467,0,0,1,2.55.94,3.386,3.386,0,0,1,.95,2.52v6.6a.177.177,0,0,1-.2.2H69.54a.177.177,0,0,1-.2-.2V13.48a2.5,2.5,0,0,0-.67-1.8,2.288,2.288,0,0,0-1.73-.7,2.334,2.334,0,0,0-2.46,2.46V19.8a.177.177,0,0,1-.2.2H63.26a.177.177,0,0,1-.2-.2V10.08a.177.177,0,0,1,.2-.2h1.02a.177.177,0,0,1,.2.2v.86a.067.067,0,0,0,.03.06q.03.02.05-.02A3.087,3.087,0,0,1,67.26,9.74Zm14.2,3.5a10.171,10.171,0,0,1,.08,1.4v.64a.177.177,0,0,1-.2.2H74.88a.071.071,0,0,0-.08.08,8.926,8.926,0,0,0,.12,1.42,2.392,2.392,0,0,0,.94,1.42,3.065,3.065,0,0,0,1.84.52,2.844,2.844,0,0,0,1.48-.38,2.614,2.614,0,0,0,1-1.08q.12-.18.28-.08l.78.46a.2.2,0,0,1,.08.28,3.6,3.6,0,0,1-1.5,1.51,4.694,4.694,0,0,1-2.3.55,4.211,4.211,0,0,1-2.38-.68,3.647,3.647,0,0,1-1.38-1.84,8.214,8.214,0,0,1-.36-2.76q0-.84.03-1.37a4.363,4.363,0,0,1,.15-.95,3.7,3.7,0,0,1,1.37-2.08,4,4,0,0,1,2.49-.78,3.938,3.938,0,0,1,2.8.92A4.262,4.262,0,0,1,81.46,13.24Zm-4.02-2.28a2.56,2.56,0,0,0-1.63.51,2.363,2.363,0,0,0-.85,1.37,6.476,6.476,0,0,0-.16,1.36.071.071,0,0,0,.08.08h5.18a.071.071,0,0,0,.08-.08,8.99,8.99,0,0,0-.12-1.28,2.527,2.527,0,0,0-.89-1.43A2.64,2.64,0,0,0,77.44,10.96ZM87.5,20.1a5.168,5.168,0,0,1-1.99-.36,3.218,3.218,0,0,1-1.34-.96,2.119,2.119,0,0,1-.47-1.34V17.2a.177.177,0,0,1,.2-.2h.96a.177.177,0,0,1,.2.2v.16a1.4,1.4,0,0,0,.69,1.15,2.914,2.914,0,0,0,1.73.49,2.771,2.771,0,0,0,1.68-.47,1.423,1.423,0,0,0,.64-1.19,1.092,1.092,0,0,0-.33-.82,2.373,2.373,0,0,0-.78-.5q-.45-.18-1.39-.46a14.322,14.322,0,0,1-1.84-.64,3.383,3.383,0,0,1-1.21-.89,2.145,2.145,0,0,1-.49-1.45,2.431,2.431,0,0,1,1-2.04,4.251,4.251,0,0,1,2.64-.76,4.962,4.962,0,0,1,1.95.36,3.043,3.043,0,0,1,1.31.99,2.334,2.334,0,0,1,.46,1.41v.06a.177.177,0,0,1-.2.2h-.94a.177.177,0,0,1-.2-.2v-.06a1.36,1.36,0,0,0-.65-1.14,2.975,2.975,0,0,0-1.75-.46,2.93,2.93,0,0,0-1.64.41,1.286,1.286,0,0,0-.62,1.13,1.145,1.145,0,0,0,.6,1.04,8.181,8.181,0,0,0,1.86.72,18.765,18.765,0,0,1,1.88.64,3.458,3.458,0,0,1,1.24.87,2.125,2.125,0,0,1,.52,1.49,2.487,2.487,0,0,1-1.02,2.08A4.329,4.329,0,0,1,87.5,20.1Zm14.12.06a4.082,4.082,0,0,1-2.47-.75,3.757,3.757,0,0,1-1.41-2.03,9.184,9.184,0,0,1-.26-2.48,9.836,9.836,0,0,1,.26-2.44,3.637,3.637,0,0,1,1.4-1.99,4.126,4.126,0,0,1,2.48-.75,4.337,4.337,0,0,1,2.53.74,3.3,3.3,0,0,1,1.51,2.44v.04q0,.14-.18.18l-1,.14h-.04q-.14,0-.18-.18l-.06-.3a2.248,2.248,0,0,0-.88-1.29,2.735,2.735,0,0,0-1.7-.53,2.608,2.608,0,0,0-1.67.53,2.424,2.424,0,0,0-.87,1.41,9.093,9.093,0,0,0-.18,2.02,8.885,8.885,0,0,0,.18,2.04,2.432,2.432,0,0,0,.87,1.43,2.608,2.608,0,0,0,1.67.53,2.82,2.82,0,0,0,1.69-.51,2.16,2.16,0,0,0,.89-1.31v-.08l.02-.08q.02-.2.24-.16l.98.16q.2.04.18.22l-.08.4a3.168,3.168,0,0,1-1.38,1.88A4.472,4.472,0,0,1,101.62,20.16ZM112.4,9.74a3.467,3.467,0,0,1,2.55.94,3.385,3.385,0,0,1,.95,2.52v6.6a.177.177,0,0,1-.2.2h-1.02a.177.177,0,0,1-.2-.2V13.48a2.5,2.5,0,0,0-.67-1.8,2.288,2.288,0,0,0-1.73-.7,2.334,2.334,0,0,0-2.46,2.46V19.8a.177.177,0,0,1-.2.2H108.4a.177.177,0,0,1-.2-.2V6.2a.177.177,0,0,1,.2-.2h1.02a.177.177,0,0,1,.2.2v4.74a.067.067,0,0,0,.03.06q.03.02.05-.02A3.087,3.087,0,0,1,112.4,9.74Zm10.08-.02a3.907,3.907,0,0,1,2.78.92,3.189,3.189,0,0,1,.98,2.44V19.8a.177.177,0,0,1-.2.2h-1.02a.177.177,0,0,1-.2-.2v-.82a.067.067,0,0,0-.03-.06q-.03-.02-.07.02a3.123,3.123,0,0,1-1.3.91,4.89,4.89,0,0,1-1.78.31,3.854,3.854,0,0,1-2.38-.72,2.572,2.572,0,0,1-.96-2.2,2.87,2.87,0,0,1,1.09-2.37,4.738,4.738,0,0,1,3.03-.87h2.32a.071.071,0,0,0,.08-.08v-.76a2.22,2.22,0,0,0-.57-1.61,2.363,2.363,0,0,0-1.77-.59,2.937,2.937,0,0,0-1.56.37,1.549,1.549,0,0,0-.74,1.03.212.212,0,0,1-.24.18l-1.08-.14q-.22-.04-.18-.16a2.579,2.579,0,0,1,1.2-1.82A4.555,4.555,0,0,1,122.48,9.72Zm-.56,9.22a3.517,3.517,0,0,0,2.04-.59,1.836,1.836,0,0,0,.86-1.59V15.2a.071.071,0,0,0-.08-.08h-2.1a3.729,3.729,0,0,0-2.12.54,1.712,1.712,0,0,0-.8,1.5,1.548,1.548,0,0,0,.61,1.33A2.613,2.613,0,0,0,121.92,18.94Zm11.36-9.16a2.36,2.36,0,0,1,1.14.26.211.211,0,0,1,.12.26l-.22.98a.17.17,0,0,1-.26.12,2.035,2.035,0,0,0-.78-.14l-.26.02a2.382,2.382,0,0,0-1.72.77,2.608,2.608,0,0,0-.68,1.85v5.9a.177.177,0,0,1-.2.2H129.4a.177.177,0,0,1-.2-.2V10.08a.177.177,0,0,1,.2-.2h1.02a.177.177,0,0,1,.2.2V11.3q0,.06.03.07t.05-.03a3.185,3.185,0,0,1,1.07-1.15A2.77,2.77,0,0,1,133.28,9.78Zm9.2.3a.177.177,0,0,1,.2-.2h1.02a.177.177,0,0,1,.2.2v9.58a3.965,3.965,0,0,1-1.29,3.28,5.505,5.505,0,0,1-3.55,1.04q-.46,0-.7-.02a.2.2,0,0,1-.2-.22l.04-.92a.184.184,0,0,1,.06-.15.15.15,0,0,1,.14-.03l.54.02a4.074,4.074,0,0,0,2.7-.73,2.9,2.9,0,0,0,.84-2.31v-.74a.046.046,0,0,0-.03-.05q-.03-.01-.07.03a3.106,3.106,0,0,1-2.62,1.2,3.957,3.957,0,0,1-2.31-.7,3.371,3.371,0,0,1-1.35-1.98,9.283,9.283,0,0,1-.24-2.44q0-.88.05-1.48a4.633,4.633,0,0,1,.21-1.08,3.733,3.733,0,0,1,1.3-1.93,3.574,3.574,0,0,1,2.26-.73,3.216,3.216,0,0,1,2.7,1.18q.04.04.07.02a.067.067,0,0,0,.03-.06Zm-.1,6.86a5.02,5.02,0,0,0,.08-.74q.02-.44.02-1.28,0-1.02-.02-1.37a3.238,3.238,0,0,0-.1-.65,2.385,2.385,0,0,0-.79-1.39,2.33,2.33,0,0,0-1.59-.55,2.406,2.406,0,0,0-1.59.54,2.842,2.842,0,0,0-.91,1.4,7.275,7.275,0,0,0-.2,2,6.867,6.867,0,0,0,.2,2.02,2.5,2.5,0,0,0,2.5,1.94,2.386,2.386,0,0,0,1.61-.54A2.34,2.34,0,0,0,142.38,16.94Zm12.32-3.7a10.173,10.173,0,0,1,.08,1.4v.64a.177.177,0,0,1-.2.2h-6.46a.071.071,0,0,0-.08.08,8.928,8.928,0,0,0,.12,1.42,2.392,2.392,0,0,0,.94,1.42,3.065,3.065,0,0,0,1.84.52,2.844,2.844,0,0,0,1.48-.38,2.614,2.614,0,0,0,1-1.08q.12-.18.28-.08l.78.46a.2.2,0,0,1,.08.28,3.6,3.6,0,0,1-1.5,1.51,4.7,4.7,0,0,1-2.3.55,4.211,4.211,0,0,1-2.38-.68A3.647,3.647,0,0,1,147,17.66a8.214,8.214,0,0,1-.36-2.76q0-.84.03-1.37a4.364,4.364,0,0,1,.15-.95,3.7,3.7,0,0,1,1.37-2.08,4,4,0,0,1,2.49-.78,3.938,3.938,0,0,1,2.8.92A4.262,4.262,0,0,1,154.7,13.24Zm-4.02-2.28a2.56,2.56,0,0,0-1.63.51,2.363,2.363,0,0,0-.85,1.37,6.477,6.477,0,0,0-.16,1.36.071.071,0,0,0,.08.08h5.18a.071.071,0,0,0,.08-.08,8.99,8.99,0,0,0-.12-1.28,2.527,2.527,0,0,0-.89-1.43A2.64,2.64,0,0,0,150.68,10.96Zm13.2-4.76a.177.177,0,0,1,.2-.2h1.02a.177.177,0,0,1,.2.2V19.8a.177.177,0,0,1-.2.2h-1.02a.177.177,0,0,1-.2-.2v-.84a.046.046,0,0,0-.03-.05q-.03-.01-.07.03a3.031,3.031,0,0,1-1.09.9,3.238,3.238,0,0,1-1.45.32,3.778,3.778,0,0,1-2.35-.72,3.661,3.661,0,0,1-1.31-1.96,8.959,8.959,0,0,1-.28-2.54,9.491,9.491,0,0,1,.24-2.48,3.7,3.7,0,0,1,1.32-2.01,3.818,3.818,0,0,1,2.38-.73,3.344,3.344,0,0,1,1.44.31,2.918,2.918,0,0,1,1.1.89q.04.04.07.03a.046.046,0,0,0,.03-.05Zm-.36,11.18a3.563,3.563,0,0,0,.26-.94,10.836,10.836,0,0,0,.08-1.5,11.066,11.066,0,0,0-.08-1.51,3.379,3.379,0,0,0-.28-.97,2.264,2.264,0,0,0-.79-1.09,2.13,2.13,0,0,0-1.31-.41,2.37,2.37,0,0,0-1.38.4,2.27,2.27,0,0,0-.84,1.06,3.48,3.48,0,0,0-.35.99,8.231,8.231,0,0,0-.11,1.53,10.42,10.42,0,0,0,.08,1.47,3.368,3.368,0,0,0,.28.95,2.184,2.184,0,0,0,.85,1.14,2.493,2.493,0,0,0,1.45.42,2.117,2.117,0,0,0,1.34-.42A2.473,2.473,0,0,0,163.52,17.38ZM53.54,33.72a3.908,3.908,0,0,1,2.78.92,3.189,3.189,0,0,1,.98,2.44V43.8a.177.177,0,0,1-.2.2H56.08a.177.177,0,0,1-.2-.2v-.82a.067.067,0,0,0-.03-.06q-.03-.02-.07.02a3.123,3.123,0,0,1-1.3.91,4.89,4.89,0,0,1-1.78.31,3.854,3.854,0,0,1-2.38-.72,2.572,2.572,0,0,1-.96-2.2,2.87,2.87,0,0,1,1.09-2.37A4.738,4.738,0,0,1,53.48,38H55.8a.071.071,0,0,0,.08-.08v-.76a2.22,2.22,0,0,0-.57-1.61,2.363,2.363,0,0,0-1.77-.59,2.937,2.937,0,0,0-1.56.37,1.549,1.549,0,0,0-.74,1.03.212.212,0,0,1-.24.18l-1.08-.14q-.22-.04-.18-.16a2.579,2.579,0,0,1,1.2-1.82A4.555,4.555,0,0,1,53.54,33.72Zm-.56,9.22a3.517,3.517,0,0,0,2.04-.59,1.836,1.836,0,0,0,.86-1.59V39.2a.071.071,0,0,0-.08-.08H53.7a3.728,3.728,0,0,0-2.12.54,1.712,1.712,0,0,0-.8,1.5,1.548,1.548,0,0,0,.61,1.33A2.613,2.613,0,0,0,52.98,42.94Zm11.48-9.2a3.467,3.467,0,0,1,2.55.94,3.386,3.386,0,0,1,.95,2.52v6.6a.177.177,0,0,1-.2.2H66.74a.177.177,0,0,1-.2-.2V37.48a2.5,2.5,0,0,0-.67-1.8,2.288,2.288,0,0,0-1.73-.7,2.334,2.334,0,0,0-2.46,2.46V43.8a.177.177,0,0,1-.2.2H60.46a.177.177,0,0,1-.2-.2V34.08a.177.177,0,0,1,.2-.2h1.02a.177.177,0,0,1,.2.2v.86a.067.067,0,0,0,.03.06q.03.02.05-.02A3.087,3.087,0,0,1,64.46,33.74ZM77.18,30.2a.177.177,0,0,1,.2-.2H78.4a.177.177,0,0,1,.2.2V43.8a.177.177,0,0,1-.2.2H77.38a.177.177,0,0,1-.2-.2v-.84a.046.046,0,0,0-.03-.05q-.03-.01-.07.03a3.031,3.031,0,0,1-1.09.9,3.238,3.238,0,0,1-1.45.32,3.778,3.778,0,0,1-2.35-.72,3.661,3.661,0,0,1-1.31-1.96,8.958,8.958,0,0,1-.28-2.54,9.49,9.49,0,0,1,.24-2.48,3.7,3.7,0,0,1,1.32-2.01,3.818,3.818,0,0,1,2.38-.73,3.344,3.344,0,0,1,1.44.31,2.918,2.918,0,0,1,1.1.89q.04.04.07.03a.046.046,0,0,0,.03-.05Zm-.36,11.18a3.563,3.563,0,0,0,.26-.94,10.835,10.835,0,0,0,.08-1.5,11.065,11.065,0,0,0-.08-1.51,3.38,3.38,0,0,0-.28-.97,2.264,2.264,0,0,0-.79-1.09,2.13,2.13,0,0,0-1.31-.41,2.37,2.37,0,0,0-1.38.4,2.27,2.27,0,0,0-.84,1.06,3.48,3.48,0,0,0-.35.99,8.231,8.231,0,0,0-.11,1.53,10.419,10.419,0,0,0,.08,1.47,3.368,3.368,0,0,0,.28.95,2.184,2.184,0,0,0,.85,1.14,2.493,2.493,0,0,0,1.45.42,2.117,2.117,0,0,0,1.34-.42A2.473,2.473,0,0,0,76.82,41.38ZM86.02,44a.177.177,0,0,1-.2-.2V30.2a.177.177,0,0,1,.2-.2h1.02a.177.177,0,0,1,.2.2V43.8a.177.177,0,0,1-.2.2Zm5.36-11.96a1.139,1.139,0,0,1-.8-1.93,1.187,1.187,0,0,1,1.6,0,1.125,1.125,0,0,1-.8,1.93Zm-.56,11.94a.177.177,0,0,1-.2-.2V34.06a.177.177,0,0,1,.2-.2h1.02a.177.177,0,0,1,.2.2v9.72a.177.177,0,0,1-.2.2Zm8.9-10.24a3.467,3.467,0,0,1,2.55.94,3.385,3.385,0,0,1,.95,2.52v6.6a.177.177,0,0,1-.2.2H102a.177.177,0,0,1-.2-.2V37.48a2.5,2.5,0,0,0-.67-1.8,2.288,2.288,0,0,0-1.73-.7,2.334,2.334,0,0,0-2.46,2.46V43.8a.177.177,0,0,1-.2.2H95.72a.177.177,0,0,1-.2-.2V34.08a.177.177,0,0,1,.2-.2h1.02a.177.177,0,0,1,.2.2v.86a.067.067,0,0,0,.03.06q.03.02.05-.02A3.087,3.087,0,0,1,99.72,33.74Zm14.2,3.5a10.171,10.171,0,0,1,.08,1.4v.64a.177.177,0,0,1-.2.2h-6.46a.071.071,0,0,0-.08.08,8.926,8.926,0,0,0,.12,1.42,2.392,2.392,0,0,0,.94,1.42,3.065,3.065,0,0,0,1.84.52,2.844,2.844,0,0,0,1.48-.38,2.614,2.614,0,0,0,1-1.08q.12-.18.28-.08l.78.46a.2.2,0,0,1,.08.28,3.6,3.6,0,0,1-1.5,1.51,4.7,4.7,0,0,1-2.3.55,4.211,4.211,0,0,1-2.38-.68,3.647,3.647,0,0,1-1.38-1.84,8.214,8.214,0,0,1-.36-2.76q0-.84.03-1.37a4.363,4.363,0,0,1,.15-.95,3.7,3.7,0,0,1,1.37-2.08,4,4,0,0,1,2.49-.78,3.938,3.938,0,0,1,2.8.92A4.262,4.262,0,0,1,113.92,37.24Zm-4.02-2.28a2.56,2.56,0,0,0-1.63.51,2.363,2.363,0,0,0-.85,1.37,6.476,6.476,0,0,0-.16,1.36.071.071,0,0,0,.08.08h5.18a.071.071,0,0,0,.08-.08,8.99,8.99,0,0,0-.12-1.28,2.527,2.527,0,0,0-.89-1.43A2.64,2.64,0,0,0,109.9,34.96Zm10.06,9.14a5.168,5.168,0,0,1-1.99-.36,3.218,3.218,0,0,1-1.34-.96,2.119,2.119,0,0,1-.47-1.34V41.2a.177.177,0,0,1,.2-.2h.96a.177.177,0,0,1,.2.2v.16a1.4,1.4,0,0,0,.69,1.15,2.914,2.914,0,0,0,1.73.49,2.771,2.771,0,0,0,1.68-.47,1.423,1.423,0,0,0,.64-1.19,1.092,1.092,0,0,0-.33-.82,2.373,2.373,0,0,0-.78-.5q-.45-.18-1.39-.46a14.322,14.322,0,0,1-1.84-.64,3.383,3.383,0,0,1-1.21-.89,2.145,2.145,0,0,1-.49-1.45,2.431,2.431,0,0,1,1-2.04,4.251,4.251,0,0,1,2.64-.76,4.962,4.962,0,0,1,1.95.36,3.043,3.043,0,0,1,1.31.99,2.334,2.334,0,0,1,.46,1.41v.06a.177.177,0,0,1-.2.2h-.94a.177.177,0,0,1-.2-.2v-.06a1.36,1.36,0,0,0-.65-1.14,2.975,2.975,0,0,0-1.75-.46,2.93,2.93,0,0,0-1.64.41,1.286,1.286,0,0,0-.62,1.13,1.145,1.145,0,0,0,.6,1.04,8.181,8.181,0,0,0,1.86.72,18.764,18.764,0,0,1,1.88.64,3.457,3.457,0,0,1,1.24.87,2.125,2.125,0,0,1,.52,1.49,2.487,2.487,0,0,1-1.02,2.08A4.329,4.329,0,0,1,119.96,44.1Zm14.16.06a4.166,4.166,0,0,1-2.48-.74,3.791,3.791,0,0,1-1.44-2.04,8.722,8.722,0,0,1-.28-2.46,8.5,8.5,0,0,1,.28-2.44,3.69,3.69,0,0,1,1.42-2.02,4.233,4.233,0,0,1,2.52-.74,4.087,4.087,0,0,1,2.45.74,3.707,3.707,0,0,1,1.41,2,8.346,8.346,0,0,1,.28,2.46,8.224,8.224,0,0,1-.28,2.46,3.71,3.71,0,0,1-1.41,2.04A4.12,4.12,0,0,1,134.12,44.16Zm0-1.24a2.543,2.543,0,0,0,2.56-1.96,8.77,8.77,0,0,0,.18-2.02,9.655,9.655,0,0,0-.16-2.02,2.584,2.584,0,0,0-.93-1.43,2.66,2.66,0,0,0-1.67-.53,2.545,2.545,0,0,0-2.58,1.96,9.655,9.655,0,0,0-.16,2.02,9.655,9.655,0,0,0,.16,2.02,2.487,2.487,0,0,0,.91,1.43A2.692,2.692,0,0,0,134.12,42.92Zm10.92-11.68a1.864,1.864,0,0,0-1.5.49,2.679,2.679,0,0,0-.4,1.67v.4a.071.071,0,0,0,.08.08h2.24a.177.177,0,0,1,.2.2v.9a.177.177,0,0,1-.2.2h-2.24a.071.071,0,0,0-.08.08V43.8a.177.177,0,0,1-.2.2h-1a.177.177,0,0,1-.2-.2V35.26a.071.071,0,0,0-.08-.08h-1.34a.177.177,0,0,1-.2-.2v-.9a.177.177,0,0,1,.2-.2h1.34a.071.071,0,0,0,.08-.08v-.48a5.467,5.467,0,0,1,.28-1.95,1.879,1.879,0,0,1,.97-1.04,4.569,4.569,0,0,1,1.93-.33h.58a.177.177,0,0,1,.2.2v.84a.177.177,0,0,1-.2.2ZM11.54,68.16a4.082,4.082,0,0,1-2.47-.75,3.757,3.757,0,0,1-1.41-2.03A9.183,9.183,0,0,1,7.4,62.9a9.836,9.836,0,0,1,.26-2.44,3.637,3.637,0,0,1,1.4-1.99,4.126,4.126,0,0,1,2.48-.75,4.337,4.337,0,0,1,2.53.74,3.3,3.3,0,0,1,1.51,2.44v.04q0,.14-.18.18l-1,.14h-.04q-.14,0-.18-.18l-.06-.3a2.248,2.248,0,0,0-.88-1.29,2.735,2.735,0,0,0-1.7-.53,2.608,2.608,0,0,0-1.67.53A2.424,2.424,0,0,0,9,60.9a9.093,9.093,0,0,0-.18,2.02A8.885,8.885,0,0,0,9,64.96a2.432,2.432,0,0,0,.87,1.43,2.608,2.608,0,0,0,1.67.53,2.82,2.82,0,0,0,1.69-.51,2.16,2.16,0,0,0,.89-1.31v-.08l.02-.08q.02-.2.24-.16l.98.16q.2.04.18.22l-.08.4a3.168,3.168,0,0,1-1.38,1.88A4.471,4.471,0,0,1,11.54,68.16Zm10.38,0a4.166,4.166,0,0,1-2.48-.74A3.791,3.791,0,0,1,18,65.38a8.722,8.722,0,0,1-.28-2.46A8.5,8.5,0,0,1,18,60.48a3.69,3.69,0,0,1,1.42-2.02,4.233,4.233,0,0,1,2.52-.74,4.087,4.087,0,0,1,2.45.74,3.707,3.707,0,0,1,1.41,2,8.346,8.346,0,0,1,.28,2.46,8.224,8.224,0,0,1-.28,2.46,3.71,3.71,0,0,1-1.41,2.04A4.121,4.121,0,0,1,21.92,68.16Zm0-1.24a2.543,2.543,0,0,0,2.56-1.96,8.77,8.77,0,0,0,.18-2.02,9.656,9.656,0,0,0-.16-2.02,2.584,2.584,0,0,0-.93-1.43,2.66,2.66,0,0,0-1.67-.53,2.545,2.545,0,0,0-2.58,1.96,12.831,12.831,0,0,0,0,4.04,2.487,2.487,0,0,0,.91,1.43A2.692,2.692,0,0,0,21.92,66.92ZM39.2,57.74a3.143,3.143,0,0,1,2.37.9,3.39,3.39,0,0,1,.87,2.46v6.7a.177.177,0,0,1-.2.2h-1a.177.177,0,0,1-.2-.2V61.38a2.407,2.407,0,0,0-.63-1.75,2.194,2.194,0,0,0-1.65-.65,2.332,2.332,0,0,0-1.71.64,2.3,2.3,0,0,0-.65,1.72V67.8a.177.177,0,0,1-.2.2H35.18a.177.177,0,0,1-.2-.2V61.38a2.43,2.43,0,0,0-.62-1.75,2.187,2.187,0,0,0-1.66-.65,2.264,2.264,0,0,0-1.69.64,2.345,2.345,0,0,0-.63,1.72V67.8a.177.177,0,0,1-.2.2H29.16a.177.177,0,0,1-.2-.2V58.08a.177.177,0,0,1,.2-.2h1.02a.177.177,0,0,1,.2.2v.8a.046.046,0,0,0,.03.05q.03.01.07-.03a2.708,2.708,0,0,1,1.13-.87,3.911,3.911,0,0,1,1.53-.29,3.551,3.551,0,0,1,1.78.42,2.691,2.691,0,0,1,1.12,1.22q.04.1.1,0a2.868,2.868,0,0,1,1.24-1.23A3.933,3.933,0,0,1,39.2,57.74Zm16.54,0a3.143,3.143,0,0,1,2.37.9,3.39,3.39,0,0,1,.87,2.46v6.7a.177.177,0,0,1-.2.2h-1a.177.177,0,0,1-.2-.2V61.38a2.407,2.407,0,0,0-.63-1.75,2.194,2.194,0,0,0-1.65-.65,2.332,2.332,0,0,0-1.71.64,2.3,2.3,0,0,0-.65,1.72V67.8a.177.177,0,0,1-.2.2H51.72a.177.177,0,0,1-.2-.2V61.38a2.43,2.43,0,0,0-.62-1.75,2.187,2.187,0,0,0-1.66-.65,2.264,2.264,0,0,0-1.69.64,2.345,2.345,0,0,0-.63,1.72V67.8a.177.177,0,0,1-.2.2H45.7a.177.177,0,0,1-.2-.2V58.08a.177.177,0,0,1,.2-.2h1.02a.177.177,0,0,1,.2.2v.8a.046.046,0,0,0,.03.05q.03.01.07-.03a2.708,2.708,0,0,1,1.13-.87,3.911,3.911,0,0,1,1.53-.29,3.551,3.551,0,0,1,1.78.42,2.691,2.691,0,0,1,1.12,1.22q.04.1.1,0a2.868,2.868,0,0,1,1.24-1.23A3.933,3.933,0,0,1,55.74,57.74Zm12.42.34a.177.177,0,0,1,.2-.2h1.02a.177.177,0,0,1,.2.2V67.8a.177.177,0,0,1-.2.2H68.36a.177.177,0,0,1-.2-.2v-.86a.064.064,0,0,0-.04-.06.04.04,0,0,0-.06.02,2.983,2.983,0,0,1-2.66,1.24,4.026,4.026,0,0,1-1.77-.39,3.051,3.051,0,0,1-1.28-1.13,3.251,3.251,0,0,1-.47-1.78V58.08a.177.177,0,0,1,.2-.2H63.1a.177.177,0,0,1,.2.2v6.34a2.512,2.512,0,0,0,.64,1.81,2.292,2.292,0,0,0,1.74.67,2.426,2.426,0,0,0,1.81-.68,2.453,2.453,0,0,0,.67-1.8Zm8.8-.34a3.467,3.467,0,0,1,2.55.94,3.385,3.385,0,0,1,.95,2.52v6.6a.177.177,0,0,1-.2.2H79.24a.177.177,0,0,1-.2-.2V61.48a2.5,2.5,0,0,0-.67-1.8,2.288,2.288,0,0,0-1.73-.7,2.334,2.334,0,0,0-2.46,2.46V67.8a.177.177,0,0,1-.2.2H72.96a.177.177,0,0,1-.2-.2V58.08a.177.177,0,0,1,.2-.2h1.02a.177.177,0,0,1,.2.2v.86a.067.067,0,0,0,.03.06q.03.02.05-.02A3.087,3.087,0,0,1,76.96,57.74Zm7.54-1.7a1.139,1.139,0,0,1-.8-1.93,1.187,1.187,0,0,1,1.6,0,1.125,1.125,0,0,1-.8,1.93Zm-.56,11.94a.177.177,0,0,1-.2-.2V58.06a.177.177,0,0,1,.2-.2h1.02a.177.177,0,0,1,.2.2v9.72a.177.177,0,0,1-.2.2Zm8.52.18a4.082,4.082,0,0,1-2.47-.75,3.757,3.757,0,0,1-1.41-2.03,9.183,9.183,0,0,1-.26-2.48,9.836,9.836,0,0,1,.26-2.44,3.637,3.637,0,0,1,1.4-1.99,4.126,4.126,0,0,1,2.48-.75,4.337,4.337,0,0,1,2.53.74A3.3,3.3,0,0,1,96.5,60.9v.04q0,.14-.18.18l-1,.14h-.04q-.14,0-.18-.18l-.06-.3a2.248,2.248,0,0,0-.88-1.29,2.735,2.735,0,0,0-1.7-.53,2.608,2.608,0,0,0-1.67.53,2.424,2.424,0,0,0-.87,1.41,9.093,9.093,0,0,0-.18,2.02,8.885,8.885,0,0,0,.18,2.04,2.432,2.432,0,0,0,.87,1.43,2.608,2.608,0,0,0,1.67.53,2.82,2.82,0,0,0,1.69-.51,2.16,2.16,0,0,0,.89-1.31v-.08l.02-.08q.02-.2.24-.16l.98.16q.2.04.18.22l-.08.4A3.168,3.168,0,0,1,95,67.44,4.471,4.471,0,0,1,92.46,68.16Zm10.08-10.44a3.907,3.907,0,0,1,2.78.92,3.189,3.189,0,0,1,.98,2.44V67.8a.177.177,0,0,1-.2.2h-1.02a.177.177,0,0,1-.2-.2v-.82a.067.067,0,0,0-.03-.06q-.03-.02-.07.02a3.123,3.123,0,0,1-1.3.91,4.89,4.89,0,0,1-1.78.31,3.854,3.854,0,0,1-2.38-.72,2.572,2.572,0,0,1-.96-2.2,2.87,2.87,0,0,1,1.09-2.37,4.738,4.738,0,0,1,3.03-.87h2.32a.071.071,0,0,0,.08-.08v-.76a2.22,2.22,0,0,0-.57-1.61,2.363,2.363,0,0,0-1.77-.59,2.937,2.937,0,0,0-1.56.37,1.549,1.549,0,0,0-.74,1.03.212.212,0,0,1-.24.18l-1.08-.14q-.22-.04-.18-.16a2.579,2.579,0,0,1,1.2-1.82A4.555,4.555,0,0,1,102.54,57.72Zm-.56,9.22a3.517,3.517,0,0,0,2.04-.59,1.836,1.836,0,0,0,.86-1.59V63.2a.071.071,0,0,0-.08-.08h-2.1a3.729,3.729,0,0,0-2.12.54,1.712,1.712,0,0,0-.8,1.5,1.548,1.548,0,0,0,.61,1.33A2.613,2.613,0,0,0,101.98,66.94Zm11.74-8.08a.177.177,0,0,1-.2.2h-2.26a.071.071,0,0,0-.08.08v5.9a1.762,1.762,0,0,0,.43,1.35,1.967,1.967,0,0,0,1.35.39h.5a.177.177,0,0,1,.2.2v.82a.177.177,0,0,1-.2.2q-.24.02-.74.02a3.677,3.677,0,0,1-2.18-.54,2.33,2.33,0,0,1-.74-2V59.14a.071.071,0,0,0-.08-.08H108.5a.177.177,0,0,1-.2-.2v-.78a.177.177,0,0,1,.2-.2h1.22a.071.071,0,0,0,.08-.08V55.48a.177.177,0,0,1,.2-.2h.98a.177.177,0,0,1,.2.2V57.8a.071.071,0,0,0,.08.08h2.26a.177.177,0,0,1,.2.2Zm3.7-2.82a1.139,1.139,0,0,1-.8-1.93,1.187,1.187,0,0,1,1.6,0,1.125,1.125,0,0,1-.8,1.93Zm-.56,11.94a.177.177,0,0,1-.2-.2V58.06a.177.177,0,0,1,.2-.2h1.02a.177.177,0,0,1,.2.2v9.72a.177.177,0,0,1-.2.2Zm8.56.18a4.166,4.166,0,0,1-2.48-.74,3.791,3.791,0,0,1-1.44-2.04,8.722,8.722,0,0,1-.28-2.46,8.5,8.5,0,0,1,.28-2.44,3.69,3.69,0,0,1,1.42-2.02,4.233,4.233,0,0,1,2.52-.74,4.087,4.087,0,0,1,2.45.74,3.707,3.707,0,0,1,1.41,2,8.346,8.346,0,0,1,.28,2.46,8.224,8.224,0,0,1-.28,2.46,3.71,3.71,0,0,1-1.41,2.04A4.121,4.121,0,0,1,125.42,68.16Zm0-1.24a2.543,2.543,0,0,0,2.56-1.96,8.77,8.77,0,0,0,.18-2.02,9.655,9.655,0,0,0-.16-2.02,2.584,2.584,0,0,0-.93-1.43,2.66,2.66,0,0,0-1.67-.53,2.545,2.545,0,0,0-2.58,1.96,12.831,12.831,0,0,0,0,4.04,2.487,2.487,0,0,0,.91,1.43A2.692,2.692,0,0,0,125.42,66.92Zm11.24-9.18a3.467,3.467,0,0,1,2.55.94,3.386,3.386,0,0,1,.95,2.52v6.6a.177.177,0,0,1-.2.2h-1.02a.177.177,0,0,1-.2-.2V61.48a2.5,2.5,0,0,0-.67-1.8,2.288,2.288,0,0,0-1.73-.7,2.334,2.334,0,0,0-2.46,2.46V67.8a.177.177,0,0,1-.2.2h-1.02a.177.177,0,0,1-.2-.2V58.08a.177.177,0,0,1,.2-.2h1.02a.177.177,0,0,1,.2.2v.86a.067.067,0,0,0,.03.06q.03.02.05-.02A3.087,3.087,0,0,1,136.66,57.74ZM151.1,68.16a4.166,4.166,0,0,1-2.48-.74,3.791,3.791,0,0,1-1.44-2.04,8.722,8.722,0,0,1-.28-2.46,8.5,8.5,0,0,1,.28-2.44,3.69,3.69,0,0,1,1.42-2.02,4.233,4.233,0,0,1,2.52-.74,4.087,4.087,0,0,1,2.45.74,3.707,3.707,0,0,1,1.41,2,8.346,8.346,0,0,1,.28,2.46,8.224,8.224,0,0,1-.28,2.46,3.71,3.71,0,0,1-1.41,2.04A4.12,4.12,0,0,1,151.1,68.16Zm0-1.24a2.543,2.543,0,0,0,2.56-1.96,8.771,8.771,0,0,0,.18-2.02,9.655,9.655,0,0,0-.16-2.02,2.584,2.584,0,0,0-.93-1.43,2.66,2.66,0,0,0-1.67-.53,2.545,2.545,0,0,0-2.58,1.96,12.831,12.831,0,0,0,0,4.04,2.487,2.487,0,0,0,.91,1.43A2.692,2.692,0,0,0,151.1,66.92ZM166,60.4a8.758,8.758,0,0,1,.3,2.54,9.184,9.184,0,0,1-.26,2.48,3.719,3.719,0,0,1-1.31,2.01,3.807,3.807,0,0,1-2.39.73,3.344,3.344,0,0,1-1.44-.31,2.918,2.918,0,0,1-1.1-.89q-.04-.04-.07-.03a.046.046,0,0,0-.03.05v4.7a.177.177,0,0,1-.2.2h-1.02a.177.177,0,0,1-.2-.2V58.08a.177.177,0,0,1,.2-.2h1.02a.177.177,0,0,1,.2.2v.84a.046.046,0,0,0,.03.05q.03.01.07-.03a3.031,3.031,0,0,1,1.09-.9,3.238,3.238,0,0,1,1.45-.32,3.778,3.778,0,0,1,2.35.72A3.661,3.661,0,0,1,166,60.4Zm-1.58,5.06a3.926,3.926,0,0,0,.33-.99,8.231,8.231,0,0,0,.11-1.53,10.42,10.42,0,0,0-.08-1.47,3.369,3.369,0,0,0-.28-.95,2.184,2.184,0,0,0-.85-1.14,2.493,2.493,0,0,0-1.45-.42,2.117,2.117,0,0,0-1.34.42,2.472,2.472,0,0,0-.8,1.12,3.562,3.562,0,0,0-.26.94,10.836,10.836,0,0,0-.08,1.5,11.066,11.066,0,0,0,.08,1.51,3.379,3.379,0,0,0,.28.97,2.264,2.264,0,0,0,.79,1.09,2.13,2.13,0,0,0,1.31.41,2.417,2.417,0,0,0,1.39-.4A2.25,2.25,0,0,0,164.42,65.46Zm12.38-4.22a10.173,10.173,0,0,1,.08,1.4v.64a.177.177,0,0,1-.2.2h-6.46a.071.071,0,0,0-.08.08,8.928,8.928,0,0,0,.12,1.42,2.392,2.392,0,0,0,.94,1.42,3.065,3.065,0,0,0,1.84.52,2.844,2.844,0,0,0,1.48-.38,2.614,2.614,0,0,0,1-1.08q.12-.18.28-.08l.78.46a.2.2,0,0,1,.08.28,3.6,3.6,0,0,1-1.5,1.51,4.694,4.694,0,0,1-2.3.55,4.211,4.211,0,0,1-2.38-.68,3.647,3.647,0,0,1-1.38-1.84,8.214,8.214,0,0,1-.36-2.76q0-.84.03-1.37a4.364,4.364,0,0,1,.15-.95,3.7,3.7,0,0,1,1.37-2.08,4,4,0,0,1,2.49-.78,3.938,3.938,0,0,1,2.8.92A4.262,4.262,0,0,1,176.8,61.24Zm-4.02-2.28a2.56,2.56,0,0,0-1.63.51,2.363,2.363,0,0,0-.85,1.37,6.477,6.477,0,0,0-.16,1.36.071.071,0,0,0,.08.08h5.18a.071.071,0,0,0,.08-.08,8.99,8.99,0,0,0-.12-1.28,2.527,2.527,0,0,0-.89-1.43A2.64,2.64,0,0,0,172.78,58.96Zm11.12-1.22a3.467,3.467,0,0,1,2.55.94,3.386,3.386,0,0,1,.95,2.52v6.6a.177.177,0,0,1-.2.2h-1.02a.177.177,0,0,1-.2-.2V61.48a2.5,2.5,0,0,0-.67-1.8,2.288,2.288,0,0,0-1.73-.7,2.334,2.334,0,0,0-2.46,2.46V67.8a.177.177,0,0,1-.2.2H179.9a.177.177,0,0,1-.2-.2V58.08a.177.177,0,0,1,.2-.2h1.02a.177.177,0,0,1,.2.2v.86a.067.067,0,0,0,.03.06q.03.02.05-.02A3.087,3.087,0,0,1,183.9,57.74Z" transform="translate(1067.5 3819.846)"/>
    <g id="Group_5950" data-name="Group 5950">
      <rect id="Rectangle_1607" data-name="Rectangle 1607" width="74" height="79" transform="translate(1328 3741)" fill="#fff"/>
      <g id="Group_5827" data-name="Group 5827" transform="translate(1335.5 3755.766)">
        <rect id="Rectangle_1553" data-name="Rectangle 1553" width="34.946" height="30.835" transform="translate(12.145 19.529)" fill="#efb82a"/>
        <path id="Icon_awesome-briefcase-medical" data-name="Icon awesome-briefcase-medical" d="M53.728,13.366H44.464V7.808A5.559,5.559,0,0,0,38.906,2.25H20.38a5.559,5.559,0,0,0-5.558,5.558v5.558H5.558A5.559,5.559,0,0,0,0,18.924V52.273a5.559,5.559,0,0,0,5.558,5.558h48.17a5.559,5.559,0,0,0,5.558-5.558V18.924A5.559,5.559,0,0,0,53.728,13.366Zm-31.5-3.705H37.054v3.705H22.232ZM40.759,38.377a.929.929,0,0,1-.926.926H33.348v6.484a.929.929,0,0,1-.926.926H26.864a.929.929,0,0,1-.926-.926V39.3H19.453a.929.929,0,0,1-.926-.926V32.819a.929.929,0,0,1,.926-.926h6.484V25.409a.929.929,0,0,1,.926-.926h5.558a.929.929,0,0,1,.926.926v6.484h6.484a.929.929,0,0,1,.926.926Z" transform="translate(0 -2.25)" fill="#0c4e97"/>
      </g>
    </g>
    <path id="Path_8885" data-name="Path 8885" d="M13.96,6.2a.177.177,0,0,1,.2-.2h1.02a.177.177,0,0,1,.2.2V19.8a.177.177,0,0,1-.2.2h-1a.29.29,0,0,1-.24-.14L7.12,8.76q-.02-.06-.06-.05t-.04.07L7.04,19.8a.177.177,0,0,1-.2.2H5.82a.177.177,0,0,1-.2-.2V6.2a.177.177,0,0,1,.2-.2h1a.29.29,0,0,1,.24.14l6.82,11.1q.02.06.06.05t.04-.07Zm12.66,7.04a10.172,10.172,0,0,1,.08,1.4v.64a.177.177,0,0,1-.2.2H20.04a.071.071,0,0,0-.08.08,8.927,8.927,0,0,0,.12,1.42,2.392,2.392,0,0,0,.94,1.42,3.065,3.065,0,0,0,1.84.52,2.844,2.844,0,0,0,1.48-.38,2.614,2.614,0,0,0,1-1.08q.12-.18.28-.08l.78.46a.2.2,0,0,1,.08.28,3.6,3.6,0,0,1-1.5,1.51,4.694,4.694,0,0,1-2.3.55,4.211,4.211,0,0,1-2.38-.68,3.647,3.647,0,0,1-1.38-1.84,8.214,8.214,0,0,1-.36-2.76q0-.84.03-1.37a4.364,4.364,0,0,1,.15-.95,3.7,3.7,0,0,1,1.37-2.08,4,4,0,0,1,2.49-.78,3.938,3.938,0,0,1,2.8.92A4.262,4.262,0,0,1,26.62,13.24ZM22.6,10.96a2.56,2.56,0,0,0-1.63.51,2.363,2.363,0,0,0-.85,1.37,6.477,6.477,0,0,0-.16,1.36.071.071,0,0,0,.08.08h5.18a.071.071,0,0,0,.08-.08,8.991,8.991,0,0,0-.12-1.28,2.527,2.527,0,0,0-.89-1.43A2.64,2.64,0,0,0,22.6,10.96Zm10.74,9.2a4.082,4.082,0,0,1-2.47-.75,3.757,3.757,0,0,1-1.41-2.03,9.183,9.183,0,0,1-.26-2.48,9.836,9.836,0,0,1,.26-2.44,3.637,3.637,0,0,1,1.4-1.99,4.126,4.126,0,0,1,2.48-.75,4.337,4.337,0,0,1,2.53.74,3.3,3.3,0,0,1,1.51,2.44v.04q0,.14-.18.18l-1,.14h-.04q-.14,0-.18-.18l-.06-.3a2.248,2.248,0,0,0-.88-1.29,2.735,2.735,0,0,0-1.7-.53,2.608,2.608,0,0,0-1.67.53,2.424,2.424,0,0,0-.87,1.41,9.093,9.093,0,0,0-.18,2.02,8.885,8.885,0,0,0,.18,2.04,2.432,2.432,0,0,0,.87,1.43,2.608,2.608,0,0,0,1.67.53,2.82,2.82,0,0,0,1.69-.51,2.16,2.16,0,0,0,.89-1.31v-.08l.02-.08q.02-.2.24-.16l.98.16q.2.04.18.22l-.08.4a3.168,3.168,0,0,1-1.38,1.88A4.472,4.472,0,0,1,33.34,20.16Zm14.28-6.92a10.172,10.172,0,0,1,.08,1.4v.64a.177.177,0,0,1-.2.2H41.04a.071.071,0,0,0-.08.08,8.927,8.927,0,0,0,.12,1.42,2.392,2.392,0,0,0,.94,1.42,3.065,3.065,0,0,0,1.84.52,2.844,2.844,0,0,0,1.48-.38,2.614,2.614,0,0,0,1-1.08q.12-.18.28-.08l.78.46a.2.2,0,0,1,.08.28,3.6,3.6,0,0,1-1.5,1.51,4.694,4.694,0,0,1-2.3.55,4.211,4.211,0,0,1-2.38-.68,3.647,3.647,0,0,1-1.38-1.84,8.214,8.214,0,0,1-.36-2.76q0-.84.03-1.37a4.364,4.364,0,0,1,.15-.95,3.7,3.7,0,0,1,1.37-2.08,4,4,0,0,1,2.49-.78,3.938,3.938,0,0,1,2.8.92A4.262,4.262,0,0,1,47.62,13.24ZM43.6,10.96a2.56,2.56,0,0,0-1.63.51,2.363,2.363,0,0,0-.85,1.37,6.477,6.477,0,0,0-.16,1.36.071.071,0,0,0,.08.08h5.18a.071.071,0,0,0,.08-.08,8.991,8.991,0,0,0-.12-1.28,2.527,2.527,0,0,0-.89-1.43A2.64,2.64,0,0,0,43.6,10.96ZM53.66,20.1a5.168,5.168,0,0,1-1.99-.36,3.218,3.218,0,0,1-1.34-.96,2.119,2.119,0,0,1-.47-1.34V17.2a.177.177,0,0,1,.2-.2h.96a.177.177,0,0,1,.2.2v.16a1.4,1.4,0,0,0,.69,1.15,2.914,2.914,0,0,0,1.73.49,2.771,2.771,0,0,0,1.68-.47,1.423,1.423,0,0,0,.64-1.19,1.092,1.092,0,0,0-.33-.82,2.373,2.373,0,0,0-.78-.5q-.45-.18-1.39-.46a14.321,14.321,0,0,1-1.84-.64,3.383,3.383,0,0,1-1.21-.89,2.145,2.145,0,0,1-.49-1.45,2.431,2.431,0,0,1,1-2.04,4.251,4.251,0,0,1,2.64-.76,4.962,4.962,0,0,1,1.95.36,3.043,3.043,0,0,1,1.31.99,2.334,2.334,0,0,1,.46,1.41v.06a.177.177,0,0,1-.2.2h-.94a.177.177,0,0,1-.2-.2v-.06a1.36,1.36,0,0,0-.65-1.14,2.975,2.975,0,0,0-1.75-.46,2.93,2.93,0,0,0-1.64.41,1.286,1.286,0,0,0-.62,1.13,1.145,1.145,0,0,0,.6,1.04,8.181,8.181,0,0,0,1.86.72,18.766,18.766,0,0,1,1.88.64,3.457,3.457,0,0,1,1.24.87,2.125,2.125,0,0,1,.52,1.49,2.487,2.487,0,0,1-1.02,2.08A4.329,4.329,0,0,1,53.66,20.1Zm9.32,0a5.168,5.168,0,0,1-1.99-.36,3.218,3.218,0,0,1-1.34-.96,2.119,2.119,0,0,1-.47-1.34V17.2a.177.177,0,0,1,.2-.2h.96a.177.177,0,0,1,.2.2v.16a1.4,1.4,0,0,0,.69,1.15,2.914,2.914,0,0,0,1.73.49,2.771,2.771,0,0,0,1.68-.47,1.423,1.423,0,0,0,.64-1.19,1.092,1.092,0,0,0-.33-.82,2.373,2.373,0,0,0-.78-.5q-.45-.18-1.39-.46a14.321,14.321,0,0,1-1.84-.64,3.383,3.383,0,0,1-1.21-.89,2.145,2.145,0,0,1-.49-1.45,2.431,2.431,0,0,1,1-2.04,4.251,4.251,0,0,1,2.64-.76,4.962,4.962,0,0,1,1.95.36,3.043,3.043,0,0,1,1.31.99,2.334,2.334,0,0,1,.46,1.41v.06a.177.177,0,0,1-.2.2h-.94a.177.177,0,0,1-.2-.2v-.06a1.36,1.36,0,0,0-.65-1.14,2.975,2.975,0,0,0-1.75-.46,2.93,2.93,0,0,0-1.64.41,1.286,1.286,0,0,0-.62,1.13,1.145,1.145,0,0,0,.6,1.04,8.181,8.181,0,0,0,1.86.72,18.765,18.765,0,0,1,1.88.64,3.458,3.458,0,0,1,1.24.87,2.125,2.125,0,0,1,.52,1.49,2.487,2.487,0,0,1-1.02,2.08A4.329,4.329,0,0,1,62.98,20.1Zm9.8-10.38a3.907,3.907,0,0,1,2.78.92,3.189,3.189,0,0,1,.98,2.44V19.8a.177.177,0,0,1-.2.2H75.32a.177.177,0,0,1-.2-.2v-.82a.067.067,0,0,0-.03-.06q-.03-.02-.07.02a3.123,3.123,0,0,1-1.3.91,4.89,4.89,0,0,1-1.78.31,3.854,3.854,0,0,1-2.38-.72,2.572,2.572,0,0,1-.96-2.2,2.87,2.87,0,0,1,1.09-2.37A4.738,4.738,0,0,1,72.72,14h2.32a.071.071,0,0,0,.08-.08v-.76a2.22,2.22,0,0,0-.57-1.61,2.363,2.363,0,0,0-1.77-.59,2.937,2.937,0,0,0-1.56.37,1.549,1.549,0,0,0-.74,1.03.212.212,0,0,1-.24.18l-1.08-.14q-.22-.04-.18-.16a2.579,2.579,0,0,1,1.2-1.82A4.555,4.555,0,0,1,72.78,9.72Zm-.56,9.22a3.517,3.517,0,0,0,2.04-.59,1.836,1.836,0,0,0,.86-1.59V15.2a.071.071,0,0,0-.08-.08h-2.1a3.729,3.729,0,0,0-2.12.54,1.712,1.712,0,0,0-.8,1.5,1.548,1.548,0,0,0,.61,1.33A2.613,2.613,0,0,0,72.22,18.94ZM83.58,9.78a2.36,2.36,0,0,1,1.14.26.211.211,0,0,1,.12.26l-.22.98a.17.17,0,0,1-.26.12,2.035,2.035,0,0,0-.78-.14l-.26.02a2.382,2.382,0,0,0-1.72.77,2.608,2.608,0,0,0-.68,1.85v5.9a.177.177,0,0,1-.2.2H79.7a.177.177,0,0,1-.2-.2V10.08a.177.177,0,0,1,.2-.2h1.02a.177.177,0,0,1,.2.2V11.3q0,.06.03.07t.05-.03a3.185,3.185,0,0,1,1.07-1.15A2.77,2.77,0,0,1,83.58,9.78ZM86.88,24q-.14,0-.14-.2V23a.177.177,0,0,1,.2-.2h.08a3,3,0,0,0,1.21-.23,1.757,1.757,0,0,0,.74-.78,10.118,10.118,0,0,0,.67-1.73q.04-.08,0-.12L86.26,10.1l-.02-.08q0-.14.18-.14h1.06a.233.233,0,0,1,.24.16l2.6,8.08a.065.065,0,0,0,.12,0L93,10.04a.233.233,0,0,1,.24-.16h1.04q.22,0,.16.22l-3.7,10.78a9.861,9.861,0,0,1-.9,1.98,2.238,2.238,0,0,1-1.05.89,4.965,4.965,0,0,1-1.77.25ZM110.8,9.74a3.143,3.143,0,0,1,2.37.9,3.39,3.39,0,0,1,.87,2.46v6.7a.177.177,0,0,1-.2.2h-1a.177.177,0,0,1-.2-.2V13.38a2.407,2.407,0,0,0-.63-1.75,2.194,2.194,0,0,0-1.65-.65,2.332,2.332,0,0,0-1.71.64,2.3,2.3,0,0,0-.65,1.72V19.8a.177.177,0,0,1-.2.2h-1.02a.177.177,0,0,1-.2-.2V13.38a2.43,2.43,0,0,0-.62-1.75,2.187,2.187,0,0,0-1.66-.65,2.264,2.264,0,0,0-1.69.64,2.345,2.345,0,0,0-.63,1.72V19.8a.177.177,0,0,1-.2.2h-1.02a.177.177,0,0,1-.2-.2V10.08a.177.177,0,0,1,.2-.2h1.02a.177.177,0,0,1,.2.2v.8a.046.046,0,0,0,.03.05q.03.01.07-.03a2.708,2.708,0,0,1,1.13-.87,3.911,3.911,0,0,1,1.53-.29,3.551,3.551,0,0,1,1.78.42,2.691,2.691,0,0,1,1.12,1.22q.04.1.1,0a2.868,2.868,0,0,1,1.24-1.23A3.934,3.934,0,0,1,110.8,9.74Zm13.92,3.5a10.171,10.171,0,0,1,.08,1.4v.64a.177.177,0,0,1-.2.2h-6.46a.071.071,0,0,0-.08.08,8.926,8.926,0,0,0,.12,1.42,2.392,2.392,0,0,0,.94,1.42,3.065,3.065,0,0,0,1.84.52,2.844,2.844,0,0,0,1.48-.38,2.614,2.614,0,0,0,1-1.08q.12-.18.28-.08l.78.46a.2.2,0,0,1,.08.28,3.6,3.6,0,0,1-1.5,1.51,4.694,4.694,0,0,1-2.3.55,4.211,4.211,0,0,1-2.38-.68,3.647,3.647,0,0,1-1.38-1.84,8.214,8.214,0,0,1-.36-2.76q0-.84.03-1.37a4.363,4.363,0,0,1,.15-.95,3.7,3.7,0,0,1,1.37-2.08,4,4,0,0,1,2.49-.78,3.938,3.938,0,0,1,2.8.92A4.262,4.262,0,0,1,124.72,13.24Zm-4.02-2.28a2.56,2.56,0,0,0-1.63.51,2.363,2.363,0,0,0-.85,1.37,6.476,6.476,0,0,0-.16,1.36.071.071,0,0,0,.08.08h5.18a.071.071,0,0,0,.08-.08,8.99,8.99,0,0,0-.12-1.28,2.527,2.527,0,0,0-.89-1.43A2.64,2.64,0,0,0,120.7,10.96ZM133.9,6.2a.177.177,0,0,1,.2-.2h1.02a.177.177,0,0,1,.2.2V19.8a.177.177,0,0,1-.2.2H134.1a.177.177,0,0,1-.2-.2v-.84a.046.046,0,0,0-.03-.05q-.03-.01-.07.03a3.031,3.031,0,0,1-1.09.9,3.238,3.238,0,0,1-1.45.32,3.778,3.778,0,0,1-2.35-.72,3.661,3.661,0,0,1-1.31-1.96,8.958,8.958,0,0,1-.28-2.54,9.49,9.49,0,0,1,.24-2.48,3.7,3.7,0,0,1,1.32-2.01,3.818,3.818,0,0,1,2.38-.73,3.344,3.344,0,0,1,1.44.31,2.918,2.918,0,0,1,1.1.89q.04.04.07.03a.046.046,0,0,0,.03-.05Zm-.36,11.18a3.562,3.562,0,0,0,.26-.94,10.837,10.837,0,0,0,.08-1.5,11.067,11.067,0,0,0-.08-1.51,3.379,3.379,0,0,0-.28-.97,2.264,2.264,0,0,0-.79-1.09,2.13,2.13,0,0,0-1.31-.41,2.37,2.37,0,0,0-1.38.4,2.27,2.27,0,0,0-.84,1.06,3.479,3.479,0,0,0-.35.99,8.231,8.231,0,0,0-.11,1.53,10.42,10.42,0,0,0,.08,1.47,3.368,3.368,0,0,0,.28.95,2.184,2.184,0,0,0,.85,1.14,2.493,2.493,0,0,0,1.45.42,2.117,2.117,0,0,0,1.34-.42A2.473,2.473,0,0,0,133.54,17.38Zm5.96-9.34a1.094,1.094,0,0,1-1.12-1.12,1.077,1.077,0,0,1,.32-.81,1.187,1.187,0,0,1,1.6,0,1.077,1.077,0,0,1,.32.81,1.094,1.094,0,0,1-1.12,1.12Zm-.56,11.94a.177.177,0,0,1-.2-.2V10.06a.177.177,0,0,1,.2-.2h1.02a.177.177,0,0,1,.2.2v9.72a.177.177,0,0,1-.2.2Zm8.52.18a4.082,4.082,0,0,1-2.47-.75,3.757,3.757,0,0,1-1.41-2.03,9.184,9.184,0,0,1-.26-2.48,9.836,9.836,0,0,1,.26-2.44,3.637,3.637,0,0,1,1.4-1.99,4.126,4.126,0,0,1,2.48-.75,4.337,4.337,0,0,1,2.53.74,3.3,3.3,0,0,1,1.51,2.44v.04q0,.14-.18.18l-1,.14h-.04q-.14,0-.18-.18l-.06-.3a2.248,2.248,0,0,0-.88-1.29,2.734,2.734,0,0,0-1.7-.53,2.608,2.608,0,0,0-1.67.53,2.423,2.423,0,0,0-.87,1.41,9.092,9.092,0,0,0-.18,2.02,8.884,8.884,0,0,0,.18,2.04,2.432,2.432,0,0,0,.87,1.43,2.608,2.608,0,0,0,1.67.53,2.82,2.82,0,0,0,1.69-.51,2.16,2.16,0,0,0,.89-1.31v-.08l.02-.08q.02-.2.24-.16l.98.16q.2.04.18.22l-.08.4A3.168,3.168,0,0,1,150,19.44,4.472,4.472,0,0,1,147.46,20.16ZM157.54,9.72a3.907,3.907,0,0,1,2.78.92,3.189,3.189,0,0,1,.98,2.44V19.8a.177.177,0,0,1-.2.2h-1.02a.177.177,0,0,1-.2-.2v-.82a.067.067,0,0,0-.03-.06q-.03-.02-.07.02a3.123,3.123,0,0,1-1.3.91,4.89,4.89,0,0,1-1.78.31,3.854,3.854,0,0,1-2.38-.72,2.572,2.572,0,0,1-.96-2.2,2.87,2.87,0,0,1,1.09-2.37,4.738,4.738,0,0,1,3.03-.87h2.32a.071.071,0,0,0,.08-.08v-.76a2.219,2.219,0,0,0-.57-1.61,2.363,2.363,0,0,0-1.77-.59,2.937,2.937,0,0,0-1.56.37,1.549,1.549,0,0,0-.74,1.03.212.212,0,0,1-.24.18l-1.08-.14q-.22-.04-.18-.16a2.579,2.579,0,0,1,1.2-1.82A4.555,4.555,0,0,1,157.54,9.72Zm-.56,9.22a3.517,3.517,0,0,0,2.04-.59,1.836,1.836,0,0,0,.86-1.59V15.2a.071.071,0,0,0-.08-.08h-2.1a3.729,3.729,0,0,0-2.12.54,1.712,1.712,0,0,0-.8,1.5,1.548,1.548,0,0,0,.61,1.33A2.613,2.613,0,0,0,156.98,18.94ZM164.46,20a.177.177,0,0,1-.2-.2V6.2a.177.177,0,0,1,.2-.2h1.02a.177.177,0,0,1,.2.2V19.8a.177.177,0,0,1-.2.2ZM12.95,37.24a10.172,10.172,0,0,1,.08,1.4v.64a.177.177,0,0,1-.2.2H6.37a.071.071,0,0,0-.08.08,8.927,8.927,0,0,0,.12,1.42,2.392,2.392,0,0,0,.94,1.42,3.065,3.065,0,0,0,1.84.52,2.844,2.844,0,0,0,1.48-.38,2.614,2.614,0,0,0,1-1.08q.12-.18.28-.08l.78.46a.2.2,0,0,1,.08.28,3.6,3.6,0,0,1-1.5,1.51,4.7,4.7,0,0,1-2.3.55,4.211,4.211,0,0,1-2.38-.68,3.647,3.647,0,0,1-1.38-1.84,8.214,8.214,0,0,1-.36-2.76q0-.84.03-1.37a4.364,4.364,0,0,1,.15-.95A3.7,3.7,0,0,1,6.44,34.5a4,4,0,0,1,2.49-.78,3.938,3.938,0,0,1,2.8.92A4.262,4.262,0,0,1,12.95,37.24ZM8.93,34.96a2.56,2.56,0,0,0-1.63.51,2.363,2.363,0,0,0-.85,1.37,6.477,6.477,0,0,0-.16,1.36.071.071,0,0,0,.08.08h5.18a.071.071,0,0,0,.08-.08,8.991,8.991,0,0,0-.12-1.28,2.527,2.527,0,0,0-.89-1.43A2.64,2.64,0,0,0,8.93,34.96Zm13.2-.88a.177.177,0,0,1,.2-.2h1.02a.177.177,0,0,1,.2.2v13.6a.177.177,0,0,1-.2.2H22.33a.177.177,0,0,1-.2-.2v-4.7a.046.046,0,0,0-.03-.05q-.03-.01-.07.03a2.918,2.918,0,0,1-1.1.89,3.344,3.344,0,0,1-1.44.31,3.818,3.818,0,0,1-2.38-.73,3.7,3.7,0,0,1-1.32-2.01,9.49,9.49,0,0,1-.24-2.48,8.958,8.958,0,0,1,.28-2.54,3.661,3.661,0,0,1,1.31-1.96,3.778,3.778,0,0,1,2.35-.72,3.238,3.238,0,0,1,1.45.32,3.031,3.031,0,0,1,1.09.9q.04.04.07.03a.046.046,0,0,0,.03-.05Zm-.38,7.34a3.379,3.379,0,0,0,.28-.97,11.065,11.065,0,0,0,.08-1.51,10.836,10.836,0,0,0-.08-1.5,3.563,3.563,0,0,0-.26-.94,2.473,2.473,0,0,0-.8-1.12,2.117,2.117,0,0,0-1.34-.42,2.493,2.493,0,0,0-1.45.42,2.184,2.184,0,0,0-.85,1.14,3.369,3.369,0,0,0-.28.95,10.42,10.42,0,0,0-.08,1.47,8.231,8.231,0,0,0,.11,1.53,3.479,3.479,0,0,0,.35.99,2.27,2.27,0,0,0,.84,1.06,2.37,2.37,0,0,0,1.38.4,2.13,2.13,0,0,0,1.31-.41A2.264,2.264,0,0,0,21.75,41.42Zm11.26-7.34a.177.177,0,0,1,.2-.2h1.02a.177.177,0,0,1,.2.2V43.8a.177.177,0,0,1-.2.2H33.21a.177.177,0,0,1-.2-.2v-.86a.064.064,0,0,0-.04-.06.04.04,0,0,0-.06.02,2.983,2.983,0,0,1-2.66,1.24,4.026,4.026,0,0,1-1.77-.39,3.051,3.051,0,0,1-1.28-1.13,3.251,3.251,0,0,1-.47-1.78V34.08a.177.177,0,0,1,.2-.2h1.02a.177.177,0,0,1,.2.2v6.34a2.512,2.512,0,0,0,.64,1.81,2.292,2.292,0,0,0,1.74.67,2.426,2.426,0,0,0,1.81-.68,2.453,2.453,0,0,0,.67-1.8Zm5.56-2.04a1.139,1.139,0,0,1-.8-1.93,1.187,1.187,0,0,1,1.6,0,1.125,1.125,0,0,1-.8,1.93Zm-.56,11.94a.177.177,0,0,1-.2-.2V34.06a.177.177,0,0,1,.2-.2h1.02a.177.177,0,0,1,.2.2v9.72a.177.177,0,0,1-.2.2ZM50.57,36.4a8.758,8.758,0,0,1,.3,2.54,9.184,9.184,0,0,1-.26,2.48,3.719,3.719,0,0,1-1.31,2.01,3.808,3.808,0,0,1-2.39.73,3.344,3.344,0,0,1-1.44-.31,2.918,2.918,0,0,1-1.1-.89q-.04-.04-.07-.03a.046.046,0,0,0-.03.05v4.7a.177.177,0,0,1-.2.2H43.05a.177.177,0,0,1-.2-.2V34.08a.177.177,0,0,1,.2-.2h1.02a.177.177,0,0,1,.2.2v.84a.046.046,0,0,0,.03.05q.03.01.07-.03a3.031,3.031,0,0,1,1.09-.9,3.238,3.238,0,0,1,1.45-.32,3.778,3.778,0,0,1,2.35.72A3.661,3.661,0,0,1,50.57,36.4Zm-1.58,5.06a3.926,3.926,0,0,0,.33-.99,8.231,8.231,0,0,0,.11-1.53,10.42,10.42,0,0,0-.08-1.47,3.369,3.369,0,0,0-.28-.95,2.184,2.184,0,0,0-.85-1.14,2.493,2.493,0,0,0-1.45-.42,2.117,2.117,0,0,0-1.34.42,2.473,2.473,0,0,0-.8,1.12,3.563,3.563,0,0,0-.26.94,10.836,10.836,0,0,0-.08,1.5,11.066,11.066,0,0,0,.08,1.51,3.379,3.379,0,0,0,.28.97,2.264,2.264,0,0,0,.79,1.09,2.13,2.13,0,0,0,1.31.41,2.417,2.417,0,0,0,1.39-.4A2.25,2.25,0,0,0,48.99,41.46Zm15-7.72a3.143,3.143,0,0,1,2.37.9,3.39,3.39,0,0,1,.87,2.46v6.7a.177.177,0,0,1-.2.2h-1a.177.177,0,0,1-.2-.2V37.38a2.407,2.407,0,0,0-.63-1.75,2.194,2.194,0,0,0-1.65-.65,2.332,2.332,0,0,0-1.71.64,2.3,2.3,0,0,0-.65,1.72V43.8a.177.177,0,0,1-.2.2H59.97a.177.177,0,0,1-.2-.2V37.38a2.43,2.43,0,0,0-.62-1.75,2.187,2.187,0,0,0-1.66-.65,2.264,2.264,0,0,0-1.69.64,2.345,2.345,0,0,0-.63,1.72V43.8a.177.177,0,0,1-.2.2H53.95a.177.177,0,0,1-.2-.2V34.08a.177.177,0,0,1,.2-.2h1.02a.177.177,0,0,1,.2.2v.8a.046.046,0,0,0,.03.05q.03.01.07-.03a2.708,2.708,0,0,1,1.13-.87,3.911,3.911,0,0,1,1.53-.29,3.551,3.551,0,0,1,1.78.42,2.691,2.691,0,0,1,1.12,1.22q.04.1.1,0a2.868,2.868,0,0,1,1.24-1.23A3.933,3.933,0,0,1,63.99,33.74Zm13.92,3.5a10.171,10.171,0,0,1,.08,1.4v.64a.177.177,0,0,1-.2.2H71.33a.071.071,0,0,0-.08.08,8.926,8.926,0,0,0,.12,1.42,2.392,2.392,0,0,0,.94,1.42,3.065,3.065,0,0,0,1.84.52,2.844,2.844,0,0,0,1.48-.38,2.614,2.614,0,0,0,1-1.08q.12-.18.28-.08l.78.46a.2.2,0,0,1,.08.28,3.6,3.6,0,0,1-1.5,1.51,4.7,4.7,0,0,1-2.3.55,4.211,4.211,0,0,1-2.38-.68,3.647,3.647,0,0,1-1.38-1.84,8.214,8.214,0,0,1-.36-2.76q0-.84.03-1.37a4.363,4.363,0,0,1,.15-.95A3.7,3.7,0,0,1,71.4,34.5a4,4,0,0,1,2.49-.78,3.938,3.938,0,0,1,2.8.92A4.262,4.262,0,0,1,77.91,37.24Zm-4.02-2.28a2.56,2.56,0,0,0-1.63.51,2.363,2.363,0,0,0-.85,1.37,6.476,6.476,0,0,0-.16,1.36.071.071,0,0,0,.08.08h5.18a.071.071,0,0,0,.08-.08,8.99,8.99,0,0,0-.12-1.28,2.527,2.527,0,0,0-.89-1.43A2.64,2.64,0,0,0,73.89,34.96Zm11.12-1.22a3.467,3.467,0,0,1,2.55.94,3.385,3.385,0,0,1,.95,2.52v6.6a.177.177,0,0,1-.2.2H87.29a.177.177,0,0,1-.2-.2V37.48a2.5,2.5,0,0,0-.67-1.8,2.288,2.288,0,0,0-1.73-.7,2.334,2.334,0,0,0-2.46,2.46V43.8a.177.177,0,0,1-.2.2H81.01a.177.177,0,0,1-.2-.2V34.08a.177.177,0,0,1,.2-.2h1.02a.177.177,0,0,1,.2.2v.86a.067.067,0,0,0,.03.06q.03.02.05-.02A3.087,3.087,0,0,1,85.01,33.74Zm11.12,1.12a.177.177,0,0,1-.2.2H93.67a.071.071,0,0,0-.08.08v5.9a1.762,1.762,0,0,0,.43,1.35,1.967,1.967,0,0,0,1.35.39h.5a.177.177,0,0,1,.2.2v.82a.177.177,0,0,1-.2.2q-.24.02-.74.02a3.677,3.677,0,0,1-2.18-.54,2.33,2.33,0,0,1-.74-2V35.14a.071.071,0,0,0-.08-.08H90.91a.177.177,0,0,1-.2-.2v-.78a.177.177,0,0,1,.2-.2h1.22a.071.071,0,0,0,.08-.08V31.48a.177.177,0,0,1,.2-.2h.98a.177.177,0,0,1,.2.2V33.8a.071.071,0,0,0,.08.08h2.26a.177.177,0,0,1,.2.2Zm10.82-1.08a2.36,2.36,0,0,1,1.14.26.211.211,0,0,1,.12.26l-.22.98a.17.17,0,0,1-.26.12,2.035,2.035,0,0,0-.78-.14l-.26.02a2.382,2.382,0,0,0-1.72.77,2.608,2.608,0,0,0-.68,1.85v5.9a.177.177,0,0,1-.2.2h-1.02a.177.177,0,0,1-.2-.2V34.08a.177.177,0,0,1,.2-.2h1.02a.177.177,0,0,1,.2.2V35.3q0,.06.03.07t.05-.03a3.185,3.185,0,0,1,1.07-1.15A2.77,2.77,0,0,1,106.95,33.78Zm9.32.3a.177.177,0,0,1,.2-.2h1.02a.177.177,0,0,1,.2.2V43.8a.177.177,0,0,1-.2.2h-1.02a.177.177,0,0,1-.2-.2v-.86a.064.064,0,0,0-.04-.06.04.04,0,0,0-.06.02,2.983,2.983,0,0,1-2.66,1.24,4.026,4.026,0,0,1-1.77-.39,3.051,3.051,0,0,1-1.28-1.13,3.251,3.251,0,0,1-.47-1.78V34.08a.177.177,0,0,1,.2-.2h1.02a.177.177,0,0,1,.2.2v6.34a2.512,2.512,0,0,0,.64,1.81,2.292,2.292,0,0,0,1.74.67,2.426,2.426,0,0,0,1.81-.68,2.453,2.453,0,0,0,.67-1.8Zm8.8-.34a3.467,3.467,0,0,1,2.55.94,3.385,3.385,0,0,1,.95,2.52v6.6a.177.177,0,0,1-.2.2h-1.02a.177.177,0,0,1-.2-.2V37.48a2.5,2.5,0,0,0-.67-1.8,2.288,2.288,0,0,0-1.73-.7,2.334,2.334,0,0,0-2.46,2.46V43.8a.177.177,0,0,1-.2.2h-1.02a.177.177,0,0,1-.2-.2V34.08a.177.177,0,0,1,.2-.2h1.02a.177.177,0,0,1,.2.2v.86a.067.067,0,0,0,.03.06q.03.02.05-.02A3.087,3.087,0,0,1,125.07,33.74Zm10.78,0a3.467,3.467,0,0,1,2.55.94,3.386,3.386,0,0,1,.95,2.52v6.6a.177.177,0,0,1-.2.2h-1.02a.177.177,0,0,1-.2-.2V37.48a2.5,2.5,0,0,0-.67-1.8,2.288,2.288,0,0,0-1.73-.7,2.334,2.334,0,0,0-2.46,2.46V43.8a.177.177,0,0,1-.2.2h-1.02a.177.177,0,0,1-.2-.2V34.08a.177.177,0,0,1,.2-.2h1.02a.177.177,0,0,1,.2.2v.86a.067.067,0,0,0,.03.06q.03.02.05-.02A3.087,3.087,0,0,1,135.85,33.74Zm7.54-1.7a1.139,1.139,0,0,1-.8-1.93,1.187,1.187,0,0,1,1.6,0,1.125,1.125,0,0,1-.8,1.93Zm-.56,11.94a.177.177,0,0,1-.2-.2V34.06a.177.177,0,0,1,.2-.2h1.02a.177.177,0,0,1,.2.2v9.72a.177.177,0,0,1-.2.2Zm8.9-10.24a3.467,3.467,0,0,1,2.55.94,3.386,3.386,0,0,1,.95,2.52v6.6a.177.177,0,0,1-.2.2h-1.02a.177.177,0,0,1-.2-.2V37.48a2.5,2.5,0,0,0-.67-1.8,2.288,2.288,0,0,0-1.73-.7,2.334,2.334,0,0,0-2.46,2.46V43.8a.177.177,0,0,1-.2.2h-1.02a.177.177,0,0,1-.2-.2V34.08a.177.177,0,0,1,.2-.2h1.02a.177.177,0,0,1,.2.2v.86a.067.067,0,0,0,.03.06q.03.02.05-.02A3.087,3.087,0,0,1,151.73,33.74Zm12.82.34a.177.177,0,0,1,.2-.2h1.02a.177.177,0,0,1,.2.2v9.58a3.965,3.965,0,0,1-1.29,3.28,5.505,5.505,0,0,1-3.55,1.04q-.46,0-.7-.02a.2.2,0,0,1-.2-.22l.04-.92a.184.184,0,0,1,.06-.15.15.15,0,0,1,.14-.03l.54.02a4.074,4.074,0,0,0,2.7-.73,2.9,2.9,0,0,0,.84-2.31v-.74a.046.046,0,0,0-.03-.05q-.03-.01-.07.03a3.106,3.106,0,0,1-2.62,1.2,3.957,3.957,0,0,1-2.31-.7,3.371,3.371,0,0,1-1.35-1.98,9.283,9.283,0,0,1-.24-2.44q0-.88.05-1.48a4.633,4.633,0,0,1,.21-1.08,3.733,3.733,0,0,1,1.3-1.93,3.574,3.574,0,0,1,2.26-.73,3.216,3.216,0,0,1,2.7,1.18q.04.04.07.02a.067.067,0,0,0,.03-.06Zm-.1,6.86a5.02,5.02,0,0,0,.08-.74q.02-.44.02-1.28,0-1.02-.02-1.37a3.238,3.238,0,0,0-.1-.65,2.385,2.385,0,0,0-.79-1.39,2.33,2.33,0,0,0-1.59-.55,2.406,2.406,0,0,0-1.59.54,2.842,2.842,0,0,0-.91,1.4,7.275,7.275,0,0,0-.2,2,6.867,6.867,0,0,0,.2,2.02,2.5,2.5,0,0,0,2.5,1.94,2.386,2.386,0,0,0,1.61-.54A2.34,2.34,0,0,0,164.45,40.94ZM50.63,68.1a5.168,5.168,0,0,1-1.99-.36,3.218,3.218,0,0,1-1.34-.96,2.119,2.119,0,0,1-.47-1.34V65.2a.177.177,0,0,1,.2-.2h.96a.177.177,0,0,1,.2.2v.16a1.4,1.4,0,0,0,.69,1.15,2.914,2.914,0,0,0,1.73.49,2.771,2.771,0,0,0,1.68-.47,1.423,1.423,0,0,0,.64-1.19,1.092,1.092,0,0,0-.33-.82,2.373,2.373,0,0,0-.78-.5q-.45-.18-1.39-.46a14.322,14.322,0,0,1-1.84-.64,3.383,3.383,0,0,1-1.21-.89,2.145,2.145,0,0,1-.49-1.45,2.431,2.431,0,0,1,1-2.04,4.251,4.251,0,0,1,2.64-.76,4.962,4.962,0,0,1,1.95.36,3.043,3.043,0,0,1,1.31.99,2.334,2.334,0,0,1,.46,1.41v.06a.177.177,0,0,1-.2.2h-.94a.177.177,0,0,1-.2-.2v-.06a1.36,1.36,0,0,0-.65-1.14,2.975,2.975,0,0,0-1.75-.46,2.93,2.93,0,0,0-1.64.41,1.286,1.286,0,0,0-.62,1.13,1.145,1.145,0,0,0,.6,1.04,8.181,8.181,0,0,0,1.86.72,18.765,18.765,0,0,1,1.88.64,3.457,3.457,0,0,1,1.24.87,2.125,2.125,0,0,1,.52,1.49,2.487,2.487,0,0,1-1.02,2.08A4.329,4.329,0,0,1,50.63,68.1ZM67.17,57.74a3.143,3.143,0,0,1,2.37.9,3.39,3.39,0,0,1,.87,2.46v6.7a.177.177,0,0,1-.2.2h-1a.177.177,0,0,1-.2-.2V61.38a2.407,2.407,0,0,0-.63-1.75,2.194,2.194,0,0,0-1.65-.65,2.332,2.332,0,0,0-1.71.64,2.3,2.3,0,0,0-.65,1.72V67.8a.177.177,0,0,1-.2.2H63.15a.177.177,0,0,1-.2-.2V61.38a2.43,2.43,0,0,0-.62-1.75,2.187,2.187,0,0,0-1.66-.65,2.264,2.264,0,0,0-1.69.64,2.345,2.345,0,0,0-.63,1.72V67.8a.177.177,0,0,1-.2.2H57.13a.177.177,0,0,1-.2-.2V58.08a.177.177,0,0,1,.2-.2h1.02a.177.177,0,0,1,.2.2v.8a.046.046,0,0,0,.03.05q.03.01.07-.03a2.708,2.708,0,0,1,1.13-.87,3.911,3.911,0,0,1,1.53-.29,3.551,3.551,0,0,1,1.78.42,2.691,2.691,0,0,1,1.12,1.22q.04.1.1,0a2.868,2.868,0,0,1,1.24-1.23A3.933,3.933,0,0,1,67.17,57.74ZM77.19,68.16a4.166,4.166,0,0,1-2.48-.74,3.791,3.791,0,0,1-1.44-2.04,8.722,8.722,0,0,1-.28-2.46,8.5,8.5,0,0,1,.28-2.44,3.69,3.69,0,0,1,1.42-2.02,4.233,4.233,0,0,1,2.52-.74,4.087,4.087,0,0,1,2.45.74,3.707,3.707,0,0,1,1.41,2,8.345,8.345,0,0,1,.28,2.46,8.224,8.224,0,0,1-.28,2.46,3.71,3.71,0,0,1-1.41,2.04A4.121,4.121,0,0,1,77.19,68.16Zm0-1.24a2.543,2.543,0,0,0,2.56-1.96,8.77,8.77,0,0,0,.18-2.02,9.656,9.656,0,0,0-.16-2.02,2.584,2.584,0,0,0-.93-1.43,2.66,2.66,0,0,0-1.67-.53,2.545,2.545,0,0,0-2.58,1.96,12.831,12.831,0,0,0,0,4.04,2.487,2.487,0,0,0,.91,1.43A2.692,2.692,0,0,0,77.19,66.92Zm10.9,1.24a4.166,4.166,0,0,1-2.48-.74,3.791,3.791,0,0,1-1.44-2.04,8.722,8.722,0,0,1-.28-2.46,8.5,8.5,0,0,1,.28-2.44,3.69,3.69,0,0,1,1.42-2.02,4.233,4.233,0,0,1,2.52-.74,4.087,4.087,0,0,1,2.45.74,3.707,3.707,0,0,1,1.41,2,8.345,8.345,0,0,1,.28,2.46,8.224,8.224,0,0,1-.28,2.46,3.71,3.71,0,0,1-1.41,2.04A4.121,4.121,0,0,1,88.09,68.16Zm0-1.24a2.543,2.543,0,0,0,2.56-1.96,8.77,8.77,0,0,0,.18-2.02,9.656,9.656,0,0,0-.16-2.02,2.584,2.584,0,0,0-.93-1.43,2.66,2.66,0,0,0-1.67-.53,2.545,2.545,0,0,0-2.58,1.96,12.831,12.831,0,0,0,0,4.04,2.487,2.487,0,0,0,.91,1.43A2.692,2.692,0,0,0,88.09,66.92Zm11.46-8.06a.177.177,0,0,1-.2.2H97.09a.071.071,0,0,0-.08.08v5.9a1.762,1.762,0,0,0,.43,1.35,1.967,1.967,0,0,0,1.35.39h.5a.177.177,0,0,1,.2.2v.82a.177.177,0,0,1-.2.2q-.24.02-.74.02a3.677,3.677,0,0,1-2.18-.54,2.33,2.33,0,0,1-.74-2V59.14a.071.071,0,0,0-.08-.08H94.33a.177.177,0,0,1-.2-.2v-.78a.177.177,0,0,1,.2-.2h1.22a.071.071,0,0,0,.08-.08V55.48a.177.177,0,0,1,.2-.2h.98a.177.177,0,0,1,.2.2V57.8a.071.071,0,0,0,.08.08h2.26a.177.177,0,0,1,.2.2Zm6.94-1.12a3.467,3.467,0,0,1,2.55.94,3.385,3.385,0,0,1,.95,2.52v6.6a.177.177,0,0,1-.2.2h-1.02a.177.177,0,0,1-.2-.2V61.48a2.5,2.5,0,0,0-.67-1.8,2.288,2.288,0,0,0-1.73-.7,2.334,2.334,0,0,0-2.46,2.46V67.8a.177.177,0,0,1-.2.2h-1.02a.177.177,0,0,1-.2-.2V54.2a.177.177,0,0,1,.2-.2h1.02a.177.177,0,0,1,.2.2v4.74a.067.067,0,0,0,.03.06q.03.02.05-.02A3.087,3.087,0,0,1,106.49,57.74ZM113.27,68a.177.177,0,0,1-.2-.2V54.2a.177.177,0,0,1,.2-.2h1.02a.177.177,0,0,1,.2.2V67.8a.177.177,0,0,1-.2.2Zm3.94,4q-.14,0-.14-.2V71a.177.177,0,0,1,.2-.2h.08a3,3,0,0,0,1.21-.23,1.757,1.757,0,0,0,.74-.78,10.118,10.118,0,0,0,.67-1.73q.04-.08,0-.12l-3.38-9.84-.02-.08q0-.14.18-.14h1.06a.233.233,0,0,1,.24.16l2.6,8.08a.065.065,0,0,0,.12,0l2.56-8.08a.233.233,0,0,1,.24-.16h1.04q.22,0,.16.22l-3.7,10.78a9.861,9.861,0,0,1-.9,1.98,2.238,2.238,0,0,1-1.05.89,4.965,4.965,0,0,1-1.77.25Z" transform="translate(1279.5 3819.846)"/>
    <path id="Path_8498" data-name="Path 8498" d="M2232.2,3927.795h-202v-129.5h2v127.5h198v-127.5h2Z" transform="translate(-1166.2 -19.063)" fill="#0c4e97"/>
    <path id="Path_8499" data-name="Path 8499" d="M2232.2,3927.795h-202v-129.5h2v127.5h198v-127.5h2Z" transform="translate(-966.2 -19.063)" fill="#0c4e97"/>
    <path id="Path_8500" data-name="Path 8500" d="M2232.2,3927.795h-202v-129.5h2v127.5h198v-127.5h2Z" transform="translate(-766.2 -19.063)" fill="#0c4e97"/>
  </g>
</svg>
