<svg xmlns="http://www.w3.org/2000/svg" width="43.806" height="35" viewBox="0 0 43.806 35">
  <g id="Group_5947" data-name="Group 5947" transform="translate(-1005.9 -3959.731)">
    <path id="Path_8657" data-name="Path 8657" d="M10.95-13.7a.442.442,0,0,1,.5.5v3.3a.442.442,0,0,1-.5.5H8.8a.177.177,0,0,0-.2.2V-.5a.442.442,0,0,1-.5.5H4.3a.442.442,0,0,1-.5-.5V-9.2a.177.177,0,0,0-.2-.2H-11.6a.442.442,0,0,1-.5-.5v-2.7a1.574,1.574,0,0,1,.15-.6L-2.1-34.65A.548.548,0,0,1-1.55-35h4a.431.431,0,0,1,.375.175.423.423,0,0,1,.025.425l-9.4,20.45a.165.165,0,0,0,0,.175.168.168,0,0,0,.15.075h10a.177.177,0,0,0,.2-.2v-7.45a.442.442,0,0,1,.5-.5H8.1a.442.442,0,0,1,.5.5v7.45a.177.177,0,0,0,.2.2Z" transform="translate(1018 3994.731)" fill="#0c4e97"/>
    <path id="Icon_ionic-ios-arrow-dropright-circle" data-name="Icon ionic-ios-arrow-dropright-circle" d="M25.249,24.1,15.109,14.059a2.39,2.39,0,0,1,3.38-3.38L30.3,22.528a2.387,2.387,0,0,1,.074,3.293L18.736,37.5a2.386,2.386,0,1,1-3.38-3.368Z" transform="translate(1018.708 3951.529)" fill="#efb82a"/>
  </g>
</svg>
