<svg xmlns="http://www.w3.org/2000/svg" width="25" height="25" viewBox="0 0 25 25">
  <g id="Group_5398" data-name="Group 5398" transform="translate(-22 -4823)">
    <circle id="Ellipse_55" data-name="Ellipse 55" cx="12.5" cy="12.5" r="12.5" transform="translate(22 4823)" fill="#de007a"/>
    <path id="Path_9148" data-name="Path 9148" d="M12.012-6.71a.255.255,0,0,1,.187.077.255.255,0,0,1,.077.187v2.222a.255.255,0,0,1-.077.187.255.255,0,0,1-.187.077h-.946a.1.1,0,0,0-.11.11V-.264a.255.255,0,0,1-.077.187A.255.255,0,0,1,10.692,0H8.118a.255.255,0,0,1-.187-.077.255.255,0,0,1-.077-.187V-3.85a.1.1,0,0,0-.11-.11H.99A.255.255,0,0,1,.8-4.037a.255.255,0,0,1-.077-.187v-1.76a1.086,1.086,0,0,1,.066-.33L4.752-15.2a.311.311,0,0,1,.308-.2H7.81a.242.242,0,0,1,.209.077.236.236,0,0,1-.011.231L4.334-6.842a.093.093,0,0,0,0,.088A.07.07,0,0,0,4.4-6.71H7.744a.1.1,0,0,0,.11-.11V-9.548a.255.255,0,0,1,.077-.187.255.255,0,0,1,.187-.077h2.574a.255.255,0,0,1,.187.077.255.255,0,0,1,.077.187V-6.82a.1.1,0,0,0,.11.11Z" transform="translate(28 4843)" fill="#fff"/>
  </g>
</svg>
