<svg xmlns="http://www.w3.org/2000/svg" width="25" height="25" viewBox="0 0 25 25">
  <g id="Group_5406" data-name="Group 5406" transform="translate(-28 -4605)">
    <circle id="Ellipse_54" data-name="Ellipse 54" cx="12.5" cy="12.5" r="12.5" transform="translate(28 4605)" fill="#de007a"/>
    <path id="Path_9145" data-name="Path 9145" d="M3.3-15.334a.654.654,0,0,1,.33-.066H6.292a.255.255,0,0,1,.187.077.255.255,0,0,1,.077.187V-.264a.255.255,0,0,1-.077.187A.255.255,0,0,1,6.292,0H3.718a.255.255,0,0,1-.187-.077.255.255,0,0,1-.077-.187V-12.32a.127.127,0,0,0-.044-.088.072.072,0,0,0-.088-.022l-2.178.594-.088.022q-.2,0-.2-.242L.792-13.948a.311.311,0,0,1,.2-.308Z" transform="translate(36 4626)" fill="#fff" opacity="0.999"/>
  </g>
</svg>
