<svg xmlns="http://www.w3.org/2000/svg" xmlns:xlink="http://www.w3.org/1999/xlink" width="355.066" height="287.324" viewBox="0 0 355.066 287.324">
  <defs>
    <clipPath id="clip-path">
      <rect id="Rectangle_629" data-name="Rectangle 629" width="355.066" height="287.324" fill="none"/>
    </clipPath>
    <clipPath id="clip-path-2">
      <path id="Path_6990" data-name="Path 6990" d="M61.43,41.1l-.27-.407s8.622-10.14,10.9-12.3c-3.68-3.121-10.6-2.824-14.826-.4-5.759,3.294-9.523,11.262-8.589,17.924.4,3.932,3.018,7.9,6.39,9.282a10.918,10.918,0,0,0,3.235-1.289c6.094-3.725,11.587-8.268,15.464-14.219a24.916,24.916,0,0,0,5.389.613c8.213-2,24.069-16.42,17.464-21.917a6.019,6.019,0,0,0-3.979-1.363C81.259,17.033,61.43,41.1,61.43,41.1" transform="translate(-48.504 -17.031)" fill="none"/>
    </clipPath>
    <clipPath id="clip-path-3">
      <path id="Path_7039" data-name="Path 7039" d="M61.43,41.1l-.27-.407s8.622-10.14,10.9-12.3c-3.68-3.121-10.6-2.824-14.826-.4-5.759,3.294-9.523,11.262-8.589,17.924.4,3.932,3.018,7.9,6.39,9.282a10.918,10.918,0,0,0,3.235-1.289C64.366,50.193,69.858,45.65,73.736,39.7a24.916,24.916,0,0,0,5.389.613c8.213-2,24.069-16.42,17.464-21.917A6.021,6.021,0,0,0,92.61,17.03C81.259,17.034,61.43,41.1,61.43,41.1" transform="translate(-48.504 -17.03)" fill="none"/>
    </clipPath>
  </defs>
  <g id="Group_5356" data-name="Group 5356" transform="translate(-1163.78 -216.676)">
    <g id="Group_3499" data-name="Group 3499" transform="translate(1163.78 216.676)">
      <g id="Group_3490" data-name="Group 3490">
        <g id="Group_3489" data-name="Group 3489" clip-path="url(#clip-path)">
          <path id="Path_6907" data-name="Path 6907" d="M3.947,185.024H84.292a3.447,3.447,0,0,0,3.447-3.447v-72.4a3.447,3.447,0,0,0-3.447-3.447H3.947A3.447,3.447,0,0,0,.5,109.181v72.4a3.447,3.447,0,0,0,3.447,3.447" transform="translate(0.479 101.321)" fill="#fff"/>
          <path id="Rectangle_626" data-name="Rectangle 626" d="M1.76-.5H85.48a2.262,2.262,0,0,1,2.259,2.259V77.531A2.262,2.262,0,0,1,85.48,79.79H1.76A2.263,2.263,0,0,1-.5,77.53V1.76A2.263,2.263,0,0,1,1.76-.5ZM85.48,78.79a1.26,1.26,0,0,0,1.259-1.259V1.759A1.26,1.26,0,0,0,85.48.5H1.76A1.261,1.261,0,0,0,.5,1.76V77.53a1.261,1.261,0,0,0,1.26,1.26Z" transform="translate(0.978 207.055)" fill="#fff"/>
          <path id="Path_6908" data-name="Path 6908" d="M311.195,165.531s13.849-4.408,2.326-17.991a20.613,20.613,0,0,0-2.309-1.708,15.935,15.935,0,0,0-3.546-1.633,16.429,16.429,0,0,0-7.218-1.453,15.621,15.621,0,0,0-6.623,1.412,17.817,17.817,0,0,0-7.12-1.253,36.445,36.445,0,0,0-3.727.186l-.01-.071H259.332a76.843,76.843,0,0,0,12.157-19.978,88.261,88.261,0,0,1,10.62-6.864l1.674-.977c10.743-6.3,22.448-14.671,27.827-29.086a32.545,32.545,0,0,0,1.379-17.779c-.77-3.821-1.878-7.8-4.757-10.988l-.552-.611L307,56.272a10.177,10.177,0,0,0-5.755-1.788,11.238,11.238,0,0,0-5.875,1.729l-.309.19-.288.221c-1.424,1.1-5.757,4.439-2.323,13.291.2.519.505,1.3.55,1.537l.031.368.137.668c.754,3.578-.121,7.886-2.428,12.061-2.728,4.8-7.048,8.117-12.094,11.726a104.49,104.49,0,0,0,.869-13.326c0-29.583-15.968-47.245-42.708-47.245-20.519,0-36.267,10.277-46.826,25.33l4.663-23.313H165.9a10.651,10.651,0,0,0-9.866-7.443,13.2,13.2,0,0,0-4.318-2.27,11.923,11.923,0,0,0-3.546-.548,11.389,11.389,0,0,0-4.51.938,12.38,12.38,0,0,0-5.816.464l-.66.219-.605.347a9.33,9.33,0,0,0-3.629,4.1,10.629,10.629,0,0,0-1.114.875c-1.447-1.649-3.883-3.114-7.972-3.114l-.578.006c-1.976.051-4.044.11-6.167.206,1.77-4.645,1.733-8.748-.125-12.253-2.2-4.152-6.785-6.629-12.267-6.629a19.27,19.27,0,0,0-5.168.711c-6.182,1.725-12.39,6.407-16.3,9.8a23.138,23.138,0,0,0-8.28-1.492,22.068,22.068,0,0,0-10.226,2.377,23.413,23.413,0,0,0-9.233,7.9c-2.9,4.324-4.175,10.759-4.159,15.19a21.753,21.753,0,0,0,.8,5.961,20.6,20.6,0,0,0-4.4,7.714A54.825,54.825,0,0,1,41.9,72.649c-.64,1.028-1.195,1.915-1.651,2.781l-.476.9a22.509,22.509,0,0,0-2.113,4.935l-.1,2.951,2.3,10q.37.817.754,1.641c1.026,2.371,2.207,4.774,3.507,7.14l.777,1.39C51,115.811,58.1,126.6,59.347,128.064a9.317,9.317,0,0,0,7.159,3.427,8.736,8.736,0,0,0,3.846-.877l2.1-1.042,1.03-2.1A319.966,319.966,0,0,1,91.37,95.529q2.174,1.765,4.126,3.689L92.053,111.5l9.748-.65c1.21-.08,2.393-.17,3.582-.26,3.8-.29,7.385-.564,12.261-.564,23.513,0,23.513,5.932,23.513,7.882,0,3.362-7.919,6.2-17.293,6.2-1.439,0-2.949-.072-4.512-.211-3.259-2.559-8.074-5.657-12.274-5.657a9.874,9.874,0,0,0-4.982,1.316,15.276,15.276,0,0,1-1.48-.8l-7.5-4.655L81.4,150.294l3.566,2.992a27.75,27.75,0,0,0,7.067,4.13C87.269,165.437,80.22,176.9,73,187.227c-22.782.446-33.048,13.678-33.048,23.123a11.08,11.08,0,0,0,6.319,10.373v53.525H315.147v-79.1h-14.1a143.665,143.665,0,0,0,10.661-11.92l3.889-4.837-7.667-7.651c.018-.221.029-.446.029-.678a7.519,7.519,0,0,0-.231-1.806c.172-.184.325-.384.486-.58l.043.059.21-.157.21.157.527-.711ZM222.433,87.974c3.145-9.413,7.236-15.261,10.676-15.261,1.753,0,2.84,4.375,2.84,11.413a99.029,99.029,0,0,1-4.637,26.423c-3.076,9.4-7.155,15.241-10.641,15.241H220.5c-1.778,0-2.838-4.328-2.838-11.579,0-4.964,1.478-16.387,4.768-26.237" transform="translate(35.986 12.097)" fill="#fff"/>
          <path id="Path_6909" data-name="Path 6909" d="M315.147,274.748H46.273a.5.5,0,0,1-.5-.5V221.037a11.193,11.193,0,0,1-4.527-4.124,12.432,12.432,0,0,1-1.792-6.563,17.258,17.258,0,0,1,2.015-7.763,24.46,24.46,0,0,1,6.144-7.556c4.316-3.623,12.17-7.99,25.124-8.3,7.073-10.139,13.95-21.31,18.578-29.082a27.67,27.67,0,0,1-6.668-3.981l-3.566-2.992a.5.5,0,0,1-.154-.537l11.714-36.187a.5.5,0,0,1,.739-.271l7.5,4.655c.339.211.742.431,1.2.656a10.327,10.327,0,0,1,5-1.252c4.284,0,9.121,3.062,12.466,5.672,1.51.13,2.963.2,4.32.2a36.782,36.782,0,0,0,11.993-1.811c3.051-1.094,4.8-2.512,4.8-3.891,0-.929,0-2.66-2.692-4.241-3.547-2.084-10.384-3.141-20.32-3.141-4.849,0-8.422.273-12.2.561l-.137.01c-1.129.086-2.3.174-3.468.252l-9.748.65a.5.5,0,0,1-.515-.634l3.363-12c-1.1-1.068-2.252-2.107-3.448-3.1a319.551,319.551,0,0,0-17.561,31.417l-1.03,2.1a.5.5,0,0,1-.226.228l-2.1,1.042a9.229,9.229,0,0,1-4.069.93,9.81,9.81,0,0,1-7.541-3.6c-1.214-1.43-8.294-12.135-14.514-23.763l-.775-1.386c-1.311-2.385-2.5-4.8-3.527-7.179-.247-.529-.493-1.066-.753-1.64a.5.5,0,0,1-.032-.094l-2.3-10a.5.5,0,0,1-.012-.13l.1-2.951a.5.5,0,0,1,.015-.107,23.309,23.309,0,0,1,2.156-5.046l.476-.9c.455-.863,1-1.737,1.63-2.75l.042-.067A54.369,54.369,0,0,0,47.291,60.62a21.6,21.6,0,0,1,4.317-7.69,22.187,22.187,0,0,1-.743-5.823c-.015-4.52,1.29-11.052,4.24-15.46a23.877,23.877,0,0,1,9.421-8.069,22.442,22.442,0,0,1,10.457-2.434,23.862,23.862,0,0,1,8.177,1.419c4.1-3.536,10.182-8.013,16.264-9.71a19.782,19.782,0,0,1,5.3-.729c5.671,0,10.422,2.577,12.708,6.895,1.826,3.444,1.962,7.463.409,11.955,1.736-.072,3.45-.123,5.428-.174h.008l.578-.006h.005a12.82,12.82,0,0,1,5.178.981,9.051,9.051,0,0,1,2.833,1.94c.221-.182.45-.356.685-.52a9.67,9.67,0,0,1,3.771-4.2l.605-.347a.5.5,0,0,1,.091-.041l.66-.219a12.884,12.884,0,0,1,5.91-.505,11.838,11.838,0,0,1,4.574-.922,12.415,12.415,0,0,1,3.7.571,13.646,13.646,0,0,1,4.349,2.254,11.536,11.536,0,0,1,2.645.434c3.349.971,5.829,3.326,7.377,7h28.408a.5.5,0,0,1,.49.6L190.92,58.887a60.709,60.709,0,0,1,18.492-16.6,54.672,54.672,0,0,1,27.4-7.086,48.39,48.39,0,0,1,18.141,3.258A36.6,36.6,0,0,1,268.559,47.9a41.567,41.567,0,0,1,8.518,15.033,64.113,64.113,0,0,1,2.938,20.019,104.712,104.712,0,0,1-.733,12.253c4.566-3.3,8.517-6.491,11.021-10.9,2.261-4.093,3.1-8.253,2.376-11.714l-.138-.67a.51.51,0,0,1-.008-.058l-.029-.337c-.057-.236-.4-1.13-.521-1.43-1.512-3.9-1.734-7.232-.66-9.918a9.177,9.177,0,0,1,3.141-3.949l.29-.223a.5.5,0,0,1,.043-.03l.309-.19a11.734,11.734,0,0,1,6.136-1.8,10.676,10.676,0,0,1,6.037,1.875l.682.466a.5.5,0,0,1,.089.077l.552.611c2.958,3.28,4.091,7.329,4.875,11.218a29.865,29.865,0,0,1,.585,8.811,36.248,36.248,0,0,1-1.981,9.239l0,.009c-5.428,14.546-17.222,23-28.042,29.343l-1.708,1a88.694,88.694,0,0,0-10.429,6.725,77.958,77.958,0,0,1-11.494,19.166h22.563a.5.5,0,0,1,.213.047c1.376-.134,2.665-.163,3.524-.163a18.527,18.527,0,0,1,7.113,1.207,16.082,16.082,0,0,1,6.63-1.365,16.908,16.908,0,0,1,7.4,1.485,16.235,16.235,0,0,1,3.642,1.683,20.961,20.961,0,0,1,2.37,1.755.509.509,0,0,1,.045.047c3.921,4.622,5.4,8.737,4.4,12.232a9.305,9.305,0,0,1-4,5.086,13.4,13.4,0,0,1-2.865,1.445l-1.865,1.4-.483.652a.5.5,0,0,1-.611.156l-.037.015c-.051.063-.1.126-.156.19a7.976,7.976,0,0,1,.186,1.668c0,.154,0,.314-.015.485l7.505,7.49a.5.5,0,0,1,.036.667l-3.889,4.837a145.151,145.151,0,0,1-9.842,11.107h12.887a.5.5,0,0,1,.5.5v79.1A.5.5,0,0,1,315.147,274.748Zm-268.374-1H314.647v-78.1h-13.6a.5.5,0,0,1-.351-.856,140.936,140.936,0,0,0,10.623-11.878l3.608-4.487-7.349-7.334a.5.5,0,0,1-.145-.394c.019-.235.028-.443.028-.638a7.062,7.062,0,0,0-.216-1.684.5.5,0,0,1,.12-.463c.116-.124.225-.259.34-.4l.124-.153a.5.5,0,0,1,.339-.181h0a.5.5,0,0,1,.37-.095l.264-.357a.5.5,0,0,1,.1-.1l1.988-1.494a.5.5,0,0,1,.149-.077,12.328,12.328,0,0,0,2.725-1.37,8.2,8.2,0,0,0,3.571-4.518c.9-3.146-.505-6.939-4.177-11.276a21.331,21.331,0,0,0-2.225-1.64,15.487,15.487,0,0,0-3.418-1.573.5.5,0,0,1-.063-.024,15.932,15.932,0,0,0-7.009-1.407,15.039,15.039,0,0,0-6.411,1.365.5.5,0,0,1-.412,0,17.345,17.345,0,0,0-6.92-1.211,35.817,35.817,0,0,0-3.674.183.5.5,0,0,1-.309-.068h-23.39a.5.5,0,0,1-.38-.825,76.458,76.458,0,0,0,12.077-19.849.5.5,0,0,1,.147-.194,88.218,88.218,0,0,1,10.648-6.887l1.707-1c10.667-6.257,22.289-14.575,27.609-28.824a35.248,35.248,0,0,0,1.926-8.98,28.865,28.865,0,0,0-.565-8.52l0-.01c-.756-3.751-1.84-7.65-4.638-10.752l-.512-.567-.633-.433a9.679,9.679,0,0,0-5.473-1.7,10.736,10.736,0,0,0-5.612,1.655l-.288.177-.267.205a8.142,8.142,0,0,0-2.824,3.529c-.977,2.443-.754,5.533.663,9.184a14.472,14.472,0,0,1,.575,1.623.5.5,0,0,1,.007.052l.029.339.131.639c.778,3.694-.1,8.1-2.48,12.4l0,.005c-2.773,4.881-7.183,8.27-12.238,11.886a.5.5,0,0,1-.787-.471,104.089,104.089,0,0,0,.865-13.262,63.122,63.122,0,0,0-2.888-19.706,40.576,40.576,0,0,0-8.31-14.675,35.607,35.607,0,0,0-13.243-9.178A47.4,47.4,0,0,0,236.806,36.2a53.684,53.684,0,0,0-26.9,6.955A60.5,60.5,0,0,0,190.39,61.321a.5.5,0,0,1-.9-.385l4.543-22.715H165.9a.5.5,0,0,1-.464-.315A12.987,12.987,0,0,0,163.087,34a9.551,9.551,0,0,0-4.506-2.818,10.538,10.538,0,0,0-2.564-.4.5.5,0,0,1-.293-.107,12.685,12.685,0,0,0-4.157-2.185,11.418,11.418,0,0,0-3.4-.526,10.857,10.857,0,0,0-4.312.9.5.5,0,0,1-.277.034,11.881,11.881,0,0,0-5.58.445l-.611.2-.562.322a8.755,8.755,0,0,0-3.428,3.89.5.5,0,0,1-.167.193,10.162,10.162,0,0,0-1.062.834.5.5,0,0,1-.71-.042c-1.714-1.953-4.269-2.943-7.595-2.943l-.57.006c-2.254.058-4.164.115-6.153.205a.5.5,0,0,1-.49-.678c1.714-4.5,1.681-8.482-.1-11.841-2.111-3.984-6.531-6.363-11.825-6.363a18.781,18.781,0,0,0-5.034.693c-6.015,1.679-12.077,6.2-16.1,9.7a.5.5,0,0,1-.508.089,22.762,22.762,0,0,0-8.1-1.459,21.732,21.732,0,0,0-9.989,2.317l-.008,0c-5.611,2.9-8.19,6.363-9.039,7.719l-.008.013c-2.836,4.234-4.09,10.54-4.075,14.91v.006a21.232,21.232,0,0,0,.781,5.824.5.5,0,0,1-.122.48,20.3,20.3,0,0,0-4.288,7.53,55.248,55.248,0,0,1-5.912,11.961l-.042.067c-.62,1-1.156,1.856-1.595,2.688l-.477.9a22.234,22.234,0,0,0-2.057,4.773l-.1,2.831,2.273,9.888c.252.556.491,1.077.731,1.591l.006.013c1.018,2.353,2.191,4.741,3.486,7.1l.776,1.387,0,.008c6.188,11.569,13.2,22.182,14.4,23.592a8.825,8.825,0,0,0,6.778,3.251,8.21,8.21,0,0,0,3.622-.825l1.945-.967.955-1.951A319.356,319.356,0,0,1,90.95,95.258a.5.5,0,0,1,.736-.117c1.451,1.178,2.851,2.43,4.162,3.721a.5.5,0,0,1,.131.491l-3.252,11.6,9.043-.6c1.168-.077,2.332-.166,3.458-.251l.137-.01c3.8-.29,7.393-.564,12.28-.564,10.117,0,17.124,1.1,20.827,3.278a6.458,6.458,0,0,1,2.776,2.847,5.291,5.291,0,0,1,.41,2.257c0,1.853-1.94,3.569-5.463,4.832a37.8,37.8,0,0,1-12.331,1.869c-1.431,0-2.964-.072-4.556-.213a.5.5,0,0,1-.265-.1c-3.224-2.532-7.917-5.551-11.966-5.551a9.33,9.33,0,0,0-4.732,1.249.5.5,0,0,1-.465.019,15.751,15.751,0,0,1-1.53-.822L93.4,114.869,81.982,150.127,85.29,152.9a27.345,27.345,0,0,0,6.94,4.052.5.5,0,0,1,.235.716C87.8,165.526,80.7,177.08,73.411,187.513a.5.5,0,0,1-.4.213c-12.813.251-20.534,4.527-24.756,8.07-4.885,4.1-7.8,9.541-7.8,14.553a10.571,10.571,0,0,0,6.03,9.92.5.5,0,0,1,.289.453ZM220.67,126.29H220.5c-1.145,0-2.01-1.161-2.571-3.451a38.744,38.744,0,0,1-.766-8.628c0-5,1.487-16.495,4.794-26.4a45.341,45.341,0,0,1,5.292-11.289,14.037,14.037,0,0,1,2.879-3.151,4.987,4.987,0,0,1,2.98-1.162c1.131,0,1.993,1.16,2.562,3.446a37.264,37.264,0,0,1,.777,8.466,99.618,99.618,0,0,1-4.662,26.578,44.377,44.377,0,0,1-5.232,11.277C224.586,124.8,222.551,126.29,220.67,126.29Zm12.439-53.077c-1.518,0-3.26,1.344-5.039,3.887a44.359,44.359,0,0,0-5.163,11.032c-3.271,9.794-4.743,21.146-4.743,26.078a37.8,37.8,0,0,0,.738,8.39c.419,1.709,1,2.689,1.6,2.689h.168c1.54,0,3.291-1.342,5.064-3.881a43.4,43.4,0,0,0,5.1-11.015,98.461,98.461,0,0,0,4.612-26.267A36.31,36.31,0,0,0,234.7,75.9C234.282,74.218,233.687,73.213,233.109,73.213Z" transform="translate(35.986 12.097)" fill="#fff"/>
          <path id="Path_6910" data-name="Path 6910" d="M103.467,50.375a159.123,159.123,0,0,1,24.032-6.59,26.475,26.475,0,0,0,.732-8.844c-12.014,2.042-24.443,2.689-36.7,3.505-2.573,4.357-6.415,6.468-10.847,9.024a5.492,5.492,0,0,1-2.35,4.185c-1.22.789-2.45,2.463-3.531,5.4A263.447,263.447,0,0,1,59.974,88.516s-7.541-13.522-8.45-15.173L41.459,69.987a231.9,231.9,0,0,0,18.463,32.219,2.233,2.233,0,0,0,2.661.836c11.846-24.173,22.3-38.619,22.3-38.619l1.044.586A65.124,65.124,0,0,1,98.631,76.048a59.639,59.639,0,0,0,19.516-15.8,128.027,128.027,0,0,0-14.378-9.56Z" transform="translate(39.729 33.484)" fill="#dc0079"/>
          <path id="Path_6911" data-name="Path 6911" d="M127.64,36.126c-3.12.456-6.294.783-9.392,1.3-8.834.791-17.609,1.829-26.439,2.07-2.816.564-3.259,3.421-3.638,5.818a11.138,11.138,0,0,1,.317,3.114s-.56-.909-.916-1.516c-.783-1.214-1.512-2.42-2.215-3.617-1.32,1.012-2.33,2.4-3.785,3.274-.4,2.183-.834,2.23-1.093,3.36,1.322.241,3.678.327,5.248,1.878C82.3,50.341,80.3,51.038,78,53.633a219.192,219.192,0,0,1-18.249,35.4l.609,3.384-2.127-3.184S52.075,78.313,49,71.33l-6.832-2.5c1.349,5.321,16.957,30.919,19.07,31.4,0,0,8.272-17.716,13.966-27.147,5.734-9.5,9.832-16.418,9.832-16.418a12.345,12.345,0,0,1-.251,4.2c1.741,1.149,3.311,2.287,5.09,3.558A47.351,47.351,0,0,1,99.941,73.7c.027.031.051.065.078.1a63.779,63.779,0,0,0,5.836-3.7c-3.411-4.43-7.022-8.806-10.639-13.236-2.669-3.27-5.791-7.195-4.067-10.21,1.271-1.631,3.554-1.565,5.232-.869l4.4,2.168a103.552,103.552,0,0,1,26.493-7.39,26.34,26.34,0,0,0,.366-4.435" transform="translate(40.41 34.618)" fill="#ea86b5"/>
          <path id="Path_6912" data-name="Path 6912" d="M91.942,55.487c-4.189-3.3-8.567-6.343-12.713-9.282-3.613-2.162-7.974-5.783-11.066-4.461-.891.486-.654,1.612-.433,2.471C70.753,51.462,77.787,57.5,82.916,63.989a57.659,57.659,0,0,0,9.026-8.5" transform="translate(64.707 39.73)" fill="#f7d7e6"/>
          <path id="Path_6913" data-name="Path 6913" d="M193.525,38.231c-2.559,1.972.591,5.5.887,8.726l.049.241c1.191,5.642-.272,11.634-3.18,16.9-4.287,7.543-11.33,11.894-18.141,16.837-8.6,5.146-17.519,9.968-23.147,18.214a28.314,28.314,0,0,0-3.374,7.369,3.167,3.167,0,0,0,2.119,1.179,4.694,4.694,0,0,0,3.754-1.263c.337-2.742,2.2-5.027,3.7-7.154,4.731-6.061,11.565-9.754,18.637-13.9,10.469-6.139,20.368-13.526,24.805-25.418a26.041,26.041,0,0,0,1.124-14.121c-.521-2.579-1.261-5.669-3.114-7.725a3.641,3.641,0,0,0-4.114.119" transform="translate(140.5 35.962)" fill="#d80077"/>
          <path id="Path_6914" data-name="Path 6914" d="M194.317,43.39v0c-.364-1.23-1.4-2.759-1.067-3.7a2.63,2.63,0,0,1,2.426-1.465c1.324,0,1.7,1.827,2.16,3.022a28.01,28.01,0,0,1,.723,15.366l-.147.123a23.227,23.227,0,0,1-4.559,9.572c-6.646,8.462-12.032,12.41-21.425,18.186C163.881,89.746,155.42,94.708,151.086,104c-.343.734-.3,1.324-.55,1.919a14.918,14.918,0,0,0-3.1.658l-.282.069c2.9-10.584,11.959-17,20.744-22.461,12.766-7.342,26.5-16.287,27.684-32.811.206-2.877-1.261-7.986-1.261-7.986" transform="translate(141.008 36.629)" fill="#e782af"/>
          <path id="Path_6915" data-name="Path 6915" d="M155.315,54.177h-43.53L108.425,65.1a30.659,30.659,0,0,1,5.546-.337c8.74,0,18.991,1.849,26.554,6.723,7.9,5.211,13.277,14.454,13.277,25.88,0,28.743-25.377,42.861-55.462,42.861-16.136,0-29.582-3.531-34.791-7.9l7.563-23.362c4.874,3.026,15.966,6.388,26.891,6.388,10.252,0,24.2-3.2,24.2-13.111,0-8.066-5.546-14.791-30.42-14.791-6.725,0-11.262.5-16.3.842L92.12,28.968h68.238Z" transform="translate(60.897 27.759)" fill="#050605"/>
          <path id="Path_6916" data-name="Path 6916" d="M146.544,141.217c-24.874,0-36.134-17.311-36.134-42.018,0-31.428,17.143-71.261,55.63-71.261,25.042,0,35.8,17.311,35.8,40.336,0,33.11-17.646,72.943-55.127,72.943Zm3.362-23.194c16.3,0,22.185-37.144,22.185-48.573,0-6.723-.672-18.32-9.748-18.32-16.134,0-22.354,37.144-22.354,48.4,0,6.554.505,18.488,9.748,18.488Z" transform="translate(105.802 26.771)" fill="#050605"/>
          <path id="Path_6917" data-name="Path 6917" d="M74.088,140.785c-9.069,11.289-19.064,19.064-27.7,19.064a4.245,4.245,0,0,1-4.567-4.567c0-6.108,8.391-16.224,27.331-16.224H71.56l.864-1.234c14.622-20.607,30.046-48.246,30.723-50.034.309-.617.37-.742,1.05-.8.493-.061,3.578-.186,4.935-.186.68,0,.987.125.987.311a1.13,1.13,0,0,1-.37.615c-4.011,4.876-19.495,30.539-31.649,47.69-.864,1.234-1.727,2.467-2.651,3.64Zm-6.971-.063c-15.423,0-24,9.872-24,14.746a2.534,2.534,0,0,0,2.838,2.714c7.157,0,16.164-6.848,24.371-17.46Zm30.909-64.47c.309-4.009,1.727-6.167,4.011-6.167,4.441,0,20.791,12.4,20.791,25.168,0,10.8-14.622,19.064-24.8,19.064-1.788,0-3.517-.061-3.517-1.665a10.93,10.93,0,0,0,3.58.493c8.266,0,19.99-6.787,19.99-16.289,0-9.93-10.428-19.122-20.053-20.6" transform="translate(40.076 67.161)" fill="#050605"/>
          <path id="Path_6918" data-name="Path 6918" d="M46.389,160.811a5.476,5.476,0,0,1-4.091-1.587,5.577,5.577,0,0,1-1.439-3.942,11.129,11.129,0,0,1,1.744-5.606,19.651,19.651,0,0,1,5.211-5.571c3.718-2.742,10.438-6.009,21.34-6.009h1.906l.576-.823,0-.005c7.779-10.963,15.468-23.457,20.548-32.009,6.032-10.152,9.785-17.085,10.06-17.809a.962.962,0,0,1,.04-.09l0-.006A1.893,1.893,0,0,1,104.1,86.03c.629-.072,3.746-.191,5.035-.191a3.346,3.346,0,0,1,1.056.136,1.208,1.208,0,0,1,.893,1.137,2,2,0,0,1-.615,1.258c-1.856,2.27-6.348,9.265-11.547,17.358-1.247,1.942-2.557,3.981-3.908,6.076a10.377,10.377,0,0,0,3.078.378,22.648,22.648,0,0,0,12.528-4.4c2.427-1.766,6.5-5.534,6.5-10.929a15.243,15.243,0,0,0-1.68-6.774,22.246,22.246,0,0,0-4.447-6.008,26.954,26.954,0,0,0-6.217-4.522A22.414,22.414,0,0,0,97.88,77.2a.963.963,0,0,1-.813-1.025,10.805,10.805,0,0,1,1.418-5.038,4.117,4.117,0,0,1,3.552-2.017c2.711,0,8.19,3.474,12.745,8.082,3.364,3.4,9.008,10.273,9.008,18.048a14.419,14.419,0,0,1-2.606,8.068,24.024,24.024,0,0,1-6.392,6.3c-5.031,3.488-11.455,5.654-16.766,5.654A9.076,9.076,0,0,1,95.3,115a2.434,2.434,0,0,1-1.528-1.272c-4.859,7.514-10.146,15.559-14.882,22.242-.856,1.223-1.742,2.488-2.683,3.682l-1.359,1.727-.006.008a73.675,73.675,0,0,1-14.2,13.947C55.53,158.969,50.737,160.811,46.389,160.811Zm24.6-20.791a.963.963,0,0,1,.1,1.291,66.171,66.171,0,0,1-12.774,12.9,30.429,30.429,0,0,1-6.307,3.627,31.162,31.162,0,0,0,7.511-4.071,71.781,71.781,0,0,0,13.817-13.58l1.356-1.723c.908-1.153,1.778-2.4,2.619-3.6l0,0c6.458-9.113,13.959-20.79,19.986-30.172,5.026-7.825,9.083-14.14,11.191-16.918-1.5.026-3.8.126-4.176.172l-.032,0c-.061.005-.107.011-.141.016-.033.061-.075.144-.115.224-.508,1.235-4.638,8.723-10.183,18.056-5.1,8.582-12.817,21.124-20.633,32.139l-.86,1.229a.962.962,0,0,1-.789.411Zm-3.868,1.665a31.1,31.1,0,0,0-9.949,1.568,25.475,25.475,0,0,0-7.254,3.782,18.689,18.689,0,0,0-4.407,4.6,7.617,7.617,0,0,0-1.426,3.836c0,1.179.613,1.752,1.875,1.752a14.185,14.185,0,0,0,5.31-1.164,28.565,28.565,0,0,0,5.915-3.4,61.752,61.752,0,0,0,11.156-10.969ZM99.075,75.462a24.9,24.9,0,0,1,6.593,2.387,28.905,28.905,0,0,1,6.667,4.85,24.162,24.162,0,0,1,4.827,6.532,17.147,17.147,0,0,1,1.879,7.627c0,4.494-2.439,8.8-6.882,12.181q.787-.476,1.536-.995a22.43,22.43,0,0,0,5.887-5.79,12.533,12.533,0,0,0,2.282-7,18.714,18.714,0,0,0-2.508-8.86,35.474,35.474,0,0,0-5.944-7.835c-4.844-4.9-9.72-7.51-11.376-7.51a2.22,2.22,0,0,0-1.939,1.143A8.035,8.035,0,0,0,99.075,75.462Z" transform="translate(40.076 67.161)" fill="#fff"/>
          <path id="Path_6919" data-name="Path 6919" d="M77.7,129.7a10.451,10.451,0,0,0-1.353,3.635c0,.427.213.64.57.64.783,0,2.209-.854,3.846-2,4.061-2.706,10.4-8.477,18.884-18.6l.711.713c-6.554,8.193-12.968,14.534-18.026,18.1-2.422,1.641-5.131,3.135-6.913,3.135-1.138,0-1.923-.64-1.923-2.279a12.67,12.67,0,0,1,.713-3.633c3.349-10.118,24.439-43.037,27.147-48.023.427-.713.427-.856,1.21-.926.572-.072,4.275-.215,5.843-.215.781,0,1.14.072,1.14.356,0,.143-.143.356-.427.713C104.849,86.662,82.9,119.438,77.7,129.7" transform="translate(70.429 76.9)" fill="#050605"/>
          <path id="Path_6920" data-name="Path 6920" d="M75.42,136.288c-1.807,0-2.886-1.212-2.886-3.242a13.565,13.565,0,0,1,.758-3.925l0-.01c2.524-7.626,14.8-27.716,22.132-39.72,2.458-4.023,4.4-7.2,5.083-8.46l.02-.035c.042-.069.079-.133.113-.192a1.954,1.954,0,0,1,1.821-1.2c.7-.082,4.427-.221,5.945-.221a4.1,4.1,0,0,1,1.128.109,1.248,1.248,0,0,1,.974,1.21,2.173,2.173,0,0,1-.637,1.313c-2.128,2.66-8.71,12.235-15.312,22.275-7.916,12.037-13.749,21.491-16,25.937a16.582,16.582,0,0,0-1.174,2.754,16.055,16.055,0,0,0,2.826-1.7l.017-.011c6.4-4.263,14.449-13.366,18.68-18.413a.962.962,0,0,1,1.419-.061l.711.713a.962.962,0,0,1,.07,1.281c-6.437,8.047-12.909,14.54-18.223,18.282l-.014.01C79.639,135.177,77.132,136.288,75.42,136.288Zm-.295-6.577a11.472,11.472,0,0,0-.666,3.335c0,1.317.578,1.317.961,1.317a2.651,2.651,0,0,0,.276-.015,1.693,1.693,0,0,1-.31-1.016c0-.821.421-2,1.455-4.065l0,0c4.982-9.827,25.878-41.2,31.14-48.048-1.758.02-4.857.15-5.295.205l-.035,0c-.1.009-.168.018-.211.025-.039.06-.092.151-.137.229l-.112.191c-.714,1.311-2.565,4.341-5.123,8.527C89.782,102.325,77.584,122.29,75.125,129.71Z" transform="translate(70.429 76.9)" fill="#fff"/>
          <path id="Path_6921" data-name="Path 6921" d="M113.716,94.8h4.847c.854,0,1.21.288,1.21.715a1.3,1.3,0,0,1-.356.783c-7.267,7.267-19.023,20.662-19.023,26.006a1,1,0,0,0,1.138,1.067c2.708,0,10.475-5.131,23.442-20.591l.711.715c-10.543,13.109-20.66,21.445-25.363,21.445-1.782,0-2.779-1.21-2.779-3.705a13.432,13.432,0,0,1,1.353-5.344c-2.779,2.992-7.837,8.479-12.112,8.479-3.278,0-4.772-2-4.772-4.917,0-9.192,14.319-28.142,32.987-28.142.642,0,.926.211.926.5a1.136,1.136,0,0,1-.926.928c-14.25,0-29.07,25.005-29.07,28.853,0,.856.284,1.285.928,1.285,4.7,0,12.325-9.265,16.244-14.109,2.922-4.273,6.625-8.906,9.832-13.677a1.16,1.16,0,0,1,.783-.288" transform="translate(78.589 87.5)" fill="#050605"/>
          <path id="Path_6922" data-name="Path 6922" d="M115,90.348c1.394,0,1.889.786,1.889,1.46a1.855,1.855,0,0,1-.628,1.321A1.9,1.9,0,0,1,115,93.7c-3.085,0-6.448,1.275-10,3.79a47.7,47.7,0,0,0-9.135,8.839,68.967,68.967,0,0,0-6.559,9.6c-1.66,2.971-2.416,5.018-2.416,5.662a1.716,1.716,0,0,0,.025.321c1.235-.028,3.56-.926,7.682-4.962a105.609,105.609,0,0,0,7.73-8.759c1.357-1.983,2.852-4,4.434-6.144,1.8-2.434,3.662-4.952,5.372-7.495a.963.963,0,0,1,.116-.141,2.112,2.112,0,0,1,1.466-.572h4.847c2.068,0,2.173,1.4,2.173,1.677a2.26,2.26,0,0,1-.638,1.464,159.553,159.553,0,0,0-12.159,13.636c-2.458,3.147-6.582,8.85-6.582,11.689a.533.533,0,0,0,.006.088.709.709,0,0,0,.169.016c1,0,3.435-1.124,7.262-4.278a128.416,128.416,0,0,0,15.443-15.969.962.962,0,0,1,1.42-.06l.711.715a.962.962,0,0,1,.068,1.282,115.526,115.526,0,0,1-15,15.772c-3.278,2.752-7.867,6.032-11.111,6.032A3.4,3.4,0,0,1,97.5,124.61a5.458,5.458,0,0,1-.92-3.374,10.206,10.206,0,0,1,.147-1.693c-.862.849-1.8,1.711-2.776,2.5-2.733,2.212-5.078,3.287-7.167,3.287-3.591,0-5.735-2.2-5.735-5.88a19.486,19.486,0,0,1,2.642-8.727,40.482,40.482,0,0,1,7.134-9.473,39.857,39.857,0,0,1,10.724-7.7A30.717,30.717,0,0,1,115,90.348ZM85.491,123.267a2.4,2.4,0,0,1-.525-1.677c0-1.6,1.667-4.823,2.661-6.6a70.951,70.951,0,0,1,6.747-9.876,49.606,49.606,0,0,1,9.515-9.194,25.216,25.216,0,0,1,5.663-3.089,30.413,30.413,0,0,0-7.163,2.453,39.688,39.688,0,0,0-17,16.348,17.886,17.886,0,0,0-2.416,7.823C82.975,121.584,83.82,122.862,85.491,123.267Zm33.1-27.5h-4.875a.273.273,0,0,0-.086.013c-1.706,2.527-3.543,5.011-5.32,7.414-1.58,2.136-3.072,4.153-4.415,6.118q-.022.032-.046.062c-1.5,1.852-3.072,3.761-4.707,5.59a.963.963,0,0,1,.634,1.322,12.439,12.439,0,0,0-1.27,4.953c0,2.647,1.185,2.739,1.757,2.742a1.94,1.94,0,0,1-.831-1.673c0-1.447.68-3.335,2.078-5.775a62.454,62.454,0,0,1,4.912-7.1A161.467,161.467,0,0,1,118.591,95.763Z" transform="translate(78.589 87.5)" fill="#fff"/>
          <path id="Path_6923" data-name="Path 6923" d="M120.472,100.912c4.061-.5,7.2-.856,7.2-.856.354,0,.5.072.5.286,0,.5-1.069,1.5-1.353,1.567l-7.553.856c-6.911,10.4-14.035,21.66-16.673,26.932a10.5,10.5,0,0,0-1.353,3.635c0,.427.213.64.57.64.783,0,2.209-.854,3.848-1.993,4.061-2.708,10.4-8.479,18.882-18.6l.711.713c-6.554,8.193-12.966,14.536-18.026,18.1-2.422,1.641-5.131,3.137-6.909,3.137-1.142,0-1.925-.642-1.925-2.281a12.671,12.671,0,0,1,.713-3.633c1.637-5.058,7.765-15.817,13.821-26.008l-5.2.57h-.071a.19.19,0,0,1-.215-.213,2.317,2.317,0,0,1,1.782-1.5c1.639-.213,3.206-.427,4.774-.57,5.628-9.4,10.972-17.955,12.253-20.305.429-.713.429-.856,1.212-.926.57-.072,4.275-.213,5.843-.213.785,0,1.14.071,1.14.354,0,.143-.143.356-.427.713-1.925,2.422-7.553,10.545-13.537,19.594" transform="translate(94.279 76.901)" fill="#050605"/>
          <path id="Path_6924" data-name="Path 6924" d="M133.3,79.287a4.131,4.131,0,0,1,1.128.107A1.246,1.246,0,0,1,135.4,80.6a2.173,2.173,0,0,1-.637,1.313c-1.821,2.292-6.991,9.752-12.334,17.787,2.981-.359,5.106-.6,5.132-.6a.962.962,0,0,1,.109-.006c1.39,0,1.46,1.04,1.46,1.248a2.466,2.466,0,0,1-.833,1.605,3.106,3.106,0,0,1-1.251.9.961.961,0,0,1-.124.022l-7.108.805c-7.968,12.008-14.076,21.88-16.366,26.457a16.775,16.775,0,0,0-1.174,2.755,16.19,16.19,0,0,0,2.829-1.695l.015-.011c6.4-4.269,14.45-13.37,18.678-18.415a.963.963,0,0,1,1.419-.061l.711.713a.963.963,0,0,1,.07,1.281c-6.444,8.055-12.915,14.548-18.224,18.282l-.014.01c-3.235,2.192-5.741,3.3-7.449,3.3-1.808,0-2.887-1.213-2.887-3.244a13.565,13.565,0,0,1,.758-3.925c.829-2.56,3.079-7.882,12.928-24.549l-3.286.36a.961.961,0,0,1-.1.006h-.071a1.151,1.151,0,0,1-1.178-1.176c0-1.014,1.311-2.249,2.6-2.447l.023,0,.579-.076c1.286-.168,2.509-.328,3.744-.452,2.485-4.148,4.939-8.17,6.923-11.423,2.445-4.008,4.376-7.174,5.061-8.431l.02-.036.114-.192a1.957,1.957,0,0,1,1.821-1.195C128.04,79.425,131.772,79.287,133.3,79.287Zm-13.351,22.43a.963.963,0,0,1-.277-1.337c5.519-8.345,10.91-16.168,13.2-19.166-1.763.02-4.863.148-5.3.2l-.035,0c-.1.009-.169.018-.211.025-.039.06-.093.152-.139.23l-.113.191c-.715,1.308-2.555,4.326-5.1,8.495-2.049,3.359-4.6,7.538-7.164,11.826a.962.962,0,0,1-.739.464l-.5.048a.963.963,0,0,1,.17,1.195c-5.07,8.53-12.009,20.486-13.733,25.812a11.47,11.47,0,0,0-.666,3.336c0,1.319.579,1.319.962,1.319a2.63,2.63,0,0,0,.274-.015,1.692,1.692,0,0,1-.312-1.018c0-.816.421-1.994,1.454-4.064,2.347-4.691,8.6-14.8,16.732-27.035a.963.963,0,0,1,.693-.424Z" transform="translate(94.279 76.901)" fill="#fff"/>
          <path id="Path_6925" data-name="Path 6925" d="M126.487,101.739c.856,0,1.212.286,1.212.713a1.3,1.3,0,0,1-.356.783c-5.274,5.914-17.812,22.444-17.812,26.006a1,1,0,0,0,1.14,1.069c2.708,0,10.475-5.129,23.442-20.591l.711.713c-10.545,13.111-20.662,21.447-25.363,21.447-1.782,0-2.779-1.212-2.779-3.705,0-5.771,10.543-19.808,13.892-25.651a1.073,1.073,0,0,1,1.069-.783Zm9.832-15.247c0,3.421-4.631,9.689-8.05,9.689a1.92,1.92,0,0,1-2.209-2.066c0-3.492,4.988-10.046,8.052-10.046a2.187,2.187,0,0,1,2.207,2.422" transform="translate(102.228 80.561)" fill="#050605"/>
          <path id="Path_6926" data-name="Path 6926" d="M134.112,83.107a3.311,3.311,0,0,1,1.914.624,3.229,3.229,0,0,1,1.255,2.761,8.416,8.416,0,0,1-.864,3.357,16.591,16.591,0,0,1-2.088,3.37c-.938,1.18-3.406,3.925-6.061,3.925a3.189,3.189,0,0,1-2.381-.868,3.011,3.011,0,0,1-.791-2.16c0-2.214,1.592-5.03,3.083-6.927a15.387,15.387,0,0,1,2.806-2.812A5.419,5.419,0,0,1,134.112,83.107Zm-5.843,12.112c1.241,0,2.986-1.225,4.554-3.2,1.516-1.907,2.534-4.129,2.534-5.529a1.237,1.237,0,0,0-1.244-1.46c-1.071,0-2.847,1.345-4.419,3.346-1.6,2.034-2.671,4.34-2.671,5.738C127.022,94.8,127.231,95.219,128.269,95.219Zm-6.627,5.558h4.845c2.07,0,2.175,1.4,2.175,1.675a2.26,2.26,0,0,1-.615,1.44c-2.857,3.206-7.3,8.871-10.8,13.787-2.046,2.867-3.674,5.328-4.84,7.315-1.723,2.936-1.909,3.948-1.909,4.247a.529.529,0,0,0,.007.09.7.7,0,0,0,.171.017c1,0,3.435-1.124,7.262-4.277a128.348,128.348,0,0,0,15.443-15.97.963.963,0,0,1,1.419-.061l.711.713a.962.962,0,0,1,.068,1.283,115.568,115.568,0,0,1-15,15.774c-3.278,2.752-7.867,6.032-11.109,6.032a3.4,3.4,0,0,1-2.821-1.294,5.458,5.458,0,0,1-.92-3.374c0-4.542,5.68-13.211,10.243-20.177,1.547-2.362,2.886-4.4,3.752-5.911A2.006,2.006,0,0,1,121.642,100.777Zm4.887,1.925h-4.887a.431.431,0,0,0-.078.006.842.842,0,0,0-.108.2.964.964,0,0,1-.048.1c-.894,1.56-2.257,3.641-3.836,6.051-2.193,3.348-4.679,7.142-6.64,10.662-2.182,3.918-3.289,6.764-3.289,8.46,0,2.646,1.184,2.739,1.756,2.742a1.941,1.941,0,0,1-.832-1.675c0-.652.225-1.9,2.174-5.222,1.195-2.036,2.855-4.545,4.934-7.458C119.186,111.642,123.629,105.969,126.529,102.7Z" transform="translate(102.228 80.561)" fill="#fff"/>
          <path id="Path_6927" data-name="Path 6927" d="M154.257,93.7c0,.57-.783,1.426-1.639,2.493-4.561,5.914-16.957,20.521-16.957,24.439,0,.642.354,1,1.067,1a4.978,4.978,0,0,0,1.569-.5c3.776-1.782,10.831-7.553,21.231-19.951l.713.713C149.7,115,139.58,123.337,134.876,123.337c-1.78,0-2.779-1.212-2.779-3.705,0-7.267,10.9-19.308,15.036-22.514,0-.143-.072-.215-.286-.215-4.345,0-19.166,12.257-24.653,20.664a21.5,21.5,0,0,0-2.209,3.918c-.143.284-.356.427-.854.427h-6.2c-.07,0-.284,0-.284-.213,0-.143.07-.356.427-.783,4.917-5.771,14.82-19.451,18.666-26.576.356-.713.429-1.142,1.212-1.142h4.917q1.066,0,1.067.429a1.179,1.179,0,0,1-.356.64,86.9,86.9,0,0,0-10.545,13.61c5.843-5.131,17.315-14.893,24.155-14.893,1.567,0,2.066.286,2.066.713" transform="translate(107.946 89.103)" fill="#050605"/>
          <path id="Path_6928" data-name="Path 6928" d="M152.191,92.022a5.56,5.56,0,0,1,1.97.262A1.491,1.491,0,0,1,155.22,93.7c0,.825-.616,1.579-1.468,2.623-.122.15-.249.3-.377.464-.858,1.112-1.97,2.5-3.256,4.113-2.748,3.438-6.168,7.717-8.89,11.519-4.006,5.6-4.6,7.547-4.6,8.213,0,.011,0,.021,0,.031a.875.875,0,0,0,.1.006,6.048,6.048,0,0,0,1.178-.417c2.2-1.044,8.6-5.044,20.885-19.69a.962.962,0,0,1,1.418-.062l.713.713a.962.962,0,0,1,.069,1.284,115.477,115.477,0,0,1-15,15.774c-3.279,2.752-7.868,6.032-11.112,6.032a3.4,3.4,0,0,1-2.82-1.294,5.455,5.455,0,0,1-.921-3.374A15.377,15.377,0,0,1,133,113.073a44.13,44.13,0,0,1,4.293-6.8,68.732,68.732,0,0,1,6.118-7.078,54.8,54.8,0,0,0-7.849,5.624c-5.283,4.406-10.1,9.492-12.565,13.271a21.918,21.918,0,0,0-2.108,3.715.816.816,0,0,1-.047.111,1.773,1.773,0,0,1-1.713.957h-6.2a1.172,1.172,0,0,1-1.246-1.176,2.194,2.194,0,0,1,.651-1.4l.006-.007c2.437-2.86,6.147-7.731,9.682-12.713A149,149,0,0,0,130.887,93.9c.043-.086.082-.17.12-.251a1.968,1.968,0,0,1,1.946-1.409h4.917a3.09,3.09,0,0,1,1.159.177,1.3,1.3,0,0,1,.871,1.215,2.079,2.079,0,0,1-.638,1.321l-.012.012a78.3,78.3,0,0,0-6.328,7.5c1.986-1.616,4.113-3.255,6.27-4.748a47.786,47.786,0,0,1,6.753-4A15.324,15.324,0,0,1,152.191,92.022ZM153.115,94a6.716,6.716,0,0,0-.924-.052c-1.816,0-4.165.775-7.016,2.312a5.379,5.379,0,0,1,1.672-.318,1.162,1.162,0,0,1,1.248,1.178.963.963,0,0,1-.372.76,57.58,57.58,0,0,0-8.887,9.551c-3.724,4.962-5.776,9.3-5.776,12.2,0,2.743,1.273,2.743,1.816,2.743a4,4,0,0,0,.706-.069,1.847,1.847,0,0,1-.883-1.677,9.141,9.141,0,0,1,1.49-4.023,60.251,60.251,0,0,1,3.475-5.311c2.752-3.843,6.189-8.144,8.952-11.6,1.284-1.606,2.393-2.993,3.241-4.094l.011-.014c.134-.167.266-.328.393-.485C152.545,94.755,152.9,94.318,153.115,94Zm-15.782.161H132.9c-.043.075-.1.2-.15.3s-.092.195-.147.306l-.014.027a150.6,150.6,0,0,1-8.993,13.9c-3.334,4.7-6.83,9.308-9.29,12.258h4.858a25.709,25.709,0,0,1,2.228-3.912,54.6,54.6,0,0,1,6.974-8.256.963.963,0,0,1-1.153-1.4A90.458,90.458,0,0,1,137.333,94.16Z" transform="translate(107.946 89.103)" fill="#fff"/>
          <path id="Path_6929" data-name="Path 6929" d="M149.553,121.665c2.706,0,10.473-5.131,23.44-20.591l.713.713c-10.545,13.109-20.662,21.445-25.365,21.445-1.14,0-2.565-.926-2.565-3.705,0-1.78,1-4.345,2.424-7.2-2.424,3.351-11.258,10.688-15.034,10.688-1.142,0-1.925-.713-1.925-2.352,0-5.771,10.688-20.946,14.035-26.789a1.072,1.072,0,0,1,1.071-.783h4.843c.856,0,1.212.284,1.212.713a1.3,1.3,0,0,1-.356.783c-5.274,5.914-17.955,22.444-17.955,26.505,0,.427.213.57.57.57,1.925,0,11.115-6.84,16.246-14.037,3.135-5.272,6.981-10.616,8.763-13.751a1.07,1.07,0,0,1,1.069-.783h4.845c.856,0,1.21.284,1.21.713a1.308,1.308,0,0,1-.354.783c-5.274,5.914-18.026,21.8-18.026,26.006a1,1,0,0,0,1.14,1.069" transform="translate(125.763 89.209)" fill="#050605"/>
          <path id="Path_6930" data-name="Path 6930" d="M148.341,124.194c-1.756,0-3.528-1.443-3.528-4.668a9.624,9.624,0,0,1,.475-2.737c-1.087.983-2.293,1.984-3.519,2.909-4.686,3.539-7.265,4.282-8.6,4.282a2.722,2.722,0,0,1-2.112-.886,3.556,3.556,0,0,1-.776-2.428c0-2.12,1.245-5.448,3.806-10.173,2.137-3.944,4.862-8.261,7.051-11.731,1.345-2.131,2.508-3.974,3.281-5.321a2.006,2.006,0,0,1,1.931-1.31h4.843c2.07,0,2.175,1.4,2.175,1.675a2.26,2.26,0,0,1-.615,1.44c-2.437,2.735-6.873,8.227-10.875,13.848-2.071,2.909-3.715,5.418-4.886,7.456a17.081,17.081,0,0,0-1.857,4.006,28.192,28.192,0,0,0,5.907-4.012A52.85,52.85,0,0,0,150.1,107.1c1.646-2.764,3.484-5.548,5.107-8.006,1.483-2.246,2.766-4.188,3.6-5.651a2,2,0,0,1,1.93-1.313h4.845c2.068,0,2.173,1.4,2.173,1.675a2.267,2.267,0,0,1-.612,1.439c-2.717,3.048-7.143,8.418-10.92,13.559-6.181,8.414-6.848,11.049-6.848,11.791a.531.531,0,0,0,.007.09.705.705,0,0,0,.171.017c1,0,3.433-1.124,7.26-4.278a128.434,128.434,0,0,0,15.443-15.969.962.962,0,0,1,1.418-.062l.713.713a.962.962,0,0,1,.069,1.284,115.57,115.57,0,0,1-15,15.772C156.173,120.914,151.584,124.194,148.341,124.194Zm.559-12.525a.963.963,0,0,1,.16,1.091c-1.541,3.078-2.323,5.354-2.323,6.766,0,1.967.783,2.7,1.539,2.741a1.942,1.942,0,0,1-.827-1.672c0-1.186.7-2.931,2.208-5.493,1.2-2.038,2.886-4.541,5.014-7.438,3.776-5.141,8.2-10.511,10.952-13.608h-4.887a.437.437,0,0,0-.079.006.826.826,0,0,0-.1.193.963.963,0,0,1-.048.1c-.866,1.524-2.176,3.507-3.693,5.8-1.618,2.45-3.452,5.227-5.08,7.963q-.02.034-.044.067A42.234,42.234,0,0,1,148.9,111.67Zm-2.633-17.607a.845.845,0,0,0-.107.2.961.961,0,0,1-.049.1c-.794,1.386-1.978,3.262-3.348,5.435-2.174,3.445-4.879,7.733-6.986,11.621-2.371,4.375-3.573,7.489-3.573,9.255,0,1.389.626,1.389.962,1.389q.113,0,.238-.012a1.613,1.613,0,0,1-.276-.948c0-1.512,1.251-3.865,2.192-5.5,1.2-2.092,2.879-4.654,4.987-7.613,4-5.619,8.439-11.12,10.926-13.922h-4.885A.443.443,0,0,0,146.267,94.062Z" transform="translate(125.763 89.209)" fill="#fff"/>
          <path id="Path_6931" data-name="Path 6931" d="M173.7,98.036a.447.447,0,0,0-.427-.356c-2.638,0-12.613,8.693-19.238,20.235-1.639,2.849-2.209,3.918-2.209,3.918-.143.286-.356.429-.854.429h-6.2c-.072,0-.286,0-.286-.213,0-.143.072-.356.429-.785,4.915-5.771,14.818-19.451,18.666-26.576.356-.713.429-1.14,1.212-1.14h4.915q1.069,0,1.069.427a1.173,1.173,0,0,1-.356.64,84.043,84.043,0,0,0-9.049,11.258c5.344-5.842,11.971-12.325,17.385-12.325.926,0,1.355.427,1.355,1.14,0,2.422-4.7,8.123-5.63,9.975,4.986-5.558,14.6-12.041,21.089-12.041,1.569,0,2.066.284,2.066.783,0,.57-.781,1.5-1.565,2.422-4.847,5.7-17.671,21.09-17.671,25.152a.825.825,0,0,0,.926.926,4.983,4.983,0,0,0,1.639-.429c3.777-1.78,10.829-7.551,21.231-19.949l.715.713c-10.547,13.109-20.664,21.445-25.365,21.445-1.782,0-2.779-1.21-2.779-3.705,0-6.554,10.829-19.023,13.964-22.657a.445.445,0,0,0-.427-.356c-2.779,0-15.249,6.983-23.086,24.866-.143.286-.356.429-.856.429h-4.915c-.071,0-.284,0-.284-.213,0-.143.069-.356.425-.785,4.49-6.341,14.037-21.089,14.109-23.227" transform="translate(138.455 88.755)" fill="#050605"/>
          <path id="Path_6932" data-name="Path 6932" d="M195.57,91.659a5.312,5.312,0,0,1,1.991.278A1.558,1.558,0,0,1,198.6,93.4c0,.862-.677,1.725-1.792,3.044-4.138,4.867-7.81,9.413-10.619,13.148-2.095,2.785-3.738,5.154-4.885,7.041-1.641,2.7-1.925,3.849-1.939,4.3a4.509,4.509,0,0,0,1.217-.348c2.2-1.045,8.594-5.043,20.879-19.685a.962.962,0,0,1,1.417-.063l.715.713a.963.963,0,0,1,.07,1.285,115.631,115.631,0,0,1-15.006,15.772c-3.279,2.752-7.867,6.032-11.109,6.032a3.4,3.4,0,0,1-2.821-1.293,5.458,5.458,0,0,1-.92-3.374,14.471,14.471,0,0,1,1.8-6.139,51.632,51.632,0,0,1,4.066-6.674c2.364-3.366,4.956-6.516,6.787-8.672a28.925,28.925,0,0,0-7.157,4.915,54.288,54.288,0,0,0-13.2,18.808l-.021.044a1.773,1.773,0,0,1-1.717.961h-4.915a1.172,1.172,0,0,1-1.246-1.176,2.162,2.162,0,0,1,.622-1.371c2.024-2.86,5.462-7.985,8.6-13.022a80.91,80.91,0,0,0,4.976-8.721,27.489,27.489,0,0,0-6.577,5.217,68.964,68.964,0,0,0-10.957,14.241c-1.533,2.666-2.132,3.777-2.19,3.884a1.772,1.772,0,0,1-1.708.947h-6.2a1.173,1.173,0,0,1-1.248-1.176,2.206,2.206,0,0,1,.651-1.4l.008-.009c2.436-2.861,6.146-7.732,9.681-12.713a149.272,149.272,0,0,0,8.864-13.682c.042-.085.082-.169.12-.25a1.969,1.969,0,0,1,1.947-1.409h4.915a3.1,3.1,0,0,1,1.159.176,1.3,1.3,0,0,1,.873,1.214A2.046,2.046,0,0,1,171.1,95.3l-.011.011c-.24.233-.508.5-.8.811,3.224-2.375,6-3.532,8.465-3.532a2.437,2.437,0,0,1,1.66.542,1.991,1.991,0,0,1,.658,1.56,9.113,9.113,0,0,1-1.619,4.133,48.921,48.921,0,0,1,4.511-3.086C189.55,92.365,193.358,91.659,195.57,91.659Zm.978,1.986a6.168,6.168,0,0,0-.978-.061,19.757,19.757,0,0,0-8.578,2.652A4.7,4.7,0,0,1,188.305,96a1.389,1.389,0,0,1,1.371,1.132.962.962,0,0,1-.215.815l-.12.139c-1.646,1.907-5.071,5.877-8.094,10.182-2.517,3.584-5.517,8.525-5.517,11.707,0,2.743,1.273,2.743,1.816,2.743a4.105,4.105,0,0,0,.79-.085,1.781,1.781,0,0,1-.9-1.659c0-1.153.705-2.85,2.22-5.342,1.18-1.941,2.859-4.363,4.992-7.2,2.832-3.765,6.528-8.342,10.689-13.235A15.451,15.451,0,0,0,196.549,93.644Zm-27.384.866h-4.372l-.055,0c-.043.075-.1.2-.15.3s-.091.194-.147.3l-.014.027a150.868,150.868,0,0,1-8.995,13.895c-3.335,4.7-6.831,9.309-9.29,12.26h4.877c.162-.3.781-1.432,2.18-3.864a70.307,70.307,0,0,1,7.649-10.754q-.037-.024-.073-.052a.962.962,0,0,1-.2-1.3A91.156,91.156,0,0,1,169.165,94.51Zm9.972.058a.883.883,0,0,0-.38-.058,11.653,11.653,0,0,0-6.055,2.276,2.62,2.62,0,0,1,.57-.069,1.392,1.392,0,0,1,1.37,1.127.963.963,0,0,1,.019.224c-.016.467-.058,1.709-5.543,10.514-3,4.822-6.287,9.737-8.376,12.717H164.4a58.91,58.91,0,0,1,9.977-15.679.963.963,0,0,1-.758-1.388,28.946,28.946,0,0,1,1.8-2.787c1.394-2.019,3.727-5.4,3.727-6.758A.448.448,0,0,0,179.137,94.568Z" transform="translate(138.455 88.755)" fill="#fff"/>
          <rect id="Rectangle_627" data-name="Rectangle 627" width="255.056" height="65.283" transform="translate(88.218 214.154)" fill="#050605"/>
          <path id="Path_6933" data-name="Path 6933" d="M66.6,146.253a13.371,13.371,0,0,1-.3-3.217v-1.39c0-1,0-2.456-.979-2.456h-.956v7.063H62.345V130.908H65.67c1.911,0,2.738.327,2.738,2.979V135.8c0,2.52-.891,2.563-1.847,2.671,1.433.067,1.76.85,1.76,2.74v2.021a6.8,6.8,0,0,0,.392,3.022Zm-2.217-8.759H65.41c.869,0,1-.738,1-1.694v-1.522c0-.956,0-1.522-.717-1.522h-1.3Z" transform="translate(59.743 125.444)" fill="#fff"/>
          <path id="Path_6934" data-name="Path 6934" d="M71.455,141.964c0,1.414-.456,2.761-2.63,2.761-2.369,0-2.587-1.522-2.587-3.325v-5.8c0-1.349.478-2.89,2.651-2.89,1.717,0,2.565.738,2.565,2.651Zm-1.717-6.715c0-.587-.065-1.108-.848-1.108-.717,0-.913.413-.913,1.261v6.868c0,.7.174,1.02.826,1.02.826,0,.934-.521.934-1.173Z" transform="translate(63.473 127.168)" fill="#fff"/>
          <path id="Path_6935" data-name="Path 6935" d="M74.928,141.964c0,1.414-.456,2.761-2.63,2.761-2.369,0-2.587-1.522-2.587-3.325v-5.8c0-1.349.478-2.89,2.651-2.89,1.717,0,2.565.738,2.565,2.651Zm-1.717-6.715c0-.587-.065-1.108-.848-1.108-.717,0-.913.413-.913,1.261v6.868c0,.7.174,1.02.826,1.02.826,0,.934-.521.934-1.173Z" transform="translate(66.801 127.168)" fill="#fff"/>
          <path id="Path_6936" data-name="Path 6936" d="M75.6,136.081v10.173H73.818V136.081h-.956V134.6h.977V132.5c0-1.522.8-1.586,1.631-1.586a9.3,9.3,0,0,1,1.108.065v1.479h-.3c-.413,0-.654.086-.654.674V134.6h1v1.477Zm2.066-1.477H79.4v11.65H77.666Zm.022-3.631h1.739v2.3H77.687Z" transform="translate(69.821 125.445)" fill="#fff"/>
          <path id="Path_6937" data-name="Path 6937" d="M80.535,144.541v-9.127c0-.611-.088-1.132-.76-1.132-.8,0-.913.7-.913,1.328v8.932H77.122v-11.65h1.741v.762a2.054,2.054,0,0,1,1.694-.958c1.39,0,1.76,1.022,1.76,2.217v9.629Z" transform="translate(73.903 127.157)" fill="#fff"/>
          <path id="Path_6938" data-name="Path 6938" d="M85.734,145.062a2.4,2.4,0,0,1-2.63,2.587,2.275,2.275,0,0,1-2.522-2.238v-.131h1.741c0,.566.2.913.846.913.719,0,.826-.521.826-.934v-1.522a1.873,1.873,0,0,1-1.653.934,1.726,1.726,0,0,1-1.78-2v-7.823c0-.8.26-2.152,1.78-2.152a1.8,1.8,0,0,1,1.674,1.022v-.826h1.717Zm-1.739-9.3c0-.587-.022-1.479-.891-1.479-.8,0-.826.7-.826,1.479v6.084c0,.609,0,1.24.826,1.24.8,0,.891-.7.891-1.3Z" transform="translate(77.2 127.158)" fill="#fff"/>
          <path id="Path_6939" data-name="Path 6939" d="M87.934,140.795v2.8c0,.979.26,1.479,1.042,1.479.958,0,.979-1.108.979-1.911,0-1.782-.934-2.912-1.7-4.065l-.826-1.261a6.575,6.575,0,0,1-1.238-3.911,2.906,2.906,0,0,1,3.108-3.174c2.238,0,2.587,1.435,2.587,2.63V136.1H90.041v-2.63c0-.413-.065-1.13-.8-1.13-.979,0-1,.846-1,1.565a5.852,5.852,0,0,0,1.349,3.564l1.085,1.608a6.7,6.7,0,0,1,1.347,3.781c0,.913-.043,3.826-3.043,3.826a2.815,2.815,0,0,1-2.238-.913,3.417,3.417,0,0,1-.674-2.436v-2.542Z" transform="translate(82.472 125.296)" fill="#fff"/>
          <path id="Path_6940" data-name="Path 6940" d="M92.926,145.683c-.129.762-.282,1.87-2.2,1.87-.282,0-.587-.023-.891-.045v-1.672c.566,0,1.392,0,1.392-1.044a2.924,2.924,0,0,0-.043-.566L89.448,132.8h1.784l1.02,9.235,1.065-9.235h1.8Z" transform="translate(85.715 127.254)" fill="#fff"/>
          <path id="Path_6941" data-name="Path 6941" d="M94.33,140.238v1.369c0,1.022.129,1.586,1.022,1.586.7,0,.913-.521.913-1.52a2.561,2.561,0,0,0-.958-2l-.934-.936a3.993,3.993,0,0,1-1.52-3.172c0-1.629.717-2.847,2.585-2.847a2.209,2.209,0,0,1,2.064,1.065,5.188,5.188,0,0,1,.37,2.587H96.265c0-1.218-.043-2.044-.913-2.044-.74,0-.869.5-.869,1.087a2.268,2.268,0,0,0,.934,1.87l.8.781c1.455,1.414,1.76,2.217,1.76,3.609,0,.891-.349,3.086-2.7,3.086a2.777,2.777,0,0,1-1.672-.523,3.357,3.357,0,0,1-.936-2.89v-1.108Z" transform="translate(88.809 127.179)" fill="#fff"/>
          <path id="Path_6942" data-name="Path 6942" d="M95.728,135.5V134.02h1.087v-2.5h1.739v2.5h.977V135.5h-1v8.129c0,.609.3.738.76.738h.37s-.022,1.175-.022,1.326a4.287,4.287,0,0,1-1,.11c-1.522,0-1.868-.5-1.868-1.825V135.5Z" transform="translate(91.733 126.03)" fill="#fff"/>
          <path id="Path_6943" data-name="Path 6943" d="M103.332,141.814c0,1.911-.8,2.912-2.651,2.912-1.347,0-2.522-.544-2.522-2.391V135.4a2.413,2.413,0,0,1,2.608-2.7,2.317,2.317,0,0,1,2.565,2.63v3.76H99.875v3.284c0,.347.043.934.8.934.891,0,.891-.762.891-1.065V140.2h1.76Zm-1.76-6.607c0-.566-.065-1.065-.8-1.065-.848,0-.891.652-.891,1.261v2.26h1.7Z" transform="translate(94.061 127.167)" fill="#fff"/>
          <path id="Path_6944" data-name="Path 6944" d="M108.51,144.541v-9.3c0-.587-.153-.936-.738-.936-.848,0-.936.544-.936,1.153v9.084H105.1v-9.127c0-.566-.065-1.132-.8-1.132-.783,0-.891.674-.891,1.218v9.041h-1.739v-11.65h1.717v.8a1.813,1.813,0,0,1,1.651-1,1.668,1.668,0,0,1,1.653,1.153,1.962,1.962,0,0,1,1.847-1.132c.891,0,1.76.544,1.76,2.066v9.758Z" transform="translate(97.421 127.157)" fill="#fff"/>
          <path id="Path_6945" data-name="Path 6945" d="M109.065,146.253V130.909h2.021v13.453h3.347v1.892Z" transform="translate(104.512 125.445)" fill="#fff"/>
          <path id="Path_6946" data-name="Path 6946" d="M112.3,134.573h1.739v11.65H112.3Zm.022-3.631h1.739v2.3h-1.739Z" transform="translate(107.617 125.477)" fill="#fff"/>
          <path id="Path_6947" data-name="Path 6947" d="M120.992,144.541v-9.3c0-.587-.153-.936-.738-.936-.848,0-.936.544-.936,1.153v9.084h-1.739v-9.127c0-.566-.065-1.132-.8-1.132-.783,0-.891.674-.891,1.218v9.041h-1.739v-11.65h1.717v.8a1.815,1.815,0,0,1,1.651-1,1.668,1.668,0,0,1,1.653,1.153,1.962,1.962,0,0,1,1.847-1.132c.891,0,1.76.544,1.76,2.066v9.758Z" transform="translate(109.382 127.157)" fill="#fff"/>
          <path id="Path_6948" data-name="Path 6948" d="M119.471,134.573h1.739v11.65h-1.739Zm.024-3.631h1.739v2.3h-1.739Z" transform="translate(114.485 125.477)" fill="#fff"/>
          <path id="Path_6949" data-name="Path 6949" d="M120.925,135.5V134.02h1.087v-2.5h1.739v2.5h.977V135.5h-1v8.129c0,.609.3.738.76.738h.37s-.022,1.175-.022,1.326a4.286,4.286,0,0,1-1,.11c-1.522,0-1.868-.5-1.868-1.825V135.5Z" transform="translate(115.878 126.03)" fill="#fff"/>
          <path id="Path_6950" data-name="Path 6950" d="M128.528,141.814c0,1.911-.8,2.912-2.651,2.912-1.347,0-2.522-.544-2.522-2.391V135.4a2.413,2.413,0,0,1,2.608-2.7,2.317,2.317,0,0,1,2.565,2.63v3.76h-3.456v3.284c0,.347.043.934.8.934.891,0,.891-.762.891-1.065V140.2h1.76Zm-1.76-6.607c0-.566-.065-1.065-.8-1.065-.848,0-.891.652-.891,1.261v2.26h1.7Z" transform="translate(118.206 127.167)" fill="#fff"/>
          <path id="Path_6951" data-name="Path 6951" d="M130.207,146.253v-.8a1.863,1.863,0,0,1-1.608.977c-1.524,0-1.76-1.15-1.76-2.086V136.43a1.762,1.762,0,0,1,1.76-1.978,2.077,2.077,0,0,1,1.608.869v-4.414h1.76v15.345Zm0-9.259c0-.5-.2-.956-.8-.956-.738,0-.848.564-.848,1.13v6.65c0,.8.217,1.042.783,1.042.609,0,.869-.521.869-1.173Z" transform="translate(121.545 125.444)" fill="#fff"/>
          <path id="Path_6952" data-name="Path 6952" d="M140.364,146.253H138.04L137,135.994l-.956,10.259h-2.326L132,130.909h2l.936,11.867,1.13-11.867h1.847l1.283,11.867.956-11.867h2Z" transform="translate(126.488 125.445)" fill="#fff"/>
          <path id="Path_6953" data-name="Path 6953" d="M141.042,144.541a4.6,4.6,0,0,1-.3-.934,1.84,1.84,0,0,1-1.7,1.065c-1.173,0-1.631-.676-1.631-1.958v-1.954c0-1.149.067-1.653,1.065-2.281l1.674-1.044a1.582,1.582,0,0,0,.7-.676v-1.735c0-.264,0-.893-.76-.893-.48,0-.762.174-.762.848v1.651h-1.782v-1.435c0-1.326.435-2.5,2.52-2.5,1.347,0,2.522.48,2.522,2.393v7.692a4.1,4.1,0,0,0,.327,1.76Zm-.2-5.759-1.087.76a1.265,1.265,0,0,0-.607,1.177v1.257c0,.826.129,1.3.693,1.3.893,0,1-1.151,1-1.782Z" transform="translate(131.676 127.157)" fill="#fff"/>
          <path id="Path_6954" data-name="Path 6954" d="M142.633,132.858v1.347c.37-.8.783-1.477,1.782-1.477a3.588,3.588,0,0,1,.478.041v2.023a1.643,1.643,0,0,0-1.042-.349c-1.153,0-1.261,1.261-1.261,2.262v7.8h-1.739v-11.65Z" transform="translate(134.972 127.189)" fill="#fff"/>
          <path id="Path_6955" data-name="Path 6955" d="M145.174,132.858v1.347c.37-.8.783-1.477,1.782-1.477a3.589,3.589,0,0,1,.478.041v2.023a1.643,1.643,0,0,0-1.042-.349c-1.153,0-1.261,1.261-1.261,2.262v7.8h-1.739v-11.65Z" transform="translate(137.407 127.189)" fill="#fff"/>
          <path id="Path_6956" data-name="Path 6956" d="M149.374,144.541a4.6,4.6,0,0,1-.3-.934,1.84,1.84,0,0,1-1.7,1.065c-1.173,0-1.631-.676-1.631-1.958v-1.954c0-1.149.067-1.653,1.065-2.281l1.674-1.044a1.582,1.582,0,0,0,.7-.676v-1.735c0-.264,0-.893-.76-.893-.48,0-.762.174-.762.848v1.651h-1.782v-1.435c0-1.326.435-2.5,2.52-2.5,1.349,0,2.522.48,2.522,2.393v7.692a4.1,4.1,0,0,0,.327,1.76Zm-.2-5.759-1.087.76a1.265,1.265,0,0,0-.607,1.177v1.257c0,.826.129,1.3.7,1.3.891,0,1-1.151,1-1.782Z" transform="translate(139.66 127.157)" fill="#fff"/>
          <path id="Path_6957" data-name="Path 6957" d="M152.684,144.541v-9.127c0-.611-.088-1.132-.762-1.132-.8,0-.913.7-.913,1.328v8.932h-1.739v-11.65h1.739v.762a2.055,2.055,0,0,1,1.7-.958c1.39,0,1.76,1.022,1.76,2.217v9.629Z" transform="translate(143.041 127.157)" fill="#fff"/>
          <path id="Path_6958" data-name="Path 6958" d="M152.389,135.5V134.02h1.087v-2.5h1.739v2.5h.977V135.5h-1v8.129c0,.609.3.738.76.738h.37s-.022,1.175-.022,1.326a4.286,4.286,0,0,1-1,.11c-1.522,0-1.868-.5-1.868-1.825V135.5Z" transform="translate(146.029 126.03)" fill="#fff"/>
          <path id="Path_6959" data-name="Path 6959" d="M158.019,145.683c-.129.762-.282,1.87-2.2,1.87-.282,0-.587-.023-.891-.045v-1.672c.566,0,1.392,0,1.392-1.044a2.8,2.8,0,0,0-.045-.566l-1.739-11.43h1.784l1.02,9.235,1.065-9.235h1.8Z" transform="translate(148.091 127.254)" fill="#fff"/>
          <path id="Path_6960" data-name="Path 6960" d="M47.482,111.48H62.608c2.883.11,5.389.26,7.524,2.469a8.628,8.628,0,0,1,2.209,6.176,9.148,9.148,0,0,1-2.509,6.738c-2.209,2.281-4.641,2.4-7.524,2.473H55.869v8.607H47.482Zm8.387,5.575v6.738h4.79a6,6,0,0,0,1.386-.188,3.118,3.118,0,0,0,2.021-3.219c0-3.106-2.432-3.257-3.484-3.331Z" transform="translate(45.5 106.827)" fill="#fff"/>
          <path id="Path_6961" data-name="Path 6961" d="M60.813,111.479H73.99a18.427,18.427,0,0,1,6.513.822c3.521,1.5,4.567,5.091,4.567,7.637a7.406,7.406,0,0,1-2.019,5.317,8.273,8.273,0,0,1-3.409,2.021l6.441,10.669H76.8l-5.129-9.321H69.2v9.321H60.813Zm8.387,5.54V123.2h3.482c1.384,0,4.044-.078,4.044-3.073,0-3.031-2.622-3.106-4.081-3.106Z" transform="translate(58.275 106.826)" fill="#fff"/>
          <path id="Path_6962" data-name="Path 6962" d="M102.057,124.926c0,6.7-3.93,14.338-14.3,14.338-10.817,0-14.074-8.011-14.074-14.039,0-7.561,4.678-14.225,14.223-14.225,10.445,0,14.148,7.637,14.148,13.925m-19.988.262c0,4.608,1.87,7.375,5.84,7.375,3.37,0,5.73-2.657,5.73-7.637a10.277,10.277,0,0,0-.49-3.482,5.341,5.341,0,0,0-5.24-3.779c-2.994,0-5.84,2.058-5.84,7.524" transform="translate(70.611 106.368)" fill="#fff"/>
          <path id="Path_6963" data-name="Path 6963" d="M88.31,111.479h21.748v6.55h-6.7v19.916H95.015V118.03H88.31Z" transform="translate(84.624 106.827)" fill="#fff"/>
          <path id="Path_6964" data-name="Path 6964" d="M100,111.5h20.924v5.8H108.383v3.93H120.1v5.728H108.383V132.2h13.665v5.73H100Z" transform="translate(95.826 106.845)" fill="#fff"/>
          <path id="Path_6965" data-name="Path 6965" d="M138.23,131.589a14.027,14.027,0,0,1-2.585,3.744,14.51,14.51,0,0,1-10.255,3.893c-9.433,0-13.7-7.112-13.7-13.886,0-7.114,4.753-14.338,13.7-14.338a14.606,14.606,0,0,1,10.594,4.265,12.379,12.379,0,0,1,2.209,3.108l-7,3.482c-.676-1.571-1.948-4.379-5.467-4.379a4.941,4.941,0,0,0-3.554,1.42c-1.988,1.911-1.988,4.905-1.988,5.953,0,3.93,1.463,7.637,5.581,7.637,3.891,0,5.052-3.443,5.352-4.341Z" transform="translate(107.028 106.369)" fill="#fff"/>
          <path id="Path_6966" data-name="Path 6966" d="M125.547,111.479H147.3v6.55h-6.7v19.916h-8.346V118.03h-6.7Z" transform="translate(120.307 106.827)" fill="#fff"/>
          <rect id="Rectangle_628" data-name="Rectangle 628" width="8.383" height="26.429" transform="translate(268.76 218.342)" fill="#fff"/>
          <path id="Path_6967" data-name="Path 6967" d="M171.085,124.926c0,6.7-3.93,14.338-14.3,14.338-10.817,0-14.074-8.011-14.074-14.039,0-7.561,4.68-14.225,14.225-14.225,10.441,0,14.148,7.637,14.148,13.925m-19.988.262c0,4.608,1.868,7.375,5.84,7.375,3.366,0,5.728-2.657,5.728-7.637a10.327,10.327,0,0,0-.49-3.482,5.34,5.34,0,0,0-5.238-3.779c-3,0-5.84,2.058-5.84,7.524" transform="translate(136.756 106.368)" fill="#fff"/>
          <path id="Path_6968" data-name="Path 6968" d="M158.411,111.5h8.869l5.955,9.995c1.459,2.734,1.868,3.517,3.217,6.474-.223-2.583-.264-3.143-.335-6.1V111.5h7.821v26.429h-8.985l-5.352-9.135a70.528,70.528,0,0,1-3.666-6.96c.184,2.395.219,2.992.26,5.389v10.706h-7.786Z" transform="translate(151.799 106.844)" fill="#fff"/>
          <path id="Path_6969" data-name="Path 6969" d="M57.627,136.187a33.247,33.247,0,0,1,6.811,1.04,7.418,7.418,0,0,0,4.03.533c.374-.123,2.324-.66,1.827-1.322s-1.578-.625-6.4-.625-7.851-.5-11.879.582c-2.009.539-5.567,3.407-3.2,5.4s9.3-5.981,10.052-7.267-.707-.582-.707-.582-6.308,9.094-9.055,7.226c-1.038-.7.384-2.43.54-2.616.456-.54,2.491-2.575,7.974-2.368" transform="translate(46.032 128.169)" fill="#fff"/>
          <path id="Path_6970" data-name="Path 6970" d="M173.117,136.187a33.278,33.278,0,0,0-6.813,1.04,7.411,7.411,0,0,1-4.028.533c-.374-.123-2.324-.66-1.827-1.322s1.576-.625,6.4-.625,7.851-.5,11.879.582c2.009.539,5.567,3.407,3.2,5.4s-9.3-5.981-10.052-7.267.707-.582.707-.582,6.308,9.094,9.053,7.226c1.04-.7-.382-2.43-.539-2.616-.456-.54-2.493-2.575-7.974-2.368" transform="translate(153.676 128.169)" fill="#fff"/>
          <path id="Path_6971" data-name="Path 6971" d="M74.088,140.785c-9.069,11.289-19.064,19.064-27.7,19.064a4.245,4.245,0,0,1-4.567-4.567c0-6.108,8.391-16.224,27.331-16.224H71.56l.864-1.234c14.622-20.607,30.046-48.246,30.723-50.034.309-.617.37-.742,1.05-.8.493-.061,3.578-.186,4.935-.186.68,0,.987.125.987.311a1.13,1.13,0,0,1-.37.615c-4.011,4.876-19.495,30.539-31.649,47.69-.864,1.234-1.727,2.467-2.651,3.64Zm-6.971-.063c-15.423,0-24,9.872-24,14.746a2.534,2.534,0,0,0,2.838,2.714c7.157,0,16.164-6.848,24.371-17.46Zm30.909-64.47c.309-4.009,1.727-6.167,4.011-6.167,4.441,0,20.791,12.4,20.791,25.168,0,10.8-14.622,19.064-24.8,19.064-1.788,0-3.517-.061-3.517-1.665a10.93,10.93,0,0,0,3.58.493c8.266,0,19.99-6.787,19.99-16.289,0-9.93-10.428-19.122-20.053-20.6" transform="translate(40.076 67.161)" fill="#050605"/>
          <path id="Path_6972" data-name="Path 6972" d="M77.7,129.7a10.451,10.451,0,0,0-1.353,3.635c0,.427.213.64.57.64.783,0,2.209-.854,3.846-2,4.061-2.706,10.4-8.477,18.884-18.6l.711.713c-6.554,8.193-12.968,14.534-18.026,18.1-2.422,1.641-5.131,3.135-6.913,3.135-1.138,0-1.923-.64-1.923-2.279a12.67,12.67,0,0,1,.713-3.633c3.349-10.118,24.439-43.037,27.147-48.023.427-.713.427-.856,1.21-.926.572-.072,4.275-.215,5.843-.215.781,0,1.14.072,1.14.356,0,.143-.143.356-.427.713C104.849,86.662,82.9,119.438,77.7,129.7" transform="translate(70.429 76.9)" fill="#050605"/>
          <path id="Path_6973" data-name="Path 6973" d="M113.716,94.8h4.847c.854,0,1.21.288,1.21.715a1.3,1.3,0,0,1-.356.783c-7.267,7.267-19.023,20.662-19.023,26.006a1,1,0,0,0,1.138,1.067c2.708,0,10.475-5.131,23.442-20.591l.711.715c-10.543,13.109-20.66,21.445-25.363,21.445-1.782,0-2.779-1.21-2.779-3.705a13.432,13.432,0,0,1,1.353-5.344c-2.779,2.992-7.837,8.479-12.112,8.479-3.278,0-4.772-2-4.772-4.917,0-9.192,14.319-28.142,32.987-28.142.642,0,.926.211.926.5a1.136,1.136,0,0,1-.926.928c-14.25,0-29.07,25.005-29.07,28.853,0,.856.284,1.285.928,1.285,4.7,0,12.325-9.265,16.244-14.109,2.922-4.273,6.625-8.906,9.832-13.677a1.16,1.16,0,0,1,.783-.288" transform="translate(78.589 87.5)" fill="#050605"/>
          <path id="Path_6974" data-name="Path 6974" d="M120.472,100.912c4.061-.5,7.2-.856,7.2-.856.354,0,.5.072.5.286,0,.5-1.069,1.5-1.353,1.567l-7.553.856c-6.911,10.4-14.035,21.66-16.673,26.932a10.5,10.5,0,0,0-1.353,3.635c0,.427.213.64.57.64.783,0,2.209-.854,3.848-1.993,4.061-2.708,10.4-8.479,18.882-18.6l.711.713c-6.554,8.193-12.966,14.536-18.026,18.1-2.422,1.641-5.131,3.137-6.909,3.137-1.142,0-1.925-.642-1.925-2.281a12.671,12.671,0,0,1,.713-3.633c1.637-5.058,7.765-15.817,13.821-26.008l-5.2.57h-.071a.19.19,0,0,1-.215-.213,2.317,2.317,0,0,1,1.782-1.5c1.639-.213,3.206-.427,4.774-.57,5.628-9.4,10.972-17.955,12.253-20.305.429-.713.429-.856,1.212-.926.57-.072,4.275-.213,5.843-.213.785,0,1.14.071,1.14.354,0,.143-.143.356-.427.713-1.925,2.422-7.553,10.545-13.537,19.594" transform="translate(94.279 76.901)" fill="#050605"/>
          <path id="Path_6975" data-name="Path 6975" d="M126.487,101.739c.856,0,1.212.286,1.212.713a1.3,1.3,0,0,1-.356.783c-5.274,5.914-17.812,22.444-17.812,26.006a1,1,0,0,0,1.14,1.069c2.708,0,10.475-5.129,23.442-20.591l.711.713c-10.545,13.111-20.662,21.447-25.363,21.447-1.782,0-2.779-1.212-2.779-3.705,0-5.771,10.543-19.808,13.892-25.651a1.073,1.073,0,0,1,1.069-.783Zm9.832-15.247c0,3.421-4.631,9.689-8.05,9.689a1.92,1.92,0,0,1-2.209-2.066c0-3.492,4.988-10.046,8.052-10.046a2.187,2.187,0,0,1,2.207,2.422" transform="translate(102.228 80.561)" fill="#050605"/>
          <path id="Path_6976" data-name="Path 6976" d="M154.257,93.7c0,.57-.783,1.426-1.639,2.493-4.561,5.914-16.957,20.521-16.957,24.439,0,.642.354,1,1.067,1a4.978,4.978,0,0,0,1.569-.5c3.776-1.782,10.831-7.553,21.231-19.951l.713.713C149.7,115,139.58,123.337,134.876,123.337c-1.78,0-2.779-1.212-2.779-3.705,0-7.267,10.9-19.308,15.036-22.514,0-.143-.072-.215-.286-.215-4.345,0-19.166,12.257-24.653,20.664a21.5,21.5,0,0,0-2.209,3.918c-.143.284-.356.427-.854.427h-6.2c-.07,0-.284,0-.284-.213,0-.143.07-.356.427-.783,4.917-5.771,14.82-19.451,18.666-26.576.356-.713.429-1.142,1.212-1.142h4.917q1.066,0,1.067.429a1.179,1.179,0,0,1-.356.64,86.9,86.9,0,0,0-10.545,13.61c5.843-5.131,17.315-14.893,24.155-14.893,1.567,0,2.066.286,2.066.713" transform="translate(107.946 89.103)" fill="#050605"/>
          <path id="Path_6977" data-name="Path 6977" d="M149.553,121.665c2.706,0,10.473-5.131,23.44-20.591l.713.713c-10.545,13.109-20.662,21.445-25.365,21.445-1.14,0-2.565-.926-2.565-3.705,0-1.78,1-4.345,2.424-7.2-2.424,3.351-11.258,10.688-15.034,10.688-1.142,0-1.925-.713-1.925-2.352,0-5.771,10.688-20.946,14.035-26.789a1.072,1.072,0,0,1,1.071-.783h4.843c.856,0,1.212.284,1.212.713a1.3,1.3,0,0,1-.356.783c-5.274,5.914-17.955,22.444-17.955,26.505,0,.427.213.57.57.57,1.925,0,11.115-6.84,16.246-14.037,3.135-5.272,6.981-10.616,8.763-13.751a1.07,1.07,0,0,1,1.069-.783h4.845c.856,0,1.21.284,1.21.713a1.308,1.308,0,0,1-.354.783c-5.274,5.914-18.026,21.8-18.026,26.006a1,1,0,0,0,1.14,1.069" transform="translate(125.763 89.209)" fill="#050605"/>
          <path id="Path_6978" data-name="Path 6978" d="M173.7,98.036a.447.447,0,0,0-.427-.356c-2.638,0-12.613,8.693-19.238,20.235-1.639,2.849-2.209,3.918-2.209,3.918-.143.286-.356.429-.854.429h-6.2c-.072,0-.286,0-.286-.213,0-.143.072-.356.429-.785,4.915-5.771,14.818-19.451,18.666-26.576.356-.713.429-1.14,1.212-1.14h4.915q1.069,0,1.069.427a1.173,1.173,0,0,1-.356.64,84.043,84.043,0,0,0-9.049,11.258c5.344-5.842,11.971-12.325,17.385-12.325.926,0,1.355.427,1.355,1.14,0,2.422-4.7,8.123-5.63,9.975,4.986-5.558,14.6-12.041,21.089-12.041,1.569,0,2.066.284,2.066.783,0,.57-.781,1.5-1.565,2.422-4.847,5.7-17.671,21.09-17.671,25.152a.825.825,0,0,0,.926.926,4.983,4.983,0,0,0,1.639-.429c3.777-1.78,10.829-7.551,21.231-19.949l.715.713c-10.547,13.109-20.664,21.445-25.365,21.445-1.782,0-2.779-1.21-2.779-3.705,0-6.554,10.829-19.023,13.964-22.657a.445.445,0,0,0-.427-.356c-2.779,0-15.249,6.983-23.086,24.866-.143.286-.356.429-.856.429h-4.915c-.071,0-.284,0-.284-.213,0-.143.069-.356.425-.785,4.49-6.341,14.037-21.089,14.109-23.227" transform="translate(138.455 88.755)" fill="#050605"/>
          <path id="Path_6979" data-name="Path 6979" d="M167.709,129.448h-1.647v-.594h4.009v.594h-1.656v4.82h-.706Z" transform="translate(143.651 126.649)" fill="#fff"/>
          <path id="Path_6980" data-name="Path 6980" d="M172.292,131.891c-.041-.756-.088-1.662-.079-2.338h-.024c-.188.635-.412,1.309-.685,2.059l-.956,2.626h-.529l-.876-2.579c-.256-.765-.474-1.462-.626-2.106H168.5c-.015.676-.053,1.582-.1,2.394l-.144,2.323h-.668l.379-5.417h.891l.923,2.62c.224.668.412,1.262.547,1.823h.024c.135-.547.329-1.141.571-1.823l.965-2.62h.891l.338,5.417h-.685Z" transform="translate(146.602 126.648)" fill="#fff"/>
          <path id="Path_6981" data-name="Path 6981" d="M143.637,98.1l1.208-6.405-3.556-8.959h4.353l.958,3.488c.3,1.048.525,1.71.752,2.667h.047c.546-.889,1.026-1.665,1.665-2.759l2.005-3.4h5.039l-7.159,8.8L147.694,98.1Z" transform="translate(135.392 79.287)" fill="#050605"/>
          <path id="Path_6982" data-name="Path 6982" d="M158.52,92.018h-6.133l-.5,2.667h6.862l-.638,3.419H147.166l2.9-15.365h10.6L160,86.159h-6.521l-.456,2.44h6.157Z" transform="translate(141.024 79.286)" fill="#050605"/>
          <path id="Path_6983" data-name="Path 6983" d="M158.757,94.32l-1.664,3.785h-4.469l7.682-15.366h5.45l2.189,15.366h-4.379l-.274-3.785Zm4.308-3.1-.274-2.712c-.09-.868-.2-1.984-.317-2.873h-.047c-.411.889-.821,2.005-1.253,2.894l-1.208,2.691Z" transform="translate(146.254 79.286)" fill="#050605"/>
          <path id="Path_6984" data-name="Path 6984" d="M163.247,83.137a20.685,20.685,0,0,1,4.811-.456,11.242,11.242,0,0,1,4.377.683,3.533,3.533,0,0,1,2.234,3.4c0,2.3-1.437,3.466-3.511,4.195l-.023.092a3.326,3.326,0,0,1,1.437,2.644,28.186,28.186,0,0,0,.752,4.469h-4.195a20.5,20.5,0,0,1-.593-3.58c-.2-1.755-.866-2.166-2.211-2.166H165.5l-1.095,5.746h-4.034Zm2.828,6.292h1.414c1.6,0,2.941-.662,2.941-2.005,0-1.21-1.187-1.551-2.395-1.551a7.7,7.7,0,0,0-1.3.09Z" transform="translate(153.682 79.23)" fill="#050605"/>
          <path id="Path_6985" data-name="Path 6985" d="M168.282,93.93a8.927,8.927,0,0,0,4.332,1.116c1.071,0,2.074-.364,2.074-1.23,0-.707-.728-1.118-2.164-1.733-1.574-.662-3.717-1.847-3.717-4.263,0-3.329,3.1-5.221,6.793-5.221a9.613,9.613,0,0,1,4.332.821l-1.3,3.374a7.556,7.556,0,0,0-3.374-.73c-1.482,0-2.1.525-2.1,1.05,0,.8,1.3,1.3,2.415,1.8,2.031.889,3.511,2.119,3.511,4.171,0,3.875-3.441,5.426-7,5.426a9.75,9.75,0,0,1-5.244-1.3Z" transform="translate(159.883 79.152)" fill="#050605"/>
          <path id="Path_6986" data-name="Path 6986" d="M98.423,30.912h-.018l-.01,0,.027,0" transform="translate(94.289 29.622)" fill="#e782af"/>
          <path id="Path_6987" data-name="Path 6987" d="M55.726,27.992a11.958,11.958,0,0,1-1.255.885" transform="translate(52.198 26.824)" fill="#fff"/>
          <path id="Path_6988" data-name="Path 6988" d="M61.7,29.252c5.154-5.037,11.154-9.19,18.081-10.931.258-.114.926-.233.6-.01L76.027,20.3a41.17,41.17,0,0,0-12.719,8.72Z" transform="translate(59.125 17.427)" fill="#fff"/>
          <path id="Path_6989" data-name="Path 6989" d="M57.3,26.778c4.573-2.462,12.261-2.2,16.34,1.5,0,0,9.116-9.425,17.154-11.667,6.329-1.766,15.286,1.265,6.237,14.607a28.926,28.926,0,0,1-6.539,6.774l-1.118.742-.074.041c-3.041,1.4-6.206,3.11-9.413,3.86a12.525,12.525,0,0,1-5.17-.877,52.236,52.236,0,0,1-9.194,10.651c-2.683,2.029-5.744,4.328-9.063,4.725l-1.022.176c-4.645-2.452-7.833-8.144-7.788-13.526-.014-3.484,1.081-8.636,3.057-11.5,0,0,1.639-2.947,6.593-5.5" transform="translate(45.661 15.477)" fill="#181617"/>
        </g>
      </g>
      <g id="Group_3492" data-name="Group 3492" transform="translate(94.984 33.351)">
        <g id="Group_3491" data-name="Group 3491" clip-path="url(#clip-path-2)">
          <rect id="Rectangle_630" data-name="Rectangle 630" width="64.202" height="64.202" transform="translate(-7.478 -8.828)" fill="#9f8d56"/>
        </g>
      </g>
      <g id="Group_3494" data-name="Group 3494" transform="translate(94.984 33.349)">
        <g id="Group_3493" data-name="Group 3493" clip-path="url(#clip-path-3)">
          <path id="Path_6991" data-name="Path 6991" d="M89.93,38.749c-.2-2.7-3.566-5.563-5.279-3.353a3.4,3.4,0,0,1-5.849-.791c-.856-2.277-3.067-6.7-.856-8.125s1.854-3.995.429-3.711-2.569,5.636-5.137,5.849-5.849.215-6.919,1.784S65.1,32.757,67.6,34.255c1.218.73,3.85-2.154,5.563-1.569,1.8.613,2.65,4.71,2.283,6.063-.713,2.64,3.069,1.069,1.5,4.494s2.569,5.064,3.638,2.211-.642-6.276,2.567-5.779,1.713,1.357,5.209,1.927,1.6-2.379,1.569-2.853" transform="translate(-32.135 -11.551)" fill="#323b19"/>
          <path id="Path_6992" data-name="Path 6992" d="M68.771,30.3c.206,3.437-4.14,1.428-2.428,5.636s2.428,6.705,5.638,4.851,4.351-5.207,5.99-7.2a3.928,3.928,0,0,1,6.278.57c1.285,2.211,2.71,2.926,1,3.425s-2.71,1.782-3.638-.785-2.853-2.358-2.853-.394-2.64,3.819-1.071,6.386,2.783,4.565-1,4.565-7.347,0-6.846-2.211-3.854-4.78-5.352-2.783S60,41.427,60,44.566s-1.784.57-2-1.713-1.639-7.279-3.779-6.456,1-5.742,3.067-3.172,2.5,6.919,4.351,5.6-.143-2.319,1.357-4.672S65.986,32.3,66.129,30.3s2.5-2.354,2.642,0" transform="translate(-43.717 -5.882)" fill="#323b19"/>
          <path id="Path_6993" data-name="Path 6993" d="M73.542,24.552c-.333,2.25-3.425-.713-7.134.642s-4.708,1.142-2.924,3.353,7.275,2.71,5.777,5.064-.427,3.069-3.353,3.069-4.492-.274-4.422,2.859,2.348,3.787,0,4.351-1.351-1.433-3.705-3.358-2.213-5.279-4.567-4.708,2-3.212,5.207-2.569,5.992,1.285,5.565-.856-6.135-.642-7.206-3.566-2.211-2.783.215-5.137,3.566-4.78,2.5-5.779,3.779-2,3.067,2.853,2.211,3.995,3.282,2.07,2.281-5.706,4.778-3.995,3.212,3.781,2.926,5.706" transform="translate(-44.637 -16.97)" fill="#323b19"/>
          <path id="Path_6994" data-name="Path 6994" d="M87.756,41.792c-1.719,1.966-2.467-.713-2.467-4.281s-3.781-5.135-5.422-3.353.928,2.354-.57,6.421-1.927,5.777-4.71,3.5-4.136-3.638-5.207-1.285,2.213.856,2.569,3.067S78.44,49.425,75.8,51.28s-3.21,2.71.5,1.641,4.279-1.571,3.139-4.067-2-5.35.07-4.708,4.78-.427,4.565,2.71-.713,4.78,1.713,4.281S91.208,49,89,47.071s-1.381-4.353.772-4.637-.329-2.569-2.013-.642" transform="translate(-28.705 -1.324)" fill="#323b19"/>
          <path id="Path_6995" data-name="Path 6995" d="M82.726,20.9c-1.032,3.836-1.618,7.418,1.618,9.131s6.086,3.139,2.377,5.992-6.754,3.329-7.8-.476S75.213,24.8,72.263,26.223s2.379-7.61,4.281-2.949,1.512,9.511,4.228,9.511-.02-2.567-.84-6.562.891-6.658-2.628-6.752,3.329-4.567,5.043-2.379.854,2.041.38,3.8" transform="translate(-26.572 -17.548)" fill="#323b19"/>
          <path id="Path_6996" data-name="Path 6996" d="M66.672,41.661c-1.032,3.836-1.618,7.42,1.618,9.131s6.086,3.139,2.377,5.99-7.514-.38-8.56-4.183-6.374,4.8-9.321,6.229-2.187-3.282,3.043-8.086c3.709-3.4-.433-6.991,2.283-6.991s6.586,7.23,5.765,3.235.041-1.9-.535-5.373c-.952-5.73,6.088-5.135,7.8-2.947s-3.995,1.23-4.471,2.994" transform="translate(-46.043 2.206)" fill="#323b19"/>
          <path id="Path_6997" data-name="Path 6997" d="M74.012,21.382c2.336-.241,4.185,3.139,1.046,5.422s-4.328,1.712-5.9,5.041-3.995,5.231-5.992,1.332,4.185-3.139,3.043-7.42-4.028-5.041.648-6.942,9.339-4.647,8.959-1.659-5.8.041-5.516,1.849.95,2.663,3.709,2.377" transform="translate(-34.836 -18.177)" fill="#323b19"/>
          <path id="Path_6998" data-name="Path 6998" d="M62.729,43.684a1.078,1.078,0,0,1-1.169-.315,1.246,1.246,0,0,0-.155-.112c-.114-.049-.227-.094-.339-.145-.715.02.247,3.043,1.721,3.206,1.721.19,5.716-.063,5.906-2.076a6.784,6.784,0,0,1,.223-1.13,11.316,11.316,0,0,1-6.188.572" transform="translate(-36.698 7.963)" fill="#323b19"/>
          <path id="Path_6999" data-name="Path 6999" d="M80.312,48.1c2.567-1.522,3.043-2.377.952-3.423s-5.137-.952-5.516-4.187-3.425-2.947-4.091,0-4.067,5.708-5.219,3.045S63,42.776,62.907,41.159s-4.567,2.187-2.759,2.759a2.752,2.752,0,0,0,.278.067,1.669,1.669,0,0,1,1.518.1c1.79-.033,3.76-.313,3.464,1.073-.025.114-.051.229-.078.347,2.908.268,5.888-1.557,8.663-2.728,1.858-.785,3.468,1.9,1.688,2.736.239.262.258.644-.125,1.263-1.236,2-4.537,5.326-3.172,6.468s3.554,3.423,3.84,1.14,2.477.1,3.568-.57c2.383-1.453-2.048-4.185.521-5.706" transform="translate(-37.759 3.231)" fill="#323b19"/>
          <path id="Path_7000" data-name="Path 7000" d="M57.145,38.749c-.2-2.7-3.566-5.563-5.279-3.353a3.4,3.4,0,0,1-5.849-.791c-.856-2.277-3.067-6.7-.856-8.125s1.854-3.995.429-3.711-2.569,5.636-5.137,5.849-5.849.215-6.919,1.784-1.214,2.354,1.283,3.852c1.216.73,3.85-2.154,5.565-1.569,1.8.613,2.648,4.71,2.281,6.063-.713,2.64,3.069,1.069,1.5,4.494s2.569,5.064,3.638,2.211-.642-6.276,2.567-5.779,1.713,1.357,5.209,1.927,1.6-2.379,1.569-2.853" transform="translate(-63.551 -11.551)" fill="#323b19"/>
          <path id="Path_7001" data-name="Path 7001" d="M54.971,41.792c-1.719,1.966-2.469-.713-2.469-4.281s-3.779-5.135-5.42-3.353.928,2.354-.57,6.421-1.927,5.777-4.71,3.5-4.136-3.638-5.207-1.285,2.213.856,2.569,3.067,6.49,3.568,3.852,5.422-3.21,2.71.5,1.641,4.279-1.571,3.139-4.067-2-5.35.07-4.708,4.78-.427,4.567,2.71-.715,4.78,1.712,4.281,5.42-2.14,3.21-4.065-1.381-4.353.774-4.637-.331-2.569-2.015-.642" transform="translate(-60.122 -1.324)" fill="#323b19"/>
          <path id="Path_7002" data-name="Path 7002" d="M49.941,20.9c-1.032,3.836-1.618,7.418,1.618,9.131s6.086,3.139,2.377,5.992-6.752,3.329-7.8-.476S42.427,24.8,39.478,26.223s2.377-7.61,4.281-2.949,1.514,9.511,4.228,9.511-.02-2.567-.84-6.562.893-6.658-2.626-6.752,3.327-4.567,5.041-2.379.856,2.041.38,3.8" transform="translate(-57.988 -17.548)" fill="#323b19"/>
          <path id="Path_7003" data-name="Path 7003" d="M75.237,49.116c-3.441-1.911.57-4.138,2.853-4.281s3.709-2.773,4.708-.887,1.228,1.89,3.754,2.244-5.346,4.345-4.978,6.987-2.324-.638-4.116,3.354-7.614,3.568-7.77,1.713,1.7-.856,3.409-2.426.856-5.863,2.426-5.285,1-.707-.286-1.42" transform="translate(-28.214 8.115)" fill="#323b19"/>
          <path id="Path_7004" data-name="Path 7004" d="M63.982,43.4c-.772-2.734-2.716-4.778-1.43-6.919s-5.419-1.142-5.561-3.139-.856,2-3.28,2.567-8.047.8-6.807,2.183,4.238-.9,7.234.813,1.856,4.281-.286,5.706-.427,3.568.429,6.421-.065,5.42-3.813,5.42-7.03.572-6.317,2.14,6.783,3.568,6.317,5.992,3.858,0,3.548-3.139,3.022-3.709,3.783-6.276-.95-3-.95-6.991.37-2.426,3.823-2.426S64.294,44.5,63.982,43.4" transform="translate(-52.77 -1.932)" fill="#323b19"/>
          <path id="Path_7005" data-name="Path 7005" d="M66.672,8.875c-1.032,3.838-1.618,7.42,1.618,9.133S74.376,21.147,70.667,24s-7.514-.384-8.56-4.187-6.374,4.8-9.321,6.231-2.187-3.282,3.043-8.086c3.709-3.4-.433-6.991,2.283-6.991S64.7,18.2,63.878,14.2s.041-1.9-.535-5.373c-.952-5.73,6.088-5.135,7.8-2.947s-3.995,1.23-4.471,2.992" transform="translate(-46.043 -29.21)" fill="#323b19"/>
          <path id="Path_7006" data-name="Path 7006" d="M79.792,21.025c2.383-1.455-2.048-4.185.521-5.706s3.043-2.377.95-3.425-5.135-.952-5.516-4.185-3.423-2.949-4.089,0-4.067,5.706-5.221,3.043S63,9.992,62.906,8.375s-4.565,2.187-2.757,2.759,5.667-.666,5.258,1.236-1.263,4.281-2.785,2.949-.493,2.757,1.228,2.947,5.714-.063,5.9-2.076,2-5.818,3.045-4.772,3.995.572,2.757,2.569-4.537,5.326-3.172,6.468,3.552,3.423,3.838,1.14,2.479.1,3.57-.57" transform="translate(-37.758 -28.185)" fill="#323b19"/>
          <path id="Path_7007" data-name="Path 7007" d="M75.237,16.332c-3.441-1.911.57-4.138,2.853-4.281S81.8,9.278,82.8,11.164s1.228,1.89,3.754,2.244-5.346,4.345-4.978,6.987-2.324-.638-4.116,3.355-7.614,3.568-7.77,1.713,1.7-.856,3.409-2.426.856-5.863,2.426-5.285,1-.707-.286-1.42" transform="translate(-28.214 -23.301)" fill="#323b19"/>
          <path id="Path_7008" data-name="Path 7008" d="M63.982,10.613c-.772-2.734-2.716-4.778-1.43-6.919S57.134,2.553,56.991.555s-.856,2-3.28,2.567-8.047.8-6.807,2.183,4.238-.9,7.234.813,1.856,4.281-.286,5.706-.427,3.568.429,6.421-.065,5.42-3.813,5.42-7.03.572-6.317,2.14,6.783,3.566,6.317,5.992,3.858,0,3.548-3.139,3.022-3.709,3.783-6.276-.95-3-.95-6.991.37-2.426,3.823-2.426,3.621-1.251,3.309-2.354" transform="translate(-52.77 -33.349)" fill="#323b19"/>
          <path id="Path_7009" data-name="Path 7009" d="M61.562,17.455c-2.17,2.379-3.018,2.579-3.417,4.862s.678,6.419,1.71,7.7-1.41,2.894-4.582,5.172c-3.729,2.675-.086-3.031-3.729-4.316s-5.211-1.226-4.784-4.038,3.29-6.376,4.784-4.522,1.1,6.562,2.583,3.852-.48-5.646,0-8.031,3.276.74,4.018-1.179,4.363-.54,3.417.5" transform="translate(-50.242 -18.017)" fill="#323b19"/>
          <path id="Path_7010" data-name="Path 7010" d="M59.885,30.406c-.5-2.227-5.845.727-7.273-1.206a4.471,4.471,0,0,0-6.061-.648c-1.359,1.285,2.209,3.139,1.923,5.992s4.851-.713,7.42,1.712,4.7-2.71,3.991-5.849" transform="translate(-50.673 -6.846)" fill="#323b19"/>
          <path id="Path_7011" data-name="Path 7011" d="M86.859,25.334c-2.512-1-9.323,4.424-11.9,1.712s-5.283-2.309-5.71-.8,4.48,2.009,8.8,3.828,10.171-1.89,12.169-1.034,4.994-.578,4.424-2.571-3.852.435-7.788-1.138" transform="translate(-28.648 -9.335)" fill="#4c2e14"/>
          <path id="Path_7012" data-name="Path 7012" d="M81.942,42.652c5.025,1.085,5.017-1.334,7.708-.787s6.411-.492,4.059-3.591-7.806.266-11.515-1.565S74.644,36.4,73.2,34.552s-7.073,2.274-7.894,5.005,3.965,2.113,6.764.215,7.3,2.324,9.87,2.879" transform="translate(-32.491 -0.68)" fill="#4c2e14"/>
          <path id="Path_7013" data-name="Path 7013" d="M64.715,46.067c-1.627-1.271.66-3.529,2.27-2.27,2.456,1.917,5.043,1.461,7.578.464a5.108,5.108,0,0,1-3-3.525c-.915-5.125-5.148.448-9.9,1.58s-7.686.615-6.848,3c.858,2.428,3-.564,5.422,2.428,2.07,2.556,5.187,1.633,6.717-.315a10.824,10.824,0,0,1-2.234-1.359" transform="translate(-42.599 3.643)" fill="#4c2e14"/>
          <path id="Path_7014" data-name="Path 7014" d="M69.237,42.343a37.092,37.092,0,0,1-4.786,1.809,8.818,8.818,0,0,1,.768.826c1.616,2.029,5.326,2.252,6.182-.143.431-1.206-.627-1.868-2.164-2.493" transform="translate(-33.223 7.227)" fill="#4c2e14"/>
          <path id="Path_7015" data-name="Path 7015" d="M81.423,31.53c-1.144-2.785-3.339.948-6.223-.452S65.358,34.2,63.858,29.783s-8.548-.049-8.922,1.416,4.651-1.093,6.6.909,6.926,2.019,7.9,4.063,4.009-1.8,6.12-.683,10.069.088,10-1.8-2.939.727-4.122-2.156" transform="translate(-42.361 -6.654)" fill="#4c2e14"/>
          <path id="Path_7016" data-name="Path 7016" d="M83.073,20.358c-.384-2.3-2.651-.1-4.939.756s-1.2,2.424-3.133,3.539-5.845.5-6.954-2.256-1.616,3.137-4.185,2.783-3.709,2.06-2.567,3.206,9.727-.678,11.272,1.574,5,1.561,6.421-1.574,4.7-3.245,5.99-5.638c1.843-3.407-1.522-.088-1.905-2.389" transform="translate(-36.671 -14.816)" fill="#4c2e14"/>
          <path id="Path_7017" data-name="Path 7017" d="M64.3,41.129c3.08-1.712,1.8-3-2.2-3.995S57,41.7,54.2,41.129s-4.988,3.852-6.891,2.71-3.474,7.641-.621,6.1,2.283-5.814,3.852-4.817,6.991-1.3,8.133.774,2.418-2.346,2.851-3.772,2.771-1,2.771-1" transform="translate(-51.741 2.12)" fill="#4c2e14"/>
          <path id="Path_7018" data-name="Path 7018" d="M71.651,15.009c-2.215,1.114-5.538-2.229-7.672.3s-5.248.276-5.583-1.735-2.93,3.255-.343,4.89,3.893-1.122,6.278-1.044,6.276,3.21,8.3,2.066,1.7-2.266,3.037-4.647-3.355-.168-4.022.166" transform="translate(-40.443 -20.771)" fill="#4c2e14"/>
          <path id="Path_7019" data-name="Path 7019" d="M87.962,14.565c0-1.367-4.124-1.3-8.186,0s-6.122-.245-8.264-.493c-4.4-.507.07,5.967,4.007,5.262s8.121-1.972,11.83-1.181.613-1.849.613-3.588" transform="translate(-28.199 -20.351)" fill="#4c2e14"/>
          <path id="Path_7020" data-name="Path 7020" d="M52.69,25.334c-2.512-1-9.323,4.424-11.9,1.712s-5.283-2.309-5.71-.8,4.481,2.009,8.8,3.828,10.171-1.89,12.169-1.034,4.994-.578,4.424-2.571-3.852.435-7.788-1.138" transform="translate(-61.391 -9.335)" fill="#4c2e14"/>
          <path id="Path_7021" data-name="Path 7021" d="M47.774,42.652c5.025,1.085,5.017-1.334,7.708-.787s6.411-.492,4.059-3.591-7.806.266-11.517-1.565-7.549-.309-8.99-2.156-7.073,2.274-7.894,5.005,3.965,2.113,6.764.215,7.3,2.324,9.87,2.879" transform="translate(-65.233 -0.68)" fill="#4c2e14"/>
          <path id="Path_7022" data-name="Path 7022" d="M53.794,14.565c0-1.367-4.126-1.3-8.188,0s-6.122-.245-8.262-.493c-4.4-.507.069,5.967,4.007,5.262s8.119-1.972,11.828-1.181.615-1.849.615-3.588" transform="translate(-60.943 -20.351)" fill="#4c2e14"/>
          <path id="Path_7023" data-name="Path 7023" d="M62.108,26.363c-1.735.83-2.493-2.283-2.791-5.563S50.3,18.945,47,20.087c-2.111.728-.962,5.679,2.144,4.279s9.484-2.916,5.726,3.4c-1.725,2.9,1.287,4.443,4.449,3.732s6.216-2.131,9.36-1.753c2.575.311-2.148-5.495-6.57-3.378" transform="translate(-50.978 -15.358)" fill="#4c2e14"/>
          <path id="Path_7024" data-name="Path 7024" d="M73.1,20.735c.777,2.332-3.922,1.153-3.421,3.362.774,3.407-5.914-.922-4.6-3.362s4.555-6.621,5.644-5.808,3.586.368,4.978,2.3-3.033,2.221-2.6,3.505" transform="translate(-32.783 -19.145)" fill="#21180e"/>
          <path id="Path_7025" data-name="Path 7025" d="M78.7,37.6c2.221-.294,5.074-3.709,6.073-2s2.714-5.552,0-6.129-8.54,1.541-9.284-.5-1.866,2.92,0,3.49,3.008,2.973,1.723,3.77.407,1.51,1.488,1.367" transform="translate(-23.626 -6.052)" fill="#21180e"/>
          <path id="Path_7026" data-name="Path 7026" d="M60,37.852c2.133-.979-1.388-1.41-1.657-3.842s-2.626-3.879-5.873-2.99-2.914,1.059-4.1,3.284-1.524,4.841,1.4,4.408,3.073-3.345,4.853-1.531S58.164,38.7,60,37.852" transform="translate(-49.466 -3.877)" fill="#21180e"/>
          <path id="Path_7027" data-name="Path 7027" d="M51.228,13.73c1.817,1.766-1.647,6.014,3.313,4.77S65.9,17.377,64.983,19.956s-6.625.125-8.475,1.506-8.381,3.071-9.184,1.073-.286-3.852-1.038-5.42,3.517-4.77,4.943-3.384" transform="translate(-50.716 -20.518)" fill="#21180e"/>
          <path id="Path_7028" data-name="Path 7028" d="M69.267,39.312c-.932-1.359-2.632-.623-4.592-4.377-2.712-5.187-3.852,3.443-6.278,1.909s-2.973,2.215-1.854,2.467,2.853-2.716,4.281-1,6.292-.713,6.633,2.424,3.5,2.853,4.637,2.211-1.943-2.344-2.826-3.633" transform="translate(-41.334 -1.481)" fill="#21180e"/>
          <path id="Path_7029" data-name="Path 7029" d="M73.7,42.651c1.379-3.137,3.368-2.847,3.008,0s1.255,4.831,3.172,1.976,1.974.394,2.687,1.39,4.79-1.7,4.964.858-5.536,2.221-7.118.993-6.686-1.228-7.962-1.228c-2.71,0,.68-2.691,1.249-3.989" transform="translate(-26.554 5.37)" fill="#21180e"/>
          <path id="Path_7030" data-name="Path 7030" d="M68.419,28.591c-.492-1.735-6.715-2.426-5.64-5.706s-1.1-2.322-3.492-1.285,1.071,4.424-2.6,3.995c-2.111-.247-2.924-2.168-3.962-1.51-.9.572-3.638,2.822-.008,3.074s6.938-.433,8.609,0,5.949,1.947,3.382,3.329,1.428,3.08,3.141,1.59,1.136-1.49.57-3.488" transform="translate(-46.221 -13.59)" fill="#21180e"/>
          <path id="Path_7031" data-name="Path 7031" d="M70.742,25.948c.014,1.925-4.739,3.807-2.315,4.3s-.127,2.577-2.383,1.911-1.968-1.572-4.126-.873-.311-5.467,1.056-5.113c1.557.4-.006,1,1.794,1.614a3.287,3.287,0,0,0,2.841-.3c1.623-1.05,3.123-3.008,3.133-1.533" transform="translate(-36.599 -8.993)" fill="#21180e"/>
          <path id="Path_7032" data-name="Path 7032" d="M64.674,45.347c-1.431-1.118.166-3,1.666-2.577a2.351,2.351,0,0,1,1.388-.6c3.235-.278,2.55-.869,2.761-2.424s-3.511,2.109-4.306,1.584-4.78,4.4-6.278,3.7-5.744-2.144-5.137-.435c.625,1.762,2.005,2.3,2.144,3.288.6,4.246,2.205,2.765,5.133,1.549,1.471-.611,2.082-2.371,2.736-4.007-.035-.027-.07-.049-.108-.076" transform="translate(-42.558 4.363)" fill="#21180e"/>
          <path id="Path_7033" data-name="Path 7033" d="M81.917,37.96c-.723-.531-4.682.711-5.573-1s-6.123-3.308-7.265-1.463,2.473,1.283,3.615,2.467,3.9,2.248,5.516,1.478,2.187.8,3.139,1.007c1.014.221,2.417-1.128.568-2.485" transform="translate(-29 -0.128)" fill="#21180e"/>
          <path id="Path_7034" data-name="Path 7034" d="M84.358,25.983c.866-2.749-1.827-.331-2.969-2.52s-1.181-.427-2.546,1.4c-1.843,2.471-3.918,1.451-4.467,0s-2.761,3.589-1.512,4.148,5.777.274,6.509-1.449,1.586-2.3,2.3-1.582,2.389.934,2.683,0" transform="translate(-25.521 -11.839)" fill="#21180e"/>
          <path id="Path_7035" data-name="Path 7035" d="M63.983,13.165c2.612-.66,10.067,3.057,5.753,3.768s-5.091.466-7.277,4.821-4.645-.437-5.483-2.963,3.012-2.871,4.439-2.628.713-2.53,2.567-3" transform="translate(-40.5 -20.808)" fill="#21180e"/>
          <path id="Path_7036" data-name="Path 7036" d="M45.912,37.6c2.223-.294,5.078-3.709,6.075-2s2.712-5.552,0-6.129-8.54,1.541-9.284-.5-1.866,2.92,0,3.49,3.008,2.973,1.723,3.77.4,1.51,1.486,1.367" transform="translate(-55.042 -6.052)" fill="#21180e"/>
          <path id="Path_7037" data-name="Path 7037" d="M40.912,42.651c1.379-3.137,3.368-2.847,3.008,0s1.255,4.831,3.172,1.976,1.974.394,2.687,1.39,4.79-1.7,4.964.858-5.536,2.221-7.118.993-6.687-1.228-7.962-1.228c-2.71,0,.678-2.691,1.249-3.989" transform="translate(-57.972 5.37)" fill="#21180e"/>
          <path id="Path_7038" data-name="Path 7038" d="M51.572,25.983c.866-2.749-1.827-.331-2.969-2.52s-1.181-.427-2.546,1.4c-1.843,2.471-3.918,1.451-4.467,0s-2.761,3.589-1.512,4.148,5.777.274,6.509-1.449,1.588-2.3,2.3-1.582,2.389.934,2.683,0" transform="translate(-56.939 -11.839)" fill="#21180e"/>
        </g>
      </g>
      <g id="Group_3496" data-name="Group 3496">
        <g id="Group_3495" data-name="Group 3495" clip-path="url(#clip-path)">
          <path id="Path_7040" data-name="Path 7040" d="M61.279,29.943c5.154-5.037,11.979-9.881,18.905-11.622.258-.114.926-.233.6-.01L76.43,20.3c-4.96,2.129-8.088,4.477-12.3,8.007Z" transform="translate(58.721 17.426)" fill="#181617"/>
          <path id="Path_7041" data-name="Path 7041" d="M52.969,23.792c.016-.143.135-.358.168-.114a10.735,10.735,0,0,0,2.971,5.961l-.556.774a7.146,7.146,0,0,1-2.583-6.621" transform="translate(50.702 22.584)" fill="#181617"/>
          <path id="Path_7042" data-name="Path 7042" d="M55.886,42.74a9.337,9.337,0,0,0-.337,7.179c3.644,5.726,12.29,3.768,18,3.372a23.962,23.962,0,0,1-.223,5.182c2.687,1.435,5.5.39,8.211-.85a45.27,45.27,0,0,0,1.02-6.239c3.75.178,7.851.431,11.111,2.413,2.068,2.988,4.905,7.02,8.973,5.977,4.24-2.052,5.444-7.353,6.67-11.46,1.512.055,2.091-1.181,2.933-2.187,3.329-3.926,4.907-9.832,2.348-14.622a8.663,8.663,0,0,0,.492-2.52c-.255-1.6-2.334-1.651-3.611-1.619-8.516.211-17.525.576-25.551,2.773-.7-2.665-2.1-5.746-4.945-6.165a3.2,3.2,0,0,0-2.556.8A7.293,7.293,0,0,0,76.5,28.3c-1.369-1.621-3.155-3.313-5.538-2.485-1.929.54-3.016,2.628-3.3,4.465a12.662,12.662,0,0,0,.071,4l-6.2,1.98c-.666-2.16-1.032-4.7-3.609-5.8-4.091-1.308-6.9,2.064-8.274,5.005-.454,1.046-.911,2.485-.245,3.566,1.547,2.275,3.854,3.074,6.484,3.709" transform="translate(47.019 22.94)" fill="#dc0079"/>
          <path id="Path_7043" data-name="Path 7043" d="M64.972,25.689a5.711,5.711,0,0,0-1.087,5.618c2.037-.376,4.635-1.128,6.975-1.729-.174-1.657-1.3-4.322-3.435-4.9a2.832,2.832,0,0,0-2.454,1.009" transform="translate(60.89 23.642)" fill="#ffe800"/>
          <path id="Path_7044" data-name="Path 7044" d="M59.9,27.52c-.736,2.485-.946,5.834.84,8.139a4.278,4.278,0,0,0,2.875,1.369c1.717-.037,2.769-1.729,3.259-3.206A7.618,7.618,0,0,0,64.7,26.4a3.834,3.834,0,0,0-3.049-.973A2.893,2.893,0,0,0,59.9,27.52" transform="translate(56.883 24.33)" fill="#ffe800"/>
          <path id="Path_7045" data-name="Path 7045" d="M89.118,28.222a26.648,26.648,0,0,1-5.959,6.915,60.4,60.4,0,0,0-5.4-3.889c-1.187-.821-2.489-1.514-3.609-2.342a6.224,6.224,0,0,1,3.294-1.98c3.4-.468,9.235-.781,11.5.072.64.276.174,1.224.174,1.224" transform="translate(71.058 25.358)" fill="#dc0079"/>
          <path id="Path_7046" data-name="Path 7046" d="M68.407,28.32a62,62,0,0,1,10.34,0,5.6,5.6,0,0,1,1.823-1.584A70.346,70.346,0,0,0,68.407,28.32" transform="translate(65.552 25.62)" fill="#ea86b5"/>
          <path id="Path_7047" data-name="Path 7047" d="M55.477,37.487a15.3,15.3,0,0,0,1.809.519,8.691,8.691,0,0,0-1.038,3.262,5.507,5.507,0,0,0,2.839,5.616c4.416,2.162,9.919,1.369,14.65.685l.247.18a21.19,21.19,0,0,1-.258,7.389c1.361.954,4.484-.225,5.949-.73-.852-3.548-.268-4.371-.143-6.981a2.8,2.8,0,0,1-1.146-.321c-.07-.433,1.169-.472,1.31-.725a24.115,24.115,0,0,1,11.111.5c-.456-2.088-1.578-4.392-.666-6.66a8.321,8.321,0,0,1-7.641-.685A7.859,7.859,0,0,1,78.295,41.2c-.176.035-.245-.072-.351-.18,1.332-.582,2.961-1.157,3.7-2.383,1.508-1.945,1.034-3.811,1.175-6.259h.174c.807,2.015,1.018,4.608-.174,6.482,2.277.936,5.538,1.332,7.394-.433A14.052,14.052,0,0,1,94.7,28.232a126.174,126.174,0,0,0-17,.5l-.948.253a6.093,6.093,0,0,1-.488,3.873,5.686,5.686,0,0,1-1.447,1.913,4.217,4.217,0,0,1-3.879.877,7.428,7.428,0,0,1-3.96-4.122c-2.418.9-4.43,1.337-6.944,2.14,0,0-2.638-5.808-5.2-5.675-2.033.108-3.856,2.463-4.3,4.379a4.113,4.113,0,0,0-.28,2.088c1.122,1.8,3.3,2.45,5.223,3.026" transform="translate(48.093 26.824)" fill="#ea86b5"/>
          <path id="Path_7048" data-name="Path 7048" d="M71.285,37.17l-.176,2.089a23.359,23.359,0,0,0,8.483,5.113,7.267,7.267,0,0,0,5.818-1.584c.772-2.52.6-4.9.492-7.671-1.044-.995-2.242-2.064-3.437-3.026l-5.642-4.069c-3.541,1.657-4.592,5.726-5.538,9.147" transform="translate(68.141 26.853)" fill="#f7d7e6"/>
          <path id="Path_7049" data-name="Path 7049" d="M79.682,34.076c-.28,2.773-.071,5.977-.84,8.642l2.348.325c2.593-2.413,3.889-6.014,4.7-9.507a9.2,9.2,0,0,0-.736-5.328C83.538,30.33,82,32.78,79.682,34.076" transform="translate(75.551 27.03)" fill="#f7d7e6"/>
          <path id="Path_7050" data-name="Path 7050" d="M87.165,38.143c-.807,3.746-2.984,8.377-7.155,9.208-3.368.429-6.029-4.032-7.992-6.913a14.1,14.1,0,0,1-1.087-5.366l.176-.687c2.979,2.272,6.063,4.645,9.674,5.62a5.237,5.237,0,0,0,5.289-2.129Z" transform="translate(67.969 32.95)" fill="#f7d7e6"/>
          <path id="Path_7051" data-name="Path 7051" d="M80.981,32.765l-.065.462C87.964,33.464,102.6,36,102.6,36a82.665,82.665,0,0,0-21.617-3.239" transform="translate(77.539 31.397)" fill="#181617"/>
          <path id="Path_7052" data-name="Path 7052" d="M80.764,33.637l-.145.443c6.9,1.455,20.881,6.488,20.881,6.488a82.707,82.707,0,0,0-20.736-6.93" transform="translate(77.254 32.233)" fill="#181617"/>
          <path id="Path_7053" data-name="Path 7053" d="M85.857,33.587l.123.576c-7.747,1.216-23.6,6.325-23.6,6.325a82.17,82.17,0,0,1,23.478-6.9" transform="translate(59.776 32.185)" fill="#181617"/>
          <path id="Path_7054" data-name="Path 7054" d="M85.555,34.654l.211.542C78.318,37.932,63.478,46.1,63.478,46.1A86.088,86.088,0,0,1,85.555,34.654" transform="translate(60.829 33.208)" fill="#181617"/>
          <path id="Path_7055" data-name="Path 7055" d="M67.167,28.216c-.245-1.159-.989-1.986-1.661-1.845s-1.018,1.2-.775,2.358l.127.539,2.413-.633Z" transform="translate(61.955 25.256)" fill="#181617"/>
          <path id="Path_7056" data-name="Path 7056" d="M65.128,27.593c.07.446.364.77.654.727s.474-.441.405-.887-.364-.77-.656-.725-.472.439-.4.885" transform="translate(62.396 25.589)" fill="#fff"/>
          <path id="Path_7057" data-name="Path 7057" d="M60.488,30.154c.2,1.314.989,2.283,1.764,2.162s1.242-1.283,1.042-2.6-.991-2.283-1.766-2.162-1.24,1.285-1.04,2.6" transform="translate(57.919 26.395)" fill="#181617"/>
          <path id="Path_7058" data-name="Path 7058" d="M60.989,28.933c.076.5.407.864.74.811s.542-.5.466-1-.407-.862-.742-.811-.54.5-.464,1" transform="translate(58.428 26.764)" fill="#fff"/>
          <path id="Path_7059" data-name="Path 7059" d="M56.216,31.283a11.246,11.246,0,0,1,.973,3.262c-1.941-.493-5.137-1.5-5.591-2.781a1.55,1.55,0,0,1,1.065-2.119c1.251-.492,2.575.2,3.552,1.637" transform="translate(49.327 28.258)" fill="#dc0079"/>
          <path id="Path_7060" data-name="Path 7060" d="M55.894,33.43c-1.316-.468-3.48-1.195-3.807-2.24-.176-.826.644-1.827,1.966-.856a5.235,5.235,0,0,1,1.841,3.1" transform="translate(49.891 28.684)" fill="#f7d7e6"/>
          <path id="Path_7061" data-name="Path 7061" d="M87.122,32.338a9.214,9.214,0,0,1,.752-5.217,4.581,4.581,0,0,1,3.286-1.3c1.451-.119,7.494,6.006,6.705,9.86s-2.932,3.494-2.932,3.494-5.029-.445-7.812-6.832" transform="translate(83.398 24.738)" fill="#dc0079"/>
          <path id="Path_7062" data-name="Path 7062" d="M87.7,31.524a6.771,6.771,0,0,1,.54-3.858,3.381,3.381,0,0,1,2.434-.954c1.077-.084,5.583,4.471,5.009,7.32s-2.164,2.573-2.164,2.573-3.732-.345-5.82-5.082" transform="translate(83.969 25.597)" fill="#ea86b5"/>
          <path id="Path_7063" data-name="Path 7063" d="M103.838,26.95a5.146,5.146,0,0,1,3.235-.251c2.2.636,2.857,3.3,3.382,5.27.431,2.722.3,5.742-2.127,7.3a5.13,5.13,0,0,1-3.127-.157s.253.691-2.074,1.478a4.519,4.519,0,0,1-4.712-1.334c-2.219,2.217-4.7.452-5.424.21a2.163,2.163,0,0,1-.977-.848c-.7-1.081-2.933-4.034-3.407-6.9-.539-3.261.77-6.431,1.655-6.938a5.01,5.01,0,0,1,4.524.621,4.865,4.865,0,0,1,5.131-1.437,7.728,7.728,0,0,1,3.922,2.986" transform="translate(84.788 22.737)" fill="#dc0079"/>
          <path id="Path_7064" data-name="Path 7064" d="M92.816,27.475a7.146,7.146,0,0,1,4.939-3.065c2.246-.116,3.9,1.627,5.344,3.18,1.909-.025,3.928.221,4.927,2.121a6.859,6.859,0,0,1-.047,7.255,2.475,2.475,0,0,1-2.489-.027,12.121,12.121,0,0,0,.1-5.074c-.239-.777-.4-1.719-1.083-2.148.492,2.428,1.014,5.444-.6,7.484a5.918,5.918,0,0,1-1,.856,4.5,4.5,0,0,1-4.2-.7,17.906,17.906,0,0,0-1.412-6.639c-.5-.893-.693-2.05-1.635-2.554,0,0,1.175,3.172,1.5,4.259.257,1.541,1.193,3.734.161,5.191a4.842,4.842,0,0,1-2.35.676,3.609,3.609,0,0,1-2.575-.8,21.741,21.741,0,0,1-2.542-4.576c-.936-2.456-1.614-5.734.476-7.578a4.272,4.272,0,0,1,3.317.11,3.826,3.826,0,0,0-.822,2.035" transform="translate(85.235 23.387)" fill="#ea86b5"/>
          <path id="Path_7065" data-name="Path 7065" d="M54,76.125c-3.666-6.21-3.2-7.443-3.2-7.443s3.689-.2,8.818-11.695c.5-.047,11.293-10.892,4.768-16.158.918-8.469-7.318-5.356-7.318-5.356.084-.119-3.654-2.1-6.527,6.206s-6.576,13.026-7.929,15.6c-1.968,3.744-2.718,4.608-1.694,8.3a63.118,63.118,0,0,0,5.5,12.725" transform="translate(38.779 33.457)" fill="#dc0079"/>
          <path id="Path_7066" data-name="Path 7066" d="M52.115,76.525a73.97,73.97,0,0,1-3.345-7.937L46.048,67.47l3.149-.356c.822-1.11,4.614-.525,8.622-10.624.155-.368-2.407,1.954-2.808,2.14-.456.213-1.314-.063.305-1.518s9.368-8.522,9.167-12.484c-.2-3.87-4.081-3.983-5.211-2.8s-1.958,1.76-5.785,8.607c0,0,2-5.818,4.762-8.959s3.971-1.8,3.971-1.8a3.145,3.145,0,0,0-1.6-3.732S56,32.8,50.65,46.394a22.257,22.257,0,0,1,2.23-6.078,19.177,19.177,0,0,1,2.959-4.093s-2.24-1.911-4.68,3.981S47.086,50.375,45.9,52.045A39.274,39.274,0,0,0,41.707,60s-2.841,4.821,5.607,18.245" transform="translate(39.526 34.144)" fill="#ea86b5"/>
        </g>
      </g>
      <path id="Path_8178" data-name="Path 8178" d="M3.732-6.192h2.34v.72H3.732v3.96h2.34v.72H3.732v2.3H2.94v-2.3H.6v-.72H2.94v-3.96H.6v-.72H2.94V-8.5h.792Zm6.384,0h2.34v.72h-2.34v3.96h2.34v.72h-2.34v2.3H9.324v-2.3H6.984v-.72h2.34v-3.96H6.984v-.72h2.34V-8.5h.792Z" transform="translate(339.543 170.848)" fill="#050605"/>
      <g id="Group_3498" data-name="Group 3498">
        <g id="Group_3497" data-name="Group 3497" clip-path="url(#clip-path)">
          <path id="Path_7067" data-name="Path 7067" d="M64.219,109.411h.018a60.105,60.105,0,0,0-15.173,2.636c-21.137,6.48-36.424,22.1-42.894,43.205A66.616,66.616,0,0,0,4.079,167.4v7.43h1.78c0-3,.112-5.8.311-8.495a63.144,63.144,0,0,1,13.972-32.928,57.558,57.558,0,0,1,10.59-10.058c6.084-4.326,10.51-7.144,21.312-10.25a40.95,40.95,0,0,1,4.269-.909c1.04-.18,2.1-.39,3.163-.515,2.125-.255,4.283-.445,6.541-.492.192,0,2.313-.061,3.294.018,0-.151,0-1.786,0-1.786Z" transform="translate(3.909 104.845)" fill="#fff"/>
          <path id="Path_7068" data-name="Path 7068" d="M65.148,110.329c.192,0,2.311-.061,3.292.016v56.378c0,1.565-.025,3.5-.043,4.984a2.717,2.717,0,0,1-2.18,2.27,12.9,12.9,0,0,1-1.825,0H4.988c0-3,.11-5.806.311-8.5a63.16,63.16,0,0,1,13.972-32.928,57.612,57.612,0,0,1,10.59-10.056c6.084-4.328,10.51-7.144,21.314-10.252a41.318,41.318,0,0,1,4.267-.909c1.04-.178,2.1-.388,3.165-.515,2.125-.253,4.281-.443,6.541-.49" transform="translate(4.78 105.701)" fill="#d80029"/>
          <path id="Path_7069" data-name="Path 7069" d="M6.326,109.524a49.648,49.648,0,0,1,6.141-.141H51.4c4.259,0,8.589,0,12.86.078A60.105,60.105,0,0,0,49.086,112.1c-21.137,6.48-36.424,22.1-42.894,43.205A66.419,66.419,0,0,0,4.1,167.449c-.045-4.406-.045-9.043-.045-13.526V116.687c0-1.588.045-5.027.045-5.027a2.947,2.947,0,0,1,2.225-2.136" transform="translate(3.887 104.794)" fill="#d80029"/>
          <path id="Path_7070" data-name="Path 7070" d="M37.512,127.343l.045,1.367c-.774-.3-2.048-.546-2.732.09a.936.936,0,0,0-.159.934c1.093,1.594,4.257,2.526,3.21,4.917-.66,1.161-1.982,1.412-3.323,1.253a9.966,9.966,0,0,1-1.641-.274l-.114-1.367c.821.274,2.209.707,3.12.069a.961.961,0,0,0,.159-1.161c-1.228-1.5-4.347-2.732-3.049-5.076,1-1.322,3.027-1.024,4.484-.752" transform="translate(31.352 121.803)" fill="#fff"/>
          <path id="Path_7071" data-name="Path 7071" d="M20.055,127.17c.251,2.277.8,4.394,1.206,6.6a64.62,64.62,0,0,0,1.868-6.6h2.618c.5,2.23,1.114,4.439,1.8,6.6.548-2.164.915-4.441,1.326-6.6h2.072l-.343.866c-.568,2.55-1.228,5.191-1.729,7.649H26.453c-.546-2.323-1.343-4.553-2.027-6.83-.66,2.277-1.5,4.486-2.027,6.83H19.941c-.409-2.822-1.275-5.622-1.958-8.4l-.045-.114Z" transform="translate(17.189 121.862)" fill="#fff"/>
          <path id="Path_7072" data-name="Path 7072" d="M30.939,128.536l-4.189-.069-.069,2.185.159.114a23.534,23.534,0,0,0,3.621-.114v1.435a27.6,27.6,0,0,0-3.666-.114v2.413a35.166,35.166,0,0,0,4.144-.114l-.045,1.412h-6.17a76.268,76.268,0,0,0,0-8.516h6.17Z" transform="translate(23.691 121.861)" fill="#fff"/>
          <path id="Path_7073" data-name="Path 7073" d="M30.628,127.17c1.388,2.14,2.732,4.326,4.189,6.443l-.045-6.443h1.8l-.045,8.242.114.272H34.225l-4.212-6.329-.045,6.329H28.215c.182-2.687.114-5.532.045-8.24l-.092-.274Z" transform="translate(26.992 121.862)" fill="#fff"/>
          <path id="Path_7074" data-name="Path 7074" d="M15.611,132.663l.045,1.684a6.047,6.047,0,0,0-4.872.229,3.783,3.783,0,0,0-1.365,3.756,3.1,3.1,0,0,0,1.821,2.526,6.222,6.222,0,0,0,4.576-.069l-.114,1.755c-2.483.454-5.511.568-7.377-1.367a5.281,5.281,0,0,1-1.253-4.645,4.748,4.748,0,0,1,2.8-3.664c1.686-.707,3.893-.5,5.738-.206" transform="translate(6.699 126.864)" fill="#fff"/>
          <path id="Path_7075" data-name="Path 7075" d="M39.115,133.5a7.553,7.553,0,0,1,.069,1.433c-1.5-.568-3.756-.887-5.078.274a3.122,3.122,0,0,0-1,3.278,2.929,2.929,0,0,0,1.365,1.8,4.65,4.65,0,0,0,3.278.114,24.624,24.624,0,0,0-.09-3.46h2a43.689,43.689,0,0,0-.09,4.6c-2.323.478-5.6.956-7.377-1.048a4.4,4.4,0,0,1,3.1-7.308,13.972,13.972,0,0,1,3.824.319" transform="translate(29.839 127.601)" fill="#fff"/>
          <path id="Path_7076" data-name="Path 7076" d="M23.282,135.246a2.334,2.334,0,0,1-1.251,2.254l-.979.319,2.845,3.893H21.8l-2.822-4.645a2.648,2.648,0,0,0,2.072-.386,1.523,1.523,0,0,0,.386-1.525c-.523-1.185-1.98-.546-3-.728l-.069,6.942a.479.479,0,0,1,.114.343H16.52a75.431,75.431,0,0,0,0-8.469c2.368.388,6.147-1.116,6.762,2" transform="translate(15.831 127.651)" fill="#fff"/>
          <path id="Path_7077" data-name="Path 7077" d="M22.8,133.227c1.48,2.117,2.779,4.3,4.263,6.443a40.011,40.011,0,0,0-.116-6.443h1.868l-.045,8.469h-2.3c-1.439-2.1-2.851-4.257-4.261-6.284a52.532,52.532,0,0,0,.045,6.284h-1.8c.184-2.663.116-5.464.047-8.15l-.114-.319Z" transform="translate(19.539 127.667)" fill="#fff"/>
          <path id="Path_7078" data-name="Path 7078" d="M27.222,133.227c-.251,2.777,0,5.646,0,8.469H25.15a75.432,75.432,0,0,0,0-8.469Z" transform="translate(24.1 127.667)" fill="#fff"/>
          <path id="Path_7079" data-name="Path 7079" d="M33.226,139.67l-.045-6.443h1.866a65.716,65.716,0,0,0,0,8.469H32.635l-4.212-6.284a52.52,52.52,0,0,0,.069,6.284H26.623a74.512,74.512,0,0,0,0-8.469h2.415Z" transform="translate(25.512 127.667)" fill="#fff"/>
          <path id="Path_7080" data-name="Path 7080" d="M23.2,129.154a5.241,5.241,0,0,0-3.893-2.777c-2.23-.251-4.576-.069-6.123,1.753a6.047,6.047,0,0,0-.752,5.511c.728,2.207,3.051,3.141,5.191,3.233,2.185.069,4.461-.662,5.509-2.8a6.788,6.788,0,0,0,.069-4.919m-2.368,4.531a3.449,3.449,0,0,1-3.642,1.48,2.993,2.993,0,0,1-2.413-1.755,4.777,4.777,0,0,1,.159-4.028,3.625,3.625,0,0,1,3.824-1.435,3.5,3.5,0,0,1,2.14,1.594,4.729,4.729,0,0,1-.069,4.144" transform="translate(11.592 121.016)" fill="#fff"/>
          <path id="Path_7081" data-name="Path 7081" d="M20.611,135.53a4.314,4.314,0,0,0-3.12-2.3c-1.866-.2-3.87-.067-5.191,1.367a5.1,5.1,0,0,0-.819,4.167,4.153,4.153,0,0,0,2.959,2.935c2.1.411,4.576.206,5.9-1.684a5.4,5.4,0,0,0,.274-4.484m-2.072,3.938a3.164,3.164,0,0,1-3.347.979,2.858,2.858,0,0,1-1.639-1.412,3.814,3.814,0,0,1,.5-3.779,3.391,3.391,0,0,1,2.959-.7,2.617,2.617,0,0,1,1.639,1.206,3.841,3.841,0,0,1-.114,3.711" transform="translate(10.903 127.596)" fill="#fff"/>
          <path id="Path_7082" data-name="Path 7082" d="M42.114,139.809a3.036,3.036,0,1,0-3.045-3.047,3.039,3.039,0,0,0,3.045,3.047m0-.484a2.553,2.553,0,1,1,2.544-2.563,2.47,2.47,0,0,1-2.544,2.563m-.7-2.385h.744l.975,1.545h.5l-1.034-1.545c.605-.047,1.071-.3,1.071-.967,0-.623-.305-.962-1.208-.962H40.974v3.474h.443Zm0-.4v-1.124h.956c.419,0,.822.067.822.55,0,.654-.68.574-1.163.574Z" transform="translate(37.438 128.154)" fill="#d80029"/>
        </g>
      </g>
    </g>
  </g>
</svg>
