<svg xmlns="http://www.w3.org/2000/svg" width="860" height="43" viewBox="0 0 860 43">
  <g id="Group_5392" data-name="Group 5392" transform="translate(-530 -3111)">
    <g id="Group_5391" data-name="Group 5391" transform="translate(15)">
      <g id="Group_5384" data-name="Group 5384" transform="translate(94 66)">
        <path id="Path_8214" data-name="Path 8214" d="M-10,0H190L180,43H0Z" transform="translate(1091 3045)" fill="#6d6d6d"/>
        <g id="Group_5380" data-name="Group 5380" transform="translate(928 -447.889)">
          <path id="Path_8212" data-name="Path 8212" d="M33.543,323.839q0-4.45,1.78-6.765c1.188-1.424,3.2-2.255,6.053-2.255,2.729,0,4.628.712,5.816,2.018a8.2,8.2,0,0,1,1.78,5.7v2.255H43.632V322.3a8.439,8.439,0,0,0-.119-1.9,2.255,2.255,0,0,0-.594-1.186,2.643,2.643,0,0,0-1.543-.475,1.9,1.9,0,0,0-1.9.949A7.752,7.752,0,0,0,39,322.534v12.224a5.856,5.856,0,0,0,.475,2.848,2.022,2.022,0,0,0,1.9.95,1.72,1.72,0,0,0,1.78-.95,8.271,8.271,0,0,0,.356-2.848v-2.611h5.341V334.4a9.545,9.545,0,0,1-1.661,5.934c-1.187,1.424-3.086,2.136-5.816,2.136-2.849,0-4.866-.712-6.053-2.255a10.8,10.8,0,0,1-1.78-6.646ZM51.82,323.6c0-2.848.594-5.1,1.78-6.527s3.2-2.136,6.171-2.136c2.849,0,4.867.712,6.053,2.255a10.186,10.186,0,0,1,1.9,6.527v10.087c0,2.849-.594,5.1-1.9,6.528-1.186,1.543-3.2,2.254-6.053,2.254s-4.866-.711-6.171-2.254c-1.186-1.543-1.78-3.679-1.78-6.646Zm6.053,14a2.372,2.372,0,0,0,3.8,0,5.4,5.4,0,0,0,.475-2.61V322.3a5.409,5.409,0,0,0-.475-2.611,2.373,2.373,0,0,0-3.8,0A5.122,5.122,0,0,0,57.4,322.3V335a10.3,10.3,0,0,0,.475,2.61m13.885-22.43h5.815L80.9,332.146l3.559-16.971h5.578l.475,26.941H86.474L86,323.839l-3.324,18.277H79.353l-3.56-18.4-.474,18.4H71.284Zm22.786,26.941V315.175h11.393v3.8H100v7.24h4.984v3.8H100v12.105ZM108.193,323.6c0-2.848.594-5.1,1.78-6.527s3.2-2.136,6.172-2.136c2.848,0,4.866.712,6.052,2.255a10.186,10.186,0,0,1,1.9,6.527v10.087c0,2.849-.594,5.1-1.9,6.528-1.186,1.543-3.2,2.254-6.052,2.254s-4.867-.711-6.172-2.254c-1.186-1.543-1.78-3.679-1.78-6.646Zm6.053,14a2.372,2.372,0,0,0,3.8,0,5.4,5.4,0,0,0,.475-2.61V322.3a5.409,5.409,0,0,0-.475-2.611,2.373,2.373,0,0,0-3.8,0,5.122,5.122,0,0,0-.475,2.611V335a6.808,6.808,0,0,0,.475,2.61m13.529-22.43h7c2.848,0,5.1.475,6.527,1.543s2.136,2.848,2.136,5.459a10.67,10.67,0,0,1-.713,4.273,4.334,4.334,0,0,1-2.61,2.373L143.8,342h-5.578l-3.085-12.224h-2.018v12.343h-5.459V315.175Zm5.459,11.511H134.9a3.6,3.6,0,0,0,2.729-.949,4.909,4.909,0,0,0,.831-2.967,5.218,5.218,0,0,0-.712-2.968,2.957,2.957,0,0,0-2.61-.949h-1.9Zm12.105-11.511h13.767v4.035h-4.035v22.905h-5.458V319.211h-4.154v-4.035Z" transform="translate(174.398 3186.009)" fill="#fff"/>
          <path id="Path_8213" data-name="Path 8213" d="M16.451,341.166V330.437H26.566v-5.312H16.451V314.6H10.115v10.525H0v5.312H10.115v10.729Z" transform="translate(173 3186)" fill="#fff"/>
        </g>
      </g>
      <g id="Group_5383" data-name="Group 5383" transform="translate(74 66)">
        <path id="Path_8215" data-name="Path 8215" d="M-10,0H190L180,43H0Z" transform="translate(891 3045)" fill="#6d6d6d"/>
        <g id="Group_5379" data-name="Group 5379" transform="translate(736.301 -333.652)">
          <path id="Path_8200" data-name="Path 8200" d="M43,228.137V204.4h6.065a8.758,8.758,0,0,1,5.333,1.359c1.255.837,1.881,2.51,1.881,4.81a5.513,5.513,0,0,1-.941,3.346,3.878,3.878,0,0,1-2.509,1.464,4.373,4.373,0,0,1,3.137,1.778,6.411,6.411,0,0,1,1.045,3.974c0,4.6-2.3,7.006-6.9,7.006Zm6.169-3.346a3.444,3.444,0,0,0,2.509-.836,4.154,4.154,0,0,0,.732-2.823,4.474,4.474,0,0,0-.732-2.929,3.088,3.088,0,0,0-2.509-.941H47.915v7.529ZM47.81,214.02h1.255a3.019,3.019,0,0,0,2.4-.836,4.02,4.02,0,0,0,.628-2.51,3.082,3.082,0,0,0-.836-2.3,3.984,3.984,0,0,0-2.51-.732H47.81Zm12.025-9.62H66c2.509,0,4.5.419,5.751,1.359s1.882,2.51,1.882,4.81a9.419,9.419,0,0,1-.627,3.765,3.827,3.827,0,0,1-2.3,2.092l3.242,11.711H69.037l-2.719-10.77H64.541v10.77H59.73V204.4Zm4.81,10.143h1.464a3.173,3.173,0,0,0,2.4-.837,4.323,4.323,0,0,0,.732-2.614,4.6,4.6,0,0,0-.628-2.614,2.6,2.6,0,0,0-2.3-.837H64.645Zm12.234,13.593V204.4H87.231v3.346H81.69v6.274h4.287v3.346H81.69v7.424h5.542v3.346Zm11.712,0,4.6-23.737h5.332l4.6,23.737h-4.5l-.836-5.229H94.028l-.941,5.229Zm8.679-8.156-1.464-9.62-1.359,9.516H97.27Zm5.542-15.58h12.13v3.556h-3.556v20.181h-4.81V207.956h-3.66V204.4Zm14.326,23.737V204.4h4.81v9.725h4.182V204.4h4.81v23.737h-4.81V217.576h-4.182v10.561Zm17.463,0V204.4h10.352v3.346h-5.542v6.274H143.7v3.346h-4.287v7.424h5.542v3.346Z" transform="translate(169.605 3185.504)" fill="#fff"/>
          <path id="Path_8201" data-name="Path 8201" d="M22.6,205.064a.787.787,0,0,1-.732-.523.749.749,0,0,1,.523-.941c1.987-.628,2.3-1.255,2.823-2.2a6.877,6.877,0,0,1,.837-1.359.743.743,0,1,1,1.15.942c-.314.418-.523.836-.731,1.15-.628,1.15-1.151,2.092-3.765,2.928Z" transform="translate(171.345 3185.886)" fill="#fff" fill-rule="evenodd"/>
          <path id="Path_8202" data-name="Path 8202" d="M24.942,199.408l4.392-1.045-1.359,4.287Z" transform="translate(171.089 3186)" fill="#fff" fill-rule="evenodd"/>
          <path id="Path_8203" data-name="Path 8203" d="M13.693,205.077h-.209c-2.614-.732-3.137-1.778-3.764-2.928a2.778,2.778,0,0,0-.628-1.045.743.743,0,1,1,1.15-.942c.314.523.628.942.837,1.359.522.942.836,1.569,2.823,2.2a.749.749,0,0,1,.523.941.7.7,0,0,1-.732.419" transform="translate(172.404 3185.873)" fill="#fff" fill-rule="evenodd"/>
          <path id="Path_8204" data-name="Path 8204" d="M11.446,199.408l-4.392-1.045,1.359,4.287Z" transform="translate(172.56 3186)" fill="#fff" fill-rule="evenodd"/>
          <path id="Path_8205" data-name="Path 8205" d="M7.215,232.15a.384.384,0,0,1-.314-.1.719.719,0,0,1-.314-.941c.942-1.882.732-2.51.314-3.556-.1-.419-.314-.941-.419-1.464-.1-.419.209-.732.628-.837s.732.209.837.628a3.507,3.507,0,0,0,.418,1.255c.419,1.15.837,2.3-.418,4.706a1.13,1.13,0,0,1-.732.314" transform="translate(172.608 3183.792)" fill="#fff" fill-rule="evenodd"/>
          <path id="Path_8206" data-name="Path 8206" d="M4.89,226.385l2.3-3.869,2.3,3.869Z" transform="translate(172.738 3184.014)" fill="#fff" fill-rule="evenodd"/>
          <path id="Path_8207" data-name="Path 8207" d="M18.267,232.15a.384.384,0,0,1-.314-.1.719.719,0,0,1-.314-.941c.942-1.882.732-2.51.314-3.556-.1-.419-.314-.941-.419-1.464-.1-.419.209-.732.628-.837s.732.209.837.628a3.507,3.507,0,0,0,.418,1.255c.419,1.15.837,2.3-.418,4.706a1.562,1.562,0,0,1-.732.314" transform="translate(171.7 3183.792)" fill="#fff" fill-rule="evenodd"/>
          <path id="Path_8208" data-name="Path 8208" d="M16.055,226.271l2.2-3.869,2.3,3.869Z" transform="translate(171.82 3184.024)" fill="#fff" fill-rule="evenodd"/>
          <path id="Path_8209" data-name="Path 8209" d="M29.318,232.036a.384.384,0,0,1-.314-.1.719.719,0,0,1-.314-.941c.942-1.882.732-2.51.314-3.556-.1-.419-.314-.941-.419-1.464-.1-.419.209-.732.628-.837a.671.671,0,0,1,.837.628,3.507,3.507,0,0,0,.418,1.255c.419,1.151.837,2.3-.418,4.706a1.562,1.562,0,0,1-.732.314" transform="translate(170.791 3183.801)" fill="#fff" fill-rule="evenodd"/>
          <path id="Path_8210" data-name="Path 8210" d="M27.107,226.157l2.2-3.868,2.3,3.868Z" transform="translate(170.911 3184.033)" fill="#fff" fill-rule="evenodd"/>
          <path id="Path_8211" data-name="Path 8211" d="M17.28,204.059,1.7,219.744H32.965Z" transform="translate(173 3185.532)" fill="#fff" fill-rule="evenodd"/>
        </g>
      </g>
      <g id="Group_5382" data-name="Group 5382" transform="translate(54 66)">
        <path id="Path_8216" data-name="Path 8216" d="M-10,0H190L180,43H0Z" transform="translate(691 3045)" fill="#6d6d6d"/>
        <g id="Group_5377" data-name="Group 5377" transform="translate(522.1 -220.718)">
          <path id="Path_8197" data-name="Path 8197" d="M61.685,115.2V88.938h6.266a12.346,12.346,0,0,1,5.127.926,4.956,4.956,0,0,1,2.621,2.66,11.085,11.085,0,0,1,.8,4.742v9.6a12.019,12.019,0,0,1-.8,4.858,5.574,5.574,0,0,1-2.621,2.776,11.771,11.771,0,0,1-5.013.926h-6.38Zm5.241-3.7h1.139a3.383,3.383,0,0,0,2.051-.463,1.9,1.9,0,0,0,.8-1.272,12.451,12.451,0,0,0,.228-2.43V96.457a9.1,9.1,0,0,0-.228-2.2,2.113,2.113,0,0,0-.8-1.156,4.7,4.7,0,0,0-2.051-.347H66.926Zm13.1,3.7V88.938H91.307v3.7H85.269V99.58H89.94v3.7H85.269v8.213h6.038v3.7Zm14.014,0V88.938h10.937v3.7h-5.7V99.7h4.785v3.7H99.283v11.8Zm13.558,0V88.938h11.279v3.7h-6.038V99.58h4.671v3.7h-4.671v8.213h6.038v3.7Zm14.014,0V88.938h3.645l5.7,13.65V88.938h4.329V115.2h-3.531l-5.7-14.46V115.2Zm17.659,0V88.938h6.266a12.346,12.346,0,0,1,5.127.926,4.952,4.952,0,0,1,2.621,2.66,11.085,11.085,0,0,1,.8,4.742v9.6a12.019,12.019,0,0,1-.8,4.858,5.569,5.569,0,0,1-2.621,2.776,11.771,11.771,0,0,1-5.013.926h-6.38Zm5.241-3.7h1.139a3.383,3.383,0,0,0,2.051-.463,1.9,1.9,0,0,0,.8-1.272,12.451,12.451,0,0,0,.228-2.43V96.457a9.1,9.1,0,0,0-.228-2.2,2.12,2.12,0,0,0-.8-1.156,4.7,4.7,0,0,0-2.051-.347h-1.139Z" transform="translate(175.013 3186)" fill="#fff"/>
          <path id="Path_8198" data-name="Path 8198" d="M27.234,97.711a3.112,3.112,0,0,1-2.165-.912l-7.975-7.975a.806.806,0,0,1,1.139-1.14l7.975,7.976a1.733,1.733,0,0,0,2.279,0,1.652,1.652,0,0,0,0-2.279,1.731,1.731,0,0,0-2.279,0,.805.805,0,0,1-1.139-1.139,3.313,3.313,0,0,1,4.443,0,3.025,3.025,0,0,1,0,4.329,2.658,2.658,0,0,1-2.278,1.14m1.139,5.126a3.113,3.113,0,0,1-2.165-.911l-7.975-7.975a.806.806,0,0,1,1.139-1.14l7.976,7.976a1.611,1.611,0,1,0,2.278-2.279.806.806,0,0,1,1.14-1.139,3.1,3.1,0,0,1,0,4.443,3.691,3.691,0,0,1-2.393,1.025m-6.494,4.216a3.133,3.133,0,0,1-2.165-5.355.806.806,0,1,1,1.14,1.139,1.611,1.611,0,1,0,2.278,2.279,1.731,1.731,0,0,0,0-2.279l-7.975-7.975A.805.805,0,0,1,16.3,93.723l7.976,7.975a3.1,3.1,0,0,1,0,4.444,4.2,4.2,0,0,1-2.393.911" transform="translate(173 3186)" fill="#fff" fill-rule="evenodd"/>
          <rect id="Rectangle_1331" data-name="Rectangle 1331" width="22.074" height="1.611" transform="matrix(0.707, -0.707, 0.707, 0.707, 195.335, 3298.124)" fill="#fff"/>
          <path id="Path_8199" data-name="Path 8199" d="M40.108,98.622,25.3,113.433H54.919Z" transform="translate(173 3186.399)" fill="#fff" fill-rule="evenodd"/>
        </g>
      </g>
      <g id="Group_5390" data-name="Group 5390" transform="translate(-30)">
        <path id="Path_8217" data-name="Path 8217" d="M-10,0H190L180,43H0Z" transform="translate(555 3111)" fill="#6d6d6d"/>
        <g id="Group_5378" data-name="Group 5378" transform="translate(372.761 -67.29)">
          <path id="Path_8185" data-name="Path 8185" d="M98.406,19.57a7.3,7.3,0,0,0,.683,3.55,2.016,2.016,0,0,0,1.937,1.11,1.908,1.908,0,0,0,1.367-.556,3.085,3.085,0,0,0,.456-1.442,4.5,4.5,0,0,0-.684-2.551A12.482,12.482,0,0,0,100,17.351l-2.735-2.219A11.319,11.319,0,0,1,94.76,12.36a7.119,7.119,0,0,1-.8-3.55,6.106,6.106,0,0,1,1.823-4.769,6.834,6.834,0,0,1,5.127-1.775c2.393,0,3.988.667,4.9,2a9.652,9.652,0,0,1,1.6,4.99l-4.557.666a7.989,7.989,0,0,0-.456-2.885,1.521,1.521,0,0,0-1.6-1,1.639,1.639,0,0,0-1.367.665,2.188,2.188,0,0,0-.456,1.442,4.157,4.157,0,0,0,.57,2.107,9.054,9.054,0,0,0,1.823,1.886l2.62,2.219a14.8,14.8,0,0,1,2.849,3.328,7.87,7.87,0,0,1,1.025,4.1,5.9,5.9,0,0,1-.8,3.217,6.513,6.513,0,0,1-2.393,2.219A7.185,7.185,0,0,1,101.14,28a7.08,7.08,0,0,1-5.355-1.886,9.335,9.335,0,0,1-1.937-5.879Zm12.19,8.208V2.6h11.28v3.55h-6.039V12.8h4.672v3.55h-4.672V24.23h6.039v3.549Zm12.761,0L128.37,2.6h5.811l5.013,25.179h-4.9l-.911-5.546h-4.1l-1.025,5.546Zm9.456-8.651-1.6-10.206-1.481,10.094h3.076Zm9-16.528h5.241V24.23h6.038v3.549H141.814Z" transform="translate(170.423 3186)" fill="#fff"/>
          <path id="Path_8186" data-name="Path 8186" d="M71.723,12.065,56.912,26.648H86.648Z" transform="translate(173 3185.301)" fill="#fff" fill-rule="evenodd"/>
          <path id="Path_8187" data-name="Path 8187" d="M48.708,10.47a.871.871,0,0,1-.57-.228l-.683-.683a.719.719,0,0,1,0-1.026.866.866,0,0,1,1.139,0l.684.684a.719.719,0,0,1,0,1.025c-.228.114-.342.228-.57.228" transform="translate(173 3185.781)" fill="#fff" fill-rule="evenodd"/>
          <path id="Path_8188" data-name="Path 8188" d="M51.9,13.774a.871.871,0,0,1-.57-.228l-1.367-1.481a.718.718,0,0,1,0-1.025.866.866,0,0,1,1.139,0l1.367,1.481a.718.718,0,0,1,0,1.025.734.734,0,0,1-.569.228m3.076,3.3a.871.871,0,0,1-.57-.228l-1.367-1.481a.718.718,0,0,1,0-1.025.866.866,0,0,1,1.139,0l1.368,1.481a.719.719,0,0,1,0,1.025c-.114.228-.342.228-.57.228" transform="translate(173 3185.663)" fill="#fff" fill-rule="evenodd"/>
          <path id="Path_8189" data-name="Path 8189" d="M51.556,7.736a.87.87,0,0,1-.569-.228L50.3,6.825a.762.762,0,0,1,0-1.14.867.867,0,0,1,1.14,0l.683.684a.718.718,0,0,1,0,1.025,1.042,1.042,0,0,1-.57.342M57.481,19.7a.871.871,0,0,1-.57-.228l-.683-.683a.719.719,0,0,1,0-1.026,1.034,1.034,0,0,1,1.139,0l.684.684a.719.719,0,0,1,0,1.025.628.628,0,0,1-.57.228" transform="translate(173 3185.736)" fill="#fff" fill-rule="evenodd"/>
          <path id="Path_8190" data-name="Path 8190" d="M54.633,11.04a.871.871,0,0,1-.57-.228L52.7,9.331a.718.718,0,0,1,0-1.025.866.866,0,0,1,1.139,0L55.2,9.787a.72.72,0,0,1,0,1.025c-.114.228-.342.228-.57.228m3.19,3.3a.871.871,0,0,1-.57-.228l-1.367-1.481a.718.718,0,0,1,0-1.025.866.866,0,0,1,1.139,0l1.368,1.481a.719.719,0,0,1,0,1.025.628.628,0,0,1-.57.228" transform="translate(173 3185.748)" fill="#fff" fill-rule="evenodd"/>
          <path id="Path_8191" data-name="Path 8191" d="M54.291,5a.871.871,0,0,1-.57-.228l-.684-.683a.868.868,0,0,1,0-1.14.867.867,0,0,1,1.14,0l.683.684A.876.876,0,0,1,54.291,5m6.038,11.963a.871.871,0,0,1-.57-.228l-.683-.683a.719.719,0,0,1,0-1.026.866.866,0,0,1,1.139,0l.684.684a.719.719,0,0,1,0,1.025.737.737,0,0,1-.57.228" transform="translate(173 3186)" fill="#fff" fill-rule="evenodd"/>
          <path id="Path_8192" data-name="Path 8192" d="M57.367,8.305a.871.871,0,0,1-.57-.228L55.544,6.71a.718.718,0,0,1,0-1.025.866.866,0,0,1,1.139,0L58.05,7.166a.718.718,0,0,1,0,1.025,1.44,1.44,0,0,1-.683.114m3.19,3.3a.871.871,0,0,1-.57-.228L58.62,9.9a.718.718,0,0,1,0-1.025.866.866,0,0,1,1.139,0l1.368,1.481a.719.719,0,0,1,0,1.025.628.628,0,0,1-.57.228" transform="translate(173 3185.831)" fill="#fff" fill-rule="evenodd"/>
          <path id="Path_8193" data-name="Path 8193" d="M57.253,2.267a.627.627,0,0,1-.569-.342L56,1.242A.719.719,0,0,1,56,.216a.867.867,0,0,1,1.14,0L57.823.9a.718.718,0,0,1,0,1.025c-.228.228-.342.342-.57.342M63.064,14.23a.871.871,0,0,1-.57-.228l-.683-.683a.719.719,0,0,1,0-1.026.866.866,0,0,1,1.139,0l.684.684a.719.719,0,0,1,0,1.025.737.737,0,0,1-.57.228" transform="translate(173 3186)" fill="#fff" fill-rule="evenodd"/>
          <path id="Path_8194" data-name="Path 8194" d="M60.443,5.571a.871.871,0,0,1-.57-.228L58.506,3.862a.718.718,0,0,1,0-1.025.866.866,0,0,1,1.139,0l1.367,1.481a.718.718,0,0,1,0,1.025,1.912,1.912,0,0,1-.569.228m3.076,3.3a.871.871,0,0,1-.57-.228L61.582,7.166a.718.718,0,0,1,0-1.025.866.866,0,0,1,1.139,0l1.368,1.481a.719.719,0,0,1,0,1.025.871.871,0,0,1-.57.228" transform="translate(173 3186)" fill="#fff" fill-rule="evenodd"/>
          <path id="Path_8195" data-name="Path 8195" d="M66.026,11.495a.871.871,0,0,1-.57-.228l-.683-.683a.719.719,0,0,1,0-1.026.866.866,0,0,1,1.139,0l.684.684a.719.719,0,0,1,0,1.025c-.228.114-.342.228-.57.228" transform="translate(173 3185.754)" fill="#fff" fill-rule="evenodd"/>
          <path id="Path_8196" data-name="Path 8196" d="M56.228,24.37,55.2,23.231,69.558,8.647l1.026,1.14Z" transform="translate(173 3185.534)" fill="#fff" fill-rule="evenodd"/>
        </g>
      </g>
    </g>
  </g>
</svg>
