<svg xmlns="http://www.w3.org/2000/svg" xmlns:xlink="http://www.w3.org/1999/xlink" width="353" height="304.276" viewBox="0 0 353 304.276">
  <defs>
    <clipPath id="clip-path">
      <rect id="Rectangle_1809" data-name="Rectangle 1809" width="353" height="304.276" transform="translate(1155 4076)" fill="#fff" stroke="#707070" stroke-width="1"/>
    </clipPath>
    <clipPath id="clip-path-2">
      <rect id="Rectangle_1807" data-name="Rectangle 1807" width="405.281" height="303.961" fill="none"/>
    </clipPath>
  </defs>
  <g id="Mask_Group_106" data-name="Mask Group 106" transform="translate(-1155 -4076)" clip-path="url(#clip-path)">
    <g id="Group_6212" data-name="Group 6212" transform="translate(1135.223 4076)">
      <rect id="Rectangle_1808" data-name="Rectangle 1808" width="405.281" height="79.915" transform="translate(0 224.046)" fill="#90658b"/>
      <g id="Group_6211" data-name="Group 6211">
        <rect id="Rectangle_1777" data-name="Rectangle 1777" width="405.281" height="224.046" fill="#5b4058"/>
        <g id="Group_6210" data-name="Group 6210">
          <g id="Group_6209" data-name="Group 6209" clip-path="url(#clip-path-2)">
            <path id="Path_8883" data-name="Path 8883" d="M91.047,546.3s-23.556,4.464-15.2,5.207,13.677.744,13.677.744-5.319,3.348,6.839,2.976,25.835-2.976,36.473-2.976,60.029,0,55.47-1.86-17.477-2.976-40.273-2.6-34.953-.372-34.953-.372-15.957-4.463-22.036-1.116" transform="translate(-36.539 -268.93)" fill="#70596d"/>
            <path id="Path_8884" data-name="Path 8884" d="M447.7,487.694s-37.234,5.319-23.556,10.638,27.355-3.04,31.914.76-24.316,6.839-3.8,8.358,28.115,0,37.994-1.52-13.678-3.039,2.279-6.079,26.6,0,22.8-3.8-3.04-3.8-9.878-3.8-50.911,4.559-40.273,1.52,15.2,1.52,10.638-3.04-18.237-4.559-28.115-3.04" transform="translate(-207.781 -240.179)" fill="#70596d"/>
            <path id="Path_8885" data-name="Path 8885" d="M414.225,544.26s8.358-3.04,13.677,0,.76,3.039,15.2,3.039,29.635,1.519,23.556,4.559-29.635.76-25.836,3.8,2.28,3.8-7.6,3.8-52.43,1.52-38.753-.76,22.8-5.319,16.717-5.319-39.513-3.04,3.04-9.118" transform="translate(-193.306 -267.871)" fill="#70596d"/>
            <path id="Path_8886" data-name="Path 8886" d="M600.7,521.279c-3.741.661-32.674,3.8-20.516,6.079s12.918,1.52,22.8,1.52H627.3c6.839,0,37.993-6.079,18.237-6.839s-30.395,0-34.194,0,15.2-5.319-10.638-.76" transform="translate(-284.801 -256.287)" fill="#70596d"/>
            <path id="Path_8887" data-name="Path 8887" d="M78.815,496.726s-44.072-6.079-37.994,1.52-25.076,6.079-13.678,9.878,24.316.76,39.513.76-.76-6.079,16.717-6.839,30.4,1.519,31.155-1.52,5.319-8.358-1.52-7.6-48.632-3.8-34.194,3.8" transform="translate(-12.144 -242.878)" fill="#70596d"/>
            <rect id="Rectangle_1778" data-name="Rectangle 1778" width="73.457" height="3.134" transform="translate(19.25 219.381)" fill="#9b7997"/>
            <path id="Rectangle_1779" data-name="Rectangle 1779" d="M-.5-.5H73.957V3.634H-.5ZM72.957.5H.5V2.634H72.957Z" transform="translate(19.25 219.381)" fill="#ba93b7"/>
            <path id="Path_8888" data-name="Path 8888" d="M36.5,433.4,36,444.546l3.8.253,3.8-12.412Z" transform="translate(-17.761 -213.34)" fill="#9b7997"/>
            <path id="Path_8889" data-name="Path 8889" d="M44.305,431.781l-4.146,13.543-4.683-.312.548-12.048Zm-4.87,12.493,3.453-11.28-5.9.843-.466,10.243Z" transform="translate(-17.761 -213.34)" fill="#ba93b7"/>
            <path id="Path_8890" data-name="Path 8890" d="M182.59,433.4l.507,11.145-3.8.253-3.8-12.412Z" transform="translate(-86.59 -213.34)" fill="#9b7997"/>
            <path id="Path_8891" data-name="Path 8891" d="M174.789,431.781l8.282,1.183.548,12.048-4.683.312Zm7.32,2.056-5.9-.843,3.453,11.28,2.916-.194Z" transform="translate(-86.59 -213.34)" fill="#ba93b7"/>
            <rect id="Rectangle_1780" data-name="Rectangle 1780" width="85.616" height="186.429" transform="translate(13.846 34.139)" fill="#9b7997"/>
            <path id="Rectangle_1781" data-name="Rectangle 1781" d="M-.5-.5H86.116V186.929H-.5ZM85.116.5H.5V185.929H85.116Z" transform="translate(13.846 34.139)" fill="#ba93b7"/>
            <rect id="Rectangle_1782" data-name="Rectangle 1782" width="75.99" height="29.383" transform="translate(18.659 184.599)" fill="#9b7997"/>
            <path id="Rectangle_1783" data-name="Rectangle 1783" d="M-.5-.5H76.49V29.883H-.5ZM75.49.5H.5V28.883H75.49Z" transform="translate(18.659 184.599)" fill="#ba93b7"/>
            <rect id="Rectangle_1784" data-name="Rectangle 1784" width="34.955" height="141.848" transform="translate(19.672 39.205)" fill="#9b7997"/>
            <path id="Rectangle_1785" data-name="Rectangle 1785" d="M-.5-.5H35.455V142.348H-.5ZM34.455.5H.5V141.348H34.455Z" transform="translate(19.672 39.205)" fill="#ba93b7"/>
            <rect id="Rectangle_1786" data-name="Rectangle 1786" width="34.955" height="141.848" transform="translate(58.68 39.205)" fill="#9b7997"/>
            <path id="Rectangle_1787" data-name="Rectangle 1787" d="M-.5-.5H35.455V142.348H-.5ZM34.455.5H.5V141.348H34.455Z" transform="translate(58.68 39.205)" fill="#ba93b7"/>
            <path id="Path_8892" data-name="Path 8892" d="M99.024,227.721c0,3.5-.454,6.333-1.013,6.333S97,231.218,97,227.721s.454-6.333,1.013-6.333,1.013,2.835,1.013,6.333" transform="translate(-47.859 -109.233)" fill="#ba93b7"/>
            <path id="Path_8893" data-name="Path 8893" d="M125.024,227.721c0,3.5-.454,6.333-1.013,6.333S123,231.218,123,227.721s.453-6.333,1.013-6.333,1.013,2.835,1.013,6.333" transform="translate(-60.687 -109.233)" fill="#ba93b7"/>
            <path id="Path_8894" data-name="Path 8894" d="M106.831,374.414c-3.5,0-6.333-.453-6.333-1.013s2.835-1.013,6.333-1.013,6.333.454,6.333,1.013-2.835,1.013-6.333,1.013" transform="translate(-49.586 -183.736)" fill="#9b7997"/>
            <path id="Ellipse_63" data-name="Ellipse 63" d="M6.333-.5a30.359,30.359,0,0,1,4.557.3c1.616.259,2.276.609,2.276,1.21s-.659.952-2.276,1.21a30.359,30.359,0,0,1-4.557.3,30.359,30.359,0,0,1-4.557-.3C.159,1.965-.5,1.614-.5,1.013S.159.062,1.776-.2A30.359,30.359,0,0,1,6.333-.5Zm5.449,1.513A21.955,21.955,0,0,0,6.333.5a21.955,21.955,0,0,0-5.449.513,21.955,21.955,0,0,0,5.449.513A21.955,21.955,0,0,0,11.782,1.013Z" transform="translate(50.912 188.652)" fill="#ba93b7"/>
            <rect id="Rectangle_1788" data-name="Rectangle 1788" width="2.533" height="144.381" transform="translate(368.334 83.533)" fill="#9b7997"/>
            <path id="Rectangle_1789" data-name="Rectangle 1789" d="M-.5-.5H3.033V144.881H-.5ZM2.033.5H.5V143.881H2.033Z" transform="translate(368.334 83.533)" fill="#ba93b7"/>
            <rect id="Rectangle_1790" data-name="Rectangle 1790" width="28.876" height="5.573" transform="translate(355.162 225.887)" fill="#9b7997"/>
            <path id="Rectangle_1791" data-name="Rectangle 1791" d="M-.5-.5H29.376V6.073H-.5ZM28.376.5H.5V5.073H28.376Z" transform="translate(355.162 225.887)" fill="#ba93b7"/>
            <path id="Path_8895" data-name="Path 8895" d="M730.339,151.588H671.252l18.659-53.7H711.68Z" transform="translate(-331.195 -48.298)" fill="#9b7997"/>
            <path id="Path_8896" data-name="Path 8896" d="M731.042,152.088H670.549l19.007-54.7h22.48Zm-59.087-1h57.681l-18.312-52.7H690.266Z" transform="translate(-331.195 -48.298)" fill="#ba93b7"/>
            <rect id="Rectangle_1792" data-name="Rectangle 1792" width="0.507" height="55.415" transform="translate(377.608 49.659) rotate(-14.341)" fill="#82687e"/>
            <path id="Path_8897" data-name="Path 8897" d="M739.212,98.09l.5-.076,8.208,53.6-.5.076Z" transform="translate(-364.726 -48.36)" fill="#82687e"/>
            <rect id="Rectangle_1793" data-name="Rectangle 1793" width="0.507" height="53.568" transform="translate(371.318 49.807) rotate(-2.98)" fill="#82687e"/>
            <rect id="Rectangle_1794" data-name="Rectangle 1794" width="53.466" height="0.508" transform="translate(365.466 103.277) rotate(-87.067)" fill="#82687e"/>
            <rect id="Rectangle_1795" data-name="Rectangle 1795" width="53.923" height="0.507" transform="translate(356.856 103.251) rotate(-81.246)" fill="#82687e"/>
            <rect id="Rectangle_1796" data-name="Rectangle 1796" width="54.924" height="0.506" transform="translate(348.25 103.227) rotate(-75.58)" fill="#82687e"/>
            <path id="Path_8898" data-name="Path 8898" d="M746.441,230V202.889h.507V230a2.786,2.786,0,1,1-.507,0" transform="translate(-367.043 -100.105)" fill="#9b7997"/>
            <path id="Path_8899" data-name="Path 8899" d="M746.694,236.065a3.286,3.286,0,0,1-.753-6.484V202.389h1.507V229.58a3.286,3.286,0,0,1-.753,6.484Zm0-5.581-.208.019a2.286,2.286,0,1,0,.416,0Z" transform="translate(-367.043 -100.105)" fill="#ba93b7"/>
            <path id="Path_8900" data-name="Path 8900" d="M653.819,274.172s7.3-2.782,8.011,3.868-15.229,46.049-17.274,50.221-7.734,3.983-10.376,2.614,10.7-52.3,19.639-56.7" transform="translate(-312.736 -134.991)" fill="#9b7997"/>
            <path id="Path_8901" data-name="Path 8901" d="M657.05,273.094a5.442,5.442,0,0,1,3.311.963,5.342,5.342,0,0,1,1.967,3.929c.174,1.62-.523,4.977-2.129,10.265-1.3,4.266-3.147,9.65-5.5,16-4.2,11.336-8.663,22.129-9.691,24.228-1.174,2.4-3.663,3.769-6.827,3.769a9.5,9.5,0,0,1-4.228-.932c-.439-.228-.621-.82-.609-1.98a66.4,66.4,0,0,1,2.03-11.844c1.313-5.569,3.079-11.84,4.971-17.658,2.831-8.707,8.318-23.678,13.256-26.113l.043-.019A10.632,10.632,0,0,1,657.05,273.094ZM638.178,331.25a7.853,7.853,0,0,0,3.421-.728,5.315,5.315,0,0,0,2.508-2.481c.994-2.028,5.527-13.006,9.652-24.135,5.173-13.957,7.863-23.124,7.574-25.813a4.4,4.4,0,0,0-1.567-3.232,4.474,4.474,0,0,0-2.716-.767,9.787,9.787,0,0,0-3.032.537c-1.25.628-2.687,2.317-4.272,5.02a75.205,75.205,0,0,0-4.649,9.884,211.489,211.489,0,0,0-7.92,24.8c-1.1,4.31-1.932,8.139-2.408,11.075-.654,4.035-.387,4.891-.312,5.04A8.654,8.654,0,0,0,638.178,331.25Z" transform="translate(-312.736 -134.991)" fill="#ba93b7"/>
            <path id="Path_8902" data-name="Path 8902" d="M539.528,388.467s-4.556-5.355,1.2-8.032,45.568-1.339,49.885-.893,5.756,5.355,5.276,8.032-49.884,7.141-56.359.893" transform="translate(-265.358 -186.905)" fill="#9b7997"/>
            <path id="Path_8903" data-name="Path 8903" d="M559.9,392.136a96.957,96.957,0,0,1-12.944-.716c-4-.558-6.546-1.406-7.775-2.593l-.034-.036c-.095-.112-2.317-2.761-1.734-5.43a5.006,5.006,0,0,1,3.1-3.38c2.382-1.108,10.26-1.67,23.415-1.67,12.216,0,24.564.509,26.733.733a5.871,5.871,0,0,1,4.167,2.391,8.347,8.347,0,0,1,1.426,3.165,7.947,7.947,0,0,1,.124,3.062c-.074.412-.458.722-1.286,1.036a18.961,18.961,0,0,1-2.582.708c-2.126.459-5.108.918-8.623,1.326A221.424,221.424,0,0,1,559.9,392.136Zm-20.006-4.011c2.05,1.942,9.151,3.011,20.006,3.011A218.323,218.323,0,0,0,583.2,389.8c3.428-.386,6.39-.823,8.566-1.263,2.925-.592,3.532-1.009,3.644-1.114a7.585,7.585,0,0,0-1.374-5.391,4.831,4.831,0,0,0-3.471-2c-2.153-.222-14.446-.728-26.63-.728-12.641,0-20.807.56-22.993,1.577a4.073,4.073,0,0,0-2.547,2.687C537.934,385.664,539.713,387.9,539.894,388.125Z" transform="translate(-265.358 -186.905)" fill="#ba93b7"/>
            <path id="Path_8904" data-name="Path 8904" d="M615.585,275.256a3.415,3.415,0,0,0-4.235,2L590.216,337.3H537.691a3.356,3.356,0,1,0,0,6.694h54.2a3.684,3.684,0,0,0,2.9-1.371,3.123,3.123,0,0,0,1.147-1.507L617.731,279.2a3.081,3.081,0,0,0-2.146-3.941" transform="translate(-263.521 -135.734)" fill="#9b7997"/>
            <path id="Path_8905" data-name="Path 8905" d="M614.539,274.6h0a4.082,4.082,0,0,1,1.192.178,3.755,3.755,0,0,1,2.294,1.891,3.408,3.408,0,0,1,.177,2.694l-21.792,61.915a3.613,3.613,0,0,1-1.271,1.706,4.218,4.218,0,0,1-3.247,1.506h-54.2a3.855,3.855,0,1,1,0-7.694h52.171l21.017-59.71A3.835,3.835,0,0,1,614.539,274.6Zm-22.646,68.89a3.205,3.205,0,0,0,2.507-1.181l.044-.056.058-.041a2.626,2.626,0,0,0,.966-1.265l21.793-61.915a2.417,2.417,0,0,0-.127-1.911,2.764,2.764,0,0,0-1.693-1.386,3.084,3.084,0,0,0-.9-.135h0a2.835,2.835,0,0,0-2.716,1.818L590.57,337.8H537.691a2.857,2.857,0,1,0,0,5.694Z" transform="translate(-263.521 -135.734)" fill="#ba93b7"/>
            <path id="Path_8906" data-name="Path 8906" d="M603.507,367.511c0,1.232-1.391,2.231-3.106,2.231H547.613c-1.715,0-3.105-1-3.105-2.231s1.39-2.232,3.105-2.232H600.4c1.715,0,3.106,1,3.106,2.232" transform="translate(-268.66 -180.228)" fill="#9b7997"/>
            <path id="Path_8907" data-name="Path 8907" d="M600.4,370.242H547.613a4.284,4.284,0,0,1-2.488-.747,2.319,2.319,0,0,1,0-3.968,4.283,4.283,0,0,1,2.488-.748H600.4a4.283,4.283,0,0,1,2.488.748,2.319,2.319,0,0,1,0,3.968A4.284,4.284,0,0,1,600.4,370.242Zm-52.788-4.463c-1.412,0-2.605.793-2.605,1.732s1.193,1.731,2.605,1.731H600.4c1.412,0,2.606-.793,2.606-1.731s-1.193-1.732-2.606-1.732Z" transform="translate(-268.66 -180.228)" fill="#ba93b7"/>
            <path id="Path_8908" data-name="Path 8908" d="M539.52,369.683l-16.788,43.731,3.357.446,23.5-43.731Z" transform="translate(-257.915 -182.401)" fill="#9b7997"/>
            <path id="Path_8909" data-name="Path 8909" d="M539.183,369.168l11.227.5L526.366,414.4l-4.328-.575Zm9.593,1.426-8.917-.4L523.426,413l2.387.317Z" transform="translate(-257.915 -182.401)" fill="#ba93b7"/>
            <path id="Path_8910" data-name="Path 8910" d="M639.8,369.683l16.788,43.731-3.357.446-23.5-43.731Z" transform="translate(-310.704 -182.401)" fill="#9b7997"/>
            <path id="Path_8911" data-name="Path 8911" d="M640.133,369.168l17.144,44.659-4.328.575-24.044-44.737ZM655.89,413l-16.432-42.8-8.918.4L653.5,413.32Z" transform="translate(-310.704 -182.401)" fill="#ba93b7"/>
            <path id="Path_8912" data-name="Path 8912" d="M259.537,436.432l-.441,9.707,3.309.221,3.309-10.81Z" transform="translate(-127.838 -214.899)" fill="#9b7997"/>
            <path id="Path_8913" data-name="Path 8913" d="M266.422,434.943l-3.655,11.942-4.193-.28.482-10.61Zm-4.38,10.891,2.963-9.679-4.988.713-.4,8.8Z" transform="translate(-127.838 -214.899)" fill="#ba93b7"/>
            <path id="Path_8914" data-name="Path 8914" d="M484.757,435.56l.441,9.707-3.31.221-3.309-10.81Z" transform="translate(-236.131 -214.47)" fill="#9b7997"/>
            <path id="Path_8915" data-name="Path 8915" d="M477.872,434.072l7.366,1.052.482,10.61-4.193.28Zm6.4,1.925-4.988-.713,2.962,9.679,2.426-.162Z" transform="translate(-236.131 -214.47)" fill="#ba93b7"/>
            <rect id="Rectangle_1797" data-name="Rectangle 1797" width="123.104" height="21.179" transform="translate(128.17 200.794)" fill="#9b7997"/>
            <path id="Rectangle_1798" data-name="Rectangle 1798" d="M-.5-.5H123.6V21.679H-.5ZM122.6.5H.5V20.679H122.6Z" transform="translate(128.17 200.794)" fill="#ba93b7"/>
            <rect id="Rectangle_1799" data-name="Rectangle 1799" width="54.271" height="13.678" transform="translate(132.141 204.324)" fill="#9b7997"/>
            <path id="Rectangle_1800" data-name="Rectangle 1800" d="M-.5-.5H54.771V14.178H-.5ZM53.771.5H.5V13.178H53.771Z" transform="translate(132.141 204.324)" fill="#ba93b7"/>
            <rect id="Rectangle_1801" data-name="Rectangle 1801" width="54.272" height="13.678" transform="translate(193.031 204.324)" fill="#9b7997"/>
            <path id="Rectangle_1802" data-name="Rectangle 1802" d="M-.5-.5H54.772V14.178H-.5ZM53.772.5H.5V13.178H53.772Z" transform="translate(193.031 204.324)" fill="#ba93b7"/>
            <path id="Path_8916" data-name="Path 8916" d="M304.24,411.184c-3.046,0-5.515-.4-5.515-.882s2.47-.882,5.515-.882,5.515.395,5.515.882-2.469.882-5.515.882" transform="translate(-147.391 -202.007)" fill="#ba93b7"/>
            <path id="Path_8917" data-name="Path 8917" d="M430.53,411.184c-3.046,0-5.515-.4-5.515-.882s2.47-.882,5.515-.882,5.515.395,5.515.882-2.469.882-5.515.882" transform="translate(-209.702 -202.007)" fill="#ba93b7"/>
            <path id="Path_8918" data-name="Path 8918" d="M367.705,372.678V359.5h-8.234v13.175h-8.509v4.392h25.252v-4.392Z" transform="translate(-173.164 -177.379)" fill="#9b7997"/>
            <path id="Path_8919" data-name="Path 8919" d="M376.714,377.57H350.462v-5.392h8.509V359h9.234v13.175h8.509Zm-25.252-1h24.252v-3.392h-8.509V360h-7.234v13.175h-8.509Z" transform="translate(-173.164 -177.379)" fill="#ba93b7"/>
            <rect id="Rectangle_1803" data-name="Rectangle 1803" width="96.067" height="54.895" transform="translate(142.391 128.877)" fill="#9b7997"/>
            <path id="Rectangle_1804" data-name="Rectangle 1804" d="M-.5-.5H96.567V55.4H-.5ZM95.567.5H.5V54.4H95.567Z" transform="translate(142.391 128.877)" fill="#ba93b7"/>
            <rect id="Rectangle_1805" data-name="Rectangle 1805" width="90.028" height="44.465" transform="translate(145.41 131.622)" fill="#9b7997"/>
            <path id="Rectangle_1806" data-name="Rectangle 1806" d="M-.5-.5H90.528V44.965H-.5ZM89.528.5H.5V43.965H89.528Z" transform="translate(145.41 131.622)" fill="#ba93b7"/>
            <path id="Path_8920" data-name="Path 8920" d="M92.83,435.029a41.67,41.67,0,0,0,.256,16.592,81.925,81.925,0,0,0,4.377,15.2h3.17s0-10.935-.488-19.329-1.22-15.77-1.22-15.77Z" transform="translate(-45.465 -213.012)" fill="#e8b189" fill-rule="evenodd"/>
            <path id="Path_8921" data-name="Path 8921" d="M122.68,427.793s-2.438,5.85-3.413,16.023-1.706,17.3-1.706,17.3l3.413.254s5.364-16.278,6.827-21.872.975-7.885.975-7.885a7.32,7.32,0,0,0,1.95-4.323c0-2.29-.487-6.105-.487-6.105l-8.777,1.781Z" transform="translate(-58.004 -207.809)" fill="#e8b189" fill-rule="evenodd"/>
            <path id="Path_8922" data-name="Path 8922" d="M92.5,342.943a21.443,21.443,0,0,1,1.728,8.142c0,4.441-1.481,5.674-1.481,5.674l20.725-1.234s.246-8.635-.247-14.8a69.758,69.758,0,0,0-.74-7.154Z" transform="translate(-45.639 -164.582)" fill="#e8b189" fill-rule="evenodd"/>
            <path id="Path_8923" data-name="Path 8923" d="M114.023,351.713a42.933,42.933,0,0,0-3.654-3.916h-5.5L93.68,351.526a21.21,21.21,0,0,1,1.129,6.58,10.767,10.767,0,0,1-.873,4.79l2.017.366,1.311-5.5a71.141,71.141,0,0,0,8.388-1.049,42.591,42.591,0,0,0,8.425-3.047c-.013-.645-.031-1.3-.054-1.949" transform="translate(-46.222 -171.603)" fill="#ba8663" fill-rule="evenodd"/>
            <path id="Path_8924" data-name="Path 8924" d="M89.034,369.973s-4.633,3.051-5.852,10.682-.488,27.468-.488,27.468,1.707,1.018,6.34,1.018a45.385,45.385,0,0,0,9.022-1.018l1.219-20.092s.975-2.034,1.706,1.526.732,16.786.732,16.786a23.558,23.558,0,0,0,6.362,1.237,15.651,15.651,0,0,0,6.073-.729s2.438-10.173,1.707-13.733c-.523-2.548-6.732-19.262-6.732-19.262l-.339-3.819s-12.069,5.15-19.749-.063" transform="translate(-40.694 -182.544)" fill="#532d3b" fill-rule="evenodd"/>
            <path id="Path_8925" data-name="Path 8925" d="M85.75,381.359a15.19,15.19,0,0,0,3.844-2.97,32.832,32.832,0,0,0,2.665-5.068l-1.18.088s-1.966,5.9-5.329,7.951" transform="translate(-42.309 -184.196)" fill="#472432" fill-rule="evenodd"/>
            <path id="Path_8926" data-name="Path 8926" d="M114.942,397.468l-2.883,4.194-1.673,20.313c.9-.161,1.44-.286,1.44-.286l1.219-20.093s.713-1.482,1.376.307Z" transform="translate(-54.464 -196.11)" fill="#472432"/>
            <path id="Path_8927" data-name="Path 8927" d="M65.97,336.807s-2.405,8.881,1.3,16.838,8.325,9.135,8.882,9.252,3.134-2.33,2.776-2.961a15.709,15.709,0,0,1-7.032-11.657c-.74-7.956.185-9.992.185-9.992a10.712,10.712,0,0,0-6.107-1.48" transform="translate(-32.17 -166.156)" fill="#e8b189"/>
            <path id="Path_8928" data-name="Path 8928" d="M101.086,291.588l-2.591,3.7s1.665,11.1,2.22,11.1S112,304.17,112,304.17l1.665-8.511-6.476-5.922Z" transform="translate(-48.597 -142.956)" fill="#ba8663" fill-rule="evenodd"/>
            <path id="Path_8929" data-name="Path 8929" d="M75.688,248.293a8.979,8.979,0,0,1-1.739-5.389c0-3.3.087-4.52.087-4.52l1.3,3.39a21.515,21.515,0,0,1,2.26-6.432c1.825-3.389,2.955-3.911,2.955-3.911l-.26,1.912a15.438,15.438,0,0,1,6.78-5.389c4.171-1.478,5.736-1.391,5.736-1.391s-5.388,3.129-3.911,3.738,5.389-1.912,5.389-1.912l-1.564,3.042s4.345-.608,4.693-.608-.956.956-.956.956a7.248,7.248,0,0,0,3.216.435c1.391-.261,2.173-.435,2.173-.435l-3.3,2s2.868,1.912,3.389,3.911a10.836,10.836,0,0,1,.348,3.564Z" transform="translate(-36.486 -111.785)"/>
            <path id="Path_8930" data-name="Path 8930" d="M130.537,205.5s-3.454,2.468-3.454,5.182.582,3.909-2.826,15.879c-1.859,6.528-8.77,21.374-8.77,21.374l-3.763,9.5-10.794,7.032,17.764-7.648a139.47,139.47,0,0,0,8.881-23.192,99.017,99.017,0,0,0,3.208-19.984l3.7-1.48s.74-8.882-3.948-6.662" transform="translate(-49.799 -101.219)" fill="#e8b189" fill-rule="evenodd"/>
            <path id="Path_8931" data-name="Path 8931" d="M161.312,205l-1.485.786-.262,4.631s2.446,2.709,4.194,1.223c.087-.7,1.573-6.2-2.447-6.641" transform="translate(-78.729 -101.145)" fill="#ba8663" fill-rule="evenodd"/>
            <path id="Path_8932" data-name="Path 8932" d="M82.49,288.461S74.533,290.5,71.82,293.7a60.457,60.457,0,0,0-5.675,7.648c-1.728,2.715-2.714,8.142-2.714,8.142l8.882,1.974s.493-3.7,2.467-2.961,2.714,9.869,2.714,11.843v1.974s10.657-.882,15.358-1.665c7.771-1.3,9.807-5.736,9.807-5.736s-.493-14.063.74-19.244a106.24,106.24,0,0,1,4.441-12.83,5.872,5.872,0,0,0-3.7-2.961,37.265,37.265,0,0,0-5.921-.987s-3.454,5.428-4.441,6.662-3.454,1.48-3.454,1.48.74,6.168-2.22,6.415-5.613-5-5.613-5" transform="translate(-31.297 -137.609)" fill="#9cb7e2" fill-rule="evenodd"/>
            <path id="Path_8933" data-name="Path 8933" d="M76.922,271.32s-3.013-1.623-3.94,1.391,2.086,7.417,4.171,6.722l2.086-.7Z" transform="translate(-35.924 -133.654)" fill="#e8b189" fill-rule="evenodd"/>
            <path id="Path_8934" data-name="Path 8934" d="M90.345,288.461s-6.4,1.639-9.681,4.294c2.644.872,8.084.685,12.738-.3a14.508,14.508,0,0,1-3.057-3.993m-7.49,18.527c-1.507-.214-3.013,3.1-3.5,4.3l.816.181s.493-3.7,2.467-2.961,2.714,9.868,2.714,11.843v1.973s1.789-.148,4.223-.376c-1.49-4.3-5.26-14.749-6.718-14.958m18.778-21.426c-.987,1.234-3.454,1.48-3.454,1.48a13.835,13.835,0,0,1-.149,4c5.67-2.7,8.044-12.144,8.044-12.144s-3.455,5.428-4.441,6.661" transform="translate(-39.152 -137.609)" fill="#7c95c1"/>
            <path id="Path_8935" data-name="Path 8935" d="M79.069,273.883s-2.521-1.564-3.216.521,1.1,4.143,1.1,4.143-2.134-3.223.55-4.23c1.391-.522,2.232,1.68,2.232,1.68Z" transform="translate(-37.347 -134.856)" fill="#ba8663" fill-rule="evenodd"/>
            <path id="Path_8936" data-name="Path 8936" d="M80.588,278.044c.09,0,.149,0,.155,0l.159.009.124.1a2.23,2.23,0,0,1,.556,1.86,2.256,2.256,0,0,1-1.253,1.846,2.135,2.135,0,0,1-.872.3.568.568,0,0,1-.529-.326c-.182-.4.13-.757.6-1.3.068-.078.134-.154.191-.222-.025-.031-.056-.067-.082-.1a3.007,3.007,0,0,1-.512-.772.884.884,0,0,1,.036-.873A1.6,1.6,0,0,1,80.588,278.044Zm.007,1.777a1.722,1.722,0,0,0-.129-.774,1.675,1.675,0,0,0-.394.058,2.182,2.182,0,0,0,.327.461A2.339,2.339,0,0,1,80.595,279.821Z" transform="translate(-39.165 -137.434)" fill="#e8b189"/>
            <path id="Path_8937" data-name="Path 8937" d="M127.085,257.32s2.23-2.6,4.176-.117.716,7.672-1.481,7.771l-2.2.1Z" transform="translate(-62.704 -126.375)" fill="#e8b189" fill-rule="evenodd"/>
            <path id="Path_8938" data-name="Path 8938" d="M126.715,260.252s1.792-2.365,3.189-.668.46,4.263.46,4.263.834-3.775-2.032-3.751c-1.486.013-1.48,2.37-1.48,2.37Z" transform="translate(-62.521 -127.776)" fill="#ba8663" fill-rule="evenodd"/>
            <path id="Path_8939" data-name="Path 8939" d="M129.269,264.3a.96.96,0,0,1,.727.278.914.914,0,0,1,.234.7,3,3,0,0,1-.2.9c-.013.037-.029.081-.042.12.076.043.165.089.256.138.2.1.4.212.566.318s.553.353.447.778c-.114.458-.632.458-.8.458-.13,0-.287-.009-.479-.028a2.256,2.256,0,0,1-1.833-1.274,2.229,2.229,0,0,1-.149-1.935l.08-.137.145-.066A2.942,2.942,0,0,1,129.269,264.3Zm-.275,1.858a2.335,2.335,0,0,1,.093-.309,2.173,2.173,0,0,0,.139-.547.444.444,0,0,0-.232.856Z" transform="translate(-63.321 -130.653)" fill="#e8b189"/>
            <path id="Path_8940" data-name="Path 8940" d="M104.929,253.3c0,9.193-5.12,16.3-12.777,16.3s-14.428-7.061-14.428-16.254,5.99-14.6,13.646-14.6,13.559,5.366,13.559,14.558" transform="translate(-38.349 -117.797)" fill="#e8b189" fill-rule="evenodd"/>
            <path id="Path_8941" data-name="Path 8941" d="M107.531,251.1s-.087,1.912,0,3.129.261,2.259.261,2.259.956-.782,1.564.087.522,1.825-.26,2a5.977,5.977,0,0,1-1.13.174s1.739,0,1.13-1.478c-.409-.994-1.739-.087-1.739-.087s-.608-1.825.174-6.084" transform="translate(-52.859 -123.892)" fill="#ba8663" fill-rule="evenodd"/>
            <path id="Path_8942" data-name="Path 8942" d="M164.262,211.258a1.864,1.864,0,0,1-.836-.4,3.828,3.828,0,0,1-.654-.7,9.634,9.634,0,0,1-1.062-1.916,15.712,15.712,0,0,1-1.175-4.168q-.007-.071-.011-.135a2.23,2.23,0,0,1,.821-1.886,2.615,2.615,0,0,1,.871-.477l.034-.01,5.054-.855h0l.2,1.208-4.972.841-.038.015a1.594,1.594,0,0,0-.207.1,1.152,1.152,0,0,0-.44.455,1.039,1.039,0,0,0-.1.541c0,.024,0,.048.006.074a14.614,14.614,0,0,0,1.645,4.936,3.73,3.73,0,0,0,.79,1.009.669.669,0,0,0,.279.15,12.728,12.728,0,0,0,2.528.081c.3-.015.562-.034.745-.05s.284-.027.285-.027l.133,1.218c-.008,0-.461.051-1.1.083a13.774,13.774,0,0,1-2.8-.1" transform="translate(-79.201 -99.032)" fill="#d1d392"/>
            <path id="Path_8943" data-name="Path 8943" d="M167.042,211.264a13.043,13.043,0,0,1-2.756-.1,1.652,1.652,0,0,1-.751-.364,3.623,3.623,0,0,1-.62-.665,9.517,9.517,0,0,1-1.04-1.891,15.759,15.759,0,0,1-1.162-4.138c0-.044-.008-.086-.01-.127a2.047,2.047,0,0,1,.752-1.741,2.456,2.456,0,0,1,.8-.442l.013,0,.017,0,4.857-.826.142.842-4.787.814-.017,0-.015.006-.048.019a1.7,1.7,0,0,0-.231.118,1.344,1.344,0,0,0-.512.536,1.268,1.268,0,0,0-.121.637c0,.029,0,.057.006.087a15,15,0,0,0,1.673,5.043,3.918,3.918,0,0,0,.836,1.069.823.823,0,0,0,.366.189,12.8,12.8,0,0,0,2.536.086l.031,0c.25-.013.5-.029.75-.051l.1-.009.093.849c-.2.018-.513.044-.9.064" transform="translate(-79.289 -99.156)" fill="#e4e9a7"/>
            <path id="Path_8944" data-name="Path 8944" d="M187.243,193.824c-.022-1.012-3.077-1.763-7.146-1.557s-6.5,1.409-6.826,2.365c-.152.439-.348.363-.319.421l1.163,14.384a.624.624,0,0,0-.015.186c.091,1.13,3.17,2.051,6.926,1.86s6.8-1.416,6.8-2.546h0l-.323-15.1h-.011c.01-.039-.246.022-.247-.017" transform="translate(-85.333 -94.848)" fill="#d1d392"/>
            <path id="Path_8945" data-name="Path 8945" d="M187.422,193.742c-.023-1.012-3.184-1.672-7.061-1.475s-6.955,1.175-6.876,2.184a.506.506,0,0,0,.05.182l1.167,14.789a.656.656,0,0,0-.014.186c.089,1.13,3.024,2.058,6.6,1.876s6.478-1.4,6.472-2.529h0l-.344-15.1h-.01a.507.507,0,0,0,.013-.117" transform="translate(-85.596 -94.847)" fill="#e4e9a7"/>
            <path id="Path_8946" data-name="Path 8946" d="M173.248,195.5c.118.068.661.66.794.762a2.076,2.076,0,0,0,.941.4c.456.057.654.129,1.105.216a22.428,22.428,0,0,0,4.259.363,18.232,18.232,0,0,0,5.1-.923,6.078,6.078,0,0,0,1.013-.523c.331-.218.766-.735,1.109-.931l-.266-1.011h-.01a.57.57,0,0,0,.013-.116c-.023-1.012-3.185-1.671-7.062-1.475s-6.955,1.175-6.876,2.183a.494.494,0,0,0,.05.182Z" transform="translate(-85.48 -94.847)" fill="#e4e9a7"/>
            <path id="Path_8947" data-name="Path 8947" d="M178.109,192.72c-2.748.386-4.688,1.168-4.624,1.972a.508.508,0,0,0,.05.182l.151,1.161a21.611,21.611,0,0,0,2.519,1.088,18.261,18.261,0,0,0,2.216.279Z" transform="translate(-85.596 -95.088)" fill="#d1d392"/>
            <path id="Path_8948" data-name="Path 8948" d="M179.964,191.772c-4.153.211-7.459,1.577-7.384,3.051s3.5,2.5,7.655,2.286,7.459-1.577,7.384-3.051-3.5-2.5-7.655-2.286m.259,5.086c-3.763.191-6.867-.736-6.934-2.071s2.926-2.573,6.689-2.764,6.866.736,6.934,2.071-2.926,2.573-6.688,2.764" transform="translate(-85.15 -94.607)"/>
            <path id="Path_8949" data-name="Path 8949" d="M175.69,201.515l.84,12.8a3.225,3.225,0,0,0,1.378.466l.757.055-1-12.792a14.59,14.59,0,0,1-1.978-.529" transform="translate(-86.685 -99.427)" fill="#f8f9c0"/>
            <path id="Path_8950" data-name="Path 8950" d="M161.026,206.3a5.313,5.313,0,0,1-.3-2.094,2.222,2.222,0,0,1,1.455-1.71c.962-.27,2.118-.454,2.118-.454l1.262.061a25.462,25.462,0,0,0-3.43.646c-.678.287-1.6,1.278-1.11,3.55" transform="translate(-79.283 -99.687)" fill="#e4e9a7"/>
            <path id="Path_8951" data-name="Path 8951" d="M153.1,206.546l1.666-4.9,4.163-1.758s.926.37.278,1.573a3.978,3.978,0,0,1-2.036,1.665s-.092,3.238-.925,3.886-3.145-.463-3.145-.463" transform="translate(-75.54 -98.623)" fill="#e8b189" fill-rule="evenodd"/>
            <path id="Path_8952" data-name="Path 8952" d="M163.751,206.093s-3.583.741-3.249,2.406.75,1.2.75,1.2-1,1.388-.167,1.943a7.691,7.691,0,0,1,1.333,1.11s-.083.278.833.278,1.833-.74,1.749-1.3a1.939,1.939,0,0,0-.416-.925s1-.832.5-1.48a3.044,3.044,0,0,1-.583-1.018s1.073-1.96-.75-2.22" transform="translate(-79.181 -101.686)" fill="#e8b189"/>
            <path id="Path_8953" data-name="Path 8953" d="M100.949,498.891a.376.376,0,0,1-.068-.006.364.364,0,0,1-.245-.174.433.433,0,0,1-.035-.348.457.457,0,0,1,.422-.332.375.375,0,0,1,.072.007.356.356,0,0,1,.24.168.435.435,0,0,1,.038.351A.459.459,0,0,1,100.949,498.891Z" transform="translate(-49.724 -245.826)" fill="#fff"/>
            <path id="Path_8954" data-name="Path 8954" d="M100.051,500.978h0a.377.377,0,0,1-.107-.015.344.344,0,0,1-.221-.2.419.419,0,0,1,.025-.358.5.5,0,0,1,.425-.277.37.37,0,0,1,.109.016.339.339,0,0,1,.218.195.423.423,0,0,1-.023.359A.5.5,0,0,1,100.051,500.978Z" transform="translate(-49.287 -246.862)" fill="#fff"/>
            <path id="Path_8955" data-name="Path 8955" d="M99.194,502.887a.393.393,0,0,1-.11-.016.344.344,0,0,1-.218-.2.423.423,0,0,1,.033-.36.506.506,0,0,1,.425-.268.375.375,0,0,1,.118.019.337.337,0,0,1,.211.2.423.423,0,0,1-.031.361A.511.511,0,0,1,99.194,502.887Z" transform="translate(-48.866 -247.805)" fill="#fff"/>
            <path id="Path_8956" data-name="Path 8956" d="M98.373,504.978h0a.375.375,0,0,1-.068-.006.363.363,0,0,1-.245-.174.431.431,0,0,1-.034-.348.451.451,0,0,1,.419-.333.372.372,0,0,1,.075.008.357.357,0,0,1,.24.17.43.43,0,0,1,.035.35A.458.458,0,0,1,98.373,504.978Z" transform="translate(-48.454 -248.829)" fill="#fff"/>
            <path id="Path_8957" data-name="Path 8957" d="M108.021,498.6h-.012a.434.434,0,0,1-.4-.422.424.424,0,0,1,.112-.312.369.369,0,0,1,.269-.115H108a.434.434,0,0,1,.4.422.42.42,0,0,1-.11.31A.37.37,0,0,1,108.021,498.6Z" transform="translate(-53.191 -245.687)" fill="#fff"/>
            <path id="Path_8958" data-name="Path 8958" d="M108.363,500.715a.47.47,0,0,1-.433-.369.407.407,0,0,1,.063-.341.347.347,0,0,1,.263-.138h.017a.472.472,0,0,1,.436.368.407.407,0,0,1-.062.34.35.35,0,0,1-.263.139Z" transform="translate(-53.344 -246.731)" fill="#fff"/>
            <path id="Path_8959" data-name="Path 8959" d="M108.716,502.662a.48.48,0,0,1-.438-.359.406.406,0,0,1,.053-.344.346.346,0,0,1,.259-.145h.024a.479.479,0,0,1,.439.361.4.4,0,0,1-.052.341.347.347,0,0,1-.261.146Z" transform="translate(-53.514 -247.692)" fill="#fff"/>
            <path id="Path_8960" data-name="Path 8960" d="M109.009,504.779h-.015a.436.436,0,0,1-.4-.421.421.421,0,0,1,.11-.312.364.364,0,0,1,.283-.116.43.43,0,0,1,.4.423.417.417,0,0,1-.11.309A.368.368,0,0,1,109.009,504.779Z" transform="translate(-53.678 -248.737)" fill="#fff"/>
            <path id="Path_8961" data-name="Path 8961" d="M109.807,502.251l-.062-.369.093-.016.061.37Zm-.124-.738-.062-.368.093-.017.061.37Zm-.124-.739-.062-.367.093-.016.061.369Zm-.124-.737-.062-.369.093-.015.062.368Zm-.124-.738-.062-.369.092-.015.062.369Zm-.124-.738-.062-.369.092-.017.062.369Zm-.124-.739.093-.014Z" transform="translate(-53.812 -245.618)" fill="#fff"/>
            <path id="Path_8962" data-name="Path 8962" d="M97.679,496.964a2.876,2.876,0,0,1,2.5-.686,4.744,4.744,0,0,1,2.392,1s1.991,6.378,1.222,7.148-7.6,2.4-8.5,1.084.339-4.323,2.39-8.543" transform="translate(-46.868 -244.84)" fill="#009091"/>
            <path id="Path_8963" data-name="Path 8963" d="M99.626,495.836a3.876,3.876,0,0,1,.614.05,5.121,5.121,0,0,1,2.6,1.1l.075.071.031.1c.005.016.506,1.627.907,3.312.753,3.169.533,3.919.218,4.235a8.712,8.712,0,0,1-2.862,1.106,18.359,18.359,0,0,1-4.121.592c-1.122,0-1.818-.219-2.127-.67-.5-.732-.491-1.853.035-3.527a43.835,43.835,0,0,1,2.325-5.414l.026-.054.041-.044A3.177,3.177,0,0,1,99.626,495.836Zm2.6,1.669a4.7,4.7,0,0,0-2.111-.836,3.082,3.082,0,0,0-.488-.04A2.436,2.436,0,0,0,98,497.2c-1.668,3.437-3.215,6.879-2.389,8.082.108.157.552.326,1.474.326a16.491,16.491,0,0,0,6.417-1.46c.039-.062.274-.59-.445-3.587C102.732,499.188,102.341,497.885,102.225,497.5Z" transform="translate(-46.868 -244.84)" fill="#009091"/>
            <path id="Path_8964" data-name="Path 8964" d="M103.866,507.827a8.467,8.467,0,0,0-4.543-.873,7.5,7.5,0,0,0-4.1,1.173,3.31,3.31,0,0,0,.065,2.663c.9,1.318,7.733-.314,8.5-1.084l.16-1.148c-.017-.224-.047-.47-.086-.732" transform="translate(-46.867 -250.124)" fill="#fff"/>
            <path id="Path_8965" data-name="Path 8965" d="M94.629,510.928s1.21.809,4.448.519a14.462,14.462,0,0,0,4.754-1.05l.022,1.64a8.41,8.41,0,0,1-5.266,1.767c-3.4.065-4.019-1.349-4.019-1.349Z" transform="translate(-46.66 -251.829)" fill="#e3dede"/>
            <path id="Path_8966" data-name="Path 8966" d="M99.48,498.357q.943.194,1.879.419c.43.1.858.213,1.281.341.175.053.584.124.684.3l.289-.238a14.676,14.676,0,0,0-4.54.824c-.081.032-.208.241-.288.238.658.028,1.315.1,1.967.184a6.8,6.8,0,0,1,2.882.836l.289-.237c-1.824,0-3.652.044-5.473.159-.1.078-.193.159-.289.239.689-.237,1.388-.449,2.09-.646a9.333,9.333,0,0,1,3.208-.559c.074.007.226-.259.289-.237a19.225,19.225,0,0,0-4.285-1.052c-.1.078-.192.157-.288.238l3.955-.915c.055-.013.253-.257.288-.239a4.693,4.693,0,0,0-3.649.107c-.11.042-.178.2-.288.238a4.683,4.683,0,0,1,3.649-.106l.288-.239-3.955.917c-.087.019-.207.246-.288.238a19.33,19.33,0,0,1,4.285,1.052c.1-.079.193-.159.289-.237a9.123,9.123,0,0,0-3.1.53c-.737.2-1.47.425-2.193.673-.1.033-.194.232-.289.239,1.821-.117,3.648-.156,5.472-.16.052,0,.259-.258.289-.237a6.845,6.845,0,0,0-2.883-.837c-.651-.091-1.31-.156-1.967-.183l-.288.238a14.71,14.71,0,0,1,4.539-.824,2.268,2.268,0,0,0,.289-.238c-.093-.165-.452-.23-.613-.281-.444-.142-.9-.252-1.352-.362q-.935-.226-1.879-.419c-.078-.016-.213.253-.288.238" transform="translate(-48.433 -245.557)" fill="#fff"/>
            <path id="Path_8967" data-name="Path 8967" d="M96.652,502.468c.021-.077.055-.2.1-.361l.09.025c-.047.159-.082.283-.1.359Zm.21-.72c.035-.111.072-.232.114-.357l.089.029c-.042.126-.079.245-.113.356Zm.234-.712q.059-.173.125-.354l.088.032c-.044.119-.086.237-.125.352Zm.256-.706c.044-.114.09-.231.138-.348l.087.035c-.047.117-.093.233-.137.348Zm.282-.694.146-.345v0l.086.036c-.048.112-.1.227-.145.345Zm.293-.689.148-.344.086.036c-.048.111-.1.227-.147.345Zm.3-.688c.054-.124.1-.237.15-.343l.085.038c-.046.1-.1.221-.149.343Zm.15-.343Zm.15-.342c.1-.217.152-.344.152-.344l.086.038s-.057.127-.153.343Z" transform="translate(-47.688 -245.333)" fill="#fff"/>
            <path id="Path_8968" data-name="Path 8968" d="M109.758,502.212l.027-.089c.146.045.241.072.241.072l-.025.09s-.1-.026-.243-.073m0,0Zm-.713-.24h0l.032-.087c.119.044.238.087.352.125l-.03.088c-.114-.038-.235-.081-.355-.126m-.413-.173a2.309,2.309,0,0,1-.272-.149l.051-.078a2.474,2.474,0,0,0,.261.143l.062.029-.038.085c-.022-.009-.044-.019-.064-.029m-.272-.149h0Zm-.514-.564.082-.044a1.447,1.447,0,0,0,.206.3l-.069.063a1.465,1.465,0,0,1-.219-.316m-.232-.721.092-.018a3.193,3.193,0,0,0,.087.358l-.09.027a3.193,3.193,0,0,1-.089-.367m-.057-.373c-.015-.113-.029-.239-.045-.374l.093-.009c.015.135.029.258.044.371Zm-.082-.747c-.011-.121-.023-.247-.035-.373h0l.093-.007c.012.126.023.251.034.372Zm-.067-.746c-.01-.127-.021-.251-.03-.374l.093-.008c.01.122.02.248.03.373Zm-.058-.748c-.01-.132-.019-.257-.028-.374l.094-.007c.008.116.017.242.027.374ZM107.3,497c-.016-.231-.025-.374-.025-.374l.093-.006s.009.142.025.375Z" transform="translate(-52.928 -245.032)" fill="#fff"/>
            <path id="Path_8969" data-name="Path 8969" d="M95.533,502.218l.231-.15.051.079c-.137.088-.229.149-.229.149h0Zm.548-.352c.107-.067.217-.134.322-.194l.047.08c-.1.06-.215.127-.32.192Zm.657-.372.009,0a1.013,1.013,0,0,0,.272-.214l.066.065a1.033,1.033,0,0,1-.3.235l-.007,0Zm.524-.5c.073-.092.149-.193.222-.3h0l.076.053c-.074.107-.15.209-.226.3Zm.428-.607c.066-.107.129-.215.186-.321l.083.046c-.059.107-.123.218-.19.326Zm.35-.654c.024-.054.046-.106.065-.158s.042-.118.065-.189v0l.088.027c-.023.074-.045.138-.066.193s-.042.107-.066.163Zm.24-.7c.033-.111.068-.233.1-.359l.09.026c-.035.126-.07.248-.1.361Zm.2-.72c.033-.119.066-.24.1-.36h0l.091.024c-.033.12-.065.243-.1.362Zm.2-.722c.033-.127.066-.248.1-.362l.09.023c-.03.113-.062.236-.1.363Zm.189-.725c.057-.223.092-.364.092-.364l.091.023s-.035.141-.093.364Z" transform="translate(-47.136 -244.973)" fill="#fff"/>
            <path id="Path_8970" data-name="Path 8970" d="M124.9,499.095a.463.463,0,0,1-.417-.305.434.434,0,0,1,.012-.349.36.36,0,0,1,.228-.187.447.447,0,0,1,.516.292.427.427,0,0,1-.009.344.364.364,0,0,1-.229.192A.381.381,0,0,1,124.9,499.095Z" transform="translate(-61.5 -245.929)" fill="#fff"/>
            <path id="Path_8971" data-name="Path 8971" d="M125.914,501.116a.5.5,0,0,1-.416-.247.422.422,0,0,1-.048-.357.343.343,0,0,1,.206-.209.376.376,0,0,1,.132-.023.5.5,0,0,1,.418.248.421.421,0,0,1,.047.359.341.341,0,0,1-.206.207A.378.378,0,0,1,125.914,501.116Z" transform="translate(-61.985 -246.935)" fill="#fff"/>
            <path id="Path_8972" data-name="Path 8972" d="M126.9,502.961a.515.515,0,0,1-.417-.238.423.423,0,0,1-.057-.36.338.338,0,0,1,.2-.211.375.375,0,0,1,.138-.025.512.512,0,0,1,.416.239.423.423,0,0,1,.058.356.338.338,0,0,1-.2.214A.382.382,0,0,1,126.9,502.961Z" transform="translate(-62.468 -247.846)" fill="#fff"/>
            <path id="Path_8973" data-name="Path 8973" d="M127.9,504.983a.463.463,0,0,1-.417-.3.435.435,0,0,1,.011-.354.37.37,0,0,1,.329-.2.462.462,0,0,1,.416.305.43.43,0,0,1-.012.349.358.358,0,0,1-.23.188A.37.37,0,0,1,127.9,504.983Z" transform="translate(-62.98 -248.834)" fill="#fff"/>
            <path id="Path_8974" data-name="Path 8974" d="M117.846,499.3a.393.393,0,0,1-.385-.4.436.436,0,0,1,.368-.447l.041,0a.393.393,0,0,1,.383.4.432.432,0,0,1-.367.448Z" transform="translate(-58.053 -246.033)" fill="#fff"/>
            <path id="Path_8975" data-name="Path 8975" d="M117.646,501.437a.344.344,0,0,1-.267-.123.41.41,0,0,1-.083-.334.466.466,0,0,1,.428-.4h.008a.342.342,0,0,1,.265.123.408.408,0,0,1,.083.333.464.464,0,0,1-.425.4Z" transform="translate(-57.968 -247.085)" fill="#fff"/>
            <path id="Path_8976" data-name="Path 8976" d="M117.43,503.4a.345.345,0,0,1-.268-.125.406.406,0,0,1-.077-.338.469.469,0,0,1,.437-.39.346.346,0,0,1,.269.126.407.407,0,0,1,.077.339.469.469,0,0,1-.436.389Z" transform="translate(-57.863 -248.055)" fill="#fff"/>
            <path id="Path_8977" data-name="Path 8977" d="M117.3,505.536a.392.392,0,0,1-.381-.4.432.432,0,0,1,.371-.45l.039,0a.393.393,0,0,1,.383.4.429.429,0,0,1-.373.446Z" transform="translate(-57.784 -249.109)" fill="#fff"/>
            <path id="Path_8978" data-name="Path 8978" d="M116.215,503.062l-.093-.007.035-.374.093.01Zm.071-.744-.094-.01.035-.371.094.01Zm.07-.745-.093-.009.035-.372.093.009Zm.071-.744-.093-.009.035-.373.093.009Zm.071-.745-.093-.009.035-.373.093.009Zm.07-.745-.093-.009.035-.372.094.008Zm.071-.744-.093-.01Z" transform="translate(-57.294 -246.001)" fill="#fff"/>
            <path id="Path_8979" data-name="Path 8979" d="M120.221,497.235a2.877,2.877,0,0,0-2.541-.507,4.753,4.753,0,0,0-2.316,1.165s-1.532,6.5-.712,7.217,7.749,1.856,8.559.478-.645-4.289-2.99-8.353" transform="translate(-56.45 -245.04)" fill="#009091"/>
            <path id="Path_8980" data-name="Path 8980" d="M118.453,496.24h0a3.14,3.14,0,0,1,2.037.7l.044.041.03.052a43.8,43.8,0,0,1,2.7,5.236c.644,1.633.735,2.75.285,3.516-.333.568-1.258.843-2.826.843-2.348,0-5.663-.64-6.334-1.222-.336-.292-.609-1.024-.083-4.239.28-1.709.665-3.352.669-3.368l.024-.1.07-.076a5.131,5.131,0,0,1,2.518-1.283A3.788,3.788,0,0,1,118.453,496.24Zm1.459,1.254a2.4,2.4,0,0,0-1.459-.461h0a3,3,0,0,0-.682.082,4.713,4.713,0,0,0-2.047.983c-.089.389-.386,1.719-.617,3.111-.5,3.038-.232,3.548-.189,3.606a16.2,16.2,0,0,0,5.809,1.024c1.386,0,2.02-.243,2.142-.452C123.608,504.128,121.821,500.8,119.913,497.494Z" transform="translate(-56.45 -245.04)" fill="#009091"/>
            <path id="Path_8981" data-name="Path 8981" d="M114.445,508.508a8.475,8.475,0,0,1,4.47-1.194,7.5,7.5,0,0,1,4.173.88,3.313,3.313,0,0,1,.124,2.661c-.81,1.378-7.737.235-8.559-.478l-.241-1.134c0-.224.013-.472.033-.735" transform="translate(-56.451 -250.307)" fill="#fff"/>
            <path id="Path_8982" data-name="Path 8982" d="M123.475,511.158s-1.15.892-4.4.832a14.427,14.427,0,0,1-4.817-.71l.1,1.638a8.411,8.411,0,0,0,5.378,1.39c3.4-.177,3.912-1.632,3.912-1.632Z" transform="translate(-56.374 -252.205)" fill="#e3dede"/>
            <path id="Path_8983" data-name="Path 8983" d="M121.378,498.69q-.927.26-1.845.55c-.422.134-.841.274-1.254.432-.17.065-.573.164-.661.349l-.305-.216a14.707,14.707,0,0,1,4.587.5c.083.028.225.227.3.217-.654.076-1.3.189-1.949.324a6.764,6.764,0,0,0-2.815,1.04l-.3-.217c1.819-.127,3.646-.216,5.47-.231.1.073.2.146.3.217-.7-.186-1.416-.348-2.129-.495a9.259,9.259,0,0,0-3.24-.33c-.073.012-.244-.244-.3-.218a19.245,19.245,0,0,1,4.2-1.353l.3.217-4.011-.633c-.056-.01-.271-.239-.3-.217a4.693,4.693,0,0,1,3.647-.154c.114.035.192.183.3.218a4.685,4.685,0,0,0-3.647.152c-.1-.073-.2-.144-.3-.217l4.01.633c.088.014.224.231.3.217a19.312,19.312,0,0,0-4.2,1.354l-.3-.218a9.118,9.118,0,0,1,3.134.309c.75.148,1.5.32,2.236.516.1.027.209.217.3.217-1.824.015-3.65.1-5.47.231-.052,0-.277-.24-.3-.217a6.832,6.832,0,0,1,2.815-1.04c.642-.137,1.3-.248,1.949-.324l.3.217a14.762,14.762,0,0,0-4.586-.5,2.292,2.292,0,0,1-.305-.216c.081-.172.435-.261.592-.324.433-.171.878-.315,1.322-.457q.919-.29,1.846-.552c.078-.022.232.238.3.218" transform="translate(-57.795 -245.802)" fill="#fff"/>
            <path id="Path_8984" data-name="Path 8984" d="M127.808,502.482l-.088.03c-.027-.074-.069-.2-.127-.351l.088-.031c.058.155.1.277.127.353m-.26-.7-.088.034c-.042-.107-.088-.224-.139-.346l.088-.035c.051.122.1.239.139.347m-.284-.694-.086.036c-.048-.109-.1-.225-.15-.341l.086-.04c.053.119.1.233.15.345m-.306-.685-.085.04c-.052-.111-.105-.223-.161-.336l.083-.042c.056.113.11.226.163.338m-.331-.672-.083.041c-.056-.112-.113-.223-.169-.332l.083-.043h0c.056.11.112.221.169.334m-.34-.667-.083.042-.172-.332.084-.043c.055.106.113.218.172.333m-.345-.664-.083.043-.174-.332.083-.044c.053.1.111.212.174.333m-.173-.333h0Zm-.175-.331-.083.045c-.111-.209-.176-.33-.177-.33l.083-.046s.065.121.176.331" transform="translate(-61.839 -245.417)" fill="#fff"/>
            <path id="Path_8985" data-name="Path 8985" d="M114.474,503.022c-.143.056-.237.089-.237.089l-.032-.088s.093-.031.236-.087Zm0,0Zm.693-.292c-.115.053-.233.1-.344.151l-.035-.087c.11-.046.226-.1.342-.149l.038.085Zm.4-.2c-.021.011-.041.024-.063.034l-.044-.083.059-.033a2.066,2.066,0,0,0,.251-.163l.056.075a2.3,2.3,0,0,1-.26.169m.26-.169Zm.472-.6a1.424,1.424,0,0,1-.2.331l-.073-.057a1.406,1.406,0,0,0,.183-.311Zm.181-.737a3.141,3.141,0,0,1-.063.374l-.091-.02a3.642,3.642,0,0,0,.062-.363Zm.03-.376-.093,0c.007-.114.013-.239.017-.373l.094,0c-.006.136-.011.262-.018.376m.03-.751-.093,0c0-.122.005-.247.007-.374l.094,0c0,.127-.005.254-.008.374m.013-.75h-.093c0-.125,0-.251,0-.374l.094,0c0,.123,0,.248,0,.373m.005-.749h-.093c0-.133,0-.257,0-.374h.093c0,.118,0,.244,0,.375m0-.75-.094,0c0-.233,0-.377,0-.377h.094s0,.144,0,.376" transform="translate(-56.349 -245.354)" fill="#fff"/>
            <path id="Path_8986" data-name="Path 8986" d="M127.539,502.25l-.046.081-.239-.133.044-.082c.143.078.24.134.241.134m-.571-.313-.044.083c-.11-.057-.224-.116-.332-.169l.041-.083c.109.052.223.111.335.17m-.682-.324-.032.088-.008,0a1.055,1.055,0,0,1-.317-.212l.062-.069a1.021,1.021,0,0,0,.286.193l.01,0m-.558-.457-.068.063c-.082-.088-.164-.183-.246-.284l.072-.059h0c.081.1.162.194.242.281m-.469-.576-.076.056c-.074-.1-.146-.209-.212-.312l.078-.05c.066.1.136.205.21.306m-.4-.628-.083.044c-.028-.053-.054-.106-.078-.158s-.051-.115-.079-.186l.086-.034h0c.028.069.054.132.078.183s.049.1.076.153m-.289-.683-.088.033c-.041-.111-.085-.231-.129-.352l.088-.032c.045.123.088.241.13.352m-.255-.7-.089.03c-.041-.118-.083-.236-.124-.354l.089-.029h0c.041.117.082.236.124.353m-.245-.708-.089.031c-.043-.124-.083-.244-.121-.355l.089-.031c.037.112.079.23.122.355m-.241-.709-.089.029-.118-.357.089-.029h0s.045.138.118.358" transform="translate(-60.997 -245.116)" fill="#fff"/>
            <path id="Path_8987" data-name="Path 8987" d="M95.878,252.757c-.12,1.868-1.284,3.315-2.6,3.231s-2.289-1.667-2.169-3.536,1.284-3.314,2.6-3.231,2.288,1.667,2.169,3.536" transform="translate(-44.947 -122.964)" fill="#fff"/>
            <path id="Path_8988" data-name="Path 8988" d="M93.386,256.366c-.044,0-.089,0-.133,0a2.459,2.459,0,0,1-1.919-1.277,4.559,4.559,0,0,1-.6-2.657c.129-2.01,1.388-3.585,2.867-3.585.044,0,.089,0,.132,0a2.458,2.458,0,0,1,1.919,1.277,4.561,4.561,0,0,1,.6,2.657C96.124,254.792,94.865,256.366,93.386,256.366Zm.214-6.773c-1.066,0-2.017,1.293-2.118,2.883a3.806,3.806,0,0,0,.491,2.217,1.734,1.734,0,0,0,1.328.921l.085,0c1.066,0,2.016-1.293,2.118-2.883a3.808,3.808,0,0,0-.491-2.217,1.734,1.734,0,0,0-1.328-.921Z" transform="translate(-44.947 -122.964)"/>
            <path id="Path_8989" data-name="Path 8989" d="M98.181,252.246a.782.782,0,1,1-.731-.83.782.782,0,0,1,.731.83" transform="translate(-47.671 -124.047)"/>
            <path id="Path_8990" data-name="Path 8990" d="M115.534,251.254c-.588,1.7-1.421,2.5-2.619,2.086a2.2,2.2,0,0,1-1.564-3.042c.588-1.7,1.88-3.283,3.078-2.869s1.693,2.127,1.105,3.826" transform="translate(-54.852 -122.048)" fill="#fff"/>
            <path id="Path_8991" data-name="Path 8991" d="M113.509,253.822a2.2,2.2,0,0,1-.716-.128,3.082,3.082,0,0,1-1.646-1.193,2.594,2.594,0,0,1-.15-2.326c.531-1.536,1.708-3.188,3.038-3.188a1.581,1.581,0,0,1,.517.087,2.374,2.374,0,0,1,1.46,1.682,4.392,4.392,0,0,1-.123,2.621C115.319,253.022,114.541,253.822,113.509,253.822Zm.525-6.085c-.8,0-1.8,1.154-2.329,2.684a1.887,1.887,0,0,0,.075,1.679,2.407,2.407,0,0,0,1.257.886,1.454,1.454,0,0,0,.472.087c.663,0,1.225-.653,1.671-1.941a3.639,3.639,0,0,0,.111-2.168,1.65,1.65,0,0,0-.985-1.181A.832.832,0,0,0,114.034,247.737Z" transform="translate(-54.852 -122.048)"/>
            <path id="Path_8992" data-name="Path 8992" d="M117.679,249.754a.75.75,0,1,1-.465-.955.75.75,0,0,1,.465.955" transform="translate(-57.342 -122.737)"/>
            <path id="Path_8993" data-name="Path 8993" d="M102.688,265c-.244,1.395-1.3,2.374-2.368,2.188a2.322,2.322,0,0,1-1.484-2.863c.245-1.4,1.306-2.375,2.369-2.189A2.323,2.323,0,0,1,102.688,265" transform="translate(-48.741 -129.324)" fill="#ba93b7"/>
            <path id="Path_8994" data-name="Path 8994" d="M118.57,262.036c-.091,1.217-.821,2.156-1.63,2.095s-1.391-1.1-1.3-2.314.821-2.156,1.63-2.095,1.39,1.1,1.3,2.314" transform="translate(-57.052 -128.145)" fill="#ba93b7"/>
            <path id="Path_8995" data-name="Path 8995" d="M103.87,254.191l-.353-.389-4.437,4.034a1.708,1.708,0,0,0-1.382-1.295.679.679,0,0,0-.095,0,1.828,1.828,0,0,0-1.551,1.26,4.418,4.418,0,0,0-1.933-1.269,1.631,1.631,0,0,0-.555-.1c-1.232.036-2.082,1.318-2.47,2.028a1.9,1.9,0,0,0-1.125-.685,1.775,1.775,0,0,0-.306-.027,2.688,2.688,0,0,0-2.366,2.429c0,.028-.007.055-.01.083-.352.008-1.133.028-2.843.082-2.808.088-8.513,1.046-8.52,1.046l.081.518c.009,0,5.715-.955,8.454-1.041,1.634-.051,2.415-.072,2.784-.08v.014A2.415,2.415,0,0,0,89,263.342a1.822,1.822,0,0,0,.305.026,2.687,2.687,0,0,0,2.366-2.427l-.258-.045.258.045a3.731,3.731,0,0,0,.054-.622,3.1,3.1,0,0,0-.324-1.4,6.522,6.522,0,0,1,.551-.886,2.263,2.263,0,0,1,1.618-1.077,1.221,1.221,0,0,1,.41.072,4.056,4.056,0,0,1,1.652,1.036,2.646,2.646,0,0,1,.241.3,3.684,3.684,0,0,0-.081.515c-.007.091-.01.18-.01.269,0,1.177.581,2.23,1.551,2.326l.093,0c1-.026,1.719-1.083,1.817-2.339l-.261-.019.261.016c.007-.088.01-.177.01-.267a3.5,3.5,0,0,0-.03-.447Zm-12.719,6.661a2.182,2.182,0,0,1-1.85,1.993,1.391,1.391,0,0,1-.217-.018,1.906,1.906,0,0,1-1.316-2.029,3.091,3.091,0,0,1,.047-.53,2.193,2.193,0,0,1,1.833-2h.017a1.2,1.2,0,0,1,.214.018,1.9,1.9,0,0,1,1.319,2.028,3.166,3.166,0,0,1-.047.532Zm7.566-1.755h0c-.077,1.1-.739,1.88-1.3,1.855l-.058,0c-.529-.016-1.064-.768-1.062-1.8,0-.077,0-.153.009-.227a2.917,2.917,0,0,1,.077-.477l.071-.036a.855.855,0,0,0-.038-.081c.219-.762.715-1.265,1.157-1.266h.074c.544.018,1.079.769,1.074,1.8,0,.074,0,.151-.007.231" transform="translate(-37.461 -125.226)"/>
            <path id="Path_8996" data-name="Path 8996" d="M106.861,285.069s0,.956-.521,1.217-1.3.26-1.043,0,1.217-.348,1.564-1.217" transform="translate(-51.928 -140.653)" fill="#472432"/>
            <path id="Path_8997" data-name="Path 8997" d="M115.814,327.363a1.567,1.567,0,1,1-1.866-1.2,1.568,1.568,0,0,1,1.866,1.2" transform="translate(-55.614 -160.913)" fill="#fff"/>
            <path id="Path_8998" data-name="Path 8998" d="M100.153,329.619a1.151,1.151,0,0,1-.458-2.092,6.813,6.813,0,0,1,1.7-1.227,23.351,23.351,0,0,1,5.98-2.092c3.6-.786,6.817-.828,8.363-.2a1.151,1.151,0,0,1,.458,2.092,6.827,6.827,0,0,1-1.7,1.227,23.369,23.369,0,0,1-5.98,2.092c-3.6.787-6.817.827-8.362.2m-.351-1.992a1.251,1.251,0,0,0-.446,1.07c.067.314.358.583.853.786a6.72,6.72,0,0,0,2.01.394,23.254,23.254,0,0,0,6.265-.6c3.578-.782,6.512-2.1,7.6-3.276a1.254,1.254,0,0,0,.447-1.07c-.068-.315-.358-.583-.853-.786a6.688,6.688,0,0,0-2.01-.394,23.247,23.247,0,0,0-6.267.6l-.014,0c-3.571.783-6.5,2.1-7.587,3.273" transform="translate(-48.942 -159.651)" fill="#fff"/>
            <path id="Path_8999" data-name="Path 8999" d="M133.028,326.181a.637.637,0,1,1-.758-.486.636.636,0,0,1,.758.486" transform="translate(-65.014 -160.691)" fill="#fff"/>
            <path id="Path_9000" data-name="Path 9000" d="M112.031,329.5c-1.149-.195-1.972-1.375-2.33-3.005a10.138,10.138,0,0,1-.044-3.77c.5-2.956,2.024-5.25,3.677-5.62a2,2,0,0,1,.762-.023c1.149.194,1.972,1.374,2.33,3.006a10.137,10.137,0,0,1,.044,3.77c-.495,2.955-2.024,5.251-3.677,5.62a2,2,0,0,1-.762.022m-2.229-6.751a9.968,9.968,0,0,0,.042,3.714c.352,1.605,1.156,2.719,2.211,2.892a1.848,1.848,0,0,0,.707-.021c1.546-.33,3.08-2.577,3.562-5.5a9.975,9.975,0,0,0-.042-3.714c-.352-1.605-1.156-2.72-2.211-2.892a1.846,1.846,0,0,0-.707.021h-.009c-1.543.339-3.073,2.581-3.554,5.5" transform="translate(-54.029 -156.435)" fill="#fff"/>
            <path id="Path_9001" data-name="Path 9001" d="M108.119,329.354a21.435,21.435,0,0,1-4.59-2.526,5.208,5.208,0,0,1-2.1-2.48,1.054,1.054,0,0,1,.041-.638,1.488,1.488,0,0,1,1.153-.766c1.575-.342,4.463.174,7.544,1.441a21.343,21.343,0,0,1,4.59,2.526,5.206,5.206,0,0,1,2.1,2.479,1.059,1.059,0,0,1-.041.639,1.489,1.489,0,0,1-1.154.766c-1.575.342-4.463-.174-7.544-1.44m-5.468-6.273a1.353,1.353,0,0,0-1.053.682.911.911,0,0,0-.033.554,5.1,5.1,0,0,0,2.049,2.4,21.309,21.309,0,0,0,4.559,2.507c3.062,1.262,5.944,1.768,7.46,1.433a1.354,1.354,0,0,0,1.054-.681.921.921,0,0,0,.033-.555,5.1,5.1,0,0,0-2.049-2.4,21.306,21.306,0,0,0-4.56-2.508c-3.059-1.261-5.939-1.766-7.456-1.434h0" transform="translate(-50.029 -159.289)" fill="#fff"/>
            <path id="Path_9002" data-name="Path 9002" d="M104.172,334.979a.637.637,0,1,1-.758-.486.637.637,0,0,1,.758.486" transform="translate(-50.777 -165.032)" fill="#fff"/>
            <path id="Path_9003" data-name="Path 9003" d="M120.04,317.051a.637.637,0,1,1-.758-.485.636.636,0,0,1,.758.485" transform="translate(-58.607 -156.186)" fill="#fff"/>
            <path id="Path_9004" data-name="Path 9004" d="M105.909,346.152l-.855.187.121.551.954-.209.094.43-1.481.325-.509-2.322,1.433-.314.095.431-.906.2.106.483.854-.187Z" transform="translate(-51.429 -170.124)" fill="#fff"/>
            <path id="Path_9005" data-name="Path 9005" d="M108.851,346.138l-.07-.321,1.778-.39.07.321Zm.156.712-.07-.32,1.778-.389.07.319Z" transform="translate(-53.672 -170.433)" fill="#fff"/>
            <path id="Path_9006" data-name="Path 9006" d="M114.349,344.559c-.046-.21-.092-.389-.131-.535l.441-.1.074.222.01,0a.6.6,0,0,1,.452-.377.489.489,0,0,1,.524.185l.007,0a.723.723,0,0,1,.172-.25.621.621,0,0,1,.3-.153c.324-.07.618.1.728.606l.217.992-.51.112-.2-.916c-.054-.244-.164-.368-.332-.331a.263.263,0,0,0-.2.236.444.444,0,0,0,.009.139l.215.986-.51.111-.207-.944c-.047-.214-.154-.341-.32-.305a.273.273,0,0,0-.2.243.354.354,0,0,0,.008.135l.215.982-.51.112Z" transform="translate(-56.355 -169.5)" fill="#fff"/>
            <path id="Path_9007" data-name="Path 9007" d="M122.167,343.5a1.527,1.527,0,0,1-.573.235,1.133,1.133,0,0,1-1.471-.9,1.212,1.212,0,0,1,1-1.511,1.408,1.408,0,0,1,.594-.022l-.015.441a1.15,1.15,0,0,0-.46.011.781.781,0,0,0,.338,1.525,1.35,1.35,0,0,0,.421-.172Z" transform="translate(-59.25 -168.389)" fill="#fff"/>
            <path id="Path_9008" data-name="Path 9008" d="M124,341.282l-.044-.2.146-.2c.248-.343.362-.534.331-.7a.2.2,0,0,0-.277-.155.517.517,0,0,0-.276.183l-.145-.216a.8.8,0,0,1,.43-.246.447.447,0,0,1,.59.334.892.892,0,0,1-.242.689l-.106.137v0l.531-.117.059.272Z" transform="translate(-61.053 -167.621)" fill="#fff"/>
            <path id="Path_9009" data-name="Path 9009" d="M469.192,86.54c.256-1.323-12.381-4.836-29.824-6.519S411,79.8,409.261,80.886a3.842,3.842,0,0,1-1.506.394s-.073,18.024,1.821,19.648,10.237,5.251,26.341,6.805c16.047,1.549,26.017-.041,28.181-1.123s6.088-18.4,6.088-18.4-1-1.619-.992-1.67" transform="translate(-201.181 -39.105)" fill="#91a7d0"/>
            <path id="Path_9010" data-name="Path 9010" d="M438.341,78.941c-17.8-1.718-32.478-.615-32.773,2.464s13.892,6.969,31.7,8.687,32.477.616,32.775-2.464-13.9-6.969-31.7-8.687m-1.026,10.627c-16.127-1.557-28.982-5.08-28.714-7.87s13.563-3.788,29.691-2.233,28.983,5.08,28.714,7.871-13.562,3.789-29.691,2.232" transform="translate(-200.104 -38.549)" fill="#9cb7e2"/>
            <path id="Path_9011" data-name="Path 9011" d="M470.188,100.009l-1.406.5S466,115.456,460.93,116.722s-17.731-.507-17.731-.507l-12.665-5.573-7.092-4.306-.76,1.52-4.559-2.026,1.157,5.337a13.3,13.3,0,0,1-6.223-1.284c-1.987-.993-3.65-4.152-4.562-6.221.259,3.647.7,6.862,1.45,7.5,1.894,1.624,10.237,5.251,26.341,6.806,16.047,1.549,26.017-.041,28.181-1.124,1.765-.883,4.7-12.561,5.722-16.84" transform="translate(-201.551 -49.344)" fill="#7c95c1"/>
            <path id="Path_9012" data-name="Path 9012" d="M411.08,82.5c-.275,2.509,12.647,5.983,28.917,7.786l-4.39-9.761C419.4,79.511,411.35,80.03,411.08,82.5" transform="translate(-202.824 -39.49)" fill="#7c95c1"/>
            <path id="Path_9013" data-name="Path 9013" d="M310.731,79.33c.3-1.836-13.565-6.187-32.739-7.823s-31.212.82-33.14,2.384c-.888.719-1.773.483-1.662.6l-.221,26.54a.519.519,0,0,0-.14.33c-.022,2.084,13.334,7.032,31.035,8.542,17.638,1.5,33.192-.965,33.621-3.006h.007l4.445-27.413-.051,0c.06-.065-1.165-.083-1.154-.154" transform="translate(-119.811 -35.015)" fill="#e4e9a7"/>
            <path id="Path_9014" data-name="Path 9014" d="M245.693,73.882s-3.625,3,1.948,5.706S274.66,85.5,274.66,85.5l-.507-14.185s-22.809-1.786-28.46,2.568" transform="translate(-120.653 -35.007)" fill="#c1c184"/>
            <path id="Path_9015" data-name="Path 9015" d="M277.2,70.041c-19.567-1.669-35.729.434-36.091,4.7s15.2,9.073,34.774,10.743,35.73-.434,36.094-4.7S296.769,71.71,277.2,70.041m-1.255,14.714c-17.727-1.513-31.831-5.87-31.5-9.732s14.97-5.767,32.7-4.255,31.831,5.869,31.5,9.732-14.969,5.767-32.7,4.255" transform="translate(-118.959 -34.276)"/>
            <path id="Path_9016" data-name="Path 9016" d="M446.819,136.27s.812,9.47-1.353,16.235-15.152,14.341-15.152,14.341v9.47s13.259-6.224,17.317-14.882,3.209-21.649,4.561-23.272,4.351-.553,5.45-1.892c1.98-2.414,7.638-4.018,7.215-5.623-.308-1.169-4.1.033-5.995.844s-7.008.422-7.008.422,1.418-3.358.337-4.981c-.6-.9-2.667-.944-2.667,1.22s-2.706,4.87-2.706,8.117" transform="translate(-212.316 -62.34)" fill="#e8b189" fill-rule="evenodd"/>
            <path id="Path_9017" data-name="Path 9017" d="M427,202.036l5.074-1.624a6.106,6.106,0,0,1,2.841,4.87,25.476,25.476,0,0,1-.609,7.711l-6.7.812s-4.262-7.915-.609-11.77" transform="translate(-209.952 -98.883)" fill="#7c3a55" fill-rule="evenodd"/>
            <path id="Path_9018" data-name="Path 9018" d="M419.859,175.309s-4.058,7.034-4.6,10.281a36.838,36.838,0,0,1-2.165,7.036l-10.823-2.706,7.035-12.717Z" transform="translate(-198.481 -86.497)" fill="#ba8663" fill-rule="evenodd"/>
            <path id="Path_9019" data-name="Path 9019" d="M308.772,130.938s-1.739,6.327-.271,8.929c.665,1.178-1.624,4.058,1.623,10.011s11.737,15.163,21.478,16.516,6.121,1.884,6.121,1.884l-5.411,7.576s-7.306,2.706-15.964-5.682-11.762-20.1-13.115-22.269-7.426-2.7-10.132-4.053-4.376-1.382-3.293-3.546-5.763-2.476-2.28-4.306c3.832-2.014,13.845,3.414,15.2,1.52s2.528-9.286,6.045-6.58" transform="translate(-141.374 -64.314)" fill="#e8b189" fill-rule="evenodd"/>
            <path id="Path_9020" data-name="Path 9020" d="M355.288,263.971a39.8,39.8,0,0,0-1.353,10.823v6.494l20.834,5.412,4.059-.812s-.813-3.518,1.893-8.388a40.779,40.779,0,0,0,3.789-9.741Z" transform="translate(-174.631 -130.243)" fill="#e8b189" fill-rule="evenodd"/>
            <path id="Path_9021" data-name="Path 9021" d="M354.146,271.674c1.843.751,6.432,2.586,10.565,3.964a113.955,113.955,0,0,0,11.652,3.04l.507,7.6.045.016,2.019-.4s-.812-3.518,1.894-8.388a40.8,40.8,0,0,0,3.789-9.741l-29.223-3.788a36.809,36.809,0,0,0-1.246,7.7" transform="translate(-174.735 -130.243)" fill="#ba8663" fill-rule="evenodd"/>
            <path id="Path_9022" data-name="Path 9022" d="M295.864,426.189l-1.624,16.775-7.847.27-1.894-4.057s3.518-.812,5.142-5.412a19.138,19.138,0,0,0,.812-8.93s5.683-2.976,5.412,1.354" transform="translate(-140.372 -209.121)" fill="#ba8663" fill-rule="evenodd"/>
            <path id="Path_9023" data-name="Path 9023" d="M439.976,409.785s11.906,2.976,13.529,2.976-.542,5.953-.542,5.953l-2.976,2.977a10.51,10.51,0,0,0-6.765-3.247,26.571,26.571,0,0,1-7.035-1.624Z" transform="translate(-215.215 -202.187)" fill="#e8b189" fill-rule="evenodd"/>
            <path id="Path_9024" data-name="Path 9024" d="M363.147,331.7s4.261,25.164,8.929,30.441,28.006,14.612,29.426,14.815,3.653-3.045,5.073-6.9.2-4.668.2-4.668-10.959-1.014-15.423-3.855-6.088-4.262-6.088-5.885,1.624-1.015,0-1.624-1.826-.811-2.841-3.856-.406-8.929-1.624-16.843-2.233-9.132-2.233-9.132Z" transform="translate(-179.176 -159.956)" fill="#565656" fill-rule="evenodd"/>
            <path id="Path_9025" data-name="Path 9025" d="M449.891,410.718s-1.014,2.841,0,3.856,2.436,2.233,1.623,3.654-3.044,1.421-3.044,3.246,2.638,8.32-1.42,10.553-5.277.609-5.886,2.842,1.624,5.478,6.088,4.87a8.425,8.425,0,0,0,7.306-6.7c.406-2.638,2.638-9.335,4.059-12.988s3.653-5.681,2.638-6.7-4.059-1.623-7.306-1.826-4.059-.812-4.059-.812" transform="translate(-217.622 -202.648)" fill="#91a7d0" fill-rule="evenodd"/>
            <path id="Path_9026" data-name="Path 9026" d="M467.281,413.356a3.981,3.981,0,0,0-1.4-.8c-1.12,2.4-3.513,7.815-4.279,11.959-1.015,5.479-1.218,8.321-2.638,10.553a10.5,10.5,0,0,1-5.683,4.667,8.425,8.425,0,0,0,7.306-6.7c.406-2.638,2.638-9.335,4.058-12.988s3.653-5.681,2.638-6.7m-9.131,6.291c1.014-1.015.405-3.856-.609-5.683a2.907,2.907,0,0,1,.017-2.72,4.523,4.523,0,0,1-1.64-.526s-1.014,2.841,0,3.856,2.436,2.233,1.623,3.654-3.044,1.421-3.044,3.246c.812,3.45,2.638-.812,3.653-1.826" transform="translate(-223.647 -202.648)" fill="#fff"/>
            <path id="Path_9027" data-name="Path 9027" d="M455.64,438.9c-.387-.036-2.4-.581-.777-1.4a3.816,3.816,0,0,1,1.285-.377c.374-.04.384-.773,0-.76a4.277,4.277,0,0,1-3-1.064v.656c.716-.661,1.727-.738,2.569-1.179.225-.117.334-.667,0-.733a8.064,8.064,0,0,1-1.87-.635c-.888-.418-.641-.909.177-.991.369-.037.742-.031,1.111-.063s.375-.792,0-.76c-.982.086-2.673-.12-2.619,1.293.047,1.192,2.176,1.715,3.051,1.889v-.733c-.9.472-1.942.549-2.707,1.256a.451.451,0,0,0,0,.656,4.737,4.737,0,0,0,3.29,1.168v-.76c-1.044.113-2.212.5-2.509,1.588s1.244,1.637,2,1.708c.375.035.382-.724,0-.76" transform="translate(-223.27 -212.95)"/>
            <path id="Path_9028" data-name="Path 9028" d="M282.17,444.745s-2.811-1.1-3.854-.11-2.3,2.37-3.7,1.517-1.332-3.083-3.158-3.135-7.669,1.937-10.507-1.723c-1.865-2.4-2.085-2.746-4.3-3.419s-4.633,2.681-2.232,6.494c3.45,5.479,5.694,4.389,8.32,4.87s6.237,2.436,9.847,3.961,5.575,3.815,6.618,2.829,1.74-4.01,2.035-7.251.928-4.033.928-4.033" transform="translate(-125.04 -216.004)" fill="#91a7d0" fill-rule="evenodd"/>
            <path id="Path_9029" data-name="Path 9029" d="M279.025,459.425a3.988,3.988,0,0,0,.837-1.378c-2.362-1.188-7.71-3.736-11.831-4.622-5.448-1.172-8.282-1.456-10.472-2.94a10.5,10.5,0,0,1-4.5-5.814,8.424,8.424,0,0,0,6.484,7.5c2.626.481,9.256,2.9,12.866,4.43s5.575,3.815,6.618,2.829M273,450.116c.985,1.043,3.843.517,5.7-.445a2.9,2.9,0,0,1,2.718.1,4.538,4.538,0,0,1,.573-1.626s-2.811-1.1-3.854-.11-2.3,2.369-3.7,1.517-1.332-3.083-3.158-3.136c-3.472.713.736,2.66,1.72,3.7" transform="translate(-124.858 -219.4)" fill="#fff"/>
            <path id="Path_9030" data-name="Path 9030" d="M274.127,447.829q-.027-1.124,1.648-.7a3.517,3.517,0,0,1,.313,1.179c.036.464.573.482.57,0a4.1,4.1,0,0,1,1.122-2.844h-.4c.633.727.681,1.747,1.1,2.6.142.29.455.2.521-.091a6.837,6.837,0,0,1,.778-1.959c.366-.618,1.034-.347,1.08.309.026.369.01.742.031,1.112.028.469.6.476.57,0-.053-.892.212-2.753-1.131-2.739-1.1.011-1.7,2.275-1.878,3.075l.521-.091c-.45-.918-.5-1.957-1.186-2.748a.245.245,0,0,0-.4,0,4.908,4.908,0,0,0-1.29,3.381h.57c-.079-.984-.4-2.317-1.454-2.637-.99-.3-1.546,1.292-1.628,1.956-.052.421.489.7.55.2" transform="translate(-134.981 -219.411)"/>
            <path id="Path_9031" data-name="Path 9031" d="M368.3,193.66l-.608-4.465s4.465,2.232,8.524,2.029,11.567-.406,11.567-.406l-1.218,3.247a35.963,35.963,0,0,1,2.233,13.394c-.406,6.7-4.059,11.364-5.683,17.047s-2.638,16.641-2.638,16.641a72.506,72.506,0,0,1-14.408-1.624c-6.9-1.624-24.555-7.711-24.555-7.711a35.114,35.114,0,0,1,5.885-13.394,62.838,62.838,0,0,1,11.161-11.161s-6.088.2-9.538-2.029a32.467,32.467,0,0,1-4.87-3.653s1.826-.811,4.058-4.667,3.856-6.088,3.856-6.088a7.415,7.415,0,0,0,5.682,2.841,20.533,20.533,0,0,0,7.509-1.826Z" transform="translate(-168.504 -93.349)" fill="#8e445f" fill-rule="evenodd"/>
            <path id="Path_9032" data-name="Path 9032" d="M404.3,131.585a11.219,11.219,0,0,0-7.915,10.755c-.2,8.727,3.856,11.974,7.1,12.177s10.553.406,13.6-.812l3.044-1.217s3.045,2.435,6.292-1.826,1.015-5.682,1.015-5.682a21.605,21.605,0,0,0,1.624-9.132c-.406-4.465-4.668-11.567-12.176-11.161s-12.582,6.9-12.582,6.9" transform="translate(-195.574 -61.511)" fill="#e8b189" fill-rule="evenodd"/>
            <path id="Path_9033" data-name="Path 9033" d="M422.135,135.917l-5.885,5.479s-3.045-3.247-5.48-.812,1.015,5.682,1.015,5.682-1.826-2.435-.405-4.668,4.667,1.015,4.667,1.015Z" transform="translate(-202.244 -67.061)" fill="#ba8663" fill-rule="evenodd"/>
            <path id="Path_9034" data-name="Path 9034" d="M415.033,165.16s-1.218,1.827-.2,1.827,2.029-1.624.2-1.827" transform="translate(-204.478 -81.49)" fill="#472432" fill-rule="evenodd"/>
            <path id="Path_9035" data-name="Path 9035" d="M424.343,135.813s-.271-2.841-1.894-2.976-2.436,1.082-2.3,3.382,1.217,2.435,1.217,2.435,2.435-.812,2.976-2.841" transform="translate(-207.294 -65.537)" fill="#fff" fill-rule="evenodd"/>
            <path id="Path_9036" data-name="Path 9036" d="M421.4,139.037l-.084-.011c-.142-.018-1.4-.247-1.545-2.785a4.106,4.106,0,0,1,.782-3.122,2.176,2.176,0,0,1,1.653-.667c.088,0,.178,0,.27.011,1.914.16,2.224,3.186,2.236,3.314l.006.067-.017.065c-.586,2.2-3.113,3.064-3.22,3.1Zm.806-5.835a1.437,1.437,0,0,0-1.108.431,3.486,3.486,0,0,0-.579,2.564c.092,1.565.638,1.967.833,2.061a4.426,4.426,0,0,0,2.6-2.473c-.053-.4-.388-2.477-1.544-2.574C422.348,133.2,422.278,133.2,422.211,133.2Z" transform="translate(-207.294 -65.537)"/>
            <path id="Path_9037" data-name="Path 9037" d="M437.128,140.74a3.879,3.879,0,0,0-1.489,2.706c-.135,1.758.676,4.6,2.706,4.329s2.164-2.435,2.3-3.923-.811-3.788-3.516-3.112" transform="translate(-214.937 -69.381)" fill="#fff" fill-rule="evenodd"/>
            <path id="Path_9038" data-name="Path 9038" d="M438.05,140.244h0a2.755,2.755,0,0,1,2.1.892,3.706,3.706,0,0,1,.872,2.751l-.011.127a8.371,8.371,0,0,1-.482,2.467,2.569,2.569,0,0,1-2.129,1.666,2.207,2.207,0,0,1-1.964-.734,5.72,5.72,0,0,1-1.165-3.995,4.237,4.237,0,0,1,1.648-2.984l.057-.04.067-.017A4.2,4.2,0,0,1,438.05,140.244Zm.03,7.174a1.645,1.645,0,0,0,.216-.015c1.548-.206,1.805-1.688,1.964-3.457l.012-.128a2.978,2.978,0,0,0-.679-2.177,2,2,0,0,0-1.541-.647h0a3.382,3.382,0,0,0-.757.093,3.533,3.533,0,0,0-1.28,2.388,4.986,4.986,0,0,0,.968,3.428A1.466,1.466,0,0,0,438.08,147.418Z" transform="translate(-214.937 -69.381)"/>
            <path id="Path_9039" data-name="Path 9039" d="M426.73,136.922a.888.888,0,1,1-.888-.888.888.888,0,0,1,.888.888" transform="translate(-209.672 -67.119)" fill-rule="evenodd"/>
            <path id="Path_9040" data-name="Path 9040" d="M442.353,143.465a.888.888,0,1,1-.888-.888.888.888,0,0,1,.888.888" transform="translate(-217.38 -70.347)" fill-rule="evenodd"/>
            <path id="Path_9041" data-name="Path 9041" d="M439.422,142.261l3.045-1.285a13.173,13.173,0,0,0,1.962-5.479c.271-2.976.542-6.223.542-6.223l.946-2.977-1.624,1.218a21.2,21.2,0,0,1-1.082-3.247,15.006,15.006,0,0,1-.676-3.383l-.676,2.57-.406-4.87-1.894,2.841a3.683,3.683,0,0,1-3.383-1.624,6.666,6.666,0,0,1-1.217-3.247l.405,3.112a6.309,6.309,0,0,1-2.842-1.759c-1.217-1.353-3.923-1.353-3.923-1.353l2.571,3.112-4.33-2.029,3.518,2.706-2.841,1.218a6.625,6.625,0,0,1,4.87.135c2.842,1.083,10.824,3.653,11.094,9.877s-1.623,7.17-4.059,10.688" transform="translate(-210.602 -57.509)" fill-rule="evenodd"/>
            <path id="Path_9042" data-name="Path 9042" d="M446.478,132.579l-.676.947a8.982,8.982,0,0,1,2.029,3.112l.406,1.488s0-3.788-1.759-5.547" transform="translate(-219.958 -65.414)" fill-rule="evenodd"/>
            <path id="Path_9043" data-name="Path 9043" d="M426.038,128.449a8.113,8.113,0,0,1,2.842-.677h1.353l-.541,1.488a3.327,3.327,0,0,0-3.654-.812" transform="translate(-210.207 -63.043)" fill-rule="evenodd"/>
            <path id="Path_9044" data-name="Path 9044" d="M318.192,291l-2.317,2,2.029,1.42s-17.655,10.553-26.788,26.584-8.727,24.759-7.509,31.658a80.046,80.046,0,0,0,3.653,13.191s6.088,1.623,8.524.811l2.435-.811s-1.623-3.247-.812-12.379,1.217-11.771.812-14.612-.608-4.059-.608-4.059l1.826-2.029-2.029-2.233s11.567-7.915,17.452-9.538,19.482-6.29,23.541-9.944,5.479-13.191,5.479-13.191S322.25,295.262,318.192,291" transform="translate(-139.615 -143.579)" fill="#6b6a69" fill-rule="evenodd"/>
            <path id="Path_9045" data-name="Path 9045" d="M335.791,300.529h0s.005.011.027.078a5.147,5.147,0,0,1,.218,1.551c-.026,2.259-1.143,6.611-9.983,10.558a105.862,105.862,0,0,0-19.3,11.389,57.534,57.534,0,0,0-6.834,5.841c-1.7,1.8-2.805,3.259-2.937,4.7-.017.265-.024.605-.024,1.026,0,6.645,1.8,33.76,1.8,33.774l1.517-.1c0-.015-.449-6.785-.9-14.392s-.9-16.045-.9-19.281c0-.4.007-.721.02-.931-.006-.591.881-2.076,2.516-3.736,4.877-5.073,15.881-12.579,25.657-16.894,9.184-4.027,10.913-9.071,10.887-11.948a6.264,6.264,0,0,0-.345-2.171l-.069-.016Z" transform="translate(-146.517 -148.005)" fill="#fff"/>
            <path id="Path_9046" data-name="Path 9046" d="M646.693,165.269s.813-2.976-3.111-2.841-8.388,1.894-7.847,3.247,1.217,1.488,1.217,1.488-3.112-.27-3.652,1.759-.136,2.57-.136,2.57-10.147-.271-10.418,4.736,2.571,5.817,2.571,5.817-2.706-1.083-2.977.812a2.193,2.193,0,0,0,1.488,2.435s-2.976-.947-4.059,1.759,1.353,5.547,1.353,5.547-2.164-.947-1.894,2.842,5.682,5.953,9.2,5.141l3.519-.812s-1.624,1.082-1.083,2.3,5.412,2.571,5.412,2.571.542,3.382,2.3,3.246a3.075,3.075,0,0,0,2.435-1.894s1.894,4.6,5.817,4.6,5.006-2.706,5.006-2.706,2.435,3.383,6.765,1.083,7.44-10.959,4.735-10.959h-2.706s5.141-1.082,4.194-2.435-3.517-1.623-3.517-1.623,5.412.541,5.006-2.841a5.431,5.431,0,0,0-3.788-4.329s5.277-.542,3.112-3.518-3.518-2.976-3.518-2.976,5.683-1.894,3.518-5.276-8.253-3.788-8.253-3.788,4.6-5.005.947-7.17S654,166.486,654,166.486s-2.842-6.358-7.306-1.217" transform="translate(-305.516 -80.139)" fill="#532d3b" fill-rule="evenodd"/>
            <path id="Path_9047" data-name="Path 9047" d="M643.084,188.149s-5.4,1.689-5.4,4.053,1.228,2.916,1.228,2.916-4.268.123-4.268,2.825v2.7s-4.391,3.715-1.351,5.741l3.04,2.026s-4.03,1.154,2.038,3.617a29.81,29.81,0,0,0,10.121,2.463s-.675,2.026,2.7.675,2.7-2.7,2.7-2.7,3.378,2.7,6.079.338,1.689-4.053,1.689-4.053l1.689-2.364-1.013-1.688s2.026-.676,1.688-3.715a64.37,64.37,0,0,0-2.116-8.706s-.586-7.505-18.824-4.128" transform="translate(-311.935 -92.402)" fill="#472432" fill-rule="evenodd"/>
            <path id="Path_9048" data-name="Path 9048" d="M642.849,224.388a22.777,22.777,0,0,1-1.217,7.306c-1.217,2.841-1.42,3.45-3.044,3.45h-3.044l.2,6.494,11.161.406s-3.044-4.465-.405-8.523,5.478-8.32,5.478-8.32Z" transform="translate(-313.576 -110.713)" fill="#e7bb90"/>
            <path id="Path_9049" data-name="Path 9049" d="M657.639,225.88l-1.616-.913-6.508-.579a28.19,28.19,0,0,1-.46,4.69,4.606,4.606,0,0,0,3.012,1.7,10.053,10.053,0,0,0,3.132-.361c.927-1.411,1.776-2.7,2.4-3.637Z" transform="translate(-320.243 -110.713)" fill="#ba8663" fill-rule="evenodd"/>
            <path id="Path_9050" data-name="Path 9050" d="M590.913,243.456s-8.117,1.623-13.393,1.015-19.888-4.059-19.888-4.059l-.2,4.667s14,3.45,21.512,3.856a43.065,43.065,0,0,0,11.567-.609Z" transform="translate(-275.034 -118.619)" fill="#ba8663"/>
            <path id="Path_9051" data-name="Path 9051" d="M612.325,306.406a15.85,15.85,0,0,0-3.247,8.658,12.848,12.848,0,0,0,2.435,8.388s-18.671,4.329-21.647,2.977-1.624-4.6-1.624-4.6l8.389-17.858Z" transform="translate(-290.087 -149.979)" fill="#e7bb90"/>
            <path id="Path_9052" data-name="Path 9052" d="M605.953,308.14c-1.14-.633-5.319-1.646-5.7-1.9a24.094,24.094,0,0,0-4.1-.266l-7.912,16.844s-1.353,3.247,1.624,4.6c1.177.535,4.812.18,8.774-.444l1.994-3.256-2.153-4.306s2.406-.127,6.586-.127a7.936,7.936,0,0,0,4.1-.885,13.442,13.442,0,0,1-.086-2.348,14.987,14.987,0,0,1,.789-4.031,21.4,21.4,0,0,0-3.914-3.881" transform="translate(-290.087 -150.967)" fill="#ba8663" fill-rule="evenodd"/>
            <path id="Path_9053" data-name="Path 9053" d="M560.154,423.35s-.812,8.659,2.706,15.423,8.117,15.694,8.117,15.694l-8.117,8.117,12.446-2.435a31.644,31.644,0,0,0-.811-8.659c-1.082-4.059-1.623-11.906-2.705-17.859s-1.624-6.494-1.624-10.011-10.012-.271-10.012-.271" transform="translate(-276.34 -208.207)" fill="#e7bb90"/>
            <path id="Path_9054" data-name="Path 9054" d="M639.815,414.832s2.165,5.14,2.435,8.117,6.224,12.447,9.471,17.858,4.059,6.495,3.247,8.659-5.141,5.141-5.141,5.141l9.741-1.083a85.785,85.785,0,0,0-.813-10.011c-.812-6.224-.269-10.283-3.247-14.882a98.745,98.745,0,0,1-6.223-11.094c-.271-.813-.812-5.141-.812-5.141Z" transform="translate(-315.684 -203.476)" fill="#e7bb90"/>
            <path id="Path_9055" data-name="Path 9055" d="M574.922,333.889s5.141,3.247,10.283,2.435a32.58,32.58,0,0,0,9.2-2.976s6.223,8.658,8.117,16.235,3.788,17.317,4.329,20.564,1.083,8.658,1.895,9.47,1.082,3.518,1.082,3.518-2.977,2.435-5.682,2.705-4.871.541-4.871.541-.541-5.954-1.353-7.846-13.258-21.918-13.258-21.918l-5.952-.271s-7.306,6.223-8.93,13.258-1.9,13.53-1.353,16.506,1.623,6.765,1.623,6.765-5.682,1.623-8.928,1.623h-6.765s1.083-1.624,1.083-7.847-.745-12.786-.541-19.753,7.305-21.646,7.305-21.646Z" transform="translate(-273.52 -164.474)" fill="#9f5069"/>
            <path id="Path_9056" data-name="Path 9056" d="M595.944,337.7a16.8,16.8,0,0,1-6.6-1.551l-2.788-.272-5.19,4.639a238.512,238.512,0,0,0-1.725,30.041,90.152,90.152,0,0,0,1.007,12.415,61.514,61.514,0,0,1,1.595-12.119c1.625-7.035,8.93-13.258,8.93-13.258l5.952.271s8.222,13.225,11.736,19.2l.162-.087s-1.689-4.053-6.755-14.523c-4.327-8.943-5.943-21.327-6.322-24.752" transform="translate(-285.979 -165.721)" fill="#8e445f"/>
            <path id="Path_9057" data-name="Path 9057" d="M603.1,243.36s1.353,4.329,1.083,6.223a22.53,22.53,0,0,1-.812,3.518l3.788-.812s-3.788,1.894-3.788,4.33a41.77,41.77,0,0,1-.271,4.6L592.28,283.676s6.494,2.706,12.176,2.977a42.453,42.453,0,0,0,8.659-.271s-1.083-8.658,4.87-14.34,9.47-15.152,9.2-18.4a17.929,17.929,0,0,0-1.894-6.223s-2.706,2.976-6.222,1.894-1.895-6.765-1.895-6.765-5.141.812-5.952.812Z" transform="translate(-292.23 -119.673)" fill="#f6cac9"/>
            <path id="Path_9058" data-name="Path 9058" d="M622.032,271.566c1.383-4.677-1.009-6.688-3.726-6.818S609.555,269,609.555,269a3.128,3.128,0,0,1,1.118.829,29.356,29.356,0,0,1-4.961,2.9,23.172,23.172,0,0,0-.988-4.434,9.351,9.351,0,0,0-1.1-1.815,2.668,2.668,0,0,0-.254,1.089,41.789,41.789,0,0,1-.271,4.6L592.28,294.628a46.881,46.881,0,0,0,9.9,2.753c1.123-4.476,2.086-8.483,2.657-11.209.4-1.906.668-3.64.841-5.219a22.637,22.637,0,0,0,5.88-3.246.847.847,0,0,0,.964.887s8.126-2.351,9.51-7.029" transform="translate(-292.23 -130.625)" fill="#e8afaf"/>
            <path id="Path_9059" data-name="Path 9059" d="M572,233.7c-.406-1.624-7.915-11.567-10.35-16.641s2.233-15.829,2.233-15.829c1.073-3.04-11.147-3.323-14.053-3.179-2.906-.144-15.008.14-13.935,3.179,0,0,4.667,10.756,2.232,15.829S528.185,232.08,527.78,233.7s-2.029,7.1.811,17.858,12.989,41.6,12.989,41.6a8.444,8.444,0,0,0,4.261,1.963,22.581,22.581,0,0,0,8.1,0,8.444,8.444,0,0,0,4.261-1.963s10.147-30.846,12.987-41.6,1.218-16.235.813-17.858" transform="translate(-259.997 -97.705)" fill="#e4e9a7"/>
            <path id="Path_9060" data-name="Path 9060" d="M575.693,238.29c-.406-1.624-7.915-11.567-10.35-16.641-1.878-3.911.466-11.2,1.638-14.33a4.8,4.8,0,0,1-1.528,1.189c-1.182.507-5.4,11.314-2.2,15.535s9.625,9.457,10.132,17.562c.063,1,.073,2.115.036,3.313a32.961,32.961,0,0,1-5.292,1.012,75.957,75.957,0,0,1-17.333-.156,11.5,11.5,0,0,1-.8-3.874c-.18-1.215-1.281-1.029-1.581-1.682-.255-.556-.658-2.309-1.354-.893a2.613,2.613,0,0,0,.422,2.892c.358.6.8,1.571-.306,1.347s-5.855-.68-7.388-1.641-3-2.053-3.071-1.289a3.454,3.454,0,0,0,2.115,3.051c1.548.629,4.808.594,5.245,1s.278.792-1.324.595-3.042.466-4.344-.176-2.959-2.818-3.276-2.04.592,2.346,1.52,2.723,2.748,1.528,4.042,1.6,2.49.672,1.262.739-3.123.883-4.671.254-3.025-.9-2.849-.144,1.921.868,2.85,1.245,1.742,1.419,3.129.963,2.972-1.4,2.775-.911a3.678,3.678,0,0,1-1.424,2.025c-.974.623-3,1.209-2.643,1.807s.612.549.612.549a6.312,6.312,0,0,0,2.765-1.182c1.378-1.025,1.81-2.4,2.745-2.931s2.4,1.2,4.005.495a14.221,14.221,0,0,1,1.408-.622c3.016.778,10.259,3.335,18.28,3.565a18.669,18.669,0,0,0,3.718-.281,112.954,112.954,0,0,1-5.861,22.929c-3.251,8.454-8.8,19.506-11.185,24.142a14.906,14.906,0,0,0,2.014-.315,8.444,8.444,0,0,0,4.261-1.963s10.147-30.846,12.987-41.6,1.218-16.235.813-17.858" transform="translate(-263.687 -102.291)" fill="#c1c184" fill-rule="evenodd"/>
            <path id="Path_9061" data-name="Path 9061" d="M572.586,201.6c0,1.4-5.77,2.529-12.885,2.529s-12.888-1.133-12.888-2.529,5.77-2.53,12.888-2.53,12.885,1.133,12.885,2.53" transform="translate(-269.797 -98.219)" fill="#c1c184"/>
            <path id="Path_9062" data-name="Path 9062" d="M583.309,268.706s-5.682,5.141-15.694,6.224a75.945,75.945,0,0,1-17.333-.155c-.235-1.23.181-2.68.052-3.55-.161-1.084-2.177-1.45-2.432-2.006s-.09-1.849-.786-.433-.5,1.833-.145,2.431.8,1.571-.307,1.347-5.855-.68-7.387-1.641-2.747-1.229-2.816-.465.313,1.6,1.859,2.227,4.809.594,5.246,1,.278.792-1.324.595-3.042.466-4.344-.176-2.7-2.007-3.021-1.229a1.516,1.516,0,0,0,1,1.989c.929.377,3.016,1.452,4.311,1.524s2.49.672,1.261.739-3.123.883-4.671.254-2.871-.034-2.7.717,1.77.379,2.7.756,1.739,1.046,3.125.591,2.972-1.4,2.775-.911a3.673,3.673,0,0,1-1.424,2.025c-.974.623-2.755,2.05-2.4,2.648l.358.6a13.4,13.4,0,0,0,2.8-1.578c1.378-1.025,1.78-2.9,2.714-3.426s2.4,1.2,4.006.495a14.331,14.331,0,0,1,1.407-.622c3.016.778,10.26,3.335,18.281,3.565,9.47.271,17.588-7.306,17.588-7.306Z" transform="translate(-263.506 -132.302)" fill="#e7bb90" fill-rule="evenodd"/>
            <path id="Path_9063" data-name="Path 9063" d="M653.146,182.974s-6.9,3.517-8.117,9.741.406,12.718,3.518,14.071,6.494,2.029,11.364-1.218,9.336-11.636,8.118-15.695-4.87-9.2-14.882-6.9" transform="translate(-318.056 -89.998)" fill="#e7bb90" fill-rule="evenodd"/>
            <path id="Path_9064" data-name="Path 9064" d="M665.351,190.206l-5.14,4.464s-2.03-2.435-3.113-.811.677,2.84.677,2.84-1.217-1.487-.135-2.3,2.435,1.083,2.435,1.083Z" transform="translate(-324.038 -93.847)" fill="#ba8663" fill-rule="evenodd"/>
            <path id="Path_9065" data-name="Path 9065" d="M658.423,217.712s-1.624.812-.542,1.082,1.353-.946.542-1.082" transform="translate(-324.414 -107.419)" fill="#532d3b" fill-rule="evenodd"/>
            <path id="Path_9066" data-name="Path 9066" d="M675.908,197.139s-2.706-1.353-1.624-3.383,3.383-1.488,4.059.406-.542,3.383-2.436,2.977" transform="translate(-332.565 -94.963)" fill="#fff" fill-rule="evenodd"/>
            <path id="Path_9067" data-name="Path 9067" d="M676.517,197.581a3.3,3.3,0,0,1-.688-.075l-.047-.01-.043-.021a4.226,4.226,0,0,1-1.981-2.1,2.252,2.252,0,0,1,.194-1.8,2.548,2.548,0,0,1,2.229-1.488,2.775,2.775,0,0,1,2.515,1.944,2.811,2.811,0,0,1-.222,2.589A2.342,2.342,0,0,1,676.517,197.581Zm-.484-.8a2.516,2.516,0,0,0,.484.049,1.583,1.583,0,0,0,1.344-.638,2.079,2.079,0,0,0,.128-1.9,2.028,2.028,0,0,0-1.808-1.446,1.8,1.8,0,0,0-1.567,1.091,1.51,1.51,0,0,0-.141,1.218A3.408,3.408,0,0,0,676.034,196.782Z" transform="translate(-332.565 -94.963)"/>
            <path id="Path_9068" data-name="Path 9068" d="M677.424,193.62a.745.745,0,1,1-.745-.744.744.744,0,0,1,.745.744" transform="translate(-333.506 -95.165)" fill-rule="evenodd"/>
            <path id="Path_9069" data-name="Path 9069" d="M662.026,190.2s-2.628-.925-1.89-2.931,2.9-1.782,3.745-.113-.08,3.191-1.855,3.044" transform="translate(-325.646 -91.693)" fill="#fff" fill-rule="evenodd"/>
            <path id="Path_9070" data-name="Path 9070" d="M662.26,190.589c-.087,0-.176,0-.265-.011l-.048,0-.046-.016a3.946,3.946,0,0,1-2.07-1.7,2.147,2.147,0,0,1-.047-1.711,2.318,2.318,0,0,1,2.15-1.68,2.863,2.863,0,0,1,2.319,4.1A2.258,2.258,0,0,1,662.26,190.589Zm-.152-.755a1.557,1.557,0,0,0,1.506-.662,2.124,2.124,0,0,0-1.68-2.958,1.58,1.58,0,0,0-1.446,1.189,1.405,1.405,0,0,0,.021,1.131A3.151,3.151,0,0,0,662.108,189.834Z" transform="translate(-325.646 -91.693)"/>
            <path id="Path_9071" data-name="Path 9071" d="M663.6,186.913a.744.744,0,1,1-.836-.641.745.745,0,0,1,.836.641" transform="translate(-326.687 -91.903)" fill-rule="evenodd"/>
            <path id="Path_9072" data-name="Path 9072" d="M625.333,266.625s1.689.675,2.364,3.715a19.868,19.868,0,0,1,.1,6.02s8.238-1.927,9.862-6.527-.661-6.731-3.367-7-8.96,3.794-8.96,3.794" transform="translate(-308.539 -129.674)" fill="#f6cac9"/>
            <path id="Path_9073" data-name="Path 9073" d="M567.13,492.513s.541,1.895,3.246,2.029a12.928,12.928,0,0,0,5.817-1.623v2.706a24.809,24.809,0,0,1-5.005.947c-1.759,0-7.441,2.029-9.065,2.029H560.5Z" transform="translate(-276.55 -243.005)" fill="#fff" fill-rule="evenodd"/>
            <path id="Path_9074" data-name="Path 9074" d="M660.271,490.645s-4.329,2.841-3.923,3.652,5.276.135,7.846-.27a15.728,15.728,0,0,0,4.195-1.218l-.406-2.029s-1.217,3.517-7.711-.135" transform="translate(-323.828 -242.084)" fill="#fff" fill-rule="evenodd"/>
            <path id="Path_9075" data-name="Path 9075" d="M541.711,231.476s1.488-2.57,3.517-2.3,3.279.967,2.842,1.624c-.542.812-2.842.271-2.842.271l-.811.542a17.305,17.305,0,0,1,1.758.541c.676.271,1.895,1.353,1.488,1.623s-4.059.136-4.059.136,2.3-.271,1.624,1.082-2.57.812-2.57.812-1.082,2.841-1.488,2.165-1.488-1.353.541-6.494" transform="translate(-266.69 -113.065)" fill="#e7bb90" fill-rule="evenodd"/>
            <path id="Path_9076" data-name="Path 9076" d="M343.124,499.91c0,7.513-24.9,13.6-55.621,13.6s-55.62-6.091-55.62-13.6,24.9-13.6,55.62-13.6,55.621,6.09,55.621,13.6" transform="translate(-114.411 -239.943)" fill="#6adbd5"/>
            <path id="Path_9077" data-name="Path 9077" d="M294.824,516.043c-.446.087-7.539-2.446-9.185-1.686s-8.739,6.079-8.739,6.079-6.586-2.533-6.332-3.926a12.027,12.027,0,0,0-.253-3.673s-1.773-.633-1.773.127a7.117,7.117,0,0,0,.253,1.646h-1.14l-.38-.887s-1.393,0-1.267.633l.127.633s-1.267.127-1.013.633l.253.507,4.559,5.573,6.586,5.066,11.905-4.939,16.718,3.419,13.3-2.66,10.005-4.686,9.879,1.773s3.926,2.406,4.559-1.9.887-6.079.887-6.079v-2.026l-1.013.507s-.253-1.013-1.013-1.013a.849.849,0,0,0-.887.633s-1.14-1.013-1.773-.887-.633,1.267,0,1.9.76,4.306-.253,4.686-9.752-3.293-9.752-3.293l-15.831,3.166Z" transform="translate(-130.794 -251.091)" fill="#e7bb90"/>
            <path id="Path_9078" data-name="Path 9078" d="M324.25,521.77l8.944,6.758,6.586-.76s2.66-2.786,4.179-4.686,1.14-2.66,1.14-2.66l-8.359.507s-12.55-1.019-12.49.841" transform="translate(-159.984 -256.776)" fill="#009091"/>
            <path id="Path_9079" data-name="Path 9079" d="M269.665,471.73c-38.92,0-70.47,12.856-70.47,28.715s31.55,28.715,70.47,28.715,70.47-12.856,70.47-28.715-31.551-28.715-70.47-28.715m0,43.9c-27.449,0-49.7-7.594-49.7-16.964s22.251-16.962,49.7-16.962,49.7,7.594,49.7,16.962-22.25,16.964-49.7,16.964" transform="translate(-98.283 -232.751)" fill="#3aa1a2"/>
            <path id="Path_9080" data-name="Path 9080" d="M271.177,526.847c-37.358,0-68.918-12.361-68.918-26.991s31.56-26.99,68.918-26.99,68.917,12.36,68.917,26.99-31.561,26.991-68.917,26.991m0-47.454c-24.846,0-51.253,6.55-51.253,18.686s26.407,18.687,51.253,18.687,51.252-6.549,51.252-18.687-26.407-18.686-51.252-18.686" transform="translate(-99.794 -233.312)" fill="#48b7b3"/>
            <path id="Path_9081" data-name="Path 9081" d="M212.878,503.869s-7.418,4.6-6.9,11.685a13.538,13.538,0,0,0,6.556,10.344s-12.076-10.535.344-22.029" transform="translate(-101.616 -248.608)" fill="#6adbd5"/>
            <path id="Path_9082" data-name="Path 9082" d="M392.952,485.721s23.806,4.405,29.5,12.259-4.485,17.048-4.485,17.048,9.488-12.45-1.9-19.346a98.2,98.2,0,0,0-23.116-9.961" transform="translate(-193.882 -239.654)" fill="#6adbd5"/>
            <path id="Path_9083" data-name="Path 9083" d="M267.912,457.739c-39.914,0-72.27,12.856-72.27,28.716S228,515.17,267.912,515.17s72.269-12.856,72.269-28.715-32.356-28.716-72.269-28.716m0,43.9c-28.15,0-50.97-7.593-50.97-16.962s22.82-16.963,50.97-16.963,50.969,7.594,50.969,16.963-22.819,16.962-50.969,16.962" transform="translate(-96.53 -225.848)" fill="#3aa1a2"/>
            <path id="Path_9084" data-name="Path 9084" d="M269.463,512.858c-38.312,0-70.677-12.361-70.677-26.991s32.366-26.991,70.677-26.991,70.677,12.36,70.677,26.991-32.367,26.991-70.677,26.991m0-47.455c-25.482,0-52.563,6.55-52.563,18.688s27.081,18.686,52.563,18.686,52.562-6.549,52.562-18.686S294.943,465.4,269.463,465.4" transform="translate(-98.081 -226.409)" fill="#48b7b3"/>
            <path id="Path_9085" data-name="Path 9085" d="M209.676,489.881s-7.608,4.6-7.077,11.684,6.723,10.344,6.723,10.344-12.384-10.535.354-22.028" transform="translate(-99.949 -241.707)" fill="#6adbd5"/>
            <path id="Path_9086" data-name="Path 9086" d="M394.348,471.73s24.413,4.405,30.253,12.259-4.6,17.049-4.6,17.049,9.73-12.452-1.946-19.348a102.136,102.136,0,0,0-23.706-9.96" transform="translate(-194.571 -232.751)" fill="#6adbd5"/>
            <path id="Path_9087" data-name="Path 9087" d="M266.684,444.885c-40.61,0-73.531,12.855-73.531,28.715s32.921,28.715,73.531,28.715,73.531-12.855,73.531-28.715-32.922-28.715-73.531-28.715m0,43.9c-28.641,0-51.859-7.594-51.859-16.963s23.218-16.964,51.859-16.964,51.859,7.594,51.859,16.964-23.219,16.963-51.859,16.963" transform="translate(-95.301 -219.506)" fill="#3aa1a2"/>
            <path id="Path_9088" data-name="Path 9088" d="M268.262,500c-38.98,0-71.911-12.362-71.911-26.992s32.932-26.99,71.911-26.99,71.909,12.359,71.909,26.99S307.24,500,268.262,500m0-47.454c-25.926,0-53.479,6.55-53.479,18.686s27.554,18.687,53.479,18.687,53.479-6.549,53.479-18.687-27.554-18.686-53.479-18.686" transform="translate(-96.879 -220.066)" fill="#48b7b3"/>
            <path id="Path_9089" data-name="Path 9089" d="M207.432,477.024s-7.74,4.6-7.2,11.684,6.84,10.344,6.84,10.344-12.6-10.535.36-22.029" transform="translate(-98.781 -235.363)" fill="#6adbd5"/>
            <path id="Path_9090" data-name="Path 9090" d="M395.325,458.875s24.84,4.405,30.78,12.259-4.68,17.049-4.68,17.049,9.9-12.451-1.98-19.347a104.973,104.973,0,0,0-24.12-9.961" transform="translate(-195.053 -226.408)" fill="#6adbd5"/>
            <path id="Path_9091" data-name="Path 9091" d="M301.584,466.47a3.835,3.835,0,0,1-2.841,3.924c-3.112.946-5.683,1.217-7.847,2.164a19.5,19.5,0,0,1-10.011.947,47.017,47.017,0,0,1-7.712-2.435l-.406-4.736s-.947-.54-1.488,1.083-.042,2.527-.812,2.841-5.953-2.3-6.629-.812,2.582,1.432,2.3,2.165-4.194-.676-4.194,1.354,3.755.846,4,1.618-2.474.887-2.1,1.9,7.126-.3,7.711-.947c1.906.524,6.629,3.788,12.853,3.923a27.231,27.231,0,0,0,10.553-1.758s1.217,7.846,1.217,10.688a8.77,8.77,0,0,1-1.759,5.006s12.988,2.57,15.423,1.488l2.435-1.083V476.617a19.333,19.333,0,0,0,9.335-.135,38.138,38.138,0,0,0,7.711-2.841,16.388,16.388,0,0,0,3.788.947c1.218,0,2.3,2.435,4.058,1.895s-1.082-2.706-1.082-2.706,3.247,1.894,3.653.406-2.435-2.572-2.435-2.572,4.194-.812,3.923-1.624-8.253-.676-8.253-.676,1.082-3.112-.271-4.194-2.165-.812-2.029,1.083.271,3.246-.812,4.058-6.358,1.623-10.011,1.758-9.876-.812-11.5-1.623-2.571-5.007-2.571-5.007Z" transform="translate(-129.243 -229.176)" fill="#e7bb90"/>
            <path id="Path_9092" data-name="Path 9092" d="M344.15,466.268l-4.194,1.082a4.05,4.05,0,0,1-.243,1.573,8.285,8.285,0,0,0,3.4.967c1.056.095,1.871.148,2.477.178a15.369,15.369,0,0,1-1.437-3.8" transform="translate(-167.615 -230.056)" fill="#ce956f"/>
            <path id="Path_9093" data-name="Path 9093" d="M315.677,430.28s-4.059-2.165-3.788,2.029,3.247,2.977,3.247,2.977a11.814,11.814,0,0,0,5.682,8.117c5.006,2.842,10.824,3.653,16.235.542s5.953-7.171,5.953-7.171,2.029,1.623,2.57-1.623.135-5.411-1.624-5.141l-1.758.27a9.89,9.89,0,0,0-8.092-9.441c-8.117-1.758-17.344.513-18.426,9.441" transform="translate(-153.879 -207.37)" fill="#e7bb90"/>
            <path id="Path_9094" data-name="Path 9094" d="M330.6,449.359a13.616,13.616,0,0,0,9.065,1.759c5.276-.812,5.817-.946,5.817-.946s.929,6.018-7.585,6.858c-5.995.591-7.027-4.964-7.3-7.67" transform="translate(-163.115 -221.713)" fill="#472432"/>
            <path id="Path_9095" data-name="Path 9095" d="M357.826,435.015c0,1.849-1.673,3.912-3.552,3.349-2.029-.609-3.45-2.108-3.45-3.958s1.489-2.739,3.45-2.739a3.455,3.455,0,0,1,3.552,3.348" transform="translate(-173.096 -212.984)" fill="#fff"/>
            <path id="Path_9096" data-name="Path 9096" d="M354.274,431.292a3.833,3.833,0,0,1,3.927,3.723,4.188,4.188,0,0,1-.94,2.571,3.05,3.05,0,0,1-2.353,1.247,2.582,2.582,0,0,1-.742-.11c-2.258-.678-3.717-2.372-3.717-4.317C350.449,432.485,351.915,431.292,354.274,431.292Zm.634,6.791c1.409,0,2.543-1.678,2.543-3.068a3.084,3.084,0,0,0-3.177-2.973,3.775,3.775,0,0,0-2.238.6,2.062,2.062,0,0,0-.837,1.761,3.266,3.266,0,0,0,.869,2.194,5,5,0,0,0,2.314,1.4A1.832,1.832,0,0,0,354.908,438.083Z" transform="translate(-173.096 -212.984)"/>
            <path id="Path_9097" data-name="Path 9097" d="M357.761,433.781a.965.965,0,1,1-.964-.913.94.94,0,0,1,.964.913" transform="translate(-175.568 -213.577)"/>
            <path id="Path_9098" data-name="Path 9098" d="M325.989,432.01c0,1.85,1.672,3.913,3.551,3.349,2.03-.609,3.45-2.109,3.45-3.957s-1.489-2.74-3.45-2.74a3.455,3.455,0,0,0-3.551,3.348" transform="translate(-160.843 -211.501)" fill="#fff"/>
            <path id="Path_9099" data-name="Path 9099" d="M329.54,428.287c2.359,0,3.825,1.193,3.825,3.115,0,1.945-1.459,3.639-3.717,4.316a2.582,2.582,0,0,1-.742.11,3.048,3.048,0,0,1-2.352-1.247,4.189,4.189,0,0,1-.939-2.571A3.833,3.833,0,0,1,329.54,428.287Zm-.634,6.791a1.832,1.832,0,0,0,.527-.079,5,5,0,0,0,2.314-1.4,3.266,3.266,0,0,0,.868-2.194,2.062,2.062,0,0,0-.837-1.761,3.773,3.773,0,0,0-2.238-.6,3.083,3.083,0,0,0-3.176,2.973C326.364,433.4,327.5,435.078,328.906,435.078Z" transform="translate(-160.843 -211.501)"/>
            <path id="Path_9100" data-name="Path 9100" d="M332.9,430.777a.965.965,0,1,0,.964-.914.94.94,0,0,0-.964.914" transform="translate(-164.252 -212.094)"/>
            <path id="Path_9101" data-name="Path 9101" d="M323.542,414.958s1.747-3.284,3.053-4.112a4.688,4.688,0,0,1,2.6-.87l.084-.591a4.384,4.384,0,0,1-2.485-2.09,7.537,7.537,0,0,1-.507-2.537l1.623,2.233a6.4,6.4,0,0,1,0-3.754,5.45,5.45,0,0,1,1.624-2.74s.041,4.175.812,4.769a15.011,15.011,0,0,1,.3-3.147,6.145,6.145,0,0,1,.913,2.842,12.194,12.194,0,0,1-.3,2.638l1.218-1.725s-.1,1.928-.812,2.435-1.421.914-1.421.914l.134.837s4.773-.883,6.586-.422c4.644,1.182,5.91,2.448,5.91,2.448s-1.013.929-4.715,1.4c-3.758.476-8.219-2.131-8.219-2.131s-6.023,3.979-6.4,3.6" transform="translate(-159.635 -197.605)" fill="#fff"/>
            <path id="Path_9102" data-name="Path 9102" d="M341.049,432.535a8.064,8.064,0,0,1,0,3.247L340.643,437s-2.57-.4-2.57,1.083,1.758,1.894,1.758,1.894a2.988,2.988,0,0,1-.812-1.894c0-1.083,2.435-.406,2.435-.406s.812-3.788-.406-5.141" transform="translate(-166.805 -213.412)" fill="#ce956f"/>
            <path id="Path_9103" data-name="Path 9103" d="M371.254,442.624s2.233-1.522,2.638,0a3.9,3.9,0,0,1-.608,2.942s1.015-2.942-.1-2.841-1.725,1.014-1.928-.1" transform="translate(-183.176 -218.056)" fill="#ce956f"/>
            <path id="Path_9104" data-name="Path 9104" d="M315.921,441.521s-1.421-1.421-1.928.2a3.439,3.439,0,0,0,.2,2.74s-.3-2.233.507-2.334a1.523,1.523,0,0,1,1.319.609,1.059,1.059,0,0,0-.1-1.217" transform="translate(-154.834 -217.562)" fill="#ce956f"/>
            <path id="Path_9105" data-name="Path 9105" d="M338.223,452.833s-.253,1.52,0,1.689,1.52.675,1.6.169.253-1.6.253-1.6Z" transform="translate(-166.824 -223.427)" fill="#fff"/>
            <path id="Path_9106" data-name="Path 9106" d="M344.3,453.42s-.169,1.181.253,1.351,1.689,0,1.6-.253-.253-1.351-.253-1.351Z" transform="translate(-169.861 -223.592)" fill="#fff"/>
            <path id="Path_9107" data-name="Path 9107" d="M343.516,462.613s-.3-.845.338-1.013a2.923,2.923,0,0,1,1.224-.042s.549-.887,1.351-.549.8.971.465,1.013-2.7.8-3.378.591" transform="translate(-169.456 -227.423)" fill="#e8afaf"/>
            <path id="Path_9108" data-name="Path 9108" d="M332.346,416.705l-2.6-1.161a18.235,18.235,0,0,0,.95,3.166c.19-.063,1.836-1.393,1.836-1.393l.8.042,1.921.971-.655-3-1.435,1.224Z" transform="translate(-162.698 -204.925)" fill="#9f5069"/>
            <path id="Path_9109" data-name="Path 9109" d="M326.6,476.379s.74,4.6.132,6.02a7.383,7.383,0,0,1-1.827,2.435s1.522,8.827.508,11.466a20.7,20.7,0,0,1-1.624,3.551,22.7,22.7,0,0,0,15.728,2.333c3.942-.759,4.518-3.515,4.518-3.515l-.866-15.255s-1.927-.711-2.232-1.929a27.587,27.587,0,0,1,.1-5.275l-.887-.127s-.164,3.36-3.208,3.969-7.877.216-8.689-1.712-.936-2.214-.936-2.214Z" transform="translate(-159.755 -234.899)" fill="#fff"/>
            <path id="Path_9110" data-name="Path 9110" d="M345.18,495.31a4.457,4.457,0,0,1-1.345,2.82,4.457,4.457,0,0,1-1.346-2.82c0-1.557.629-2.157,1.372-2.157s1.319.6,1.319,2.157" transform="translate(-168.984 -243.321)" fill="#f6cac9"/>
            <path id="Path_9111" data-name="Path 9111" d="M337.563,498.206a4.456,4.456,0,0,1,1.77,2.576,4.457,4.457,0,0,1-3.115-.245c-1.349-.779-1.553-1.623-1.182-2.267s1.178-.843,2.527-.064" transform="translate(-165.225 -245.565)" fill="#f6cac9"/>
            <path id="Path_9112" data-name="Path 9112" d="M336.159,505.528a4.454,4.454,0,0,1,3.115-.245,4.456,4.456,0,0,1-1.77,2.575c-1.349.779-2.182.534-2.554-.109s-.141-1.442,1.208-2.221" transform="translate(-165.186 -249.218)" fill="#f6cac9"/>
            <path id="Path_9113" data-name="Path 9113" d="M342.415,509.146a4.456,4.456,0,0,1,1.346-2.82,4.457,4.457,0,0,1,1.346,2.82c0,1.557-.629,2.157-1.372,2.157s-1.32-.6-1.32-2.157" transform="translate(-168.947 -249.821)" fill="#f6cac9"/>
            <path id="Path_9114" data-name="Path 9114" d="M348.309,507.921a4.457,4.457,0,0,1-1.77-2.576,4.456,4.456,0,0,1,3.116.245c1.349.778,1.553,1.622,1.181,2.267s-1.178.843-2.527.064" transform="translate(-170.982 -249.249)" fill="#f6cac9"/>
            <path id="Path_9115" data-name="Path 9115" d="M349.691,500.618a4.454,4.454,0,0,1-3.115.245,4.455,4.455,0,0,1,1.77-2.575c1.349-.779,2.182-.534,2.554.109s.141,1.442-1.208,2.221" transform="translate(-171 -245.614)" fill="#f6cac9"/>
            <path id="Path_9116" data-name="Path 9116" d="M345.123,504.04a.553.553,0,1,1-.553-.553.553.553,0,0,1,.553.553" transform="translate(-169.738 -248.42)" fill="#f6cac9"/>
            <path id="Path_9117" data-name="Path 9117" d="M306.141,1s1.929.5,2.411,4.03-3.857,13.1-1.446,15.614,5.786,2.518,4.822-4.03S310,4.022,310.48,2.511,309.034,1,306.141,1" transform="translate(-151.05 -0.493)" fill="#fff"/>
            <path id="Path_9118" data-name="Path 9118" d="M325.1,32.667s-4.615,26.151-.058,22.747.058-22.747.058-22.747" transform="translate(-159.384 -16.118)" fill="#fff"/>
            <path id="Path_9119" data-name="Path 9119" d="M485.524,8.954s-3.375,28.207,0,21.155,0-21.155,0-21.155" transform="translate(-238.817 -4.418)" fill="#fff"/>
            <path id="Path_9120" data-name="Path 9120" d="M499.112,55.684s-2.411,8.563-.482,7.555.482-7.555.482-7.555" transform="translate(-245.655 -27.474)" fill="#fff"/>
            <path id="Path_9121" data-name="Path 9121" d="M298.561,58.667s-2.411,9.066.482,8.059-.482-8.059-.482-8.059" transform="translate(-146.845 -28.946)" fill="#fff"/>
            <path id="Path_9122" data-name="Path 9122" d="M166,14.919s-3.678,12.382-1.226,12.809S166,14.919,166,14.919" transform="translate(-80.886 -7.361)" fill="#fff"/>
            <path id="Path_9123" data-name="Path 9123" d="M177.489,61.156s-4.638,21.3-.274,19.28.274-19.28.274-19.28" transform="translate(-86.514 -30.174)" fill="#fff"/>
            <path id="Path_9124" data-name="Path 9124" d="M184.532,110.156s-2.861,8.966,0,7.685,0-7.685,0-7.685" transform="translate(-90.42 -54.351)" fill="#fff"/>
            <path id="Path_9125" data-name="Path 9125" d="M192.576,24.19s-4.5,14.943-.409,13.235.409-13.235.409-13.235" transform="translate(-93.968 -11.935)" fill="#fff"/>
            <path id="Path_9126" data-name="Path 9126" d="M569.569,85.4s-2.442,32.656,1.4,32.263-1.4-32.263-1.4-32.263" transform="translate(-280.647 -42.136)" fill="#fff"/>
            <path id="Path_9127" data-name="Path 9127" d="M570,10.942s-5.786,18.637-.482,18.133S570,10.942,570,10.942" transform="translate(-279.894 -5.399)" fill="#fff"/>
            <path id="Path_9128" data-name="Path 9128" d="M577.494,54.689s-3.858,9.067-.483,7.555.483-7.555.483-7.555" transform="translate(-284.014 -26.983)" fill="#fff"/>
            <path id="Path_9129" data-name="Path 9129" d="M547.035,4.977s-3.858,7.555-.483,7.555.483-7.555.483-7.555" transform="translate(-268.985 -2.456)" fill="#fff"/>
            <path id="Path_9130" data-name="Path 9130" d="M590.611,147.155s-4.34,14.1-.482,13.6.482-13.6.482-13.6" transform="translate(-290.381 -72.606)" fill="#fff"/>
            <path id="Path_9131" data-name="Path 9131" d="M410.959,19.891s-3.375,13.1-.964,14.1.964-14.1.964-14.1" transform="translate(-201.863 -9.814)" fill="#fff"/>
            <path id="Path_9132" data-name="Path 9132" d="M243.611,0s-4.34,14.1-.482,13.6.482-13.6.482-13.6" transform="translate(-119.171)" fill="#fff"/>
          </g>
        </g>
      </g>
    </g>
  </g>
</svg>
