<svg xmlns="http://www.w3.org/2000/svg" width="30.121" height="35.5" viewBox="0 0 30.121 35.5">
  <path id="shield-check-solid" d="M33.314,7.847a47.107,47.107,0,0,1-7.122-2.528,48.41,48.41,0,0,1-6.541-3.453L19.061,1.5l-.581.377A48.409,48.409,0,0,1,11.939,5.33,47.107,47.107,0,0,1,4.807,7.847L4,8.051v8.972c0,14.4,14.555,19.794,14.695,19.848l.366.129.366-.129c.151,0,14.695-5.433,14.695-19.848V8.051ZM28.4,15,16.382,26.673l-6.8-6.81a1.521,1.521,0,1,1,2.152-2.152l4.68,4.766L26.3,12.8a1.521,1.521,0,0,1,2.152,2.152Z" transform="translate(-4 -1.5)" fill="#ce0109"/>
</svg>
