<svg xmlns="http://www.w3.org/2000/svg" width="25" height="25" viewBox="0 0 25 25">
  <g id="Group_5397" data-name="Group 5397" transform="translate(-22 -4823)">
    <circle id="Ellipse_55" data-name="Ellipse 55" cx="12.5" cy="12.5" r="12.5" transform="translate(22 4823)" fill="#de007a"/>
    <path id="Path_9147" data-name="Path 9147" d="M10.494-7.348a5.8,5.8,0,0,1,.44,2.332,5.985,5.985,0,0,1-.4,2.2,4.346,4.346,0,0,1-1.771,2.2A5.348,5.348,0,0,1,5.83.176,5.2,5.2,0,0,1,2.893-.66,4.651,4.651,0,0,1,1.078-2.926,6.263,6.263,0,0,1,.726-4.774.233.233,0,0,1,.99-5.038h2.6a.233.233,0,0,1,.264.264A4.086,4.086,0,0,0,4.092-3.7a1.762,1.762,0,0,0,.649.891,1.8,1.8,0,0,0,1.067.319A1.689,1.689,0,0,0,7.5-3.564,3.608,3.608,0,0,0,7.81-5.1,3.787,3.787,0,0,0,7.48-6.8,1.745,1.745,0,0,0,5.786-7.832a1.063,1.063,0,0,0-.506.143,6.615,6.615,0,0,0-.638.407.293.293,0,0,1-.176.066.211.211,0,0,1-.2-.132L2.97-9.174a.271.271,0,0,1-.044-.154.3.3,0,0,1,.088-.22l3.5-3.058a.091.091,0,0,0,.033-.088q-.011-.044-.077-.044H1.3a.255.255,0,0,1-.187-.077A.255.255,0,0,1,1.034-13v-2.134a.255.255,0,0,1,.077-.187A.255.255,0,0,1,1.3-15.4h9.174a.255.255,0,0,1,.187.077.255.255,0,0,1,.077.187v2.42a.462.462,0,0,1-.154.33L7.7-9.746a.091.091,0,0,0-.033.088q.011.044.1.044A3.6,3.6,0,0,1,10.494-7.348Z" transform="translate(29 4843)" fill="#fff"/>
  </g>
</svg>
