<svg xmlns="http://www.w3.org/2000/svg" width="25" height="25" viewBox="0 0 25 25">
  <g id="Group_5400" data-name="Group 5400" transform="translate(-22 -4823)">
    <circle id="Ellipse_55" data-name="Ellipse 55" cx="12.5" cy="12.5" r="12.5" transform="translate(22 4823)" fill="#de007a"/>
    <path id="Path_9150" data-name="Path 9150" d="M10.56-7.458a5.351,5.351,0,0,1,.528,2.53A5.946,5.946,0,0,1,10.67-2.64,4.475,4.475,0,0,1,8.888-.594a5.329,5.329,0,0,1-2.86.748A5.349,5.349,0,0,1,3.1-.627,4.434,4.434,0,0,1,1.32-2.794a5.645,5.645,0,0,1-.4-2.156v-6.622a3.621,3.621,0,0,1,.627-2.1A4.04,4.04,0,0,1,3.3-15.081a6.321,6.321,0,0,1,2.574-.495,6.108,6.108,0,0,1,2.53.495,3.971,3.971,0,0,1,1.7,1.386,3.574,3.574,0,0,1,.6,2.057v.616a.255.255,0,0,1-.077.187.255.255,0,0,1-.187.077H7.876a.255.255,0,0,1-.187-.077.255.255,0,0,1-.077-.187v-.2a1.642,1.642,0,0,0-.484-1.21,1.7,1.7,0,0,0-1.254-.484,1.845,1.845,0,0,0-1.331.5,1.675,1.675,0,0,0-.517,1.265v2.068q0,.066.044.077a.091.091,0,0,0,.088-.033,3.568,3.568,0,0,1,2.4-.77,4.633,4.633,0,0,1,2.365.605A4.2,4.2,0,0,1,10.56-7.458ZM7.656-3.5a2.731,2.731,0,0,0,.33-1.386,2.73,2.73,0,0,0-.352-1.452,1.779,1.779,0,0,0-1.606-.88,1.69,1.69,0,0,0-1.65.9,2.925,2.925,0,0,0-.33,1.474A2.881,2.881,0,0,0,4.334-3.5a1.715,1.715,0,0,0,1.672.968A1.725,1.725,0,0,0,7.656-3.5Z" transform="translate(29 4843)" fill="#fff"/>
  </g>
</svg>
