<svg xmlns="http://www.w3.org/2000/svg" width="366.679" height="70.065" viewBox="0 0 366.679 70.065">
  <g id="Group_6214" data-name="Group 6214" transform="translate(-4 -4081)">
    <g id="Group_5395" data-name="Group 5395" transform="translate(4 -58)">
      <g id="Group_5390" data-name="Group 5390" transform="translate(0 4139)">
        <path id="Path_8217" data-name="Path 8217" d="M-10,0H94.893L87.2,33.087h-89.5Z" transform="translate(10)" fill="#6d6d6d"/>
        <g id="Group_5378" data-name="Group 5378" transform="translate(11.934 5.933)">
          <path id="Path_8185" data-name="Path 8185" d="M97.355,15.581a5.617,5.617,0,0,0,.526,2.731,1.551,1.551,0,0,0,1.49.854,1.468,1.468,0,0,0,1.052-.428,2.374,2.374,0,0,0,.351-1.109,3.461,3.461,0,0,0-.526-1.963,9.6,9.6,0,0,0-1.665-1.793l-2.1-1.707a8.71,8.71,0,0,1-1.928-2.134A5.478,5.478,0,0,1,93.936,7.3a4.7,4.7,0,0,1,1.4-3.67,5.258,5.258,0,0,1,3.945-1.366c1.841,0,3.069.513,3.77,1.537a7.426,7.426,0,0,1,1.227,3.84l-3.506.512a6.147,6.147,0,0,0-.351-2.22A1.171,1.171,0,0,0,99.2,5.169a1.261,1.261,0,0,0-1.052.512,1.683,1.683,0,0,0-.351,1.109,3.2,3.2,0,0,0,.439,1.621,6.966,6.966,0,0,0,1.4,1.451l2.016,1.707a11.385,11.385,0,0,1,2.192,2.561,6.056,6.056,0,0,1,.789,3.158,4.536,4.536,0,0,1-.613,2.475,5.012,5.012,0,0,1-1.841,1.707,5.529,5.529,0,0,1-2.718.6,5.447,5.447,0,0,1-4.12-1.451,7.183,7.183,0,0,1-1.49-4.524Zm9.38,6.316V2.522h8.68V5.254h-4.647v5.121h3.595v2.731h-3.595v6.06h4.647V21.9Zm9.819,0,3.857-19.375h4.471L128.74,21.9h-3.77l-.7-4.268h-3.156l-.789,4.268Zm7.276-6.657L122.6,7.387l-1.14,7.767h2.367Zm6.926-12.718h4.033V19.166h4.646V21.9h-8.679Z" transform="translate(-59.967 -0.523)" fill="#fff"/>
          <path id="Path_8186" data-name="Path 8186" d="M68.308,12.065l-11.4,11.221H79.792Z" transform="translate(-49.469 -3.319)" fill="#ec86b6" fill-rule="evenodd"/>
          <path id="Path_8187" data-name="Path 8187" d="M48.369,9.974a.67.67,0,0,1-.439-.175l-.526-.526a.554.554,0,0,1,0-.789.666.666,0,0,1,.876,0l.526.526a.553.553,0,0,1,0,.789c-.175.088-.263.175-.439.175" transform="translate(-47.239 -2.086)" fill="#ec86b6" fill-rule="evenodd"/>
          <path id="Path_8188" data-name="Path 8188" d="M51.4,13.094a.67.67,0,0,1-.439-.175l-1.052-1.14a.553.553,0,0,1,0-.789.666.666,0,0,1,.876,0l1.052,1.14a.553.553,0,0,1,0,.789.565.565,0,0,1-.438.175m2.367,2.542a.67.67,0,0,1-.439-.175l-1.052-1.14a.553.553,0,0,1,0-.789.666.666,0,0,1,.876,0l1.053,1.14a.553.553,0,0,1,0,.789c-.088.175-.263.175-.439.175" transform="translate(-47.817 -2.755)" fill="#ec86b6" fill-rule="evenodd"/>
          <path id="Path_8189" data-name="Path 8189" d="M51.208,7.213a.67.67,0,0,1-.438-.175l-.526-.526a.586.586,0,0,1,0-.877.667.667,0,0,1,.877,0l.526.526a.553.553,0,0,1,0,.789.8.8,0,0,1-.439.263m4.559,9.205a.67.67,0,0,1-.439-.175l-.526-.526a.554.554,0,0,1,0-.789.8.8,0,0,1,.876,0l.526.526a.553.553,0,0,1,0,.789.483.483,0,0,1-.439.175" transform="translate(-47.886 -1.464)" fill="#ec86b6" fill-rule="evenodd"/>
          <path id="Path_8190" data-name="Path 8190" d="M54.137,10.36a.67.67,0,0,1-.439-.175l-1.052-1.14a.553.553,0,0,1,0-.789.666.666,0,0,1,.876,0L54.575,9.4a.554.554,0,0,1,0,.789c-.088.175-.263.175-.439.175M56.591,12.9a.67.67,0,0,1-.439-.175L55.1,11.587a.553.553,0,0,1,0-.789.666.666,0,0,1,.876,0l1.053,1.14a.553.553,0,0,1,0,.789.483.483,0,0,1-.439.175" transform="translate(-48.447 -2.059)" fill="#ec86b6" fill-rule="evenodd"/>
          <path id="Path_8191" data-name="Path 8191" d="M53.952,4.478a.67.67,0,0,1-.439-.175l-.526-.526a.668.668,0,0,1,0-.877.667.667,0,0,1,.877,0l.526.526a.674.674,0,0,1-.438,1.052M58.6,13.684a.67.67,0,0,1-.439-.175l-.526-.526a.554.554,0,0,1,0-.789.666.666,0,0,1,.876,0l.526.526a.553.553,0,0,1,0,.789.567.567,0,0,1-.439.175" transform="translate(-48.526 -0.631)" fill="#ec86b6" fill-rule="evenodd"/>
          <path id="Path_8192" data-name="Path 8192" d="M56.9,7.651a.67.67,0,0,1-.439-.175l-.964-1.052a.553.553,0,0,1,0-.789.666.666,0,0,1,.876,0l1.052,1.14a.553.553,0,0,1,0,.789,1.108,1.108,0,0,1-.526.088m2.455,2.542a.67.67,0,0,1-.439-.175l-1.052-1.14a.553.553,0,0,1,0-.789.666.666,0,0,1,.876,0l1.053,1.14a.553.553,0,0,1,0,.789.483.483,0,0,1-.439.175" transform="translate(-49.104 -1.391)" fill="#ec86b6" fill-rule="evenodd"/>
          <path id="Path_8193" data-name="Path 8193" d="M56.914,1.744a.482.482,0,0,1-.438-.263L55.95.956a.554.554,0,0,1,0-.789.667.667,0,0,1,.877,0l.526.526a.553.553,0,0,1,0,.789c-.175.175-.263.263-.439.263m4.471,9.205a.67.67,0,0,1-.439-.175l-.526-.526a.554.554,0,0,1,0-.789.666.666,0,0,1,.876,0l.526.526a.553.553,0,0,1,0,.789.567.567,0,0,1-.439.175" transform="translate(-49.209 0)" fill="#ec86b6" fill-rule="evenodd"/>
          <path id="Path_8194" data-name="Path 8194" d="M59.947,4.891a.67.67,0,0,1-.439-.175l-1.052-1.14a.553.553,0,0,1,0-.789.666.666,0,0,1,.876,0l1.052,1.14a.553.553,0,0,1,0,.789,1.472,1.472,0,0,1-.438.175m2.367,2.542a.67.67,0,0,1-.439-.175l-1.052-1.14a.553.553,0,0,1,0-.789.666.666,0,0,1,.876,0l1.053,1.14a.553.553,0,0,1,0,.789.67.67,0,0,1-.439.175" transform="translate(-49.787 -0.604)" fill="#ec86b6" fill-rule="evenodd"/>
          <path id="Path_8195" data-name="Path 8195" d="M65.687,11a.67.67,0,0,1-.439-.175l-.526-.526a.554.554,0,0,1,0-.789.666.666,0,0,1,.876,0l.526.526a.553.553,0,0,1,0,.789c-.175.088-.263.175-.439.175" transform="translate(-51.232 -2.343)" fill="#ec86b6" fill-rule="evenodd"/>
          <path id="Path_8196" data-name="Path 8196" d="M55.991,20.745l-.789-.876L66.248,8.647l.789.877Z" transform="translate(-49.075 -2.352)" fill="#ec86b6" fill-rule="evenodd"/>
        </g>
      </g>
      <g id="Group_5382" data-name="Group 5382" transform="translate(104.893 4139)">
        <path id="Path_8216" data-name="Path 8216" d="M-10,0H121.893L114.2,33.087H-2.305Z" transform="translate(10)" fill="#6d6d6d"/>
        <g id="Group_5377" data-name="Group 5377" transform="translate(10.315 5.933)">
          <path id="Path_8197" data-name="Path 8197" d="M61.685,109.143V88.938h4.821a9.5,9.5,0,0,1,3.945.712A3.813,3.813,0,0,1,72.468,91.7a8.529,8.529,0,0,1,.613,3.649v7.388a9.248,9.248,0,0,1-.613,3.738,4.289,4.289,0,0,1-2.017,2.136,9.058,9.058,0,0,1-3.857.712H61.685Zm4.033-2.848h.876a2.6,2.6,0,0,0,1.578-.356,1.46,1.46,0,0,0,.613-.979,9.582,9.582,0,0,0,.175-1.869V94.724a7,7,0,0,0-.175-1.691,1.626,1.626,0,0,0-.613-.89,3.612,3.612,0,0,0-1.578-.267h-.876ZM75.8,109.143V88.938h8.679v2.848H79.832v5.341h3.594v2.848H79.832v6.319h4.646v2.848Zm10.783,0V88.938H95v2.848H90.615v5.43H94.3v2.848H90.615v9.079Zm10.432,0V88.938h8.679v2.848h-4.646v5.341h3.594v2.848h-3.594v6.319h4.646v2.848Zm10.783,0V88.938h2.8l4.384,10.5v-10.5h3.331v20.205H115.6l-4.384-11.126v11.126Zm13.588,0V88.938h4.821a9.5,9.5,0,0,1,3.945.712A3.811,3.811,0,0,1,132.17,91.7a8.529,8.529,0,0,1,.613,3.649v7.388a9.248,9.248,0,0,1-.613,3.738,4.286,4.286,0,0,1-2.017,2.136,9.058,9.058,0,0,1-3.857.712h-4.909Zm4.033-2.848h.876a2.6,2.6,0,0,0,1.578-.356,1.461,1.461,0,0,0,.614-.979,9.58,9.58,0,0,0,.175-1.869V94.724a7,7,0,0,0-.175-1.691,1.631,1.631,0,0,0-.614-.89,3.612,3.612,0,0,0-1.578-.267h-.876Z" transform="translate(-24.137 -87.776)" fill="#fff"/>
          <path id="Path_8198" data-name="Path 8198" d="M24.391,95.34a2.4,2.4,0,0,1-1.666-.7L16.588,88.5a.62.62,0,0,1,.876-.877L23.6,93.762a1.334,1.334,0,0,0,1.754,0,1.271,1.271,0,0,0,0-1.754,1.332,1.332,0,0,0-1.754,0,.62.62,0,1,1-.876-.876,2.549,2.549,0,0,1,3.419,0,2.327,2.327,0,0,1,0,3.331,2.045,2.045,0,0,1-1.753.877m.876,3.944a2.4,2.4,0,0,1-1.666-.7l-6.136-6.136a.62.62,0,0,1,.876-.877l6.137,6.137a1.24,1.24,0,0,0,1.753-1.754.62.62,0,1,1,.877-.876,2.382,2.382,0,0,1,0,3.419,2.84,2.84,0,0,1-1.841.789m-5,3.244a2.411,2.411,0,0,1-1.666-4.12.62.62,0,1,1,.877.876,1.24,1.24,0,1,0,1.753,1.754,1.332,1.332,0,0,0,0-1.754L15.1,93.148a.62.62,0,1,1,.876-.876l6.137,6.136a2.383,2.383,0,0,1,0,3.419,3.228,3.228,0,0,1-1.841.7" transform="translate(-14.9 -87.428)" fill="#ec86b6" fill-rule="evenodd"/>
          <rect id="Rectangle_1331" data-name="Rectangle 1331" width="16.985" height="1.24" transform="matrix(0.707, -0.707, 0.707, 0.707, 5.72, 19.002)" fill="#ec86b6"/>
          <path id="Path_8199" data-name="Path 8199" d="M36.694,98.622l-11.4,11.4H48.09Z" transform="translate(-17.297 -89.702)" fill="#ec86b6" fill-rule="evenodd"/>
        </g>
      </g>
      <g id="Group_5383" data-name="Group 5383" transform="translate(236.786 4139)">
        <path id="Path_8215" data-name="Path 8215" d="M-10,0H119.893L112.2,33.087H-2.305Z" transform="translate(10 0)" fill="#6d6d6d"/>
        <g id="Group_5379" data-name="Group 5379" transform="translate(10.084 4.394)">
          <path id="Path_8200" data-name="Path 8200" d="M43,222.665V204.4h4.667a6.739,6.739,0,0,1,4.1,1.046c.965.644,1.448,1.931,1.448,3.7a4.242,4.242,0,0,1-.724,2.575,2.984,2.984,0,0,1-1.931,1.126,3.364,3.364,0,0,1,2.414,1.368,4.933,4.933,0,0,1,.8,3.058c0,3.54-1.77,5.39-5.311,5.39Zm4.747-2.575a2.65,2.65,0,0,0,1.931-.643,3.2,3.2,0,0,0,.564-2.172,3.443,3.443,0,0,0-.564-2.254,2.376,2.376,0,0,0-1.931-.724h-.965v5.793ZM46.7,211.8h.965a2.323,2.323,0,0,0,1.85-.643A3.093,3.093,0,0,0,50,209.228a2.371,2.371,0,0,0-.643-1.77,3.065,3.065,0,0,0-1.931-.564H46.7Zm9.253-7.4H60.7a7.5,7.5,0,0,1,4.425,1.046,4.3,4.3,0,0,1,1.448,3.7,7.248,7.248,0,0,1-.482,2.9,2.944,2.944,0,0,1-1.77,1.609l2.494,9.011H63.034l-2.092-8.287H59.575v8.287h-3.7V204.4Zm3.7,7.805h1.126a2.441,2.441,0,0,0,1.85-.644,3.327,3.327,0,0,0,.564-2.011,3.535,3.535,0,0,0-.483-2.011,2,2,0,0,0-1.77-.644H59.655Zm9.414,10.46V204.4h7.965v2.575H72.77V211.8h3.3v2.575h-3.3v5.713h4.264v2.575Zm9.012,0,3.54-18.265h4.1l3.54,18.265H85.8l-.643-4.023h-2.9l-.724,4.023Zm6.678-6.276-1.126-7.4-1.046,7.322h2.172ZM89.023,204.4h9.334v2.736H95.621v15.529h-3.7V207.136H89.1V204.4Zm11.023,18.265V204.4h3.7v7.483h3.218V204.4h3.7v18.265h-3.7v-8.126h-3.218v8.126Zm13.437,0V204.4h7.965v2.575h-4.264V211.8h3.3v2.575h-3.3v5.713h4.264v2.575Z" transform="translate(-13.833 -200.136)" fill="#fff"/>
          <path id="Path_8201" data-name="Path 8201" d="M22.42,203.839a.605.605,0,0,1-.564-.4.576.576,0,0,1,.4-.724,2.923,2.923,0,0,0,2.172-1.69,5.292,5.292,0,0,1,.644-1.046.572.572,0,1,1,.885.725c-.242.321-.4.643-.563.885a4.022,4.022,0,0,1-2.9,2.253Z" transform="translate(-7.615 -198.77)" fill="#ec86b6" fill-rule="evenodd"/>
          <path id="Path_8202" data-name="Path 8202" d="M24.942,199.167l3.379-.8-1.046,3.3Z" transform="translate(-8.528 -198.363)" fill="#ec86b6" fill-rule="evenodd"/>
          <path id="Path_8203" data-name="Path 8203" d="M12.6,203.887h-.161a3.846,3.846,0,0,1-2.9-2.253,2.137,2.137,0,0,0-.483-.8.572.572,0,1,1,.885-.725c.242.4.483.725.644,1.046a2.922,2.922,0,0,0,2.172,1.69.576.576,0,0,1,.4.724.539.539,0,0,1-.564.322" transform="translate(-3.828 -198.818)" fill="#ec86b6" fill-rule="evenodd"/>
          <path id="Path_8204" data-name="Path 8204" d="M10.434,199.167l-3.379-.8,1.046,3.3Z" transform="translate(-3.273 -198.363)" fill="#ec86b6" fill-rule="evenodd"/>
          <path id="Path_8205" data-name="Path 8205" d="M7.041,230.554a.3.3,0,0,1-.242-.081.553.553,0,0,1-.242-.724c.725-1.448.564-1.931.242-2.736-.081-.322-.242-.724-.322-1.126-.08-.322.161-.564.483-.644s.564.161.644.483a2.7,2.7,0,0,0,.321.965,3.744,3.744,0,0,1-.321,3.621.87.87,0,0,1-.564.242" transform="translate(-3.099 -206.255)" fill="#ec86b6" fill-rule="evenodd"/>
          <path id="Path_8206" data-name="Path 8206" d="M4.89,225.493l1.77-2.977,1.77,2.977Z" transform="translate(-2.637 -205.459)" fill="#ec86b6" fill-rule="evenodd"/>
          <path id="Path_8207" data-name="Path 8207" d="M18.093,230.554a.3.3,0,0,1-.242-.081.553.553,0,0,1-.242-.724c.725-1.448.564-1.931.242-2.736-.081-.322-.242-.724-.322-1.126-.08-.322.161-.564.483-.644s.564.161.644.483a2.7,2.7,0,0,0,.321.965,3.744,3.744,0,0,1-.321,3.621,1.2,1.2,0,0,1-.564.242" transform="translate(-6.346 -206.255)" fill="#ec86b6" fill-rule="evenodd"/>
          <path id="Path_8208" data-name="Path 8208" d="M16.055,225.379l1.69-2.977,1.77,2.977Z" transform="translate(-5.917 -205.425)" fill="#ec86b6" fill-rule="evenodd"/>
          <path id="Path_8209" data-name="Path 8209" d="M29.144,230.44a.3.3,0,0,1-.242-.081.553.553,0,0,1-.242-.724c.725-1.448.564-1.931.242-2.736-.081-.322-.242-.724-.322-1.126-.08-.322.161-.564.483-.644a.516.516,0,0,1,.644.483,2.7,2.7,0,0,0,.321.965,3.744,3.744,0,0,1-.321,3.621,1.2,1.2,0,0,1-.564.242" transform="translate(-9.592 -206.222)" fill="#ec86b6" fill-rule="evenodd"/>
          <path id="Path_8210" data-name="Path 8210" d="M27.107,225.265l1.69-2.977,1.77,2.977Z" transform="translate(-9.164 -205.392)" fill="#ec86b6" fill-rule="evenodd"/>
          <path id="Path_8211" data-name="Path 8211" d="M13.688,204.059,1.7,216.128H25.757Z" transform="translate(-1.699 -200.036)" fill="#ec86b6" fill-rule="evenodd"/>
        </g>
      </g>
    </g>
    <path id="Path_8214" data-name="Path 8214" d="M-108.362-.18l349.328.071-7.695,33.087-333.939-.071Z" transform="translate(121 4118.087)" fill="#6d6d6d"/>
    <g id="Group_5380" data-name="Group 5380" transform="translate(126 4124.02)">
      <path id="Path_8212" data-name="Path 8212" d="M33.543,321.759a8.425,8.425,0,0,1,1.37-5.205,5.79,5.79,0,0,1,4.658-1.735,5.761,5.761,0,0,1,4.475,1.553,6.306,6.306,0,0,1,1.37,4.384v1.735H41.306v-1.918a6.493,6.493,0,0,0-.091-1.461,1.735,1.735,0,0,0-.457-.913,2.033,2.033,0,0,0-1.187-.366,1.465,1.465,0,0,0-1.461.73,5.965,5.965,0,0,0-.365,2.192v9.406a4.506,4.506,0,0,0,.365,2.191,1.556,1.556,0,0,0,1.461.731,1.323,1.323,0,0,0,1.37-.731,6.365,6.365,0,0,0,.274-2.191v-2.009h4.109v1.735a7.345,7.345,0,0,1-1.278,4.566c-.914,1.1-2.375,1.644-4.475,1.644-2.192,0-3.744-.548-4.658-1.735a8.313,8.313,0,0,1-1.37-5.114Zm14.064-.183a7.845,7.845,0,0,1,1.37-5.022c.913-1.1,2.465-1.644,4.748-1.644,2.192,0,3.745.548,4.658,1.735a7.838,7.838,0,0,1,1.461,5.022v7.762a7.336,7.336,0,0,1-1.461,5.023c-.913,1.187-2.465,1.734-4.658,1.734s-3.744-.547-4.748-1.734a8.132,8.132,0,0,1-1.37-5.114Zm4.658,10.776a1.825,1.825,0,0,0,2.922,0,4.156,4.156,0,0,0,.365-2.009v-9.771a4.162,4.162,0,0,0-.365-2.009,1.826,1.826,0,0,0-2.922,0,3.942,3.942,0,0,0-.365,2.009v9.771a7.922,7.922,0,0,0,.365,2.009m10.684-17.259h4.474l2.558,13.058,2.739-13.058h4.292l.365,20.73H74.272l-.365-14.064-2.558,14.064H68.793l-2.74-14.155-.365,14.155H62.583Zm17.533,20.73v-20.73h8.766v2.922H84.683v5.571h3.835v2.922H84.683v9.315Zm10.5-14.246a7.845,7.845,0,0,1,1.37-5.022c.913-1.1,2.465-1.644,4.749-1.644,2.191,0,3.744.548,4.657,1.735a7.838,7.838,0,0,1,1.461,5.022v7.762a7.336,7.336,0,0,1-1.461,5.023c-.913,1.187-2.465,1.734-4.657,1.734s-3.745-.547-4.749-1.734a8.132,8.132,0,0,1-1.37-5.114Zm4.658,10.776a1.825,1.825,0,0,0,2.922,0,4.156,4.156,0,0,0,.366-2.009v-9.771a4.162,4.162,0,0,0-.366-2.009,1.826,1.826,0,0,0-2.922,0,3.941,3.941,0,0,0-.366,2.009v9.771a5.238,5.238,0,0,0,.366,2.009m10.41-17.259h5.388a8.509,8.509,0,0,1,5.022,1.187c1.1.822,1.644,2.191,1.644,4.2a8.21,8.21,0,0,1-.548,3.288,3.335,3.335,0,0,1-2.009,1.826l2.831,10.137h-4.292l-2.374-9.406h-1.553v9.5h-4.2v-20.73Zm4.2,8.858h1.278a2.771,2.771,0,0,0,2.1-.73,3.778,3.778,0,0,0,.64-2.283,4.015,4.015,0,0,0-.548-2.284,2.276,2.276,0,0,0-2.009-.73h-1.461Zm9.315-8.858H130.16V318.2h-3.105v17.625h-4.2V318.2h-3.2v-3.105Z" transform="translate(-6.657 -314.643)" fill="#fff"/>
      <path id="Path_8213" data-name="Path 8213" d="M12.658,335.041v-8.256h7.784V322.7H12.658v-8.1H7.783v8.1H0v4.088H7.783v8.256Z" transform="translate(0 -314.599)" fill="#ec86b6"/>
    </g>
  </g>
</svg>
