<svg xmlns="http://www.w3.org/2000/svg" xmlns:xlink="http://www.w3.org/1999/xlink" width="695.694" height="210.263" viewBox="0 0 695.694 210.263">
  <defs>
    <clipPath id="clip-path">
      <path id="Path_6834" data-name="Path 6834" d="M1.407,86.161a69.921,69.921,0,1,0,69.92-69.922A69.922,69.922,0,0,0,1.407,86.161" transform="translate(-1.407 -16.239)" fill="none"/>
    </clipPath>
  </defs>
  <g id="Group_5356" data-name="Group 5356" transform="translate(-814 -714.184)">
    <g id="Group_3506" data-name="Group 3506">
      <path id="Path_6800" data-name="Path 6800" d="M141.49,86.278A70.237,70.237,0,1,1,71.252,16.04,70.238,70.238,0,0,1,141.49,86.278" transform="translate(1216.43 762.732)" fill="#fff"/>
      <path id="Path_6837" data-name="Path 6837" d="M75.822,26.112H5.875L12.839,0H82.216Zm-68.645-1h67.86L80.942,1H13.608Z" transform="translate(1190.755 753.471)" fill="#eb85b5"/>
      <path id="Path_6801" data-name="Path 6801" d="M269.152,92.3H30.346L54.765,5.927l237.194.054Z" transform="translate(1217.735 747.556)" fill="#de007a"/>
      <path id="Path_8182" data-name="Path 8182" d="M14.49-20.01V-6.63c0,3.09-.54,3.51-4.44,3.51s-4.5-.45-4.5-3.36V-20.01H1.71V-6.48c0,3.63.69,5.07,2.85,6,1.17.51,2.52.66,5.46.66a19.172,19.172,0,0,0,4.65-.36,4.942,4.942,0,0,0,2.61-1.71c.75-.99,1.05-2.34,1.05-4.8V-20.01ZM21.84,0h3.84V-6.45h4.47c3.63-.06,3.63-.06,4.44-.33,2.31-.69,3.24-2.52,3.24-6.24,0-2.43-.24-3.72-.9-4.83a4.735,4.735,0,0,0-3.9-2.1c-.75-.06-.96-.06-3.09-.06h-8.1Zm3.84-9.75v-7.08h4.71a5.39,5.39,0,0,1,2.52.3c.78.42,1.02,1.23,1.02,3.45,0,2.88-.54,3.33-3.93,3.33Zm22.86-.87v2.85h5.01c.03.36.06.72.06.81,0,1.62-.27,2.7-.78,3.21s-1.62.72-3.81.72c-3.12,0-4.23-.33-4.74-1.44-.36-.78-.45-1.89-.45-5.67,0-3.63.09-4.56.48-5.4.54-1.11,1.56-1.44,4.44-1.44,4.14,0,4.62.3,4.74,2.97h3.87c-.06-3-.57-4.41-1.92-5.22s-2.37-.96-6.48-.96a18.514,18.514,0,0,0-4.77.36,5.209,5.209,0,0,0-3.81,3.87c-.39,1.47-.45,2.64-.45,7.89,0,4.62.87,6.54,3.45,7.62,1.17.48,2.4.63,5.13.63,4.74,0,6.33-.33,7.53-1.59,1.08-1.11,1.38-2.34,1.38-5.76,0-1.71,0-2.43-.06-3.45ZM60.09,0h3.84V-6.66h5.4c2.13-.06,3.06.87,3,3.06V0H76.2V-4.35c.03-2.43-1.11-3.78-3.39-3.9V-8.4c2.91-.57,3.6-1.65,3.6-5.64,0-4.47-1.65-5.97-6.48-5.97H60.09Zm3.84-9.93v-6.78h5.64c2.46,0,2.94.54,2.94,3.36,0,1.71-.15,2.31-.78,2.82a3.547,3.547,0,0,1-2.43.6ZM92.16-3.84,93.45,0h3.93L90.6-20.01H84.93L78.27,0h4.02l1.23-3.84Zm-.87-2.85H84.42l3.42-10.38ZM99.12,0h9.99c3.48,0,5.49-.99,6.6-3.18.66-1.41.84-3.06.84-8.46,0-3.48-.48-5.19-1.92-6.66-1.14-1.17-2.88-1.71-5.64-1.71H99.12Zm3.84-3.3V-16.68h5.64c1.77,0,2.7.33,3.27,1.14.63.87.78,2.01.78,5.49,0,3.42-.18,4.62-.84,5.55-.6.84-1.62,1.2-3.45,1.2Zm19.95-13.53h9.84v-3.18H119.07V0h13.77V-3.18h-9.93V-8.82h9.33v-2.82h-9.33ZM135.66,0h9.99c3.48,0,5.49-.99,6.6-3.18.66-1.41.84-3.06.84-8.46,0-3.48-.48-5.19-1.92-6.66-1.14-1.17-2.88-1.71-5.64-1.71h-9.87Zm3.84-3.3V-16.68h5.64c1.77,0,2.7.33,3.27,1.14.63.87.78,2.01.78,5.49,0,3.42-.18,4.62-.84,5.55-.6.84-1.62,1.2-3.45,1.2Z" transform="translate(1301.887 779.223)" fill="#fff"/>
      <path id="Path_8184" data-name="Path 8184" d="M9.45-24.3H23.085v-5.715H2.52V0H9.45V-11.61H22.23v-5.715H9.45ZM26.505,0h6.93V-8.955h7.02c2.745-.09,4,1.26,3.915,4.275V0h7.02V-5.985c.045-3.69-1.71-5.67-5.265-5.895V-12.1c4.59-1.035,5.535-2.565,5.535-8.82,0-4.455-1.035-6.75-3.69-8.055-1.4-.72-3.42-1.035-6.525-1.035H26.505Zm6.93-14.85v-9.225h7.2c3.33,0,3.96.72,3.96,4.32,0,4.005-.72,4.905-3.96,4.905Zm28.89-9.45h14.22v-5.715H55.4V0h21.33V-5.715h-14.4v-7.11H75.69v-4.9H62.325Zm25.515,0h14.22v-5.715H80.91V0h21.33V-5.715H87.84v-7.11h13.365v-4.9H87.84Z" transform="translate(1328.68 834.796)" fill="#fff"/>
      <path id="Path_6802" data-name="Path 6802" d="M43.289,41.743l195.5.369,7.082-19.294L49.793,22.449Z" transform="translate(1236.936 760.359)" fill="#ec86b6"/>
      <path id="Path_8183" data-name="Path 8183" d="M1.062,0h2.3V-3.87H6.048c2.178-.036,2.178-.036,2.664-.2,1.386-.414,1.944-1.512,1.944-3.744a5.352,5.352,0,0,0-.54-2.9,2.841,2.841,0,0,0-2.34-1.26c-.45-.036-.576-.036-1.854-.036H1.062Zm2.3-5.85V-10.1H6.192a3.234,3.234,0,0,1,1.512.18c.468.252.612.738.612,2.07,0,1.728-.324,2-2.358,2Zm10.962-6.156h-2.3V0h7.9V-2.016h-5.6Zm14.6,9.7L29.7,0h2.358L27.99-12.006h-3.4L20.592,0H23l.738-2.3ZM28.4-4.014H24.282l2.052-6.228ZM36.846-9.99h3.546v-2.016H31.068V-9.99h3.474V0h2.3Zm7.074-2.016h-2.3V0h2.3Zm13.248,0H54.882v6.912c0,1.116,0,1.206.054,2.322L54.954-2h-.072l-.468-.99c-.81-1.728-.954-2.034-1.4-2.934l-3.132-6.084H46.026V0h2.268V-6.894c0-1.116,0-1.206-.054-2.358l-.018-.774h.072l.4.846c.72,1.656.954,2.142,1.17,2.592L53.3,0h3.87Zm9.738,0v8.028c0,1.854-.324,2.106-2.664,2.106s-2.7-.27-2.7-2.016v-8.118h-2.3v8.118c0,2.178.414,3.042,1.71,3.6a8.057,8.057,0,0,0,3.276.4,11.5,11.5,0,0,0,2.79-.216A2.965,2.965,0,0,0,68.58-1.134a4.564,4.564,0,0,0,.63-2.88v-7.992Zm18.432,0h-3.78l-2.124,5.58c-.2.558-.342.972-.81,2.484l-.27.828h-.072l-.27-.846c-.5-1.53-.63-1.926-.846-2.484l-2.142-5.562H71.316V0h2.268V-6.552c0-.738-.018-1.116-.09-2.628l-.054-.864h.072l.27.828c.5,1.548.63,1.926.864,2.5L77.31,0h2.07l2.646-6.768c.2-.522.324-.936.828-2.5l.27-.828H83.2l-.036.882c-.072,1.566-.09,1.8-.09,2.664V0h2.268Zm23.472,0h-2.34l-1.764,6.588c-.2.7-.288,1.1-.612,2.628l-.18.882h-.072l-.216-.882c-.342-1.458-.36-1.566-.648-2.628l-1.8-6.588H98.5L96.66-5.418c-.216.792-.5,1.962-.9,3.51h-.072l-.18-.882c-.324-1.6-.414-1.98-.576-2.628L93.2-12.006H90.882L94,0h3.33l1.71-6.156c.234-.846.306-1.1.576-2.232l.162-.738h.09c.414,1.89.45,2.052.7,2.97L102.222,0h3.366Zm7.47,9.7.774,2.3h2.358l-4.068-12.006h-3.4L107.946,0h2.412l.738-2.3Zm-.522-1.71h-4.122l2.052-6.228ZM120.456,0h2.3V-4H126c1.278-.036,1.836.522,1.8,1.836V0h2.322V-2.61c.018-1.458-.666-2.268-2.034-2.34v-.09c1.746-.342,2.16-.99,2.16-3.384,0-2.682-.99-3.582-3.888-3.582h-5.9Zm2.3-5.958v-4.068h3.384c1.476,0,1.764.324,1.764,2.016,0,1.026-.09,1.386-.468,1.692a2.128,2.128,0,0,1-1.458.36ZM131.922,0h2.3V-4h3.24c1.278-.036,1.836.522,1.8,1.836V0h2.322V-2.61c.018-1.458-.666-2.268-2.034-2.34v-.09c1.746-.342,2.16-.99,2.16-3.384,0-2.682-.99-3.582-3.888-3.582h-5.9Zm2.3-5.958v-4.068h3.384c1.476,0,1.764.324,1.764,2.016,0,1.026-.09,1.386-.468,1.692a2.128,2.128,0,0,1-1.458.36ZM150.984-2.3l.774,2.3h2.358l-4.068-12.006h-3.4L142.65,0h2.412l.738-2.3Zm-.522-1.71H146.34l2.052-6.228Zm15.84-7.992h-2.286v6.912c0,1.116,0,1.206.054,2.322l.018.774h-.072l-.468-.99c-.81-1.728-.954-2.034-1.4-2.934l-3.132-6.084H155.16V0h2.268V-6.894c0-1.116,0-1.206-.054-2.358l-.018-.774h.072l.4.846c.72,1.656.954,2.142,1.17,2.592L162.432,0h3.87Zm6.984,2.016h3.546v-2.016h-9.324V-9.99h3.474V0h2.3Zm15.246-2.016h-2.664l-1.836,3.168c-.18.324-.324.558-.774,1.458l-.27.486h-.054l-.252-.486c-.486-.936-.63-1.206-.774-1.458l-1.818-3.168h-2.628l4.32,7.416V0h2.3V-4.59Z" transform="translate(1288.274 798.109)" fill="#0f0f0f"/>
      <g id="Group_3451" data-name="Group 3451" transform="translate(1208.076 779.092)" clip-path="url(#clip-path)">
        <path id="Path_6805" data-name="Path 6805" d="M126.689,79.216a4.681,4.681,0,0,0-4.749-3.5,24.1,24.1,0,0,0-8.907-3.25,38.8,38.8,0,0,0-11.183-.525l-.15-.188a11.214,11.214,0,0,0,.15-4.765A6.491,6.491,0,0,0,98.1,62.932a6.8,6.8,0,0,0-7.13,1.051c-3.416,3.076,2.476,5.216,1.875,8.556l-1.875,1.2c-1.022.65-1.127,3.076-.713,4.578-3.941,4.015-7.318,8.818-10.995,12.872-3.3,4.053-6.943,7.543-9.908,11.97,0,0-3.82-4.156-6.978-7.658-3-2.853-5.592-6.864-8.257-10.354-1.668-2.386-3.5-6.116-6.117-6.644a5.081,5.081,0,0,0-4.127,1.24l-.188-2.777c3.6-2.328,5.179-6.455,5.929-10.433a8.617,8.617,0,0,1,1.727.076,5.8,5.8,0,0,0,2.777-1.426,7.132,7.132,0,0,0,1.922-4.73c3.6-1.914,8.516-3.237,10.346-7.109,1.013-2.664-.86-5.423-2.7-7.45,2.89-1.352,6.455-3.678,6.3-7.394-.578-3.455-4.615-5.74-8.218-5.027-3.3.976-4.277,4.691-4.765,7.73a32.409,32.409,0,0,0-4.767-.188,10.566,10.566,0,0,0-3.228-5.929,5.243,5.243,0,0,0-5.066-.976c-2.89,1.275-3.189,4.466-3.228,7.355l-1.537.113c-.385-2.8-1.5-5.554-4.242-6.568a4.592,4.592,0,0,0-4.519.95c-2.175,1.924-2.6,4.082-3.023,6.706-1.576.15-2.65.219-4.226.332.15-2.74-.127-6.412-3.092-7.836a6.091,6.091,0,0,0-4.578.449c-2.8,1.265-5.254,3.9-5.328,7.13a4.2,4.2,0,0,0,2.25,3.791,12.03,12.03,0,0,0,3.529,1.238c-.375.6-1.051,1.238-1.426,1.914-.976,2.139-2.064,5.029-.451,7.093a42.961,42.961,0,0,0,8.818,5.779,4.9,4.9,0,0,0,1.615,4.767c2.064,1.689,4.953.412,7.205.262A22.771,22.771,0,0,0,35.692,74.9l.262,5.29a13.264,13.264,0,0,0-4.166-1.351,5.4,5.4,0,0,0-4.841,2.627A9.394,9.394,0,0,0,28.111,91l4.578,8.406c1.875,7.355.8,16.083-1.494,22.838-1.143,3.68-3.281,7.442-4.948,11.188.665.293,1.323.607,1.972.953,2.74,1.465,5.319,3.345,8,4.483,4.057,1.721,11.077,5.232,14.546,5.639.641.076,1.273.175,1.9.288.295-.766.573-1.56.844-2.4,2.019-6.312,2.527-16.978,2.527-16.978a233.478,233.478,0,0,1,24.045-8.556l2.389,2.527a29.882,29.882,0,0,0,19.227,7.568c3.152.113,6.3-1.164,7.73-3.978a7.779,7.779,0,0,0,4.767-4.2c.225-.713.713-1.613.262-2.252a5.008,5.008,0,0,0,1.726-2.551,6.187,6.187,0,0,0-2.439-6.568,8.86,8.86,0,0,0-9.72,2.065c-4.164.037-7.993-.414-11.521-2.252a9.214,9.214,0,0,0,2.139-3.152,6.894,6.894,0,0,0-1.426-6.642A5.483,5.483,0,0,0,87.1,96.405a4.024,4.024,0,0,0-2.514,3.6c-.151,1.314.375,3-.451,4.24a8.458,8.458,0,0,0-3.789,2.44,5.172,5.172,0,0,0-1.088,4.427l-4.955.789c5.629-9.119,12.648-17.487,19.552-26.006,3.451.225,6.529,1.576,9.718,2.252,2.853.637,5.48,2.363,8.558,1.951a57.016,57.016,0,0,0,8.8-2.711c4.437.856,6.616.311,7.941-1.681,1.281-1.929.465-4.937-2.181-6.494M56.6,116.178a83.363,83.363,0,0,0-3.088-16.695c3.265,3.076,6.154,6.529,9.156,9.72l.193.233a34.377,34.377,0,0,1,3.709,4.193Z" transform="translate(3.935 -5.809)" fill="#de007a"/>
        <path id="Path_6806" data-name="Path 6806" d="M60.111,50.724a6.069,6.069,0,0,1-5.5,1.959l-2.065,2.328A14.09,14.09,0,0,1,54.8,58.349a30.117,30.117,0,0,0,7.205-4.691,4.178,4.178,0,0,0,1.275-5.14c-.507-1.407-1.9-2.37-2.7-3.34.938-.858,2.616-1.512,3.791-2.7,1.582-1.607,2.814-2.853,2.513-4.842a5.169,5.169,0,0,0-6.755-2.513A5.869,5.869,0,0,0,57.766,38.8c-.3,1.014-.47,2.143-.789,3.078-1.613.074-3.9.121-5.328.074,0,0-.335,4.129-2.439,5.592a4.453,4.453,0,0,1-4.2.713c-2.59-.977-4.166-3.566-4.879-6.043l-1.623.066A15.8,15.8,0,0,1,37.1,46.36c-1.24,1.914-3.413,3.45-5.7,2.886-2.927-.826-4.2-3.318-4.5-5.982-2.138.037-3.767.356-5.771.493-.211-2.323-.282-4.845-1.708-6.835a2.369,2.369,0,0,0-2.326-.449c-2.477.674-5.254,2.551-5.517,5.4.3,2.927,3.255,3.878,5.61,4.625,0,0-1.2,1.689-1.9,2.885s-1.267,4.575-.258,5.625a44.4,44.4,0,0,0,5.747,3.947c.494.3,1.125.7,1.584.982.6-1.426,2.2-3.054,3.1-4.216L23.2,53.847l-.639.262a5.579,5.579,0,0,1-5.929-2.176l.188-.15a6.374,6.374,0,0,0,5.4,1.164,4.392,4.392,0,0,0,2.328-2.065,15.023,15.023,0,0,0,1.164-3.527,5.53,5.53,0,0,1-1.352,5.929,5.655,5.655,0,0,0,1.99,1.8c1.2-.75,2.476-2.363,3.789-1.875l2.89-2.44a50.241,50.241,0,0,1,6.642-4.953L47.6,51.857l.188.526A22.76,22.76,0,0,1,51.761,54.3l1.877-2.064a5.3,5.3,0,0,1-1.8-1.727,3.312,3.312,0,0,1-.449-2.439,15.211,15.211,0,0,0,1.687,2.374c1.5,1.652,3.693,1.12,5.592.515a3.626,3.626,0,0,1,1.446-.233" transform="translate(4.79 -5.017)" fill="#ec86b6"/>
        <path id="Path_6807" data-name="Path 6807" d="M38.128,38.263c1.125,2.59,1.275,6.117-.9,8.257a3.443,3.443,0,0,1-2.777.637c-2.363-.525-3.564-3.039-4.24-5.142a7.034,7.034,0,0,1,.9-6,3.283,3.283,0,0,1,2.326-1.351c2.064,0,3.9,1.8,4.691,3.6" transform="translate(15.983 -5.006)" fill="#ffe900"/>
        <path id="Path_6808" data-name="Path 6808" d="M29.04,36.231c2.139,2.176,2.027,5.7,1.051,8.368-.563,1.615-2.064,3.416-3.941,3.416-1.838.074-2.965-1.5-3.715-2.965-1.164-2.927-.75-6.792,1.726-9.007a3.556,3.556,0,0,1,4.879.188" transform="translate(11.037 -4.7)" fill="#ffe900"/>
        <path id="Path_6809" data-name="Path 6809" d="M37.351,46.922c-3.978.338-8.857.375-12.8.976l7.017-5.591c1.99,1.613,3.865,2.814,5.779,4.615" transform="translate(12.708 -0.343)" fill="#e65c9d"/>
        <path id="Path_6810" data-name="Path 6810" d="M38.645,45.9a32.418,32.418,0,0,1-6.755,6.83,31.155,31.155,0,0,1-8.105-5.855,141.235,141.235,0,0,1,14.86-.976" transform="translate(12.239 1.845)" fill="#de007a"/>
        <path id="Path_6811" data-name="Path 6811" d="M36.436,46.222c2.74.79,5.779,3.266,6.3,6.231a4.264,4.264,0,0,1-1.988,4.316c-3.3,1.2-6.481-.578-10.058-.9H29.343l-.211-2.07a21.485,21.485,0,0,0,7.3-7.576" transform="translate(15.499 2.044)" fill="#f9d7e5"/>
        <path id="Path_6812" data-name="Path 6812" d="M34.325,53.416a7.415,7.415,0,0,1,.15,2.064,53.036,53.036,0,0,0-7.73,2.252,9.569,9.569,0,0,1-3.923.539,4.539,4.539,0,0,1-2.569-.652,4.708,4.708,0,0,1-.637-5.4,11.884,11.884,0,0,1,5.7-5.48,34.388,34.388,0,0,0,9.007,6.681" transform="translate(9.354 2.357)" fill="#f9d7e5"/>
        <path id="Path_6813" data-name="Path 6813" d="M84.067,95.63a8.5,8.5,0,0,0,2.514-4.767,4.417,4.417,0,0,0-1.877-4.24,4.846,4.846,0,0,0-3.414-.187c-2.853,1.162-.863,4.277-2.064,6.38-.414,1.162-1.652,1.5-2.551,2.1a4.16,4.16,0,0,0-2.328,4.391,19.844,19.844,0,0,1,2.814.052l-2.175.773-11.259,2.59-18.651,4.953c-.113-.15-1.7.6-1.732.41a7.376,7.376,0,0,1,2.107-1.386A82.351,82.351,0,0,1,38.7,97.169a8.148,8.148,0,0,1-1.463-2.439c-3.265-6.305-6.679-11.521-7.806-18.464,0-.15.357.74.544.853,1.2,2.44,2.041,4.012,3.166,6.405,1,2.133,2.107,4.263,3.306,6.515h.188c-.3-2.477-.863-5.394-1.277-7.685-.449-2.851-2.289-5.591-1.088-8.667a2.847,2.847,0,0,1,1.914-1.615,5.076,5.076,0,0,1,3.643,1.265c2.815,2.886,4.012,5.612,5.982,10.75,6.568,4.8,10.979,11.054,16.194,17.4l3.414-.826c3.078-5.967,7.281-11.521,11.37-16.737,3.3-3.6,6.291-7.838,9.638-11.186,2.1-.233,4.7.567,6.763,1.167,3.752.562,7.355,2.213,10.806,2.7,4.691-.3,8.933-2.326,13.136-4.127,1.05-.676.976-1.8,1.088-2.89-.076-1.426-.414-2.965-1.8-3.6-3.21-1.157-11.183,3.265-11.183,3.265,1.2-1.5,3.263-2.424,5.092-3.519a39.933,39.933,0,0,0-5.048-.634,18.652,18.652,0,0,1,6.293.089l1.792-.621a19.994,19.994,0,0,0-7.115-2.444A36.234,36.234,0,0,0,92.029,61.6l-.832.064c.365-.531,1.576-.75,2.252-.976a9.636,9.636,0,0,0-.113-5.254c-1.238-1.838-3.152-3.228-5.554-2.853-1.164.225-2.74.639-3,1.877,1.125,2.1,3.076,3.752,2.814,6.492-.15,1.125-1.5,1.164-2.064,2.139a3.6,3.6,0,0,0-.637,3.152,8.057,8.057,0,0,1,.287,1.273l-.924,1.091c-4.73,6.755-10.4,12.382-15.687,18.462-2.7,2.925-4.953,5.142-7.468,7.843-.021-1.259.676-1.613.639-2.252a48.863,48.863,0,0,1-8.031-8.218c-4.615-5.179-7.506-9.832-11.972-15.124-1.537-1.388-3.6-.578-5.5.829,0,0-.282-1.9-.422-4.362-1.727.111-3.834.006-5.222-.969V69.4a9.415,9.415,0,0,1,2.252,3.453c-2.176-1.914-4.354-4.24-7.468-4.053a5.212,5.212,0,0,0-3.529,2.064,7.17,7.17,0,0,0,.076,6.193C25.639,82.346,28.3,87.75,31.492,93a197.109,197.109,0,0,1,10.357,21.428,224.16,224.16,0,0,1,35.275-11.257,3.762,3.762,0,0,1-2.065,1.792c3.527,3.076,7.02,5.637,11.26,6.689,4.652.9,10.169,3.49,14.409-.188-1.689.264-4.34.349-5.929-.449a32.411,32.411,0,0,0,6.943-.713l.641-.356c2.023-1.09,3.413-2.5,3.562-4.335a13.641,13.641,0,0,1-8.078,1.454l.723-.1c1.5-.637,3-.9,4.578-1.539,1.763-.826,3.826-1.388,4.691-3.49.449-1.613-.375-3.115-1.465-4.316-3.113-1.726-7.017.151-9.718,2.252-.637.188-1.051,1.24-1.8.976a4.84,4.84,0,0,1,1.463-1.8c-3.715.3-7.056-.713-10.282-1.875a3.53,3.53,0,0,1-1.99-1.539" transform="translate(10.647 5.887)" fill="#ec86b6"/>
        <path id="Path_6814" data-name="Path 6814" d="M39.488,54.335c-.75,3.6-2.479,8.335-6.682,9.462-3.8.462-6.173-3.926-7.675-6.928L24.5,55.32c2.1-.976,4.631-1.655,6.769-2.593,2.74.225,5.557,1.157,8.221,1.608" transform="translate(12.673 6.01)" fill="#f9d7e5"/>
        <path id="Path_6815" data-name="Path 6815" d="M74.427,62.305c-3-.412-7.13-1.613-10.171,0l-.375-.375c2.74-2.326,7.244-1.014,10.095.262Z" transform="translate(36.688 10.841)" fill="#de007a"/>
        <path id="Path_6816" data-name="Path 6816" d="M85.083,65.921a4.2,4.2,0,0,1-1.726,2.252,4.458,4.458,0,0,1-2.981.295,4.736,4.736,0,0,0,3.356-3.823l.074-1.8a2.579,2.579,0,0,1,1.277,3.078" transform="translate(46.746 12.179)" fill="#ec86b6"/>
        <path id="Path_6817" data-name="Path 6817" d="M36.7,70.382c4.2,7.58,5.542,17.96,6.479,26.629l-1.912.6A109.118,109.118,0,0,1,32.559,84.74,52.478,52.478,0,0,0,30.27,70.456c-.478-1.4-1.03-4.438.488-5.032,3.268-.6,4.464,2,5.942,4.958" transform="translate(15.885 13.699)" fill="#f9d7e5"/>
        <path id="Path_6818" data-name="Path 6818" d="M25.359,110.228l.963.4a33.555,33.555,0,0,1,7.308,4.214c.844-3.224,1.821-6.466,2.37-9.823.753-4.6,1.4-7.155,1.175-11.284C34.4,88.41,31.534,82.882,28.419,77.554c-.113,5.816-.525,11.895-2.4,17.3-1.183,4.082-2.83,8.165-4.419,12.168a20.026,20.026,0,0,1,3.759,3.207" transform="translate(10.906 21.149)" fill="#ec86b6"/>
        <path id="Path_6819" data-name="Path 6819" d="M35.623,108.158c1.164.385,2.363.808,3.567,1.259a52.433,52.433,0,0,0,2.228-7.769,86.684,86.684,0,0,0,.844-9.694c-2.439.937-4.081,1.689-6.545,2.6,0,0-1.336-2.534-2.646-5.417-.151,2.138-.377,4.39-.713,6.492a50.159,50.159,0,0,1-2.135,10.955c1.877.454,3.709,1.013,5.4,1.571" transform="translate(16.164 28.214)" fill="#f9d7e5"/>
        <path id="Path_6820" data-name="Path 6820" d="M19.771,35.67l7.408-6.408,1.877,2.722-7.584,6.087Z" transform="translate(9.791 -8.298)" fill="#1a1818"/>
        <path id="Path_6821" data-name="Path 6821" d="M27.178,40.7a2.087,2.087,0,0,1-1.793,2.287A2.087,2.087,0,0,1,23.59,40.7a2.087,2.087,0,0,1,1.795-2.287A2.087,2.087,0,0,1,27.178,40.7" transform="translate(12.12 -2.718)" fill="#1a1818"/>
        <path id="Path_6822" data-name="Path 6822" d="M25.537,39.924a.9.9,0,0,1-.769.988,1.02,1.02,0,0,1,0-1.977.9.9,0,0,1,.769.988" transform="translate(12.37 -2.399)" fill="#fff"/>
        <path id="Path_6823" data-name="Path 6823" d="M35.282,40.385a2.086,2.086,0,0,1-1.793,2.287,2.085,2.085,0,0,1-1.793-2.287A2.085,2.085,0,0,1,33.488,38.1a2.086,2.086,0,0,1,1.793,2.287" transform="translate(17.062 -2.91)" fill="#1a1818"/>
        <path id="Path_6824" data-name="Path 6824" d="M33.641,39.609a.793.793,0,1,1-.769-.988.9.9,0,0,1,.769.988" transform="translate(17.311 -2.591)" fill="#fff"/>
        <path id="Path_6825" data-name="Path 6825" d="M44.055,36.138c-1.5.266-2.073,1.061-2.65,2.709a8.507,8.507,0,0,0,.243,3.1c1.687-.346,3.59-1.027,4.295-2.627a2.354,2.354,0,0,0-1.888-3.178" transform="translate(22.966 -4.105)" fill="#de007a"/>
        <path id="Path_6826" data-name="Path 6826" d="M43.772,36.879c-1.677.462-2.122,2.627-2.015,4.078,1.533-.514,2.88-1.4,3.211-2.835.032-.736-.551-1.479-1.2-1.243" transform="translate(23.188 -3.681)" fill="#f9d7e5"/>
        <path id="Path_6827" data-name="Path 6827" d="M28.275,51.28l.071.541c-6.452.65-19.8,4.406-19.8,4.406A61.389,61.389,0,0,1,28.275,51.28" transform="translate(2.949 5.128)" fill="#1a1818"/>
        <path id="Path_6828" data-name="Path 6828" d="M28.247,52.513l.145.515C22.1,55.1,9.424,61.756,9.424,61.756a67.014,67.014,0,0,1,18.823-9.243" transform="translate(3.482 5.88)" fill="#1a1818"/>
        <path id="Path_6829" data-name="Path 6829" d="M15.51,37.563c1.467.41,1.961,1.256,2.374,2.952a8.548,8.548,0,0,1-.544,3.06c-1.645-.51-3.472-1.373-4.02-3.034a2.353,2.353,0,0,1,2.189-2.978" transform="translate(5.79 -3.236)" fill="#de007a"/>
        <path id="Path_6830" data-name="Path 6830" d="M15.1,38.313c1.624.623,1.856,2.82,1.608,4.253-1.475-.658-2.729-1.676-2.92-3.133.04-.736.692-1.42,1.312-1.12" transform="translate(6.144 -2.823)" fill="#f9d7e5"/>
        <path id="Path_6831" data-name="Path 6831" d="M35.565,50.747l.008.546c6.476-.27,20.219,1.555,20.219,1.555a61.376,61.376,0,0,0-20.227-2.1" transform="translate(19.422 4.724)" fill="#1a1818"/>
        <path id="Path_6832" data-name="Path 6832" d="M35.455,51.963l-.069.53c6.52,1.162,20.013,5.953,20.013,5.953a67.009,67.009,0,0,0-19.943-6.483" transform="translate(19.312 5.545)" fill="#1a1818"/>
        <path id="Path_6833" data-name="Path 6833" d="M40.777,34.437l-8.242-5.6-1.56,3,8.379,5.253Z" transform="translate(16.623 -8.557)" fill="#1a1818"/>
      </g>
      <path id="Path_6835" data-name="Path 6835" d="M141.62,79.537c2.843,33.126-18.852,66.136-54.806,73.451C27.851,164.562-16.566,100.81,14.7,49.5a68.123,68.123,0,0,1,53.33-32.311c.013-.043.018-.087.029-.13.1-.364.233-.708.353-1.062C37.828,17.327,8.453,38.017,1.3,73.643c-7.658,38.726,19.243,77.308,58.222,83.534,49.544,7.753,87.061-34.034,82.48-77.606-.129-.013-.258-.023-.386-.035" transform="translate(1201.352 766.552) rotate(-3)" fill="#e0007a"/>
      <path id="Path_6836" data-name="Path 6836" d="M74.523,25.569l-68,.043L13.224.5H81.579Z" transform="translate(1190.755 753.471)" fill="#fff"/>
      <path id="Path_8180" data-name="Path 8180" d="M.672,0H2.52V-2.316H4.044c.948-.024,1.2-.024,1.272-.036A2.067,2.067,0,0,0,6.588-2.82c.468-.384.672-1.068.672-2.28a3.55,3.55,0,0,0-.384-2,2.094,2.094,0,0,0-1.728-.888C4.884-8,4.884-8,3.852-8H.672ZM2.52-3.912V-6.48H4.14a1.847,1.847,0,0,1,.792.084c.348.144.444.42.444,1.236,0,1.092-.168,1.248-1.32,1.248ZM9.912-8H8.064V0h5.388V-1.6H9.912Zm9.252,0v5.232c0,1.08-.2,1.248-1.5,1.248-1.392,0-1.62-.156-1.62-1.164V-8H14.2v5.316c0,1.5.252,2.076,1.116,2.448a5.426,5.426,0,0,0,2.316.3A4.575,4.575,0,0,0,19.98-.288a1.814,1.814,0,0,0,.96-1.44c.036-.252.072-.876.072-1.092V-8Zm9.2,2.424c.012-.132.012-.276.012-.324a2.265,2.265,0,0,0-.444-1.524c-.408-.48-1.068-.636-2.7-.636a4.42,4.42,0,0,0-2.652.48,2.147,2.147,0,0,0-.648,1.872c0,1.14.252,1.728.876,2.04a5.138,5.138,0,0,0,2.088.348c1.452.1,1.452.1,1.644.252.156.108.216.324.216.672a.972.972,0,0,1-.252.8c-.2.156-.384.192-1.116.192-1.092,0-1.26-.024-1.452-.18a1.051,1.051,0,0,1-.252-.84v-.144H21.924a3.018,3.018,0,0,0,.336,1.8c.4.636,1.092.828,3.048.828,1.608,0,2.244-.132,2.748-.6.384-.36.528-.9.528-1.932,0-1.056-.18-1.524-.7-1.86a4.105,4.105,0,0,0-2.136-.432,10.863,10.863,0,0,1-1.464-.12c-.36-.1-.5-.324-.5-.816,0-.768.264-.936,1.512-.936,1.128,0,1.308.144,1.308,1.056Z" transform="translate(1219.955 765.323)" fill="#003e86"/>
      <path id="Path_8181" data-name="Path 8181" d="M3.984-4.392v1.308h1.74c.012.12.024.24.024.264,0,1.1-.3,1.332-1.728,1.332-.972,0-1.4-.144-1.572-.54-.144-.324-.144-.336-.168-2.1.012-1.464.024-1.524.18-1.836.2-.42.612-.552,1.656-.552,1.3,0,1.5.132,1.572.96H7.56c-.036-1.2-.264-1.8-.828-2.124A4.347,4.347,0,0,0,4.3-8.064a8.506,8.506,0,0,0-2.088.156A2.172,2.172,0,0,0,.624-6.432,10.823,10.823,0,0,0,.4-3.252c0,1.788.4,2.616,1.44,3.06A5.408,5.408,0,0,0,3.984.06C5.868.06,6.528-.084,7.02-.6c.432-.468.564-.972.564-2.208,0-.564-.012-1.092-.024-1.584Zm6.48-2.088h3.792V-8H8.616V0H14.3V-1.524h-3.84v-1.9h3.564V-4.728H10.464Zm8.58.072h2.268V-8H15.036v1.6H17.2V0h1.848Zm9.432,0h2.268V-8H24.468v1.6h2.16V0h1.848ZM38.46-8H36.612V-4.86h-3.24V-8H31.524V0h1.848V-3.276h3.24V0H38.46Zm3.2,1.524h3.792V-8h-5.64V0H45.5V-1.524h-3.84v-1.9h3.564V-4.728H41.664Z" transform="translate(1211.389 776.562)" fill="#003e86"/>
    </g>
    <path id="Path_8178" data-name="Path 8178" d="M-166.292,0h4.312V-5.572h4.368c1.708-.056,2.492.784,2.436,2.66V0h4.368V-3.724c.028-2.3-1.064-3.528-3.276-3.668v-.14c2.856-.644,3.444-1.6,3.444-5.488,0-2.772-.644-4.2-2.3-5.012a9.072,9.072,0,0,0-4.06-.644h-9.3Zm4.312-9.24v-5.74h4.48c2.072,0,2.464.448,2.464,2.688,0,2.492-.448,3.052-2.464,3.052Zm18.144-5.88h8.848v-3.556h-13.16V0h13.272V-3.556h-8.96V-7.98h8.316v-3.052h-8.316ZM-132.272,0h4.312V-5.4h3.556c2.212-.056,2.8-.056,2.968-.084a4.823,4.823,0,0,0,2.968-1.092c1.092-.9,1.568-2.492,1.568-5.32,0-2.38-.224-3.584-.9-4.676a4.885,4.885,0,0,0-4.032-2.072c-.616-.028-.616-.028-3.024-.028h-7.42Zm4.312-9.128V-15.12h3.78a4.31,4.31,0,0,1,1.848.2c.812.336,1.036.98,1.036,2.884,0,2.548-.392,2.912-3.08,2.912Zm17.36-9.548h-4.312V0h12.572V-3.724h-8.26ZM-88.508-3.388-87.444,0h4.424l-5.992-18.676H-95.48L-101.388,0h4.48l1.036-3.388Zm-.9-3.164H-94.92l2.744-8.876ZM-70.56-6.86V-6.5a3.657,3.657,0,0,1-.252,1.9c-.364.756-1.288,1.036-3.388,1.036-1.988,0-2.828-.252-3.248-1.008-.42-.728-.5-1.4-.5-4.62,0-3.976.084-4.592.672-5.208.5-.5,1.372-.7,3.22-.7,1.96,0,2.688.2,3.052.84.224.42.28.7.308,2.044h4.284a18.38,18.38,0,0,0-.2-2.828,3.854,3.854,0,0,0-2.268-3.192c-1.036-.476-1.9-.588-4.508-.588-4.452,0-5.88.336-7.336,1.736-1.26,1.2-1.68,2.744-1.68,6.216,0,2.6.112,5.068.252,6.272A5.294,5.294,0,0,0-80.36-1.176C-78.988-.084-77.98.14-74.424.14a31.494,31.494,0,0,0,4.06-.168,5.742,5.742,0,0,0,2.6-1.2C-66.612-2.24-66.3-3.276-66.3-6.272V-6.86Zm10.724-8.26h8.848v-3.556h-13.16V0h13.272V-3.556h-8.96V-7.98h8.316v-3.052h-8.316Zm34.776-3.556h-4.984l-2.268,4.256c-.364.644-.532,1.008-1.26,2.464l-.42.84H-34.1l-.392-.84c-.756-1.54-.952-1.932-1.232-2.464l-2.24-4.256H-42.9L-36.232-6.8V0h4.312V-6.8Zm9.016-.14a22.655,22.655,0,0,0-4.032.28,5.69,5.69,0,0,0-3.556,2.184c-.924,1.316-1.148,2.912-1.148,7.784a22.966,22.966,0,0,0,.2,3.808A5.087,5.087,0,0,0-22.008-.784c1.176.672,2.6.924,5.544.924a23.119,23.119,0,0,0,4.032-.28A5.491,5.491,0,0,0-8.764-2.492c.812-1.372,1.008-2.632,1.008-6.86A26.548,26.548,0,0,0-7.98-14a5.092,5.092,0,0,0-3.108-4.172C-12.18-18.648-13.412-18.816-16.044-18.816Zm-.308,3.7c2.24,0,2.968.14,3.444.7.672.784.756,1.288.756,5.012,0,2.856-.056,3.528-.364,4.368-.448,1.176-1.148,1.484-3.472,1.484-2.408,0-3.192-.14-3.668-.7-.588-.7-.728-1.512-.728-4.508,0-4.368.112-5.04.868-5.712C-18.956-14.98-18.312-15.12-16.352-15.12Zm22.68-3.556V-6.468c0,2.52-.476,2.912-3.5,2.912-3.248,0-3.78-.364-3.78-2.716v-12.4H-5.264v12.4c0,3.5.588,4.844,2.6,5.712,1.148.532,2.52.7,5.4.7C5.88.14,7.028-.028,8.232-.672a4.233,4.233,0,0,0,2.24-3.36c.084-.588.168-2.044.168-2.548v-12.1ZM13.748,0H18.06V-5.572h4.368c1.708-.056,2.492.784,2.436,2.66V0h4.368V-3.724c.028-2.3-1.064-3.528-3.276-3.668v-.14c2.856-.644,3.444-1.6,3.444-5.488,0-2.772-.644-4.2-2.3-5.012a9.072,9.072,0,0,0-4.06-.644h-9.3ZM18.06-9.24v-5.74h4.48c2.072,0,2.464.448,2.464,2.688C25-9.8,24.556-9.24,22.54-9.24Zm29.12-9.576a22.655,22.655,0,0,0-4.032.28,5.69,5.69,0,0,0-3.556,2.184c-.924,1.316-1.148,2.912-1.148,7.784a22.966,22.966,0,0,0,.2,3.808A5.087,5.087,0,0,0,41.216-.784c1.176.672,2.6.924,5.544.924a23.119,23.119,0,0,0,4.032-.28A5.491,5.491,0,0,0,54.46-2.492c.812-1.372,1.008-2.632,1.008-6.86A26.548,26.548,0,0,0,55.244-14a5.092,5.092,0,0,0-3.108-4.172C51.044-18.648,49.812-18.816,47.18-18.816Zm-.308,3.7c2.24,0,2.968.14,3.444.7.672.784.756,1.288.756,5.012,0,2.856-.056,3.528-.364,4.368-.448,1.176-1.148,1.484-3.472,1.484-2.408,0-3.192-.14-3.668-.7-.588-.7-.728-1.512-.728-4.508,0-4.368.112-5.04.868-5.712C44.268-14.98,44.912-15.12,46.872-15.12ZM62.3-18.676H57.988V0H70.56V-3.724H62.3ZM72.324,0h9.408c3.556,0,5.46-.924,6.5-3.108.588-1.288.728-2.856.728-8.2,0-5.208-2.1-7.364-7.14-7.364H72.324Zm4.312-3.7V-14.924h4.648c1.456,0,2.212.28,2.66.98.476.7.616,1.764.616,4.452,0,2.884-.14,3.92-.644,4.7S82.656-3.7,81.172-3.7ZM98.476,0h4.312V-5.572h4.368c1.708-.056,2.492.784,2.436,2.66V0h4.368V-3.724c.028-2.3-1.064-3.528-3.276-3.668v-.14c2.856-.644,3.444-1.6,3.444-5.488,0-2.772-.644-4.2-2.3-5.012a9.072,9.072,0,0,0-4.06-.644h-9.3Zm4.312-9.24v-5.74h4.48c2.072,0,2.464.448,2.464,2.688,0,2.492-.448,3.052-2.464,3.052ZM124.8-18.816a22.655,22.655,0,0,0-4.032.28,5.69,5.69,0,0,0-3.556,2.184c-.924,1.316-1.148,2.912-1.148,7.784a22.966,22.966,0,0,0,.2,3.808,5.087,5.087,0,0,0,2.576,3.976c1.176.672,2.6.924,5.544.924a23.119,23.119,0,0,0,4.032-.28,5.491,5.491,0,0,0,3.668-2.352c.812-1.372,1.008-2.632,1.008-6.86A26.548,26.548,0,0,0,132.86-14a5.092,5.092,0,0,0-3.108-4.172C128.66-18.648,127.428-18.816,124.8-18.816Zm-.308,3.7c2.24,0,2.968.14,3.444.7.672.784.756,1.288.756,5.012,0,2.856-.056,3.528-.364,4.368-.448,1.176-1.148,1.484-3.472,1.484-2.408,0-3.192-.14-3.668-.7-.588-.7-.728-1.512-.728-4.508,0-4.368.112-5.04.868-5.712C121.884-14.98,122.528-15.12,124.488-15.12Zm19.208-3.7a22.655,22.655,0,0,0-4.032.28,5.69,5.69,0,0,0-3.556,2.184c-.924,1.316-1.148,2.912-1.148,7.784a22.966,22.966,0,0,0,.2,3.808,5.087,5.087,0,0,0,2.576,3.976c1.176.672,2.6.924,5.544.924a23.119,23.119,0,0,0,4.032-.28,5.491,5.491,0,0,0,3.668-2.352c.812-1.372,1.008-2.632,1.008-6.86A26.548,26.548,0,0,0,151.76-14a5.092,5.092,0,0,0-3.108-4.172C147.56-18.648,146.328-18.816,143.7-18.816Zm-.308,3.7c2.24,0,2.968.14,3.444.7.672.784.756,1.288.756,5.012,0,2.856-.056,3.528-.364,4.368-.448,1.176-1.148,1.484-3.472,1.484-2.408,0-3.192-.14-3.668-.7-.588-.7-.728-1.512-.728-4.508,0-4.368.112-5.04.868-5.712C140.784-14.98,141.428-15.12,143.388-15.12Zm15.428,0H167.3v-3.556H154.5V0h4.312V-7.224h7.952V-10.78h-7.952Z" transform="translate(1029 733)" fill="#0c4e97"/>
    <path id="Path_3340" data-name="Path 3340" d="M4686.471,119.109v10.066c0,1.859-.226,2.879-.792,3.627a3.735,3.735,0,0,1-1.975,1.292,14.433,14.433,0,0,1-3.513.272,10.119,10.119,0,0,1-4.123-.5c-1.632-.7-2.154-1.791-2.154-4.534V119.109h2.9v10.224c0,2.2.453,2.539,3.4,2.539s3.356-.318,3.356-2.652V119.109Z" transform="translate(-3743.487 775.554)" fill="#fff"/>
    <path id="Path_3341" data-name="Path 3341" d="M4699.427,119.109h6.121c1.609,0,1.769,0,2.335.045a3.583,3.583,0,0,1,2.948,1.587,6.74,6.74,0,0,1,.681,3.651c0,2.81-.705,4.194-2.448,4.715-.613.2-.613.2-3.356.249h-3.377v4.874h-2.9Zm6.167,7.753c2.56,0,2.97-.34,2.97-2.517,0-1.677-.181-2.289-.77-2.607a4.1,4.1,0,0,0-1.907-.227h-3.556v5.35Z" transform="translate(-3753.79 775.554)" fill="#fff"/>
    <path id="Path_3342" data-name="Path 3342" d="M4737.467,134.23h-2.9V121.648h-4.376v-2.539h11.744v2.539h-4.467Z" transform="translate(-3766.211 775.554)" fill="#fff"/>
    <path id="Path_3343" data-name="Path 3343" d="M4762.577,119.38a4.156,4.156,0,0,1,2.426,3.468,22.614,22.614,0,0,1,.158,3.582c0,3.627-.133,4.625-.769,5.758a4.105,4.105,0,0,1-2.9,1.882,18.342,18.342,0,0,1-3.285.2c-2.245,0-3.379-.182-4.309-.681a4.066,4.066,0,0,1-2.086-3.309,21.264,21.264,0,0,1-.135-3.31c0-3.9.159-5.01.859-6.121a4.253,4.253,0,0,1,2.814-1.769,17.975,17.975,0,0,1,3.194-.2A10.233,10.233,0,0,1,4762.577,119.38Zm-7.956,7.821c0,2.652.112,3.333.656,3.967.433.5,1.113.612,3.425.612,2.223,0,2.833-.25,3.219-1.338.271-.748.295-1.133.295-3.967a16.122,16.122,0,0,0-.113-3.151,2.022,2.022,0,0,0-1.065-1.7,7.49,7.49,0,0,0-2.765-.25c-1.837,0-2.452.114-2.924.59-.5.475-.705,1.269-.728,2.765Z" transform="translate(-3774.887 775.646)" fill="#fff"/>
    <g id="Group_1105" data-name="Group 1105" transform="translate(814 753.537)">
      <g id="Group_1104" data-name="Group 1104" transform="translate(0 0)">
        <path id="Path_3327" data-name="Path 3327" d="M1265.8,40.446H916.617L961.585-115.8h345.5Z" transform="translate(-916.617 115.8)" fill="#ce0109"/>
        <g id="Group_1103" data-name="Group 1103" transform="translate(51.084 12.466)">
          <g id="Group_1102" data-name="Group 1102">
            <g id="Group_1098" data-name="Group 1098" transform="translate(58.257)">
              <path id="Path_3328" data-name="Path 3328" d="M1217.961-86.833h7.7v2.746h-7.7v7.1h-3.317V-94.27h11.429v2.747h-8.111Z" transform="translate(-1214.644 94.425)" fill="#fff"/>
              <path id="Path_3329" data-name="Path 3329" d="M1249.075-93.965A4.761,4.761,0,0,1,1251.847-90a26.216,26.216,0,0,1,.182,4.094c0,4.146-.156,5.287-.881,6.582a4.688,4.688,0,0,1-3.317,2.151,21.034,21.034,0,0,1-3.758.233c-2.565,0-3.861-.208-4.924-.777a4.651,4.651,0,0,1-2.384-3.783,24,24,0,0,1-.155-3.783c0-4.457.182-5.727.984-7a4.853,4.853,0,0,1,3.214-2.021,20.528,20.528,0,0,1,3.654-.233A11.73,11.73,0,0,1,1249.075-93.965Zm-9.1,8.94c0,3.032.13,3.809.752,4.535.492.57,1.27.7,3.913.7,2.539,0,3.239-.285,3.68-1.529.311-.855.336-1.3.336-4.535a18.5,18.5,0,0,0-.129-3.6,2.308,2.308,0,0,0-1.218-1.943,8.564,8.564,0,0,0-3.161-.285c-2.1,0-2.8.13-3.343.674-.57.544-.8,1.451-.83,3.161Z" transform="translate(-1223.733 94.535)" fill="#fff"/>
              <path id="Path_3330" data-name="Path 3330" d="M1267.108-94.27h8.5c4.172,0,5.6,1.3,5.6,5.157,0,3.446-.6,4.379-3.11,4.872v.13c1.97.1,2.955,1.27,2.928,3.369v3.758h-3.343V-80.1c.052-1.892-.752-2.695-2.591-2.643h-4.664v5.753h-3.317Zm7.956,8.707a3.065,3.065,0,0,0,2.1-.518c.543-.44.673-.959.673-2.436,0-2.436-.415-2.9-2.54-2.9h-4.871v5.856Z" transform="translate(-1236.352 94.425)" fill="#fff"/>
              <path id="Path_3331" data-name="Path 3331" d="M1316.335-82.323c0,2.254-.156,3.032-.7,3.835-.907,1.244-2.125,1.658-4.924,1.658-3.24,0-4.716-.6-5.365-2.151a9.883,9.883,0,0,1-.362-3.5c0-.414,0-.725.026-1.27h3.135v1.4c0,2.358.259,2.67,2.41,2.67,2.124,0,2.461-.415,2.461-3.058V-94.27h3.318Z" transform="translate(-1252.025 94.425)" fill="#fff"/>
              <path id="Path_3332" data-name="Path 3332" d="M1343.738-94.27v11.506c0,2.125-.258,3.291-.907,4.146a4.276,4.276,0,0,1-2.255,1.477,16.583,16.583,0,0,1-4.016.311c-2.54,0-3.706-.13-4.717-.57-1.866-.8-2.462-2.047-2.462-5.183V-94.27h3.317v11.687c0,2.514.518,2.9,3.888,2.9s3.835-.363,3.835-3.032V-94.27Z" transform="translate(-1262.12 94.425)" fill="#fff"/>
              <path id="Path_3333" data-name="Path 3333" d="M1367.876-89.326v-.311c0-1.892-.544-2.28-3.214-2.28-3.135,0-3.757.389-3.757,2.358,0,1.244.31,1.814,1.14,2.073a16,16,0,0,0,3.292.285c2.9.182,3.887.363,4.716.958,1.061.726,1.425,1.736,1.425,3.939,0,2.151-.311,3.317-1.062,4.069-1.037,1.011-2.359,1.3-5.96,1.3-3.136,0-4.2-.182-5.339-.855a3.285,3.285,0,0,1-1.373-2.125,12.787,12.787,0,0,1-.208-2.643h3.188a3.655,3.655,0,0,0,.363,2.177c.415.7.829.777,3.524.777,1.944,0,2.488-.078,2.979-.467.441-.311.623-.984.623-2.177,0-1.14-.259-1.684-.959-1.918-.415-.155-.415-.155-3.291-.337-2.954-.181-3.577-.285-4.458-.7-1.373-.674-1.917-1.918-1.917-4.3,0-2.047.44-3.317,1.374-3.991,1.062-.8,2.41-1.036,5.623-1.036,3.24,0,4.64.337,5.495,1.3a4.676,4.676,0,0,1,.984,3.291v.622Z" transform="translate(-1273.77 94.535)" fill="#fff"/>
              <path id="Path_3334" data-name="Path 3334" d="M1391.534-76.985h-3.317V-91.368h-5v-2.9h13.423v2.9h-5.1Z" transform="translate(-1284.395 94.425)" fill="#fff"/>
            </g>
            <g id="Group_1101" data-name="Group 1101" transform="translate(0 26.622)">
              <g id="Group_1099" data-name="Group 1099" transform="translate(205.438 16.578)">
                <path id="Path_3335" data-name="Path 3335" d="M1465.711-20.844h6.516c1.714,0,1.883,0,2.486.048a3.809,3.809,0,0,1,3.138,1.689,7.179,7.179,0,0,1,.724,3.885c0,2.993-.748,4.465-2.606,5.02-.652.217-.652.217-3.572.266h-3.6v5.189h-3.088Zm6.564,8.253c2.727,0,3.162-.362,3.162-2.678,0-1.786-.193-2.438-.821-2.775a4.331,4.331,0,0,0-2.027-.242h-3.79v5.7Z" transform="translate(-1465.711 20.844)" fill="#fff"/>
                <path id="Path_3336" data-name="Path 3336" d="M1493.871-14.111h7.506v2.269h-7.506v4.537h7.989v2.558h-11.078v-16.1h11.005v2.558h-7.916Z" transform="translate(-1476.085 20.844)" fill="#fff"/>
                <path id="Path_3337" data-name="Path 3337" d="M1513.548-20.844h7.915c3.886,0,5.212,1.206,5.212,4.8,0,3.21-.555,4.079-2.9,4.537v.121c1.835.1,2.751,1.182,2.727,3.137v3.5h-3.113v-2.9c.048-1.762-.7-2.51-2.414-2.462h-4.344v5.357h-3.089Zm7.408,8.109a2.852,2.852,0,0,0,1.955-.483c.507-.41.628-.893.628-2.269,0-2.268-.388-2.7-2.365-2.7h-4.537v5.455Z" transform="translate(-1485.505 20.844)" fill="#fff"/>
                <path id="Path_3338" data-name="Path 3338" d="M1484.511,30.883h-3.041V22.1c0-1.158.025-1.473.121-3.572l.047-1.182h-.1l-.363,1.11c-.676,2.1-.844,2.655-1.11,3.355l-3.547,9.074h-2.775l-3.572-9c-.313-.772-.482-1.279-1.158-3.354l-.362-1.11h-.1l.073,1.158c.1,2.027.12,2.534.12,3.524v8.785h-3.04v-16.1h4.971l2.872,7.457c.29.748.459,1.279,1.134,3.33l.362,1.134h.1l.363-1.11c.627-2.027.82-2.582,1.086-3.33l2.848-7.481h5.067Z" transform="translate(-1465.711 6.101)" fill="#fff"/>
                <path id="Path_3339" data-name="Path 3339" d="M1513.3,15.07a4.432,4.432,0,0,1,2.583,3.692,24.515,24.515,0,0,1,.169,3.813c0,3.861-.145,4.923-.82,6.13a4.366,4.366,0,0,1-3.09,2,19.558,19.558,0,0,1-3.5.217c-2.389,0-3.6-.193-4.586-.724a4.331,4.331,0,0,1-2.22-3.524,22.386,22.386,0,0,1-.145-3.523c0-4.151.169-5.333.918-6.516a4.516,4.516,0,0,1,2.991-1.882,19.056,19.056,0,0,1,3.4-.217A10.909,10.909,0,0,1,1513.3,15.07ZM1504.83,23.4c0,2.824.121,3.548.7,4.224.458.531,1.182.651,3.644.651,2.366,0,3.017-.265,3.427-1.423.289-.8.313-1.207.313-4.224a17.2,17.2,0,0,0-.12-3.354,2.15,2.15,0,0,0-1.135-1.81,7.982,7.982,0,0,0-2.944-.266c-1.954,0-2.606.121-3.113.628-.53.506-.748,1.351-.772,2.944Z" transform="translate(-1480.599 6.203)" fill="#fff"/>
                <path id="Path_3340-2" data-name="Path 3340" d="M1545.037,30.883h-5.189l-4.61-8.833c-.288-.6-.6-1.256-1.569-3.476l-.53-1.134h-.1l.024,1.038c.073,1.545.073,1.665.073,3.161v9.244H1530.1v-16.1h5.164l4.2,8.157c.6,1.206.8,1.617,1.882,3.934l.627,1.327h.1l-.024-1.038c-.073-1.5-.073-1.617-.073-3.113V14.786h3.065Z" transform="translate(-1492.353 6.101)" fill="#fff"/>
                <path id="Path_3341-2" data-name="Path 3341" d="M1566.087,30.883H1563V17.489h-4.658v-2.7h12.5v2.7h-4.754Z" transform="translate(-1504.039 6.101)" fill="#fff"/>
                <path id="Path_3342-2" data-name="Path 3342" d="M1596.1,30.883h-3.09V24h-7.458v6.878h-3.089v-16.1h3.089v6.589h7.458V14.786h3.09Z" transform="translate(-1514.02 6.101)" fill="#fff"/>
              </g>
              <g id="Group_1100" data-name="Group 1100">
                <path id="Path_3343-2" data-name="Path 3343" d="M1133.82-4.767h-5.331V-9.139c-9.276,0-13.222-3.038-13.222-10.289,0-.267,0-1.013.054-1.707h8.423v.64c.054,3.626.747,4.052,6.4,4.052,5.118,0,6.132-.053,6.985-.426,1.013-.48,1.492-1.546,1.492-3.306,0-2.826-.639-3.2-5.171-3.465-1.545-.107-3.092-.213-4.638-.373l-1.386-.053c-5.332-.373-7.784-1.066-9.6-2.772-1.547-1.439-2.132-3.465-2.132-7.3,0-6.024,1.279-8.53,5.064-10.023,1.6-.693,3.359-.906,7.731-1.066v-3.892h5.331v3.892c9.7.427,12.262,2.719,12.155,10.876h-8.05l-.053-.533c-.108-2.666-.587-2.879-7.358-2.879-3.624,0-4.318.053-5.118.586-.8.48-1.119,1.28-1.119,2.719,0,2.345.692,2.878,4,3.092l5.171.373c.64.053,3.092.266,4.532.426,4.105.48,6.025,1.333,7.517,3.252q1.759,2.319,1.76,6.718c0,4.958-1.386,8.37-4.052,9.916-1.866,1.066-3.465,1.333-9.383,1.6Z" transform="translate(-1115.267 49.123)" fill="#fff"/>
                <path id="Path_3344" data-name="Path 3344" d="M1203.131,22.177c.143,4,.571,5.573,1.572,7.144,1.429,2.286,3,2.572,12,2.572,8.144,0,10.86-.572,12.574-2.858,1.572-2.144,1.714-3.286,1.714-11.86V3.6h-.429c-2.572,8-6.144,10.145-17.432,10.145-26.863,0-33.436-5.573-33.436-28.006,0-12.145,2.285-19.147,7.43-23.719,6.144-5.144,13.146-6.859,29.006-6.859,22.434,0,30.578,3,35.436,13.288,3,6.144,3.858,12,3.858,27.149,0,25.577-.143,29.149-1.286,35.294a23.785,23.785,0,0,1-13.289,17.861c-4.572,2-13.288,3.144-25.29,3.144-11.432,0-17.147-.572-22.149-2.429-8.43-3-12.431-8.144-13.86-17.146-.429-2.858-.429-4.43-.571-10.145Zm.858-37.294c0,8.859,1.429,9.859,15.288,9.859,9.574,0,12-1.858,12-9,0-9.145-1.715-10.717-12.288-10.717C1205.846-24.977,1203.989-23.833,1203.989-15.117Z" transform="translate(-1141.631 47.35)" fill="#fff"/>
                <path id="Path_3345" data-name="Path 3345" d="M1340.851,22.177c.143,4,.571,5.573,1.572,7.144,1.43,2.286,3,2.572,12,2.572,8.144,0,10.86-.572,12.574-2.858,1.572-2.144,1.715-3.286,1.715-11.86V3.6h-.429c-2.572,8-6.144,10.145-17.432,10.145-26.863,0-33.436-5.573-33.436-28.006,0-12.145,2.286-19.147,7.43-23.719,6.144-5.144,13.145-6.859,29.006-6.859,22.433,0,30.578,3,35.436,13.288,3,6.144,3.858,12,3.858,27.149,0,25.577-.143,29.149-1.286,35.294a23.786,23.786,0,0,1-13.288,17.861c-4.573,2-13.289,3.144-25.292,3.144-11.431,0-17.147-.572-22.148-2.429-8.429-3-12.431-8.144-13.859-17.146-.429-2.858-.429-4.43-.572-10.145Zm.858-37.294c0,8.859,1.429,9.859,15.288,9.859,9.573,0,12-1.858,12-9,0-9.145-1.716-10.717-12.289-10.717C1343.565-24.977,1341.709-23.833,1341.709-15.117Z" transform="translate(-1198.617 47.35)" fill="#fff"/>
              </g>
            </g>
          </g>
          <path id="Line_35" data-name="Line 35" d="M83.976,1H0V-1H83.976Z" transform="translate(205.215 35.498)" fill="#fff"/>
          <path id="Path_6799" data-name="Path 6799" d="M83.976,1H0V-1H83.976Z" transform="translate(205.183 87.045)" fill="#fff"/>
        </g>
      </g>
    </g>
    <path id="Path_8179" data-name="Path 8179" d="M2.792-6.592a.141.141,0,0,1-.16.16h-2a.057.057,0,0,0-.064.064v4.736a.057.057,0,0,0,.064.064h2a.141.141,0,0,1,.16.16v.576a.141.141,0,0,1-.16.16h-2a.057.057,0,0,0-.064.064V3.04a.141.141,0,0,1-.16.16H-.408a.141.141,0,0,1-.16-.16V-.608A.057.057,0,0,0-.632-.672h-2a.141.141,0,0,1-.16-.16v-.576a.141.141,0,0,1,.16-.16h2a.057.057,0,0,0,.064-.064V-6.368a.057.057,0,0,0-.064-.064h-2a.141.141,0,0,1-.16-.16v-.576a.141.141,0,0,1,.16-.16h2a.057.057,0,0,0,.064-.064V-11.04a.141.141,0,0,1,.16-.16H.408a.141.141,0,0,1,.16.16v3.648a.057.057,0,0,0,.064.064h2a.141.141,0,0,1,.16.16Z" transform="translate(1160.437 838.66)" fill="#fff"/>
    <path id="Path_8185" data-name="Path 8185" d="M-.624-6.592a.141.141,0,0,1-.16.16h-2a.057.057,0,0,0-.064.064v4.736a.057.057,0,0,0,.064.064h2a.141.141,0,0,1,.16.16v.576a.141.141,0,0,1-.16.16h-2a.057.057,0,0,0-.064.064V3.04a.141.141,0,0,1-.16.16h-.816a.141.141,0,0,1-.16-.16V-.608a.057.057,0,0,0-.064-.064h-2a.141.141,0,0,1-.16-.16v-.576a.141.141,0,0,1,.16-.16h2a.057.057,0,0,0,.064-.064V-6.368a.057.057,0,0,0-.064-.064h-2a.141.141,0,0,1-.16-.16v-.576a.141.141,0,0,1,.16-.16h2a.057.057,0,0,0,.064-.064V-11.04a.141.141,0,0,1,.16-.16h.816a.141.141,0,0,1,.16.16v3.648a.057.057,0,0,0,.064.064h2a.141.141,0,0,1,.16.16Zm6.832,0a.141.141,0,0,1-.16.16h-2a.057.057,0,0,0-.064.064v4.736a.057.057,0,0,0,.064.064h2a.141.141,0,0,1,.16.16v.576a.141.141,0,0,1-.16.16h-2a.057.057,0,0,0-.064.064V3.04a.141.141,0,0,1-.16.16H3.008a.141.141,0,0,1-.16-.16V-.608a.057.057,0,0,0-.064-.064h-2a.141.141,0,0,1-.16-.16v-.576a.141.141,0,0,1,.16-.16h2a.057.057,0,0,0,.064-.064V-6.368a.057.057,0,0,0-.064-.064h-2a.141.141,0,0,1-.16-.16v-.576a.141.141,0,0,1,.16-.16h2a.057.057,0,0,0,.064-.064V-11.04a.141.141,0,0,1,.16-.16h.816a.141.141,0,0,1,.16.16v3.648a.057.057,0,0,0,.064.064h2a.141.141,0,0,1,.16.16Z" transform="translate(1442.437 817.66)" fill="#fff"/>
  </g>
</svg>
