<svg xmlns="http://www.w3.org/2000/svg" width="67.76" height="42.157" viewBox="0 0 67.76 42.157">
  <g id="Group_5352" data-name="Group 5352" transform="translate(-416.584 -903.849)">
    <g id="Group_5350" data-name="Group 5350" transform="translate(428.359 914.666)">
      <g id="Group_5351" data-name="Group 5351" transform="translate(0 0)">
        <path id="Path_8175" data-name="Path 8175" d="M40.169,47.289a2,2,0,0,1-1.477-3.348L65.451,14.6a2,2,0,0,1,2.907-.052l4.907,5.011V16.718a2,2,0,0,1,2-2h7.513a2,2,0,0,1,2,2V31.144L95.67,43.8a2,2,0,1,1-3.032,2.609L81.261,33.191a2,2,0,0,1-.484-1.3V18.718H77.264V24.46a2,2,0,0,1-3.429,1.4l-6.855-7L41.647,46.637A2,2,0,0,1,40.169,47.289Z" transform="translate(-40.169 -15.948)" fill="#ce0109"/>
      </g>
    </g>
    <path id="Icon_open-arrow-thick-left" data-name="Icon open-arrow-thick-left" d="M4.277,0,0,4.32,4.277,8.554V5.7l9.98.035V2.887l-9.98-.035Z" transform="translate(422.308 924.032) rotate(42)" fill="#0c4e97"/>
    <path id="Icon_open-arrow-thick-left-2" data-name="Icon open-arrow-thick-left" d="M4.277,0,0,4.32,4.277,8.554V5.7l9.98.035V2.887l-9.98-.035Z" transform="translate(429.31 917.03) rotate(42)" fill="#0c4e97"/>
    <path id="Icon_open-arrow-thick-left-3" data-name="Icon open-arrow-thick-left" d="M4.277,0,0,4.32,4.277,8.554V5.7l9.98.035V2.887l-9.98-.035Z" transform="translate(435.436 910.029) rotate(42)" fill="#0c4e97"/>
    <path id="Icon_open-arrow-thick-left-4" data-name="Icon open-arrow-thick-left" d="M4.277,0,0,4.32,4.277,8.554V5.7l9.98.035V2.887l-9.98-.035Z" transform="translate(446.992 919.566) rotate(-140)" fill="#ce0109"/>
  </g>
</svg>
