<svg xmlns="http://www.w3.org/2000/svg" width="25" height="25" viewBox="0 0 25 25">
  <g id="Group_5396" data-name="Group 5396" transform="translate(-22 -4823)">
    <circle id="Ellipse_55" data-name="Ellipse 55" cx="12.5" cy="12.5" r="12.5" transform="translate(22 4823)" fill="#de007a"/>
    <path id="Path_9146" data-name="Path 9146" d="M5.126-2.794a.072.072,0,0,0-.022.088.089.089,0,0,0,.088.044h5.962a.255.255,0,0,1,.187.077.255.255,0,0,1,.077.187V-.264a.255.255,0,0,1-.077.187A.255.255,0,0,1,11.154,0h-9.9a.255.255,0,0,1-.187-.077A.255.255,0,0,1,.99-.264V-2.288a.448.448,0,0,1,.132-.33q1.078-1.056,2.2-2.3T4.73-6.468q.616-.726,1.254-1.386,2-2.222,2-3.3a1.626,1.626,0,0,0-.55-1.265,2.056,2.056,0,0,0-1.43-.5,2.056,2.056,0,0,0-1.43.5,1.676,1.676,0,0,0-.55,1.309v.55a.255.255,0,0,1-.077.187.255.255,0,0,1-.187.077h-2.6a.255.255,0,0,1-.187-.077A.255.255,0,0,1,.9-10.56v-1.034a3.781,3.781,0,0,1,.748-2.1,4.34,4.34,0,0,1,1.815-1.4,6.408,6.408,0,0,1,2.541-.484,5.959,5.959,0,0,1,2.717.583,4.395,4.395,0,0,1,1.782,1.573,4.027,4.027,0,0,1,.627,2.2,4.375,4.375,0,0,1-.462,1.892,10.461,10.461,0,0,1-1.386,2.09Q8.6-6.38,7.81-5.544T5.456-3.124Z" transform="translate(29 4843)" fill="#fff"/>
  </g>
</svg>
