<svg xmlns="http://www.w3.org/2000/svg" xmlns:xlink="http://www.w3.org/1999/xlink" width="302" height="79" viewBox="0 0 302 79">
  <defs>
    <clipPath id="clip-path">
      <rect id="Rectangle_579" data-name="Rectangle 579" width="302" height="79" transform="translate(360 427)" fill="#fff" stroke="#707070" stroke-width="1"/>
    </clipPath>
  </defs>
  <g id="Group_5356" data-name="Group 5356" transform="translate(-360 -427)">
    <g id="Mask_Group_45" data-name="Mask Group 45" clip-path="url(#clip-path)">
      <path id="Path_6765" data-name="Path 6765" d="M28.925,69.347V.5l256.53.514L315.03,69.186Z" transform="translate(330.997 433.341)" fill="#cc0109"/>
      <path id="Path_6766" data-name="Path 6766" d="M31,0H289.962l.167.385,29.963,69.066H31ZM289.123,1.278H32.279V68.173H318.144Z" transform="translate(326.909 433.362)" fill="#fffcff"/>
      <rect id="Rectangle_578" data-name="Rectangle 578" width="317.279" height="69.644" transform="translate(329.805 433.266)" fill="none"/>
    </g>
    <path id="Path_8178" data-name="Path 8178" d="M11.808-28.7c.48,0,.672.288.672.72v10.56c0,.528-.144.72-.672.72H8.4v-12Zm7.536-1.584c0-2.736-1.44-4.512-4.7-4.512H1.44V0H8.4V-11.088h.912L12.672,0h7.2L16.224-11.088a3.011,3.011,0,0,0,3.12-3.072ZM32.688-28.7c.48,0,.624.24.624.672V-6.816c0,.528-.1.72-.672.72H30c-.576,0-.672-.192-.672-.72V-28.032c0-.432.144-.672.624-.672Zm7.68-1.584c0-2.736-1.44-4.512-4.7-4.512h-8.64c-3.264,0-4.7,1.776-4.7,4.512V-4.944C22.32-2.3,23.424,0,27.312,0h8.064c3.888,0,4.992-2.3,4.992-4.944ZM53.616-28.7c.48,0,.624.24.624.672V-6.816c0,.528-.1.72-.672.72h-2.64c-.576,0-.672-.192-.672-.72V-28.032c0-.432.144-.672.624-.672Zm7.68-1.584c0-2.736-1.44-4.512-4.7-4.512h-8.64c-3.264,0-4.7,1.776-4.7,4.512V-4.944C43.248-2.3,44.352,0,48.24,0H56.3C60.192,0,61.3-2.3,61.3-4.944ZM64.176,0h7.152V-14.064h5.76v-6h-5.76V-28.32h7.584l-1.2-6.48H64.176Zm16.9,0h6.96V-34.8h-6.96Zm9.84,0h6.432V-14.544L101.088,0h7.152V-34.8h-7.152v13.968L97.536-34.8H90.912ZM111.12-5.376c0,3.84,1.44,5.376,5.424,5.376h12.144V-20.064H121.92V-6.336h-3.168c-.48,0-.624-.24-.624-.672v-20.64c0-.432.144-.672.624-.672h7.632l-1.2-6.48h-9.936c-2.736,0-4.128,1.68-4.128,4.224Z" transform="translate(475 485)" fill="#fff"/>
  </g>
</svg>
