<svg xmlns="http://www.w3.org/2000/svg" width="25" height="25" viewBox="0 0 25 25">
  <g id="Group_5399" data-name="Group 5399" transform="translate(-22 -4823)">
    <circle id="Ellipse_55" data-name="Ellipse 55" cx="12.5" cy="12.5" r="12.5" transform="translate(22 4823)" fill="#de007a"/>
    <path id="Path_9149" data-name="Path 9149" d="M10.8-7.018a7.125,7.125,0,0,1,.33,2.09A5.529,5.529,0,0,1,10.78-2.9,4.347,4.347,0,0,1,9-.671,5.388,5.388,0,0,1,6.006.154a5.362,5.362,0,0,1-2.937-.8A4.378,4.378,0,0,1,1.276-2.838a6.383,6.383,0,0,1-.33-1.21v-.044q0-.242.264-.242H3.872a.282.282,0,0,1,.286.242.782.782,0,0,0,.066.22,1.207,1.207,0,0,1,.066.154,1.849,1.849,0,0,0,.66.88,1.757,1.757,0,0,0,1.034.308,1.806,1.806,0,0,0,1.078-.33,1.919,1.919,0,0,0,.682-.924,2.564,2.564,0,0,0,.22-1.144,3.119,3.119,0,0,0-.2-1.144,1.479,1.479,0,0,0-.616-.88A1.9,1.9,0,0,0,6.072-7.26a2.364,2.364,0,0,0-1.144.286,1.443,1.443,0,0,0-.7.748.276.276,0,0,1-.286.22H1.232a.255.255,0,0,1-.187-.077A.255.255,0,0,1,.968-6.27v-8.866a.255.255,0,0,1,.077-.187.255.255,0,0,1,.187-.077h9.086a.255.255,0,0,1,.187.077.255.255,0,0,1,.077.187V-13a.255.255,0,0,1-.077.187.255.255,0,0,1-.187.077H4.18a.1.1,0,0,0-.11.11L4.048-9.372q0,.154.132.066a4.13,4.13,0,0,1,2.288-.638,4.7,4.7,0,0,1,2.7.781A4.218,4.218,0,0,1,10.8-7.018Z" transform="translate(29 4843)" fill="#fff"/>
  </g>
</svg>
