<svg xmlns="http://www.w3.org/2000/svg" width="47.636" height="41.844" viewBox="0 0 47.636 41.844">
  <g id="Group_5348" data-name="Group 5348" transform="translate(-196.077 -805.012)">
    <path id="Path_7068" data-name="Path 7068" d="M43.384,110.32c.122,0,1.475-.039,2.1.01v35.983c0,1-.016,2.233-.027,3.181a1.734,1.734,0,0,1-1.391,1.449,8.235,8.235,0,0,1-1.165,0H4.988c0-1.914.07-3.706.2-5.424A40.311,40.311,0,0,1,14.1,124.5a36.77,36.77,0,0,1,6.759-6.418,37.7,37.7,0,0,1,13.6-6.543,26.37,26.37,0,0,1,2.723-.58c.664-.114,1.339-.247,2.02-.329,1.356-.161,2.732-.282,4.174-.312" transform="translate(192.254 695.89)" fill="#d80029"/>
    <path id="Path_7069" data-name="Path 7069" d="M5.5,109.464a31.687,31.687,0,0,1,3.919-.09H34.273c2.718,0,5.482,0,8.208.05a38.362,38.362,0,0,0-9.685,1.682A40.555,40.555,0,0,0,5.42,138.681a42.391,42.391,0,0,0-1.335,7.753c-.029-2.812-.029-5.772-.029-8.633V114.036c0-1.014.029-3.208.029-3.208a1.881,1.881,0,0,1,1.42-1.364" transform="translate(192.021 695.654)" fill="#d80029"/>
    <path id="Path_7070" data-name="Path 7070" d="M35.778,127.258l.029.872a1.809,1.809,0,0,0-1.744.057.6.6,0,0,0-.1.6c.7,1.017,2.717,1.612,2.048,3.138a1.993,1.993,0,0,1-2.121.8,6.362,6.362,0,0,1-1.047-.175l-.072-.872a2.374,2.374,0,0,0,1.991.044.613.613,0,0,0,.1-.741c-.784-.959-2.775-1.744-1.946-3.24.639-.844,1.932-.654,2.862-.48" transform="translate(199.181 700.088)" fill="#fff"/>
    <path id="Path_7071" data-name="Path 7071" d="M19.289,127.17c.16,1.454.509,2.8.77,4.214a41.24,41.24,0,0,0,1.192-4.214h1.671c.319,1.424.711,2.833,1.147,4.214.35-1.381.584-2.835.846-4.214h1.322l-.219.552c-.362,1.627-.784,3.313-1.1,4.882H23.372c-.349-1.482-.857-2.906-1.294-4.359-.421,1.454-.959,2.863-1.294,4.359H19.217c-.261-1.8-.814-3.588-1.25-5.362l-.029-.072Z" transform="translate(195.489 700.103)" fill="#fff"/>
    <path id="Path_7072" data-name="Path 7072" d="M28.69,128.041,26.017,128l-.044,1.395.1.072a15.02,15.02,0,0,0,2.311-.072v.916a17.613,17.613,0,0,0-2.34-.072v1.54a22.445,22.445,0,0,0,2.645-.072l-.029.9H24.723a48.677,48.677,0,0,0,0-5.436h3.938Z" transform="translate(197.184 700.103)" fill="#fff"/>
    <path id="Path_7073" data-name="Path 7073" d="M29.738,127.17c.886,1.366,1.744,2.761,2.673,4.112l-.029-4.112H33.53l-.029,5.261.072.174h-1.54l-2.688-4.039-.029,4.039H28.2c.116-1.715.072-3.531.029-5.259l-.059-.175Z" transform="translate(198.045 700.103)" fill="#fff"/>
    <path id="Path_7074" data-name="Path 7074" d="M12.493,132.564l.029,1.075a3.859,3.859,0,0,0-3.11.146,2.415,2.415,0,0,0-.871,2.4A1.98,1.98,0,0,0,9.7,137.794a3.971,3.971,0,0,0,2.921-.044l-.072,1.12c-1.585.29-3.517.362-4.708-.872a3.371,3.371,0,0,1-.8-2.965A3.03,3.03,0,0,1,8.831,132.7a7.078,7.078,0,0,1,3.662-.131" transform="translate(192.754 701.407)" fill="#fff"/>
    <path id="Path_7075" data-name="Path 7075" d="M36.23,133.375a4.82,4.82,0,0,1,.044.915c-.959-.362-2.4-.566-3.241.175a1.993,1.993,0,0,0-.639,2.092,1.87,1.87,0,0,0,.871,1.149,2.968,2.968,0,0,0,2.092.072,15.716,15.716,0,0,0-.057-2.208h1.279a27.883,27.883,0,0,0-.057,2.935c-1.482.3-3.575.61-4.708-.669a2.81,2.81,0,0,1,1.976-4.664,8.917,8.917,0,0,1,2.441.2" transform="translate(198.787 701.6)" fill="#fff"/>
    <path id="Path_7076" data-name="Path 7076" d="M20.836,134.51a1.49,1.49,0,0,1-.8,1.439l-.625.2,1.816,2.485H19.891l-1.8-2.965a1.69,1.69,0,0,0,1.322-.246.972.972,0,0,0,.246-.974c-.334-.756-1.264-.349-1.917-.465l-.044,4.431a.306.306,0,0,1,.072.219H16.52a48.143,48.143,0,0,0,0-5.406c1.511.247,3.923-.712,4.316,1.279" transform="translate(195.135 701.613)" fill="#fff"/>
    <path id="Path_7077" data-name="Path 7077" d="M21.93,133.227c.945,1.351,1.774,2.746,2.721,4.112a25.537,25.537,0,0,0-.074-4.112h1.192l-.029,5.405H24.272c-.919-1.337-1.82-2.717-2.72-4.011a33.528,33.528,0,0,0,.029,4.011H20.432c.117-1.7.074-3.487.03-5.2l-.072-.2Z" transform="translate(196.102 701.617)" fill="#fff"/>
    <path id="Path_7078" data-name="Path 7078" d="M26.472,133.227c-.16,1.772,0,3.6,0,5.405H25.15a48.143,48.143,0,0,0,0-5.405Z" transform="translate(197.291 701.617)" fill="#fff"/>
    <path id="Path_7079" data-name="Path 7079" d="M30.837,137.339l-.029-4.112H32a41.942,41.942,0,0,0,0,5.405H30.46l-2.688-4.011a33.52,33.52,0,0,0,.044,4.011H26.623a47.556,47.556,0,0,0,0-5.405h1.541Z" transform="translate(197.659 701.617)" fill="#fff"/>
    <path id="Path_7080" data-name="Path 7080" d="M19.183,128.117a3.345,3.345,0,0,0-2.485-1.772,4.22,4.22,0,0,0-3.908,1.119,3.859,3.859,0,0,0-.48,3.517,3.435,3.435,0,0,0,3.313,2.063,3.569,3.569,0,0,0,3.516-1.787,4.332,4.332,0,0,0,.044-3.14m-1.511,2.892a2.2,2.2,0,0,1-2.325.945,1.91,1.91,0,0,1-1.54-1.12,3.049,3.049,0,0,1,.1-2.571,2.314,2.314,0,0,1,2.441-.916,2.234,2.234,0,0,1,1.366,1.017,3.018,3.018,0,0,1-.044,2.645" transform="translate(194.03 699.883)" fill="#fff"/>
    <path id="Path_7081" data-name="Path 7081" d="M17.271,134.67A2.753,2.753,0,0,0,15.28,133.2a3.766,3.766,0,0,0-3.313.872,3.252,3.252,0,0,0-.522,2.66,2.65,2.65,0,0,0,1.888,1.873,3.588,3.588,0,0,0,3.763-1.075,3.448,3.448,0,0,0,.175-2.862m-1.322,2.513a2.019,2.019,0,0,1-2.136.625,1.824,1.824,0,0,1-1.046-.9,2.434,2.434,0,0,1,.32-2.412,2.165,2.165,0,0,1,1.888-.45,1.67,1.67,0,0,1,1.046.77,2.452,2.452,0,0,1-.072,2.368" transform="translate(193.85 701.598)" fill="#fff"/>
    <path id="Path_7082" data-name="Path 7082" d="M41.012,137.612a1.938,1.938,0,1,0-1.943-1.945,1.939,1.939,0,0,0,1.943,1.945m0-.309a1.629,1.629,0,1,1,1.624-1.636,1.576,1.576,0,0,1-1.624,1.636m-.445-1.522h.475l.622.986h.321l-.66-.986c.386-.03.684-.19.684-.617,0-.4-.195-.614-.771-.614h-.954v2.217h.282Zm0-.256v-.717h.61c.267,0,.525.042.525.351,0,.417-.434.366-.742.366Z" transform="translate(200.768 701.744)" fill="#d80029"/>
  </g>
</svg>
