<svg xmlns="http://www.w3.org/2000/svg" width="20" height="20" viewBox="0 0 20 20">
  <g id="Icon_ionic-ios-arrow-dropright" data-name="Icon ionic-ios-arrow-dropright" transform="translate(-3.375 -3.375)">
    <path id="Path_9156" data-name="Path 9156" d="M14.71,10.235a1.124,1.124,0,0,1,1.419,0l4.959,4.292a.782.782,0,0,1,.031,1.193l-4.886,4.23a1.12,1.12,0,0,1-1.419,0,.784.784,0,0,1,0-1.225l4.153-3.638L14.71,11.455A.776.776,0,0,1,14.71,10.235Z" transform="translate(-3.782 -1.722)" fill="#fff"/>
    <path id="Path_9157" data-name="Path 9157" d="M3.375,13.375a10,10,0,1,0,10-10A10,10,0,0,0,3.375,13.375Zm1.538,0A8.458,8.458,0,0,1,19.356,7.394,8.458,8.458,0,1,1,7.394,19.356,8.389,8.389,0,0,1,4.913,13.375Z" fill="#fff"/>
  </g>
</svg>
