<svg xmlns="http://www.w3.org/2000/svg" width="257.574" height="198.009" viewBox="0 0 257.574 198.009">
  <g id="Group_6507" data-name="Group 6507" transform="translate(-406.713 -6725.86)">
    <g id="Group_6458" data-name="Group 6458" transform="translate(7564.713 -1178)">
      <g id="Rectangle_387" data-name="Rectangle 387" transform="translate(-7158 7912.361)" fill="#fff" stroke="#707070" stroke-width="1" stroke-dasharray="6">
        <rect width="257.574" height="177.913" rx="10" stroke="none"/>
        <rect x="0.5" y="0.5" width="256.574" height="176.913" rx="9.5" fill="none"/>
      </g>
      <g id="Group_1047" data-name="Group 1047" transform="translate(-7082 8078.088)">
        <rect id="Rectangle_375" data-name="Rectangle 375" width="104.639" height="23.782" rx="5" transform="translate(0 0)" fill="#e65b12"/>
        <path id="Path_10071" data-name="Path 10071" d="M-31.89-5.31v1.425h2.5c.015.18.03.36.03.4a2.365,2.365,0,0,1-.39,1.605c-.255.255-.81.36-1.905.36-1.56,0-2.115-.165-2.37-.72a7.74,7.74,0,0,1-.225-2.835,6.676,6.676,0,0,1,.24-2.7c.27-.555.78-.72,2.22-.72,2.07,0,2.31.15,2.37,1.485h1.935c-.03-1.5-.285-2.2-.96-2.61s-1.185-.48-3.24-.48a9.257,9.257,0,0,0-2.385.18A2.6,2.6,0,0,0-35.97-7.98a15.107,15.107,0,0,0-.225,3.945c0,2.31.435,3.27,1.725,3.81A6.436,6.436,0,0,0-31.9.09c2.37,0,3.165-.165,3.765-.795.54-.555.69-1.17.69-2.88,0-.855,0-1.215-.03-1.725Zm7.695-3.105h4.92v-1.59h-6.84V0h6.885V-1.59h-4.965V-4.41h4.665V-5.82h-4.665Zm10.59.09h2.955v-1.68h-7.77v1.68h2.895V0h1.92Zm11.9-1.77a11.877,11.877,0,0,0-2.115.135,2.809,2.809,0,0,0-1.86,1.17c-.465.735-.57,1.47-.57,4.05a13.938,13.938,0,0,0,.09,2.19A2.692,2.692,0,0,0-4.785-.36a5.84,5.84,0,0,0,2.85.45A12.2,12.2,0,0,0,.24-.045,2.715,2.715,0,0,0,2.16-1.29c.42-.75.51-1.41.51-3.81a15.192,15.192,0,0,0-.105-2.37A2.755,2.755,0,0,0,.96-9.765,6.786,6.786,0,0,0-1.71-10.095ZM-4.3-6.225c.015-.99.15-1.515.48-1.83.315-.315.72-.39,1.935-.39A4.961,4.961,0,0,1-.06-8.28a1.337,1.337,0,0,1,.7,1.125A10.664,10.664,0,0,1,.72-5.07,7.033,7.033,0,0,1,.525-2.445c-.255.72-.66.885-2.13.885-1.53,0-1.98-.075-2.265-.4-.36-.42-.435-.87-.435-2.625Zm10.32-2.19H10.71v-1.59H4.095V0h1.92V-4.11H10.47V-5.7H6.015Zm7.785,0h4.695v-1.59H11.88V0H13.8V-4.11h4.455V-5.7H13.8Zm7.785,0H26.5v-1.59h-6.84V0H26.55V-1.59H21.585V-4.41H26.25V-5.82H21.585ZM27.96,0h1.92V-3.33h2.7c1.065-.03,1.53.435,1.5,1.53V0h1.935V-2.175c.015-1.215-.555-1.89-1.695-1.95V-4.2c1.455-.285,1.8-.825,1.8-2.82,0-2.235-.825-2.985-3.24-2.985H27.96Zm1.92-4.965v-3.39H32.7c1.23,0,1.47.27,1.47,1.68,0,.855-.075,1.155-.39,1.41a1.773,1.773,0,0,1-1.215.3Z" transform="translate(49.879 16.369)" fill="#fff"/>
      </g>
      <g id="Group_6457" data-name="Group 6457" transform="translate(0.913)">
        <rect id="Rectangle_388" data-name="Rectangle 388" width="232.732" height="25.463" transform="translate(-7146.56 8000.088)" fill="#ce0109"/>
        <g id="Group_1049" data-name="Group 1049" transform="translate(-7032.24 7972.941)">
          <path id="Path_3215" data-name="Path 3215" d="M1624.231-2833.694h9.835v1.906h-9.835v9.29h-2.27v-20.184h12.377v1.967h-10.107Z" transform="translate(-1621.961 2842.682)" fill="#004c97"/>
          <path id="Path_3216" data-name="Path 3216" d="M1672.793-2833.876h10.228v1.906h-10.228v7.5h10.682v1.967h-12.952v-20.184h12.952v1.967h-10.682Z" transform="translate(-1655.725 2842.682)" fill="#004c97"/>
          <path id="Path_3217" data-name="Path 3217" d="M1722.66-2842.682h9.32c2.935,0,4.57.515,5.659,1.756,1.331,1.543,1.755,3.329,1.755,7.474,0,4.932-.212,6.6-1,8.05a4.81,4.81,0,0,1-3.45,2.572,11.722,11.722,0,0,1-2.391.333h-9.895Zm8.836,18.217c2.208,0,3.782-.453,4.479-1.27.877-1.089,1.15-2.572,1.15-6.446,0-4.872-.182-6.022-1.06-7.2-.726-.968-1.876-1.332-4.085-1.332h-7.05v16.25Z" transform="translate(-1691.975 2842.682)" fill="#004c97"/>
          <path id="Path_3218" data-name="Path 3218" d="M1790.078-2833.876h10.228v1.906h-10.228v7.5h10.682v1.967h-12.952v-20.184h12.952v1.967h-10.682Z" transform="translate(-1737.27 2842.682)" fill="#004c97"/>
          <path id="Path_3219" data-name="Path 3219" d="M1839.945-2842.682h9.593c4.327,0,5.9,1.544,5.9,5.811,0,3.661-.786,4.871-3.48,5.325v.03c2.088.121,3.238,1.513,3.208,3.9v5.114H1852.9v-4.6c.06-2.572-1.09-3.6-3.813-3.51h-6.869v8.11h-2.27Zm8.836,10.107c3.329,0,4.388-.877,4.388-3.6,0-2.088-.121-2.966-.545-3.541-.454-.666-1.453-1-3.056-1h-7.353v8.14Z" transform="translate(-1773.52 2842.682)" fill="#004c97"/>
          <path id="Path_3220" data-name="Path 3220" d="M1901.41-2826.765l-1.544,4.267h-2.421l7.384-20.184h3.208l7.535,20.184h-2.39l-1.573-4.267Zm5.053-14.071-4.418,12.256h8.9Z" transform="translate(-1813.498 2842.682)" fill="#004c97"/>
          <path id="Path_3221" data-name="Path 3221" d="M1965.953-2824.616h10.38v2.118h-12.649v-20.184h2.27Z" transform="translate(-1859.551 2842.682)" fill="#004c97"/>
        </g>
        <g id="Group_1050" data-name="Group 1050" transform="translate(-7145.773 7946.465)">
          <path id="Path_3222" data-name="Path 3222" d="M1285.842-2882.907h-36.453v-10.485c-.069-6.18,1.458-9.512,5.138-11.456,1.875-.972,4.721-1.805,14.442-4.1,4.375-.972,5-1.736,5-5.971,0-4.375-.833-4.93-7.012-4.93-3.125,0-4.1.278-4.861,1.25-.833,1.25-.972,1.945-1.041,6.18H1249.6c-.07-.9-.07-2.222-.07-2.291,0-6.11.695-8.61,3.263-11.04,2.778-2.778,6.874-3.819,14.582-3.819,8.332,0,12.359,1.042,15.206,3.958,2.222,2.222,3.194,5.693,3.194,11.109,0,6.943-1.666,10.484-5.9,12.359a90.178,90.178,0,0,1-14.3,4.027c-3.61.833-4.444,1.667-4.513,4.583v.972h24.788Z" transform="translate(-1249.386 2929.567)" fill="#004c97"/>
          <path id="Path_3223" data-name="Path 3223" d="M1407.12-2915.055c-.069-4.166-.764-4.721-5.9-4.721-4.652,0-5.833.277-6.666,1.458-.833,1.111-.972,2.083-.972,5.485v6.735h.208c1.388-4.1,2.777-4.86,8.54-4.86,5.346,0,8.61.416,10.693,1.388,4.027,1.805,5.624,5.278,5.624,12.082,0,5-.833,8.123-2.777,10.554-2.708,3.333-6.318,4.374-15.206,4.374-10.693,0-14.72-1.528-17.012-6.388-1.528-3.194-1.875-5.9-1.875-13.886,0-11.387.208-14.859,1.042-18.053,1.041-4.1,4.027-6.875,8.609-8.055,1.944-.486,4.1-.625,8.471-.625,8.818,0,11.734.486,14.79,2.569,3.125,2.013,4.3,5.416,4.3,11.943Zm-13.54,17.775c0,4.444.9,5.138,6.319,5.138,6.041,0,6.944-.625,6.944-4.861,0-4.166-.625-4.652-5.972-4.652C1394.414-2901.654,1393.581-2901.168,1393.581-2897.28Z" transform="translate(-1341.434 2929.567)" fill="#004c97"/>
        </g>
        <g id="Group_1052" data-name="Group 1052" transform="translate(-7062.673 7973.244)">
          <path id="Path_3233" data-name="Path 3233" d="M1529.311-2841.067c.825.737,1.032,1.444,1.032,3.536,0,2.712-.03,3.125-.3,3.862-.53,1.473-1.356,1.857-3.95,1.857-1.827,0-2.564-.206-3.213-.884a3.406,3.406,0,0,1-.707-1.622,15.1,15.1,0,0,1-.089-3.036c0-2.152.118-2.711.737-3.39.708-.8,1.3-.943,3.39-.943C1528.191-2841.686,1528.722-2841.569,1529.311-2841.067Zm-4.628,5.187c0,1.739.089,1.857,1.592,1.857,1.415,0,1.415,0,1.5-2.948,0-2.063,0-2.092-.354-2.329-.206-.176-.5-.206-1.444-.206-1.238,0-1.3.118-1.3,2.565Zm3.773,13.883H1526.1l11.613-19.66h2.358Zm14.59-9.226c.825.737,1.032,1.445,1.032,3.538,0,2.711-.029,3.124-.295,3.861-.53,1.474-1.356,1.857-3.95,1.857-1.827,0-2.535-.206-3.183-.884a3.4,3.4,0,0,1-.708-1.621,15.128,15.128,0,0,1-.089-3.036c0-2.152.118-2.712.737-3.389.708-.8,1.3-.944,3.39-.944C1541.926-2831.842,1542.457-2831.723,1543.046-2831.223Zm-4.6,5.188c0,1.739.089,1.857,1.562,1.857,1.415,0,1.415,0,1.5-2.948,0-2.063-.03-2.093-.353-2.329-.207-.177-.5-.206-1.416-.206-1.238,0-1.3.118-1.3,2.565Z" transform="translate(-1522.09 2841.686)" fill="#004c97"/>
        </g>
        <g id="Group_1053" data-name="Group 1053" transform="translate(-7137.004 8004.806)">
          <path id="Path_3234" data-name="Path 3234" d="M1287.608-2741.2c0-1.841-.364-2.131-2.64-2.131-2.519,0-3.052.339-3.052,1.889,0,.993.291,1.454,1.017,1.647a21.889,21.889,0,0,0,2.955.242c2.592.145,3.488.339,4.312.872,1.042.678,1.4,1.622,1.4,3.754,0,2.083-.29,3.173-1.065,3.9-1.017.945-2.3,1.211-5.546,1.211-3.948,0-5.353-.388-6.152-1.672-.509-.775-.678-1.623-.678-3.633h3.56v.29a2.124,2.124,0,0,0,.508,1.7c.388.315.727.363,2.931.363,1.478,0,1.841-.072,2.253-.388a1.959,1.959,0,0,0,.509-1.622c0-.7-.121-1.139-.436-1.356-.387-.315-.387-.315-3.318-.509-2.64-.17-3.391-.291-4.214-.7-1.26-.63-1.768-1.816-1.768-4.117,0-1.938.411-3.125,1.308-3.778,1.042-.727,2.349-.969,5.352-.969,3.294,0,4.626.315,5.45,1.284a4.577,4.577,0,0,1,.9,3.076c0,.1,0,.387-.025.654Z" transform="translate(-1278.162 2746.218)" fill="#fff"/>
          <path id="Path_3235" data-name="Path 3235" d="M1341.592-2745.66a4.4,4.4,0,0,1,2.688,3.609,22.893,22.893,0,0,1,.194,4.021c0,3.657-.17,4.747-.872,5.934a4.751,4.751,0,0,1-3.173,2.035,20.02,20.02,0,0,1-3.488.242c-2.543,0-3.778-.219-4.8-.8a4.4,4.4,0,0,1-2.228-3.439,19.922,19.922,0,0,1-.169-3.294c0-4.214.194-5.6.993-6.733a4.923,4.923,0,0,1,3.076-1.889,19.606,19.606,0,0,1,3.488-.242A10.352,10.352,0,0,1,1341.592-2745.66Zm-7.29,3.2c-.654.581-.751,1.163-.751,4.941,0,2.591.122,3.294.63,3.9.412.484,1.09.605,3.173.605,2.01,0,2.616-.267,3-1.284.266-.726.315-1.308.315-3.778,0-3.221-.073-3.657-.654-4.335-.412-.484-1.042-.606-2.979-.606C1335.343-2743.021,1334.786-2742.9,1334.3-2742.463Z" transform="translate(-1314.029 2746.218)" fill="#fff"/>
          <path id="Path_3236" data-name="Path 3236" d="M1391.343-2732.886h7.145v3.221h-10.875v-16.155h3.73Z" transform="translate(-1354.26 2745.941)" fill="#fff"/>
          <path id="Path_3237" data-name="Path 3237" d="M1433.16-2732.6l-.9,2.931h-3.876l5.111-16.155h5.6l5.183,16.155h-3.827l-.92-2.931Zm3.2-10.415-2.373,7.678h4.771Z" transform="translate(-1382.61 2745.941)" fill="#fff"/>
          <path id="Path_3238" data-name="Path 3238" d="M1487.05-2745.82h8.042a7.846,7.846,0,0,1,3.512.557c1.429.7,1.986,1.938,1.986,4.335,0,3.367-.508,4.19-2.979,4.747v.121c1.914.121,2.858,1.187,2.834,3.173v3.221h-3.778v-2.519c.048-1.623-.629-2.349-2.107-2.3h-3.778v4.82h-3.73Zm7.6,8.163c1.744,0,2.132-.485,2.132-2.64,0-1.938-.339-2.326-2.132-2.326h-3.875v4.966Z" transform="translate(-1423.396 2745.941)" fill="#fff"/>
          <path id="Path_3239" data-name="Path 3239" d="M1568.73-2731.941h-4.578v-2.979h4.578v-4.7h3.246v4.7h4.553v2.979h-4.553v4.7h-3.246Z" transform="translate(-1477.003 2741.629)" fill="#fff"/>
          <path id="Path_3240" data-name="Path 3240" d="M1638.791-2745.82h8.38a6.54,6.54,0,0,1,3.222.557c1.09.606,1.6,1.792,1.6,3.706,0,1.55-.267,2.349-.945,2.907a3.106,3.106,0,0,1-1.575.678v.073c2.156.266,2.858,1.187,2.858,3.827,0,3.294-1.235,4.408-4.917,4.408h-8.622Zm6.975,6.613c1.477-.024,1.6-.049,1.914-.242.435-.242.605-.727.605-1.622,0-1.381-.339-1.672-1.841-1.672h-3.923v3.537Zm-.121,6.467c2.519,0,2.979-.291,2.979-1.841,0-1.114-.194-1.6-.751-1.841-.315-.121-.387-.121-1.817-.145h-3.535v3.827Z" transform="translate(-1528.898 2745.941)" fill="#fff"/>
          <path id="Path_3241" data-name="Path 3241" d="M1692.523-2732.6l-.9,2.931h-3.875l5.111-16.155h5.595l5.184,16.155h-3.827l-.921-2.931Zm3.2-10.415-2.374,7.678h4.771Z" transform="translate(-1562.939 2745.941)" fill="#fff"/>
          <path id="Path_3242" data-name="Path 3242" d="M1746.316-2729.665h-3.73V-2742.6h-4.36v-3.221h12.668v3.221h-4.578Z" transform="translate(-1598.033 2745.941)" fill="#fff"/>
          <path id="Path_3243" data-name="Path 3243" d="M1793.373-2729.665h-3.73V-2742.6h-4.36v-3.221h12.667v3.221h-4.578Z" transform="translate(-1630.75 2745.941)" fill="#fff"/>
          <path id="Path_3244" data-name="Path 3244" d="M1838.054-2739.208h7.194v2.64h-7.194v3.827h7.751v3.076h-11.481v-16.155h11.384v3.076h-7.654Z" transform="translate(-1664.847 2745.941)" fill="#fff"/>
          <path id="Path_3245" data-name="Path 3245" d="M1881.777-2745.82h8.041a7.85,7.85,0,0,1,3.512.557c1.429.7,1.986,1.938,1.986,4.335,0,3.367-.509,4.19-2.979,4.747v.121c1.914.121,2.858,1.187,2.834,3.173v3.221h-3.779v-2.519c.049-1.623-.63-2.349-2.107-2.3h-3.779v4.82h-3.73Zm7.606,8.163c1.744,0,2.131-.485,2.131-2.64,0-1.938-.339-2.326-2.131-2.326h-3.876v4.966Z" transform="translate(-1697.84 2745.941)" fill="#fff"/>
          <path id="Path_3246" data-name="Path 3246" d="M1939.919-2735.55v5.885h-3.73v-5.885l-5.765-10.27h4.263l1.937,3.682c.242.46.412.8,1.066,2.132l.339.726h.1l.364-.726c.63-1.26.775-1.574,1.09-2.132l1.962-3.682h4.311Z" transform="translate(-1731.663 2745.941)" fill="#fff"/>
        </g>
        <g id="Group_1054" data-name="Group 1054" transform="translate(-7061.85 7949.914)">
          <path id="Path_3247" data-name="Path 3247" d="M1797.932-2902.347h58.247l5.837-15.9h-58.725Z" transform="translate(-1714.7 2918.248)" fill="#ce0109"/>
          <path id="Path_3248" data-name="Path 3248" d="M1763.583-2902.347h6.954l5.837-15.9h-7.432Z" transform="translate(-1690.818 2918.248)" fill="#ce0109"/>
          <path id="Path_3249" data-name="Path 3249" d="M1729.47-2902.347h6.954l5.838-15.9h-7.432Z" transform="translate(-1667.1 2918.248)" fill="#ce0109"/>
          <path id="Path_3250" data-name="Path 3250" d="M1695.358-2902.347h6.954l5.837-15.9h-7.432Z" transform="translate(-1643.383 2918.248)" fill="#ce0109"/>
          <path id="Path_3251" data-name="Path 3251" d="M1661.245-2902.347h6.954l5.837-15.9H1666.6Z" transform="translate(-1619.665 2918.248)" fill="#ce0109"/>
          <path id="Path_3252" data-name="Path 3252" d="M1627.132-2902.347h6.954l5.837-15.9h-7.432Z" transform="translate(-1595.947 2918.248)" fill="#ce0109"/>
          <path id="Path_3253" data-name="Path 3253" d="M1593.02-2902.347h6.954l5.837-15.9h-7.432Z" transform="translate(-1572.23 2918.248)" fill="#ce0109"/>
          <path id="Path_3254" data-name="Path 3254" d="M1558.907-2902.347h6.954l5.838-15.9h-7.432Z" transform="translate(-1548.512 2918.248)" fill="#ce0109"/>
          <path id="Path_3255" data-name="Path 3255" d="M1524.794-2902.347h6.954l5.837-15.9h-7.432Z" transform="translate(-1524.794 2918.248)" fill="#ce0109"/>
        </g>
        <g id="Group_6456" data-name="Group 6456" transform="translate(0 3)">
          <g id="Group_1051" data-name="Group 1051" transform="translate(-7146.913 8029.797)">
            <path id="Path_3224" data-name="Path 3224" d="M1259.747-2635.735h-7.252v-20.826h-6.848v-6.2h21.394v6.2h-7.293Z" transform="translate(-1245.646 2662.963)" fill="#004c97"/>
            <path id="Path_3225" data-name="Path 3225" d="M1321.613-2640.4l-1.3,4.66h-7.536l8.1-27.026h10.981l8.225,27.026h-7.374l-1.418-4.66Zm4.862-16.977-3.322,11.75h6.726Z" transform="translate(-1293.168 2662.963)" fill="#004c97"/>
            <path id="Path_3226" data-name="Path 3226" d="M1429.678-2649.633l8.022,13.9h-8.347l-2.674-5.47-1.337-2.715-.608-1.377-.648-1.378h-.122l-.649,1.378-.648,1.377-1.337,2.715-2.674,5.47h-8.509l8.1-13.9-7.577-13.128h8.388l2.471,4.944,1.215,2.512.567,1.215.568,1.256h.121l.567-1.256.608-1.215,1.216-2.512,2.471-4.944h8.388Z" transform="translate(-1362.092 2662.963)" fill="#004c97"/>
            <path id="Path_3227" data-name="Path 3227" d="M1567.227-2646.437v.811c-.04,4.659-.486,6.078-2.391,7.658a8.667,8.667,0,0,1-3.768,1.7,33.472,33.472,0,0,1-5.065.243c-4.943,0-6.119-.121-7.78-.891a7.6,7.6,0,0,1-4.336-5.632,67.543,67.543,0,0,1-.445-9.6c0-4.7.648-6.888,2.512-8.712,2.188-2.107,4.254-2.594,10.656-2.594,4.011,0,5.308.162,6.888.891,1.985.932,3.039,2.512,3.4,5.025a32.663,32.663,0,0,1,.2,3.97h-7.172c-.081-1.7-.122-1.985-.406-2.511-.486-.851-1.539-1.135-4.173-1.135-2.553,0-3.646.486-4.092,1.864-.324.932-.405,2.35-.405,7.982,0,4.255.81,5.145,4.74,5.145,3.566,0,4.5-.688,4.5-3.444a6.733,6.733,0,0,0-.041-.77Z" transform="translate(-1456.449 2663.454)" fill="#004c97"/>
            <path id="Path_3228" data-name="Path 3228" d="M1636.1-2662.761h13.655c3.889,0,5.632.365,7.212,1.58,1.742,1.3,2.391,3.2,2.391,6.848,0,3.93-.487,5.753-1.824,6.807a7.389,7.389,0,0,1-3.241,1.3v.284c3.322.161,4.944,1.945,4.862,5.267v4.943h-7.374v-3.606c.081-2.512-.892-3.647-3.039-3.565h-5.389v7.171H1636.1Zm13.007,13.737c2.391,0,2.836-.649,2.836-4.3,0-2.674-.527-3.241-3.2-3.241h-5.389v7.537Z" transform="translate(-1522.036 2662.963)" fill="#004c97"/>
            <path id="Path_3229" data-name="Path 3229" d="M1735.033-2651.943h11.507v4.984h-11.507v5.267h12.561v5.957h-19.813v-27.026h19.57v5.957h-12.318Z" transform="translate(-1586.937 2662.963)" fill="#004c97"/>
            <path id="Path_3230" data-name="Path 3230" d="M1808.228-2662.761h14.141a13.246,13.246,0,0,1,6.524,1.378c2.634,1.58,3.971,4.5,3.971,8.711l-.04,3.2c0,6.645-.243,8.144-1.743,10.414-1.661,2.39-4.335,3.322-9.116,3.322h-13.736Zm13.128,20.826c1.864,0,2.674-.4,3.363-1.579.567-.933.729-2.431.729-6.118,0-3.2-.2-4.741-.729-5.551-.567-.932-1.5-1.3-3.363-1.3h-5.875v14.546Z" transform="translate(-1643.883 2662.963)" fill="#004c97"/>
            <path id="Path_3231" data-name="Path 3231" d="M1911.88-2635.735h-7.253v-27.026h7.253Z" transform="translate(-1712.122 2662.963)" fill="#004c97"/>
            <path id="Path_3232" data-name="Path 3232" d="M1952.291-2635.735h-7.253v-20.826h-6.848v-6.2h21.394v6.2h-7.293Z" transform="translate(-1735.881 2662.963)" fill="#004c97"/>
          </g>
          <g id="Group_1056" data-name="Group 1056" transform="translate(-6921.275 8029.797)">
            <path id="Path_3256" data-name="Path 3256" d="M2019.587-2669.464l-1.992,2.622v.042l3.167-.419v1.426l-3.167-.377v.042l2.013,2.518-1.321.755-1.259-2.937h-.042l-1.363,2.957-1.2-.754,1.993-2.558v-.042l-3.1.4v-1.426l3.084.4v-.042l-1.972-2.559,1.279-.735,1.3,2.916h.042l1.279-2.936Z" transform="translate(-2013.316 2670.176)" fill="#004c97"/>
          </g>
        </g>
      </g>
      <g id="Group_3288" data-name="Group 3288" transform="translate(-8294 6522.861)">
        <rect id="Rectangle_592" data-name="Rectangle 592" width="181" height="17" transform="translate(1174 1381)" fill="#ce0109"/>
        <path id="Path_10070" data-name="Path 10070" d="M-76.784-6.136v-.312A2.345,2.345,0,0,0-77.278-8.1c-.429-.481-1.131-.65-2.756-.65s-2.288.117-2.821.52a2.3,2.3,0,0,0-.689,2c0,1.2.273,1.82.962,2.158a5.543,5.543,0,0,0,2.236.351,5.664,5.664,0,0,1,1.651.169c.351.117.481.39.481.962,0,.6-.091.936-.312,1.092-.247.195-.52.234-1.495.234-1.352,0-1.56-.039-1.768-.39a1.835,1.835,0,0,1-.182-1.092h-1.6a6.432,6.432,0,0,0,.1,1.326,1.649,1.649,0,0,0,.689,1.066A4.755,4.755,0,0,0-80.1.078c1.807,0,2.47-.143,2.99-.65a2.728,2.728,0,0,0,.533-2.041c0-1.105-.182-1.612-.715-1.976-.416-.3-.91-.39-2.366-.481a8.024,8.024,0,0,1-1.651-.143c-.416-.13-.572-.416-.572-1.04,0-.988.312-1.183,1.885-1.183,1.339,0,1.612.2,1.612,1.144v.156Zm5.031-2.613a10.294,10.294,0,0,0-1.833.117A2.434,2.434,0,0,0-75.2-7.618c-.4.637-.494,1.274-.494,3.51a12.081,12.081,0,0,0,.078,1.9,2.333,2.333,0,0,0,1.2,1.9,5.062,5.062,0,0,0,2.47.39,10.573,10.573,0,0,0,1.885-.117A2.353,2.353,0,0,0-68.4-1.118c.364-.65.442-1.222.442-3.3a13.166,13.166,0,0,0-.091-2.054,2.388,2.388,0,0,0-1.391-1.989A5.881,5.881,0,0,0-71.753-8.749ZM-74-5.395c.013-.858.13-1.313.416-1.586s.624-.338,1.677-.338a4.3,4.3,0,0,1,1.586.143,1.159,1.159,0,0,1,.611.975,9.241,9.241,0,0,1,.065,1.807,6.1,6.1,0,0,1-.169,2.275c-.221.624-.572.767-1.846.767-1.326,0-1.716-.065-1.963-.351C-73.937-2.067-74-2.457-74-3.978Zm8.944-3.276h-1.664V0h5.707V-1.456h-4.043Zm10.543,7.007L-53.956,0h1.7l-2.938-8.671h-2.457L-60.534,0h1.742l.533-1.664ZM-54.892-2.9h-2.977l1.482-4.5ZM-51.5,0h1.664V-2.886h2.34c.923-.026,1.326.377,1.3,1.326V0h1.677V-1.885c.013-1.053-.481-1.638-1.469-1.69V-3.64c1.261-.247,1.56-.715,1.56-2.444,0-1.937-.715-2.587-2.808-2.587H-51.5Zm1.664-4.3V-7.241h2.444c1.066,0,1.274.234,1.274,1.456,0,.741-.065,1-.338,1.222a1.537,1.537,0,0,1-1.053.26Zm15.665.13v1.157l-2.639-2.262c-.585-.494-.663-.637-.663-1.157,0-.728.234-.9,1.248-.9,1.1,0,1.248.143,1.248,1.17v.247h1.469v-.351c0-1.82-.6-2.327-2.756-2.327-2.093,0-2.743.507-2.743,2.119A1.624,1.624,0,0,0-38.291-4.9a1.832,1.832,0,0,0-1.014.325,2.27,2.27,0,0,0-.637,1.911,2.761,2.761,0,0,0,.689,2.171c.533.442,1.235.572,3.081.572,1.625,0,2.21-.208,2.665-.936l1.04.884.78-.949-1.248-1.053a7.521,7.521,0,0,0,.169-2.2Zm-.4,2.405c-.455.52-.611.559-1.963.559-1.612,0-1.846-.208-1.846-1.56,0-.975.195-1.261.962-1.378ZM-27.592,0h4.511c1.9,0,2.561-.624,2.561-2.379,0-1.391-.351-1.885-1.482-2.067v-.039c.936-.208,1.274-.715,1.274-1.911,0-1.053-.26-1.677-.832-2a3.648,3.648,0,0,0-1.755-.273h-4.277Zm1.664-5.031V-7.293h2.353a2.051,2.051,0,0,1,.806.091c.273.143.39.416.39.975,0,.6-.1.884-.377,1.04a2.306,2.306,0,0,1-1.157.156Zm0,3.653V-3.8h2.106a2.952,2.952,0,0,1,1.2.1c.338.156.455.455.455,1.144,0,1.04-.221,1.17-1.95,1.17Zm11.843-.286L-13.526,0h1.7l-2.938-8.671h-2.457L-20.1,0h1.742l.533-1.664ZM-14.462-2.9h-2.977l1.482-4.5Zm6.1-4.316H-5.8V-8.671h-6.734v1.456h2.509V0h1.664Zm7.267,0H1.463V-8.671H-5.271v1.456h2.509V0H-1.1Zm5.109-.078H8.275V-8.671H2.347V0H8.314V-1.378h-4.3V-3.822H8.054V-5.044H4.011ZM9.536,0H11.2V-2.886h2.34c.923-.026,1.326.377,1.3,1.326V0h1.677V-1.885c.013-1.053-.481-1.638-1.469-1.69V-3.64c1.261-.247,1.56-.715,1.56-2.444,0-1.937-.715-2.587-2.808-2.587H9.536ZM11.2-4.3V-7.241h2.444c1.066,0,1.274.234,1.274,1.456,0,.741-.065,1-.338,1.222a1.537,1.537,0,0,1-1.053.26ZM24.928-8.671H23L21.678-6.383c-.13.234-.234.4-.559,1.053l-.195.351h-.039L20.7-5.33c-.351-.676-.455-.871-.559-1.053L18.831-8.671h-1.9l3.12,5.356V0h1.664V-3.315ZM35.341-6.136v-.312A2.345,2.345,0,0,0,34.847-8.1c-.429-.481-1.131-.65-2.756-.65s-2.288.117-2.821.52a2.3,2.3,0,0,0-.689,2c0,1.2.273,1.82.962,2.158a5.543,5.543,0,0,0,2.236.351,5.664,5.664,0,0,1,1.651.169c.351.117.481.39.481.962,0,.6-.091.936-.312,1.092-.247.195-.52.234-1.495.234-1.352,0-1.56-.039-1.768-.39a1.835,1.835,0,0,1-.182-1.092h-1.6a6.432,6.432,0,0,0,.1,1.326,1.649,1.649,0,0,0,.689,1.066,4.755,4.755,0,0,0,2.678.429c1.807,0,2.47-.143,2.99-.65a2.728,2.728,0,0,0,.533-2.041c0-1.105-.182-1.612-.715-1.976-.416-.3-.91-.39-2.366-.481a8.024,8.024,0,0,1-1.651-.143c-.416-.13-.572-.416-.572-1.04,0-.988.312-1.183,1.885-1.183,1.339,0,1.612.2,1.612,1.144v.156Zm4.94-1.079h2.561V-8.671H36.108v1.456h2.509V0h1.664Zm7.111-1.534a10.294,10.294,0,0,0-1.833.117,2.434,2.434,0,0,0-1.612,1.014c-.4.637-.494,1.274-.494,3.51a12.08,12.08,0,0,0,.078,1.9,2.333,2.333,0,0,0,1.2,1.9,5.062,5.062,0,0,0,2.47.39,10.573,10.573,0,0,0,1.885-.117,2.353,2.353,0,0,0,1.664-1.079c.364-.65.442-1.222.442-3.3A13.167,13.167,0,0,0,51.1-6.474a2.388,2.388,0,0,0-1.391-1.989A5.881,5.881,0,0,0,47.392-8.749ZM45.143-5.395c.013-.858.13-1.313.416-1.586s.624-.338,1.677-.338a4.3,4.3,0,0,1,1.586.143,1.159,1.159,0,0,1,.611.975A9.241,9.241,0,0,1,49.5-4.394a6.1,6.1,0,0,1-.169,2.275c-.221.624-.572.767-1.846.767-1.326,0-1.716-.065-1.963-.351-.312-.364-.377-.754-.377-2.275ZM52.423,0h1.664V-2.886h2.34c.923-.026,1.326.377,1.3,1.326V0H59.4V-1.885c.013-1.053-.481-1.638-1.469-1.69V-3.64c1.261-.247,1.56-.715,1.56-2.444,0-1.937-.715-2.587-2.808-2.587H52.423Zm1.664-4.3V-7.241h2.444c1.066,0,1.274.234,1.274,1.456,0,.741-.065,1-.338,1.222a1.537,1.537,0,0,1-1.053.26Zm12.1,2.639L66.749,0h1.7L65.514-8.671H63.057L60.171,0h1.742l.533-1.664ZM65.813-2.9H62.836l1.482-4.5Zm6.734-1.7v1.235h2.171c.013.156.026.312.026.351a2.049,2.049,0,0,1-.338,1.391c-.221.221-.7.312-1.651.312-1.352,0-1.833-.143-2.054-.624a6.708,6.708,0,0,1-.195-2.457,5.786,5.786,0,0,1,.208-2.34c.234-.481.676-.624,1.924-.624,1.794,0,2,.13,2.054,1.287h1.677c-.026-1.3-.247-1.911-.832-2.262s-1.027-.416-2.808-.416a8.023,8.023,0,0,0-2.067.156,2.257,2.257,0,0,0-1.651,1.677A13.093,13.093,0,0,0,68.816-3.5c0,2,.377,2.834,1.495,3.3a5.578,5.578,0,0,0,2.223.273c2.054,0,2.743-.143,3.263-.689.468-.481.6-1.014.6-2.5,0-.741,0-1.053-.026-1.5Zm6.669-2.691h4.264V-8.671H77.551V0h5.967V-1.378h-4.3V-3.822h4.043V-5.044H79.215Z" transform="translate(1265 1394)" fill="#fff"/>
      </g>
    </g>
  </g>
</svg>
