
<svg version="1.1" id="Layer_1" xmlns="http://www.w3.org/2000/svg" xmlns:xlink="http://www.w3.org/1999/xlink" x="0px" y="0px"
	 viewBox="0 0 257.6 198" style="enable-background:new 0 0 257.6 198;" xml:space="preserve">
<style type="text/css">
	.st0{fill:#FFFFFF;}
	.st1{fill:#707070;}
	.st2{fill:#E65B12;}
	.st3{fill:#CE0109;}
	.st4{fill:#C91F0B;}
	.st5{fill:#0C4E97;}
	.st6{fill:#C91F0B;stroke:#FFFFFF;stroke-width:0.9726;stroke-miterlimit:10;}
	.st7{enable-background:new    ;}
</style>
<g id="Path_6782" transform="translate(1015 1604.361)">
	<path class="st0" d="M-1005-1595.9h237.6c5.5,0,10,4.5,10,10v157.9c0,5.5-4.5,10-10,10H-1005c-5.5,0-10-4.5-10-10v-157.9
		C-1015-1591.4-1010.5-1595.9-1005-1595.9z"/>
	<path class="st1" d="M-1005-1595.9h6v1h-6V-1595.9L-1005-1595.9z M-993-1595.9h6v1h-6V-1595.9z M-981-1595.9h6v1h-6V-1595.9z
		 M-969-1595.9h6v1h-6V-1595.9z M-957-1595.9h6v1h-6V-1595.9z M-945-1595.9h6v1h-6V-1595.9z M-933-1595.9h6v1h-6V-1595.9z
		 M-921-1595.9h6v1h-6V-1595.9z M-909-1595.9h6v1h-6V-1595.9z M-897-1595.9h6v1h-6V-1595.9z M-885-1595.9h6v1h-6V-1595.9z
		 M-873-1595.9h6v1h-6V-1595.9z M-861-1595.9h6v1h-6V-1595.9z M-849-1595.9h6v1h-6V-1595.9z M-837-1595.9h6v1h-6V-1595.9z
		 M-825-1595.9h6v1h-6V-1595.9z M-813-1595.9h6v1h-6V-1595.9z M-801-1595.9h6v1h-6V-1595.9z M-789-1595.9h6v1h-6V-1595.9z
		 M-777-1595.9h6v1h-6V-1595.9z M-765-1595.6C-765-1595.6-765-1595.6-765-1595.6C-765-1595.6-765-1595.6-765-1595.6
		C-765-1595.6-765-1595.6-765-1595.6C-765-1595.6-765-1595.6-765-1595.6C-765-1595.6-765-1595.6-765-1595.6
		C-765-1595.6-765-1595.6-765-1595.6C-764.9-1595.5-764.9-1595.5-765-1595.6c0.1,0,0.1,0,0.1,0c0,0,0,0,0,0c0,0,0,0,0,0c0,0,0,0,0,0
		c0,0,0,0,0,0c0,0,0,0,0,0c0,0,0,0,0,0c0,0,0,0,0,0c0,0,0,0,0,0c0,0,0,0,0,0c0,0,0,0,0,0c0,0,0,0,0,0c0,0,0,0,0,0c0,0,0,0,0,0
		c0,0,0,0,0,0c0,0,0,0,0,0c0,0,0,0,0,0c1.9,0.5,3.5,1.6,4.8,3l-0.7,0.7c-1.2-1.4-2.8-2.3-4.6-2.7L-765-1595.6L-765-1595.6z
		 M-757.5-1587.1c0,0.2,0,0.4,0.1,0.5c0,0,0,0,0,0c0,0,0,0,0,0c0,0,0,0,0,0c0,0,0,0,0,0c0,0,0,0,0,0c0,0,0,0,0,0c0,0,0,0,0,0
		c0,0,0,0,0,0c0,0,0,0,0,0c0,0,0,0,0,0c0,0,0,0,0,0c0,0,0,0,0,0c0,0,0,0,0,0c0,0,0,0,0,0c0,0,0,0,0,0c0,0,0,0,0,0c0,0,0,0,0,0
		c0,0,0,0,0,0c0,0,0,0,0,0c0,0,0,0,0,0c0,0,0,0,0,0s0,0,0,0c0,0,0,0,0,0c0,0,0,0,0,0c0,0,0,0,0,0c0,0,0,0,0,0c0,0,0,0,0,0
		c0,0,0,0,0,0c0,0,0,0,0,0c0,0,0,0,0,0c0,0,0,0,0,0c0,0,0,0,0,0c0,0,0,0,0,0c0,0,0,0,0,0c0,0,0,0,0,0c0,0,0,0,0,0c0,0,0,0,0,0
		c0,0,0,0,0,0c0,0,0,0,0,0c0,0,0,0,0,0c0,0,0,0,0,0c0,0,0,0,0,0c0,0,0,0,0,0c0,0,0,0,0,0c0,0,0,0,0,0c0,0,0,0,0,0c0,0,0,0,0,0
		c0,0,0,0,0,0c0,0,0,0,0,0c0,0,0,0,0,0c0,0,0,0,0,0c0,0,0,0,0,0c0,0,0,0,0,0c0,0,0,0,0,0c0,0,0,0,0,0c0,0,0,0,0,0c0,0,0,0,0,0
		c0,0,0,0,0,0c0,0,0,0,0,0c0,0,0,0,0,0c0,0,0,0,0,0c0,0,0,0,0,0c0,0,0,0,0,0c0,0,0,0,0,0c0,0,0,0,0,0c0,0,0,0,0,0c0,0,0,0,0,0
		c0,0,0,0,0,0c0,0,0,0,0,0c0,0,0,0,0,0c0,0,0,0,0,0c0,0,0,0,0,0c0,0,0,0,0,0c0,0,0,0,0,0c0,0,0,0,0,0c0,0,0,0,0,0c0,0,0,0,0,0
		c0,0,0,0,0,0c0,0,0,0,0,0c0,0,0,0,0,0c0,0,0,0,0,0c0,0,0,0,0,0c0,0,0,0,0,0c0,0,0,0,0,0c0,0,0,0,0,0c0,0,0,0,0,0c0,0,0,0,0,0
		c0,0,0,0,0,0c0,0,0,0,0,0c0,0,0,0,0,0c0,0,0,0,0,0c0,0,0,0,0,0c0,0,0,0,0,0v4.7h-1v-4.7c0-0.4,0-0.8-0.1-1.2L-757.5-1587.1z
		 M-758.4-1575.1h1v6h-1V-1575.1z M-758.4-1563.1h1v6h-1V-1563.1z M-758.4-1551.1h1v6h-1V-1551.1z M-758.4-1539.1h1v6h-1V-1539.1z
		 M-758.4-1527.1h1v6h-1V-1527.1z M-758.4-1515.1h1v6h-1V-1515.1z M-758.4-1503.1h1v6h-1V-1503.1z M-758.4-1491.1h1v6h-1V-1491.1z
		 M-758.4-1479.1h1v6h-1V-1479.1z M-758.4-1467.1h1v6h-1V-1467.1z M-758.4-1455.1h1v6h-1V-1455.1z M-758.4-1443.1h1v6h-1V-1443.1z
		 M-758.4-1431.1h1v3.2l0,0c0,0,0,0,0,0c0,0,0,0,0,0c0,0,0,0,0,0c0,0,0,0,0,0c0,0,0,0,0,0c0,0,0,0,0,0c0,0,0,0,0,0c0,0,0,0,0,0
		c0,0,0,0,0,0c0,0,0,0,0,0c0,0,0,0,0,0c0,0,0,0,0,0c0,0,0,0,0,0c0,0,0,0,0,0c0,0,0,0,0,0c0,0,0,0,0,0c0,0,0,0,0,0c0,0,0,0,0,0
		c0,0,0,0,0,0c0,0,0,0,0,0c0,0,0,0,0,0c0,0,0,0,0,0c0,0,0,0,0,0c0,0,0,0,0,0c0,0,0,0,0,0c0,0,0,0,0,0c0,0,0,0,0,0c0,0,0,0,0,0
		c0,0,0,0,0,0c0,0,0,0,0,0c0,0,0,0,0,0c0,0,0,0,0,0c0,0,0,0,0,0c0,0,0,0,0,0c0,0,0,0,0,0c0,0,0,0,0,0c0,0,0,0,0,0c0,0,0,0,0,0
		c0,0,0,0,0,0c0,0,0,0,0,0c0,0,0,0,0,0c0,0,0,0,0,0c0,0,0,0,0,0c0,0,0,0,0,0c0,0,0,0,0,0c0,0,0,0,0,0c0,0,0,0,0,0c0,0,0,0,0,0
		c0,0,0,0,0,0c0,0,0,0,0,0c0,0,0,0,0,0c0,0,0,0,0,0c0,0,0,0,0,0c0,0,0,0,0,0c0,0.8-0.2,1.5-0.4,2.2l-1-0.3c0.2-0.8,0.3-1.6,0.3-2.5
		V-1431.1z M-761.7-1421l0.6,0.8c-0.8,0.7-1.8,1.2-2.8,1.6l0,0c0,0,0,0,0,0l0,0c0,0,0,0,0,0l0,0c0,0-0.1,0-0.1,0c0,0,0,0,0,0
		c0,0,0,0,0,0c0,0,0,0,0,0c0,0,0,0,0,0c0,0,0,0,0,0c0,0,0,0,0,0l0,0c0,0,0,0,0,0c0,0,0,0,0,0c0,0,0,0,0,0c0,0,0,0,0,0c0,0,0,0,0,0
		c0,0,0,0,0,0c0,0,0,0,0,0c0,0,0,0,0,0c0,0,0,0,0,0c0,0,0,0,0,0c0,0,0,0,0,0c0,0,0,0,0,0c0,0,0,0,0,0c0,0,0,0,0,0c0,0,0,0,0,0
		c0,0,0,0,0,0c0,0,0,0,0,0c0,0,0,0,0,0c0,0,0,0,0,0h0c0,0,0,0,0,0c0,0,0,0,0,0c0,0,0,0,0,0c0,0,0,0,0,0c0,0,0,0,0,0c0,0,0,0,0,0
		c0,0,0,0,0,0c0,0,0,0,0,0c0,0,0,0,0,0c0,0,0,0,0,0c0,0,0,0,0,0c0,0,0,0,0,0c0,0,0,0,0,0c0,0,0,0,0,0c0,0,0,0,0,0c0,0,0,0,0,0
		c0,0,0,0,0,0c0,0,0,0,0,0c0,0,0,0,0,0c0,0,0,0,0,0c0,0,0,0,0,0c0,0,0,0,0,0c0,0,0,0,0,0c0,0,0,0,0,0c0,0,0,0,0,0c0,0,0,0,0,0
		c0,0,0,0,0,0c0,0,0,0,0,0c0,0,0,0,0,0c0,0,0,0,0,0s0,0,0,0c0,0,0,0,0,0c0,0,0,0,0,0c0,0,0,0,0,0c0,0,0,0,0,0c0,0,0,0,0,0
		c0,0,0,0,0,0c0,0,0,0,0,0c0,0,0,0,0,0c0,0,0,0,0,0s0,0,0,0c0,0,0,0,0,0c0,0,0,0,0,0c0,0,0,0,0,0c0,0,0,0,0,0c0,0,0,0,0,0
		c0,0,0,0,0,0c0,0,0,0,0,0c0,0,0,0,0,0c0,0,0,0,0,0c0,0,0,0,0,0c0,0,0,0,0,0c0,0,0,0,0,0c0,0,0,0,0,0c0,0,0,0,0,0c0,0,0,0,0,0
		c0,0,0,0,0,0c0,0,0,0,0,0c0,0,0,0,0,0c0,0,0,0,0,0c0,0,0,0,0,0c0,0,0,0,0,0c0,0,0,0,0,0c0,0,0,0,0,0c0,0,0,0,0,0c0,0,0,0,0,0
		c0,0,0,0,0,0c0,0,0,0,0,0c0,0,0,0,0,0c0,0,0,0,0,0c0,0,0,0,0,0c0,0,0,0,0,0c0,0,0,0,0,0c0,0,0,0,0,0c0,0,0,0,0,0c0,0,0,0,0,0
		c0,0,0,0,0,0c0,0,0,0,0,0c0,0,0,0,0,0c0,0,0,0,0,0c0,0,0,0,0,0c0,0,0,0,0,0c0,0,0,0,0,0c0,0,0,0,0,0c0,0,0,0,0,0c0,0,0,0,0,0l0,0
		c0,0,0,0,0,0c0,0,0,0,0,0c0,0,0,0,0,0c0,0,0,0,0,0c0,0,0,0,0,0c0,0,0,0,0,0c-0.3,0-0.5,0.1-0.8,0.1l-0.1-1
		C-764.8-1419.1-763.1-1419.8-761.7-1421z M-778.5-1418.9h6v1h-6V-1418.9z M-790.5-1418.9h6v1h-6V-1418.9z M-802.5-1418.9h6v1h-6
		V-1418.9z M-814.5-1418.9h6v1h-6V-1418.9z M-826.5-1418.9h6v1h-6V-1418.9z M-838.5-1418.9h6v1h-6V-1418.9z M-850.5-1418.9h6v1h-6
		V-1418.9z M-862.5-1418.9h6v1h-6V-1418.9z M-874.5-1418.9h6v1h-6V-1418.9z M-886.5-1418.9h6v1h-6V-1418.9z M-898.5-1418.9h6v1h-6
		V-1418.9z M-910.5-1418.9h6v1h-6V-1418.9z M-922.5-1418.9h6v1h-6V-1418.9z M-934.5-1418.9h6v1h-6V-1418.9z M-946.5-1418.9h6v1h-6
		V-1418.9z M-958.5-1418.9h6v1h-6V-1418.9z M-970.5-1418.9h6v1h-6V-1418.9z M-982.5-1418.9h6v1h-6V-1418.9z M-994.5-1418.9h6v1h-6
		V-1418.9z M-1006.4-1419.1c0.4,0.1,0.9,0.1,1.4,0.1h4.5v1h-4.5l0,0c0,0,0,0,0,0c0,0,0,0,0,0c0,0,0,0,0,0c0,0,0,0,0,0c0,0,0,0,0,0
		c0,0,0,0,0,0c0,0,0,0,0,0c0,0,0,0,0,0c0,0,0,0,0,0c0,0,0,0,0,0c0,0,0,0,0,0c0,0,0,0,0,0c-0.4,0-0.8,0-1.3-0.1L-1006.4-1419.1z
		 M-1013.8-1426c0.4,1.8,1.3,3.4,2.6,4.6l-0.7,0.7c0,0-0.1-0.1-0.1-0.1c0,0,0,0,0,0c0,0,0,0,0,0c0,0,0,0,0,0c0,0,0,0,0,0l0,0
		c0,0,0,0,0,0c0,0,0,0,0,0c0,0,0,0,0,0c0,0,0,0,0,0c0,0,0,0,0,0c0,0,0,0,0,0c0,0,0,0,0,0v0c0,0,0,0,0,0c0,0,0,0,0,0c0,0,0,0,0,0
		c0,0,0,0,0,0c0,0,0,0,0,0c0,0,0,0,0,0c0,0,0,0,0,0c0,0,0,0,0,0c0,0,0,0,0,0c0,0,0,0,0,0c0,0,0,0,0,0c0,0,0,0,0,0c0,0,0,0,0,0
		c0,0,0,0,0,0c0,0,0,0,0,0c0,0,0,0,0,0c0,0,0,0,0,0c0,0,0,0,0,0c0,0,0,0,0,0c0,0,0,0,0,0c0,0,0,0,0,0c0,0,0,0,0,0c0,0,0,0,0,0
		c0,0,0,0,0,0c0,0,0,0,0,0c0,0,0,0,0,0c0,0,0,0,0,0c0,0,0,0,0,0c0,0,0,0,0,0c0,0,0,0,0,0c0,0,0,0,0,0c0,0,0,0,0,0c0,0,0,0,0,0
		c0,0,0,0,0,0c0,0,0,0,0,0c0,0,0,0,0,0c0,0,0,0,0,0c0,0,0,0,0,0c0,0,0,0,0,0c0,0,0,0,0,0c0,0,0,0,0,0c0,0,0,0,0,0c0,0,0,0,0,0
		c0,0,0,0,0,0c0,0,0,0,0,0c0,0,0,0,0,0c0,0,0,0,0,0c0,0,0,0,0,0c0,0,0,0,0,0c0,0,0,0,0,0c0,0,0,0,0,0c0,0,0,0,0,0c0,0,0,0,0,0
		c0,0,0,0,0,0c0,0,0,0,0,0c0,0,0,0,0,0c0,0,0,0,0,0c0,0,0,0,0,0c0,0,0,0,0,0c0,0,0,0,0,0c0,0,0,0,0,0c0,0,0,0,0,0c0,0,0,0,0,0
		c0,0,0,0,0,0c0,0,0,0,0,0c0,0,0,0,0,0c0,0,0,0,0,0c0,0,0,0,0,0c0,0,0,0,0,0c0,0,0,0,0,0c0,0,0,0,0,0c0,0,0,0,0,0c0,0,0,0,0,0
		c0,0,0,0,0,0c0,0,0,0,0,0c0,0,0,0,0,0c0,0,0,0,0,0c0,0,0,0,0,0c0,0,0,0,0,0c0,0,0,0,0,0c0,0,0,0,0,0c0,0,0,0,0,0c0,0,0,0,0,0
		c0,0,0,0,0,0c0,0,0,0,0,0c0,0,0,0,0,0c0,0,0,0,0,0c0,0,0,0,0,0c0,0,0,0,0,0c0,0,0,0,0,0c0,0,0,0,0,0c0,0,0,0,0,0c0,0,0,0,0,0
		c0,0,0,0,0,0c0,0,0,0,0,0c0,0,0,0,0,0c0,0,0,0,0,0c0,0,0,0,0,0c0,0,0,0,0,0c0,0,0,0,0,0c0,0,0,0,0,0c0,0,0,0,0,0c0,0,0,0,0,0
		c0,0,0,0,0,0c0,0,0,0,0,0c0,0,0,0,0,0c0,0,0,0,0,0c0,0,0,0,0,0c0,0,0,0,0,0c0,0,0,0,0,0c0,0,0,0,0,0c0,0,0,0,0,0c0,0,0,0,0,0
		c0,0,0,0,0,0c0,0,0,0,0,0c0,0,0,0,0,0c0,0,0,0,0,0c0,0,0,0,0,0c0,0,0,0,0,0c0,0,0,0,0,0c0,0,0,0,0,0c0,0,0,0,0,0c0,0,0,0,0,0
		c0,0,0,0,0,0c0,0,0,0,0,0c0,0,0,0,0,0c0,0,0,0,0,0c0,0,0,0,0,0c0,0,0,0,0,0c0,0,0,0,0,0c0,0,0,0,0,0c0,0,0,0,0,0c0,0,0,0,0,0
		c0,0,0,0,0,0c0,0,0,0,0,0c0,0,0,0,0,0c0,0,0,0,0,0c0,0,0,0,0,0c0,0,0,0,0,0c0,0,0,0,0,0c0,0,0,0,0,0c0,0,0,0,0,0c0,0,0,0,0,0
		c0,0,0,0,0,0c0,0,0,0,0,0c0,0,0,0,0,0c0,0,0,0,0,0c0,0,0,0,0,0c0,0,0,0,0,0c0,0,0,0,0,0c0,0,0,0,0,0c0,0,0,0,0,0c0,0,0,0,0,0
		c0,0,0,0,0,0c0,0,0,0,0,0c0,0,0,0,0,0c0,0,0,0,0,0c0,0,0,0,0,0c0,0,0,0,0,0c0,0,0,0,0,0c0,0,0,0,0,0c0,0,0,0,0,0c0,0,0,0,0,0
		c0,0,0,0,0,0c0,0,0,0,0,0c0,0,0,0,0,0c0,0,0,0,0,0c0,0,0,0,0,0s0,0,0,0c0,0,0,0,0,0c0,0,0,0,0,0c0,0,0,0,0,0c0,0,0,0,0,0
		c0,0,0,0,0,0c0,0,0,0,0,0c0,0,0,0,0,0c0,0,0,0,0,0c0,0,0,0,0,0c0,0,0,0,0,0c0,0,0,0,0,0c0,0,0,0,0,0c0,0,0,0,0,0c0,0,0,0,0,0
		c0,0,0,0,0,0c0,0,0,0,0,0c0,0,0,0,0,0c0,0,0,0,0,0c0,0,0,0,0,0c0,0,0,0,0,0c0,0,0,0,0,0c0,0,0,0,0,0c0,0,0,0,0,0c0,0,0,0,0,0
		c0,0,0,0,0,0c0,0,0,0,0,0c0,0,0,0,0,0c0,0,0,0,0,0c0,0,0,0,0,0c0,0,0,0,0,0c0,0,0,0,0,0c0,0,0,0,0,0c0,0,0,0,0,0c0,0,0,0,0,0
		c0,0,0,0,0,0c0,0,0,0,0,0c0,0,0,0,0,0c0,0,0,0,0,0c0,0,0,0,0,0l0,0c0,0,0,0,0,0c0,0,0,0,0,0c0,0,0,0,0,0c0,0,0,0,0,0c0,0,0,0,0,0
		c0,0,0,0,0,0c0,0,0,0,0,0c0,0,0,0,0,0c0,0,0,0,0,0c0,0,0,0,0,0c0,0,0,0,0,0c0,0,0,0,0,0c0,0,0,0,0,0c0,0,0,0,0,0c0,0,0,0,0,0
		c0,0,0,0,0,0c0,0,0,0,0,0c0,0,0,0,0,0c0,0,0,0,0,0c0,0,0,0,0,0c0,0,0,0,0,0c0,0,0,0,0,0c0,0,0,0,0,0c0,0,0,0,0,0c0,0,0,0,0,0
		c0,0,0,0,0,0c0,0,0,0,0,0c0,0,0,0,0,0c0,0,0,0,0,0c0,0,0,0,0,0c0,0,0,0,0,0c0,0,0,0,0,0c0,0,0,0,0,0c0,0,0,0,0,0c0,0,0,0,0,0
		c0,0,0,0,0,0c0,0,0,0,0,0c0,0,0,0,0,0c0,0,0,0,0,0c0,0,0,0,0,0c0,0,0,0,0,0c0,0,0,0,0,0c0,0,0,0,0,0c0,0,0,0,0,0c0,0,0,0,0,0
		c0,0,0,0,0,0c0,0,0,0,0,0c0,0,0,0,0,0c0,0,0,0,0,0c0,0,0,0,0,0c0,0,0,0,0,0c0,0,0,0,0,0c0,0,0,0,0,0c0,0,0,0,0,0c0,0,0,0,0,0
		c0,0,0,0,0,0c0,0,0,0,0,0c0,0,0,0,0,0c0,0,0,0,0,0c0,0,0,0,0,0c0,0,0,0,0,0c0,0,0,0,0,0c0,0,0,0,0,0c0,0,0,0,0,0c0,0,0,0,0,0
		c0,0,0,0,0,0c0,0,0,0,0,0c0,0,0,0,0,0c0,0,0,0,0,0c0,0,0,0,0,0c0,0,0,0,0,0c0,0,0,0,0,0c0,0,0,0,0,0c0,0,0,0,0,0c0,0,0,0,0,0
		c0,0,0,0,0,0c0,0,0,0,0,0c0,0,0,0,0,0c0,0,0,0,0,0c0,0,0,0,0,0c0,0,0,0,0,0c0,0,0,0,0,0c0,0,0,0,0,0c0,0,0,0,0,0c0,0,0,0,0,0
		c0,0,0,0,0,0c0,0,0,0,0,0c0,0,0,0,0,0c0,0,0,0,0,0c0,0,0,0,0,0c0,0,0,0,0,0c0,0,0,0,0,0c0,0,0,0,0,0c0,0,0,0,0,0c0,0,0,0,0,0
		c0,0,0,0,0,0c0,0,0,0,0,0c0,0,0,0,0,0c0,0,0,0,0,0c0,0,0,0,0,0c0,0,0,0,0,0c0,0,0,0,0,0c0,0,0,0,0,0c0,0,0,0,0,0c0,0,0,0,0,0
		c0,0,0,0,0,0c0,0,0,0,0,0c0,0,0,0,0,0c0,0,0,0,0,0c0,0,0,0,0,0c0,0,0,0,0,0c0,0,0,0,0,0c0,0,0,0,0,0c0,0,0,0,0,0c0,0,0,0,0,0l0,0
		c0,0,0,0,0,0c0,0,0,0,0,0c0,0,0,0,0,0c0,0,0,0,0,0c0,0,0,0,0,0c0,0,0,0,0,0c0,0,0,0,0,0c0,0,0,0,0,0c0,0,0,0,0,0c0,0,0,0,0,0
		c0,0,0,0,0,0c0,0,0,0,0,0c0,0,0,0,0,0c0,0,0,0,0,0c0,0,0,0,0,0l0,0c0,0,0,0,0,0c0,0,0,0,0,0c0,0,0,0,0,0c0,0,0,0,0,0c0,0,0,0,0,0
		c0,0,0,0,0,0c0,0,0,0,0,0c0,0,0,0,0,0c0,0,0,0,0,0c0,0,0,0,0,0c0,0,0,0,0,0c0,0,0,0,0,0c0,0,0,0,0,0c0,0,0,0,0,0c0,0,0,0,0,0
		c0,0,0,0,0,0c0,0,0,0,0,0c0,0,0,0,0,0c0,0,0,0,0,0c0,0,0,0,0,0c0,0,0,0,0,0c0,0,0,0,0,0c0,0,0,0,0,0c0,0,0,0,0,0c0,0,0,0,0,0
		c0,0,0,0,0,0c0,0,0,0,0,0c0,0,0,0,0,0c0,0,0,0,0,0c0,0,0,0,0,0c0,0,0,0,0,0c0,0,0,0,0,0c0,0,0,0,0,0c0,0,0,0,0,0c0,0,0,0,0,0
		s0,0,0,0c0,0,0,0,0,0c0,0,0,0,0,0c0,0,0,0,0,0c0,0,0,0,0,0c0,0,0,0,0,0c0,0,0,0,0,0c0,0,0,0,0,0c0,0,0,0,0,0c0,0,0,0,0,0
		c0,0,0,0,0,0c0,0,0,0,0,0c0,0,0,0,0,0c0,0,0,0,0,0c0,0,0,0,0,0c0,0,0,0,0,0c0,0,0,0,0,0c0,0,0,0,0,0c0,0,0,0,0,0c0,0,0,0,0,0
		c0,0,0,0,0,0c0,0,0,0,0,0c0,0,0,0,0,0c0,0,0,0,0,0c0,0,0,0,0,0c0,0,0,0,0,0c0,0,0,0,0,0c0,0,0,0,0,0c0,0,0,0,0,0c0,0,0,0,0,0
		c0,0,0,0,0,0c0,0,0,0,0,0c0,0,0,0,0,0c0,0,0,0,0,0c0,0,0,0,0,0c0,0,0,0,0,0c0,0,0,0,0,0c0,0,0,0,0,0c0,0,0,0,0,0s0,0,0,0
		c0,0,0,0,0,0c0,0,0,0,0,0c0,0,0,0,0,0c0,0,0,0,0,0c0,0,0,0,0,0s0,0,0,0c0,0,0,0,0,0c0,0,0,0,0,0c0,0,0,0,0,0c0,0,0,0,0,0
		c0,0,0,0,0,0c0,0,0,0,0,0c0,0,0,0,0,0c0,0,0,0,0,0c0,0,0,0,0,0c0,0,0,0,0,0c0,0,0,0,0,0c0,0,0,0,0,0c0,0,0,0,0,0c0,0,0,0,0,0
		c0,0,0,0,0,0c0,0,0,0,0,0c0,0,0,0,0,0c0,0,0,0,0,0c0,0,0,0,0,0c0,0,0,0,0,0c0,0,0,0,0,0c0,0,0,0,0,0c0,0,0,0,0,0c0,0,0,0,0,0
		c0,0,0,0,0,0c0,0,0,0,0,0c0,0,0,0,0,0c0,0,0,0,0,0c0,0,0,0,0,0c0,0,0,0,0,0c0,0,0,0,0,0c0,0,0,0,0,0c0,0,0,0,0,0c0,0,0,0,0,0
		c0,0,0,0,0,0c0,0,0,0,0,0c0,0,0,0,0,0c0,0,0,0,0,0c0,0,0,0,0,0c0,0,0,0,0,0c0,0,0,0,0,0c0,0,0,0,0,0c0,0,0,0,0,0c0,0,0,0,0,0
		c0,0,0,0,0,0c0,0,0,0,0,0c0,0,0,0,0,0c0,0,0,0,0,0c0,0,0,0,0,0c0,0,0,0,0,0c0,0,0,0,0,0c0,0,0,0,0,0c0,0,0,0,0,0c0,0,0,0,0,0
		c0,0,0,0,0,0c0,0,0,0,0,0c0,0,0,0,0,0c0,0,0,0,0,0c0,0,0,0,0,0c0,0,0,0,0,0c0,0,0,0,0,0c0,0,0,0,0,0c0,0,0,0,0,0c0,0,0,0,0,0
		c0,0,0,0,0,0c0,0,0,0,0,0c0,0,0,0,0,0l0,0c-0.1-0.4-0.2-0.7-0.3-1.1L-1013.8-1426z M-1015-1437.8h1v6h-1V-1437.8z M-1015-1449.8h1
		v6h-1V-1449.8z M-1015-1461.8h1v6h-1V-1461.8z M-1015-1473.8h1v6h-1V-1473.8z M-1015-1485.8h1v6h-1V-1485.8z M-1015-1497.8h1v6h-1
		V-1497.8z M-1015-1509.8h1v6h-1V-1509.8z M-1015-1521.8h1v6h-1V-1521.8z M-1015-1533.8h1v6h-1V-1533.8z M-1015-1545.8h1v6h-1
		V-1545.8z M-1015-1557.8h1v6h-1V-1557.8z M-1015-1569.8h1v6h-1V-1569.8z M-1015-1581.8h1v6h-1V-1581.8z M-1012-1593l0.7,0.7
		c-1.3,1.3-2.2,2.9-2.5,4.7l-1-0.2c0-0.1,0-0.2,0.1-0.3v0c0,0,0,0,0,0l0,0c0,0,0,0,0,0c0,0,0,0,0,0c0,0,0,0,0,0c0,0,0,0,0,0
		c0,0,0,0,0,0c0,0,0,0,0,0c0,0,0,0,0,0c0,0,0,0,0,0c0,0,0,0,0,0c0,0,0,0,0,0c0,0,0,0,0,0c0,0,0,0,0,0c0,0,0,0,0,0c0,0,0,0,0,0
		c0,0,0,0,0,0c0,0,0,0,0,0c0,0,0,0,0,0c0,0,0,0,0,0c0,0,0,0,0,0c0,0,0,0,0,0c0,0,0,0,0,0c0,0,0,0,0,0c0,0,0,0,0,0c0,0,0,0,0,0
		c0,0,0,0,0,0c0,0,0,0,0,0c0,0,0,0,0,0c0,0,0,0,0,0c0,0,0,0,0,0c0,0,0,0,0,0c0,0,0,0,0,0c0,0,0,0,0,0c0,0,0,0,0,0c0,0,0,0,0,0
		c0,0,0,0,0,0c0,0,0,0,0,0c0,0,0,0,0,0c0,0,0,0,0,0c0,0,0,0,0,0c0,0,0,0,0,0c0,0,0,0,0,0c0,0,0,0,0,0c0,0,0,0,0,0c0,0,0,0,0,0
		c0,0,0,0,0,0c0,0,0,0,0,0c0,0,0,0,0,0c0,0,0,0,0,0c0,0,0,0,0,0c0,0,0,0,0,0c0,0,0,0,0,0c0,0,0,0,0,0c0,0,0,0,0,0c0,0,0,0,0,0
		c0,0,0,0,0,0c0,0,0,0,0,0c0,0,0,0,0,0c0,0,0,0,0,0c0,0,0,0,0,0c0,0,0,0,0,0c0,0,0,0,0,0c0,0,0,0,0,0c0,0,0,0,0,0c0,0,0,0,0,0
		c0,0,0,0,0,0c0,0,0,0,0,0c0,0,0,0,0,0c0,0,0,0,0,0l0,0c0,0,0,0,0,0c0,0,0,0,0,0c0.3-1,0.7-1.9,1.3-2.7c0,0,0,0,0,0c0,0,0,0,0,0l0,0
		c0,0,0,0,0,0c0,0,0,0,0,0c0,0,0,0,0,0c0,0,0,0,0,0c0,0,0,0,0,0c0,0,0,0,0,0c0,0,0,0,0,0c0,0,0,0,0,0c0,0,0,0,0,0c0,0,0,0,0,0
		c0,0,0,0,0,0c0,0,0,0,0,0c0,0,0,0,0,0c0,0,0,0,0,0c0,0,0,0,0,0c0,0,0,0,0,0c0,0,0,0,0,0c0,0,0,0,0,0c0,0,0,0,0,0c0,0,0,0,0,0
		c0,0,0,0,0,0c0,0,0,0,0,0c0,0,0,0,0,0c0,0,0,0,0,0c0,0,0,0,0,0c0,0,0,0,0,0c0,0,0,0,0,0c0,0,0,0,0,0c0,0,0,0,0,0c0,0,0,0,0,0
		c0,0,0,0,0,0l0,0c0,0,0,0,0,0c0,0,0,0,0,0c0,0,0,0,0,0c0,0,0,0,0,0c0,0,0,0,0,0c0,0,0,0,0,0c0,0,0,0,0,0c0,0,0,0,0,0c0,0,0,0,0,0
		c0,0,0,0,0,0c0,0,0,0,0,0c0,0,0,0,0,0c0,0,0,0,0,0c0,0,0,0,0,0c0,0,0,0,0,0c0,0,0,0,0,0c0,0,0,0,0,0c0,0,0,0,0,0c0,0,0,0,0,0
		c0,0,0,0,0,0c0,0,0,0,0,0c0,0,0,0,0,0c0,0,0,0,0,0c0,0,0,0,0,0c0,0,0,0,0,0c0,0,0,0,0,0c0,0,0,0,0,0c0,0,0,0,0,0c0,0,0,0,0,0
		c0,0,0,0,0,0c0,0,0,0,0,0c0,0,0,0,0,0c0,0,0,0,0,0c0,0,0,0,0,0c0,0,0,0,0,0c0,0,0,0,0,0c0,0,0,0,0,0c0,0,0,0,0,0c0,0,0,0,0,0
		c0,0,0,0,0,0c0,0,0,0,0,0c0,0,0,0,0,0c0,0,0,0,0,0c0,0,0,0,0,0c0,0,0,0,0,0c0,0,0,0,0,0c0,0,0,0,0,0c0,0,0,0,0,0c0,0,0,0,0,0
		c0,0,0,0,0,0c0,0,0,0,0,0c0,0,0,0,0,0c0,0,0,0,0,0c0,0,0,0,0,0c0,0,0,0,0,0c0,0,0,0,0,0c0,0,0,0,0,0c0,0,0,0,0,0c0,0,0,0,0,0
		c0,0,0,0,0,0c0,0,0,0,0,0c0,0,0,0,0,0c0,0,0,0,0,0c0,0,0,0,0,0c0,0,0,0,0,0c0,0,0,0,0,0c0,0,0,0,0,0c0,0,0,0,0,0c0,0,0,0,0,0
		c0,0,0,0,0,0c0,0,0,0,0,0c0,0,0,0,0,0c0,0,0,0,0,0c0,0,0,0,0,0c0,0,0,0,0,0c0,0,0,0,0,0c0,0,0,0,0,0c0,0,0,0,0,0c0,0,0,0,0,0
		c0,0,0,0,0,0c0,0,0,0,0,0c0,0,0,0,0,0c0,0,0,0,0,0c0,0,0,0,0,0c0,0,0,0,0,0c0,0,0,0,0,0c0,0,0,0,0,0c0,0,0,0,0,0c0,0,0,0,0,0
		c0,0,0,0,0,0c0,0,0,0,0,0c0,0,0,0,0,0c0,0,0,0,0,0c0,0,0,0,0,0c0,0,0,0,0,0c0,0,0,0,0,0c0,0,0,0,0,0c0,0,0,0,0,0c0,0,0,0,0,0
		c0,0,0,0,0,0c0,0,0,0,0,0c0,0,0,0,0,0c0,0,0,0,0,0c0,0,0,0,0,0c0,0,0,0,0,0c0,0,0,0,0,0c0,0,0,0,0,0c0,0,0,0,0,0c0,0,0,0,0,0
		c0,0,0,0,0,0c0,0,0,0,0,0c0,0,0,0,0,0c0,0,0,0,0,0c0,0,0,0,0,0c0,0,0,0,0,0c0,0,0,0,0,0c0,0,0,0,0,0c0,0,0,0,0,0c0,0,0,0,0,0
		c0,0,0,0,0,0c0,0,0,0,0,0l0,0c0,0,0,0,0,0l0,0c0,0,0,0,0,0c0,0,0,0,0,0c0,0,0,0,0,0c0,0,0,0,0,0c0,0,0,0,0,0c0,0,0,0,0,0
		c0,0,0,0,0,0c0,0,0,0,0,0c0,0,0,0,0,0c0,0,0,0,0,0c0,0,0,0,0,0c0,0,0,0,0,0C-1012.2-1592.8-1012.1-1592.9-1012-1593z M-1005-1595.9
		v1c-0.5,0-1.1,0-1.6,0.1l-0.2-1c0.3,0,0.5-0.1,0.8-0.1c0,0,0,0,0,0c0,0,0,0,0,0c0,0,0,0,0,0c0,0,0,0,0,0c0,0,0,0,0.1,0c0,0,0,0,0,0
		c0,0,0,0,0,0c0,0,0,0,0,0c0,0,0,0,0,0c0,0,0,0,0,0c0,0,0,0,0,0c0,0,0,0,0.1,0c0,0,0,0,0,0c0,0,0,0,0,0c0,0,0,0,0,0c0,0,0,0,0,0
		s0,0,0,0c0,0,0,0,0,0c0,0,0,0,0,0c0,0,0,0,0,0c0,0,0,0,0,0c0,0,0,0,0,0c0,0,0,0,0,0c0,0,0,0,0,0c0,0,0,0,0,0c0,0,0,0,0,0
		c0,0,0,0,0,0c0,0,0,0,0,0c0,0,0,0,0,0s0,0,0,0c0,0,0,0,0,0c0,0,0,0,0,0c0,0,0,0,0,0c0,0,0,0,0,0c0,0,0,0,0,0c0,0,0,0,0,0
		c0,0,0,0,0,0c0,0,0,0,0,0c0,0,0,0,0,0c0,0,0,0,0,0c0,0,0,0,0,0s0,0,0,0c0,0,0,0,0,0c0,0,0,0,0,0c0,0,0,0,0,0c0,0,0,0,0,0
		c0,0,0,0,0,0c0,0,0,0,0,0c0,0,0,0,0,0c0,0,0,0,0,0c0,0,0,0,0,0c0,0,0,0,0,0c0,0,0,0,0,0C-1005.1-1595.9-1005.1-1595.9-1005-1595.9
		C-1005.1-1595.9-1005.1-1595.9-1005-1595.9C-1005.1-1595.9-1005.1-1595.9-1005-1595.9C-1005.1-1595.9-1005.1-1595.9-1005-1595.9
		C-1005-1595.9-1005-1595.9-1005-1595.9C-1005-1595.9-1005-1595.9-1005-1595.9C-1005-1595.9-1005-1595.9-1005-1595.9z"/>
</g>
<g id="Group_1063" transform="translate(1091.607 1770.089)">
	<path id="Rectangle_375" class="st2" d="M-1010-1595.9h94.6c2.8,0,5,2.2,5,5v13.8c0,2.8-2.2,5-5,5h-94.6c-2.8,0-5-2.2-5-5v-13.8
		C-1015-1593.6-1012.8-1595.9-1010-1595.9z"/>
	<path id="Path_9240" class="st0" d="M-997-1584.8v1.4h2.5c0,0.2,0,0.4,0,0.4c0.1,0.6-0.1,1.1-0.4,1.6c-0.3,0.3-0.8,0.4-1.9,0.4
		c-1.6,0-2.1-0.2-2.4-0.7c-0.2-0.9-0.3-1.9-0.2-2.8c-0.1-0.9,0-1.8,0.2-2.7c0.3-0.6,0.8-0.7,2.2-0.7c2.1,0,2.3,0.2,2.4,1.5h1.9
		c0-1.5-0.3-2.2-1-2.6s-1.2-0.5-3.2-0.5c-0.8,0-1.6,0-2.4,0.2c-0.9,0.2-1.7,1-1.9,1.9c-0.2,1.3-0.3,2.6-0.2,3.9
		c0,2.3,0.4,3.3,1.7,3.8c0.8,0.3,1.7,0.4,2.6,0.3c2.4,0,3.2-0.2,3.8-0.8c0.5-0.6,0.7-1.2,0.7-2.9c0-0.9,0-1.2,0-1.7H-997z
		 M-989.3-1587.9h4.9v-1.6h-6.8v10h6.9v-1.6h-5v-2.8h4.7v-1.4h-4.7V-1587.9z M-978.7-1587.8h3v-1.7h-7.8v1.7h2.9v8.3h1.9V-1587.8z
		 M-966.8-1589.6c-0.7,0-1.4,0-2.1,0.1c-0.8,0.1-1.4,0.5-1.9,1.2c-0.5,0.7-0.6,1.5-0.6,4.1c0,0.7,0,1.5,0.1,2.2
		c0.1,0.9,0.6,1.7,1.4,2.2c0.9,0.4,1.9,0.5,2.9,0.4c0.7,0,1.5,0,2.2-0.1c0.8-0.1,1.5-0.6,1.9-1.2c0.4-0.8,0.5-1.4,0.5-3.8
		c0-0.8,0-1.6-0.1-2.4c-0.1-1-0.7-1.9-1.6-2.3C-965-1589.5-965.9-1589.7-966.8-1589.6L-966.8-1589.6z M-969.4-1585.7
		c0-1,0.2-1.5,0.5-1.8c0.3-0.3,0.7-0.4,1.9-0.4c0.6-0.1,1.2,0,1.8,0.2c0.4,0.2,0.7,0.7,0.7,1.1c0.1,0.7,0.1,1.4,0.1,2.1
		c0.1,0.9,0,1.8-0.2,2.6c-0.3,0.7-0.7,0.9-2.1,0.9c-1.5,0-2-0.1-2.3-0.4c-0.4-0.4-0.4-0.9-0.4-2.6L-969.4-1585.7z M-959.1-1587.9
		h4.7v-1.6h-6.6v10h1.9v-4.1h4.5v-1.6h-4.5L-959.1-1587.9z M-951.3-1587.9h4.7v-1.6h-6.6v10h1.9v-4.1h4.5v-1.6h-4.5L-951.3-1587.9z
		 M-943.5-1587.9h4.9v-1.6h-6.8v10h6.9v-1.6h-5v-2.8h4.7v-1.4h-4.7L-943.5-1587.9z M-937.2-1579.5h1.9v-3.3h2.7
		c1.1,0,1.5,0.4,1.5,1.5v1.8h1.9v-2.2c0-1.2-0.6-1.9-1.7-1.9v-0.1c1.5-0.3,1.8-0.8,1.8-2.8c0-2.2-0.8-3-3.2-3h-4.9V-1579.5z
		 M-935.2-1584.5v-3.4h2.8c1.2,0,1.5,0.3,1.5,1.7c0,0.9-0.1,1.2-0.4,1.4c-0.4,0.2-0.8,0.4-1.2,0.3H-935.2z"/>
</g>
<g id="Group_3286" transform="translate(488 214.861)">
	<rect id="Rectangle_592" x="-394" y="-214.9" class="st3" width="68.5" height="17"/>
</g>
<g>
	<g>
		<rect x="11.6" y="91.2" class="st4" width="232.1" height="25.4"/>
		<g>
			<path class="st5" d="M127.9,75.6h9.8v1.9h-9.8v9.3h-2.3V66.5H138v2h-10.1V75.6z"/>
			<path class="st5" d="M142.6,75.4h10.2v1.9h-10.2v7.5h10.7v2h-12.9V66.5h12.9v2h-10.7V75.4z"/>
			<path class="st5" d="M156.2,66.5h9.3c2.9,0,4.6,0.5,5.6,1.7c1.4,1.5,1.7,3.3,1.7,7.5c0,4.9-0.2,6.6-1,8c-0.8,1.4-1.8,2.2-3.5,2.6
				c-0.9,0.2-1.8,0.3-2.4,0.3h-9.9L156.2,66.5L156.2,66.5z M165,84.8c2.2,0,3.8-0.4,4.4-1.3c0.9-1.1,1.2-2.6,1.2-6.4
				c0-4.9-0.2-6-1-7.2c-0.7-1-1.9-1.4-4.1-1.4h-7v16.2H165z"/>
			<path class="st5" d="M178.3,75.4h10.2v1.9h-10.2v7.5H189v2h-12.9V66.5H189v2h-10.7V75.4z"/>
			<path class="st5" d="M191.9,66.5h9.6c4.3,0,5.9,1.5,5.9,5.8c0,3.6-0.8,4.9-3.5,5.3l0,0c2.1,0.1,3.2,1.5,3.2,3.9v5.1h-2.3v-4.6
				c0.1-2.6-1.1-3.6-3.8-3.5h-6.9v8.1h-2.3L191.9,66.5L191.9,66.5z M200.7,76.7c3.3,0,4.4-0.9,4.4-3.6c0-2.1-0.1-3-0.6-3.5
				c-0.4-0.7-1.4-1-3-1h-7.3v8.1L200.7,76.7L200.7,76.7z"/>
			<path class="st5" d="M213.3,82.5l-1.5,4.3h-2.4l7.3-20.1h3.2l7.5,20.1H225l-1.5-4.3H213.3z M218.3,68.4l-4.4,12.2h8.9L218.3,68.4
				z"/>
			<path class="st5" d="M231.8,84.6h10.4v2.1h-12.6V66.5h2.3L231.8,84.6L231.8,84.6z"/>
		</g>
		<g>
			<path class="st5" d="M27,58.7h1.2c5,0,5.7-0.1,6.7-0.5c1.1-0.6,1.5-1.5,1.5-3.5c0-4.4-0.7-4.9-6.7-4.9c-5.6,0-6.2,0.6-6.2,6.2
				H11.9c0.1-6.7,0.2-8,1.5-10.1c2.2-4,7-5.7,16.1-5.7c13.6,0,18.7,3.4,18.7,12.4c0,4.2-1.1,7.3-3.3,9c-1.1,0.8-2.2,1.2-4.3,1.6v0.2
				c5.6,0.2,8.1,3.5,8.1,10.2c0,4.9-1.2,8-3.8,10.1c-3,2.6-6.5,3.3-14.6,3.3c-8.4,0-12.3-0.8-15.2-3.2c-2.5-2-4-5.9-4-10.7l0.1-2.7
				h11.6c-0.1,0.6-0.1,1.2-0.1,1.5c0,4.4,1.2,5.3,7.3,5.3c5.9,0,6.9-0.7,6.9-5.7c0-1.6-0.2-2.6-1-3.1c-1.1-0.9-1.4-1-7.8-1h-1.1
				v-8.9H27z"/>
			<path class="st5" d="M83.7,42.2c3.9,2.2,5.6,5.2,6.1,10.3c0.2,1.9,0.2,5,0.2,11c0,12.2-0.2,14.4-2.1,17.4
				c-1.6,2.5-4.2,4.4-7.3,5.2c-1.9,0.5-5.6,0.8-9.9,0.8c-6.7,0-10.2-0.6-12.8-2.1c-3.8-2.2-5.6-5.2-6-10.3
				c-0.2-1.9-0.2-5.1-0.2-11.2c0-12,0.2-14.3,2.1-17.2c1.5-2.4,4.2-4.4,7.3-5.2c1.8-0.5,5.7-0.8,9.8-0.8
				C77.8,40.2,81,40.7,83.7,42.2z M78.3,62.9c0-9.1-0.1-10.1-1.2-11.2s-2.6-1.4-7.4-1.4c-3,0-4.2,0.4-5.1,1.6
				c-1,1.4-1.1,2.8-1.1,10.4c0,0.7,0,0.7,0.1,4.9c0,5.1,0,5.1,0.2,6.3c0.6,2.8,1.9,3.4,7.4,3.4c3.5,0,4.9-0.4,5.8-1.7
				c0.6-0.7,1-2.2,1.1-4c0-0.5,0-0.5,0.1-4.6L78.3,62.9z"/>
		</g>
		<g>
			<path class="st5" d="M249.7,121.1l-1.5,0.6l0.9,1.3l-0.6,0.5l-0.9-1.4l-1,1.4l-0.6-0.5l0.9-1.3l-1.5-0.6l0.2-0.8l1.5,0.6v-1.6
				h0.8v1.6l1.5-0.6L249.7,121.1z"/>
		</g>
		<g>
			<path class="st5" d="M25.9,149.4h-7.5v-21.7h-7.2v-6.4h22.3v6.4h-7.6V149.4z"/>
			<path class="st5" d="M40.9,144.5l-1.4,4.9h-7.8l8.5-28.1h11.4l8.6,28.1h-7.7l-1.5-4.9H40.9z M45.9,126.9l-3.5,12.2h7L45.9,126.9z
				"/>
			<path class="st5" d="M81.6,134.9l8.3,14.4h-8.7l-2.8-5.7l-1.4-2.8l-0.6-1.4l-0.7-1.4h-0.1l-0.7,1.4l-0.7,1.4l-1.4,2.8l-2.8,5.7
				h-8.8l8.5-14.4l-7.9-13.6h8.7l2.6,5.1l1.2,2.6l0.6,1.2l0.6,1.3h0.1l0.6-1.3l0.6-1.2l1.2-2.6l2.6-5.1h8.7L81.6,134.9z"/>
			<path class="st5" d="M126.5,138.8v0.9c-0.1,4.9-0.5,6.3-2.5,8c-1,0.9-2.5,1.5-4,1.8c-0.9,0.2-2.7,0.2-5.2,0.2
				c-5.1,0-6.4-0.1-8.1-0.9c-2.4-1.1-4-3.1-4.5-5.9c-0.3-1.4-0.5-5.3-0.5-10c0-4.9,0.7-7.2,2.6-9.1c2.3-2.2,4.4-2.7,11.1-2.7
				c4.2,0,5.5,0.2,7.2,0.9c2,1,3.1,2.6,3.5,5.2c0.1,1,0.2,1.7,0.2,4.1h-7.5c-0.1-1.8-0.1-2-0.4-2.6c-0.5-0.9-1.6-1.2-4.3-1.2
				c-2.7,0-3.8,0.5-4.3,1.9c-0.3,1-0.4,2.5-0.4,8.3c0,4.4,0.9,5.4,4.9,5.4c3.7,0,4.7-0.7,4.7-3.6c0-0.1,0-0.5-0.1-0.8L126.5,138.8
				L126.5,138.8z"/>
			<path class="st5" d="M129.9,121.2h14.2c4.1,0,5.9,0.4,7.5,1.7c1.8,1.4,2.5,3.3,2.5,7.1c0,4.1-0.5,6-1.9,7.1
				c-0.7,0.6-1.4,0.9-3.4,1.4v0.3c3.5,0.2,5.1,2,5.1,5.5v5.1h-7.7v-3.8c0.1-2.6-0.9-3.8-3.1-3.7h-5.6v7.5h-7.5L129.9,121.2
				L129.9,121.2z M143.4,135.6c2.5,0,3-0.7,3-4.4c0-2.8-0.6-3.4-3.3-3.4h-5.6v7.8H143.4z"/>
			<path class="st5" d="M165.4,132.5h12v5.2h-12v5.5h13.1v6.2h-20.7v-28.1h20.4v6.2h-12.8L165.4,132.5L165.4,132.5z"/>
			<path class="st5" d="M182.2,121.2h14.7c2.8,0,5.2,0.5,6.8,1.4c2.7,1.7,4.1,4.7,4.1,9.1l-0.1,3.3c0,6.9-0.2,8.5-1.8,10.9
				c-1.7,2.5-4.5,3.5-9.5,3.5h-14.3L182.2,121.2L182.2,121.2L182.2,121.2z M195.9,142.9c1.9,0,2.8-0.4,3.5-1.7
				c0.6-1,0.7-2.5,0.7-6.4c0-3.3-0.2-4.9-0.7-5.8c-0.6-1-1.5-1.4-3.5-1.4h-6.1v15.1L195.9,142.9L195.9,142.9z"/>
			<path class="st5" d="M219.1,149.4h-7.5v-28.1h7.5V149.4z"/>
			<path class="st5" d="M236.4,149.4h-7.5v-21.7h-7.1v-6.4h22.3v6.4h-7.6L236.4,149.4L236.4,149.4z"/>
		</g>
		<g>
			<path class="st5" d="M101.5,64.3c1,0.9,1.2,1.7,1.2,4.1c0,3.1-0.1,3.6-0.4,4.5c-0.6,1.7-1.6,2.2-4.6,2.2c-2.2,0-3-0.2-3.8-1
				c-0.4-0.4-0.7-1.2-0.8-1.9c-0.1-0.5-0.1-0.6-0.1-3.5c0-2.5,0.1-3.1,0.9-4c0.8-0.9,1.5-1.1,4-1.1
				C100.2,63.5,100.9,63.6,101.5,64.3z M96.2,70.3c0,2,0.1,2.2,1.9,2.2c1.7,0,1.7,0,1.7-3.5c0-2.4,0-2.5-0.4-2.7
				c-0.2-0.2-0.6-0.2-1.7-0.2c-1.4,0-1.5,0.1-1.5,3L96.2,70.3L96.2,70.3z M100.5,86.5h-2.8l13.6-23h2.8L100.5,86.5z M117.6,75.7
				c1,0.9,1.2,1.7,1.2,4.1c0,3.1-0.1,3.6-0.4,4.5c-0.6,1.7-1.6,2.2-4.6,2.2c-2.2,0-3-0.2-3.7-1c-0.4-0.4-0.7-1.2-0.8-1.9
				c-0.1-0.5-0.1-0.6-0.1-3.5c0-2.5,0.1-3.1,0.9-4c0.8-0.9,1.5-1.1,4-1.1C116.3,75,116.9,75.1,117.6,75.7z M112.2,81.8
				c0,2,0.1,2.2,1.9,2.2c1.7,0,1.7,0,1.7-3.5c0-2.4-0.1-2.5-0.4-2.7c-0.2-0.2-0.6-0.2-1.7-0.2c-1.4,0-1.5,0.1-1.5,3L112.2,81.8
				L112.2,81.8z"/>
		</g>
		<g>
			<path class="st0" d="M78,101c0-2-0.4-2.3-2.8-2.3c-2.7,0-3.3,0.4-3.3,2c0,1,0.3,1.5,1.1,1.7c0.4,0.1,0.4,0.1,3.1,0.2
				c2.8,0.2,3.7,0.4,4.6,0.9c1.1,0.7,1.5,1.7,1.5,4c0,2.2-0.3,3.4-1.1,4.1c-1.1,1-2.5,1.3-5.9,1.3c-4.2,0-5.7-0.4-6.5-1.8
				c-0.6-0.8-0.7-1.7-0.7-3.9h3.8v0.3c0,0.9,0.2,1.4,0.6,1.8c0.4,0.3,0.8,0.4,3.1,0.4c1.6,0,2-0.1,2.4-0.4c0.4-0.3,0.6-0.8,0.6-1.7
				c0-0.7-0.1-1.2-0.5-1.4c-0.4-0.3-0.4-0.3-3.5-0.6c-2.8-0.2-3.6-0.3-4.5-0.7c-1.4-0.7-1.9-1.9-1.9-4.4c0-2,0.4-3.3,1.4-4
				c1.1-0.8,2.5-1,5.7-1c3.5,0,4.9,0.3,5.8,1.4c0.6,0.8,0.9,1.8,0.9,3.3c0,0.1,0,0.4,0,0.7H78C78,100.9,78,101,78,101z"/>
			<path class="st0" d="M104.3,96.2c1.6,0.7,2.5,1.9,2.8,3.8c0.2,0.8,0.2,1.9,0.2,4.3c0,3.9-0.2,5.1-0.9,6.4
				c-0.7,1.1-1.9,1.9-3.4,2.2c-0.7,0.2-2.2,0.2-3.7,0.2c-2.7,0-4-0.2-5.1-0.9c-1.4-0.8-2-1.9-2.4-3.6c-0.1-0.8-0.2-1.7-0.2-3.5
				c0-4.5,0.2-6,1-7.2c0.7-1,1.9-1.7,3.3-2c0.7-0.2,2.2-0.2,3.7-0.2C102.1,95.6,103.3,95.8,104.3,96.2z M96.5,99.6
				c-0.7,0.6-0.8,1.2-0.8,5.2c0,2.8,0.1,3.5,0.7,4.1c0.4,0.5,1.2,0.6,3.4,0.6c2.2,0,2.8-0.3,3.2-1.4c0.3-0.8,0.3-1.4,0.3-4
				c0-3.5-0.1-3.9-0.7-4.6c-0.4-0.5-1.1-0.6-3.1-0.6C97.6,99,97,99.1,96.5,99.6z"/>
			<path class="st0" d="M121.4,109.6h7.6v3.5h-11.6V95.7h4L121.4,109.6L121.4,109.6z"/>
			<path class="st0" d="M142.8,109.9l-0.9,3.1h-4.1l5.4-17.2h6l5.6,17.2h-4.1l-1-3.1H142.8z M146.2,98.8l-2.5,8.2h5.1L146.2,98.8z"
				/>
			<path class="st0" d="M163.7,95.7h8.6c1.8,0,3,0.2,3.8,0.6c1.5,0.7,2.1,2,2.1,4.6c0,3.6-0.6,4.4-3.1,5.1v0.1c2,0.1,3,1.3,3,3.4
				v3.5h-4v-2.7c0.1-1.7-0.7-2.5-2.2-2.5h-4v5.1h-4V95.7H163.7z M171.8,104.4c1.9,0,2.3-0.5,2.3-2.8c0-2-0.4-2.5-2.3-2.5h-4.1v5.3
				H171.8z"/>
		</g>
		<path class="st6" d="M184.4,43.6H243l-5.8,15.9h-58.1L184.4,43.6z M168.7,59.4h6.9l5.8-15.9H174L168.7,59.4z M158.3,59.4h6.9
			l5.8-15.9h-7.4L158.3,59.4z M148,59.4h6.9l5.8-15.9h-7.4L148,59.4z M137.6,59.4h6.9l5.8-15.9h-7.4L137.6,59.4z M127.2,59.4h6.9
			l5.8-15.9h-7.4L127.2,59.4z M116.8,59.4h6.9l5.8-15.9h-7.4L116.8,59.4z M106.5,59.4h6.9l5.8-15.9h-7.4L106.5,59.4z M96.1,59.4h6.9
			l5.8-15.9h-7.4L96.1,59.4z"/>
	</g>
</g>
<g class="st7">
	<path class="st0" d="M114.4,6.9V6.7c0-0.9-0.3-1.1-1.6-1.1c-1.6,0-1.9,0.2-1.9,1.2c0,0.6,0.2,0.9,0.6,1c0.2,0.1,0.3,0.1,1.7,0.1
		c1.5,0.1,1.9,0.2,2.4,0.5c0.5,0.4,0.7,0.9,0.7,2c0,1.1-0.2,1.7-0.5,2c-0.5,0.5-1.2,0.7-3,0.7c-1.6,0-2.1-0.1-2.7-0.4
		c-0.3-0.2-0.6-0.6-0.7-1.1c-0.1-0.4-0.1-0.6-0.1-1.3h1.6c0,0.7,0,0.9,0.2,1.1c0.2,0.4,0.4,0.4,1.8,0.4c1,0,1.2,0,1.5-0.2
		c0.2-0.2,0.3-0.5,0.3-1.1c0-0.6-0.1-0.8-0.5-1c-0.2-0.1-0.2-0.1-1.7-0.2c-1.5-0.1-1.8-0.1-2.2-0.4c-0.7-0.3-1-1-1-2.2
		c0-1,0.2-1.7,0.7-2c0.5-0.4,1.2-0.5,2.8-0.5c1.6,0,2.3,0.2,2.8,0.6c0.3,0.4,0.5,0.9,0.5,1.7v0.3H114.4z"/>
	<path class="st0" d="M123.3,4.5c0.8,0.4,1.2,1,1.4,2c0.1,0.4,0.1,0.9,0.1,2.1c0,2.1-0.1,2.7-0.4,3.3c-0.3,0.5-0.9,0.9-1.7,1.1
		c-0.4,0.1-1,0.1-1.9,0.1c-1.3,0-1.9-0.1-2.5-0.4c-0.7-0.4-1-0.9-1.2-1.9c-0.1-0.4-0.1-0.8-0.1-1.9c0-2.2,0.1-2.9,0.5-3.5
		c0.3-0.5,0.9-0.9,1.6-1c0.3-0.1,1.1-0.1,1.8-0.1C122.3,4.2,122.8,4.3,123.3,4.5z M118.8,9c0,1.5,0.1,1.9,0.4,2.3
		c0.2,0.3,0.6,0.4,2,0.4c1.3,0,1.6-0.1,1.8-0.8c0.2-0.4,0.2-0.7,0.2-2.3c0-1.4,0-1.4-0.1-1.8c-0.1-0.5-0.3-0.8-0.6-1
		c-0.3-0.1-0.6-0.1-1.6-0.1c-1.1,0-1.4,0.1-1.7,0.3c-0.3,0.3-0.4,0.7-0.4,1.6V9z"/>
	<path class="st0" d="M127.7,11.5h4V13h-5.7V4.3h1.7V11.5z"/>
	<path class="st0" d="M134.5,11.3L134,13h-1.7l2.9-8.7h2.5l2.9,8.7h-1.7l-0.6-1.7H134.5z M136.4,5.6l-1.5,4.5h3L136.4,5.6z"/>
	<path class="st0" d="M141.3,4.3h4.3c2.1,0,2.8,0.6,2.8,2.6c0,1.7-0.3,2.2-1.6,2.4v0.1c1,0.1,1.5,0.6,1.5,1.7V13h-1.7v-1.6
		c0-0.9-0.4-1.4-1.3-1.3H143V13h-1.7V4.3z M145.3,8.7c0.5,0,0.9-0.1,1.1-0.3c0.3-0.2,0.3-0.5,0.3-1.2c0-1.2-0.2-1.5-1.3-1.5H143v2.9
		H145.3z"/>
</g>
</svg>
