<?xml version="1.0" encoding="utf-8"?>
<!-- Generator: Adobe Illustrator 26.4.1, SVG Export Plug-In . SVG Version: 6.00 Build 0)  -->
<svg version="1.1" id="Layer_1" xmlns="http://www.w3.org/2000/svg" xmlns:xlink="http://www.w3.org/1999/xlink" x="0px" y="0px"
	 viewBox="0 0 257.6 198" style="enable-background:new 0 0 257.6 198;" xml:space="preserve">
<style type="text/css">
	.st0{fill:#FFFFFF;}
	.st1{fill:#707070;}
	.st2{fill:#E65B12;}
	.st3{fill:#004C97;}
	.st4{fill:#CE0109;}
	.st5{fill:none;stroke:#003E86;stroke-width:1.071;stroke-miterlimit:10;}
	.st6{fill:#BF051B;}
	.st7{fill:#003E86;}
	.st8{fill:#0C4E97;}
	.st9{enable-background:new    ;}
</style>
<g id="Group_6327" transform="translate(-1015 -1595.861)">
	<g id="Path_6782" transform="translate(1015 1604.361)">
		<path class="st0" d="M10,0h237.6c5.5,0,10,4.5,10,10v157.9c0,5.5-4.5,10-10,10H10c-5.5,0-10-4.5-10-10V10C0,4.5,4.5,0,10,0z"/>
		<path class="st1" d="M10,0h6v1h-6V0L10,0z M22,0h6v1h-6V0z M34,0h6v1h-6V0z M46,0h6v1h-6V0z M58,0h6v1h-6V0z M70,0h6v1h-6V0z
			 M82,0h6v1h-6V0z M94,0h6v1h-6V0z M106,0h6v1h-6V0z M118,0h6v1h-6V0z M130,0h6v1h-6V0z M142,0h6v1h-6V0z M154,0h6v1h-6V0z M166,0
			h6v1h-6V0z M178,0h6v1h-6V0z M190,0h6v1h-6V0z M202,0h6v1h-6V0z M214,0h6v1h-6V0z M226,0h6v1h-6V0z M238,0h6v1h-6V0z M250,0.3
			C250,0.3,250,0.3,250,0.3C250,0.3,250,0.3,250,0.3C250,0.3,250,0.3,250,0.3C250,0.3,250,0.3,250,0.3C250,0.3,250,0.3,250,0.3
			C250,0.3,250,0.3,250,0.3C250.1,0.3,250.1,0.3,250,0.3c0.1,0,0.1,0,0.1,0c0,0,0,0,0,0c0,0,0,0,0,0c0,0,0,0,0,0c0,0,0,0,0,0
			c0,0,0,0,0,0c0,0,0,0,0,0c0,0,0,0,0,0c0,0,0,0,0,0c0,0,0,0,0,0c0,0,0,0,0,0c0,0,0,0,0,0c0,0,0,0,0,0c0,0,0,0,0,0c0,0,0,0,0,0
			c0,0,0,0,0,0c0,0,0,0,0,0c1.9,0.5,3.5,1.6,4.8,3L254.3,4c-1.2-1.4-2.8-2.3-4.6-2.7L250,0.3L250,0.3z M257.5,8.7
			c0,0.2,0,0.4,0.1,0.5c0,0,0,0,0,0c0,0,0,0,0,0c0,0,0,0,0,0c0,0,0,0,0,0c0,0,0,0,0,0c0,0,0,0,0,0c0,0,0,0,0,0c0,0,0,0,0,0
			c0,0,0,0,0,0c0,0,0,0,0,0c0,0,0,0,0,0c0,0,0,0,0,0c0,0,0,0,0,0c0,0,0,0,0,0c0,0,0,0,0,0c0,0,0,0,0,0c0,0,0,0,0,0c0,0,0,0,0,0
			c0,0,0,0,0,0c0,0,0,0,0,0c0,0,0,0,0,0c0,0,0,0,0,0c0,0,0,0,0,0c0,0,0,0,0,0c0,0,0,0,0,0c0,0,0,0,0,0c0,0,0,0,0,0c0,0,0,0,0,0
			c0,0,0,0,0,0c0,0,0,0,0,0c0,0,0,0,0,0c0,0,0,0,0,0c0,0,0,0,0,0c0,0,0,0,0,0c0,0,0,0,0,0c0,0,0,0,0,0c0,0,0,0,0,0c0,0,0,0,0,0
			c0,0,0,0,0,0c0,0,0,0,0,0c0,0,0,0,0,0c0,0,0,0,0,0c0,0,0,0,0,0c0,0,0,0,0,0c0,0,0,0,0,0c0,0,0,0,0,0c0,0,0,0,0,0c0,0,0,0,0,0
			c0,0,0,0,0,0c0,0,0,0,0,0c0,0,0,0,0,0c0,0,0,0,0,0c0,0,0,0,0,0c0,0,0,0,0,0c0,0,0,0,0,0c0,0,0,0,0,0c0,0,0,0,0,0c0,0,0,0,0,0
			c0,0,0,0,0,0c0,0,0,0,0,0c0,0,0,0,0,0c0,0,0,0,0,0c0,0,0,0,0,0c0,0,0,0,0,0c0,0,0,0,0,0c0,0,0,0,0,0c0,0,0,0,0,0c0,0,0,0,0,0
			c0,0,0,0,0,0c0,0,0,0,0,0c0,0,0,0,0,0c0,0,0,0,0,0c0,0,0,0,0,0c0,0,0,0,0,0c0,0,0,0,0,0c0,0,0,0,0,0c0,0,0,0,0,0c0,0,0,0,0,0
			c0,0,0,0,0,0c0,0,0,0,0,0c0,0,0,0,0,0c0,0,0,0,0,0c0,0,0,0,0,0c0,0,0,0,0,0c0,0,0,0,0,0c0,0,0,0,0,0c0,0,0,0,0,0c0,0,0,0,0,0
			c0,0,0,0,0,0c0,0,0,0,0,0c0,0,0,0,0,0c0,0,0,0,0,0c0,0,0,0,0,0v4.7h-1V10c0-0.4,0-0.8-0.1-1.2L257.5,8.7z M256.6,20.7h1v6h-1V20.7
			z M256.6,32.7h1v6h-1V32.7z M256.6,44.7h1v6h-1V44.7z M256.6,56.7h1v6h-1V56.7z M256.6,68.7h1v6h-1V68.7z M256.6,80.7h1v6h-1V80.7
			z M256.6,92.7h1v6h-1V92.7z M256.6,104.7h1v6h-1V104.7z M256.6,116.7h1v6h-1V116.7z M256.6,128.7h1v6h-1V128.7z M256.6,140.7h1v6
			h-1V140.7z M256.6,152.7h1v6h-1V152.7z M256.6,164.7h1v3.2l0,0c0,0,0,0,0,0c0,0,0,0,0,0c0,0,0,0,0,0c0,0,0,0,0,0c0,0,0,0,0,0
			c0,0,0,0,0,0c0,0,0,0,0,0c0,0,0,0,0,0c0,0,0,0,0,0c0,0,0,0,0,0c0,0,0,0,0,0c0,0,0,0,0,0c0,0,0,0,0,0c0,0,0,0,0,0c0,0,0,0,0,0
			c0,0,0,0,0,0c0,0,0,0,0,0c0,0,0,0,0,0c0,0,0,0,0,0c0,0,0,0,0,0c0,0,0,0,0,0c0,0,0,0,0,0c0,0,0,0,0,0c0,0,0,0,0,0c0,0,0,0,0,0
			c0,0,0,0,0,0c0,0,0,0,0,0c0,0,0,0,0,0c0,0,0,0,0,0c0,0,0,0,0,0c0,0,0,0,0,0c0,0,0,0,0,0c0,0,0,0,0,0c0,0,0,0,0,0c0,0,0,0,0,0
			c0,0,0,0,0,0c0,0,0,0,0,0c0,0,0,0,0,0c0,0,0,0,0,0c0,0,0,0,0,0c0,0,0,0,0,0c0,0,0,0,0,0c0,0,0,0,0,0c0,0,0,0,0,0c0,0,0,0,0,0
			c0,0,0,0,0,0c0,0,0,0,0,0c0,0,0,0,0,0c0,0,0,0,0,0c0,0,0,0,0,0c0,0,0,0,0,0c0,0,0,0,0,0c0,0,0,0,0,0c0,0,0,0,0,0
			c0,0.8-0.2,1.5-0.4,2.2l-1-0.3c0.2-0.8,0.3-1.6,0.3-2.5V164.7z M253.3,174.9l0.6,0.8c-0.8,0.7-1.8,1.2-2.8,1.6l0,0c0,0,0,0,0,0
			l0,0c0,0,0,0,0,0l0,0c0,0-0.1,0-0.1,0c0,0,0,0,0,0c0,0,0,0,0,0c0,0,0,0,0,0c0,0,0,0,0,0c0,0,0,0,0,0c0,0,0,0,0,0l0,0c0,0,0,0,0,0
			c0,0,0,0,0,0c0,0,0,0,0,0c0,0,0,0,0,0c0,0,0,0,0,0c0,0,0,0,0,0c0,0,0,0,0,0c0,0,0,0,0,0c0,0,0,0,0,0c0,0,0,0,0,0c0,0,0,0,0,0
			c0,0,0,0,0,0c0,0,0,0,0,0c0,0,0,0,0,0c0,0,0,0,0,0c0,0,0,0,0,0c0,0,0,0,0,0c0,0,0,0,0,0c0,0,0,0,0,0l0,0c0,0,0,0,0,0c0,0,0,0,0,0
			c0,0,0,0,0,0c0,0,0,0,0,0c0,0,0,0,0,0c0,0,0,0,0,0c0,0,0,0,0,0c0,0,0,0,0,0c0,0,0,0,0,0c0,0,0,0,0,0c0,0,0,0,0,0c0,0,0,0,0,0
			c0,0,0,0,0,0c0,0,0,0,0,0c0,0,0,0,0,0c0,0,0,0,0,0c0,0,0,0,0,0c0,0,0,0,0,0c0,0,0,0,0,0c0,0,0,0,0,0c0,0,0,0,0,0c0,0,0,0,0,0
			c0,0,0,0,0,0c0,0,0,0,0,0c0,0,0,0,0,0c0,0,0,0,0,0s0,0,0,0c0,0,0,0,0,0c0,0,0,0,0,0c0,0,0,0,0,0s0,0,0,0c0,0,0,0,0,0c0,0,0,0,0,0
			c0,0,0,0,0,0c0,0,0,0,0,0c0,0,0,0,0,0c0,0,0,0,0,0c0,0,0,0,0,0c0,0,0,0,0,0c0,0,0,0,0,0c0,0,0,0,0,0c0,0,0,0,0,0c0,0,0,0,0,0
			c0,0,0,0,0,0c0,0,0,0,0,0c0,0,0,0,0,0c0,0,0,0,0,0c0,0,0,0,0,0c0,0,0,0,0,0c0,0,0,0,0,0c0,0,0,0,0,0c0,0,0,0,0,0c0,0,0,0,0,0
			c0,0,0,0,0,0c0,0,0,0,0,0c0,0,0,0,0,0c0,0,0,0,0,0c0,0,0,0,0,0c0,0,0,0,0,0c0,0,0,0,0,0c0,0,0,0,0,0c0,0,0,0,0,0c0,0,0,0,0,0
			c0,0,0,0,0,0c0,0,0,0,0,0c0,0,0,0,0,0c0,0,0,0,0,0c0,0,0,0,0,0c0,0,0,0,0,0c0,0,0,0,0,0c0,0,0,0,0,0c0,0,0,0,0,0c0,0,0,0,0,0
			c0,0,0,0,0,0c0,0,0,0,0,0c0,0,0,0,0,0c0,0,0,0,0,0c0,0,0,0,0,0c0,0,0,0,0,0c0,0,0,0,0,0c0,0,0,0,0,0c0,0,0,0,0,0c0,0,0,0,0,0
			c0,0,0,0,0,0c0,0,0,0,0,0c0,0,0,0,0,0h0c0,0,0,0,0,0c0,0,0,0,0,0c0,0,0,0,0,0c0,0,0,0,0,0c0,0,0,0,0,0c0,0,0,0,0,0
			c-0.3,0-0.5,0.1-0.8,0.1l-0.1-1C250.2,176.7,251.9,176,253.3,174.9z M236.5,176.9h6v1h-6V176.9z M224.5,176.9h6v1h-6V176.9z
			 M212.5,176.9h6v1h-6V176.9z M200.5,176.9h6v1h-6V176.9z M188.5,176.9h6v1h-6V176.9z M176.5,176.9h6v1h-6V176.9z M164.5,176.9h6v1
			h-6V176.9z M152.5,176.9h6v1h-6V176.9z M140.5,176.9h6v1h-6V176.9z M128.5,176.9h6v1h-6V176.9z M116.5,176.9h6v1h-6V176.9z
			 M104.5,176.9h6v1h-6V176.9z M92.5,176.9h6v1h-6V176.9z M80.5,176.9h6v1h-6V176.9z M68.5,176.9h6v1h-6V176.9z M56.5,176.9h6v1h-6
			V176.9z M44.5,176.9h6v1h-6V176.9z M32.5,176.9h6v1h-6V176.9z M20.5,176.9h6v1h-6V176.9z M8.6,176.8c0.4,0.1,0.9,0.1,1.4,0.1h4.5
			v1H10l0,0c0,0,0,0,0,0c0,0,0,0,0,0c0,0,0,0,0,0c0,0,0,0,0,0c0,0,0,0,0,0c0,0,0,0,0,0c0,0,0,0,0,0c0,0,0,0,0,0c0,0,0,0,0,0
			c0,0,0,0,0,0c0,0,0,0,0,0c0,0,0,0,0,0c-0.4,0-0.8,0-1.3-0.1L8.6,176.8z M1.2,169.9c0.4,1.8,1.3,3.4,2.6,4.6l-0.7,0.7
			c0,0-0.1-0.1-0.1-0.1c0,0,0,0,0,0c0,0,0,0,0,0c0,0,0,0,0,0c0,0,0,0,0,0l0,0c0,0,0,0,0,0c0,0,0,0,0,0c0,0,0,0,0,0c0,0,0,0,0,0
			c0,0,0,0,0,0c0,0,0,0,0,0c0,0,0,0,0,0l0,0c0,0,0,0,0,0c0,0,0,0,0,0c0,0,0,0,0,0c0,0,0,0,0,0c0,0,0,0,0,0c0,0,0,0,0,0c0,0,0,0,0,0
			c0,0,0,0,0,0c0,0,0,0,0,0c0,0,0,0,0,0c0,0,0,0,0,0c0,0,0,0,0,0c0,0,0,0,0,0c0,0,0,0,0,0c0,0,0,0,0,0c0,0,0,0,0,0c0,0,0,0,0,0
			c0,0,0,0,0,0c0,0,0,0,0,0c0,0,0,0,0,0c0,0,0,0,0,0c0,0,0,0,0,0c0,0,0,0,0,0c0,0,0,0,0,0c0,0,0,0,0,0c0,0,0,0,0,0c0,0,0,0,0,0
			c0,0,0,0,0,0c0,0,0,0,0,0c0,0,0,0,0,0c0,0,0,0,0,0c0,0,0,0,0,0c0,0,0,0,0,0c0,0,0,0,0,0c0,0,0,0,0,0c0,0,0,0,0,0c0,0,0,0,0,0
			c0,0,0,0,0,0c0,0,0,0,0,0c0,0,0,0,0,0c0,0,0,0,0,0c0,0,0,0,0,0c0,0,0,0,0,0c0,0,0,0,0,0c0,0,0,0,0,0c0,0,0,0,0,0c0,0,0,0,0,0
			c0,0,0,0,0,0c0,0,0,0,0,0c0,0,0,0,0,0c0,0,0,0,0,0c0,0,0,0,0,0c0,0,0,0,0,0c0,0,0,0,0,0c0,0,0,0,0,0c0,0,0,0,0,0c0,0,0,0,0,0
			c0,0,0,0,0,0c0,0,0,0,0,0c0,0,0,0,0,0c0,0,0,0,0,0c0,0,0,0,0,0c0,0,0,0,0,0c0,0,0,0,0,0c0,0,0,0,0,0c0,0,0,0,0,0c0,0,0,0,0,0
			c0,0,0,0,0,0c0,0,0,0,0,0c0,0,0,0,0,0c0,0,0,0,0,0c0,0,0,0,0,0c0,0,0,0,0,0c0,0,0,0,0,0c0,0,0,0,0,0c0,0,0,0,0,0c0,0,0,0,0,0
			c0,0,0,0,0,0c0,0,0,0,0,0c0,0,0,0,0,0c0,0,0,0,0,0c0,0,0,0,0,0c0,0,0,0,0,0c0,0,0,0,0,0c0,0,0,0,0,0c0,0,0,0,0,0c0,0,0,0,0,0
			c0,0,0,0,0,0c0,0,0,0,0,0c0,0,0,0,0,0c0,0,0,0,0,0c0,0,0,0,0,0c0,0,0,0,0,0c0,0,0,0,0,0c0,0,0,0,0,0c0,0,0,0,0,0c0,0,0,0,0,0
			c0,0,0,0,0,0c0,0,0,0,0,0c0,0,0,0,0,0c0,0,0,0,0,0c0,0,0,0,0,0c0,0,0,0,0,0c0,0,0,0,0,0c0,0,0,0,0,0c0,0,0,0,0,0c0,0,0,0,0,0
			c0,0,0,0,0,0c0,0,0,0,0,0c0,0,0,0,0,0c0,0,0,0,0,0c0,0,0,0,0,0c0,0,0,0,0,0c0,0,0,0,0,0c0,0,0,0,0,0c0,0,0,0,0,0c0,0,0,0,0,0
			c0,0,0,0,0,0c0,0,0,0,0,0c0,0,0,0,0,0c0,0,0,0,0,0c0,0,0,0,0,0c0,0,0,0,0,0c0,0,0,0,0,0c0,0,0,0,0,0c0,0,0,0,0,0c0,0,0,0,0,0
			c0,0,0,0,0,0c0,0,0,0,0,0c0,0,0,0,0,0c0,0,0,0,0,0c0,0,0,0,0,0c0,0,0,0,0,0c0,0,0,0,0,0c0,0,0,0,0,0c0,0,0,0,0,0c0,0,0,0,0,0
			c0,0,0,0,0,0c0,0,0,0,0,0c0,0,0,0,0,0c0,0,0,0,0,0c0,0,0,0,0,0c0,0,0,0,0,0c0,0,0,0,0,0c0,0,0,0,0,0c0,0,0,0,0,0c0,0,0,0,0,0
			c0,0,0,0,0,0c0,0,0,0,0,0c0,0,0,0,0,0c0,0,0,0,0,0c0,0,0,0,0,0c0,0,0,0,0,0s0,0,0,0c0,0,0,0,0,0c0,0,0,0,0,0c0,0,0,0,0,0
			c0,0,0,0,0,0c0,0,0,0,0,0c0,0,0,0,0,0c0,0,0,0,0,0c0,0,0,0,0,0c0,0,0,0,0,0c0,0,0,0,0,0c0,0,0,0,0,0c0,0,0,0,0,0c0,0,0,0,0,0
			c0,0,0,0,0,0c0,0,0,0,0,0c0,0,0,0,0,0c0,0,0,0,0,0c0,0,0,0,0,0c0,0,0,0,0,0c0,0,0,0,0,0c0,0,0,0,0,0c0,0,0,0,0,0c0,0,0,0,0,0
			c0,0,0,0,0,0c0,0,0,0,0,0c0,0,0,0,0,0c0,0,0,0,0,0c0,0,0,0,0,0c0,0,0,0,0,0c0,0,0,0,0,0c0,0,0,0,0,0c0,0,0,0,0,0c0,0,0,0,0,0
			c0,0,0,0,0,0c0,0,0,0,0,0c0,0,0,0,0,0c0,0,0,0,0,0c0,0,0,0,0,0c0,0,0,0,0,0c0,0,0,0,0,0c0,0,0,0,0,0c0,0,0,0,0,0c0,0,0,0,0,0
			c0,0,0,0,0,0c0,0,0,0,0,0c0,0,0,0,0,0c0,0,0,0,0,0c0,0,0,0,0,0c0,0,0,0,0,0c0,0,0,0,0,0c0,0,0,0,0,0c0,0,0,0,0,0c0,0,0,0,0,0
			c0,0,0,0,0,0l0,0c0,0,0,0,0,0c0,0,0,0,0,0c0,0,0,0,0,0c0,0,0,0,0,0c0,0,0,0,0,0c0,0,0,0,0,0c0,0,0,0,0,0c0,0,0,0,0,0c0,0,0,0,0,0
			c0,0,0,0,0,0c0,0,0,0,0,0c0,0,0,0,0,0c0,0,0,0,0,0c0,0,0,0,0,0c0,0,0,0,0,0c0,0,0,0,0,0c0,0,0,0,0,0c0,0,0,0,0,0c0,0,0,0,0,0
			c0,0,0,0,0,0c0,0,0,0,0,0c0,0,0,0,0,0c0,0,0,0,0,0c0,0,0,0,0,0c0,0,0,0,0,0c0,0,0,0,0,0c0,0,0,0,0,0c0,0,0,0,0,0c0,0,0,0,0,0
			c0,0,0,0,0,0c0,0,0,0,0,0c0,0,0,0,0,0c0,0,0,0,0,0c0,0,0,0,0,0c0,0,0,0,0,0c0,0,0,0,0,0c0,0,0,0,0,0c0,0,0,0,0,0c0,0,0,0,0,0
			c0,0,0,0,0,0c0,0,0,0,0,0c0,0,0,0,0,0c0,0,0,0,0,0c0,0,0,0,0,0c0,0,0,0,0,0c0,0,0,0,0,0c0,0,0,0,0,0c0,0,0,0,0,0c0,0,0,0,0,0
			c0,0,0,0,0,0c0,0,0,0,0,0c0,0,0,0,0,0c0,0,0,0,0,0c0,0,0,0,0,0c0,0,0,0,0,0c0,0,0,0,0,0c0,0,0,0,0,0c0,0,0,0,0,0c0,0,0,0,0,0
			c0,0,0,0,0,0c0,0,0,0,0,0c0,0,0,0,0,0c0,0,0,0,0,0c0,0,0,0,0,0c0,0,0,0,0,0c0,0,0,0,0,0c0,0,0,0,0,0c0,0,0,0,0,0c0,0,0,0,0,0
			c0,0,0,0,0,0c0,0,0,0,0,0c0,0,0,0,0,0c0,0,0,0,0,0c0,0,0,0,0,0c0,0,0,0,0,0c0,0,0,0,0,0c0,0,0,0,0,0c0,0,0,0,0,0c0,0,0,0,0,0
			c0,0,0,0,0,0c0,0,0,0,0,0c0,0,0,0,0,0c0,0,0,0,0,0c0,0,0,0,0,0c0,0,0,0,0,0c0,0,0,0,0,0c0,0,0,0,0,0c0,0,0,0,0,0c0,0,0,0,0,0
			c0,0,0,0,0,0c0,0,0,0,0,0c0,0,0,0,0,0c0,0,0,0,0,0c0,0,0,0,0,0c0,0,0,0,0,0c0,0,0,0,0,0c0,0,0,0,0,0c0,0,0,0,0,0c0,0,0,0,0,0
			c0,0,0,0,0,0c0,0,0,0,0,0c0,0,0,0,0,0c0,0,0,0,0,0c0,0,0,0,0,0c0,0,0,0,0,0c0,0,0,0,0,0c0,0,0,0,0,0c0,0,0,0,0,0c0,0,0,0,0,0
			c0,0,0,0,0,0c0,0,0,0,0,0c0,0,0,0,0,0c0,0,0,0,0,0c0,0,0,0,0,0c0,0,0,0,0,0l0,0c0,0,0,0,0,0c0,0,0,0,0,0c0,0,0,0,0,0c0,0,0,0,0,0
			c0,0,0,0,0,0c0,0,0,0,0,0c0,0,0,0,0,0c0,0,0,0,0,0c0,0,0,0,0,0c0,0,0,0,0,0c0,0,0,0,0,0c0,0,0,0,0,0c0,0,0,0,0,0c0,0,0,0,0,0
			c0,0,0,0,0,0l0,0c0,0,0,0,0,0c0,0,0,0,0,0c0,0,0,0,0,0c0,0,0,0,0,0c0,0,0,0,0,0c0,0,0,0,0,0c0,0,0,0,0,0c0,0,0,0,0,0c0,0,0,0,0,0
			c0,0,0,0,0,0c0,0,0,0,0,0c0,0,0,0,0,0c0,0,0,0,0,0c0,0,0,0,0,0c0,0,0,0,0,0c0,0,0,0,0,0c0,0,0,0,0,0c0,0,0,0,0,0c0,0,0,0,0,0
			c0,0,0,0,0,0c0,0,0,0,0,0c0,0,0,0,0,0c0,0,0,0,0,0c0,0,0,0,0,0c0,0,0,0,0,0c0,0,0,0,0,0c0,0,0,0,0,0c0,0,0,0,0,0c0,0,0,0,0,0
			c0,0,0,0,0,0c0,0,0,0,0,0c0,0,0,0,0,0c0,0,0,0,0,0c0,0,0,0,0,0c0,0,0,0,0,0c0,0,0,0,0,0c0,0,0,0,0,0c0,0,0,0,0,0c0,0,0,0,0,0
			c0,0,0,0,0,0c0,0,0,0,0,0c0,0,0,0,0,0c0,0,0,0,0,0c0,0,0,0,0,0c0,0,0,0,0,0c0,0,0,0,0,0c0,0,0,0,0,0c0,0,0,0,0,0c0,0,0,0,0,0
			c0,0,0,0,0,0c0,0,0,0,0,0c0,0,0,0,0,0c0,0,0,0,0,0c0,0,0,0,0,0c0,0,0,0,0,0c0,0,0,0,0,0c0,0,0,0,0,0c0,0,0,0,0,0c0,0,0,0,0,0
			c0,0,0,0,0,0c0,0,0,0,0,0c0,0,0,0,0,0c0,0,0,0,0,0c0,0,0,0,0,0c0,0,0,0,0,0c0,0,0,0,0,0c0,0,0,0,0,0c0,0,0,0,0,0c0,0,0,0,0,0
			c0,0,0,0,0,0c0,0,0,0,0,0c0,0,0,0,0,0c0,0,0,0,0,0c0,0,0,0,0,0c0,0,0,0,0,0c0,0,0,0,0,0c0,0,0,0,0,0c0,0,0,0,0,0c0,0,0,0,0,0
			c0,0,0,0,0,0s0,0,0,0c0,0,0,0,0,0c0,0,0,0,0,0c0,0,0,0,0,0c0,0,0,0,0,0c0,0,0,0,0,0c0,0,0,0,0,0c0,0,0,0,0,0c0,0,0,0,0,0
			c0,0,0,0,0,0c0,0,0,0,0,0c0,0,0,0,0,0c0,0,0,0,0,0c0,0,0,0,0,0c0,0,0,0,0,0c0,0,0,0,0,0c0,0,0,0,0,0c0,0,0,0,0,0c0,0,0,0,0,0
			c0,0,0,0,0,0c0,0,0,0,0,0c0,0,0,0,0,0c0,0,0,0,0,0c0,0,0,0,0,0c0,0,0,0,0,0c0,0,0,0,0,0c0,0,0,0,0,0c0,0,0,0,0,0c0,0,0,0,0,0
			c0,0,0,0,0,0c0,0,0,0,0,0c0,0,0,0,0,0c0,0,0,0,0,0c0,0,0,0,0,0c0,0,0,0,0,0c0,0,0,0,0,0c0,0,0,0,0,0c0,0,0,0,0,0c0,0,0,0,0,0
			c0,0,0,0,0,0c0,0,0,0,0,0c0,0,0,0,0,0c0,0,0,0,0,0c0,0,0,0,0,0c0,0,0,0,0,0c0,0,0,0,0,0c0,0,0,0,0,0c0,0,0,0,0,0c0,0,0,0,0,0
			c0,0,0,0,0,0c0,0,0,0,0,0c0,0,0,0,0,0c0,0,0,0,0,0c0,0,0,0,0,0c0,0,0,0,0,0c0,0,0,0,0,0c0,0,0,0,0,0c0,0,0,0,0,0c0,0,0,0,0,0
			c0,0,0,0,0,0c0,0,0,0,0,0c0,0,0,0,0,0c0,0,0,0,0,0c0,0,0,0,0,0c0,0,0,0,0,0c0,0,0,0,0,0c0,0,0,0,0,0c0,0,0,0,0,0l0,0
			c-0.1-0.4-0.2-0.7-0.3-1.1L1.2,169.9z M0,158.1h1v6H0V158.1z M0,146.1h1v6H0V146.1z M0,134.1h1v6H0V134.1z M0,122.1h1v6H0V122.1z
			 M0,110.1h1v6H0V110.1z M0,98.1h1v6H0V98.1z M0,86.1h1v6H0V86.1z M0,74.1h1v6H0V74.1z M0,62.1h1v6H0V62.1z M0,50.1h1v6H0V50.1z
			 M0,38.1h1v6H0V38.1z M0,26.1h1v6H0V26.1z M0,14.1h1v6H0V14.1z M3,2.9l0.7,0.7C2.4,4.9,1.5,6.5,1.2,8.3l-1-0.2
			c0-0.1,0-0.2,0.1-0.3v0c0,0,0,0,0,0l0,0c0,0,0,0,0,0c0,0,0,0,0,0c0,0,0,0,0,0c0,0,0,0,0,0c0,0,0,0,0,0c0,0,0,0,0,0c0,0,0,0,0,0
			c0,0,0,0,0,0c0,0,0,0,0,0c0,0,0,0,0,0c0,0,0,0,0,0c0,0,0,0,0,0c0,0,0,0,0,0c0,0,0,0,0,0c0,0,0,0,0,0c0,0,0,0,0,0c0,0,0,0,0,0
			c0,0,0,0,0,0c0,0,0,0,0,0c0,0,0,0,0,0c0,0,0,0,0,0c0,0,0,0,0,0c0,0,0,0,0,0c0,0,0,0,0,0c0,0,0,0,0,0c0,0,0,0,0,0c0,0,0,0,0,0
			c0,0,0,0,0,0c0,0,0,0,0,0c0,0,0,0,0,0c0,0,0,0,0,0c0,0,0,0,0,0c0,0,0,0,0,0c0,0,0,0,0,0c0,0,0,0,0,0c0,0,0,0,0,0c0,0,0,0,0,0
			c0,0,0,0,0,0c0,0,0,0,0,0c0,0,0,0,0,0c0,0,0,0,0,0c0,0,0,0,0,0c0,0,0,0,0,0c0,0,0,0,0,0c0,0,0,0,0,0c0,0,0,0,0,0c0,0,0,0,0,0
			c0,0,0,0,0,0c0,0,0,0,0,0c0,0,0,0,0,0c0,0,0,0,0,0c0,0,0,0,0,0c0,0,0,0,0,0c0,0,0,0,0,0c0,0,0,0,0,0c0,0,0,0,0,0c0,0,0,0,0,0
			c0,0,0,0,0,0c0,0,0,0,0,0c0,0,0,0,0,0c0,0,0,0,0,0c0,0,0,0,0,0c0,0,0,0,0,0c0,0,0,0,0,0c0,0,0,0,0,0c0,0,0,0,0,0c0,0,0,0,0,0
			c0,0,0,0,0,0l0,0c0,0,0,0,0,0c0,0,0,0,0,0c0.3-1,0.7-1.9,1.3-2.7c0,0,0,0,0,0c0,0,0,0,0,0l0,0c0,0,0,0,0,0c0,0,0,0,0,0
			c0,0,0,0,0,0c0,0,0,0,0,0c0,0,0,0,0,0c0,0,0,0,0,0c0,0,0,0,0,0c0,0,0,0,0,0c0,0,0,0,0,0c0,0,0,0,0,0c0,0,0,0,0,0c0,0,0,0,0,0
			c0,0,0,0,0,0c0,0,0,0,0,0c0,0,0,0,0,0c0,0,0,0,0,0c0,0,0,0,0,0c0,0,0,0,0,0c0,0,0,0,0,0c0,0,0,0,0,0c0,0,0,0,0,0c0,0,0,0,0,0
			c0,0,0,0,0,0c0,0,0,0,0,0c0,0,0,0,0,0c0,0,0,0,0,0c0,0,0,0,0,0c0,0,0,0,0,0c0,0,0,0,0,0c0,0,0,0,0,0c0,0,0,0,0,0l0,0c0,0,0,0,0,0
			c0,0,0,0,0,0c0,0,0,0,0,0c0,0,0,0,0,0c0,0,0,0,0,0c0,0,0,0,0,0c0,0,0,0,0,0c0,0,0,0,0,0c0,0,0,0,0,0c0,0,0,0,0,0c0,0,0,0,0,0
			c0,0,0,0,0,0c0,0,0,0,0,0c0,0,0,0,0,0c0,0,0,0,0,0c0,0,0,0,0,0c0,0,0,0,0,0c0,0,0,0,0,0c0,0,0,0,0,0c0,0,0,0,0,0c0,0,0,0,0,0
			c0,0,0,0,0,0c0,0,0,0,0,0c0,0,0,0,0,0c0,0,0,0,0,0c0,0,0,0,0,0c0,0,0,0,0,0c0,0,0,0,0,0c0,0,0,0,0,0c0,0,0,0,0,0c0,0,0,0,0,0
			c0,0,0,0,0,0c0,0,0,0,0,0c0,0,0,0,0,0c0,0,0,0,0,0c0,0,0,0,0,0c0,0,0,0,0,0c0,0,0,0,0,0c0,0,0,0,0,0c0,0,0,0,0,0c0,0,0,0,0,0
			c0,0,0,0,0,0c0,0,0,0,0,0c0,0,0,0,0,0c0,0,0,0,0,0c0,0,0,0,0,0c0,0,0,0,0,0c0,0,0,0,0,0c0,0,0,0,0,0c0,0,0,0,0,0c0,0,0,0,0,0
			c0,0,0,0,0,0c0,0,0,0,0,0c0,0,0,0,0,0c0,0,0,0,0,0c0,0,0,0,0,0c0,0,0,0,0,0c0,0,0,0,0,0c0,0,0,0,0,0c0,0,0,0,0,0c0,0,0,0,0,0
			c0,0,0,0,0,0c0,0,0,0,0,0c0,0,0,0,0,0c0,0,0,0,0,0c0,0,0,0,0,0c0,0,0,0,0,0c0,0,0,0,0,0c0,0,0,0,0,0c0,0,0,0,0,0c0,0,0,0,0,0
			c0,0,0,0,0,0c0,0,0,0,0,0c0,0,0,0,0,0c0,0,0,0,0,0c0,0,0,0,0,0c0,0,0,0,0,0c0,0,0,0,0,0c0,0,0,0,0,0c0,0,0,0,0,0c0,0,0,0,0,0
			c0,0,0,0,0,0c0,0,0,0,0,0c0,0,0,0,0,0c0,0,0,0,0,0c0,0,0,0,0,0c0,0,0,0,0,0c0,0,0,0,0,0c0,0,0,0,0,0c0,0,0,0,0,0c0,0,0,0,0,0
			c0,0,0,0,0,0c0,0,0,0,0,0c0,0,0,0,0,0c0,0,0,0,0,0c0,0,0,0,0,0c0,0,0,0,0,0c0,0,0,0,0,0c0,0,0,0,0,0c0,0,0,0,0,0c0,0,0,0,0,0
			c0,0,0,0,0,0c0,0,0,0,0,0c0,0,0,0,0,0c0,0,0,0,0,0c0,0,0,0,0,0c0,0,0,0,0,0c0,0,0,0,0,0c0,0,0,0,0,0c0,0,0,0,0,0c0,0,0,0,0,0
			c0,0,0,0,0,0c0,0,0,0,0,0c0,0,0,0,0,0c0,0,0,0,0,0c0,0,0,0,0,0c0,0,0,0,0,0c0,0,0,0,0,0c0,0,0,0,0,0c0,0,0,0,0,0c0,0,0,0,0,0l0,0
			c0,0,0,0,0,0l0,0c0,0,0,0,0,0c0,0,0,0,0,0c0,0,0,0,0,0c0,0,0,0,0,0c0,0,0,0,0,0c0,0,0,0,0,0c0,0,0,0,0,0c0,0,0,0,0,0c0,0,0,0,0,0
			c0,0,0,0,0,0c0,0,0,0,0,0c0,0,0,0,0,0C2.8,3.1,2.9,3,3,2.9z M10,0v1C9.5,1,8.9,1,8.4,1.1l-0.2-1c0.3,0,0.5-0.1,0.8-0.1
			c0,0,0,0,0,0c0,0,0,0,0,0c0,0,0,0,0,0c0,0,0,0,0,0c0,0,0,0,0.1,0c0,0,0,0,0,0c0,0,0,0,0,0c0,0,0,0,0,0c0,0,0,0,0,0c0,0,0,0,0,0
			c0,0,0,0,0,0c0,0,0,0,0.1,0c0,0,0,0,0,0c0,0,0,0,0,0c0,0,0,0,0,0c0,0,0,0,0,0c0,0,0,0,0,0c0,0,0,0,0,0c0,0,0,0,0,0c0,0,0,0,0,0
			c0,0,0,0,0,0c0,0,0,0,0,0c0,0,0,0,0,0c0,0,0,0,0,0c0,0,0,0,0,0c0,0,0,0,0,0c0,0,0,0,0,0c0,0,0,0,0,0c0,0,0,0,0,0c0,0,0,0,0,0
			c0,0,0,0,0,0c0,0,0,0,0,0c0,0,0,0,0,0c0,0,0,0,0,0c0,0,0,0,0,0c0,0,0,0,0,0c0,0,0,0,0,0c0,0,0,0,0,0c0,0,0,0,0,0c0,0,0,0,0,0
			c0,0,0,0,0,0s0,0,0,0c0,0,0,0,0,0c0,0,0,0,0,0c0,0,0,0,0,0c0,0,0,0,0,0c0,0,0,0,0,0c0,0,0,0,0,0c0,0,0,0,0,0c0,0,0,0,0,0
			c0,0,0,0,0,0c0,0,0,0,0,0c0,0,0,0,0,0C9.9,0,9.9,0,10,0C9.9,0,9.9,0,10,0C9.9,0,9.9,0,10,0C9.9,0,9.9,0,10,0C10,0,10,0,10,0
			C10,0,10,0,10,0C10,0,10,0,10,0z"/>
	</g>
	<g id="Group_1063" transform="translate(1091.607 1770.089)">
		<path id="Rectangle_375" class="st2" d="M5,0h94.6c2.8,0,5,2.2,5,5v13.8c0,2.8-2.2,5-5,5H5c-2.8,0-5-2.2-5-5V5C0,2.2,2.2,0,5,0z"
			/>
		<path id="Path_9240" class="st0" d="M18,11.1v1.4h2.5c0,0.2,0,0.4,0,0.4c0.1,0.6-0.1,1.1-0.4,1.6c-0.3,0.3-0.8,0.4-1.9,0.4
			c-1.6,0-2.1-0.2-2.4-0.7c-0.2-0.9-0.3-1.9-0.2-2.8c-0.1-0.9,0-1.8,0.2-2.7c0.3-0.6,0.8-0.7,2.2-0.7c2.1,0,2.3,0.1,2.4,1.5h1.9
			c0-1.5-0.3-2.2-1-2.6s-1.2-0.5-3.2-0.5c-0.8,0-1.6,0-2.4,0.2c-0.9,0.2-1.7,1-1.9,1.9c-0.2,1.3-0.3,2.6-0.2,3.9
			c0,2.3,0.4,3.3,1.7,3.8c0.8,0.3,1.7,0.4,2.6,0.3c2.4,0,3.2-0.2,3.8-0.8c0.5-0.6,0.7-1.2,0.7-2.9c0-0.9,0-1.2,0-1.7H18z M25.7,8
			h4.9V6.4h-6.8v10h6.9v-1.6h-5V12h4.7v-1.4h-4.7V8z M36.3,8h3V6.4h-7.8V8h2.9v8.3h1.9V8z M48.2,6.3c-0.7,0-1.4,0-2.1,0.1
			c-0.8,0.1-1.4,0.5-1.9,1.2c-0.5,0.7-0.6,1.5-0.6,4c0,0.7,0,1.5,0.1,2.2c0.1,0.9,0.6,1.7,1.4,2.2c0.9,0.4,1.9,0.5,2.8,0.5
			c0.7,0,1.5,0,2.2-0.1c0.8-0.1,1.5-0.6,1.9-1.2c0.4-0.8,0.5-1.4,0.5-3.8c0-0.8,0-1.6-0.1-2.4c-0.1-1-0.7-1.9-1.6-2.3
			C50,6.3,49.1,6.2,48.2,6.3L48.2,6.3z M45.6,10.1c0-1,0.1-1.5,0.5-1.8C46.4,8,46.8,7.9,48,7.9c0.6-0.1,1.2,0,1.8,0.2
			c0.4,0.2,0.7,0.7,0.7,1.1c0.1,0.7,0.1,1.4,0.1,2.1c0.1,0.9,0,1.8-0.2,2.6c-0.3,0.7-0.7,0.9-2.1,0.9c-1.5,0-2-0.1-2.3-0.4
			c-0.4-0.4-0.4-0.9-0.4-2.6L45.6,10.1z M55.9,8h4.7V6.4H54v10h1.9v-4.1h4.5v-1.6h-4.5L55.9,8z M63.7,8h4.7V6.4h-6.6v10h1.9v-4.1
			h4.5v-1.6h-4.5L63.7,8z M71.5,8h4.9V6.4h-6.8v10h6.9v-1.6h-5V12h4.7v-1.4h-4.7L71.5,8z M77.8,16.4h1.9V13h2.7
			c1.1,0,1.5,0.4,1.5,1.5v1.8h1.9v-2.2c0-1.2-0.6-1.9-1.7-2v-0.1c1.5-0.3,1.8-0.8,1.8-2.8c0-2.2-0.8-3-3.2-3h-4.9V16.4z M79.8,11.4
			V8h2.8C83.8,8,84,8.3,84,9.7c0,0.9-0.1,1.2-0.4,1.4c-0.4,0.2-0.8,0.4-1.2,0.3H79.8z"/>
	</g>
	<path id="Path_9246" class="st3" d="M1079.3,1627h2.8v-2h-7.8v2h2.7v8h2.3V1627z M1085.4,1626.9h4.7v-1.9h-7.1v10h7.1v-1.9h-4.8
		v-2.4h4.5v-1.6h-4.5L1085.4,1626.9z M1099.3,1628c0-0.2,0-0.3,0-0.4c0-0.7-0.1-1.4-0.6-1.9c-0.5-0.6-1.3-0.8-3.4-0.8
		c-1.9,0-2.7,0.1-3.3,0.6c-0.6,0.6-0.9,1.5-0.8,2.3c0,1.4,0.3,2.2,1.1,2.6c0.8,0.3,1.7,0.5,2.6,0.4c1.8,0.1,1.8,0.1,2.1,0.3
		c0.2,0.1,0.3,0.4,0.3,0.8c0.1,0.4-0.1,0.7-0.3,1c-0.3,0.2-0.5,0.2-1.4,0.2c-1.4,0-1.6,0-1.8-0.2c-0.3-0.3-0.4-0.7-0.3-1.1v-0.2
		h-2.2c-0.1,0.8,0.1,1.6,0.4,2.2c0.5,0.8,1.4,1,3.8,1c2,0,2.8-0.2,3.4-0.8c0.5-0.4,0.7-1.1,0.7-2.4c0-1.3-0.2-1.9-0.9-2.3
		c-0.8-0.4-1.7-0.6-2.7-0.5c-0.6,0-1.2-0.1-1.8-0.2c-0.4-0.1-0.6-0.4-0.6-1c0-1,0.3-1.2,1.9-1.2c1.4,0,1.6,0.2,1.6,1.3L1099.3,1628z
		 M1103.2,1625h-2.3v10h6.7v-2h-4.4V1625z M1115,1633.2l0.6,1.8h2.4l-3.2-10h-3.5l-3.2,10h2.4l0.6-1.8H1115z M1114.5,1631.5h-3
		l1.5-4.8L1114.5,1631.5z M1122.5,1635h2.3v-2.9h1.9c1.2,0,1.5,0,1.6,0c0.6,0,1.1-0.2,1.6-0.6c0.6-0.5,0.8-1.3,0.8-2.8
		c0.1-0.9-0.1-1.7-0.5-2.5c-0.5-0.7-1.3-1.1-2.2-1.1c-0.3,0-0.3,0-1.6,0h-4V1635z M1124.8,1630.1v-3.2h2c0.3,0,0.7,0,1,0.1
		c0.4,0.2,0.6,0.5,0.6,1.5c0,1.4-0.2,1.6-1.7,1.6H1124.8z M1136.3,1624.9c-0.7,0-1.4,0-2.2,0.1c-0.8,0.1-1.4,0.6-1.9,1.2
		c-0.5,0.7-0.6,1.6-0.6,4.2c0,0.7,0,1.4,0.1,2c0.1,0.9,0.6,1.7,1.4,2.1c0.9,0.4,2,0.6,3,0.5c0.7,0,1.4,0,2.2-0.1
		c0.8-0.1,1.5-0.6,2-1.3c0.4-0.7,0.5-1.4,0.5-3.7c0-0.8,0-1.7-0.1-2.5c-0.1-1-0.7-1.9-1.7-2.2
		C1138.1,1625,1137.2,1624.8,1136.3,1624.9z M1136.1,1626.9c1.2,0,1.6,0.1,1.8,0.4c0.4,0.4,0.4,0.7,0.4,2.7c0.1,0.8,0,1.6-0.2,2.3
		c-0.2,0.6-0.6,0.8-1.9,0.8c-1.3,0-1.7-0.1-2-0.4c-0.3-0.4-0.4-0.8-0.4-2.4c0-2.3,0.1-2.7,0.5-3.1
		C1134.7,1627,1135,1626.9,1136.1,1626.9z M1156.1,1625h-2.3l-1.1,4.7c-0.2,0.9-0.3,1.2-0.5,2.5l-0.2,0.9h-0.1l-0.3-1.2
		c-0.2-0.7-0.3-1.3-0.5-2.2l-1.2-4.7h-2.5l-1.2,4.6c-0.2,0.8-0.4,1.5-0.4,1.7c-0.1,0.3-0.1,0.6-0.2,0.8l-0.2,0.9h-0.1l-0.2-0.9
		c-0.3-1.5-0.3-1.7-0.5-2.5l-1.1-4.7h-2.3l2.4,10h3.3l1.1-4.1c0.3-1,0.3-1.1,0.5-2.1l0.1-0.7h0.1l0.1,0.7c0.2,1.1,0.2,1.2,0.5,2.1
		l1,4.1h3.3L1156.1,1625z M1159.3,1626.9h4.7v-1.9h-7.1v10h7.1v-1.9h-4.8v-2.4h4.5v-1.6h-4.5L1159.3,1626.9z M1165.5,1635h2.3v-3
		h2.3c0.9,0,1.3,0.4,1.3,1.4v1.6h2.3v-2c0.1-0.9-0.5-1.8-1.4-1.9c-0.1,0-0.2,0-0.3,0v-0.1c1.5-0.3,1.8-0.9,1.8-2.9
		c0-1.5-0.3-2.2-1.2-2.7c-0.7-0.3-1.4-0.4-2.2-0.3h-5L1165.5,1635z M1167.8,1630.1v-3.1h2.4c1.1,0,1.3,0.2,1.3,1.4
		c0,1.3-0.2,1.6-1.3,1.6H1167.8z M1189.3,1625h-2.3l-1.1,4.7c-0.2,0.9-0.3,1.2-0.5,2.5l-0.2,0.9h-0.1l-0.3-1.2
		c-0.2-0.7-0.3-1.3-0.5-2.2l-1.2-4.7h-2.5l-1.2,4.7c-0.2,0.8-0.4,1.5-0.4,1.7c-0.1,0.3-0.1,0.6-0.2,0.8l-0.2,0.9h-0.1l-0.2-0.9
		c-0.3-1.5-0.3-1.7-0.5-2.5l-1.1-4.7h-2.3l2.4,10h3.3l1.1-4.1c0.3-1,0.3-1.1,0.5-2.1l0.2-0.7h0.1l0.2,0.7c0.2,1.1,0.2,1.2,0.5,2.1
		l1,4.1h3.3L1189.3,1625z M1195.5,1633.2l0.6,1.8h2.4l-3.2-10h-3.5l-3.2,10h2.4l0.6-1.8H1195.5z M1195,1631.5h-3l1.5-4.8
		L1195,1631.5z M1201.5,1625h-2.3v10h6.7v-2h-4.4V1625z M1209.2,1625h-2.3v10h6.7v-2h-4.4V1625z"/>
	<g id="Group_3286" transform="translate(488 214.861)">
		<rect id="Rectangle_592" x="586" y="1381" class="st4" width="132" height="17"/>
		<path id="Path_9247" class="st0" d="M597.1,1394h4.5c1.9,0,2.6-0.6,2.6-2.4c0-1.4-0.4-1.9-1.5-2.1v0c0.9-0.2,1.3-0.7,1.3-1.9
			c0-1.1-0.3-1.7-0.8-2c-0.6-0.2-1.2-0.3-1.8-0.3h-4.3V1394z M598.8,1389v-2.3h2.4c0.3,0,0.5,0,0.8,0.1c0.3,0.1,0.4,0.4,0.4,1
			c0,0.6-0.1,0.9-0.4,1c-0.4,0.2-0.8,0.2-1.2,0.2H598.8z M598.8,1392.6v-2.4h2.1c0.4,0,0.8,0,1.2,0.1c0.3,0.2,0.5,0.5,0.5,1.1
			c0,1-0.2,1.2-2,1.2L598.8,1392.6z M610.6,1392.3l0.6,1.7h1.7l-2.9-8.7h-2.5l-2.9,8.7h1.7l0.5-1.7H610.6z M610.2,1391.1h-3l1.5-4.5
			L610.2,1391.1z M616.3,1386.8h2.6v-1.5h-6.7v1.5h2.5v7.2h1.7V1386.8z M623.6,1386.8h2.6v-1.5h-6.7v1.5h2.5v7.2h1.7V1386.8z
			 M628.7,1386.7h4.3v-1.4H627v8.7h6v-1.4h-4.3v-2.4h4v-1.2h-4.1L628.7,1386.7z M634.2,1394h1.7v-2.9h2.3c0.9,0,1.3,0.4,1.3,1.3v1.6
			h1.7v-1.9c0-1.1-0.5-1.6-1.5-1.7v-0.1c1.3-0.2,1.6-0.7,1.6-2.4c0-1.9-0.7-2.6-2.8-2.6h-4.3V1394z M635.9,1389.7v-2.9h2.4
			c1.1,0,1.3,0.2,1.3,1.5c0,0.7-0.1,1-0.3,1.2c-0.3,0.2-0.7,0.3-1.1,0.3L635.9,1389.7z M649.6,1385.3h-1.9l-1.3,2.3
			c-0.1,0.2-0.2,0.4-0.6,1.1l-0.2,0.4h0l-0.2-0.4c-0.4-0.7-0.5-0.9-0.6-1.1l-1.3-2.3h-1.9l3.1,5.4v3.3h1.7v-3.3L649.6,1385.3z
			 M660,1387.9v-0.3c0.1-0.6-0.1-1.2-0.5-1.7c-0.4-0.5-1.1-0.7-2.8-0.7s-2.3,0.1-2.8,0.5c-0.5,0.5-0.8,1.3-0.7,2
			c0,1.2,0.3,1.8,1,2.2c0.7,0.3,1.5,0.4,2.2,0.4c0.6,0,1.1,0,1.7,0.2c0.4,0.1,0.5,0.4,0.5,1c0,0.6-0.1,0.9-0.3,1.1
			c-0.2,0.2-0.5,0.2-1.5,0.2c-1.4,0-1.6,0-1.8-0.4c-0.2-0.3-0.2-0.7-0.2-1.1h-1.6c0,0.4,0,0.9,0.1,1.3c0.1,0.4,0.3,0.8,0.7,1.1
			c0.8,0.4,1.8,0.5,2.7,0.4c1.8,0,2.5-0.1,3-0.7c0.4-0.6,0.6-1.3,0.5-2c0-1.1-0.2-1.6-0.7-2c-0.4-0.3-0.9-0.4-2.4-0.5
			c-0.6,0-1.1,0-1.7-0.1c-0.4-0.1-0.6-0.4-0.6-1c0-1,0.3-1.2,1.9-1.2c1.3,0,1.6,0.2,1.6,1.1v0.2H660z M665,1386.8h2.6v-1.5h-6.7v1.5
			h2.5v7.2h1.7L665,1386.8z M672.1,1385.3c-0.6,0-1.2,0-1.8,0.1c-0.7,0.1-1.2,0.5-1.6,1c-0.4,0.6-0.5,1.3-0.5,3.5
			c0,0.6,0,1.3,0.1,1.9c0,0.8,0.5,1.5,1.2,1.9c0.8,0.3,1.6,0.5,2.5,0.4c0.6,0,1.3,0,1.9-0.1c0.7-0.1,1.3-0.5,1.7-1.1
			c0.4-0.7,0.4-1.2,0.4-3.3c0-0.7,0-1.4-0.1-2.1c-0.1-0.9-0.6-1.6-1.4-2C673.7,1385.3,672.9,1385.2,672.1,1385.3z M669.8,1388.6
			c0-0.9,0.1-1.3,0.4-1.6c0.3-0.3,0.6-0.3,1.7-0.3c0.5-0.1,1.1,0,1.6,0.1c0.4,0.2,0.6,0.6,0.6,1c0.1,0.6,0.1,1.2,0.1,1.8
			c0.1,0.8,0,1.5-0.2,2.3c-0.2,0.6-0.6,0.8-1.8,0.8c-1.3,0-1.7-0.1-2-0.4c-0.3-0.4-0.4-0.8-0.4-2.3V1388.6z M677.1,1394h1.7v-2.9
			h2.3c0.9,0,1.3,0.4,1.3,1.3v1.6h1.7v-1.9c0-1.1-0.5-1.6-1.5-1.7v-0.1c1.3-0.2,1.6-0.7,1.6-2.4c0-1.9-0.7-2.6-2.8-2.6h-4.3V1394z
			 M678.8,1389.7v-2.9h2.4c1.1,0,1.3,0.2,1.3,1.5c0,0.7-0.1,1-0.3,1.2c-0.3,0.2-0.7,0.3-1.1,0.3L678.8,1389.7z M690.9,1392.3
			l0.6,1.7h1.7l-2.9-8.7h-2.5l-2.9,8.7h1.7l0.5-1.7L690.9,1392.3z M690.5,1391.1h-3l1.5-4.5L690.5,1391.1z M697.2,1389.4v1.2h2.2
			c0,0.2,0,0.3,0,0.4c0.1,0.5-0.1,1-0.3,1.4c-0.2,0.2-0.7,0.3-1.7,0.3c-1.4,0-1.8-0.1-2.1-0.6c-0.2-0.8-0.3-1.6-0.2-2.5
			c-0.1-0.8,0-1.6,0.2-2.3c0.2-0.5,0.7-0.6,1.9-0.6c1.8,0,2,0.1,2.1,1.3h1.7c0-1.3-0.2-1.9-0.8-2.3c-0.6-0.4-1-0.4-2.8-0.4
			c-0.7,0-1.4,0-2.1,0.2c-0.8,0.2-1.5,0.9-1.7,1.7c-0.2,1.1-0.3,2.3-0.2,3.4c0,2,0.4,2.8,1.5,3.3c0.7,0.2,1.5,0.3,2.2,0.3
			c2.1,0,2.7-0.1,3.3-0.7c0.5-0.5,0.6-1,0.6-2.5c0-0.7,0-1.1,0-1.5L697.2,1389.4z M703.9,1386.7h4.3v-1.4h-5.9v8.7h6v-1.4h-4.3v-2.4
			h4v-1.2h-4L703.9,1386.7z"/>
	</g>
	<g id="Group_3179" transform="translate(344.853 728.668)">
		<g id="Group_3160" transform="translate(677.581 929.679)">
			<g id="Group_3155" transform="translate(7.29)">
				<line id="Line_53" class="st5" x1="82.1" y1="0" x2="63.7" y2="59.7"/>
				<line id="Line_54" class="st5" x1="172.1" y1="0" x2="153.7" y2="59.7"/>
				<path id="Path_6757" class="st6" d="M7.1,11.4c2.4,0.2,2.8,0.3,3.5,0.5c1.3,0.5,1.9,1.6,1.9,3.5c0,2.1-0.6,3.3-1.9,3.9
					c-1.1,0.4-2.3,0.5-3.4,0.5v1.7H5.2v-1.7c-1.2,0.1-2.3-0.1-3.4-0.5C0.6,18.7,0,17.6,0,15.8c0-0.1,0-0.4,0-0.6h2.9v0.3
					c0,1.6,0.3,1.8,2.3,1.9v-3.5c-1.2,0-2.4-0.2-3.5-0.6c-1.2-0.5-1.6-1.4-1.6-3.4c0-2.2,0.5-3.2,2.1-3.8c1-0.3,2-0.4,3-0.4V4.2h1.9
					v1.5c2.1,0.1,2.9,0.3,3.7,0.8c0.8,0.8,1.2,1.9,1.1,3v0.4H9.2l0-0.2c0-1.1-0.4-1.4-2-1.4V11.4z M4.9,8.3c-1.4,0-1.8,0.3-1.8,1.5
					c0,0.6,0.1,1,0.5,1.2c0.3,0.2,0.3,0.2,1.6,0.3v-3L4.9,8.3z M7.4,17.3c1.6,0,2.1-0.4,2.1-1.8c0-1.3-0.3-1.5-2.3-1.6v3.3L7.4,17.3
					z"/>
				<path id="Path_9244" class="st7" d="M16.9,41.9h4.3c1.5,0,2.4-0.4,2.9-1.4c0.3-0.6,0.4-1.3,0.4-3.7c0-1.5-0.2-2.2-0.8-2.9
					c-0.7-0.6-1.6-0.8-2.4-0.7h-4.3V41.9z M18.6,40.4v-5.8H21c0.8,0,1.2,0.1,1.4,0.5c0.3,0.4,0.3,0.9,0.3,2.4c0,1.5-0.1,2-0.4,2.4
					c-0.3,0.4-0.7,0.5-1.5,0.5L18.6,40.4z M29.3,33.1c-0.6,0-1.2,0-1.8,0.1c-0.7,0.1-1.2,0.5-1.6,1c-0.4,0.6-0.5,1.3-0.5,3.5
					c0,0.6,0,1.3,0.1,1.9c0,0.8,0.5,1.5,1.2,1.9c0.8,0.3,1.6,0.5,2.5,0.4c0.6,0,1.3,0,1.9-0.1c0.7-0.1,1.3-0.5,1.7-1.1
					c0.4-0.7,0.4-1.2,0.4-3.3c0-0.7,0-1.4-0.1-2.1c-0.1-0.9-0.6-1.6-1.4-2C30.9,33.2,30.1,33.1,29.3,33.1z M27.1,36.5
					c0-0.9,0.1-1.3,0.4-1.6c0.3-0.3,0.6-0.3,1.7-0.3c0.5-0.1,1.1,0,1.6,0.1c0.4,0.2,0.6,0.6,0.6,1c0.1,0.6,0.1,1.2,0.1,1.8
					c0.1,0.8,0,1.5-0.2,2.3c-0.2,0.6-0.6,0.8-1.8,0.8c-1.3,0-1.7-0.1-2-0.4c-0.3-0.4-0.4-0.8-0.4-2.3V36.5z M46.4,33.2h-1.7
					l-1.3,4.8c-0.1,0.5-0.2,0.8-0.4,1.9l-0.1,0.6h-0.1l-0.2-0.6c-0.2-1.1-0.3-1.1-0.5-1.9l-1.3-4.8H39l-1.3,4.8
					c-0.2,0.6-0.4,1.4-0.7,2.5h-0.1l-0.1-0.6c-0.2-1.2-0.3-1.4-0.4-1.9l-1.2-4.8h-1.7l2.2,8.7h2.4l1.2-4.4c0.2-0.6,0.2-0.8,0.4-1.6
					l0.1-0.5H40c0.3,1.4,0.3,1.5,0.5,2.1l1.2,4.4h2.4L46.4,33.2z M55.4,33.2h-1.7v5c0,0.8,0,0.9,0,1.7l0,0.6h-0.1l-0.3-0.7
					c-0.6-1.2-0.7-1.5-1-2.1l-2.3-4.4h-2.8v8.7H49v-5c0-0.8,0-0.9,0-1.7l0-0.6H49l0.3,0.6c0.5,1.2,0.7,1.5,0.8,1.9l2.5,4.8h2.8
					L55.4,33.2z"/>
				<path id="Path_6758" class="st6" d="M26.5,30.3c0.1-11,0.1-11.5,1.7-13.4c1.1-1.5,2.8-1.9,7.2-1.9c5.7,0,7.6,0.3,9,1.5
					c1.7,1.5,2,3,2,13.8h11.7c0-6.6-0.1-9.6-0.3-11.7c-0.6-5.9-2.6-9.2-7.2-11.6c-3-1.6-6.5-2.1-14.2-2.1C32.8,4.8,29.2,5,25.6,5.6
					c-3.4,0.8-6.4,2.8-8.4,5.7c-2.1,3.2-2.4,5.6-2.5,19L26.5,30.3z"/>
				<path id="Path_6759" class="st6" d="M44.9,45.7c-1,1.7-3.1,2.4-8.2,2.4c-5.6,0-7.6-0.5-8.7-2c-0.3-0.5-0.6-1-0.8-1.5h-12
					c0.6,5.8,2.6,9.1,7.2,11.5c2.9,1.6,6.7,2.1,14,2.1c3.7,0.1,7.3-0.2,10.9-0.8c3.4-0.8,6.4-2.9,8.4-5.8c1.2-1.9,1.8-3.4,2.2-7.1
					H45.5C45.4,44.9,45.1,45.3,44.9,45.7"/>
				<path id="Path_9245" class="st6" d="M138,6.2c-1.1,0-1.4,0.1-1.7,0.5c-0.3,0.3-0.4,0.6-0.4,1.7c0,0.5,0,1,0.1,1.5
					c0,0.3,0.2,0.6,0.4,0.8c0.3,0.3,0.7,0.4,1.6,0.4c1.3,0,1.7-0.2,2-0.9c0.2-0.6,0.2-1.3,0.1-2c0-1.1-0.1-1.4-0.5-1.8
					C139.3,6.2,139,6.2,138,6.2z M137.2,8.6c0-1.2,0-1.3,0.7-1.3c0.5,0,0.6,0,0.7,0.1c0.2,0.1,0.2,0.1,0.2,1.2c0,1.5,0,1.5-0.8,1.5
					c-0.8,0-0.8-0.1-0.8-0.9V8.6z M145.1,6.2h-1.2l-5.9,10h1.2L145.1,6.2z M145,11.2c-1.1,0-1.4,0.1-1.7,0.5
					c-0.3,0.3-0.4,0.6-0.4,1.7c0,0.5,0,1,0,1.5c0,0.3,0.2,0.6,0.4,0.8c0.3,0.3,0.7,0.4,1.6,0.4c1.3,0,1.7-0.2,2-0.9
					c0.2-0.6,0.2-1.3,0.1-2c0-1.1-0.1-1.4-0.5-1.8C146.3,11.3,146,11.2,145,11.2L145,11.2z M144.2,13.6c0-1.2,0-1.3,0.7-1.3
					c0.5,0,0.6,0,0.7,0.1c0.2,0.1,0.2,0.1,0.2,1.2c0,1.5,0,1.5-0.8,1.5c-0.8,0-0.8-0.1-0.8-0.9L144.2,13.6z"/>
				<path id="Path_9242" class="st7" d="M89.3,33.2h-1.7v8.7h1.7V33.2z M98.8,33.2h-1.7v5c0,0.8,0,0.9,0,1.7l0,0.6h-0.1l-0.3-0.7
					c-0.6-1.2-0.7-1.5-1-2.1l-2.3-4.4h-2.8v8.7h1.6v-5c0-0.8,0-0.9,0-1.7l0-0.6h0.1l0.3,0.6c0.5,1.2,0.7,1.5,0.8,1.9l2.5,4.8h2.8
					L98.8,33.2z M103.9,34.6h2.6v-1.5h-6.7v1.5h2.5v7.2h1.7V34.6z M109.1,34.6h4.3v-1.4h-5.9v8.7h6v-1.4h-4.3V38h4v-1.2h-4V34.6z
					 M114.6,41.9h1.7V39h2.3c0.9,0,1.3,0.4,1.3,1.3v1.6h1.7V40c0-1.1-0.5-1.6-1.5-1.7v-0.1c1.3-0.2,1.6-0.7,1.6-2.4
					c0-1.9-0.7-2.6-2.8-2.6h-4.3V41.9z M116.2,37.6v-2.9h2.4c1.1,0,1.3,0.2,1.3,1.5c0,0.7-0.1,1-0.3,1.2c-0.3,0.2-0.7,0.3-1.1,0.3
					L116.2,37.6z M124.4,34.6h4.3v-1.4h-5.9v8.7h6v-1.4h-4.3V38h4v-1.2h-4L124.4,34.6z M136.4,35.7v-0.3c0.1-0.6-0.1-1.2-0.5-1.7
					c-0.4-0.5-1.1-0.6-2.8-0.6s-2.3,0.1-2.8,0.5c-0.5,0.5-0.8,1.3-0.7,2c0,1.2,0.3,1.8,1,2.2c0.7,0.3,1.5,0.4,2.2,0.4
					c0.6,0,1.1,0,1.7,0.2c0.4,0.1,0.5,0.4,0.5,1c0,0.6-0.1,0.9-0.3,1.1c-0.2,0.2-0.5,0.2-1.5,0.2c-1.4,0-1.6,0-1.8-0.4
					c-0.2-0.3-0.2-0.7-0.2-1.1h-1.6c0,0.4,0,0.9,0.1,1.3c0.1,0.4,0.3,0.8,0.7,1.1c0.8,0.4,1.8,0.5,2.7,0.4c1.8,0,2.5-0.1,3-0.6
					c0.4-0.6,0.6-1.3,0.5-2c0-1.1-0.2-1.6-0.7-2c-0.4-0.3-0.9-0.4-2.4-0.5c-0.6,0-1.1,0-1.7-0.1c-0.4-0.1-0.6-0.4-0.6-1
					c0-1,0.3-1.2,1.9-1.2c1.3,0,1.6,0.2,1.6,1.1v0.2H136.4z M141.4,34.6h2.6v-1.5h-6.7v1.5h2.5v7.2h1.7V34.6z"/>
				<path id="Path_6760" class="st6" d="M123.2,45.7c-1,1.7-3.1,2.4-8.2,2.4c-5.6,0-7.6-0.5-8.7-2c-0.3-0.5-0.6-1-0.8-1.5h-12
					c0.6,5.8,2.6,9.1,7.2,11.5c2.9,1.6,6.7,2.1,14,2.1c3.7,0.1,7.3-0.2,10.9-0.8c3.4-0.8,6.4-2.9,8.4-5.8c1.2-1.9,1.8-3.4,2.2-7.1
					h-12.3C123.7,44.9,123.5,45.3,123.2,45.7"/>
				<path id="Path_6761" class="st6" d="M104.9,30.3c0.1-11,0.1-11.5,1.7-13.4c1.1-1.5,2.8-1.9,7.2-1.9c5.7,0,7.6,0.3,9,1.5
					c1.7,1.5,2,3,2,13.8h11.7c0-6.6-0.1-9.6-0.3-11.7c-0.6-5.9-2.6-9.2-7.2-11.6c-3-1.6-6.5-2.1-14.2-2.1c-3.6-0.1-7.2,0.2-10.8,0.8
					c-3.4,0.8-6.4,2.8-8.4,5.7c-2.1,3.2-2.4,5.6-2.5,19L104.9,30.3z"/>
				<path id="Path_9243" class="st7" d="M170.2,41.9h1.7v-2.8h1.9c1.6,0,1.6,0,1.9-0.1c1-0.3,1.4-1.1,1.4-2.7
					c0.1-0.7-0.1-1.4-0.4-2.1c-0.4-0.6-1-0.9-1.7-0.9c-0.3,0-0.4,0-1.3,0h-3.5V41.9z M171.9,37.6v-3.1h2c0.4,0,0.7,0,1.1,0.1
					c0.3,0.2,0.4,0.5,0.4,1.5c0,1.2-0.2,1.4-1.7,1.4L171.9,37.6z M182.6,40.2l0.6,1.7h1.7l-2.9-8.7h-2.5l-2.9,8.7h1.7l0.5-1.7H182.6
					z M182.2,39h-3l1.5-4.5L182.2,39z M190.8,33.2h-1.9l-1.3,2.3c-0.1,0.2-0.2,0.4-0.6,1.1l-0.2,0.4h0l-0.2-0.4
					c-0.4-0.7-0.5-0.9-0.6-1.1l-1.3-2.3h-1.9l3.1,5.4v3.3h1.7v-3.3L190.8,33.2z M201.7,33.2H199l-1.5,4c-0.1,0.4-0.2,0.7-0.6,1.8
					l-0.2,0.6h-0.1l-0.2-0.6c-0.4-1.1-0.5-1.4-0.6-1.8l-1.5-4h-2.7v8.7h1.6v-4.7c0-0.5,0-0.8-0.1-1.9l0-0.6h0.1l0.2,0.6
					c0.4,1.1,0.5,1.4,0.6,1.8l1.9,4.8h1.5l1.9-4.9c0.1-0.4,0.2-0.7,0.6-1.8l0.2-0.6h0.1l0,0.6c-0.1,1.1-0.1,1.3-0.1,1.9v4.7h1.6
					L201.7,33.2z M204.9,34.6h4.3v-1.4h-5.9v8.7h6v-1.4h-4.3V38h4v-1.2h-4V34.6z M218.5,33.2h-1.7v5c0,0.8,0,0.9,0,1.7l0,0.6h-0.1
					l-0.3-0.7c-0.6-1.2-0.7-1.5-1-2.1l-2.3-4.4h-2.8v8.7h1.6v-5c0-0.8,0-0.9,0-1.7l0-0.6h0.1l0.3,0.6c0.5,1.2,0.7,1.5,0.8,1.9
					l2.5,4.8h2.8V33.2z M223.5,34.6h2.6v-1.5h-6.7v1.5h2.5v7.2h1.7V34.6z M233.7,35.7v-0.3c0.1-0.6-0.1-1.2-0.5-1.7
					c-0.4-0.5-1.1-0.6-2.8-0.6s-2.3,0.1-2.8,0.5c-0.5,0.5-0.8,1.3-0.7,2c0,1.2,0.3,1.8,1,2.2c0.7,0.3,1.5,0.4,2.2,0.4
					c0.6,0,1.1,0,1.7,0.2c0.4,0.1,0.5,0.4,0.5,1c0,0.6-0.1,0.9-0.3,1.1c-0.2,0.2-0.5,0.2-1.5,0.2c-1.4,0-1.6,0-1.8-0.4
					c-0.2-0.3-0.2-0.7-0.2-1.1h-1.6c0,0.4,0,0.9,0.1,1.3c0.1,0.4,0.3,0.8,0.7,1.1c0.8,0.4,1.8,0.5,2.7,0.4c1.8,0,2.5-0.1,3-0.7
					c0.4-0.6,0.6-1.3,0.5-2c0-1.1-0.2-1.6-0.7-2c-0.4-0.3-0.9-0.4-2.4-0.5c-0.6,0-1.1,0-1.7-0.1c-0.4-0.1-0.6-0.4-0.6-1
					c0-1,0.3-1.2,1.9-1.2c1.3,0,1.6,0.2,1.6,1.1v0.2L233.7,35.7z"/>
				<path id="Path_6762" class="st6" d="M191.5,30.3c0.1-11,0.1-11.5,1.7-13.4c1.1-1.5,2.8-1.9,7.2-1.9c5.7,0,7.6,0.3,9,1.5
					c1.7,1.5,2,3.1,2,14.6c0,0,0,0,0,0.1h11.7c0-7.1-0.1-10.4-0.3-12.5c-0.6-5.9-2.6-9.2-7.2-11.6c-3-1.6-6.5-2.1-14.2-2.1
					c-3.6-0.1-7.2,0.2-10.8,0.8c-3.4,0.8-6.4,2.8-8.4,5.7c-2.1,3.2-2.4,5.6-2.5,19L191.5,30.3z"/>
				<path id="Path_6763" class="st6" d="M209.9,45.7c-1,1.7-3.1,2.4-8.2,2.4c-5.6,0-7.6-0.5-8.7-2c-0.3-0.5-0.6-1-0.8-1.5h-12
					c0.6,5.8,2.6,9.1,7.2,11.5c2.9,1.6,6.7,2.1,14,2.1c3.7,0.1,7.3-0.2,10.9-0.8c3.4-0.8,6.4-2.9,8.4-5.8c1.2-1.9,2-4,2.1-6.3h-12.6
					C210.1,45.5,210,45.6,209.9,45.7"/>
			</g>
			<g id="Group_3159" transform="translate(0 64.426)">
				<path id="Path_6764" class="st8" d="M5.5,0l237.4,0.4l-5.3,16.6H0L5.5,0z"/>
				<g id="Group_3158" transform="translate(79.407 2.43)">
					<g class="st9">
						<path class="st0" d="M7.2,5.6h3.9v1.4H7.2v3.6H5.5V1.8h5.7v1.4H7.2V5.6z"/>
						<path class="st0" d="M18.2,2c0.8,0.4,1.2,1,1.4,2c0.1,0.4,0.1,0.9,0.1,2.1c0,2.1-0.1,2.7-0.4,3.3c-0.3,0.5-0.9,0.9-1.7,1.1
							c-0.4,0.1-1,0.1-1.9,0.1c-1.3,0-1.9-0.1-2.5-0.4c-0.7-0.4-1-0.9-1.2-1.9C12,7.9,12,7.5,12,6.4c0-2.2,0.1-2.9,0.5-3.5
							c0.3-0.5,0.9-0.9,1.6-1c0.3-0.1,1.1-0.1,1.8-0.1C17.2,1.8,17.7,1.8,18.2,2z M13.7,6.5c0,1.5,0.1,1.9,0.4,2.3
							c0.2,0.3,0.6,0.4,2,0.4c1.3,0,1.6-0.1,1.8-0.8C18,8,18,7.7,18,6.1c0-1.4,0-1.4-0.1-1.8c-0.1-0.5-0.3-0.8-0.6-1
							c-0.3-0.1-0.6-0.1-1.6-0.1c-1.1,0-1.4,0.1-1.7,0.3c-0.3,0.3-0.4,0.7-0.4,1.6V6.5z"/>
						<path class="st0" d="M21,1.8h4.3c2.1,0,2.8,0.6,2.8,2.6c0,1.7-0.3,2.2-1.6,2.4v0.1c1,0.1,1.5,0.6,1.5,1.7v1.9h-1.7V8.9
							c0-0.9-0.4-1.4-1.3-1.3h-2.3v2.9H21V1.8z M25,6.2c0.5,0,0.9-0.1,1.1-0.3c0.3-0.2,0.3-0.5,0.3-1.2c0-1.2-0.2-1.5-1.3-1.5h-2.4
							v2.9H25z"/>
						<path class="st0" d="M37.6,10.5h-1.6V3.3l-2.3,2.2l-1-1.1l2.8-2.6h2.1V10.5z"/>
						<path class="st0" d="M48,7.2v3.3h-1.7V7.2l-3.1-5.4h1.9l1.3,2.3c0.1,0.2,0.2,0.4,0.6,1.1l0.2,0.4h0l0.2-0.4
							c0.3-0.7,0.4-0.8,0.6-1.1l1.3-2.3h1.9L48,7.2z"/>
						<path class="st0" d="M53.6,5.5h4v1.2h-4v2.4h4.3v1.4h-6V1.8h5.9v1.4h-4.3V5.5z"/>
						<path class="st0" d="M60.9,8.8l-0.5,1.7h-1.7l2.9-8.7h2.5l2.9,8.7h-1.7l-0.6-1.7H60.9z M62.7,3.1l-1.5,4.5h3L62.7,3.1z"/>
						<path class="st0" d="M67.6,1.8h4.3c2.1,0,2.8,0.6,2.8,2.6c0,1.7-0.3,2.2-1.6,2.4v0.1c1,0.1,1.5,0.6,1.5,1.7v1.9h-1.7V8.9
							c0-0.9-0.4-1.4-1.3-1.3h-2.3v2.9h-1.7V1.8z M71.6,6.2c0.5,0,0.9-0.1,1.1-0.3C72.9,5.7,73,5.5,73,4.7c0-1.2-0.2-1.5-1.3-1.5
							h-2.4v2.9H71.6z"/>
					</g>
					<path id="Path_9241" class="st0" d="M78.2,0.5l-0.5,1.1h0l-0.5-1.1l-0.5,0.3l0.8,1v0l-1.2-0.2v0.5L77.5,2v0l-0.8,1l0.5,0.3
						l0.5-1.1h0l0.5,1.1L78.7,3l-0.8-1v0l1.2,0.1V1.6l-1.2,0.2v0l0.8-1L78.2,0.5z M81.6,0.5l-0.5,1.1h0l-0.5-1.1l-0.5,0.3l0.8,1v0
						l-1.2-0.2v0.5L80.8,2v0l-0.8,1l0.5,0.3L81,2.2h0l0.5,1.1L82,3l-0.8-1v0l1.2,0.1V1.6l-1.2,0.2v0l0.8-1L81.6,0.5z"/>
				</g>
			</g>
		</g>
	</g>
</g>
</svg>
