<svg xmlns="http://www.w3.org/2000/svg" width="13.086" height="10.628" viewBox="0 0 13.086 10.628">
  <path id="Path_179" data-name="Path 179" d="M227.615,9.048c.008.114.008.234.008.348a7.636,7.636,0,0,1-11.748,6.429,5.733,5.733,0,0,0,.646.032,5.378,5.378,0,0,0,3.329-1.145,2.685,2.685,0,0,1-2.507-1.86,2.894,2.894,0,0,0,1.21-.049,2.683,2.683,0,0,1-2.147-2.634v-.032a2.676,2.676,0,0,0,1.21.339,2.677,2.677,0,0,1-1.194-2.232,2.65,2.65,0,0,1,.364-1.354,7.617,7.617,0,0,0,5.529,2.8,2.687,2.687,0,0,1,4.576-2.449,5.269,5.269,0,0,0,1.7-.647,2.673,2.673,0,0,1-1.178,1.476,5.355,5.355,0,0,0,1.546-.416A5.645,5.645,0,0,1,227.615,9.048Z" transform="translate(-215.875 -6.398)" fill="#fff"/>
</svg>
