<svg xmlns="http://www.w3.org/2000/svg" width="14.693" height="14.693" viewBox="0 0 14.693 14.693">
  <path id="Path_182" data-name="Path 182" d="M7.341,3A4.346,4.346,0,0,0,3,7.341v6.011a4.346,4.346,0,0,0,4.341,4.341h6.011a4.346,4.346,0,0,0,4.341-4.341V7.341A4.346,4.346,0,0,0,13.352,3Zm0,.668h6.011a3.669,3.669,0,0,1,3.673,3.673v6.011a3.669,3.669,0,0,1-3.673,3.673H7.341a3.669,3.669,0,0,1-3.673-3.673V7.341A3.669,3.669,0,0,1,7.341,3.668Zm7.013,2a.668.668,0,1,0,.668.668A.668.668,0,0,0,14.354,5.672Zm-4.007,1a3.673,3.673,0,1,0,3.673,3.673A3.679,3.679,0,0,0,10.347,6.673Zm0,.668a3.005,3.005,0,1,1-3.005,3.005A3,3,0,0,1,10.347,7.341Z" transform="translate(-3 -3)" fill="#fff"/>
</svg>
