<svg xmlns="http://www.w3.org/2000/svg" width="257.574" height="198.009" viewBox="0 0 257.574 198.009">
  <g id="Group_5008" data-name="Group 5008" transform="translate(-407 -5251.157)">
    <g id="Group_3296" data-name="Group 3296" transform="translate(-727.836 3870.157)">
      <g id="Group_3290" data-name="Group 3290">
        <g id="Group_1368" data-name="Group 1368" transform="translate(1134.836 1389.5)">
          <rect id="Rectangle_387" data-name="Rectangle 387" width="257.574" height="177.913" rx="10" transform="translate(0 0)" fill="#fff"/>
          <path id="Rectangle_387_-_Outline" data-name="Rectangle 387 - Outline" d="M10,0h6V1H10V0ZM22,0h6V1H22ZM34,0h6V1H34ZM46,0h6V1H46ZM58,0h6V1H58ZM70,0h6V1H70ZM82,0h6V1H82ZM94,0h6V1H94Zm12,0h6V1h-6Zm12,0h6V1h-6Zm12,0h6V1h-6Zm12,0h6V1h-6Zm12,0h6V1h-6Zm12,0h6V1h-6Zm12,0h6V1h-6Zm12,0h6V1h-6Zm12,0h6V1h-6Zm12,0h6V1h-6Zm12,0h6V1h-6Zm12,0h6V1h-6ZM249.977.29l.009,0L250,.3l.012,0,.014,0,.014,0,.016,0,.016,0,.014,0,.016,0h0l.014,0,.014,0,.015,0h0l.028.008h0l.012,0h0l.029.008h0l.014,0h0l.044.012h0a10,10,0,0,1,4.755,2.973l-.746.666a8.958,8.958,0,0,0-4.554-2.748l.239-.971Zm7.516,8.429q.034.265.054.534v.02h0v.5s0,0,0,0v.046s0,0,0,0,0,.01,0,.014h0v.03s0,0,0,0,0,.009,0,.013,0,0,0,0V9.9s0,0,0,0,0,.01,0,.015h0v.014s0,0,0,0v.017s0,.009,0,.013v0s0,.009,0,.014v0s0,.01,0,.014v4.716h-1V10a9.13,9.13,0,0,0-.073-1.154Zm-.919,12h1v6h-1Zm0,12h1v6h-1Zm0,12h1v6h-1Zm0,12h1v6h-1Zm0,12h1v6h-1Zm0,12h1v6h-1Zm0,12h1v6h-1Zm0,12h1v6h-1Zm0,12h1v6h-1Zm0,12h1v6h-1Zm0,12h1v6h-1Zm0,12h1v6h-1Zm0,12h1v3.2h0s0,.01,0,.014v0s0,.008,0,.012v0s0,.01,0,.014,0,0,0,0,0,.007,0,.011v0s0,.009,0,.014,0,0,0,0v.012s0,0,0,0v.014s0,0,0,0,0,.008,0,.012,0,0,0,0v.013h0v.015s0,0,0,0,0,.009,0,.013,0,0,0,0v.047s0,0,0,0v.063h0v.048h0v.015h0v.1h0v.015h0v.031h0l0,.031h0a9.972,9.972,0,0,1-.374,2.236l-.961-.276a9.016,9.016,0,0,0,.349-2.491Zm-3.267,10.135.637.77a9.991,9.991,0,0,1-2.795,1.633h0l-.043.016h0l-.043.016h0l-.1.036h0l-.043.015h0l-.043.015h0l-.011,0h0l-.033.011h0l-.01,0h0l-.043.015h0l-.042.014h0l-.009,0h0l-.03.01h0l-.009,0h0l-.031.01h0l-.01,0h0l-.032.01h0l-.01,0h0l-.042.013-.012,0h0l-.03.009-.012,0h0l-.029.009-.012,0-.013,0h0l-.018.005-.012,0-.013,0h0l-.015,0-.012,0-.013,0h0l-.027.008-.012,0-.013,0-.006,0-.013,0-.013,0-.013,0-.006,0-.013,0-.014,0-.013,0-.013,0-.012,0-.013,0-.013,0-.016,0-.015,0-.013,0-.013,0-.013,0-.013,0-.013,0-.015,0-.017,0-.014,0-.014,0-.012,0-.013,0-.014,0-.018,0-.014,0-.014,0-.017,0-.015,0-.014,0-.014,0-.018,0-.014,0-.015,0-.017,0-.014,0-.014,0h0l-.013,0-.014,0-.014,0-.016,0h0l-.014,0-.014,0-.016,0-.017,0-.014,0-.015,0-.018,0-.014,0-.015,0h0l-.028.006-.015,0h0l-.029.006-.015,0h0l-.044.008-.016,0h0l-.03.005-.015,0h0l-.03.005-.015,0h0q-.4.07-.818.108l-.089-1A8.935,8.935,0,0,0,253.307,174.852Zm-16.826,2.062h6v1h-6Zm-12,0h6v1h-6Zm-12,0h6v1h-6Zm-12,0h6v1h-6Zm-12,0h6v1h-6Zm-12,0h6v1h-6Zm-12,0h6v1h-6Zm-12,0h6v1h-6Zm-12,0h6v1h-6Zm-12,0h6v1h-6Zm-12,0h6v1h-6Zm-12,0h6v1h-6Zm-12,0h6v1h-6Zm-12,0h6v1h-6Zm-12,0h6v1h-6Zm-12,0h6v1h-6Zm-12,0h6v1h-6Zm-12,0h6v1h-6Zm-12,0h6v1h-6Zm-11.844-.1a9.114,9.114,0,0,0,1.363.1h4.481v1H9.741a10.065,10.065,0,0,1-1.255-.11Zm-7.423-6.94a8.953,8.953,0,0,0,2.64,4.617l-.683.73-.113-.107h0l-.043-.041h0l-.032-.031h0l-.032-.031h0l-.042-.042h0l-.031-.032h0l-.01-.011h0l-.021-.021h0l-.01-.01h0l-.031-.032h0l-.031-.032h0l-.01-.01h0l-.03-.032h0l-.03-.032h0l-.01-.01h0l-.02-.022h0l-.01-.01h0l-.03-.032h0l-.009-.01h0l-.02-.022h0l-.009-.01h0l-.02-.022h0l-.009-.01v0l-.009-.01h0l-.02-.022h0l-.009-.01h0l-.019-.022h0l-.009-.01h0l-.009-.01h0l-.01-.011h0l-.009-.01,0,0-.008-.009h0l-.019-.022,0,0-.008-.009,0,0-.019-.022h0l-.008-.01,0,0-.008-.009h0l-.018-.021,0,0-.007-.009,0,0-.018-.021,0,0-.007-.008,0,0-.007-.009,0,0L2.3,174.3l0,0-.007-.009,0,0-.007-.008,0,0-.017-.021,0,0-.006-.008,0,0-.007-.008,0,0-.008-.01,0,0-.006-.008,0,0-.006-.008,0,0-.008-.01,0,0-.007-.009,0,0-.006-.008,0,0-.017-.022,0,0-.007-.009,0,0-.007-.009,0,0-.009-.011,0,0-.007-.008,0,0-.006-.007,0,0-.007-.009,0,0-.008-.01,0,0-.006-.007,0,0-.006-.008,0,0-.008-.01,0,0-.006-.007,0,0-.005-.007,0,0-.008-.011h0l-.007-.009,0,0-.005-.007,0,0-.005-.007,0,0-.008-.01,0,0,0-.006,0,0,0-.006,0,0-.006-.008,0-.007,0-.006,0-.005,0-.006,0-.005-.005-.007,0-.006-.006-.008,0-.005,0-.006,0,0,0-.007,0,0-.007-.01,0-.005,0-.005,0-.006,0-.005,0-.006,0-.006-.006-.009,0-.006,0-.005,0-.005,0-.006,0,0-.007-.009,0-.006,0-.006,0-.005,0-.006,0,0,0-.006,0-.006-.006-.009,0-.006,0-.006,0-.005,0-.006,0,0-.008-.011,0-.005,0-.006,0,0,0-.006,0,0,0-.006,0-.006-.007-.01,0,0,0-.006,0,0,0-.006,0,0-.008-.011,0,0,0-.006,0,0,0-.006,0,0-.015-.023,0,0,0-.007,0,0,0-.007,0,0-.01-.015,0,0,0-.007,0,0,0-.007,0,0-.01-.016h0l-.005-.008,0,0,0-.007,0,0-.016-.025,0,0,0-.007,0,0,0-.007v0l-.011-.017h0l0-.008,0,0,0-.008,0,0-.016-.026,0,0,0-.008,0,0,0-.008h0l-.01-.016,0,0,0-.008,0,0,0-.007,0,0-.01-.015v0l0-.007,0,0,0-.008,0,0-.016-.025,0,0,0-.007,0,0,0-.008v0l-.016-.026,0,0,0-.008v0l-.016-.027v0l-.005-.008,0,0,0-.008v0l-.01-.016v0l0-.008,0,0,0-.008,0,0-.015-.026,0,0,0-.008,0,0-.015-.026v0l0-.008,0,0,0-.008v0l-.01-.017h0l0-.008,0,0,0-.008,0,0-.015-.026,0,0,0-.008,0,0,0-.008h0l-.01-.018v0l0-.008,0,0,0-.008v0l-.015-.027v0l0-.008,0,0-.015-.028h0l0-.009v0l0-.009v0l-.015-.028v0l0-.009v0l-.015-.028v0l0-.008,0,0,0-.008v0l-.009-.018h0l0-.008,0,0,0-.008,0,0-.014-.026,0,0,0-.008,0,0L1.11,172.5h0l0-.008,0,0,0-.008v0l-.014-.028,0,0,0-.008v0l-.013-.027,0,0,0-.008,0,0,0-.008v0l-.009-.018h0l0-.008,0,0,0-.008,0,0-.013-.027,0,0,0-.008,0,0,0-.008v0l-.008-.017v0l0-.008,0,0,0-.008,0,0-.013-.026,0,0,0-.008,0,0,0-.008v0l-.008-.016,0,0,0-.007,0,0,0-.007,0,0L.93,172.13v0l0-.007,0,0,0-.007,0-.006,0-.006,0-.006-.005-.012,0-.006,0-.006,0-.006,0-.007,0-.005-.006-.013,0,0,0-.007,0,0,0-.007,0-.005,0-.007,0-.011,0-.007,0-.006,0-.007,0-.006,0-.006,0-.006,0-.01,0-.007,0-.006,0-.006,0-.006,0-.007,0-.005-.005-.012,0-.006,0-.007,0-.006,0-.006,0-.006,0-.011,0-.006,0-.007,0-.006,0-.006,0-.006,0-.007,0-.009,0-.008,0-.006,0-.007,0-.006,0-.007,0-.005,0-.012,0,0,0-.008,0-.005,0-.008,0,0,0-.01,0,0,0-.01,0-.005,0-.008,0,0,0-.009,0,0,0-.012,0,0,0-.009,0,0,0-.009v0L.7,171.609v0l0-.011,0,0,0-.009,0,0,0-.012h0l-.005-.013v0l0-.011v0l0-.011v0l-.005-.013h0l0-.012v0l0-.011v0l-.01-.027v0l0-.011v0l0-.013h0l-.005-.014h0l0-.012v0l0-.012v0l-.01-.027v0l0-.011v0l-.01-.028h0l0-.013v0l-.015-.042h0l0-.014h0l-.015-.043h0a9.931,9.931,0,0,1-.313-1.106ZM0,158.1H1v6H0Zm0-12H1v6H0Zm0-12H1v6H0Zm0-12H1v6H0Zm0-12H1v6H0Zm0-12H1v6H0Zm0-12H1v6H0Zm0-12H1v6H0Zm0-12H1v6H0Zm0-12H1v6H0Zm0-12H1v6H0Zm0-12H1v6H0Zm0-12H1v6H0ZM2.958,2.9l.7.71A8.946,8.946,0,0,0,1.16,8.3L.177,8.115q.03-.157.065-.313h0l.01-.045h0l.01-.045h0l0-.014h0l.007-.03h0l0-.013v0l0-.013h0l0-.014v0l0-.012v0l0-.011v0L.3,7.562v0l0-.01v0l0-.011v0l0-.013V7.512l0-.008,0-.006,0-.008V7.484l0-.013v0l0-.009,0-.006,0-.008,0-.006,0-.008,0-.008,0-.009,0-.006,0-.007,0-.006,0-.007,0-.007,0-.012,0-.006,0-.007,0-.007,0-.006,0-.008v0l0-.015v0l0-.008v0l0-.008v0l.008-.029v0l0-.009v0l.009-.031h0l0-.01v0l0-.01v0l.009-.032v0l0-.011h0l.014-.045h0a9.958,9.958,0,0,1,1.3-2.716h0l.006-.009h0l.019-.028h0l.006-.009h0l.025-.036v0L1.8,4.281h0l.019-.027v0l.006-.008,0,0,.025-.035v0L1.856,4.2h0l.018-.026,0,0,.005-.008,0,0L1.9,4.132l0,0,.005-.007,0,0,.018-.025,0,0,.005-.007,0,0,.005-.007,0,0,.012-.017h0l.005-.007,0,0,.005-.007,0,0,.017-.023,0,0L2,4,2,4l.005-.007,0,0,.01-.014,0,0,.005-.007,0,0,.005-.007,0,0,.017-.023,0,0,.005-.007,0,0,.005-.007,0,0,.01-.013,0,0,0-.006,0,0,0-.006,0,0,.009-.011,0,0,0-.006,0,0,0-.006,0,0,.017-.022,0,0,0-.006,0-.005,0-.005,0-.005.008-.01,0,0,0-.006,0,0,0-.006,0,0L2.2,3.737l0,0,0-.006,0,0,0-.006,0,0,.005-.006,0,0,.009-.012,0,0,0-.006,0,0,0-.006,0,0,.009-.011,0,0,.005-.006,0,0,.005-.007,0,0,.018-.021,0,0,0-.006,0,0,0-.006,0-.005.007-.009,0-.005,0-.006,0,0,0-.006,0,0,.011-.013v0l.005-.006,0,0,.005-.006,0,0,0-.006,0,0L2.4,3.5l0,0,0-.006,0,0,0-.006,0,0,.009-.011,0,0,.005-.006,0,0,0-.005,0,0,.007-.008.005-.006,0-.005,0,0,.005-.006,0,0L2.489,3.4l0,0,.01-.012,0,0,.005-.006,0,0,.006-.006,0,0,.02-.022,0,0,.006-.006,0,0,.02-.022,0,0,.006-.007,0,0,.007-.007h0l.015-.017h0l.007-.007,0,0,.007-.007h0l.022-.024h0l.007-.008h0l.03-.032v0l.031-.033h0Q2.835,3.022,2.958,2.9ZM10,0V1a9.088,9.088,0,0,0-1.625.146L8.2.162q.391-.071.792-.112h.044L9.1.04h.074l.052,0h.086l.039,0H10Z" transform="translate(0 0)" fill="#707070"/>
          <g id="Group_1047" data-name="Group 1047" transform="translate(76.467 165.728)">
            <rect id="Rectangle_375" data-name="Rectangle 375" width="104.639" height="23.782" rx="5" transform="translate(0 0)" fill="#e65b12"/>
            <path id="Path_7822" data-name="Path 7822" d="M-31.89-5.31v1.425h2.5c.015.18.03.36.03.4a2.365,2.365,0,0,1-.39,1.605c-.255.255-.81.36-1.905.36-1.56,0-2.115-.165-2.37-.72a7.74,7.74,0,0,1-.225-2.835,6.676,6.676,0,0,1,.24-2.7c.27-.555.78-.72,2.22-.72,2.07,0,2.31.15,2.37,1.485h1.935c-.03-1.5-.285-2.2-.96-2.61s-1.185-.48-3.24-.48a9.257,9.257,0,0,0-2.385.18A2.6,2.6,0,0,0-35.97-7.98a15.107,15.107,0,0,0-.225,3.945c0,2.31.435,3.27,1.725,3.81A6.436,6.436,0,0,0-31.9.09c2.37,0,3.165-.165,3.765-.795.54-.555.69-1.17.69-2.88,0-.855,0-1.215-.03-1.725Zm7.695-3.105h4.92v-1.59h-6.84V0h6.885V-1.59h-4.965V-4.41h4.665V-5.82h-4.665Zm10.59.09h2.955v-1.68h-7.77v1.68h2.895V0h1.92Zm11.9-1.77a11.877,11.877,0,0,0-2.115.135,2.809,2.809,0,0,0-1.86,1.17c-.465.735-.57,1.47-.57,4.05a13.938,13.938,0,0,0,.09,2.19A2.692,2.692,0,0,0-4.785-.36a5.84,5.84,0,0,0,2.85.45A12.2,12.2,0,0,0,.24-.045,2.715,2.715,0,0,0,2.16-1.29c.42-.75.51-1.41.51-3.81a15.192,15.192,0,0,0-.105-2.37A2.755,2.755,0,0,0,.96-9.765,6.786,6.786,0,0,0-1.71-10.095ZM-4.3-6.225c.015-.99.15-1.515.48-1.83.315-.315.72-.39,1.935-.39A4.961,4.961,0,0,1-.06-8.28a1.337,1.337,0,0,1,.7,1.125A10.664,10.664,0,0,1,.72-5.07,7.033,7.033,0,0,1,.525-2.445c-.255.72-.66.885-2.13.885-1.53,0-1.98-.075-2.265-.4-.36-.42-.435-.87-.435-2.625Zm10.32-2.19H10.71v-1.59H4.095V0h1.92V-4.11H10.47V-5.7H6.015Zm7.785,0h4.695v-1.59H11.88V0H13.8V-4.11h4.455V-5.7H13.8Zm7.785,0H26.5v-1.59h-6.84V0H26.55V-1.59H21.585V-4.41H26.25V-5.82H21.585ZM27.96,0h1.92V-3.33h2.7c1.065-.03,1.53.435,1.5,1.53V0h1.935V-2.175c.015-1.215-.555-1.89-1.695-1.95V-4.2c1.455-.285,1.8-.825,1.8-2.82,0-2.235-.825-2.985-3.24-2.985H27.96Zm1.92-4.965v-3.39H32.7c1.23,0,1.47.27,1.47,1.68,0,.855-.075,1.155-.39,1.41a1.773,1.773,0,0,1-1.215.3Z" transform="translate(49.879 16.369)" fill="#fff"/>
          </g>
          <g id="Group_1057" data-name="Group 1057" transform="translate(11.087 34.104)">
            <g id="Group_1055" data-name="Group 1055" transform="translate(0 0)">
              <rect id="Rectangle_388" data-name="Rectangle 388" width="232.732" height="25.463" transform="translate(0.353 51.154)" fill="#ce0109"/>
              <g id="Group_1049" data-name="Group 1049" transform="translate(114.673 26.476)">
                <path id="Path_3215" data-name="Path 3215" d="M1624.231-2833.694h9.835v1.906h-9.835v9.29h-2.27v-20.184h12.377v1.967h-10.107Z" transform="translate(-1621.961 2842.682)" fill="#004c97"/>
                <path id="Path_3216" data-name="Path 3216" d="M1672.793-2833.876h10.228v1.906h-10.228v7.5h10.682v1.967h-12.952v-20.184h12.952v1.967h-10.682Z" transform="translate(-1655.725 2842.682)" fill="#004c97"/>
                <path id="Path_3217" data-name="Path 3217" d="M1722.66-2842.682h9.32c2.935,0,4.57.515,5.659,1.756,1.331,1.543,1.755,3.329,1.755,7.474,0,4.932-.212,6.6-1,8.05a4.81,4.81,0,0,1-3.45,2.572,11.722,11.722,0,0,1-2.391.333h-9.895Zm8.836,18.217c2.208,0,3.782-.453,4.479-1.27.877-1.089,1.15-2.572,1.15-6.446,0-4.872-.182-6.022-1.06-7.2-.726-.968-1.876-1.332-4.085-1.332h-7.05v16.25Z" transform="translate(-1691.975 2842.682)" fill="#004c97"/>
                <path id="Path_3218" data-name="Path 3218" d="M1790.078-2833.876h10.228v1.906h-10.228v7.5h10.682v1.967h-12.952v-20.184h12.952v1.967h-10.682Z" transform="translate(-1737.27 2842.682)" fill="#004c97"/>
                <path id="Path_3219" data-name="Path 3219" d="M1839.945-2842.682h9.593c4.327,0,5.9,1.544,5.9,5.811,0,3.661-.786,4.871-3.48,5.325v.03c2.088.121,3.238,1.513,3.208,3.9v5.114H1852.9v-4.6c.06-2.572-1.09-3.6-3.813-3.51h-6.869v8.11h-2.27Zm8.836,10.107c3.329,0,4.388-.877,4.388-3.6,0-2.088-.121-2.966-.545-3.541-.454-.666-1.453-1-3.056-1h-7.353v8.14Z" transform="translate(-1773.52 2842.682)" fill="#004c97"/>
                <path id="Path_3220" data-name="Path 3220" d="M1901.41-2826.765l-1.544,4.267h-2.421l7.384-20.184h3.208l7.535,20.184h-2.39l-1.573-4.267Zm5.053-14.071-4.418,12.256h8.9Z" transform="translate(-1813.498 2842.682)" fill="#004c97"/>
                <path id="Path_3221" data-name="Path 3221" d="M1965.953-2824.616h10.38v2.118h-12.649v-20.184h2.27Z" transform="translate(-1859.551 2842.682)" fill="#004c97"/>
              </g>
              <g id="Group_1050" data-name="Group 1050" transform="translate(1.14)">
                <path id="Path_3222" data-name="Path 3222" d="M1285.842-2882.907h-36.453v-10.485c-.069-6.18,1.458-9.512,5.138-11.456,1.875-.972,4.721-1.805,14.442-4.1,4.375-.972,5-1.736,5-5.971,0-4.375-.833-4.93-7.012-4.93-3.125,0-4.1.278-4.861,1.25-.833,1.25-.972,1.945-1.041,6.18H1249.6c-.07-.9-.07-2.222-.07-2.291,0-6.11.695-8.61,3.263-11.04,2.778-2.778,6.874-3.819,14.582-3.819,8.332,0,12.359,1.042,15.206,3.958,2.222,2.222,3.194,5.693,3.194,11.109,0,6.943-1.666,10.484-5.9,12.359a90.178,90.178,0,0,1-14.3,4.027c-3.61.833-4.444,1.667-4.513,4.583v.972h24.788Z" transform="translate(-1249.386 2929.567)" fill="#004c97"/>
                <path id="Path_3223" data-name="Path 3223" d="M1407.12-2915.055c-.069-4.166-.764-4.721-5.9-4.721-4.652,0-5.833.277-6.666,1.458-.833,1.111-.972,2.083-.972,5.485v6.735h.208c1.388-4.1,2.777-4.86,8.54-4.86,5.346,0,8.61.416,10.693,1.388,4.027,1.805,5.624,5.278,5.624,12.082,0,5-.833,8.123-2.777,10.554-2.708,3.333-6.318,4.374-15.206,4.374-10.693,0-14.72-1.528-17.012-6.388-1.528-3.194-1.875-5.9-1.875-13.886,0-11.387.208-14.859,1.042-18.053,1.041-4.1,4.027-6.875,8.609-8.055,1.944-.486,4.1-.625,8.471-.625,8.818,0,11.734.486,14.79,2.569,3.125,2.013,4.3,5.416,4.3,11.943Zm-13.54,17.775c0,4.444.9,5.138,6.319,5.138,6.041,0,6.944-.625,6.944-4.861,0-4.166-.625-4.652-5.972-4.652C1394.414-2901.654,1393.581-2901.168,1393.581-2897.28Z" transform="translate(-1341.434 2929.567)" fill="#004c97"/>
              </g>
              <g id="Group_1051" data-name="Group 1051" transform="translate(0 81.091)">
                <path id="Path_3224" data-name="Path 3224" d="M1260.355-2634.569h-7.565v-21.725h-7.143v-6.467h22.317v6.467h-7.608Z" transform="translate(-1245.646 2662.972)" fill="#004c97"/>
                <path id="Path_3225" data-name="Path 3225" d="M1321.993-2639.43l-1.353,4.861h-7.862l8.453-28.192h11.455l8.58,28.192h-7.693l-1.479-4.861Zm5.071-17.709-3.466,12.257h7.016Z" transform="translate(-1292.322 2662.972)" fill="#004c97"/>
                <path id="Path_3226" data-name="Path 3226" d="M1430.521-2649.066l8.369,14.5h-8.707l-2.79-5.706-1.395-2.832-.634-1.437-.676-1.437h-.127l-.677,1.438-.676,1.437-1.394,2.832-2.789,5.706h-8.876l8.453-14.5-7.9-13.695h8.75l2.578,5.157,1.268,2.621.591,1.268.592,1.31h.127l.591-1.31.634-1.268,1.268-2.621,2.578-5.157h8.75Z" transform="translate(-1360.02 2662.972)" fill="#004c97"/>
                <path id="Path_3227" data-name="Path 3227" d="M1568.253-2645.7v.845c-.042,4.86-.507,6.34-2.494,7.989a9.041,9.041,0,0,1-3.93,1.775,34.9,34.9,0,0,1-5.283.253c-5.156,0-6.383-.127-8.115-.93a7.927,7.927,0,0,1-4.523-5.875,70.434,70.434,0,0,1-.465-10.017c0-4.9.676-7.186,2.62-9.087,2.283-2.2,4.438-2.705,11.116-2.705,4.184,0,5.537.169,7.185.93,2.071.973,3.17,2.621,3.551,5.241a34.063,34.063,0,0,1,.211,4.142h-7.481c-.084-1.775-.127-2.071-.423-2.62-.507-.888-1.606-1.183-4.353-1.183-2.663,0-3.8.507-4.268,1.944-.338.972-.423,2.452-.423,8.326,0,4.438.845,5.367,4.944,5.367,3.72,0,4.692-.718,4.692-3.593a7.027,7.027,0,0,0-.042-.8Z" transform="translate(-1452.697 2663.454)" fill="#004c97"/>
                <path id="Path_3228" data-name="Path 3228" d="M1636.1-2662.761h14.244c4.057,0,5.875.38,7.523,1.648,1.817,1.353,2.494,3.339,2.494,7.144,0,4.1-.508,6-1.9,7.1-.718.592-1.4.846-3.381,1.353v.3c3.465.169,5.157,2.029,5.071,5.495v5.156h-7.692v-3.762c.084-2.62-.93-3.8-3.17-3.719h-5.621v7.481H1636.1Zm13.568,14.329c2.494,0,2.959-.677,2.959-4.481,0-2.79-.549-3.381-3.339-3.381h-5.621v7.862Z" transform="translate(-1517.117 2662.972)" fill="#004c97"/>
                <path id="Path_3229" data-name="Path 3229" d="M1735.346-2651.476h12v5.2h-12v5.494h13.1v6.214h-20.668v-28.192H1748.2v6.213h-12.849Z" transform="translate(-1580.862 2662.972)" fill="#004c97"/>
                <path id="Path_3230" data-name="Path 3230" d="M1808.228-2662.761h14.751a13.818,13.818,0,0,1,6.805,1.437c2.747,1.648,4.142,4.692,4.142,9.087l-.042,3.339c0,6.932-.254,8.5-1.818,10.863-1.733,2.493-4.522,3.466-9.51,3.466h-14.328Zm13.694,21.724c1.944,0,2.79-.422,3.508-1.647.592-.973.761-2.536.761-6.382,0-3.34-.211-4.946-.761-5.791-.591-.972-1.564-1.353-3.508-1.353h-6.129v15.173Z" transform="translate(-1636.795 2662.972)" fill="#004c97"/>
                <path id="Path_3231" data-name="Path 3231" d="M1912.193-2634.569h-7.566v-28.192h7.566Z" transform="translate(-1703.819 2662.972)" fill="#004c97"/>
                <path id="Path_3232" data-name="Path 3232" d="M1952.9-2634.569h-7.566v-21.725h-7.143v-6.467h22.316v6.467H1952.9Z" transform="translate(-1727.155 2662.972)" fill="#004c97"/>
              </g>
              <g id="Group_1052" data-name="Group 1052" transform="translate(84.24 26.78)">
                <path id="Path_3233" data-name="Path 3233" d="M1529.311-2841.067c.825.737,1.032,1.444,1.032,3.536,0,2.712-.03,3.125-.3,3.862-.53,1.473-1.356,1.857-3.95,1.857-1.827,0-2.564-.206-3.213-.884a3.406,3.406,0,0,1-.707-1.622,15.1,15.1,0,0,1-.089-3.036c0-2.152.118-2.711.737-3.39.708-.8,1.3-.943,3.39-.943C1528.191-2841.686,1528.722-2841.569,1529.311-2841.067Zm-4.628,5.187c0,1.739.089,1.857,1.592,1.857,1.415,0,1.415,0,1.5-2.948,0-2.063,0-2.092-.354-2.329-.206-.176-.5-.206-1.444-.206-1.238,0-1.3.118-1.3,2.565Zm3.773,13.883H1526.1l11.613-19.66h2.358Zm14.59-9.226c.825.737,1.032,1.445,1.032,3.538,0,2.711-.029,3.124-.295,3.861-.53,1.474-1.356,1.857-3.95,1.857-1.827,0-2.535-.206-3.183-.884a3.4,3.4,0,0,1-.708-1.621,15.128,15.128,0,0,1-.089-3.036c0-2.152.118-2.712.737-3.389.708-.8,1.3-.944,3.39-.944C1541.926-2831.842,1542.457-2831.723,1543.046-2831.223Zm-4.6,5.188c0,1.739.089,1.857,1.562,1.857,1.415,0,1.415,0,1.5-2.948,0-2.063-.03-2.093-.353-2.329-.207-.177-.5-.206-1.416-.206-1.238,0-1.3.118-1.3,2.565Z" transform="translate(-1522.09 2841.686)" fill="#004c97"/>
              </g>
              <g id="Group_1053" data-name="Group 1053" transform="translate(9.908 55.871)">
                <path id="Path_3234" data-name="Path 3234" d="M1287.608-2741.2c0-1.841-.364-2.131-2.64-2.131-2.519,0-3.052.339-3.052,1.889,0,.993.291,1.454,1.017,1.647a21.889,21.889,0,0,0,2.955.242c2.592.145,3.488.339,4.312.872,1.042.678,1.4,1.622,1.4,3.754,0,2.083-.29,3.173-1.065,3.9-1.017.945-2.3,1.211-5.546,1.211-3.948,0-5.353-.388-6.152-1.672-.509-.775-.678-1.623-.678-3.633h3.56v.29a2.124,2.124,0,0,0,.508,1.7c.388.315.727.363,2.931.363,1.478,0,1.841-.072,2.253-.388a1.959,1.959,0,0,0,.509-1.622c0-.7-.121-1.139-.436-1.356-.387-.315-.387-.315-3.318-.509-2.64-.17-3.391-.291-4.214-.7-1.26-.63-1.768-1.816-1.768-4.117,0-1.938.411-3.125,1.308-3.778,1.042-.727,2.349-.969,5.352-.969,3.294,0,4.626.315,5.45,1.284a4.577,4.577,0,0,1,.9,3.076c0,.1,0,.387-.025.654Z" transform="translate(-1278.162 2746.218)" fill="#fff"/>
                <path id="Path_3235" data-name="Path 3235" d="M1341.592-2745.66a4.4,4.4,0,0,1,2.688,3.609,22.893,22.893,0,0,1,.194,4.021c0,3.657-.17,4.747-.872,5.934a4.751,4.751,0,0,1-3.173,2.035,20.02,20.02,0,0,1-3.488.242c-2.543,0-3.778-.219-4.8-.8a4.4,4.4,0,0,1-2.228-3.439,19.922,19.922,0,0,1-.169-3.294c0-4.214.194-5.6.993-6.733a4.923,4.923,0,0,1,3.076-1.889,19.606,19.606,0,0,1,3.488-.242A10.352,10.352,0,0,1,1341.592-2745.66Zm-7.29,3.2c-.654.581-.751,1.163-.751,4.941,0,2.591.122,3.294.63,3.9.412.484,1.09.605,3.173.605,2.01,0,2.616-.267,3-1.284.266-.726.315-1.308.315-3.778,0-3.221-.073-3.657-.654-4.335-.412-.484-1.042-.606-2.979-.606C1335.343-2743.021,1334.786-2742.9,1334.3-2742.463Z" transform="translate(-1314.029 2746.218)" fill="#fff"/>
                <path id="Path_3236" data-name="Path 3236" d="M1391.343-2732.886h7.145v3.221h-10.875v-16.155h3.73Z" transform="translate(-1354.26 2745.941)" fill="#fff"/>
                <path id="Path_3237" data-name="Path 3237" d="M1433.16-2732.6l-.9,2.931h-3.876l5.111-16.155h5.6l5.183,16.155h-3.827l-.92-2.931Zm3.2-10.415-2.373,7.678h4.771Z" transform="translate(-1382.61 2745.941)" fill="#fff"/>
                <path id="Path_3238" data-name="Path 3238" d="M1487.05-2745.82h8.042a7.846,7.846,0,0,1,3.512.557c1.429.7,1.986,1.938,1.986,4.335,0,3.367-.508,4.19-2.979,4.747v.121c1.914.121,2.858,1.187,2.834,3.173v3.221h-3.778v-2.519c.048-1.623-.629-2.349-2.107-2.3h-3.778v4.82h-3.73Zm7.6,8.163c1.744,0,2.132-.485,2.132-2.64,0-1.938-.339-2.326-2.132-2.326h-3.875v4.966Z" transform="translate(-1423.396 2745.941)" fill="#fff"/>
                <path id="Path_3239" data-name="Path 3239" d="M1568.73-2731.941h-4.578v-2.979h4.578v-4.7h3.246v4.7h4.553v2.979h-4.553v4.7h-3.246Z" transform="translate(-1477.003 2741.629)" fill="#fff"/>
                <path id="Path_3240" data-name="Path 3240" d="M1638.791-2745.82h8.38a6.54,6.54,0,0,1,3.222.557c1.09.606,1.6,1.792,1.6,3.706,0,1.55-.267,2.349-.945,2.907a3.106,3.106,0,0,1-1.575.678v.073c2.156.266,2.858,1.187,2.858,3.827,0,3.294-1.235,4.408-4.917,4.408h-8.622Zm6.975,6.613c1.477-.024,1.6-.049,1.914-.242.435-.242.605-.727.605-1.622,0-1.381-.339-1.672-1.841-1.672h-3.923v3.537Zm-.121,6.467c2.519,0,2.979-.291,2.979-1.841,0-1.114-.194-1.6-.751-1.841-.315-.121-.387-.121-1.817-.145h-3.535v3.827Z" transform="translate(-1528.898 2745.941)" fill="#fff"/>
                <path id="Path_3241" data-name="Path 3241" d="M1692.523-2732.6l-.9,2.931h-3.875l5.111-16.155h5.595l5.184,16.155h-3.827l-.921-2.931Zm3.2-10.415-2.374,7.678h4.771Z" transform="translate(-1562.939 2745.941)" fill="#fff"/>
                <path id="Path_3242" data-name="Path 3242" d="M1746.316-2729.665h-3.73V-2742.6h-4.36v-3.221h12.668v3.221h-4.578Z" transform="translate(-1598.033 2745.941)" fill="#fff"/>
                <path id="Path_3243" data-name="Path 3243" d="M1793.373-2729.665h-3.73V-2742.6h-4.36v-3.221h12.667v3.221h-4.578Z" transform="translate(-1630.75 2745.941)" fill="#fff"/>
                <path id="Path_3244" data-name="Path 3244" d="M1838.054-2739.208h7.194v2.64h-7.194v3.827h7.751v3.076h-11.481v-16.155h11.384v3.076h-7.654Z" transform="translate(-1664.847 2745.941)" fill="#fff"/>
                <path id="Path_3245" data-name="Path 3245" d="M1881.777-2745.82h8.041a7.85,7.85,0,0,1,3.512.557c1.429.7,1.986,1.938,1.986,4.335,0,3.367-.509,4.19-2.979,4.747v.121c1.914.121,2.858,1.187,2.834,3.173v3.221h-3.779v-2.519c.049-1.623-.63-2.349-2.107-2.3h-3.779v4.82h-3.73Zm7.606,8.163c1.744,0,2.131-.485,2.131-2.64,0-1.938-.339-2.326-2.131-2.326h-3.876v4.966Z" transform="translate(-1697.84 2745.941)" fill="#fff"/>
                <path id="Path_3246" data-name="Path 3246" d="M1939.919-2735.55v5.885h-3.73v-5.885l-5.765-10.27h4.263l1.937,3.682c.242.46.412.8,1.066,2.132l.339.726h.1l.364-.726c.63-1.26.775-1.574,1.09-2.132l1.962-3.682h4.311Z" transform="translate(-1731.663 2745.941)" fill="#fff"/>
              </g>
              <g id="Group_1054" data-name="Group 1054" transform="translate(85.064 3.449)">
                <path id="Path_3247" data-name="Path 3247" d="M1797.932-2902.347h58.247l5.837-15.9h-58.725Z" transform="translate(-1714.7 2918.248)" fill="#ce0109"/>
                <path id="Path_3248" data-name="Path 3248" d="M1763.583-2902.347h6.954l5.837-15.9h-7.432Z" transform="translate(-1690.818 2918.248)" fill="#ce0109"/>
                <path id="Path_3249" data-name="Path 3249" d="M1729.47-2902.347h6.954l5.838-15.9h-7.432Z" transform="translate(-1667.1 2918.248)" fill="#ce0109"/>
                <path id="Path_3250" data-name="Path 3250" d="M1695.358-2902.347h6.954l5.837-15.9h-7.432Z" transform="translate(-1643.383 2918.248)" fill="#ce0109"/>
                <path id="Path_3251" data-name="Path 3251" d="M1661.245-2902.347h6.954l5.837-15.9H1666.6Z" transform="translate(-1619.665 2918.248)" fill="#ce0109"/>
                <path id="Path_3252" data-name="Path 3252" d="M1627.132-2902.347h6.954l5.837-15.9h-7.432Z" transform="translate(-1595.947 2918.248)" fill="#ce0109"/>
                <path id="Path_3253" data-name="Path 3253" d="M1593.02-2902.347h6.954l5.837-15.9h-7.432Z" transform="translate(-1572.23 2918.248)" fill="#ce0109"/>
                <path id="Path_3254" data-name="Path 3254" d="M1558.907-2902.347h6.954l5.838-15.9h-7.432Z" transform="translate(-1548.512 2918.248)" fill="#ce0109"/>
                <path id="Path_3255" data-name="Path 3255" d="M1524.794-2902.347h6.954l5.837-15.9h-7.432Z" transform="translate(-1524.794 2918.248)" fill="#ce0109"/>
              </g>
            </g>
            <g id="Group_1056" data-name="Group 1056" transform="translate(233.929 79.043)">
              <path id="Path_3256" data-name="Path 3256" d="M2015.867-2669.886l-.811,1.067v.017l1.289-.171v.58l-1.289-.154v.017l.819,1.024-.537.307-.512-1.195h-.017l-.555,1.2-.486-.307.811-1.041v-.017l-1.263.162v-.58l1.255.163v-.017l-.8-1.041.52-.3.529,1.186h.017l.521-1.194Z" transform="translate(-2013.316 2670.176)" fill="#004c97"/>
            </g>
          </g>
        </g>
        <g id="Group_3288" data-name="Group 3288">
          <rect id="Rectangle_592" data-name="Rectangle 592" width="181" height="17" transform="translate(1174 1381)" fill="#ce0109"/>
          <path id="Path_7821" data-name="Path 7821" d="M-12.857-6.136v-.312A2.345,2.345,0,0,0-13.351-8.1c-.429-.481-1.131-.65-2.756-.65s-2.288.117-2.821.52a2.3,2.3,0,0,0-.689,2c0,1.2.273,1.82.962,2.158a5.543,5.543,0,0,0,2.236.351,5.664,5.664,0,0,1,1.651.169c.351.117.481.39.481.962,0,.6-.091.936-.312,1.092-.247.195-.52.234-1.5.234-1.352,0-1.56-.039-1.768-.39a1.835,1.835,0,0,1-.182-1.092h-1.6a6.432,6.432,0,0,0,.1,1.326A1.649,1.649,0,0,0-18.85-.351a4.755,4.755,0,0,0,2.678.429c1.807,0,2.47-.143,2.99-.65a2.728,2.728,0,0,0,.533-2.041c0-1.105-.182-1.612-.715-1.976-.416-.3-.91-.39-2.366-.481a8.024,8.024,0,0,1-1.651-.143c-.416-.13-.572-.416-.572-1.04,0-.988.312-1.183,1.885-1.183,1.339,0,1.612.2,1.612,1.144v.156Zm5.031-2.613a10.294,10.294,0,0,0-1.833.117,2.434,2.434,0,0,0-1.612,1.014c-.4.637-.494,1.274-.494,3.51a12.08,12.08,0,0,0,.078,1.9,2.333,2.333,0,0,0,1.2,1.9,5.062,5.062,0,0,0,2.47.39A10.573,10.573,0,0,0-6.136-.039,2.353,2.353,0,0,0-4.472-1.118c.364-.65.442-1.222.442-3.3a13.166,13.166,0,0,0-.091-2.054A2.388,2.388,0,0,0-5.512-8.463,5.881,5.881,0,0,0-7.826-8.749Zm-2.249,3.354c.013-.858.13-1.313.416-1.586s.624-.338,1.677-.338A4.3,4.3,0,0,1-6.4-7.176a1.159,1.159,0,0,1,.611.975A9.242,9.242,0,0,1-5.72-4.394a6.1,6.1,0,0,1-.169,2.275c-.221.624-.572.767-1.846.767-1.326,0-1.716-.065-1.963-.351-.312-.364-.377-.754-.377-2.275Zm8.944-3.276H-2.8V0H2.912V-1.456H-1.131ZM9.412-1.664,9.971,0h1.7L8.736-8.671H6.279L3.393,0H5.135l.533-1.664ZM9.035-2.9H6.058L7.54-7.4ZM12.428,0h1.664V-2.886h2.34c.923-.026,1.326.377,1.3,1.326V0h1.677V-1.885c.013-1.053-.481-1.638-1.469-1.69V-3.64c1.261-.247,1.56-.715,1.56-2.444,0-1.937-.715-2.587-2.808-2.587H12.428Zm1.664-4.3V-7.241h2.444c1.066,0,1.274.234,1.274,1.456,0,.741-.065,1-.338,1.222a1.537,1.537,0,0,1-1.053.26Z" transform="translate(1265 1394)" fill="#fff"/>
        </g>
      </g>
    </g>
  </g>
</svg>
