<svg xmlns="http://www.w3.org/2000/svg" width="14.885" height="10.468" viewBox="0 0 14.885 10.468">
  <path id="Path_178" data-name="Path 178" d="M217.266,11.4l3.893,2.213-3.893,2.212Zm8.964,2.217a19.644,19.644,0,0,0-.311-3.607A1.865,1.865,0,0,0,224.6,8.687a53.852,53.852,0,0,0-11.63,0,1.866,1.866,0,0,0-1.317,1.325,19.621,19.621,0,0,0-.311,3.607,19.649,19.649,0,0,0,.311,3.607,1.841,1.841,0,0,0,1.317,1.3,44.476,44.476,0,0,0,5.815.311,43.913,43.913,0,0,0,5.815-.315,1.84,1.84,0,0,0,1.317-1.3A19.59,19.59,0,0,0,226.23,13.618Z" transform="translate(-211.345 -8.372)" fill="#fff"/>
</svg>
