<svg xmlns="http://www.w3.org/2000/svg" width="257.574" height="198.01" viewBox="0 0 257.574 198.01"><g transform="translate(-1015 -1595.861)"><path d="M10,0H247.574a10,10,0,0,1,10,10V167.913a10,10,0,0,1-10,10H10a10,10,0,0,1-10-10V10A10,10,0,0,1,10,0Z" transform="translate(1015 1604.361)" fill="#fff"/><path d="M10,0h6V1H10V0ZM22,0h6V1H22ZM34,0h6V1H34ZM46,0h6V1H46ZM58,0h6V1H58ZM70,0h6V1H70ZM82,0h6V1H82ZM94,0h6V1H94Zm12,0h6V1h-6Zm12,0h6V1h-6Zm12,0h6V1h-6Zm12,0h6V1h-6Zm12,0h6V1h-6Zm12,0h6V1h-6Zm12,0h6V1h-6Zm12,0h6V1h-6Zm12,0h6V1h-6Zm12,0h6V1h-6Zm12,0h6V1h-6Zm12,0h6V1h-6ZM249.977.29l.009,0L250,.3l.012,0,.014,0,.014,0,.016,0,.016,0,.014,0,.016,0h0l.014,0,.014,0,.015,0h0l.028.008h0l.012,0h0l.029.008h0l.014,0h0l.044.012h0a10,10,0,0,1,4.755,2.973l-.746.666a8.958,8.958,0,0,0-4.554-2.748l.239-.971Zm7.516,8.429q.034.265.054.534v.02h0v.5s0,0,0,0v.046s0,0,0,0,0,.01,0,.014h0v.03s0,0,0,0,0,.009,0,.013,0,0,0,0V9.9s0,0,0,0,0,.01,0,.015h0v.014s0,0,0,0v.017s0,.009,0,.013v0s0,.009,0,.014v0s0,.01,0,.014v4.716h-1V10a9.13,9.13,0,0,0-.073-1.154Zm-.919,12h1v6h-1Zm0,12h1v6h-1Zm0,12h1v6h-1Zm0,12h1v6h-1Zm0,12h1v6h-1Zm0,12h1v6h-1Zm0,12h1v6h-1Zm0,12h1v6h-1Zm0,12h1v6h-1Zm0,12h1v6h-1Zm0,12h1v6h-1Zm0,12h1v6h-1Zm0,12h1v3.2h0s0,.01,0,.014v0s0,.008,0,.012v0s0,.01,0,.014,0,0,0,0,0,.007,0,.011v0s0,.009,0,.014,0,0,0,0v.012s0,0,0,0v.014s0,0,0,0,0,.008,0,.012,0,0,0,0v.013h0v.015s0,0,0,0,0,.009,0,.013,0,0,0,0v.047s0,0,0,0v.063h0v.048h0v.015h0v.1h0v.015h0v.031h0l0,.031h0a9.972,9.972,0,0,1-.374,2.236l-.961-.276a9.016,9.016,0,0,0,.349-2.491Zm-3.267,10.135.637.77a9.991,9.991,0,0,1-2.795,1.633h0l-.043.016h0l-.043.016h0l-.1.036h0l-.043.015h0l-.043.015h0l-.011,0h0l-.033.011h0l-.01,0h0l-.043.015h0l-.042.014h0l-.009,0h0l-.03.01h0l-.009,0h0l-.031.01h0l-.01,0h0l-.032.01h0l-.01,0h0l-.042.013-.012,0h0l-.03.009-.012,0h0l-.029.009-.012,0-.013,0h0l-.018.005-.012,0-.013,0h0l-.015,0-.012,0-.013,0h0l-.027.008-.012,0-.013,0-.006,0-.013,0-.013,0-.013,0-.006,0-.013,0-.014,0-.013,0-.013,0-.012,0-.013,0-.013,0-.016,0-.015,0-.013,0-.013,0-.013,0-.013,0-.013,0-.015,0-.017,0-.014,0-.014,0-.012,0-.013,0-.014,0-.018,0-.014,0-.014,0-.017,0-.015,0-.014,0-.014,0-.018,0-.014,0-.015,0-.017,0-.014,0-.014,0h0l-.013,0-.014,0-.014,0-.016,0h0l-.014,0-.014,0-.016,0-.017,0-.014,0-.015,0-.018,0-.014,0-.015,0h0l-.028.006-.015,0h0l-.029.006-.015,0h0l-.044.008-.016,0h0l-.03.005-.015,0h0l-.03.005-.015,0h0q-.4.07-.818.108l-.089-1A8.935,8.935,0,0,0,253.307,174.852Zm-16.826,2.062h6v1h-6Zm-12,0h6v1h-6Zm-12,0h6v1h-6Zm-12,0h6v1h-6Zm-12,0h6v1h-6Zm-12,0h6v1h-6Zm-12,0h6v1h-6Zm-12,0h6v1h-6Zm-12,0h6v1h-6Zm-12,0h6v1h-6Zm-12,0h6v1h-6Zm-12,0h6v1h-6Zm-12,0h6v1h-6Zm-12,0h6v1h-6Zm-12,0h6v1h-6Zm-12,0h6v1h-6Zm-12,0h6v1h-6Zm-12,0h6v1h-6Zm-12,0h6v1h-6Zm-11.844-.1a9.114,9.114,0,0,0,1.363.1h4.481v1H9.741a10.065,10.065,0,0,1-1.255-.11Zm-7.423-6.94a8.953,8.953,0,0,0,2.64,4.617l-.683.73-.113-.107h0l-.043-.041h0l-.032-.031h0l-.032-.031h0l-.042-.042h0l-.031-.032h0l-.01-.011h0l-.021-.021h0l-.01-.01h0l-.031-.032h0l-.031-.032h0l-.01-.01h0l-.03-.032h0l-.03-.032h0l-.01-.01h0l-.02-.022h0l-.01-.01h0l-.03-.032h0l-.009-.01h0l-.02-.022h0l-.009-.01h0l-.02-.022h0l-.009-.01v0l-.009-.01h0l-.02-.022h0l-.009-.01h0l-.019-.022h0l-.009-.01h0l-.009-.01h0l-.01-.011h0l-.009-.01,0,0-.008-.009h0l-.019-.022,0,0-.008-.009,0,0-.019-.022h0l-.008-.01,0,0-.008-.009h0l-.018-.021,0,0-.007-.009,0,0-.018-.021,0,0-.007-.008,0,0-.007-.009,0,0L2.3,174.3l0,0-.007-.009,0,0-.007-.008,0,0-.017-.021,0,0-.006-.008,0,0-.007-.008,0,0-.008-.01,0,0-.006-.008,0,0-.006-.008,0,0-.008-.01,0,0-.007-.009,0,0-.006-.008,0,0-.017-.022,0,0-.007-.009,0,0-.007-.009,0,0-.009-.011,0,0-.007-.008,0,0-.006-.007,0,0-.007-.009,0,0-.008-.01,0,0-.006-.007,0,0-.006-.008,0,0-.008-.01,0,0-.006-.007,0,0-.005-.007,0,0-.008-.011h0l-.007-.009,0,0-.005-.007,0,0-.005-.007,0,0-.008-.01,0,0,0-.006,0,0,0-.006,0,0-.006-.008,0-.007,0-.006,0-.005,0-.006,0-.005-.005-.007,0-.006-.006-.008,0-.005,0-.006,0,0,0-.007,0,0-.007-.01,0-.005,0-.005,0-.006,0-.005,0-.006,0-.006-.006-.009,0-.006,0-.005,0-.005,0-.006,0,0-.007-.009,0-.006,0-.006,0-.005,0-.006,0,0,0-.006,0-.006-.006-.009,0-.006,0-.006,0-.005,0-.006,0,0-.008-.011,0-.005,0-.006,0,0,0-.006,0,0,0-.006,0-.006-.007-.01,0,0,0-.006,0,0,0-.006,0,0-.008-.011,0,0,0-.006,0,0,0-.006,0,0-.015-.023,0,0,0-.007,0,0,0-.007,0,0-.01-.015,0,0,0-.007,0,0,0-.007,0,0-.01-.016h0l-.005-.008,0,0,0-.007,0,0-.016-.025,0,0,0-.007,0,0,0-.007v0l-.011-.017h0l0-.008,0,0,0-.008,0,0-.016-.026,0,0,0-.008,0,0,0-.008h0l-.01-.016,0,0,0-.008,0,0,0-.007,0,0-.01-.015v0l0-.007,0,0,0-.008,0,0-.016-.025,0,0,0-.007,0,0,0-.008v0l-.016-.026,0,0,0-.008v0l-.016-.027v0l-.005-.008,0,0,0-.008v0l-.01-.016v0l0-.008,0,0,0-.008,0,0-.015-.026,0,0,0-.008,0,0-.015-.026v0l0-.008,0,0,0-.008v0l-.01-.017h0l0-.008,0,0,0-.008,0,0-.015-.026,0,0,0-.008,0,0,0-.008h0l-.01-.018v0l0-.008,0,0,0-.008v0l-.015-.027v0l0-.008,0,0-.015-.028h0l0-.009v0l0-.009v0l-.015-.028v0l0-.009v0l-.015-.028v0l0-.008,0,0,0-.008v0l-.009-.018h0l0-.008,0,0,0-.008,0,0-.014-.026,0,0,0-.008,0,0L1.11,172.5h0l0-.008,0,0,0-.008v0l-.014-.028,0,0,0-.008v0l-.013-.027,0,0,0-.008,0,0,0-.008v0l-.009-.018h0l0-.008,0,0,0-.008,0,0-.013-.027,0,0,0-.008,0,0,0-.008v0l-.008-.017v0l0-.008,0,0,0-.008,0,0-.013-.026,0,0,0-.008,0,0,0-.008v0l-.008-.016,0,0,0-.007,0,0,0-.007,0,0L.93,172.13v0l0-.007,0,0,0-.007,0-.006,0-.006,0-.006-.005-.012,0-.006,0-.006,0-.006,0-.007,0-.005-.006-.013,0,0,0-.007,0,0,0-.007,0-.005,0-.007,0-.011,0-.007,0-.006,0-.007,0-.006,0-.006,0-.006,0-.01,0-.007,0-.006,0-.006,0-.006,0-.007,0-.005-.005-.012,0-.006,0-.007,0-.006,0-.006,0-.006,0-.011,0-.006,0-.007,0-.006,0-.006,0-.006,0-.007,0-.009,0-.008,0-.006,0-.007,0-.006,0-.007,0-.005,0-.012,0,0,0-.008,0-.005,0-.008,0,0,0-.01,0,0,0-.01,0-.005,0-.008,0,0,0-.009,0,0,0-.012,0,0,0-.009,0,0,0-.009v0L.7,171.609v0l0-.011,0,0,0-.009,0,0,0-.012h0l-.005-.013v0l0-.011v0l0-.011v0l-.005-.013h0l0-.012v0l0-.011v0l-.01-.027v0l0-.011v0l0-.013h0l-.005-.014h0l0-.012v0l0-.012v0l-.01-.027v0l0-.011v0l-.01-.028h0l0-.013v0l-.015-.042h0l0-.014h0l-.015-.043h0a9.931,9.931,0,0,1-.313-1.106ZM0,158.1H1v6H0Zm0-12H1v6H0Zm0-12H1v6H0Zm0-12H1v6H0Zm0-12H1v6H0Zm0-12H1v6H0Zm0-12H1v6H0Zm0-12H1v6H0Zm0-12H1v6H0Zm0-12H1v6H0Zm0-12H1v6H0Zm0-12H1v6H0Zm0-12H1v6H0ZM2.958,2.9l.7.71A8.946,8.946,0,0,0,1.16,8.3L.177,8.115q.03-.157.065-.313h0l.01-.045h0l.01-.045h0l0-.014h0l.007-.03h0l0-.013v0l0-.013h0l0-.014v0l0-.012v0l0-.011v0L.3,7.562v0l0-.01v0l0-.011v0l0-.013V7.512l0-.008,0-.006,0-.008V7.484l0-.013v0l0-.009,0-.006,0-.008,0-.006,0-.008,0-.008,0-.009,0-.006,0-.007,0-.006,0-.007,0-.007,0-.012,0-.006,0-.007,0-.007,0-.006,0-.008v0l0-.015v0l0-.008v0l0-.008v0l.008-.029v0l0-.009v0l.009-.031h0l0-.01v0l0-.01v0l.009-.032v0l0-.011h0l.014-.045h0a9.958,9.958,0,0,1,1.3-2.716h0l.006-.009h0l.019-.028h0l.006-.009h0l.025-.036v0L1.8,4.281h0l.019-.027v0l.006-.008,0,0,.025-.035v0L1.856,4.2h0l.018-.026,0,0,.005-.008,0,0L1.9,4.132l0,0,.005-.007,0,0,.018-.025,0,0,.005-.007,0,0,.005-.007,0,0,.012-.017h0l.005-.007,0,0,.005-.007,0,0,.017-.023,0,0L2,4,2,4l.005-.007,0,0,.01-.014,0,0,.005-.007,0,0,.005-.007,0,0,.017-.023,0,0,.005-.007,0,0,.005-.007,0,0,.01-.013,0,0,0-.006,0,0,0-.006,0,0,.009-.011,0,0,0-.006,0,0,0-.006,0,0,.017-.022,0,0,0-.006,0-.005,0-.005,0-.005.008-.01,0,0,0-.006,0,0,0-.006,0,0L2.2,3.737l0,0,0-.006,0,0,0-.006,0,0,.005-.006,0,0,.009-.012,0,0,0-.006,0,0,0-.006,0,0,.009-.011,0,0,.005-.006,0,0,.005-.007,0,0,.018-.021,0,0,0-.006,0,0,0-.006,0-.005.007-.009,0-.005,0-.006,0,0,0-.006,0,0,.011-.013v0l.005-.006,0,0,.005-.006,0,0,0-.006,0,0L2.4,3.5l0,0,0-.006,0,0,0-.006,0,0,.009-.011,0,0,.005-.006,0,0,0-.005,0,0,.007-.008.005-.006,0-.005,0,0,.005-.006,0,0L2.489,3.4l0,0,.01-.012,0,0,.005-.006,0,0,.006-.006,0,0,.02-.022,0,0,.006-.006,0,0,.02-.022,0,0,.006-.007,0,0,.007-.007h0l.015-.017h0l.007-.007,0,0,.007-.007h0l.022-.024h0l.007-.008h0l.03-.032v0l.031-.033h0Q2.835,3.022,2.958,2.9ZM10,0V1a9.088,9.088,0,0,0-1.625.146L8.2.162q.391-.071.792-.112h.044L9.1.04h.074l.052,0h.086l.039,0H10Z" transform="translate(1015 1604.361)" fill="#707070"/><g transform="translate(1091.607 1770.089)"><rect width="104.639" height="23.782" rx="5" transform="translate(0 0)" fill="#e65b12"/><path d="M-31.89-5.31v1.425h2.5c.015.18.03.36.03.4a2.365,2.365,0,0,1-.39,1.605c-.255.255-.81.36-1.905.36-1.56,0-2.115-.165-2.37-.72a7.74,7.74,0,0,1-.225-2.835,6.676,6.676,0,0,1,.24-2.7c.27-.555.78-.72,2.22-.72,2.07,0,2.31.15,2.37,1.485h1.935c-.03-1.5-.285-2.2-.96-2.61s-1.185-.48-3.24-.48a9.257,9.257,0,0,0-2.385.18A2.6,2.6,0,0,0-35.97-7.98a15.107,15.107,0,0,0-.225,3.945c0,2.31.435,3.27,1.725,3.81A6.436,6.436,0,0,0-31.9.09c2.37,0,3.165-.165,3.765-.795.54-.555.69-1.17.69-2.88,0-.855,0-1.215-.03-1.725Zm7.695-3.105h4.92v-1.59h-6.84V0h6.885V-1.59h-4.965V-4.41h4.665V-5.82h-4.665Zm10.59.09h2.955v-1.68h-7.77v1.68h2.895V0h1.92Zm11.9-1.77a11.877,11.877,0,0,0-2.115.135,2.809,2.809,0,0,0-1.86,1.17c-.465.735-.57,1.47-.57,4.05a13.938,13.938,0,0,0,.09,2.19A2.692,2.692,0,0,0-4.785-.36a5.84,5.84,0,0,0,2.85.45A12.2,12.2,0,0,0,.24-.045,2.715,2.715,0,0,0,2.16-1.29c.42-.75.51-1.41.51-3.81a15.192,15.192,0,0,0-.105-2.37A2.755,2.755,0,0,0,.96-9.765,6.786,6.786,0,0,0-1.71-10.095ZM-4.3-6.225c.015-.99.15-1.515.48-1.83.315-.315.72-.39,1.935-.39A4.961,4.961,0,0,1-.06-8.28a1.337,1.337,0,0,1,.7,1.125A10.664,10.664,0,0,1,.72-5.07,7.033,7.033,0,0,1,.525-2.445c-.255.72-.66.885-2.13.885-1.53,0-1.98-.075-2.265-.4-.36-.42-.435-.87-.435-2.625Zm10.32-2.19H10.71v-1.59H4.095V0h1.92V-4.11H10.47V-5.7H6.015Zm7.785,0h4.695v-1.59H11.88V0H13.8V-4.11h4.455V-5.7H13.8Zm7.785,0H26.5v-1.59h-6.84V0H26.55V-1.59H21.585V-4.41H26.25V-5.82H21.585ZM27.96,0h1.92V-3.33h2.7c1.065-.03,1.53.435,1.5,1.53V0h1.935V-2.175c.015-1.215-.555-1.89-1.695-1.95V-4.2c1.455-.285,1.8-.825,1.8-2.82,0-2.235-.825-2.985-3.24-2.985H27.96Zm1.92-4.965v-3.39H32.7c1.23,0,1.47.27,1.47,1.68,0,.855-.075,1.155-.39,1.41a1.773,1.773,0,0,1-1.215.3Z" transform="translate(52.32 16.369)" fill="#fff"/></g><path d="M-64.658-8.01h2.835v-2h-7.845v2h2.7V0h2.31Zm6.105-.09h4.74v-1.9h-7.05V0h7.11V-1.905h-4.8v-2.37H-54.1V-5.91h-4.455Zm13.83,1.125c.015-.165.015-.345.015-.405a2.831,2.831,0,0,0-.555-1.9c-.51-.6-1.335-.8-3.375-.8-1.86,0-2.67.15-3.315.6a2.683,2.683,0,0,0-.81,2.34c0,1.425.315,2.16,1.1,2.55a6.423,6.423,0,0,0,2.61.435c1.815.12,1.815.12,2.055.315.195.135.27.405.27.84a1.215,1.215,0,0,1-.315,1c-.255.2-.48.24-1.4.24-1.365,0-1.575-.03-1.815-.225a1.314,1.314,0,0,1-.315-1.05v-.18h-2.205a3.773,3.773,0,0,0,.42,2.25c.495.8,1.365,1.035,3.81,1.035,2.01,0,2.805-.165,3.435-.75.48-.45.66-1.125.66-2.415,0-1.32-.225-1.9-.87-2.325a5.132,5.132,0,0,0-2.67-.54,13.578,13.578,0,0,1-1.83-.15c-.45-.12-.63-.4-.63-1.02,0-.96.33-1.17,1.89-1.17,1.41,0,1.635.18,1.635,1.32Zm3.885-3.03h-2.31V0h6.735V-2h-4.425ZM-29-1.815-28.432,0h2.37l-3.21-10.005h-3.465L-35.9,0h2.4l.555-1.815Zm-.48-1.7h-2.955l1.47-4.755ZM-21.533,0h2.31V-2.895h1.905c1.185-.03,1.5-.03,1.59-.045a2.584,2.584,0,0,0,1.59-.585c.585-.48.84-1.335.84-2.85a4.438,4.438,0,0,0-.48-2.505,2.617,2.617,0,0,0-2.16-1.11c-.33-.015-.33-.015-1.62-.015h-3.975Zm2.31-4.89V-8.1H-17.2a2.309,2.309,0,0,1,.99.105c.435.18.555.525.555,1.545,0,1.365-.21,1.56-1.65,1.56Zm11.475-5.19a12.137,12.137,0,0,0-2.16.15,3.048,3.048,0,0,0-1.905,1.17c-.495.7-.615,1.56-.615,4.17a12.3,12.3,0,0,0,.105,2.04,2.725,2.725,0,0,0,1.38,2.13,5.745,5.745,0,0,0,2.97.5,12.385,12.385,0,0,0,2.16-.15,2.942,2.942,0,0,0,1.965-1.26c.435-.735.54-1.41.54-3.675a14.222,14.222,0,0,0-.12-2.49A2.728,2.728,0,0,0-5.093-9.735,6.4,6.4,0,0,0-7.748-10.08ZM-7.913-8.1c1.2,0,1.59.075,1.845.375.36.42.4.69.4,2.685a6.459,6.459,0,0,1-.2,2.34c-.24.63-.615.795-1.86.795-1.29,0-1.71-.075-1.965-.375-.315-.375-.39-.81-.39-2.415,0-2.34.06-2.7.465-3.06C-9.308-8.025-8.963-8.1-7.913-8.1Zm19.965-1.9H9.728l-1.11,4.65c-.21.885-.27,1.17-.54,2.55l-.165.855H7.838l-.27-1.185c-.15-.735-.285-1.29-.525-2.205l-1.2-4.665h-2.5L2.093-5.355c-.2.765-.39,1.47-.435,1.71-.06.285-.135.57-.195.84l-.2.855h-.09l-.15-.855C.758-4.275.713-4.47.518-5.355l-1.08-4.65H-2.887L-.517,0h3.3l1.08-4.11c.255-.96.285-1.08.51-2.115l.15-.705h.09l.15.705c.225,1.14.24,1.17.465,2.115L6.263,0H9.608Zm3.21,1.9H20v-1.9h-7.05V0h7.11V-1.905h-4.8v-2.37h4.455V-5.91H15.263ZM21.458,0h2.31V-2.985h2.34c.915-.03,1.335.42,1.305,1.425V0h2.34V-2A1.7,1.7,0,0,0,28-3.96v-.075c1.53-.345,1.845-.855,1.845-2.94,0-1.485-.345-2.25-1.23-2.685a4.86,4.86,0,0,0-2.175-.345h-4.98Zm2.31-4.95V-8.025h2.4c1.11,0,1.32.24,1.32,1.44,0,1.335-.24,1.635-1.32,1.635Zm21.555-5.055H43l-1.11,4.65c-.21.885-.27,1.17-.54,2.55l-.165.855h-.075l-.27-1.185c-.15-.735-.285-1.29-.525-2.205l-1.2-4.665H36.607l-1.245,4.65c-.195.765-.39,1.47-.435,1.71-.06.285-.135.57-.195.84l-.195.855h-.09l-.15-.855c-.27-1.47-.315-1.665-.51-2.55l-1.08-4.65H30.382L32.752,0h3.3l1.08-4.11c.255-.96.285-1.08.51-2.115l.15-.705h.09l.15.705c.225,1.14.24,1.17.465,2.115L39.533,0h3.345Zm6.195,8.19L52.087,0h2.37l-3.21-10.005H47.782L44.617,0h2.4l.555-1.815Zm-.48-1.7H48.082l1.47-4.755Zm6.51-6.5h-2.31V0h6.735V-2H57.548Zm7.68,0h-2.31V0h6.735V-2H65.228Z" transform="translate(1144 1640)" fill="#004c97"/><g transform="translate(488 214.861)"><rect width="132" height="17" transform="translate(586 1381)" fill="#ce0109"/><path d="M-55.4,0h4.511c1.9,0,2.561-.624,2.561-2.379,0-1.391-.351-1.885-1.482-2.067v-.039c.936-.208,1.274-.715,1.274-1.911,0-1.053-.26-1.677-.832-2a3.648,3.648,0,0,0-1.755-.273H-55.4Zm1.664-5.031V-7.293h2.353a2.051,2.051,0,0,1,.806.091c.273.143.39.416.39.975,0,.6-.1.884-.377,1.04a2.306,2.306,0,0,1-1.157.156Zm0,3.653V-3.8h2.106a2.952,2.952,0,0,1,1.2.1c.338.156.455.455.455,1.144,0,1.04-.221,1.17-1.95,1.17Zm11.843-.286L-41.333,0h1.7l-2.938-8.671h-2.457L-47.911,0h1.742l.533-1.664ZM-42.269-2.9h-2.977l1.482-4.5Zm6.1-4.316h2.561V-8.671h-6.734v1.456h2.509V0h1.664Zm7.267,0h2.561V-8.671h-6.734v1.456h2.509V0h1.664Zm5.109-.078h4.264V-8.671h-5.928V0h5.967V-1.378h-4.3V-3.822h4.043V-5.044H-23.8ZM-18.272,0h1.664V-2.886h2.34c.923-.026,1.326.377,1.3,1.326V0h1.677V-1.885c.013-1.053-.481-1.638-1.469-1.69V-3.64c1.261-.247,1.56-.715,1.56-2.444,0-1.937-.715-2.587-2.808-2.587h-4.264Zm1.664-4.3V-7.241h2.444c1.066,0,1.274.234,1.274,1.456,0,.741-.065,1-.338,1.222a1.537,1.537,0,0,1-1.053.26ZM-2.879-8.671H-4.8L-6.129-6.383c-.13.234-.234.4-.559,1.053l-.2.351h-.039L-7.1-5.33c-.351-.676-.455-.871-.559-1.053L-8.976-8.671h-1.9l3.12,5.356V0H-6.09V-3.315ZM7.534-6.136v-.312A2.345,2.345,0,0,0,7.04-8.1c-.429-.481-1.131-.65-2.756-.65S2-8.632,1.463-8.229a2.3,2.3,0,0,0-.689,2c0,1.2.273,1.82.962,2.158a5.543,5.543,0,0,0,2.236.351,5.664,5.664,0,0,1,1.651.169c.351.117.481.39.481.962,0,.6-.091.936-.312,1.092-.247.195-.52.234-1.5.234-1.352,0-1.56-.039-1.768-.39a1.835,1.835,0,0,1-.182-1.092H.748a6.432,6.432,0,0,0,.1,1.326A1.649,1.649,0,0,0,1.541-.351,4.755,4.755,0,0,0,4.219.078c1.807,0,2.47-.143,2.99-.65a2.728,2.728,0,0,0,.533-2.041c0-1.105-.182-1.612-.715-1.976-.416-.3-.91-.39-2.366-.481A8.024,8.024,0,0,1,3.01-5.213c-.416-.13-.572-.416-.572-1.04,0-.988.312-1.183,1.885-1.183,1.339,0,1.612.2,1.612,1.144v.156Zm4.94-1.079h2.561V-8.671H8.3v1.456h2.509V0h1.664Zm7.111-1.534a10.294,10.294,0,0,0-1.833.117A2.434,2.434,0,0,0,16.14-7.618c-.4.637-.494,1.274-.494,3.51a12.08,12.08,0,0,0,.078,1.9,2.333,2.333,0,0,0,1.2,1.9,5.062,5.062,0,0,0,2.47.39,10.573,10.573,0,0,0,1.885-.117,2.353,2.353,0,0,0,1.664-1.079c.364-.65.442-1.222.442-3.3a13.167,13.167,0,0,0-.091-2.054A2.388,2.388,0,0,0,21.9-8.463,5.881,5.881,0,0,0,19.585-8.749ZM17.336-5.395c.013-.858.13-1.313.416-1.586s.624-.338,1.677-.338a4.3,4.3,0,0,1,1.586.143,1.159,1.159,0,0,1,.611.975,9.242,9.242,0,0,1,.065,1.807,6.1,6.1,0,0,1-.169,2.275c-.221.624-.572.767-1.846.767-1.326,0-1.716-.065-1.963-.351-.312-.364-.377-.754-.377-2.275ZM24.615,0h1.664V-2.886h2.34c.923-.026,1.326.377,1.3,1.326V0H31.6V-1.885c.013-1.053-.481-1.638-1.469-1.69V-3.64c1.261-.247,1.56-.715,1.56-2.444,0-1.937-.715-2.587-2.808-2.587H24.615Zm1.664-4.3V-7.241h2.444c1.066,0,1.274.234,1.274,1.456,0,.741-.065,1-.338,1.222a1.537,1.537,0,0,1-1.053.26Zm12.1,2.639L38.941,0h1.7L37.706-8.671H35.25L32.363,0h1.742l.533-1.664ZM38.006-2.9H35.028L36.51-7.4ZM44.74-4.6v1.235H46.91c.013.156.026.312.026.351A2.049,2.049,0,0,1,46.6-1.625c-.221.221-.7.312-1.651.312-1.352,0-1.833-.143-2.054-.624A6.708,6.708,0,0,1,42.7-4.394a5.786,5.786,0,0,1,.208-2.34c.234-.481.676-.624,1.924-.624,1.794,0,2,.13,2.054,1.287h1.677c-.026-1.3-.247-1.911-.832-2.262s-1.027-.416-2.808-.416a8.023,8.023,0,0,0-2.067.156A2.257,2.257,0,0,0,41.2-6.916,13.093,13.093,0,0,0,41.008-3.5c0,2,.377,2.834,1.5,3.3a5.578,5.578,0,0,0,2.223.273c2.054,0,2.743-.143,3.263-.689.468-.481.6-1.014.6-2.5,0-.741,0-1.053-.026-1.5Zm6.669-2.691h4.264V-8.671H49.744V0h5.967V-1.378h-4.3V-3.822h4.043V-5.044H51.408Z" transform="translate(652.5 1394)" fill="#fff"/></g><g transform="translate(344.853 728.668)"><g transform="translate(677.581 929.679)"><g transform="translate(7.29)"><path d="M.512,59.833l-1.024-.315L17.871-.158l1.024.315Z" transform="translate(63.68)" fill="#003e86"/><path d="M.512,59.833l-1.024-.315L17.871-.158l1.024.315Z" transform="translate(153.724)" fill="#003e86"/><path d="M52.557,20.59c2.379.188,2.758.251,3.453.544,1.284.523,1.853,1.61,1.853,3.473,0,2.133-.59,3.348-1.895,3.912a8.217,8.217,0,0,1-3.411.46v1.674H50.662V28.98a7.58,7.58,0,0,1-3.41-.523c-1.263-.627-1.831-1.7-1.831-3.473,0-.1,0-.376.021-.627h2.926v.251c0,1.569.337,1.841,2.295,1.862V23.017a9.067,9.067,0,0,1-3.474-.565c-1.179-.543-1.6-1.443-1.6-3.41,0-2.238.547-3.243,2.084-3.807a8.72,8.72,0,0,1,2.99-.357V13.393h1.895v1.485c2.084.063,2.948.252,3.748.8A3.5,3.5,0,0,1,57.4,18.644v.419H54.578l-.021-.23c0-1.13-.358-1.381-2-1.381Zm-2.19-3.117c-1.432.02-1.81.335-1.81,1.506,0,.648.147,1.046.463,1.235.337.188.337.188,1.642.272V17.452Zm2.443,9c1.579,0,2.063-.419,2.063-1.758,0-1.276-.316-1.485-2.316-1.569V26.47Z" transform="translate(-45.42 -9.166)" fill="#bf051b"/><path d="M.767,0H5.1C6.6,0,7.475-.429,7.956-1.378c.286-.611.364-1.326.364-3.666,0-1.508-.208-2.249-.832-2.886a3.216,3.216,0,0,0-2.444-.741H.767ZM2.431-1.43v-5.8H4.875c.767,0,1.17.143,1.417.494.273.377.338.871.338,2.379,0,1.482-.078,2-.364,2.4-.26.364-.7.52-1.495.52ZM13.208-8.749a10.294,10.294,0,0,0-1.833.117A2.434,2.434,0,0,0,9.763-7.618c-.4.637-.494,1.274-.494,3.51a12.08,12.08,0,0,0,.078,1.9,2.333,2.333,0,0,0,1.2,1.9,5.062,5.062,0,0,0,2.47.39A10.573,10.573,0,0,0,14.9-.039a2.353,2.353,0,0,0,1.664-1.079c.364-.65.442-1.222.442-3.3a13.166,13.166,0,0,0-.091-2.054,2.388,2.388,0,0,0-1.391-1.989A5.881,5.881,0,0,0,13.208-8.749ZM10.959-5.395c.013-.858.13-1.313.416-1.586s.624-.338,1.677-.338a4.3,4.3,0,0,1,1.586.143,1.159,1.159,0,0,1,.611.975,9.242,9.242,0,0,1,.065,1.807,6.1,6.1,0,0,1-.169,2.275c-.221.624-.572.767-1.846.767-1.326,0-1.716-.065-1.963-.351-.312-.364-.377-.754-.377-2.275ZM30.29-8.671H28.6L27.326-3.913c-.143.507-.208.793-.442,1.9l-.13.637H26.7l-.156-.637c-.247-1.053-.26-1.131-.468-1.9l-1.3-4.758H22.841L21.515-3.913c-.156.572-.364,1.417-.65,2.535h-.052l-.13-.637c-.234-1.157-.3-1.43-.416-1.9L19.019-8.671H17.342L19.591,0H22l1.235-4.446c.169-.611.221-.793.416-1.612l.117-.533h.065c.3,1.365.325,1.482.507,2.145L25.532,0h2.431Zm8.944,0H37.583v4.992c0,.806,0,.871.039,1.677l.013.559h-.052l-.338-.715c-.585-1.248-.689-1.469-1.014-2.119L33.969-8.671H31.187V0h1.638V-4.979c0-.806,0-.871-.039-1.7l-.013-.559h.052l.286.611c.52,1.2.689,1.547.845,1.872L36.439,0h2.8Z" transform="translate(16.131 41.861)" fill="#0c4e97"/><path d="M77.435,39.665c.073-11.036.128-11.548,1.656-13.446,1.109-1.5,2.774-1.89,7.212-1.89,5.706,0,7.608.315,9.034,1.5,1.706,1.464,1.97,3.009,1.981,13.839h11.729c-.009-6.563-.093-9.631-.317-11.713-.555-5.907-2.615-9.215-7.212-11.577-3.011-1.575-6.5-2.127-14.187-2.127a58.3,58.3,0,0,0-10.778.788,14.521,14.521,0,0,0-8.4,5.67c-2.082,3.219-2.438,5.623-2.456,18.959Z" transform="translate(-50.908 -9.398)" fill="#bf051b"/><path d="M95.934,69.849c-1.031,1.733-3.091,2.362-8.242,2.362-5.627,0-7.608-.473-8.718-2.047a5.849,5.849,0,0,1-.808-1.492H66.144c.567,5.776,2.629,9.143,7.2,11.495,2.933,1.575,6.658,2.126,14.028,2.126a58.5,58.5,0,0,0,10.937-.787,14.283,14.283,0,0,0,8.4-5.75c1.214-1.875,1.84-3.449,2.156-7.1h-12.3a8.891,8.891,0,0,1-.629,1.195" transform="translate(-51.029 -24.122)" fill="#bf051b"/><text transform="translate(135.451 16.203)" fill="#bf051b" font-size="15" font-family="Eurostile-Bla, Eurostile"><tspan x="0" y="0">%</tspan></text><path d="M2.431-8.671H.767V0H2.431Zm9.568,0H10.348v4.992c0,.806,0,.871.039,1.677l.013.559h-.052l-.338-.715C9.425-3.406,9.321-3.627,9-4.277L6.734-8.671H3.952V0H5.59V-4.979c0-.806,0-.871-.039-1.7l-.013-.559H5.59l.286.611c.52,1.2.689,1.547.845,1.872L9.2,0H12Zm5.083,1.456h2.561V-8.671H12.909v1.456h2.509V0h1.664Zm5.148-.078h4.264V-8.671H20.566V0h5.967V-1.378h-4.3V-3.822h4.043V-5.044H22.23ZM27.755,0h1.664V-2.886h2.34c.923-.026,1.326.377,1.3,1.326V0h1.677V-1.885c.013-1.053-.481-1.638-1.469-1.69V-3.64c1.261-.247,1.56-.715,1.56-2.444,0-1.937-.715-2.587-2.808-2.587H27.755Zm1.664-4.3V-7.241h2.444c1.066,0,1.274.234,1.274,1.456,0,.741-.065,1-.338,1.222a1.537,1.537,0,0,1-1.053.26Zm8.19-2.99h4.264V-8.671H35.945V0h5.967V-1.378h-4.3V-3.822h4.043V-5.044H37.609ZM49.543-6.136v-.312A2.345,2.345,0,0,0,49.049-8.1c-.429-.481-1.131-.65-2.756-.65s-2.288.117-2.821.52a2.3,2.3,0,0,0-.689,2c0,1.2.273,1.82.962,2.158a5.543,5.543,0,0,0,2.236.351,5.664,5.664,0,0,1,1.651.169c.351.117.481.39.481.962,0,.6-.091.936-.312,1.092-.247.195-.52.234-1.495.234-1.352,0-1.56-.039-1.768-.39a1.835,1.835,0,0,1-.182-1.092h-1.6a6.432,6.432,0,0,0,.1,1.326A1.649,1.649,0,0,0,43.55-.351a4.755,4.755,0,0,0,2.678.429c1.807,0,2.47-.143,2.99-.65a2.728,2.728,0,0,0,.533-2.041c0-1.105-.182-1.612-.715-1.976-.416-.3-.91-.39-2.366-.481a8.024,8.024,0,0,1-1.651-.143c-.416-.13-.572-.416-.572-1.04,0-.988.312-1.183,1.885-1.183,1.339,0,1.612.2,1.612,1.144v.156Zm5.031-1.079h2.561V-8.671H50.4v1.456H52.91V0h1.664Z" transform="translate(86.824 41.861)" fill="#0c4e97"/><path d="M203.35,69.849c-1.031,1.733-3.091,2.362-8.242,2.362-5.627,0-7.608-.473-8.717-2.047a5.829,5.829,0,0,1-.809-1.492H173.56c.567,5.776,2.629,9.143,7.2,11.495,2.933,1.575,6.658,2.126,14.028,2.126a58.5,58.5,0,0,0,10.937-.787,14.283,14.283,0,0,0,8.4-5.75c1.214-1.875,1.84-3.449,2.156-7.1h-12.3a8.887,8.887,0,0,1-.629,1.195" transform="translate(-80.101 -24.122)" fill="#bf051b"/><path d="M184.851,39.665c.073-11.036.128-11.548,1.656-13.446,1.11-1.5,2.774-1.89,7.213-1.89,5.706,0,7.608.315,9.034,1.5,1.706,1.464,1.97,3.009,1.981,13.839h11.729c-.008-6.563-.092-9.631-.316-11.713-.555-5.907-2.615-9.215-7.212-11.577-3.012-1.575-6.5-2.127-14.187-2.127a58.3,58.3,0,0,0-10.778.788,14.521,14.521,0,0,0-8.4,5.67c-2.082,3.219-2.438,5.623-2.456,18.959Z" transform="translate(-79.98 -9.398)" fill="#bf051b"/><path d="M.767,0H2.431V-2.8H4.368c1.573-.026,1.573-.026,1.924-.143,1-.3,1.4-1.092,1.4-2.7a3.866,3.866,0,0,0-.39-2.093,2.052,2.052,0,0,0-1.69-.91c-.325-.026-.416-.026-1.339-.026H.767ZM2.431-4.225V-7.293H4.472a2.336,2.336,0,0,1,1.092.13c.338.182.442.533.442,1.5,0,1.248-.234,1.443-1.7,1.443Zm10.7,2.561L13.689,0h1.7L12.454-8.671H10L7.111,0H8.853l.533-1.664ZM12.753-2.9H9.776l1.482-4.5Zm8.632-5.772H19.461L18.135-6.383c-.13.234-.234.4-.559,1.053l-.195.351h-.039L17.16-5.33c-.351-.676-.455-.871-.559-1.053L15.288-8.671h-1.9l3.12,5.356V0h1.664V-3.315Zm10.868,0h-2.73l-1.534,4.03c-.143.4-.247.7-.585,1.794l-.195.6h-.052l-.2-.611c-.364-1.105-.455-1.391-.611-1.794L24.8-8.671H22.126V0h1.638V-4.732c0-.533-.013-.806-.065-1.9l-.039-.624h.052l.195.6c.364,1.118.455,1.391.624,1.807L26.455,0h1.5l1.911-4.888c.143-.377.234-.676.6-1.807l.195-.6h.052l-.026.637c-.052,1.131-.065,1.3-.065,1.924V0h1.638Zm3.185,1.378H39.7V-8.671H33.774V0h5.967V-1.378h-4.3V-3.822h4.043V-5.044H35.438ZM49.01-8.671H47.359v4.992c0,.806,0,.871.039,1.677l.013.559h-.052l-.338-.715c-.585-1.248-.689-1.469-1.014-2.119L43.745-8.671H40.963V0H42.6V-4.979c0-.806,0-.871-.039-1.7l-.013-.559H42.6l.286.611c.52,1.2.689,1.547.845,1.872L46.215,0H49.01Zm5.083,1.456h2.561V-8.671H49.92v1.456h2.509V0h1.664ZM64.246-6.136v-.312A2.345,2.345,0,0,0,63.752-8.1c-.429-.481-1.131-.65-2.756-.65s-2.288.117-2.821.52a2.3,2.3,0,0,0-.689,2c0,1.2.273,1.82.962,2.158a5.543,5.543,0,0,0,2.236.351,5.664,5.664,0,0,1,1.651.169c.351.117.481.39.481.962,0,.6-.091.936-.312,1.092-.247.195-.52.234-1.495.234-1.352,0-1.56-.039-1.768-.39a1.835,1.835,0,0,1-.182-1.092h-1.6a6.432,6.432,0,0,0,.1,1.326,1.649,1.649,0,0,0,.689,1.066,4.755,4.755,0,0,0,2.678.429c1.807,0,2.47-.143,2.99-.65a2.728,2.728,0,0,0,.533-2.041c0-1.105-.182-1.612-.715-1.976-.416-.3-.91-.39-2.366-.481a8.024,8.024,0,0,1-1.651-.143c-.416-.13-.572-.416-.572-1.04,0-.988.312-1.183,1.885-1.183,1.339,0,1.612.2,1.612,1.144v.156Z" transform="translate(169.442 41.861)" fill="#0c4e97"/><path d="M314.65,39.665c.073-11.036.128-11.548,1.656-13.446,1.109-1.5,2.774-1.89,7.212-1.89,5.706,0,7.608.315,9.034,1.5,1.744,1.5,1.982,3.072,1.982,14.57,0,0,0,.034,0,.092h11.732c0-7.129-.083-10.369-.316-12.535-.555-5.907-2.615-9.215-7.212-11.577-3.012-1.575-6.5-2.127-14.187-2.127a58.3,58.3,0,0,0-10.778.788,14.523,14.523,0,0,0-8.4,5.67c-2.082,3.219-2.438,5.623-2.456,18.959Z" transform="translate(-123.111 -9.398)" fill="#bf051b"/><path d="M333.149,69.855c-1.031,1.733-3.091,2.362-8.242,2.362-5.627,0-7.608-.473-8.717-2.047a5.831,5.831,0,0,1-.809-1.492H303.359c.567,5.776,2.629,9.143,7.2,11.495,2.933,1.575,6.658,2.126,14.028,2.126a58.508,58.508,0,0,0,10.937-.787,14.283,14.283,0,0,0,8.4-5.75A12.56,12.56,0,0,0,346,69.483H333.368c-.069.122-.141.244-.22.372" transform="translate(-123.231 -24.129)" fill="#bf051b"/></g><g transform="translate(0 64.426)"><path d="M-7.207,7l237.351.368-5.308,16.58H-12.751Z" transform="translate(12.751 -7)" fill="#0c4e97"/><g transform="translate(79.407 2.43)"><path d="M-40.376-8.976h5.008v-1.7h-7.056V0h2.048V-4.384h4.752v-1.7h-4.752Zm10.752-1.792a12.669,12.669,0,0,0-2.256.144,3,3,0,0,0-1.984,1.248c-.5.784-.608,1.568-.608,4.32a14.868,14.868,0,0,0,.1,2.336A2.871,2.871,0,0,0-32.9-.384a6.23,6.23,0,0,0,3.04.48,13.013,13.013,0,0,0,2.32-.144A2.9,2.9,0,0,0-25.5-1.376c.448-.8.544-1.5.544-4.064a16.2,16.2,0,0,0-.112-2.528,2.939,2.939,0,0,0-1.712-2.448A7.238,7.238,0,0,0-29.624-10.768ZM-32.392-6.64c.016-1.056.16-1.616.512-1.952.336-.336.768-.416,2.064-.416a5.291,5.291,0,0,1,1.952.176,1.426,1.426,0,0,1,.752,1.2,11.374,11.374,0,0,1,.08,2.224c0,2-.016,2.272-.208,2.8-.272.768-.7.944-2.272.944-1.632,0-2.112-.08-2.416-.432-.384-.448-.464-.928-.464-2.8ZM-23.432,0h2.048V-3.552h2.88c1.136-.032,1.632.464,1.6,1.632V0h2.064V-2.32c.016-1.3-.592-2.016-1.808-2.08v-.08c1.552-.3,1.92-.88,1.92-3.008,0-2.384-.88-3.184-3.456-3.184h-5.248Zm2.048-5.3V-8.912h3.008c1.312,0,1.568.288,1.568,1.792,0,.912-.08,1.232-.416,1.5a1.892,1.892,0,0,1-1.3.32Zm18.4-5.376H-5.528L-8.984-7.456l1.2,1.3L-5-8.912V0h2.016Zm16.768,0H11.416L9.784-7.856c-.16.288-.288.5-.688,1.3l-.24.432H8.808L8.584-6.56c-.432-.832-.56-1.072-.688-1.3L6.28-10.672H3.944L7.784-4.08V0H9.832V-4.08Zm2.96,1.7h5.248v-1.7H14.7V0H22.04V-1.7h-5.3V-4.7H21.72v-1.5H16.744ZM30.28-2.048,30.968,0h2.1L29.448-10.672H26.424L22.872,0h2.144l.656-2.048Zm-.464-1.52H26.152L27.976-9.1ZM33.992,0H36.04V-3.552h2.88c1.136-.032,1.632.464,1.6,1.632V0h2.064V-2.32c.016-1.3-.592-2.016-1.808-2.08v-.08c1.552-.3,1.92-.88,1.92-3.008,0-2.384-.88-3.184-3.456-3.184H33.992ZM36.04-5.3V-8.912h3.008c1.312,0,1.568.288,1.568,1.792,0,.912-.08,1.232-.416,1.5a1.892,1.892,0,0,1-1.3.32Z" transform="translate(37 11.5)" fill="#fff"/><path d="M3.228-8.22,2.5-6.54H2.472L1.728-8.208,1-7.788,2.124-6.324V-6.3L.36-6.528v.816L2.136-5.94v.024L1-4.452l.684.432.78-1.692h.024l.72,1.68.756-.432L2.808-5.9v-.024l1.812.216v-.816l-1.812.24v-.024l1.14-1.5Zm4.98,0L7.476-6.54H7.452L6.708-8.208l-.732.42L7.1-6.324V-6.3L5.34-6.528v.816L7.116-5.94v.024L5.976-4.452l.684.432.78-1.692h.024l.72,1.68.756-.432L7.788-5.9v-.024L9.6-5.712v-.816l-1.812.24v-.024l1.14-1.5Z" transform="translate(81.159 9.501)" fill="#fff"/></g></g></g></g></g></svg>