<svg xmlns="http://www.w3.org/2000/svg" width="134.783" height="134.781" viewBox="0 0 134.783 134.781">
  <g id="Group_2446" data-name="Group 2446" transform="translate(-499 -2570)">
    <ellipse id="Ellipse_43" data-name="Ellipse 43" cx="64.5" cy="63" rx="64.5" ry="63" transform="translate(502 2574)" fill="#fff"/>
    <g id="Group_2443" data-name="Group 2443" transform="translate(0 27)">
      <g id="Group_2438" data-name="Group 2438" transform="translate(499 2543)">
        <path id="Path_5540" data-name="Path 5540" d="M144.5,462.851a66.773,66.773,0,0,0,66.774-66.772H77.728A66.773,66.773,0,0,0,144.5,462.851Z" transform="translate(-77.109 -329.318)" fill="#d9ecdc"/>
        <g id="Group_2437" data-name="Group 2437">
          <circle id="Ellipse_41" data-name="Ellipse 41" cx="67.391" cy="67.391" r="67.391" transform="translate(0.001)" fill="none"/>
          <path id="Path_5541" data-name="Path 5541" d="M172.79,460.165l-5.222-2.933a61.422,61.422,0,0,0-53.577-91.42v-5.99a67.408,67.408,0,0,1,58.8,100.343Z" transform="translate(-46.6 -359.822)" fill="#20401c"/>
          <g id="Group_2436" data-name="Group 2436">
            <path id="Path_5542" data-name="Path 5542" d="M198.893,457.532c-.206-.088-.4-.186-.6-.289a61.385,61.385,0,1,1-53.514-91.431h0v-5.99h0a67.39,67.39,0,1,0,58.764,100.323Z" transform="translate(-77.392 -359.822)" fill="#abc3ae"/>
          </g>
        </g>
      </g>
      <path id="Path_7642" data-name="Path 7642" d="M19.557-13.694a10.813,10.813,0,0,1,.82,4.346,11.154,11.154,0,0,1-.738,4.1,8.1,8.1,0,0,1-3.3,4.1A9.967,9.967,0,0,1,10.865.328,9.7,9.7,0,0,1,5.392-1.23,8.667,8.667,0,0,1,2.009-5.453,11.671,11.671,0,0,1,1.353-8.9a.435.435,0,0,1,.492-.492H6.683a.435.435,0,0,1,.492.492,7.614,7.614,0,0,0,.451,2.009A3.284,3.284,0,0,0,8.835-5.227a3.354,3.354,0,0,0,1.989.595,3.147,3.147,0,0,0,3.157-2.009,6.723,6.723,0,0,0,.574-2.87,7.058,7.058,0,0,0-.615-3.157A3.253,3.253,0,0,0,10.783-14.6a1.982,1.982,0,0,0-.943.267,12.328,12.328,0,0,0-1.189.759.545.545,0,0,1-.328.123.394.394,0,0,1-.369-.246L5.535-17.1a.505.505,0,0,1-.082-.287.556.556,0,0,1,.164-.41l6.519-5.7a.17.17,0,0,0,.062-.164q-.021-.082-.144-.082H2.419a.474.474,0,0,1-.348-.143.474.474,0,0,1-.144-.349v-3.977a.474.474,0,0,1,.144-.348.474.474,0,0,1,.348-.143h17.1a.474.474,0,0,1,.348.143.474.474,0,0,1,.143.348v4.51a.862.862,0,0,1-.287.615l-5.371,4.92a.17.17,0,0,0-.061.164q.02.082.184.082A6.7,6.7,0,0,1,19.557-13.694ZM33.784.451A9.865,9.865,0,0,1,26.65-2.071a9.077,9.077,0,0,1-2.624-6.867V-19.762a8.9,8.9,0,0,1,2.624-6.765,9.913,9.913,0,0,1,7.134-2.5,9.987,9.987,0,0,1,7.154,2.5,8.867,8.867,0,0,1,2.645,6.765V-8.938a9.039,9.039,0,0,1-2.645,6.867A9.939,9.939,0,0,1,33.784.451Zm0-4.961a3.881,3.881,0,0,0,2.931-1.128A4.16,4.16,0,0,0,37.8-8.651V-19.926a4.16,4.16,0,0,0-1.086-3.013,3.881,3.881,0,0,0-2.931-1.128,3.829,3.829,0,0,0-2.891,1.128,4.16,4.16,0,0,0-1.087,3.013V-8.651a4.16,4.16,0,0,0,1.087,3.013A3.829,3.829,0,0,0,33.784-4.51Zm20.787-11.6a6.5,6.5,0,0,1-3.3-.861,6.45,6.45,0,0,1-2.378-2.358,6.308,6.308,0,0,1-.882-3.259,6.2,6.2,0,0,1,.882-3.239,6.663,6.663,0,0,1,2.378-2.358,6.383,6.383,0,0,1,3.3-.882,6.2,6.2,0,0,1,3.239.882,6.716,6.716,0,0,1,2.357,2.358,6.2,6.2,0,0,1,.882,3.239,6.423,6.423,0,0,1-.861,3.259,6.3,6.3,0,0,1-2.358,2.358A6.423,6.423,0,0,1,54.571-16.113ZM52.972,0q-.287,0-.369-.164a.452.452,0,0,1,.041-.41L68.1-28.372a.678.678,0,0,1,.615-.328H71.75q.287,0,.369.164a.452.452,0,0,1-.041.41L56.662-.328A.678.678,0,0,1,56.047,0Zm1.6-19.475a2.9,2.9,0,0,0,2.153-.9,3.046,3.046,0,0,0,.881-2.214,3,3,0,0,0-.881-2.173,2.9,2.9,0,0,0-2.153-.9,3.01,3.01,0,0,0-2.214.9,2.962,2.962,0,0,0-.9,2.173,3.01,3.01,0,0,0,.9,2.214A3.01,3.01,0,0,0,54.571-19.475ZM70.561.369A6.308,6.308,0,0,1,67.3-.512a6.611,6.611,0,0,1-2.378-2.378,6.308,6.308,0,0,1-.882-3.26,6.2,6.2,0,0,1,.882-3.239A6.5,6.5,0,0,1,67.3-11.726a6.423,6.423,0,0,1,3.259-.861,6.423,6.423,0,0,1,3.259.861A6.5,6.5,0,0,1,76.2-9.389,6.2,6.2,0,0,1,77.08-6.15a6.308,6.308,0,0,1-.882,3.26A6.611,6.611,0,0,1,73.82-.512,6.308,6.308,0,0,1,70.561.369Zm0-3.4a2.962,2.962,0,0,0,2.173-.9,3.01,3.01,0,0,0,.9-2.214,2.962,2.962,0,0,0-.9-2.173,2.962,2.962,0,0,0-2.173-.9,3,3,0,0,0-2.173.881,2.943,2.943,0,0,0-.9,2.194,3.046,3.046,0,0,0,.882,2.214A2.943,2.943,0,0,0,70.561-3.034Z" transform="translate(528.891 2649.234)" fill="#20401c"/>
      <path id="Path_7641" data-name="Path 7641" d="M-16.176-5.84q-.08.048,0,.1a2.654,2.654,0,0,1,1.7,2.672A2.771,2.771,0,0,1-15.456-.8,3.884,3.884,0,0,1-18,0h-3.984a.141.141,0,0,1-.16-.16V-11.04a.141.141,0,0,1,.16-.16h3.856a3.949,3.949,0,0,1,2.584.76,2.709,2.709,0,0,1,.92,2.216A2.381,2.381,0,0,1-16.176-5.84Zm-4.368-4.032a.057.057,0,0,0-.064.064v3.376a.057.057,0,0,0,.064.064h2.416a2.162,2.162,0,0,0,1.464-.464A1.585,1.585,0,0,0-16.128-8.1a1.653,1.653,0,0,0-.536-1.3,2.115,2.115,0,0,0-1.464-.48ZM-18-1.344a2.028,2.028,0,0,0,1.448-.5,1.787,1.787,0,0,0,.536-1.368,1.774,1.774,0,0,0-.544-1.368,2.1,2.1,0,0,0-1.488-.5h-2.5a.057.057,0,0,0-.064.064v3.616a.057.057,0,0,0,.064.064ZM-5.76-5.088a12.708,12.708,0,0,1,.048,1.472.141.141,0,0,1-.16.16h-5.1a.057.057,0,0,0-.064.064,2.769,2.769,0,0,0,.1.832,1.71,1.71,0,0,0,.712,1A2.374,2.374,0,0,0-8.88-1.2a2.055,2.055,0,0,0,1.824-.976q.08-.16.208-.048l.912.608a.152.152,0,0,1,.048.208A3.106,3.106,0,0,1-7.16-.272,4.078,4.078,0,0,1-9.024.144a3.578,3.578,0,0,1-1.968-.512,3.123,3.123,0,0,1-1.2-1.456,6.074,6.074,0,0,1-.384-2.288A6.785,6.785,0,0,1-12.4-5.888a3.058,3.058,0,0,1,1.152-1.744,3.423,3.423,0,0,1,2.1-.64,3.264,3.264,0,0,1,2.416.808A3.888,3.888,0,0,1-5.76-5.088ZM-9.152-6.944a1.811,1.811,0,0,0-1.136.344,1.7,1.7,0,0,0-.608.92,3.74,3.74,0,0,0-.144.9.057.057,0,0,0,.064.064h3.664a.057.057,0,0,0,.064-.064,4.684,4.684,0,0,0-.1-.784,1.815,1.815,0,0,0-.632-1A1.828,1.828,0,0,0-9.152-6.944ZM-.32-9.856a1.49,1.49,0,0,0-1.088.3A1.706,1.706,0,0,0-1.7-8.4v.192a.057.057,0,0,0,.064.064H.048a.141.141,0,0,1,.16.16V-6.9a.141.141,0,0,1-.16.16h-1.68a.057.057,0,0,0-.064.064V-.16a.141.141,0,0,1-.16.16H-3.072a.141.141,0,0,1-.16-.16V-6.672A.057.057,0,0,0-3.3-6.736H-4.368a.141.141,0,0,1-.16-.16V-7.984a.141.141,0,0,1,.16-.16H-3.3a.057.057,0,0,0,.064-.064V-8.5a4.26,4.26,0,0,1,.248-1.632,1.517,1.517,0,0,1,.84-.824A4.443,4.443,0,0,1-.48-11.2H.064a.141.141,0,0,1,.16.16v1.024a.141.141,0,0,1-.16.16ZM4.64.128a3.575,3.575,0,0,1-2.064-.6A3.146,3.146,0,0,1,1.344-2.144,6.156,6.156,0,0,1,1.056-4.1a5.9,5.9,0,0,1,.272-1.92A3.148,3.148,0,0,1,2.56-7.672a3.63,3.63,0,0,1,2.1-.6,3.409,3.409,0,0,1,2.008.6,3.282,3.282,0,0,1,1.224,1.64,5.773,5.773,0,0,1,.288,1.92,6.119,6.119,0,0,1-.288,1.968A3.175,3.175,0,0,1,6.672-.472,3.473,3.473,0,0,1,4.64.128Zm0-1.328a1.815,1.815,0,0,0,1.12-.36,1.971,1.971,0,0,0,.688-1.016,5.489,5.489,0,0,0,.176-1.5,5.817,5.817,0,0,0-.16-1.488,1.971,1.971,0,0,0-.688-1.016,1.891,1.891,0,0,0-1.168-.36,1.84,1.84,0,0,0-1.136.36,1.971,1.971,0,0,0-.688,1.016A5.109,5.109,0,0,0,2.608-4.08a5.28,5.28,0,0,0,.176,1.5,1.869,1.869,0,0,0,.68,1.016A1.926,1.926,0,0,0,4.64-1.2Zm9.12-7.024a2.046,2.046,0,0,1,.928.208.148.148,0,0,1,.08.192l-.256,1.2q-.016.144-.192.1a1.674,1.674,0,0,0-.64-.112l-.224.016a1.794,1.794,0,0,0-1.24.52,1.72,1.72,0,0,0-.488,1.272V-.16a.141.141,0,0,1-.16.16H10.352a.141.141,0,0,1-.16-.16V-7.984a.141.141,0,0,1,.16-.16h1.216a.141.141,0,0,1,.16.16v.848q0,.048.024.056t.04-.024A2.23,2.23,0,0,1,13.76-8.224Zm8.832,3.136a12.708,12.708,0,0,1,.048,1.472.141.141,0,0,1-.16.16h-5.1a.057.057,0,0,0-.064.064,2.769,2.769,0,0,0,.1.832,1.71,1.71,0,0,0,.712,1,2.374,2.374,0,0,0,1.352.36A2.055,2.055,0,0,0,21.3-2.176q.08-.16.208-.048l.912.608a.152.152,0,0,1,.048.208A3.106,3.106,0,0,1,21.192-.272a4.078,4.078,0,0,1-1.864.416A3.578,3.578,0,0,1,17.36-.368a3.123,3.123,0,0,1-1.2-1.456,6.074,6.074,0,0,1-.384-2.288,6.785,6.785,0,0,1,.176-1.776A3.058,3.058,0,0,1,17.1-7.632a3.423,3.423,0,0,1,2.1-.64,3.264,3.264,0,0,1,2.416.808A3.888,3.888,0,0,1,22.592-5.088ZM19.2-6.944a1.811,1.811,0,0,0-1.136.344,1.7,1.7,0,0,0-.608.92,3.74,3.74,0,0,0-.144.9.057.057,0,0,0,.064.064H21.04a.057.057,0,0,0,.064-.064,4.684,4.684,0,0,0-.1-.784,1.815,1.815,0,0,0-.632-1A1.828,1.828,0,0,0,19.2-6.944ZM-36.04,5.848a.459.459,0,0,1,.208-.048h1.264a.141.141,0,0,1,.16.16V16.84a.141.141,0,0,1-.16.16h-1.216a.141.141,0,0,1-.16-.16V7.448a.054.054,0,0,0-.024-.048.053.053,0,0,0-.056,0l-1.68.576a.178.178,0,0,1-.08.016q-.1,0-.112-.128l-.064-.912q0-.16.1-.192Zm5.776,9.744a.053.053,0,0,0,0,.056.054.054,0,0,0,.048.024H-25.4a.141.141,0,0,1,.16.16V16.84a.141.141,0,0,1-.16.16h-6.7a.141.141,0,0,1-.16-.16v-.976a.262.262,0,0,1,.08-.192q.544-.624,2.5-2.928l1.1-1.328A5.131,5.131,0,0,0-27.1,8.664a1.55,1.55,0,0,0-.5-1.208A1.915,1.915,0,0,0-28.936,7a1.866,1.866,0,0,0-1.328.464,1.54,1.54,0,0,0-.48,1.216v.48a.141.141,0,0,1-.16.16h-1.232a.141.141,0,0,1-.16-.16V8.472A2.727,2.727,0,0,1-31.824,7a2.851,2.851,0,0,1,1.192-.984,4.032,4.032,0,0,1,1.7-.344,3.959,3.959,0,0,1,1.792.384A2.856,2.856,0,0,1-25.96,7.112a2.829,2.829,0,0,1,.416,1.52,5.4,5.4,0,0,1-1.44,3.136q-.64.816-1.52,1.832T-30.264,15.592ZM-23.832,17q-.176,0-.128-.176l3.76-10.9a.187.187,0,0,1,.192-.128h1.2q.176,0,.128.176l-3.76,10.9a.187.187,0,0,1-.192.128Zm8.944-11.152A.459.459,0,0,1-14.68,5.8h1.264a.141.141,0,0,1,.16.16V16.84a.141.141,0,0,1-.16.16h-1.216a.141.141,0,0,1-.16-.16V7.448a.054.054,0,0,0-.024-.048.053.053,0,0,0-.056,0l-1.68.576a.178.178,0,0,1-.08.016q-.1,0-.112-.128l-.064-.912q0-.16.1-.192Zm10.16,1.92a4.605,4.605,0,0,1,.24,1.552v4.928a2.625,2.625,0,0,1-.912,2.1,3.528,3.528,0,0,1-2.384.784,3.8,3.8,0,0,1-1.672-.352,2.678,2.678,0,0,1-1.128-.984,2.65,2.65,0,0,1-.4-1.448v-.32a.141.141,0,0,1,.16-.16h1.216a.141.141,0,0,1,.16.16v.144a1.551,1.551,0,0,0,.464,1.168,1.656,1.656,0,0,0,1.2.448A1.777,1.777,0,0,0-6.52,15.32a1.607,1.607,0,0,0,.5-1.232V12.072a.054.054,0,0,0-.024-.048q-.024-.016-.056.016a2.519,2.519,0,0,1-2,.784,3.251,3.251,0,0,1-1.624-.384,2.667,2.667,0,0,1-1.064-1.12,4.3,4.3,0,0,1-.448-2.032,4.537,4.537,0,0,1,.3-1.712,2.856,2.856,0,0,1,1.152-1.4A3.5,3.5,0,0,1-7.9,5.688a3.525,3.525,0,0,1,2,.544A2.986,2.986,0,0,1-4.728,7.768Zm-1.552,2.8a3.124,3.124,0,0,0,.256-1.36,2.771,2.771,0,0,0-.208-1.136A1.6,1.6,0,0,0-6.856,7.3a1.843,1.843,0,0,0-1.008-.264,1.8,1.8,0,0,0-1,.264,1.535,1.535,0,0,0-.6.76A2.818,2.818,0,0,0-9.7,9.288,2.785,2.785,0,0,0-9.432,10.6a1.657,1.657,0,0,0,1.568.928A1.6,1.6,0,0,0-6.28,10.568ZM-2.984,17q-.176,0-.128-.176l3.76-10.9A.187.187,0,0,1,.84,5.8h1.2q.176,0,.128.176l-3.76,10.9A.187.187,0,0,1-1.784,17ZM6.1,15.592a.053.053,0,0,0,0,.056.054.054,0,0,0,.048.024h4.816a.141.141,0,0,1,.16.16V16.84a.141.141,0,0,1-.16.16h-6.7a.141.141,0,0,1-.16-.16v-.976a.262.262,0,0,1,.08-.192q.544-.624,2.5-2.928l1.1-1.328A5.131,5.131,0,0,0,9.272,8.664a1.55,1.55,0,0,0-.5-1.208A1.915,1.915,0,0,0,7.432,7,1.866,1.866,0,0,0,6.1,7.464a1.54,1.54,0,0,0-.48,1.216v.48a.141.141,0,0,1-.16.16H4.232a.141.141,0,0,1-.16-.16V8.472A2.727,2.727,0,0,1,4.544,7a2.851,2.851,0,0,1,1.192-.984,4.032,4.032,0,0,1,1.7-.344,3.959,3.959,0,0,1,1.792.384,2.787,2.787,0,0,1,1.6,2.576,5.4,5.4,0,0,1-1.44,3.136q-.64.816-1.52,1.832T6.1,15.592ZM16.456,17.16a3.539,3.539,0,0,1-2.568-.92,3.278,3.278,0,0,1-.952-2.472V9.032a3.252,3.252,0,0,1,.952-2.464,3.557,3.557,0,0,1,2.568-.912,3.615,3.615,0,0,1,2.584.912,3.223,3.223,0,0,1,.968,2.464v4.736a3.249,3.249,0,0,1-.968,2.472A3.6,3.6,0,0,1,16.456,17.16Zm0-1.328a2.006,2.006,0,0,0,1.472-.536,1.92,1.92,0,0,0,.544-1.432v-4.9a1.92,1.92,0,0,0-.544-1.432A2.006,2.006,0,0,0,16.456,7a1.963,1.963,0,0,0-1.44.536,1.92,1.92,0,0,0-.544,1.432v4.9a1.92,1.92,0,0,0,.544,1.432A1.963,1.963,0,0,0,16.456,15.832Zm7.408-.24a.053.053,0,0,0,0,.056.054.054,0,0,0,.048.024h4.816a.141.141,0,0,1,.16.16V16.84a.141.141,0,0,1-.16.16h-6.7a.141.141,0,0,1-.16-.16v-.976a.262.262,0,0,1,.08-.192q.544-.624,2.5-2.928l1.1-1.328a5.131,5.131,0,0,0,1.488-2.752,1.55,1.55,0,0,0-.5-1.208A1.915,1.915,0,0,0,25.192,7a1.866,1.866,0,0,0-1.328.464,1.54,1.54,0,0,0-.48,1.216v.48a.141.141,0,0,1-.16.16H21.992a.141.141,0,0,1-.16-.16V8.472A2.727,2.727,0,0,1,22.3,7,2.851,2.851,0,0,1,23.5,6.016a4.032,4.032,0,0,1,1.7-.344,3.959,3.959,0,0,1,1.792.384,2.787,2.787,0,0,1,1.6,2.576,5.4,5.4,0,0,1-1.44,3.136q-.64.816-1.52,1.832T23.864,15.592ZM34.216,17.16a3.539,3.539,0,0,1-2.568-.92,3.278,3.278,0,0,1-.952-2.472V9.032a3.252,3.252,0,0,1,.952-2.464,3.557,3.557,0,0,1,2.568-.912,3.615,3.615,0,0,1,2.584.912,3.223,3.223,0,0,1,.968,2.464v4.736A3.249,3.249,0,0,1,36.8,16.24,3.6,3.6,0,0,1,34.216,17.16Zm0-1.328a2.006,2.006,0,0,0,1.472-.536,1.92,1.92,0,0,0,.544-1.432v-4.9a1.92,1.92,0,0,0-.544-1.432A2.006,2.006,0,0,0,34.216,7a1.963,1.963,0,0,0-1.44.536,1.92,1.92,0,0,0-.544,1.432v4.9a1.92,1.92,0,0,0,.544,1.432A1.963,1.963,0,0,0,34.216,15.832Z" transform="translate(564.883 2581.235)" fill="#1a1818"/>
    </g>
  </g>
</svg>
