<svg xmlns="http://www.w3.org/2000/svg" width="179.21" height="23.421" viewBox="0 0 179.21 23.421">
  <g id="Group_5009" data-name="Group 5009" transform="translate(-431.548 -4978.82)">
    <g id="Group_5008" data-name="Group 5008" transform="translate(431.548 4978.82)">
      <path id="Path_7820" data-name="Path 7820" d="M0,0H150.687V22.625H0Z" fill="#0c4e97"/>
      <path id="Path_7821" data-name="Path 7821" d="M-65.912.144a4.4,4.4,0,0,1-2.04-.456,3.3,3.3,0,0,1-1.376-1.3,3.767,3.767,0,0,1-.488-1.928V-7.68a3.681,3.681,0,0,1,.488-1.912,3.326,3.326,0,0,1,1.376-1.28,4.4,4.4,0,0,1,2.04-.456,4.486,4.486,0,0,1,2.032.44,3.282,3.282,0,0,1,1.368,1.24,3.492,3.492,0,0,1,.488,1.856v.016a.173.173,0,0,1-.048.128.153.153,0,0,1-.112.048l-1.216.064q-.16,0-.16-.144v-.048a2.2,2.2,0,0,0-.64-1.648A2.347,2.347,0,0,0-65.912-10a2.375,2.375,0,0,0-1.72.624,2.183,2.183,0,0,0-.648,1.648v4.256a2.183,2.183,0,0,0,.648,1.648,2.375,2.375,0,0,0,1.72.624A2.347,2.347,0,0,0-64.2-1.824a2.2,2.2,0,0,0,.64-1.648V-3.5q0-.144.16-.144l1.216.064a.141.141,0,0,1,.16.16,3.534,3.534,0,0,1-.488,1.864A3.318,3.318,0,0,1-63.88-.3,4.419,4.419,0,0,1-65.912.144Zm9.76,0a4.3,4.3,0,0,1-2.064-.48,3.433,3.433,0,0,1-1.392-1.352A3.99,3.99,0,0,1-60.1-3.7V-7.5a3.946,3.946,0,0,1,.5-2,3.448,3.448,0,0,1,1.392-1.344,4.3,4.3,0,0,1,2.064-.48,4.339,4.339,0,0,1,2.08.48A3.448,3.448,0,0,1-52.68-9.5a3.946,3.946,0,0,1,.5,2V-3.7a3.99,3.99,0,0,1-.5,2.008A3.433,3.433,0,0,1-54.072-.336,4.339,4.339,0,0,1-56.152.144Zm0-1.328a2.38,2.38,0,0,0,1.76-.672,2.4,2.4,0,0,0,.672-1.776V-7.52a2.449,2.449,0,0,0-.672-1.8,2.365,2.365,0,0,0-1.76-.68,2.338,2.338,0,0,0-1.752.68,2.466,2.466,0,0,0-.664,1.8v3.888A2.417,2.417,0,0,0-57.9-1.856,2.353,2.353,0,0,0-56.152-1.184Zm12.9-9.856a.141.141,0,0,1,.16-.16h1.216a.141.141,0,0,1,.16.16V-.16a.141.141,0,0,1-.16.16h-1.168a.232.232,0,0,1-.192-.112l-5.008-8.176q-.016-.048-.048-.04t-.032.056l.016,8.112a.141.141,0,0,1-.16.16h-1.216a.141.141,0,0,1-.16-.16V-11.04a.141.141,0,0,1,.16-.16H-48.5a.232.232,0,0,1,.192.112l4.992,8.176q.016.048.048.04t.032-.056Zm11.3-.16a.141.141,0,0,1,.16.16v1.024a.141.141,0,0,1-.16.16h-3.072a.057.057,0,0,0-.064.064V-.16a.141.141,0,0,1-.16.16h-1.216a.141.141,0,0,1-.16-.16V-9.792a.057.057,0,0,0-.064-.064h-2.928a.141.141,0,0,1-.16-.16V-11.04a.141.141,0,0,1,.16-.16ZM-29.736,0a.141.141,0,0,1-.16-.16V-11.04a.141.141,0,0,1,.16-.16h1.216a.141.141,0,0,1,.16.16V-.16a.141.141,0,0,1-.16.16Zm10.592-11.04a.141.141,0,0,1,.16-.16h1.216a.141.141,0,0,1,.16.16V-.16a.141.141,0,0,1-.16.16h-1.168a.232.232,0,0,1-.192-.112l-5.008-8.176q-.016-.048-.048-.04t-.032.056L-24.2-.16a.141.141,0,0,1-.16.16h-1.216a.141.141,0,0,1-.16-.16V-11.04a.141.141,0,0,1,.16-.16h1.184a.232.232,0,0,1,.192.112l4.992,8.176q.016.048.048.04t.032-.056Zm8,11.168A4.44,4.44,0,0,1-13.2-.328a3.347,3.347,0,0,1-1.384-1.3,3.72,3.72,0,0,1-.5-1.928V-11.04a.141.141,0,0,1,.16-.16H-13.7a.141.141,0,0,1,.16.16v7.52a2.227,2.227,0,0,0,.664,1.68,2.4,2.4,0,0,0,1.736.64,2.369,2.369,0,0,0,1.728-.64A2.242,2.242,0,0,0-8.76-3.52v-7.52a.141.141,0,0,1,.16-.16h1.216a.141.141,0,0,1,.16.16v7.488a3.767,3.767,0,0,1-.488,1.928,3.3,3.3,0,0,1-1.376,1.3A4.44,4.44,0,0,1-11.144.128ZM2.728-10.032a.141.141,0,0,1-.16.16h-5.68a.057.057,0,0,0-.064.064v3.44a.057.057,0,0,0,.064.064h3.9a.141.141,0,0,1,.16.16v1.008a.141.141,0,0,1-.16.16h-3.9a.057.057,0,0,0-.064.064v3.52a.057.057,0,0,0,.064.064h5.68a.141.141,0,0,1,.16.16V-.16a.141.141,0,0,1-.16.16h-7.12a.141.141,0,0,1-.16-.16V-11.04a.141.141,0,0,1,.16-.16h7.12a.141.141,0,0,1,.16.16ZM14.44,0a.175.175,0,0,1-.176-.112L12.024-4.9a.063.063,0,0,0-.064-.048h-2.3a.057.057,0,0,0-.064.064V-.16a.141.141,0,0,1-.16.16H8.216a.141.141,0,0,1-.16-.16V-11.04a.141.141,0,0,1,.16-.16h4.3a3.449,3.449,0,0,1,1.688.4,2.815,2.815,0,0,1,1.128,1.12,3.37,3.37,0,0,1,.4,1.664,3.063,3.063,0,0,1-.584,1.9,2.867,2.867,0,0,1-1.624,1.048q-.064.032-.032.08l2.32,4.8a.178.178,0,0,1,.016.08Q15.832,0,15.7,0ZM9.656-9.872a.057.057,0,0,0-.064.064v3.584a.057.057,0,0,0,.064.064h2.672a1.855,1.855,0,0,0,1.36-.5A1.79,1.79,0,0,0,14.2-8a1.838,1.838,0,0,0-.512-1.36,1.838,1.838,0,0,0-1.36-.512Zm15.648-.16a.141.141,0,0,1-.16.16h-5.68a.057.057,0,0,0-.064.064v3.44a.057.057,0,0,0,.064.064h3.9a.141.141,0,0,1,.16.16v1.008a.141.141,0,0,1-.16.16h-3.9a.057.057,0,0,0-.064.064v3.52a.057.057,0,0,0,.064.064h5.68a.141.141,0,0,1,.16.16V-.16a.141.141,0,0,1-.16.16h-7.12a.141.141,0,0,1-.16-.16V-11.04a.141.141,0,0,1,.16-.16h7.12a.141.141,0,0,1,.16.16ZM34.232,0a.187.187,0,0,1-.192-.128L33.464-2a.063.063,0,0,0-.064-.048H28.9A.063.063,0,0,0,28.84-2L28.264-.128A.187.187,0,0,1,28.072,0h-1.3q-.176,0-.128-.176l3.5-10.9a.187.187,0,0,1,.192-.128h1.6a.187.187,0,0,1,.192.128l3.536,10.9.016.064q0,.112-.144.112ZM29.24-3.344a.044.044,0,0,0,.008.056.077.077,0,0,0,.056.024h3.68a.077.077,0,0,0,.056-.024.044.044,0,0,0,.008-.056L31.192-9.28a.051.051,0,0,0-.048-.032.051.051,0,0,0-.048.032ZM37.672,0a.141.141,0,0,1-.16-.16V-11.04a.141.141,0,0,1,.16-.16h3.872a3.879,3.879,0,0,1,2.656.872A2.945,2.945,0,0,1,45.192-8v4.8A2.945,2.945,0,0,1,44.2-.872,3.879,3.879,0,0,1,41.544,0Zm1.376-1.392a.057.057,0,0,0,.064.064h2.5a1.969,1.969,0,0,0,1.48-.568,2.153,2.153,0,0,0,.568-1.528V-7.776A2.1,2.1,0,0,0,43.1-9.3a1.99,1.99,0,0,0-1.5-.568h-2.5a.057.057,0,0,0-.064.064ZM47.56,0a.141.141,0,0,1-.16-.16V-11.04a.141.141,0,0,1,.16-.16h1.216a.141.141,0,0,1,.16.16V-.16a.141.141,0,0,1-.16.16ZM58.152-11.04a.141.141,0,0,1,.16-.16h1.216a.141.141,0,0,1,.16.16V-.16a.141.141,0,0,1-.16.16H58.36a.232.232,0,0,1-.192-.112L53.16-8.288q-.016-.048-.048-.04t-.032.056L53.1-.16a.141.141,0,0,1-.16.16H51.72a.141.141,0,0,1-.16-.16V-11.04a.141.141,0,0,1,.16-.16H52.9a.232.232,0,0,1,.192.112l4.992,8.176q.016.048.048.04t.032-.056ZM65.928.128a4.4,4.4,0,0,1-2.04-.456,3.3,3.3,0,0,1-1.376-1.3,3.767,3.767,0,0,1-.488-1.928v-4.1a3.756,3.756,0,0,1,.488-1.936,3.31,3.31,0,0,1,1.376-1.288,4.4,4.4,0,0,1,2.04-.456,4.419,4.419,0,0,1,2.032.448,3.354,3.354,0,0,1,1.368,1.24,3.332,3.332,0,0,1,.488,1.784v.176a.141.141,0,0,1-.16.16H68.44a.141.141,0,0,1-.16-.16v-.144a2.028,2.028,0,0,0-.648-1.56,2.408,2.408,0,0,0-1.7-.6,2.375,2.375,0,0,0-1.72.624A2.2,2.2,0,0,0,63.56-7.7V-3.5a2.162,2.162,0,0,0,.672,1.664,2.483,2.483,0,0,0,1.76.624,2.413,2.413,0,0,0,1.672-.552A1.927,1.927,0,0,0,68.28-3.28V-4.512a.057.057,0,0,0-.064-.064h-2.16a.141.141,0,0,1-.16-.16v-.992a.141.141,0,0,1,.16-.16h3.6a.141.141,0,0,1,.16.16V-3.7A3.713,3.713,0,0,1,68.768-.864,3.963,3.963,0,0,1,65.928.128Z" transform="translate(75.31 16)" fill="#fff"/>
    </g>
    <g id="Group_3172" data-name="Group 3172" transform="translate(588.618 4980.101)">
      <path id="Path_33" data-name="Path 33" d="M13.57,25.139A11.57,11.57,0,0,1,5.389,5.389,11.57,11.57,0,1,1,21.751,21.751,11.494,11.494,0,0,1,13.57,25.139ZM13.57,4a9.57,9.57,0,1,0,9.57,9.57A9.581,9.581,0,0,0,13.57,4Z" transform="translate(-3 -3)" fill="#004c97"/>
      <g id="Group_59" data-name="Group 59" transform="translate(6.342 6.342)">
        <path id="Path_34" data-name="Path 34" d="M18,21.456a1,1,0,0,1-.707-1.707l3.521-3.521-3.521-3.521a1,1,0,1,1,1.414-1.414l4.228,4.228a1,1,0,0,1,0,1.414l-4.228,4.228A1,1,0,0,1,18,21.456Z" transform="translate(-13.772 -12)" fill="#004c97"/>
        <path id="Path_35" data-name="Path 35" d="M20.456,19H12a1,1,0,0,1,0-2h8.456a1,1,0,0,1,0,2Z" transform="translate(-12 -13.772)" fill="#004c97"/>
      </g>
    </g>
  </g>
</svg>
