<svg xmlns="http://www.w3.org/2000/svg" xmlns:xlink="http://www.w3.org/1999/xlink" width="663" height="28.762" viewBox="0 0 663 28.762">
  <defs>
    <linearGradient id="linear-gradient" x1="0.025" y1="0.5" x2="1.075" y2="0.5" gradientUnits="objectBoundingBox">
      <stop offset="0" stop-color="#004c97"/>
      <stop offset="0.424" stop-color="#e4eef8"/>
      <stop offset="1" stop-color="#fff"/>
    </linearGradient>
  </defs>
  <g id="Group_3736" data-name="Group 3736" transform="translate(-491 -674.014)">
    <g id="Group_3726" data-name="Group 3726">
      <g id="Group_67" data-name="Group 67" transform="translate(491 674.014)">
        <path id="Path_82" data-name="Path 82" d="M-316.719,339.174a14.1,14.1,0,0,1-12.751-8.071,1.723,1.723,0,0,1,.818-2.292,1.723,1.723,0,0,1,2.292.818,10.659,10.659,0,0,0,10.089,6.1,10.646,10.646,0,0,0,9.212-6.107,1.719,1.719,0,0,1,2.29-.82,1.721,1.721,0,0,1,.82,2.29,14.078,14.078,0,0,1-12.18,8.075c-.2.009-.392.012-.588.012Z" transform="translate(330.604 -310.688)" fill="#f15f1f" fill-rule="evenodd"/>
        <path id="Path_83" data-name="Path 83" d="M-304.151,334.042h-24.326a1.72,1.72,0,0,1-1.72-1.721,1.719,1.719,0,0,1,1.72-1.719h22.464a10.692,10.692,0,0,0-10.529-8.929A10.645,10.645,0,0,0-326,327.4a1.723,1.723,0,0,1-2.323.725,1.723,1.723,0,0,1-.725-2.323,14.077,14.077,0,0,1,12.5-7.566,14.133,14.133,0,0,1,14.111,14.085,1.729,1.729,0,0,1-.5,1.218,1.719,1.719,0,0,1-1.217.5Z" transform="translate(330.197 -318.234)" fill="#f15f1f" fill-rule="evenodd"/>
        <path id="Path_84" data-name="Path 84" d="M-296.983,336.808a1.556,1.556,0,0,1,1.557,1.555,1.557,1.557,0,0,1-1.557,1.557h-10.579a1.556,1.556,0,0,1-1.555-1.557v-15.53a1.556,1.556,0,0,1,1.555-1.557h9.925a1.556,1.556,0,0,1,1.555,1.557,1.554,1.554,0,0,1-1.555,1.555h-8.368V328.7h6.4a1.557,1.557,0,0,1,1.557,1.555,1.557,1.557,0,0,1-1.557,1.557h-6.4v4.993Zm109.53,0h-9.022v-4.993h6.4a1.555,1.555,0,0,0,1.555-1.557,1.555,1.555,0,0,0-1.555-1.555h-6.4v-4.316h8.368a1.554,1.554,0,0,0,1.555-1.555,1.555,1.555,0,0,0-1.555-1.557h-9.925a1.557,1.557,0,0,0-1.557,1.557v15.53a1.557,1.557,0,0,0,1.557,1.557h10.579a1.557,1.557,0,0,0,1.557-1.557,1.556,1.556,0,0,0-1.557-1.555Zm-42.6-4.273h4.806l-2.4-5.7-2.4,5.7Zm10.387,5.224a1.555,1.555,0,0,1-.828,2.038,1.561,1.561,0,0,1-.6.123,1.554,1.554,0,0,1-1.434-.953l-1.4-3.32h-7.433l-1.4,3.32a1.554,1.554,0,0,1-1.434.953,1.556,1.556,0,0,1-.6-.123,1.557,1.557,0,0,1-.83-2.038l1.8-4.264.007-.019,4.746-11.246.022-.048c.012-.028.026-.055.04-.083l.036-.062.041-.067.045-.062c.016-.021.031-.041.047-.06l.048-.057c.019-.019.036-.038.053-.057l.053-.048c.019-.019.04-.036.06-.053l.055-.043.067-.048.062-.036c.022-.014.045-.029.069-.041s.048-.024.072-.034l.055-.028.01,0c.026-.01.052-.019.078-.028s.045-.017.069-.024l.059-.016a1.6,1.6,0,0,1,.357-.05l.031,0,.053,0a1.542,1.542,0,0,1,.328.047c.022.005.045.01.067.017s.041.014.062.021l.085.031.01,0,.05.024c.026.012.054.024.079.038l.064.038.066.041c.022.014.043.029.064.045s.04.029.059.045.04.035.059.052.036.033.055.052.033.036.05.054.034.038.052.059l.045.059c.016.021.031.041.045.064a.7.7,0,0,1,.041.067c.014.021.026.041.038.062s.026.055.038.081l.024.05,4.744,11.248.009.016,1.8,4.266Zm-58.134,2.161a1.555,1.555,0,0,0,1.555-1.557v-15.53a1.555,1.555,0,0,0-1.555-1.557,1.557,1.557,0,0,0-1.557,1.557v11.516l-9.733-12.473a1.556,1.556,0,0,0-1.227-.6h-.328a1.556,1.556,0,0,0-1.555,1.557v15.53a1.555,1.555,0,0,0,1.555,1.557,1.557,1.557,0,0,0,1.557-1.557V326.937l9.664,12.384a1.556,1.556,0,0,0,1.227.6Zm37.274-18.643a1.557,1.557,0,0,0-1.557,1.557V328.7h-8.872v-5.871a1.556,1.556,0,0,0-1.555-1.557,1.557,1.557,0,0,0-1.557,1.557v15.53a1.557,1.557,0,0,0,1.557,1.557,1.555,1.555,0,0,0,1.555-1.557v-6.547h8.872v6.547a1.557,1.557,0,0,0,1.557,1.557,1.556,1.556,0,0,0,1.555-1.557v-15.53a1.556,1.556,0,0,0-1.555-1.557Zm30.179,18.983a8.158,8.158,0,0,0,2.549-.4,5.333,5.333,0,0,0,3.85-4.257c.585-3.836-3.286-5.5-4.939-6.211-.2-.086-.393-.169-.5-.223-.243-.121-.54-.242-.884-.378-1.179-.473-3.372-1.355-3.348-2.561a1.9,1.9,0,0,1,1.374-1.767,5.2,5.2,0,0,1,5.372,1.248,1.555,1.555,0,0,0,2.2,0,1.554,1.554,0,0,0,0-2.2,8.322,8.322,0,0,0-8.734-1.929,5.01,5.01,0,0,0-3.32,4.592c-.064,3.355,3.558,4.81,5.3,5.509.269.107.521.209.649.273.19.095.411.19.666.3,2.751,1.182,3.225,2.007,3.092,2.884a2.329,2.329,0,0,1-1.746,1.771,5.992,5.992,0,0,1-5.793-1.438,1.558,1.558,0,0,0-2.2,0,1.555,1.555,0,0,0,0,2.2,9.231,9.231,0,0,0,6.413,2.585Zm-57.891-10.465v-5.408h4.83a2.636,2.636,0,0,1,2.911,2.7,2.636,2.636,0,0,1-2.911,2.7Zm-1.557,10.125a1.557,1.557,0,0,0,1.557-1.557v-5.457h4.83a5.727,5.727,0,0,0,6.023-5.816,5.727,5.727,0,0,0-6.023-5.816H-269.8a1.558,1.558,0,0,0-1.555,1.558v15.53a1.557,1.557,0,0,0,1.555,1.557Zm87.4-1.477h-.259V337.9h.361c.174,0,.362.033.362.267,0,.29-.245.278-.464.278Zm-.259.928v-.739h.319l.452.739h.257l-.464-.739a.447.447,0,0,0,.385-.464c0-.3-.166-.459-.538-.459h-.637v1.662Zm1.465-.834a1.172,1.172,0,0,1-1.172,1.21,1.172,1.172,0,0,1-1.172-1.21,1.172,1.172,0,0,1,1.172-1.21,1.172,1.172,0,0,1,1.172,1.21Zm.226,0a1.4,1.4,0,0,0-1.4-1.4,1.4,1.4,0,0,0-1.4,1.4,1.4,1.4,0,0,0,1.4,1.4,1.4,1.4,0,0,0,1.4-1.4Z" transform="translate(345.495 -316.186)" fill="#585858" fill-rule="evenodd"/>
      </g>
      <path id="Path_7641" data-name="Path 7641" d="M-134.942-9.144a9.273,9.273,0,0,1,.456,3.072,9.75,9.75,0,0,1-.384,2.9,4.825,4.825,0,0,1-1.656,2.484,4.741,4.741,0,0,1-2.952.876,3.782,3.782,0,0,1-1.548-.324,3.6,3.6,0,0,1-1.26-.924q-.048-.048-.084-.024a.081.081,0,0,0-.036.072V4.344a.212.212,0,0,1-.24.24h-1.824a.212.212,0,0,1-.24-.24v-16.32a.212.212,0,0,1,.24-.24h1.824a.212.212,0,0,1,.24.24v.792a.081.081,0,0,0,.036.072q.036.024.084-.024a3.769,3.769,0,0,1,1.248-.936,3.643,3.643,0,0,1,1.56-.336,4.658,4.658,0,0,1,2.868.852A4.852,4.852,0,0,1-134.942-9.144Zm-2.64,6.192a5.657,5.657,0,0,0,.768-3.168,6.343,6.343,0,0,0-.6-2.976,2.384,2.384,0,0,0-2.28-1.32,2.29,2.29,0,0,0-2.112,1.3,6.336,6.336,0,0,0-.576,3.024,6.122,6.122,0,0,0,.624,3.072,2.219,2.219,0,0,0,2.04,1.224A2.324,2.324,0,0,0-137.582-2.952ZM-126.614.192a5.362,5.362,0,0,1-3.1-.9,4.719,4.719,0,0,1-1.848-2.508,9.234,9.234,0,0,1-.432-2.928,8.854,8.854,0,0,1,.408-2.88,4.722,4.722,0,0,1,1.848-2.484,5.445,5.445,0,0,1,3.144-.9,5.114,5.114,0,0,1,3.012.9,4.922,4.922,0,0,1,1.836,2.46,8.659,8.659,0,0,1,.432,2.88,9.179,9.179,0,0,1-.432,2.952,4.763,4.763,0,0,1-1.824,2.508A5.209,5.209,0,0,1-126.614.192Zm0-1.992a2.723,2.723,0,0,0,1.68-.54A2.956,2.956,0,0,0-123.9-3.864a8.233,8.233,0,0,0,.264-2.256,8.725,8.725,0,0,0-.24-2.232,2.956,2.956,0,0,0-1.032-1.524,2.837,2.837,0,0,0-1.752-.54,2.76,2.76,0,0,0-1.7.54A2.956,2.956,0,0,0-129.4-8.352a7.663,7.663,0,0,0-.264,2.232,7.919,7.919,0,0,0,.264,2.256,2.8,2.8,0,0,0,1.02,1.524A2.889,2.889,0,0,0-126.614-1.8ZM-116.126,0a.264.264,0,0,1-.264-.192l-3.456-11.76-.024-.072q0-.192.24-.192h1.872a.247.247,0,0,1,.264.216l2.28,8.712q.024.048.06.048t.06-.048L-112.766-12a.247.247,0,0,1,.264-.216h1.656a.247.247,0,0,1,.264.216l2.376,8.688q.024.048.06.048t.06-.048L-105.71-12a.247.247,0,0,1,.264-.216l1.848.024a.221.221,0,0,1,.18.072.219.219,0,0,1,.036.192l-3.48,11.736a.264.264,0,0,1-.264.192H-109a.264.264,0,0,1-.264-.192L-111.614-8.3q-.024-.048-.06-.048t-.06.048l-2.232,8.088A.247.247,0,0,1-114.23,0Zm24.48-7.632a19.062,19.062,0,0,1,.072,2.208.212.212,0,0,1-.24.24H-99.47a.085.085,0,0,0-.1.1,4.154,4.154,0,0,0,.144,1.248,2.566,2.566,0,0,0,1.068,1.5,3.561,3.561,0,0,0,2.028.54A3.082,3.082,0,0,0-93.59-3.264q.12-.24.312-.072l1.368.912a.228.228,0,0,1,.072.312,4.658,4.658,0,0,1-1.908,1.7,6.117,6.117,0,0,1-2.8.624,5.367,5.367,0,0,1-2.952-.768,4.684,4.684,0,0,1-1.8-2.184,9.112,9.112,0,0,1-.576-3.432,10.178,10.178,0,0,1,.264-2.664,4.587,4.587,0,0,1,1.728-2.616,5.134,5.134,0,0,1,3.144-.96A4.9,4.9,0,0,1-93.11-11.2,5.832,5.832,0,0,1-91.646-7.632Zm-5.088-2.784a2.717,2.717,0,0,0-1.7.516,2.546,2.546,0,0,0-.912,1.38,5.61,5.61,0,0,0-.216,1.344.085.085,0,0,0,.1.1h5.5a.085.085,0,0,0,.1-.1,7.026,7.026,0,0,0-.144-1.176,2.722,2.722,0,0,0-.948-1.5A2.742,2.742,0,0,0-96.734-10.416Zm13.416-1.92a3.069,3.069,0,0,1,1.392.312.222.222,0,0,1,.12.288l-.384,1.8q-.024.216-.288.144a2.511,2.511,0,0,0-.96-.168l-.336.024a2.691,2.691,0,0,0-1.86.78,2.581,2.581,0,0,0-.732,1.908V-.24a.212.212,0,0,1-.24.24H-88.43a.212.212,0,0,1-.24-.24V-11.976a.212.212,0,0,1,.24-.24h1.824a.212.212,0,0,1,.24.24V-10.7q0,.072.036.084t.06-.036A3.345,3.345,0,0,1-83.318-12.336Zm13.248,4.7A19.062,19.062,0,0,1-70-5.424a.212.212,0,0,1-.24.24h-7.656a.085.085,0,0,0-.1.1,4.154,4.154,0,0,0,.144,1.248,2.566,2.566,0,0,0,1.068,1.5,3.561,3.561,0,0,0,2.028.54,3.082,3.082,0,0,0,2.736-1.464q.12-.24.312-.072l1.368.912a.228.228,0,0,1,.072.312,4.658,4.658,0,0,1-1.908,1.7,6.117,6.117,0,0,1-2.8.624,5.367,5.367,0,0,1-2.952-.768,4.684,4.684,0,0,1-1.8-2.184,9.112,9.112,0,0,1-.576-3.432,10.178,10.178,0,0,1,.264-2.664A4.587,4.587,0,0,1-78.3-11.448a5.134,5.134,0,0,1,3.144-.96A4.9,4.9,0,0,1-71.534-11.2,5.832,5.832,0,0,1-70.07-7.632Zm-5.088-2.784a2.717,2.717,0,0,0-1.7.516,2.546,2.546,0,0,0-.912,1.38,5.61,5.61,0,0,0-.216,1.344.085.085,0,0,0,.1.1h5.5a.085.085,0,0,0,.1-.1,7.026,7.026,0,0,0-.144-1.176,2.722,2.722,0,0,0-.948-1.5A2.742,2.742,0,0,0-75.158-10.416ZM-59.51-16.56a.212.212,0,0,1,.24-.24h1.824a.212.212,0,0,1,.24.24V-.24a.212.212,0,0,1-.24.24H-59.27a.212.212,0,0,1-.24-.24v-.792a.081.081,0,0,0-.036-.072q-.036-.024-.084.024a3.769,3.769,0,0,1-1.248.936,3.643,3.643,0,0,1-1.56.336A4.658,4.658,0,0,1-65.306-.66a4.852,4.852,0,0,1-1.668-2.412,9.141,9.141,0,0,1-.456-3.072,9.75,9.75,0,0,1,.384-2.9A4.891,4.891,0,0,1-65.39-11.52a4.7,4.7,0,0,1,2.952-.888,3.782,3.782,0,0,1,1.548.324,3.6,3.6,0,0,1,1.26.924q.048.048.084.024a.081.081,0,0,0,.036-.072ZM-60.11-3.1a6.482,6.482,0,0,0,.552-3.024,6.327,6.327,0,0,0-.6-3.072,2.219,2.219,0,0,0-2.04-1.224,2.324,2.324,0,0,0-2.136,1.152A5.8,5.8,0,0,0-65.1-6.1a6.343,6.343,0,0,0,.6,2.976,2.384,2.384,0,0,0,2.28,1.32A2.29,2.29,0,0,0-60.11-3.1Zm20.952-5.952a9.75,9.75,0,0,1,.384,2.9,9.141,9.141,0,0,1-.456,3.072A4.852,4.852,0,0,1-40.9-.66a4.658,4.658,0,0,1-2.868.852,3.643,3.643,0,0,1-1.56-.336,3.769,3.769,0,0,1-1.248-.936q-.048-.048-.084-.024a.081.081,0,0,0-.036.072V-.24a.212.212,0,0,1-.24.24h-1.824A.212.212,0,0,1-49-.24V-16.56a.212.212,0,0,1,.24-.24h1.824a.212.212,0,0,1,.24.24v5.352a.081.081,0,0,0,.036.072q.036.024.084-.024a3.6,3.6,0,0,1,1.26-.924,3.782,3.782,0,0,1,1.548-.324,4.7,4.7,0,0,1,2.952.888A4.891,4.891,0,0,1-39.158-9.048ZM-41.7-3.12A6.343,6.343,0,0,0-41.1-6.1a5.8,5.8,0,0,0-.768-3.168,2.324,2.324,0,0,0-2.136-1.152,2.219,2.219,0,0,0-2.04,1.224A6.288,6.288,0,0,0-46.67-6.12,6.423,6.423,0,0,0-46.094-3.1a2.29,2.29,0,0,0,2.112,1.3A2.384,2.384,0,0,0-41.7-3.12Zm5.256,7.9q-.168,0-.168-.24V3.12a.212.212,0,0,1,.24-.24h.048a4.585,4.585,0,0,0,1.512-.24,1.868,1.868,0,0,0,.912-.8,7.43,7.43,0,0,0,.7-1.764.091.091,0,0,0,.012-.084l-.012-.06-4.008-11.88-.024-.1q0-.168.216-.168h1.944a.28.28,0,0,1,.288.192l2.712,9.048a.077.077,0,0,0,.072.048.077.077,0,0,0,.072-.048l2.688-9.048a.28.28,0,0,1,.288-.192h1.9q.264,0,.192.264L-31.238.84a10.25,10.25,0,0,1-1.1,2.46,3,3,0,0,1-1.44,1.14,7.317,7.317,0,0,1-2.5.336ZM-14.39.192a8.157,8.157,0,0,1-3.2-.576,4.7,4.7,0,0,1-2.088-1.632,4.231,4.231,0,0,1-.732-2.472v-.7a.212.212,0,0,1,.24-.24h1.752a.212.212,0,0,1,.24.24v.576a2.421,2.421,0,0,0,1.056,2.016,4.742,4.742,0,0,0,2.9.792,3.838,3.838,0,0,0,2.5-.7,2.254,2.254,0,0,0,.84-1.824,1.944,1.944,0,0,0-.432-1.272,4.117,4.117,0,0,0-1.26-.972A24.091,24.091,0,0,0-14.99-7.632a24.373,24.373,0,0,1-2.772-1.224,5.126,5.126,0,0,1-1.692-1.452,3.686,3.686,0,0,1-.672-2.268,3.915,3.915,0,0,1,1.476-3.24,6.238,6.238,0,0,1,4-1.176,7.591,7.591,0,0,1,3.12.6,4.794,4.794,0,0,1,2.076,1.68,4.342,4.342,0,0,1,.732,2.5v.48a.212.212,0,0,1-.24.24h-1.8a.212.212,0,0,1-.24-.24v-.36a2.59,2.59,0,0,0-1-2.076A4.173,4.173,0,0,0-14.75-15a3.777,3.777,0,0,0-2.3.612,2.071,2.071,0,0,0-.816,1.764,1.994,1.994,0,0,0,.408,1.3,3.546,3.546,0,0,0,1.212.9q.8.4,2.46,1.02a27.217,27.217,0,0,1,2.76,1.236A5.269,5.269,0,0,1-9.278-6.684a3.7,3.7,0,0,1,.7,2.292A4.058,4.058,0,0,1-10.13-1.044,6.651,6.651,0,0,1-14.39.192ZM4.138-7.632A19.062,19.062,0,0,1,4.21-5.424a.212.212,0,0,1-.24.24H-3.686a.085.085,0,0,0-.1.1A4.154,4.154,0,0,0-3.638-3.84,2.566,2.566,0,0,0-2.57-2.34,3.561,3.561,0,0,0-.542-1.8,3.082,3.082,0,0,0,2.194-3.264q.12-.24.312-.072l1.368.912a.228.228,0,0,1,.072.312,4.658,4.658,0,0,1-1.908,1.7,6.117,6.117,0,0,1-2.8.624A5.368,5.368,0,0,1-3.71-.552a4.684,4.684,0,0,1-1.8-2.184,9.111,9.111,0,0,1-.576-3.432,10.178,10.178,0,0,1,.264-2.664,4.587,4.587,0,0,1,1.728-2.616,5.134,5.134,0,0,1,3.144-.96A4.9,4.9,0,0,1,2.674-11.2,5.832,5.832,0,0,1,4.138-7.632ZM-.95-10.416a2.717,2.717,0,0,0-1.7.516,2.546,2.546,0,0,0-.912,1.38,5.611,5.611,0,0,0-.216,1.344.085.085,0,0,0,.1.1h5.5a.085.085,0,0,0,.1-.1,7.026,7.026,0,0,0-.144-1.176,2.722,2.722,0,0,0-.948-1.5A2.742,2.742,0,0,0-.95-10.416Zm20.76-1.968a3.82,3.82,0,0,1,2.88,1.092,4.185,4.185,0,0,1,1.056,3.036V-.24a.212.212,0,0,1-.24.24h-1.8a.212.212,0,0,1-.24-.24V-7.776a2.687,2.687,0,0,0-.66-1.908,2.3,2.3,0,0,0-1.764-.708,2.436,2.436,0,0,0-1.8.7,2.53,2.53,0,0,0-.7,1.872V-.24a.212.212,0,0,1-.24.24h-1.8a.212.212,0,0,1-.24-.24V-7.776a2.687,2.687,0,0,0-.66-1.908,2.3,2.3,0,0,0-1.764-.708,2.317,2.317,0,0,0-1.764.7,2.609,2.609,0,0,0-.66,1.872V-.24a.212.212,0,0,1-.24.24H7.354a.212.212,0,0,1-.24-.24V-11.976a.212.212,0,0,1,.24-.24H9.178a.212.212,0,0,1,.24.24v.816a.081.081,0,0,0,.036.072q.036.024.084-.024a3.765,3.765,0,0,1,3.072-1.272,4.329,4.329,0,0,1,2.088.468,3.245,3.245,0,0,1,1.344,1.38q.072.1.144,0a3.594,3.594,0,0,1,1.524-1.392A4.781,4.781,0,0,1,19.81-12.384Zm17.04,3.24a9.273,9.273,0,0,1,.456,3.072,9.75,9.75,0,0,1-.384,2.9A4.825,4.825,0,0,1,35.266-.684a4.741,4.741,0,0,1-2.952.876,3.782,3.782,0,0,1-1.548-.324,3.6,3.6,0,0,1-1.26-.924q-.048-.048-.084-.024a.081.081,0,0,0-.036.072V4.344a.212.212,0,0,1-.24.24H27.322a.212.212,0,0,1-.24-.24v-16.32a.212.212,0,0,1,.24-.24h1.824a.212.212,0,0,1,.24.24v.792a.081.081,0,0,0,.036.072q.036.024.084-.024a3.769,3.769,0,0,1,1.248-.936,3.643,3.643,0,0,1,1.56-.336,4.658,4.658,0,0,1,2.868.852A4.852,4.852,0,0,1,36.85-9.144ZM34.21-2.952a5.657,5.657,0,0,0,.768-3.168,6.343,6.343,0,0,0-.6-2.976,2.384,2.384,0,0,0-2.28-1.32,2.29,2.29,0,0,0-2.112,1.3A6.336,6.336,0,0,0,29.41-6.1a6.122,6.122,0,0,0,.624,3.072A2.219,2.219,0,0,0,32.074-1.8,2.324,2.324,0,0,0,34.21-2.952Zm15.864-4.68a19.062,19.062,0,0,1,.072,2.208.212.212,0,0,1-.24.24H42.25a.085.085,0,0,0-.1.1A4.154,4.154,0,0,0,42.3-3.84a2.566,2.566,0,0,0,1.068,1.5,3.561,3.561,0,0,0,2.028.54A3.082,3.082,0,0,0,48.13-3.264q.12-.24.312-.072l1.368.912a.228.228,0,0,1,.072.312,4.658,4.658,0,0,1-1.908,1.7,6.117,6.117,0,0,1-2.8.624,5.367,5.367,0,0,1-2.952-.768,4.684,4.684,0,0,1-1.8-2.184,9.111,9.111,0,0,1-.576-3.432,10.178,10.178,0,0,1,.264-2.664,4.587,4.587,0,0,1,1.728-2.616,5.134,5.134,0,0,1,3.144-.96A4.9,4.9,0,0,1,48.61-11.2,5.832,5.832,0,0,1,50.074-7.632Zm-5.088-2.784a2.717,2.717,0,0,0-1.7.516,2.546,2.546,0,0,0-.912,1.38,5.611,5.611,0,0,0-.216,1.344.085.085,0,0,0,.1.1h5.5a.085.085,0,0,0,.1-.1A7.026,7.026,0,0,0,47.7-8.352a2.722,2.722,0,0,0-.948-1.5A2.742,2.742,0,0,0,44.986-10.416ZM58.4-12.336a3.069,3.069,0,0,1,1.392.312.222.222,0,0,1,.12.288l-.384,1.8q-.024.216-.288.144a2.511,2.511,0,0,0-.96-.168l-.336.024a2.691,2.691,0,0,0-1.86.78,2.581,2.581,0,0,0-.732,1.908V-.24a.212.212,0,0,1-.24.24H53.29a.212.212,0,0,1-.24-.24V-11.976a.212.212,0,0,1,.24-.24h1.824a.212.212,0,0,1,.24.24V-10.7q0,.072.036.084t.06-.036A3.345,3.345,0,0,1,58.4-12.336ZM72.226.192a8.157,8.157,0,0,1-3.2-.576,4.7,4.7,0,0,1-2.088-1.632A4.231,4.231,0,0,1,66.2-4.488v-.7a.212.212,0,0,1,.24-.24h1.752a.212.212,0,0,1,.24.24v.576A2.421,2.421,0,0,0,69.49-2.592a4.742,4.742,0,0,0,2.9.792,3.838,3.838,0,0,0,2.5-.7,2.254,2.254,0,0,0,.84-1.824A1.944,1.944,0,0,0,75.3-5.592a4.117,4.117,0,0,0-1.26-.972,24.09,24.09,0,0,0-2.412-1.068,24.373,24.373,0,0,1-2.772-1.224,5.126,5.126,0,0,1-1.692-1.452,3.686,3.686,0,0,1-.672-2.268,3.915,3.915,0,0,1,1.476-3.24,6.238,6.238,0,0,1,4-1.176,7.591,7.591,0,0,1,3.12.6,4.794,4.794,0,0,1,2.076,1.68,4.342,4.342,0,0,1,.732,2.5v.48a.212.212,0,0,1-.24.24h-1.8a.212.212,0,0,1-.24-.24v-.36a2.59,2.59,0,0,0-1-2.076A4.173,4.173,0,0,0,71.866-15a3.777,3.777,0,0,0-2.3.612,2.071,2.071,0,0,0-.816,1.764,1.994,1.994,0,0,0,.408,1.3,3.546,3.546,0,0,0,1.212.9q.8.4,2.46,1.02a27.217,27.217,0,0,1,2.76,1.236,5.269,5.269,0,0,1,1.752,1.488,3.7,3.7,0,0,1,.7,2.292,4.058,4.058,0,0,1-1.548,3.348A6.651,6.651,0,0,1,72.226.192Zm13.632,0a5.362,5.362,0,0,1-3.1-.9,4.719,4.719,0,0,1-1.848-2.508,9.234,9.234,0,0,1-.432-2.928,8.854,8.854,0,0,1,.408-2.88,4.722,4.722,0,0,1,1.848-2.484,5.445,5.445,0,0,1,3.144-.9,5.114,5.114,0,0,1,3.012.9,4.922,4.922,0,0,1,1.836,2.46,8.659,8.659,0,0,1,.432,2.88,9.179,9.179,0,0,1-.432,2.952A4.763,4.763,0,0,1,88.906-.708,5.209,5.209,0,0,1,85.858.192Zm0-1.992a2.723,2.723,0,0,0,1.68-.54A2.956,2.956,0,0,0,88.57-3.864a8.233,8.233,0,0,0,.264-2.256,8.725,8.725,0,0,0-.24-2.232,2.956,2.956,0,0,0-1.032-1.524,2.837,2.837,0,0,0-1.752-.54,2.76,2.76,0,0,0-1.7.54,2.956,2.956,0,0,0-1.032,1.524A7.663,7.663,0,0,0,82.81-6.12a7.919,7.919,0,0,0,.264,2.256,2.8,2.8,0,0,0,1.02,1.524A2.889,2.889,0,0,0,85.858-1.8ZM94.426,0a.212.212,0,0,1-.24-.24V-16.56a.212.212,0,0,1,.24-.24H96.25a.212.212,0,0,1,.24.24V-.24a.212.212,0,0,1-.24.24Zm9.864-12.408a5.925,5.925,0,0,1,2.556.516,3.915,3.915,0,0,1,1.68,1.44,3.827,3.827,0,0,1,.588,2.1V-.24a.212.212,0,0,1-.24.24H107.05a.212.212,0,0,1-.24-.24V-1.1q0-.12-.12-.048a4.17,4.17,0,0,1-1.524,1,5.516,5.516,0,0,1-2,.348,4.664,4.664,0,0,1-2.94-.9,3.228,3.228,0,0,1-1.164-2.724,3.589,3.589,0,0,1,1.308-2.94,5.636,5.636,0,0,1,3.66-1.068h2.688a.085.085,0,0,0,.1-.1v-.648a2.172,2.172,0,0,0-.612-1.644,2.6,2.6,0,0,0-1.86-.588,3.069,3.069,0,0,0-1.644.4,1.63,1.63,0,0,0-.78,1.068.254.254,0,0,1-.288.216L99.682-9q-.24-.048-.216-.192a3.269,3.269,0,0,1,1.512-2.316A5.749,5.749,0,0,1,104.29-12.408Zm-.624,10.656a3.686,3.686,0,0,0,2.208-.672,2.024,2.024,0,0,0,.936-1.7V-5.544a.085.085,0,0,0-.1-.1h-2.256a4.059,4.059,0,0,0-2.256.552,1.741,1.741,0,0,0-.84,1.536A1.548,1.548,0,0,0,102-2.208,2.8,2.8,0,0,0,103.666-1.752Zm13.92-10.584a3.069,3.069,0,0,1,1.392.312.222.222,0,0,1,.12.288l-.384,1.8q-.024.216-.288.144a2.511,2.511,0,0,0-.96-.168l-.336.024a2.691,2.691,0,0,0-1.86.78,2.581,2.581,0,0,0-.732,1.908V-.24a.212.212,0,0,1-.24.24h-1.824a.212.212,0,0,1-.24-.24V-11.976a.212.212,0,0,1,.24-.24H114.3a.212.212,0,0,1,.24.24V-10.7q0,.072.036.084t.06-.036A3.345,3.345,0,0,1,117.586-12.336Zm4.944-1.8a1.5,1.5,0,0,1-1.1-.432,1.5,1.5,0,0,1-.432-1.1,1.5,1.5,0,0,1,.432-1.1,1.5,1.5,0,0,1,1.1-.432,1.5,1.5,0,0,1,1.1.432,1.5,1.5,0,0,1,.432,1.1,1.5,1.5,0,0,1-.432,1.1A1.5,1.5,0,0,1,122.53-14.136ZM121.57-.024a.212.212,0,0,1-.24-.24V-11.976a.212.212,0,0,1,.24-.24h1.824a.212.212,0,0,1,.24.24V-.264a.212.212,0,0,1-.24.24Zm9.984.168a6.852,6.852,0,0,1-2.532-.432,3.959,3.959,0,0,1-1.692-1.188,2.621,2.621,0,0,1-.6-1.668v-.264a.212.212,0,0,1,.24-.24H128.7a.212.212,0,0,1,.24.24v.12a1.43,1.43,0,0,0,.732,1.176,3.208,3.208,0,0,0,1.86.5,3,3,0,0,0,1.752-.468,1.4,1.4,0,0,0,.672-1.188,1.125,1.125,0,0,0-.624-1.044,9.811,9.811,0,0,0-2.016-.732,18.86,18.86,0,0,1-2.292-.78,4.256,4.256,0,0,1-1.56-1.128,2.769,2.769,0,0,1-.636-1.884,3.033,3.033,0,0,1,1.26-2.556,5.433,5.433,0,0,1,3.348-.948,6.366,6.366,0,0,1,2.46.444,3.751,3.751,0,0,1,1.644,1.236,2.947,2.947,0,0,1,.576,1.776v.072a.212.212,0,0,1-.24.24h-1.68a.212.212,0,0,1-.24-.24V-8.88a1.377,1.377,0,0,0-.684-1.164,3.249,3.249,0,0,0-1.86-.468,3.224,3.224,0,0,0-1.716.408,1.246,1.246,0,0,0-.66,1.1,1.148,1.148,0,0,0,.636,1.056,10.231,10.231,0,0,0,2.052.768,22.008,22.008,0,0,1,2.316.756,4.127,4.127,0,0,1,1.572,1.1,2.772,2.772,0,0,1,.648,1.908,3.068,3.068,0,0,1-1.284,2.592A5.577,5.577,0,0,1,131.554.144Zm6.118-17.257a.124.124,0,0,1-.14-.14v-.406a.124.124,0,0,1,.14-.14h3.36a.124.124,0,0,1,.14.14v.406a.124.124,0,0,1-.14.14h-1.26a.049.049,0,0,0-.056.056v4.032a.124.124,0,0,1-.14.14h-.5a.124.124,0,0,1-.14-.14v-4.032a.049.049,0,0,0-.056-.056Zm7.462-.6a.188.188,0,0,1,.168-.084h.5a.124.124,0,0,1,.14.14v4.634a.124.124,0,0,1-.14.14h-.5a.124.124,0,0,1-.14-.14v-3.416a.056.056,0,0,0-.028-.056q-.028-.014-.042.028l-.84,1.274a.212.212,0,0,1-.168.084h-.14a.188.188,0,0,1-.168-.084l-.854-1.274q-.014-.042-.042-.028a.056.056,0,0,0-.028.056v3.416a.124.124,0,0,1-.14.14h-.5a.124.124,0,0,1-.14-.14v-4.634a.124.124,0,0,1,.14-.14h.518a.188.188,0,0,1,.168.084l1.064,1.6a.057.057,0,0,0,.042.014.057.057,0,0,0,.042-.014Z" transform="translate(809 698)" fill="#004c97"/>
      <rect id="Rectangle_803" data-name="Rectangle 803" width="198" height="3" transform="translate(956 691)" fill="url(#linear-gradient)"/>
    </g>
  </g>
</svg>
