<svg xmlns="http://www.w3.org/2000/svg" width="77.834" height="152.673" viewBox="0 0 77.834 152.673">
  <g id="Group_2827" data-name="Group 2827" transform="translate(0.671 0.671)">
    <g id="Group_2088" data-name="Group 2088" transform="translate(0 0)">
      <g id="Group_2083" data-name="Group 2083" transform="translate(14.396 0)">
        <path id="Line_20" data-name="Line 20" d="M0,8.8a.671.671,0,0,1-.671-.671V0A.671.671,0,0,1,0-.671.671.671,0,0,1,.671,0V8.131A.671.671,0,0,1,0,8.8Z" fill="#004c97"/>
        <path id="Line_21" data-name="Line 21" d="M0,5.841A.671.671,0,0,1-.671,5.17V0A.671.671,0,0,1,0-.671.671.671,0,0,1,.671,0V5.17A.671.671,0,0,1,0,5.841Z" transform="translate(0 14.428)" fill="#004c97"/>
      </g>
      <g id="Group_2084" data-name="Group 2084" transform="translate(0 12.889)">
        <path id="Line_22" data-name="Line 22" d="M0,26.935a.671.671,0,0,1-.671-.671V0A.671.671,0,0,1,0-.671.671.671,0,0,1,.671,0V26.265A.671.671,0,0,1,0,26.935Z" transform="translate(0 14.725)" fill="#004c97"/>
        <path id="Line_23" data-name="Line 23" d="M0,8.8a.671.671,0,0,1-.671-.671V0A.671.671,0,0,1,0-.671.671.671,0,0,1,.671,0V8.131A.671.671,0,0,1,0,8.8Z" fill="#004c97"/>
        <path id="Line_24" data-name="Line 24" d="M0,3.659a.671.671,0,0,1-.671-.671V0A.671.671,0,0,1,0-.671.671.671,0,0,1,.671,0V2.988A.671.671,0,0,1,0,3.659Z" transform="translate(0 46.346)" fill="#004c97"/>
      </g>
      <g id="Group_2085" data-name="Group 2085" transform="translate(59.156 17.846)">
        <path id="Line_25" data-name="Line 25" d="M0,23.281a.671.671,0,0,1-.671-.671V0A.671.671,0,0,1,0-.671.671.671,0,0,1,.671,0V22.61A.671.671,0,0,1,0,23.281Z" transform="translate(0 11.305)" fill="#004c97"/>
        <path id="Line_26" data-name="Line 26" d="M0,7.019a.671.671,0,0,1-.671-.671V0A.671.671,0,0,1,0-.671.671.671,0,0,1,.671,0V6.348A.671.671,0,0,1,0,7.019Z" fill="#004c97"/>
      </g>
      <g id="Group_2086" data-name="Group 2086" transform="translate(70.138 29.845)">
        <path id="Line_27" data-name="Line 27" d="M0,11.8a.671.671,0,0,1-.671-.671V0A.671.671,0,0,1,0-.671.671.671,0,0,1,.671,0V11.133A.671.671,0,0,1,0,11.8Z" fill="#004c97"/>
        <path id="Line_28" data-name="Line 28" d="M0,8.535a.671.671,0,0,1-.671-.671V0A.671.671,0,0,1,0-.671.671.671,0,0,1,.671,0V7.865A.671.671,0,0,1,0,8.535Z" transform="translate(0 18.786)" fill="#004c97"/>
      </g>
      <g id="Group_2087" data-name="Group 2087" transform="translate(76.493 6.541)">
        <path id="Line_29" data-name="Line 29" d="M0,18.628a.671.671,0,0,1-.671-.671V0A.671.671,0,0,1,0-.671.671.671,0,0,1,.671,0V17.958A.671.671,0,0,1,0,18.628Z" transform="translate(0 13.517)" fill="#004c97"/>
        <path id="Line_30" data-name="Line 30" d="M0,7.019a.671.671,0,0,1-.671-.671V0A.671.671,0,0,1,0-.671.671.671,0,0,1,.671,0V6.348A.671.671,0,0,1,0,7.019Z" fill="#004c97"/>
      </g>
    </g>
    <g id="Group_2091" data-name="Group 2091" transform="translate(8.324 27.614)">
      <path id="Path_4511" data-name="Path 4511" d="M115.611,301.171V238.328a7.725,7.725,0,0,1-7.724-7.724h-17.2a7.726,7.726,0,0,1-7.724,7.724v62.843a7.725,7.725,0,0,1,7.724,7.724h17.2A7.724,7.724,0,0,1,115.611,301.171Z" transform="translate(-77.862 -226.854)" fill="#16a019"/>
      <path id="Rectangle_484" data-name="Rectangle 484" d="M-.671-.671H42.517V87.213H-.671ZM41.176.671H.671v85.2H41.176Z" transform="translate(0 0)" fill="#004c97"/>
      <g id="Group_2090" data-name="Group 2090" transform="translate(10.262 31.585)">
        <circle id="Ellipse_35" data-name="Ellipse 35" cx="11.435" cy="11.435" r="11.435" fill="#fff"/>
        <path id="Ellipse_35_-_Outline" data-name="Ellipse 35 - Outline" d="M11.435-.571a12.006,12.006,0,0,1,8.49,20.5A12.006,12.006,0,1,1,2.945,2.945,11.928,11.928,0,0,1,11.435-.571Zm0,22.87A10.864,10.864,0,0,0,19.117,3.753,10.864,10.864,0,0,0,3.753,19.117,10.793,10.793,0,0,0,11.435,22.3Z" fill="#004c97"/>
        <circle id="Ellipse_36" data-name="Ellipse 36" cx="8.611" cy="8.611" r="8.611" transform="translate(2.824 2.824)" fill="#16a019"/>
        <g id="Group_2089" data-name="Group 2089" transform="translate(5.954 8.01)">
          <path id="Path_4512" data-name="Path 4512" d="M95.649,248.314a2.047,2.047,0,0,1,1.615.809,3.648,3.648,0,0,1,.664,2.1l1.323.051-.035.884-1.294-.051a7.2,7.2,0,0,1-.664,2.737l-1.7-.067a7.249,7.249,0,0,0,.542-1.331,7.146,7.146,0,0,0,.309-1.4l-2-.077-.185.425a4.822,4.822,0,0,1-1.162,1.764,2.1,2.1,0,0,1-1.481.477,1.9,1.9,0,0,1-1.51-.794,3.706,3.706,0,0,1-.652-2.066l-.985-.039.035-.884.959.039a7.4,7.4,0,0,1,.7-2.647l1.485.664a7,7,0,0,0-.583,2.044l1.9.075a10.022,10.022,0,0,1,.908-1.757,2.454,2.454,0,0,1,.811-.748A1.944,1.944,0,0,1,95.649,248.314Zm.02,1.944a.574.574,0,0,0-.467.2,2.766,2.766,0,0,0-.412.642l1.605.063C96.322,250.577,96.078,250.277,95.67,250.258Zm-4.015,2.44a.614.614,0,0,0,.475-.181,2.305,2.305,0,0,0,.4-.618l-1.514-.061Q91.108,252.677,91.655,252.7Z" transform="translate(-88.433 -248.247)" fill="#fff"/>
        </g>
      </g>
      <circle id="Ellipse_37" data-name="Ellipse 37" cx="2.006" cy="2.006" r="2.006" transform="translate(19.418 17.792)" fill="#fff"/>
      <circle id="Ellipse_38" data-name="Ellipse 38" cx="2.006" cy="2.006" r="2.006" transform="translate(19.418 64.236)" fill="#fff"/>
    </g>
    <g id="Group_2826" data-name="Group 2826" transform="translate(32.615 64.79)">
      <g id="Group_2824" data-name="Group 2824" transform="translate(0 0)">
        <rect id="Rectangle_484-2" data-name="Rectangle 484" width="41.846" height="86.542" transform="translate(0 0)" fill="#fff"/>
        <path id="Rectangle_484_-_Outline" data-name="Rectangle 484 - Outline" d="M-.671-.671H42.517V87.213H-.671ZM41.176.671H.671v85.2H41.176Z" transform="translate(0 0)" fill="#004c97"/>
        <g id="Group_2825" data-name="Group 2825" transform="translate(5.1 3.751)">
          <path id="Path_4511-2" data-name="Path 4511" d="M115.611,301.171V238.328a7.725,7.725,0,0,1-7.724-7.724h-17.2a7.726,7.726,0,0,1-7.724,7.724v62.843a7.725,7.725,0,0,1,7.724,7.724h17.2A7.724,7.724,0,0,1,115.611,301.171Z" transform="translate(-82.962 -230.604)" fill="#02a002"/>
          <g id="Group_2090-2" data-name="Group 2090" transform="translate(5.161 27.835)">
            <circle id="Ellipse_35-2" data-name="Ellipse 35" cx="11.435" cy="11.435" r="11.435" fill="#fff"/>
            <path id="Ellipse_35_-_Outline-2" data-name="Ellipse 35 - Outline" d="M11.435-.571a12.006,12.006,0,0,1,8.49,20.5A12.006,12.006,0,1,1,2.945,2.945,11.928,11.928,0,0,1,11.435-.571Zm0,22.87A10.864,10.864,0,0,0,19.117,3.753,10.864,10.864,0,0,0,3.753,19.117,10.793,10.793,0,0,0,11.435,22.3Z" fill="#004c97"/>
            <circle id="Ellipse_36-2" data-name="Ellipse 36" cx="8.611" cy="8.611" r="8.611" transform="translate(2.824 2.824)" fill="#159a31"/>
            <g id="Group_2089-2" data-name="Group 2089" transform="translate(5.954 8.01)">
              <path id="Path_4512-2" data-name="Path 4512" d="M95.649,248.314a2.047,2.047,0,0,1,1.615.809,3.648,3.648,0,0,1,.664,2.1l1.323.051-.035.884-1.294-.051a7.2,7.2,0,0,1-.664,2.737l-1.7-.067a7.249,7.249,0,0,0,.542-1.331,7.146,7.146,0,0,0,.309-1.4l-2-.077-.185.425a4.822,4.822,0,0,1-1.162,1.764,2.1,2.1,0,0,1-1.481.477,1.9,1.9,0,0,1-1.51-.794,3.706,3.706,0,0,1-.652-2.066l-.985-.039.035-.884.959.039a7.4,7.4,0,0,1,.7-2.647l1.485.664a7,7,0,0,0-.583,2.044l1.9.075a10.022,10.022,0,0,1,.908-1.757,2.454,2.454,0,0,1,.811-.748A1.944,1.944,0,0,1,95.649,248.314Zm.02,1.944a.574.574,0,0,0-.467.2,2.766,2.766,0,0,0-.412.642l1.605.063C96.322,250.577,96.078,250.277,95.67,250.258Zm-4.015,2.44a.614.614,0,0,0,.475-.181,2.305,2.305,0,0,0,.4-.618l-1.514-.061Q91.108,252.677,91.655,252.7Z" transform="translate(-88.433 -248.247)" fill="#fff"/>
            </g>
          </g>
          <circle id="Ellipse_37-2" data-name="Ellipse 37" cx="2.006" cy="2.006" r="2.006" transform="translate(14.318 14.042)" fill="#fff"/>
          <path id="Path_6727" data-name="Path 6727" d="M2.006,0A2.006,2.006,0,1,1,0,2.006,2.006,2.006,0,0,1,2.006,0Z" transform="translate(14.318 60.486)" fill="#fff"/>
        </g>
      </g>
    </g>
  </g>
</svg>
