<svg xmlns="http://www.w3.org/2000/svg" width="134.781" height="134.781" viewBox="0 0 134.781 134.781">
  <g id="Group_2448" data-name="Group 2448" transform="translate(-840 -2570)">
    <ellipse id="Ellipse_45" data-name="Ellipse 45" cx="64.5" cy="63" rx="64.5" ry="63" transform="translate(843 2574)" fill="#fff"/>
    <g id="Group_2445" data-name="Group 2445" transform="translate(0 27)">
      <path id="Path_5546" data-name="Path 5546" d="M308.531,462.851A66.773,66.773,0,0,0,375.3,396.079H241.759A66.772,66.772,0,0,0,308.531,462.851Z" transform="translate(599.241 2213.682)" fill="#fce2e2"/>
      <path id="Path_7646" data-name="Path 7646" d="M9.553-5.207a.134.134,0,0,0-.041.164.165.165,0,0,0,.164.082H20.787a.474.474,0,0,1,.348.143.474.474,0,0,1,.143.349V-.492a.474.474,0,0,1-.143.349A.474.474,0,0,1,20.787,0H2.337a.474.474,0,0,1-.348-.144.474.474,0,0,1-.144-.349V-4.264a.834.834,0,0,1,.246-.615Q4.1-6.847,6.191-9.163t2.624-2.891q1.148-1.353,2.337-2.583,3.731-4.141,3.731-6.15a3.03,3.03,0,0,0-1.025-2.357,3.832,3.832,0,0,0-2.665-.923,3.832,3.832,0,0,0-2.665.923A3.124,3.124,0,0,0,7.5-20.7v1.025a.474.474,0,0,1-.143.348.474.474,0,0,1-.348.144H2.173a.474.474,0,0,1-.348-.144.474.474,0,0,1-.144-.348v-1.927a7.047,7.047,0,0,1,1.394-3.916,8.088,8.088,0,0,1,3.382-2.6,11.941,11.941,0,0,1,4.735-.9,11.1,11.1,0,0,1,5.064,1.086,8.19,8.19,0,0,1,3.321,2.932,7.506,7.506,0,0,1,1.168,4.1,8.153,8.153,0,0,1-.861,3.526A19.5,19.5,0,0,1,17.3-13.489q-1.271,1.6-2.747,3.157t-4.387,4.51Zm22.96,0a.134.134,0,0,0-.041.164.165.165,0,0,0,.164.082H43.747a.474.474,0,0,1,.348.143.474.474,0,0,1,.144.349V-.492a.474.474,0,0,1-.144.349A.474.474,0,0,1,43.747,0H25.3a.474.474,0,0,1-.348-.144A.474.474,0,0,1,24.8-.492V-4.264a.834.834,0,0,1,.246-.615q2.009-1.968,4.1-4.284t2.624-2.891q1.148-1.353,2.337-2.583,3.731-4.141,3.731-6.15a3.03,3.03,0,0,0-1.025-2.357,3.832,3.832,0,0,0-2.665-.923,3.832,3.832,0,0,0-2.665.923A3.124,3.124,0,0,0,30.463-20.7v1.025a.474.474,0,0,1-.143.348.474.474,0,0,1-.349.144H25.133a.474.474,0,0,1-.348-.144.474.474,0,0,1-.144-.348v-1.927a7.047,7.047,0,0,1,1.394-3.916,8.088,8.088,0,0,1,3.382-2.6,11.941,11.941,0,0,1,4.736-.9,11.1,11.1,0,0,1,5.063,1.086,8.19,8.19,0,0,1,3.321,2.932,7.506,7.506,0,0,1,1.168,4.1,8.153,8.153,0,0,1-.861,3.526,19.5,19.5,0,0,1-2.583,3.895q-1.271,1.6-2.747,3.157t-4.387,4.51ZM54.981-16.113a6.5,6.5,0,0,1-3.3-.861A6.45,6.45,0,0,1,49.3-19.332a6.308,6.308,0,0,1-.882-3.259A6.2,6.2,0,0,1,49.3-25.83a6.663,6.663,0,0,1,2.378-2.358,6.383,6.383,0,0,1,3.3-.882,6.2,6.2,0,0,1,3.239.882,6.716,6.716,0,0,1,2.358,2.358,6.2,6.2,0,0,1,.882,3.239,6.423,6.423,0,0,1-.861,3.259,6.3,6.3,0,0,1-2.358,2.358A6.423,6.423,0,0,1,54.981-16.113ZM53.382,0q-.287,0-.369-.164a.452.452,0,0,1,.041-.41l15.457-27.8a.678.678,0,0,1,.615-.328H72.16q.287,0,.369.164a.452.452,0,0,1-.041.41L57.072-.328A.678.678,0,0,1,56.457,0Zm1.6-19.475a2.9,2.9,0,0,0,2.153-.9,3.046,3.046,0,0,0,.882-2.214,3,3,0,0,0-.882-2.173,2.9,2.9,0,0,0-2.153-.9,3.01,3.01,0,0,0-2.214.9,2.962,2.962,0,0,0-.9,2.173,3.01,3.01,0,0,0,.9,2.214A3.01,3.01,0,0,0,54.981-19.475ZM70.971.369a6.308,6.308,0,0,1-3.259-.881,6.611,6.611,0,0,1-2.378-2.378,6.308,6.308,0,0,1-.882-3.26,6.2,6.2,0,0,1,.882-3.239,6.5,6.5,0,0,1,2.378-2.337,6.423,6.423,0,0,1,3.259-.861,6.423,6.423,0,0,1,3.259.861,6.5,6.5,0,0,1,2.378,2.337A6.2,6.2,0,0,1,77.49-6.15a6.308,6.308,0,0,1-.882,3.26A6.611,6.611,0,0,1,74.23-.512,6.308,6.308,0,0,1,70.971.369Zm0-3.4a2.962,2.962,0,0,0,2.173-.9,3.01,3.01,0,0,0,.9-2.214,2.962,2.962,0,0,0-.9-2.173,2.962,2.962,0,0,0-2.173-.9,3,3,0,0,0-2.173.881,2.943,2.943,0,0,0-.9,2.194,3.046,3.046,0,0,0,.882,2.214A2.943,2.943,0,0,0,70.971-3.034Z" transform="translate(869 2649.234)" fill="#c6001c"/>
      <path id="Path_7645" data-name="Path 7645" d="M-23.695-9.758a.4.4,0,0,1,.182-.042h1.106a.124.124,0,0,1,.14.14V-.14a.124.124,0,0,1-.14.14h-1.064a.124.124,0,0,1-.14-.14V-8.358a.047.047,0,0,0-.021-.042.046.046,0,0,0-.049,0l-1.47.5a.156.156,0,0,1-.07.014q-.084,0-.1-.112l-.056-.8q0-.14.084-.168ZM-20.629,0q-.154,0-.112-.154l3.29-9.534a.163.163,0,0,1,.168-.112h1.05q.154,0,.112.154l-3.29,9.534A.163.163,0,0,1-19.579,0ZM-12.8-9.758a.4.4,0,0,1,.182-.042h1.106a.124.124,0,0,1,.14.14V-.14a.124.124,0,0,1-.14.14h-1.064a.124.124,0,0,1-.14-.14V-8.358A.047.047,0,0,0-12.74-8.4a.046.046,0,0,0-.049,0l-1.47.5a.156.156,0,0,1-.07.014q-.084,0-.1-.112l-.056-.8q0-.14.084-.168ZM-9.737,0q-.154,0-.112-.154l3.29-9.534A.163.163,0,0,1-6.391-9.8h1.05q.154,0,.112.154L-8.519-.112A.163.163,0,0,1-8.687,0Zm7.952-1.232a.046.046,0,0,0,0,.049.047.047,0,0,0,.042.021H2.471a.124.124,0,0,1,.14.14V-.14a.124.124,0,0,1-.14.14H-3.395a.124.124,0,0,1-.14-.14V-.994a.229.229,0,0,1,.07-.168q.476-.546,2.184-2.562l.966-1.162a4.49,4.49,0,0,0,1.3-2.408A1.357,1.357,0,0,0,.546-8.351a1.676,1.676,0,0,0-1.169-.4,1.632,1.632,0,0,0-1.162.406A1.347,1.347,0,0,0-2.2-7.28v.42a.124.124,0,0,1-.14.14H-3.423a.124.124,0,0,1-.14-.14v-.6A2.386,2.386,0,0,1-3.15-8.75a2.494,2.494,0,0,1,1.043-.861,3.528,3.528,0,0,1,1.484-.3,3.464,3.464,0,0,1,1.568.336,2.5,2.5,0,0,1,1.036.924,2.475,2.475,0,0,1,.364,1.33,4.721,4.721,0,0,1-1.26,2.744q-.56.714-1.33,1.6T-1.785-1.232ZM7.273.14a3.1,3.1,0,0,1-2.247-.8,2.869,2.869,0,0,1-.833-2.163V-6.972a2.845,2.845,0,0,1,.833-2.156,3.113,3.113,0,0,1,2.247-.8,3.163,3.163,0,0,1,2.261.8,2.82,2.82,0,0,1,.847,2.156v4.144A2.843,2.843,0,0,1,9.534-.665,3.146,3.146,0,0,1,7.273.14Zm0-1.162a1.755,1.755,0,0,0,1.288-.469,1.68,1.68,0,0,0,.476-1.253V-7.028a1.68,1.68,0,0,0-.476-1.253A1.755,1.755,0,0,0,7.273-8.75a1.717,1.717,0,0,0-1.26.469,1.68,1.68,0,0,0-.476,1.253v4.284a1.68,1.68,0,0,0,.476,1.253A1.717,1.717,0,0,0,7.273-1.022Zm6.482-.21a.046.046,0,0,0,0,.049.047.047,0,0,0,.042.021h4.214a.124.124,0,0,1,.14.14V-.14a.124.124,0,0,1-.14.14H12.145a.124.124,0,0,1-.14-.14V-.994a.229.229,0,0,1,.07-.168q.476-.546,2.184-2.562l.966-1.162a4.49,4.49,0,0,0,1.3-2.408,1.357,1.357,0,0,0-.441-1.057,1.676,1.676,0,0,0-1.169-.4,1.632,1.632,0,0,0-1.162.406,1.347,1.347,0,0,0-.42,1.064v.42a.124.124,0,0,1-.14.14H12.117a.124.124,0,0,1-.14-.14v-.6A2.386,2.386,0,0,1,12.39-8.75a2.494,2.494,0,0,1,1.043-.861,3.528,3.528,0,0,1,1.484-.3,3.464,3.464,0,0,1,1.568.336,2.5,2.5,0,0,1,1.036.924,2.475,2.475,0,0,1,.364,1.33,4.721,4.721,0,0,1-1.26,2.744q-.56.714-1.33,1.6T13.755-1.232ZM25-4.648a4.161,4.161,0,0,1,.28,1.582,4.068,4.068,0,0,1-.224,1.372A2.576,2.576,0,0,1,24.031-.357a3.067,3.067,0,0,1-1.722.469,2.948,2.948,0,0,1-1.743-.518,2.715,2.715,0,0,1-1.029-1.4,3.566,3.566,0,0,1-.182-1.12.124.124,0,0,1,.14-.14h1.078a.124.124,0,0,1,.14.14,2.889,2.889,0,0,0,.112.742,1.539,1.539,0,0,0,.525.826,1.486,1.486,0,0,0,.959.308,1.4,1.4,0,0,0,1.428-.966,2.775,2.775,0,0,0,.182-1.092,3.408,3.408,0,0,0-.224-1.274,1.41,1.41,0,0,0-1.4-.868,1.289,1.289,0,0,0-.6.21.215.215,0,0,1-.084.028.127.127,0,0,1-.112-.07l-.532-.728a.226.226,0,0,1-.028-.1.173.173,0,0,1,.042-.1l2.394-2.562q.042-.07-.028-.07H19.621a.124.124,0,0,1-.14-.14V-9.66a.124.124,0,0,1,.14-.14h5.432a.124.124,0,0,1,.14.14v1.008a.308.308,0,0,1-.07.168L23-6.16q-.028.028-.014.049a.105.105,0,0,0,.056.035,2.327,2.327,0,0,1,1.2.441A2.4,2.4,0,0,1,25-4.648ZM-37.079,11.3a.124.124,0,0,1-.14-.14v-.882a.124.124,0,0,1,.14-.14h4.326a.124.124,0,0,1,.14.14v.882a.124.124,0,0,1-.14.14Zm10.15-6.062a.4.4,0,0,1,.182-.042h1.106a.124.124,0,0,1,.14.14v9.52a.124.124,0,0,1-.14.14H-26.7a.124.124,0,0,1-.14-.14V6.642a.047.047,0,0,0-.021-.042.046.046,0,0,0-.049,0l-1.47.5a.156.156,0,0,1-.07.014q-.084,0-.1-.112l-.056-.8q0-.14.084-.168Zm5.054,8.526a.046.046,0,0,0,0,.049.047.047,0,0,0,.042.021h4.214a.124.124,0,0,1,.14.14v.882a.124.124,0,0,1-.14.14h-5.866a.124.124,0,0,1-.14-.14v-.854a.229.229,0,0,1,.07-.168q.476-.546,2.184-2.562l.966-1.162a4.49,4.49,0,0,0,1.3-2.408,1.357,1.357,0,0,0-.441-1.057,1.676,1.676,0,0,0-1.169-.4,1.632,1.632,0,0,0-1.162.406A1.347,1.347,0,0,0-22.3,7.72v.42a.124.124,0,0,1-.14.14h-1.078a.124.124,0,0,1-.14-.14v-.6A2.386,2.386,0,0,1-23.24,6.25,2.494,2.494,0,0,1-22.2,5.389a3.528,3.528,0,0,1,1.484-.3,3.464,3.464,0,0,1,1.568.336,2.5,2.5,0,0,1,1.036.924,2.475,2.475,0,0,1,.364,1.33,4.721,4.721,0,0,1-1.26,2.744q-.56.714-1.33,1.6T-21.875,13.768ZM-16.247,15q-.154,0-.112-.154l3.29-9.534A.163.163,0,0,1-12.9,5.2h1.05q.154,0,.112.154l-3.29,9.534A.163.163,0,0,1-15.2,15Zm11.7-4.648a4.161,4.161,0,0,1,.28,1.582,4.068,4.068,0,0,1-.224,1.372,2.576,2.576,0,0,1-1.022,1.337,3.067,3.067,0,0,1-1.722.469,2.948,2.948,0,0,1-1.743-.518A2.715,2.715,0,0,1-10,13.194a3.566,3.566,0,0,1-.182-1.12.124.124,0,0,1,.14-.14h1.078a.124.124,0,0,1,.14.14,2.889,2.889,0,0,0,.112.742,1.539,1.539,0,0,0,.525.826,1.486,1.486,0,0,0,.959.308A1.4,1.4,0,0,0-5.8,12.984a2.775,2.775,0,0,0,.182-1.092,3.408,3.408,0,0,0-.224-1.274,1.41,1.41,0,0,0-1.4-.868,1.289,1.289,0,0,0-.6.21.215.215,0,0,1-.084.028.127.127,0,0,1-.112-.07l-.532-.728a.226.226,0,0,1-.028-.1.173.173,0,0,1,.042-.1l2.394-2.562q.042-.07-.028-.07H-9.919a.124.124,0,0,1-.14-.14V5.34a.124.124,0,0,1,.14-.14h5.432a.124.124,0,0,1,.14.14V6.348a.308.308,0,0,1-.07.168L-6.545,8.84q-.028.028-.014.049a.105.105,0,0,0,.056.035,2.327,2.327,0,0,1,1.2.441A2.4,2.4,0,0,1-4.543,10.352Zm3.374-5.11A.4.4,0,0,1-.987,5.2H.119a.124.124,0,0,1,.14.14v9.52a.124.124,0,0,1-.14.14H-.945a.124.124,0,0,1-.14-.14V6.642A.047.047,0,0,0-1.106,6.6a.046.046,0,0,0-.049,0l-1.47.5a.156.156,0,0,1-.07.014q-.084,0-.1-.112l-.056-.8q0-.14.084-.168ZM1.9,15q-.154,0-.112-.154l3.29-9.534A.163.163,0,0,1,5.243,5.2h1.05q.154,0,.112.154l-3.29,9.534A.163.163,0,0,1,2.947,15Zm7.952-1.232a.046.046,0,0,0,0,.049.047.047,0,0,0,.042.021H14.1a.124.124,0,0,1,.14.14v.882a.124.124,0,0,1-.14.14H8.239a.124.124,0,0,1-.14-.14v-.854a.229.229,0,0,1,.07-.168q.476-.546,2.184-2.562l.966-1.162a4.49,4.49,0,0,0,1.3-2.408,1.357,1.357,0,0,0-.441-1.057,1.676,1.676,0,0,0-1.169-.4,1.632,1.632,0,0,0-1.162.406,1.347,1.347,0,0,0-.42,1.064v.42a.124.124,0,0,1-.14.14H8.211a.124.124,0,0,1-.14-.14v-.6A2.386,2.386,0,0,1,8.484,6.25a2.5,2.5,0,0,1,1.043-.861,3.528,3.528,0,0,1,1.484-.3,3.464,3.464,0,0,1,1.568.336,2.438,2.438,0,0,1,1.4,2.254,4.721,4.721,0,0,1-1.26,2.744q-.56.714-1.33,1.6T9.849,13.768Zm9.058,1.372a3.1,3.1,0,0,1-2.247-.805,2.869,2.869,0,0,1-.833-2.163V8.028a2.845,2.845,0,0,1,.833-2.156,3.113,3.113,0,0,1,2.247-.8,3.163,3.163,0,0,1,2.261.8,2.82,2.82,0,0,1,.847,2.156v4.144a2.843,2.843,0,0,1-.847,2.163A3.146,3.146,0,0,1,18.907,15.14Zm0-1.162a1.755,1.755,0,0,0,1.288-.469,1.68,1.68,0,0,0,.476-1.253V7.972a1.68,1.68,0,0,0-.476-1.253,1.755,1.755,0,0,0-1.288-.469,1.717,1.717,0,0,0-1.26.469,1.68,1.68,0,0,0-.476,1.253v4.284a1.68,1.68,0,0,0,.476,1.253A1.717,1.717,0,0,0,18.907,13.978Zm6.482-.21a.046.046,0,0,0,0,.049.047.047,0,0,0,.042.021h4.214a.124.124,0,0,1,.14.14v.882a.124.124,0,0,1-.14.14H23.779a.124.124,0,0,1-.14-.14v-.854a.229.229,0,0,1,.07-.168q.476-.546,2.184-2.562l.966-1.162a4.49,4.49,0,0,0,1.3-2.408,1.357,1.357,0,0,0-.441-1.057,1.676,1.676,0,0,0-1.169-.4,1.632,1.632,0,0,0-1.162.406,1.347,1.347,0,0,0-.42,1.064v.42a.124.124,0,0,1-.14.14H23.751a.124.124,0,0,1-.14-.14v-.6a2.386,2.386,0,0,1,.413-1.288,2.494,2.494,0,0,1,1.043-.861,3.528,3.528,0,0,1,1.484-.3,3.464,3.464,0,0,1,1.568.336,2.438,2.438,0,0,1,1.4,2.254,4.721,4.721,0,0,1-1.26,2.744q-.56.714-1.33,1.6T25.389,13.768Zm11.242-3.416a4.161,4.161,0,0,1,.28,1.582,4.068,4.068,0,0,1-.224,1.372,2.576,2.576,0,0,1-1.022,1.337,3.067,3.067,0,0,1-1.722.469,2.948,2.948,0,0,1-1.743-.518,2.715,2.715,0,0,1-1.029-1.4,3.566,3.566,0,0,1-.182-1.12.124.124,0,0,1,.14-.14h1.078a.124.124,0,0,1,.14.14,2.889,2.889,0,0,0,.112.742,1.539,1.539,0,0,0,.525.826,1.486,1.486,0,0,0,.959.308,1.4,1.4,0,0,0,1.428-.966,2.775,2.775,0,0,0,.182-1.092,3.408,3.408,0,0,0-.224-1.274,1.41,1.41,0,0,0-1.4-.868,1.289,1.289,0,0,0-.6.21.215.215,0,0,1-.084.028.127.127,0,0,1-.112-.07L32.6,9.19a.226.226,0,0,1-.028-.1.173.173,0,0,1,.042-.1l2.394-2.562q.042-.07-.028-.07H31.255a.124.124,0,0,1-.14-.14V5.34a.124.124,0,0,1,.14-.14h5.432a.124.124,0,0,1,.14.14V6.348a.308.308,0,0,1-.07.168L34.629,8.84q-.028.028-.014.049a.105.105,0,0,0,.056.035,2.327,2.327,0,0,1,1.2.441A2.4,2.4,0,0,1,36.631,10.352Z" transform="translate(907 2579.604)" fill="#1a1818"/>
      <g id="Group_2442" data-name="Group 2442" transform="translate(840 2543)">
        <path id="Path_5547" data-name="Path 5547" d="M376.2,427.212a67.466,67.466,0,0,0-67.391-67.391h0a67.39,67.39,0,1,0,58.762,100.324l.035.018A67.432,67.432,0,0,0,376.2,427.212Zm-13.878,30.03a61.385,61.385,0,1,1-53.513-91.431h0a61.419,61.419,0,0,1,53.571,91.42l.53.3C362.714,457.441,362.517,457.344,362.326,457.243Z" transform="translate(-241.423 -359.822)" fill="#f18085"/>
        <path id="Path_5548" data-name="Path 5548" d="M336.749,409.37l5.749-1.685a67.485,67.485,0,0,0-64.476-47.863v5.99A61.483,61.483,0,0,1,336.749,409.37Z" transform="translate(-210.631 -359.822)" fill="#c6001c"/>
      </g>
    </g>
  </g>
</svg>
