<svg xmlns="http://www.w3.org/2000/svg" xmlns:xlink="http://www.w3.org/1999/xlink" width="269" height="79" viewBox="0 0 269 79">
  <defs>
    <clipPath id="clip-path">
      <rect id="Rectangle_579" data-name="Rectangle 579" width="269" height="79" transform="translate(425 427)" fill="#fff" stroke="#707070" stroke-width="1"/>
    </clipPath>
  </defs>
  <g id="Mask_Group_45" data-name="Mask Group 45" transform="translate(-425 -427)" clip-path="url(#clip-path)">
    <path id="Path_6765" data-name="Path 6765" d="M92.925,69.347V.5H319.817l25.529,68.687Z" transform="translate(330.989 433.341)" fill="#cc0109"/>
    <path id="Path_6766" data-name="Path 6766" d="M31,0H258.532l26.455,69.45H31ZM257.651,1.278H32.279V68.173H283.133Z" transform="translate(392.274 433.362)" fill="#fffcff"/>
    <path id="Path_6767" data-name="Path 6767" d="M187.441,49.6l-1.248-6.481h7.488c.623,0,.815-.192.815-.72V36.062c0-.959-.336-1.008-1.3-1.008h-3.6c-2.065,0-3.889-.48-3.889-3.937V19.309c0-2.735,1.439-4.511,4.7-4.511h9.6l1.2,6.481h-7.872c-.577,0-.864.241-.864.766v6.338c0,.72.335.912,1.055.912h4.369c2.207,0,3.456.959,3.456,3.552V44.318c0,3.839-1.344,5.28-5.328,5.28Zm34.849-4.943c0,2.64-1.1,4.943-4.992,4.943h-8.064c-3.889,0-4.993-2.3-4.993-4.943V19.309c0-2.735,1.441-4.511,4.705-4.511h8.64c3.265,0,4.7,1.776,4.7,4.511ZM211.874,20.893c-.481,0-.625.242-.625.671V42.783c0,.526.1.72.672.72h2.64c.576,0,.671-.193.671-.72V21.564c0-.43-.144-.671-.623-.671Zm13.3-6.1h7.152V43.117h7.008l-1.2,6.481H225.17ZM248.4,45.278l-.624,4.321h-7.008l6.288-34.8h7.44l6.288,34.8H253.78l-.625-4.321Zm.768-5.519h3.215L250.8,27.422Zm31.441-4.321a3.011,3.011,0,0,1-3.121,3.072L281.14,49.6h-7.2L270.58,38.51h-.912V49.6h-6.961V14.8h13.2c3.265,0,4.705,1.776,4.705,4.511ZM269.668,20.893v12h3.409c.527,0,.671-.192.671-.722V21.615c0-.434-.192-.722-.671-.722Z" transform="translate(354.746 435.507)" fill="#fff"/>
    <rect id="Rectangle_578" data-name="Rectangle 578" width="350.898" height="69.644" transform="translate(326.606 433.266)" fill="none"/>
  </g>
</svg>
