<svg xmlns="http://www.w3.org/2000/svg" width="15.236" height="8.889" viewBox="0 0 15.236 8.889"><g transform="translate(-4.5 -10.123)"><path d="M22.685,10.31a.635.635,0,0,1,.9,0l3.809,3.809a.635.635,0,0,1,0,.9l-3.809,3.809a.636.636,0,0,1-.9-.9l3.36-3.359-3.361-3.359a.635.635,0,0,1,0-.9Z" transform="translate(-7.843)" fill="#0c4e97" fill-rule="evenodd"/><path d="M4.5,17.51a.635.635,0,0,1,.635-.635h13.33a.635.635,0,1,1,0,1.27H5.135A.635.635,0,0,1,4.5,17.51Z" transform="translate(0 -2.942)" fill="#0c4e97" fill-rule="evenodd"/></g></svg>