<svg xmlns="http://www.w3.org/2000/svg" width="12.824" height="15.703" viewBox="0 0 12.824 15.703">
  <path id="Path_180" data-name="Path 180" d="M219.6,20.578a10.505,10.505,0,0,0,1.12-2.425c.122-.47.626-2.388.626-2.388a2.685,2.685,0,0,0,2.3,1.153c3.03,0,5.209-2.785,5.209-6.244a5.892,5.892,0,0,0-6.191-5.8c-4.335,0-6.633,2.908-6.633,6.077,0,1.472.785,3.3,2.037,3.889.192.09.291.049.336-.134.032-.139.2-.822.278-1.137a.3.3,0,0,0-.069-.286,3.916,3.916,0,0,1-.749-2.29A4.347,4.347,0,0,1,222.4,6.634a3.965,3.965,0,0,1,4.2,4.085c0,2.715-1.37,4.6-3.157,4.6a1.46,1.46,0,0,1-1.488-1.815,20.33,20.33,0,0,0,.829-3.345c0-2.168-3.087-1.869-3.087,1.022a3.67,3.67,0,0,0,.3,1.493c-1.284,5.431-1.476,5.5-1.21,7.876l.09.033" transform="translate(-216.037 -4.875)" fill="#fff"/>
</svg>
