<svg xmlns="http://www.w3.org/2000/svg" width="702" height="232.626" viewBox="0 0 702 232.626">
  <g id="Group_3179" data-name="Group 3179" transform="translate(-671 -925.549)">
    <g id="Group_3160" data-name="Group 3160" transform="translate(671 950.365)">
      <rect id="Rectangle_567" data-name="Rectangle 567" width="702" height="163.846" transform="translate(0 4)" fill="none"/>
      <rect id="Rectangle_568" data-name="Rectangle 568" width="702" height="163.846" transform="translate(0 4)" fill="none"/>
      <rect id="Rectangle_569" data-name="Rectangle 569" width="702" height="163.846" transform="translate(0 4)" fill="none"/>
      <rect id="Rectangle_570" data-name="Rectangle 570" width="702" height="163.846" transform="translate(0 4)" fill="none"/>
      <g id="Group_3155" data-name="Group 3155" transform="translate(35.764)">
        <path id="Line_53" data-name="Line 53" d="M.512,152.552l-1.024-.315L46.432-.158l1.024.315Z" transform="translate(162.619)" fill="#003e86"/>
        <path id="Line_54" data-name="Line 54" d="M.512,152.552l-1.024-.315L46.432-.158l1.024.315Z" transform="translate(392.567)" fill="#003e86"/>
        <path id="Path_6757" data-name="Path 6757" d="M63.645,31.773c6.076.481,7.044.641,8.819,1.389C75.742,34.5,77.2,37.275,77.2,42.032c0,5.448-1.507,8.549-4.839,9.991-1.935.855-3.924,1.121-8.711,1.175v4.275H58.806V53.2c-4.677-.054-6.666-.374-8.709-1.335-3.226-1.6-4.677-4.329-4.677-8.869,0-.266,0-.961.054-1.6h7.473v.641c0,4.006.86,4.7,5.86,4.755V37.971c-5.107-.268-6.988-.589-8.871-1.443-3.01-1.388-4.085-3.686-4.085-8.709,0-5.716,1.4-8.281,5.321-9.723,1.721-.643,3.656-.857,7.635-.911V13.393h4.839v3.792c5.323.162,7.528.643,9.572,2.032,1.827,1.335,2.8,3.9,2.8,7.586v1.069h-7.2l-.054-.589c0-2.885-.915-3.526-5.109-3.526Zm-5.591-7.961c-3.656.052-4.623.855-4.623,3.846,0,1.656.376,2.671,1.183,3.153.861.481.861.481,4.193.695V23.758Zm6.238,22.975c4.032,0,5.269-1.069,5.269-4.489,0-3.259-.806-3.792-5.915-4.006v8.5Z" transform="translate(-45.42 -2.598)" fill="#bf051b"/>
        <path id="Path_7820" data-name="Path 7820" d="M1.829,0H12.152c3.6,0,5.673-1.023,6.82-3.286.682-1.457.868-3.162.868-8.742,0-3.6-.5-5.363-1.984-6.882-1.178-1.209-2.976-1.767-5.828-1.767H1.829ZM5.8-3.41V-17.236h5.828c1.829,0,2.79.341,3.379,1.178.651.9.806,2.077.806,5.673,0,3.534-.186,4.774-.868,5.735-.62.868-1.674,1.24-3.565,1.24ZM31.5-20.863a24.547,24.547,0,0,0-4.371.279,5.805,5.805,0,0,0-3.844,2.418C22.32-16.647,22.1-15.128,22.1-9.8a28.805,28.805,0,0,0,.186,4.526c.372,2.294,1.209,3.627,2.852,4.526,1.271.682,2.821.93,5.89.93a25.212,25.212,0,0,0,4.5-.279,5.611,5.611,0,0,0,3.968-2.573c.868-1.55,1.054-2.914,1.054-7.874a31.4,31.4,0,0,0-.217-4.9,5.7,5.7,0,0,0-3.317-4.743C35.805-20.677,34.441-20.863,31.5-20.863Zm-5.363,8c.031-2.046.31-3.131.992-3.782.651-.651,1.488-.806,4-.806,2.325,0,3.1.062,3.782.341a2.764,2.764,0,0,1,1.457,2.325,22.038,22.038,0,0,1,.155,4.309c0,3.875-.031,4.4-.4,5.425-.527,1.488-1.364,1.829-4.4,1.829-3.162,0-4.092-.155-4.681-.837-.744-.868-.9-1.8-.9-5.425Zm46.1-7.812H68.2L65.162-9.331c-.341,1.209-.5,1.891-1.054,4.526L63.8-3.286h-.124L63.3-4.8c-.589-2.511-.62-2.7-1.116-4.526l-3.1-11.346H54.467L51.305-9.331c-.372,1.364-.868,3.379-1.55,6.045h-.124L49.321-4.8c-.558-2.759-.713-3.41-.992-4.526L45.353-20.677h-4L46.717,0h5.735L55.4-10.6c.4-1.457.527-1.891.992-3.844l.279-1.271h.155c.713,3.255.775,3.534,1.209,5.115L60.884,0h5.8Zm21.328,0H89.621v11.9c0,1.922,0,2.077.093,4l.031,1.333h-.124l-.806-1.7c-1.4-2.976-1.643-3.5-2.418-5.053L81-20.677H74.369V0h3.906V-11.873c0-1.922,0-2.077-.093-4.061l-.031-1.333h.124l.682,1.457c1.24,2.852,1.643,3.689,2.015,4.464L86.893,0h6.665Z" transform="translate(41.193 104.917)" fill="#003e86"/>
        <path id="Path_6758" data-name="Path 6758" d="M95.67,79.155c.186-28.182.328-29.49,4.23-34.336,2.833-3.822,7.083-4.826,18.417-4.826,14.571,0,19.428.8,23.071,3.82,4.357,3.738,5.031,7.685,5.059,35.342H176.4c-.022-16.759-.237-24.6-.808-29.911-1.417-15.085-6.679-23.531-18.417-29.564-7.69-4.023-16.6-5.431-36.229-5.431-11.334,0-22.464.8-27.525,2.012A37.082,37.082,0,0,0,71.969,30.74C66.652,38.961,65.743,45.1,65.7,79.155Z" transform="translate(-27.929 -1.86)" fill="#bf051b"/>
        <path id="Path_6759" data-name="Path 6759" d="M142.218,71.7c-2.632,4.425-7.894,6.033-21.049,6.033-14.37,0-19.428-1.207-22.263-5.228A14.936,14.936,0,0,1,96.843,68.7h-30.7c1.447,14.75,6.713,23.349,18.393,29.354,7.489,4.021,17,5.429,35.824,5.429,12.142,0,22.667-.8,27.929-2.01a36.474,36.474,0,0,0,21.453-14.684c3.1-4.789,4.7-8.808,5.506-18.134H143.826a22.7,22.7,0,0,1-1.607,3.051" transform="translate(-27.544 45.067)" fill="#bf051b"/>
        <text id="_" data-name="%" transform="translate(345.904 44.841)" fill="#bf051b" font-size="43" font-family="Eurostile-Bla, Eurostile"><tspan x="0" y="0">%</tspan></text>
        <path id="Path_7821" data-name="Path 7821" d="M5.8-20.677H1.829V0H5.8Zm22.816,0H24.676v11.9c0,1.922,0,2.077.093,4L24.8-3.441h-.124l-.806-1.7c-1.395-2.976-1.643-3.5-2.418-5.053L16.058-20.677H9.424V0H13.33V-11.873c0-1.922,0-2.077-.093-4.061l-.031-1.333h.124l.682,1.457c1.24,2.852,1.643,3.689,2.015,4.464L21.948,0h6.665ZM40.734-17.2h6.107v-3.472H30.783V-17.2h5.983V0h3.968Zm12.276-.186H63.178v-3.286H49.042V0H63.271V-3.286H53.01V-9.114h9.641v-2.914H53.01ZM66.185,0h3.968V-6.882h5.58c2.2-.062,3.162.9,3.1,3.162V0h4V-4.495c.031-2.511-1.147-3.906-3.5-4.03V-8.68c3.007-.589,3.72-1.7,3.72-5.828,0-4.619-1.705-6.169-6.7-6.169H66.185Zm3.968-10.261v-7.006h5.828c2.542,0,3.038.558,3.038,3.472,0,1.767-.155,2.387-.806,2.914a3.665,3.665,0,0,1-2.511.62Zm19.53-7.13H99.851v-3.286H85.715V0H99.944V-3.286H89.683V-9.114h9.641v-2.914H89.683Zm28.458,2.759v-.744a5.592,5.592,0,0,0-1.178-3.937c-1.023-1.147-2.7-1.55-6.572-1.55-3.844,0-5.456.279-6.727,1.24-1.116.806-1.643,2.325-1.643,4.774,0,2.852.651,4.34,2.294,5.146,1.054.5,1.8.62,5.332.837,3.441.217,3.441.217,3.937.4.837.279,1.147.93,1.147,2.294,0,1.426-.217,2.232-.744,2.6-.589.465-1.24.558-3.565.558-3.224,0-3.72-.093-4.216-.93-.341-.527-.434-1.054-.434-2.6h-3.813a15.338,15.338,0,0,0,.248,3.162A3.933,3.933,0,0,0,103.85-.837c1.364.806,2.635,1.023,6.386,1.023,4.309,0,5.89-.341,7.13-1.55.9-.9,1.271-2.294,1.271-4.867,0-2.635-.434-3.844-1.705-4.712-.992-.713-2.17-.93-5.642-1.147-3.224-.186-3.41-.186-3.937-.341-.992-.31-1.364-.992-1.364-2.48,0-2.356.744-2.821,4.5-2.821,3.193,0,3.844.465,3.844,2.728v.372Zm12-2.573h6.107v-3.472H120.187V-17.2h5.983V0h3.968Z" transform="translate(219.17 104.917)" fill="#003e86"/>
        <path id="Path_6760" data-name="Path 6760" d="M249.634,71.7c-2.632,4.425-7.894,6.033-21.049,6.033-14.37,0-19.428-1.207-22.261-5.228a14.884,14.884,0,0,1-2.066-3.811h-30.7c1.447,14.75,6.713,23.349,18.393,29.354,7.489,4.021,17,5.429,35.824,5.429,12.142,0,22.667-.8,27.929-2.01a36.474,36.474,0,0,0,21.453-14.684c3.1-4.789,4.7-8.808,5.506-18.134H251.242a22.7,22.7,0,0,1-1.607,3.051" transform="translate(65.107 45.067)" fill="#bf051b"/>
        <path id="Path_6761" data-name="Path 6761" d="M203.086,79.155c.186-28.182.328-29.49,4.228-34.336,2.835-3.822,7.085-4.826,18.419-4.826,14.571,0,19.428.8,23.071,3.82,4.357,3.738,5.031,7.685,5.059,35.342h29.952c-.021-16.759-.235-24.6-.806-29.911-1.417-15.085-6.679-23.531-18.417-29.564-7.69-4.023-16.6-5.431-36.229-5.431-11.334,0-22.464.8-27.525,2.012A37.082,37.082,0,0,0,179.385,30.74c-5.318,8.221-6.226,14.358-6.271,48.415Z" transform="translate(64.723 -1.86)" fill="#bf051b"/>
        <path id="Path_7822" data-name="Path 7822" d="M1.829,0H5.8V-6.665h4.619c3.751-.062,3.751-.062,4.588-.341,2.387-.713,3.348-2.6,3.348-6.448,0-2.511-.248-3.844-.93-4.991a4.893,4.893,0,0,0-4.03-2.17c-.775-.062-.992-.062-3.193-.062H1.829ZM5.8-10.075v-7.316h4.867a5.57,5.57,0,0,1,2.6.31c.806.434,1.054,1.271,1.054,3.565,0,2.976-.558,3.441-4.061,3.441ZM31.31-3.968,32.643,0H36.7L29.7-20.677H23.839L16.957,0h4.154l1.271-3.968Zm-.9-2.945h-7.1l3.534-10.726ZM50.995-20.677H46.407l-3.162,5.456c-.31.558-.558.961-1.333,2.511l-.465.837h-.093l-.434-.837c-.837-1.612-1.085-2.077-1.333-2.511l-3.131-5.456H31.93L39.37-7.9V0h3.968V-7.9Zm25.916,0H70.4l-3.658,9.61c-.341.961-.589,1.674-1.395,4.278l-.465,1.426h-.124L64.294-6.82c-.868-2.635-1.085-3.317-1.457-4.278l-3.689-9.579H52.762V0h3.906V-11.284c0-1.271-.031-1.922-.155-4.526L56.42-17.3h.124l.465,1.426c.868,2.666,1.085,3.317,1.488,4.309L63.085,0H66.65l4.557-11.656c.341-.9.558-1.612,1.426-4.309l.465-1.426h.124l-.062,1.519c-.124,2.7-.155,3.1-.155,4.588V0h3.906Zm7.6,3.286H94.674v-3.286H80.538V0H94.767V-3.286H84.506V-9.114h9.641v-2.914H84.506Zm32.364-3.286h-3.937v11.9c0,1.922,0,2.077.093,4l.031,1.333h-.124l-.806-1.7c-1.4-2.976-1.643-3.5-2.418-5.053l-5.394-10.478H97.681V0h3.906V-11.873c0-1.922,0-2.077-.093-4.061l-.031-1.333h.124l.682,1.457c1.24,2.852,1.643,3.689,2.015,4.464L110.2,0h6.665ZM128.991-17.2H135.1v-3.472H119.04V-17.2h5.983V0h3.968ZM153.2-14.632v-.744a5.592,5.592,0,0,0-1.178-3.937c-1.023-1.147-2.7-1.55-6.572-1.55-3.844,0-5.456.279-6.727,1.24-1.116.806-1.643,2.325-1.643,4.774,0,2.852.651,4.34,2.294,5.146,1.054.5,1.8.62,5.332.837,3.441.217,3.441.217,3.937.4.837.279,1.147.93,1.147,2.294,0,1.426-.217,2.232-.744,2.6-.589.465-1.24.558-3.565.558-3.224,0-3.72-.093-4.216-.93-.341-.527-.434-1.054-.434-2.6H137.02a15.338,15.338,0,0,0,.248,3.162,3.933,3.933,0,0,0,1.643,2.542c1.364.806,2.635,1.023,6.386,1.023,4.309,0,5.89-.341,7.13-1.55.9-.9,1.271-2.294,1.271-4.867,0-2.635-.434-3.844-1.7-4.712-.992-.713-2.17-.93-5.642-1.147-3.224-.186-3.41-.186-3.937-.341-.992-.31-1.364-.992-1.364-2.48,0-2.356.744-2.821,4.5-2.821,3.193,0,3.844.465,3.844,2.728v.372Z" transform="translate(450.582 104.917)" fill="#003e86"/>
        <path id="Path_6762" data-name="Path 6762" d="M332.885,79.155c.186-28.182.328-29.49,4.23-34.336,2.833-3.822,7.083-4.826,18.417-4.826,14.571,0,19.428.8,23.071,3.82,4.453,3.822,5.061,7.845,5.061,37.208,0,0,0,.088-.007.235h29.959c-.007-18.206-.212-26.48-.808-32.012-1.417-15.085-6.679-23.531-18.417-29.564-7.691-4.023-16.6-5.431-36.229-5.431-11.334,0-22.464.8-27.525,2.012A37.088,37.088,0,0,0,309.184,30.74c-5.318,8.221-6.227,14.358-6.271,48.415Z" transform="translate(176.681 -1.86)" fill="#bf051b"/>
        <path id="Path_6763" data-name="Path 6763" d="M379.433,71.684c-2.632,4.425-7.893,6.033-21.049,6.033-14.37,0-19.428-1.207-22.261-5.228a14.89,14.89,0,0,1-2.065-3.811h-30.7c1.447,14.75,6.713,23.349,18.393,29.354,7.489,4.021,17,5.429,35.822,5.429,12.144,0,22.667-.8,27.931-2.01a36.475,36.475,0,0,0,21.453-14.684c2.855-4.412,4.438-8.175,5.3-16.033H379.994c-.177.311-.361.624-.561.95" transform="translate(177.066 45.088)" fill="#bf051b"/>
      </g>
      <rect id="Rectangle_571" data-name="Rectangle 571" width="702" height="163.846" transform="translate(0 4)" fill="none"/>
      <g id="Group_3159" data-name="Group 3159" transform="translate(17.148 164.527)">
        <path id="Path_6764" data-name="Path 6764" d="M2.174,7l638.959.941L626.842,50.283H-12.751Z" transform="translate(12.751 -7)" fill="#0c4e97"/>
        <g id="Group_3158" data-name="Group 3158" transform="translate(227.519 6.205)">
          <path id="Path_7823" data-name="Path 7823" d="M-78.229-17.391h9.7v-3.286H-82.2V0h3.968V-8.494h9.207V-11.78h-9.207ZM-57.4-20.863a24.547,24.547,0,0,0-4.371.279,5.805,5.805,0,0,0-3.844,2.418c-.961,1.519-1.178,3.038-1.178,8.37A28.806,28.806,0,0,0-66.6-5.27c.372,2.294,1.209,3.627,2.852,4.526,1.271.682,2.821.93,5.89.93a25.212,25.212,0,0,0,4.495-.279A5.611,5.611,0,0,0-49.4-2.666c.868-1.55,1.054-2.914,1.054-7.874a31.4,31.4,0,0,0-.217-4.9,5.7,5.7,0,0,0-3.317-4.743C-53.087-20.677-54.451-20.863-57.4-20.863Zm-5.363,8c.031-2.046.31-3.131.992-3.782.651-.651,1.488-.806,4-.806,2.325,0,3.1.062,3.782.341a2.764,2.764,0,0,1,1.457,2.325,22.038,22.038,0,0,1,.155,4.309c0,3.875-.031,4.4-.4,5.425-.527,1.488-1.364,1.829-4.4,1.829-3.162,0-4.092-.155-4.681-.837-.744-.868-.9-1.8-.9-5.425ZM-45.4,0h3.968V-6.882h5.58c2.2-.062,3.162.9,3.1,3.162V0h4V-4.495c.031-2.511-1.147-3.906-3.5-4.03V-8.68c3.007-.589,3.72-1.7,3.72-5.828,0-4.619-1.7-6.169-6.7-6.169H-45.4Zm3.968-10.261v-7.006H-35.6c2.542,0,3.038.558,3.038,3.472,0,1.767-.155,2.387-.806,2.914a3.665,3.665,0,0,1-2.511.62Zm35.65-10.416H-10.71l-6.7,6.231,2.325,2.511,5.394-5.332V0h3.906Zm32.488,0H22.119l-3.162,5.456c-.31.558-.558.961-1.333,2.511l-.465.837h-.093l-.434-.837c-.837-1.612-1.085-2.077-1.333-2.511l-3.131-5.456H7.642L15.082-7.9V0H19.05V-7.9Zm5.735,3.286H42.61v-3.286H28.474V0H42.7V-3.286H32.442V-9.114h9.641v-2.914H32.442ZM58.668-3.968,60,0h4.061L57.056-20.677H51.2L44.315,0h4.154L49.74-3.968Zm-.9-2.945h-7.1L54.2-17.639ZM65.86,0h3.968V-6.882h5.58c2.2-.062,3.162.9,3.1,3.162V0h4V-4.495C82.538-7.006,81.36-8.4,79-8.525V-8.68c3.007-.589,3.72-1.7,3.72-5.828,0-4.619-1.705-6.169-6.7-6.169H65.86Zm3.968-10.261v-7.006h5.828c2.542,0,3.038.558,3.038,3.472,0,1.767-.155,2.387-.806,2.914a3.665,3.665,0,0,1-2.511.62Z" transform="translate(84 24.984)" fill="#fff"/>
          <path id="Path_7824" data-name="Path 7824" d="M6.725-17.125,5.2-13.625H5.15L3.6-17.1l-1.525.875,2.35,3.05v.05L.75-13.6v1.7l3.7-.475v.05L2.075-9.275l1.425.9L5.125-11.9h.05l1.5,3.5L8.25-9.3l-2.4-3v-.05l3.775.45v-1.7l-3.775.5v-.05l2.375-3.125Z" transform="translate(168.752 19)" fill="#dee6ef"/>
        </g>
      </g>
    </g>
    <path id="Path_7819" data-name="Path 7819" d="M-86.422-10.248V-7.2h4.06c.028.28.056.56.056.616,0,2.576-.7,3.108-4.032,3.108-2.268,0-3.276-.336-3.668-1.26-.336-.756-.336-.784-.392-4.9.028-3.416.056-3.556.42-4.284.476-.98,1.428-1.288,3.864-1.288,3.024,0,3.5.308,3.668,2.24h4.368c-.084-2.8-.616-4.2-1.932-4.956-1.26-.728-2.352-.9-5.684-.9a19.848,19.848,0,0,0-4.872.364,5.068,5.068,0,0,0-3.7,3.444c-.42,1.288-.532,2.828-.532,7.42,0,4.172.924,6.1,3.36,7.14,1.092.448,2.24.588,5.012.588,4.4,0,5.936-.336,7.084-1.54,1.008-1.092,1.316-2.268,1.316-5.152,0-1.316-.028-2.548-.056-3.7Zm18.9-8.568a22.655,22.655,0,0,0-4.032.28,5.69,5.69,0,0,0-3.556,2.184c-.924,1.316-1.148,2.912-1.148,7.784a22.966,22.966,0,0,0,.2,3.808A5.087,5.087,0,0,0-73.486-.784c1.176.672,2.6.924,5.544.924A23.119,23.119,0,0,0-63.91-.14a5.491,5.491,0,0,0,3.668-2.352c.812-1.372,1.008-2.632,1.008-6.86A26.548,26.548,0,0,0-59.458-14a5.092,5.092,0,0,0-3.108-4.172C-63.658-18.648-64.89-18.816-67.522-18.816Zm-.308,3.7c2.24,0,2.968.14,3.444.7.672.784.756,1.288.756,5.012,0,2.856-.056,3.528-.364,4.368-.448,1.176-1.148,1.484-3.472,1.484-2.408,0-3.192-.14-3.668-.7-.588-.7-.728-1.512-.728-4.508,0-4.368.112-5.04.868-5.712C-70.434-14.98-69.79-15.12-67.83-15.12Zm32.48,2.1c.028-.308.028-.644.028-.756a5.285,5.285,0,0,0-1.036-3.556c-.952-1.12-2.492-1.484-6.3-1.484-3.472,0-4.984.28-6.188,1.12-1.036.756-1.512,2.128-1.512,4.368,0,2.66.588,4.032,2.044,4.76.952.476,1.82.616,4.872.812,3.388.224,3.388.224,3.836.588.364.252.5.756.5,1.568a2.267,2.267,0,0,1-.588,1.876c-.476.364-.9.448-2.6.448-2.548,0-2.94-.056-3.388-.42a2.453,2.453,0,0,1-.588-1.96v-.336h-4.116c0,2.324.2,3.3.784,4.2C-48.678-.308-47.054.14-42.49.14c3.752,0,5.236-.308,6.412-1.4.9-.84,1.232-2.1,1.232-4.508,0-2.464-.42-3.556-1.624-4.34-.952-.616-1.988-.84-4.984-1.008a25.347,25.347,0,0,1-3.416-.28c-.84-.224-1.176-.756-1.176-1.9,0-1.792.616-2.184,3.528-2.184,2.632,0,3.052.336,3.052,2.464Zm11.032-5.8a22.655,22.655,0,0,0-4.032.28,5.69,5.69,0,0,0-3.556,2.184c-.924,1.316-1.148,2.912-1.148,7.784a22.966,22.966,0,0,0,.2,3.808A5.087,5.087,0,0,0-30.282-.784c1.176.672,2.6.924,5.544.924a23.119,23.119,0,0,0,4.032-.28,5.491,5.491,0,0,0,3.668-2.352c.812-1.372,1.008-2.632,1.008-6.86A26.548,26.548,0,0,0-16.254-14a5.092,5.092,0,0,0-3.108-4.172C-20.454-18.648-21.686-18.816-24.318-18.816Zm-.308,3.7c2.24,0,2.968.14,3.444.7.672.784.756,1.288.756,5.012,0,2.856-.056,3.528-.364,4.368-.448,1.176-1.148,1.484-3.472,1.484-2.408,0-3.192-.14-3.668-.7-.588-.7-.728-1.512-.728-4.508,0-4.368.112-5.04.868-5.712C-27.23-14.98-26.586-15.12-24.626-15.12ZM-9.2-18.676H-13.51V0H-.938V-3.724H-9.2ZM12.894-3.388,13.958,0h4.424L12.39-18.676H5.922L.014,0h4.48L5.53-3.388ZM12-6.552H6.482l2.744-8.876ZM19.838,0H24.15V-5.572h4.368c1.708-.056,2.492.784,2.436,2.66V0h4.368V-3.724c.028-2.3-1.064-3.528-3.276-3.668v-.14c2.856-.644,3.444-1.6,3.444-5.488,0-2.772-.644-4.2-2.3-5.012a9.072,9.072,0,0,0-4.06-.644h-9.3ZM24.15-9.24v-5.74h4.48c2.072,0,2.464.448,2.464,2.688,0,2.492-.448,3.052-2.464,3.052Zm25.34-5.88h8.484v-3.556h-12.8V0H49.49V-7.224h7.952V-10.78H49.49Zm18.648-3.7a22.655,22.655,0,0,0-4.032.28,5.69,5.69,0,0,0-3.556,2.184C59.626-15.036,59.4-13.44,59.4-8.568a22.966,22.966,0,0,0,.2,3.808A5.087,5.087,0,0,0,62.174-.784c1.176.672,2.6.924,5.544.924A23.119,23.119,0,0,0,71.75-.14a5.491,5.491,0,0,0,3.668-2.352c.812-1.372,1.008-2.632,1.008-6.86A26.548,26.548,0,0,0,76.2-14a5.092,5.092,0,0,0-3.108-4.172C72-18.648,70.77-18.816,68.138-18.816Zm-.308,3.7c2.24,0,2.968.14,3.444.7.672.784.756,1.288.756,5.012,0,2.856-.056,3.528-.364,4.368-.448,1.176-1.148,1.484-3.472,1.484-2.408,0-3.192-.14-3.668-.7-.588-.7-.728-1.512-.728-4.508,0-4.368.112-5.04.868-5.712C65.226-14.98,65.87-15.12,67.83-15.12ZM78.946,0h4.312V-5.572h4.368c1.708-.056,2.492.784,2.436,2.66V0H94.43V-3.724c.028-2.3-1.064-3.528-3.276-3.668v-.14c2.856-.644,3.444-1.6,3.444-5.488,0-2.772-.644-4.2-2.3-5.012a9.073,9.073,0,0,0-4.06-.644h-9.3Zm4.312-9.24v-5.74h4.48c2.072,0,2.464.448,2.464,2.688,0,2.492-.448,3.052-2.464,3.052Z" transform="translate(814.842 944.365)" fill="#0c4e97"/>
  </g>
</svg>
