<svg xmlns="http://www.w3.org/2000/svg"  viewBox="0 0 774.165 50.059">
  <g id="Group_5004" data-name="Group 5004" transform="translate(-663.287 -6808.633)">
    <path id="Path_192" data-name="Path 192" d="M10.814.039l744.1-.1-22.65,49.1-743.434.085Z" transform="translate(679 6808.692)" fill="#ce0109"/>
   <a href="/solar-panels/"> 
    <g id="Group_1567" data-name="Group 1567" transform="translate(711.399 6821.339)">
      <path id="Path_136" data-name="Path 136" d="M93.45,31.34l-.939-4.878h5.635c.47,0,.614-.145.614-.542V21.151c0-.721-.253-.759-.976-.759H95.076c-1.554,0-2.928-.36-2.928-2.963V8.542c0-2.058,1.084-3.4,3.541-3.4h7.226l.9,4.878H97.893c-.434,0-.65.181-.65.578V15.37c0,.543.253.688.795.688h3.288c1.662,0,2.6.721,2.6,2.674v8.634c0,2.89-1.012,3.974-4.011,3.974Z" transform="translate(-92.148 -5.146)" fill="#fff"/>
      <path id="Path_137" data-name="Path 137" d="M117.313,27.618c0,1.988-.831,3.721-3.758,3.721h-6.07c-2.927,0-3.758-1.733-3.758-3.721V8.542c0-2.058,1.084-3.4,3.541-3.4h6.5c2.457,0,3.541,1.338,3.541,3.4Zm-7.84-17.884c-.361,0-.47.181-.47.506V26.209c0,.4.072.543.506.543H111.5c.434,0,.506-.145.506-.543V10.24c0-.325-.108-.506-.47-.506Z" transform="translate(-89.782 -5.146)" fill="#fff"/>
      <path id="Path_138" data-name="Path 138" d="M116.808,5.146h5.382V26.462h5.275l-.9,4.878h-9.754Z" transform="translate(-87.108 -5.146)" fill="#fff"/>
      <path id="Path_139" data-name="Path 139" d="M132.3,28.088l-.47,3.252h-5.275L131.29,5.146h5.6l4.733,26.194h-5.275l-.47-3.252Zm.578-4.154H135.3l-1.192-9.286Z" transform="translate(-85.116 -5.146)" fill="#fff"/>
      <path id="Path_140" data-name="Path 140" d="M153.744,20.682a2.266,2.266,0,0,1-2.348,2.312l2.746,8.345h-5.42l-2.529-8.345h-.686V31.34h-5.239V5.146H150.2c2.457,0,3.541,1.338,3.541,3.4ZM145.506,9.735v9.033h2.565c.4,0,.506-.145.506-.542V10.277c0-.326-.145-.542-.506-.542Z" transform="translate(-82.314 -5.146)" fill="#fff"/>
    </g>
    </a>
    <g id="Group_1570" data-name="Group 1570" transform="translate(1304.051 6821.339)">
      <g id="Group_1554" data-name="Group 1554">
        <path id="Path_142" data-name="Path 142" d="M597.713,20.682a2.266,2.266,0,0,1-2.349,2.312l2.746,8.345h-5.42l-2.529-8.345h-.686V31.34h-5.239V5.146h9.936c2.457,0,3.541,1.338,3.541,3.4ZM589.475,9.735v9.033h2.565c.4,0,.506-.145.506-.542V10.277c0-.326-.145-.542-.506-.542Z" transform="translate(-584.236 -5.146)" fill="#fff"/>
        <path id="Path_143" data-name="Path 143" d="M610.871,27.618c0,1.988-.831,3.721-3.758,3.721h-6.07c-2.927,0-3.758-1.733-3.758-3.721V8.542c0-2.058,1.084-3.4,3.541-3.4h6.5c2.457,0,3.541,1.338,3.541,3.4Zm-7.84-17.884c-.361,0-.47.181-.47.506V26.209c0,.4.072.543.506.543h1.987c.434,0,.506-.145.506-.543V10.24c0-.325-.108-.506-.47-.506Z" transform="translate(-581.569 -5.146)" fill="#fff"/>
        <path id="Path_144" data-name="Path 144" d="M623.951,27.618c0,1.988-.831,3.721-3.759,3.721h-6.069c-2.927,0-3.758-1.733-3.758-3.721V8.542c0-2.058,1.084-3.4,3.541-3.4h6.5c2.457,0,3.541,1.338,3.541,3.4Zm-7.84-17.884c-.362,0-.47.181-.47.506V26.209c0,.4.072.543.506.543h1.986c.434,0,.506-.145.506-.543V10.24c0-.325-.107-.506-.469-.506Z" transform="translate(-578.896 -5.146)" fill="#fff"/>
        <path id="Path_145" data-name="Path 145" d="M623.446,5.146h10.189l.9,4.878H628.83v6.215h4.336v4.515H628.83V31.34h-5.384Z" transform="translate(-576.223 -5.146)" fill="#fff"/>
        <path id="Path_146" data-name="Path 146" d="M634.005,5.146h5.24V31.34h-5.24Z" transform="translate(-574.065 -5.146)" fill="#fff"/>
        <path id="Path_147" data-name="Path 147" d="M640.155,5.146h4.985l2.675,10.514V5.146H653.2V31.34h-5.382L645,20.392V31.34h-4.841Z" transform="translate(-572.808 -5.146)" fill="#fff"/>
        <path id="Path_148" data-name="Path 148" d="M652.785,8.326a2.87,2.87,0,0,1,3.107-3.18h7.478l.9,4.878H658.53c-.362,0-.47.181-.47.506V26.065c0,.326.107.506.47.506h2.385V16.238h5.093v15.1h-9.14c-3,0-4.083-1.156-4.083-4.045Z" transform="translate(-570.227 -5.146)" fill="#fff"/>
      </g>
    </g>
    <g id="Group_1568" data-name="Group 1568" transform="translate(840.939 6821.339)">
      <path id="Path_151" data-name="Path 151" d="M213.038,15.516a2.4,2.4,0,0,1-1.807,2.672,2.112,2.112,0,0,1,2.059,2.312v6.794c0,2.889-1.084,4.045-4.083,4.045h-9.5V5.146h10.224a2.87,2.87,0,0,1,3.107,3.18Zm-8.129-5.781V16.6h2.457a.618.618,0,0,0,.65-.686V10.24c0-.325-.108-.506-.47-.506Zm3.181,11.6c0-.579-.325-.759-.8-.759h-2.385v6.178h2.638c.434,0,.543-.145.543-.543Z" transform="translate(-199.707 -5.146)" fill="#fff"/>
      <path id="Path_152" data-name="Path 152" d="M217.631,28.088l-.47,3.252h-5.275l4.733-26.194h5.6l4.733,26.194h-5.275l-.47-3.252Zm.578-4.154h2.421l-1.192-9.286Z" transform="translate(-197.218 -5.146)" fill="#fff"/>
      <path id="Path_153" data-name="Path 153" d="M234.252,5.146l1.3,4.878h-3.5V31.34H226.7V10.024h-3.5l1.373-4.878Z" transform="translate(-194.907 -5.146)" fill="#fff"/>
      <path id="Path_154" data-name="Path 154" d="M245.352,5.146l1.3,4.878h-3.5V31.34H237.8V10.024h-3.5l1.373-4.878Z" transform="translate(-192.638 -5.146)" fill="#fff"/>
      <path id="Path_155" data-name="Path 155" d="M245.756,5.146h10.189l.9,4.878h-5.709v6.215h4.336v4.515h-4.336v5.709h5.492l-.9,4.878h-9.972Z" transform="translate(-190.296 -5.146)" fill="#fff"/>
      <path id="Path_156" data-name="Path 156" d="M269.942,20.682a2.266,2.266,0,0,1-2.347,2.312l2.745,8.345h-5.42l-2.528-8.345H261.7V31.34h-5.239V5.146H266.4c2.457,0,3.541,1.338,3.541,3.4ZM261.7,9.735v9.033h2.565c.4,0,.506-.145.506-.542V10.277c0-.326-.145-.542-.506-.542Z" transform="translate(-188.108 -5.146)" fill="#fff"/>
      <path id="Path_157" data-name="Path 157" d="M279.316,31.34h-5.528V24.693L268.766,5.146h5.42L276.534,17.5l2.385-12.357h5.42l-5.022,19.547Z" transform="translate(-185.594 -5.146)" fill="#fff"/>
      <path id="Path_158" data-name="Path 158" d="M287.947,31.34l-.939-4.878h5.636c.47,0,.614-.145.614-.542V21.151c0-.721-.253-.759-.976-.759h-2.71c-1.554,0-2.927-.36-2.927-2.963V8.542c0-2.058,1.084-3.4,3.541-3.4h7.226l.9,4.878h-5.924c-.434,0-.65.181-.65.578V15.37c0,.543.253.688.795.688h3.288c1.662,0,2.6.721,2.6,2.674v8.634c0,2.89-1.012,3.974-4.01,3.974Z" transform="translate(-181.94 -5.146)" fill="#fff"/>
      <path id="Path_159" data-name="Path 159" d="M308.381,5.146l1.3,4.878h-3.5V31.34h-5.347V10.024h-3.5L298.7,5.146Z" transform="translate(-179.757 -5.146)" fill="#fff"/>
      <path id="Path_160" data-name="Path 160" d="M322.37,27.618c0,1.988-.83,3.721-3.758,3.721h-6.069c-2.927,0-3.758-1.733-3.758-3.721V8.542c0-2.058,1.084-3.4,3.541-3.4h6.5c2.456,0,3.54,1.338,3.54,3.4ZM314.531,9.735c-.363,0-.47.181-.47.506V26.209c0,.4.072.543.5.543h1.987c.434,0,.506-.145.506-.543V10.24c0-.325-.108-.506-.469-.506Z" transform="translate(-177.415 -5.146)" fill="#fff"/>
      <path id="Path_161" data-name="Path 161" d="M335.342,20.682a2.266,2.266,0,0,1-2.348,2.312l2.746,8.345h-5.42l-2.529-8.345H327.1V31.34h-5.239V5.146H331.8c2.457,0,3.541,1.338,3.541,3.4ZM327.1,9.735v9.033h2.565c.4,0,.506-.145.506-.542V10.277c0-.326-.145-.542-.506-.542Z" transform="translate(-174.743 -5.146)" fill="#fff"/>
      <path id="Path_162" data-name="Path 162" d="M339.851,28.088l-.471,3.252h-5.274l4.733-26.194h5.6l4.732,26.194H343.9l-.47-3.252Zm.578-4.154h2.42l-1.191-9.286Z" transform="translate(-172.241 -5.146)" fill="#fff"/>
      <path id="Path_163" data-name="Path 163" d="M347.606,8.326a2.87,2.87,0,0,1,3.107-3.18h7.479l.9,4.878h-5.745c-.361,0-.47.181-.47.506V26.065c0,.326.108.506.47.506h2.385V16.238h5.093v15.1h-9.14c-3,0-4.083-1.156-4.083-4.045Z" transform="translate(-169.482 -5.146)" fill="#fff"/>
      <path id="Path_164" data-name="Path 164" d="M360.3,5.146h10.189l.9,4.878h-5.709v6.215h4.336v4.515h-4.336v5.709h5.492l-.9,4.878H360.3Z" transform="translate(-166.889 -5.146)" fill="#fff"/>
    </g>
    <g id="Group_1569" data-name="Group 1569" transform="translate(1058.41 6809.067)">
      <g id="Group_1559" data-name="Group 1559" transform="translate(36.57 12.091)">
        <path id="Path_166" data-name="Path 166" d="M424.19,31.34h-5.347V20.863h-2.854V31.34h-5.347V5.146h5.347v11.2h2.854V5.146h5.347Z" transform="translate(-410.641 -4.965)" fill="#fff"/>
        <path id="Path_167" data-name="Path 167" d="M423.691,5.146h10.188l.9,4.878h-5.707v6.215h4.336v4.515h-4.336v5.709h5.492l-.9,4.878h-9.972Z" transform="translate(-407.974 -4.965)" fill="#fff"/>
        <path id="Path_168" data-name="Path 168" d="M439.366,28.088l-.47,3.252h-5.275l4.733-26.194h5.6l4.733,26.194h-5.275l-.47-3.252Zm.578-4.154h2.421l-1.192-9.286Z" transform="translate(-405.945 -4.965)" fill="#fff"/>
        <path id="Path_169" data-name="Path 169" d="M455.986,5.146l1.3,4.878h-3.5V31.34h-5.347V10.024h-3.5L446.3,5.146Z" transform="translate(-403.633 -4.965)" fill="#fff"/>
        <path id="Path_170" data-name="Path 170" d="M456.391,5.146h5.239V31.34h-5.239Z" transform="translate(-401.291 -4.965)" fill="#fff"/>
        <path id="Path_171" data-name="Path 171" d="M462.541,5.146h4.986L470.2,15.66V5.146h5.383V31.34H470.2l-2.817-10.948V31.34h-4.842Z" transform="translate(-400.035 -4.965)" fill="#fff"/>
        <path id="Path_172" data-name="Path 172" d="M475.17,8.326a2.871,2.871,0,0,1,3.108-3.18h7.478l.9,4.878h-5.745c-.361,0-.47.181-.47.506V26.065c0,.326.108.506.47.506H483.3V16.238h5.094v15.1h-9.14c-3,0-4.084-1.156-4.084-4.045Z" transform="translate(-397.454 -4.965)" fill="#fff"/>
        <path id="Path_173" data-name="Path 173" d="M509.674,31.37H505.2a2.265,2.265,0,0,1-2.169-1.662c-1.589,1.879-3.973,1.879-6.033,1.879-4.047,0-5.383-1.228-5.383-5.492V18.184c0-1.843,1.445-3.324,3.758-3.469l-1.3-2.493a5.247,5.247,0,0,1,.686-5.707C495.765,5.466,497.68,5,500.389,5c4.156,0,6.359.939,6.359,4.878V11.9c0,2.349-.506,5.166-4.985,5.347l2.347,5.022a9.1,9.1,0,0,0,.976-4.083h4.191a17.445,17.445,0,0,1-2.565,7.949c-.072.145-.179.36.325.36H508.7Zm-13.15-12.03V26.1c0,.759.361,1.012,1.084,1.012h1.3a1.841,1.841,0,0,0,1.843-1.119c-.976-2.241-2.276-4.48-3.685-7.732C496.668,18.328,496.524,18.363,496.524,19.34Zm3.83-5.094c1.229.036,1.915-.506,2.023-1.3a14.921,14.921,0,0,0,.036-2.853c-.072-1.048-.543-1.265-1.626-1.265h-.795c-1.59,0-1.77,1.084-1.12,2.385Z" transform="translate(-394.094 -4.996)" fill="#fff"/>
        <path id="Path_174" data-name="Path 174" d="M517.035,28.088l-.471,3.252H511.29l4.733-26.194h5.6l4.733,26.194H521.08l-.47-3.252Zm.578-4.154h2.42l-1.191-9.286Z" transform="translate(-390.072 -4.965)" fill="#fff"/>
        <path id="Path_175" data-name="Path 175" d="M525,5.146h5.239V31.34H525Z" transform="translate(-387.27 -4.965)" fill="#fff"/>
        <path id="Path_176" data-name="Path 176" d="M544.626,20.682a2.266,2.266,0,0,1-2.349,2.312l2.746,8.345H539.6l-2.529-8.345h-.685V31.34h-5.24V5.146h9.936c2.457,0,3.541,1.338,3.541,3.4ZM536.389,9.735v9.033h2.564c.4,0,.506-.145.506-.542V10.277c0-.326-.145-.542-.506-.542Z" transform="translate(-386.014 -4.965)" fill="#fff"/>
      </g>
    </g>
    <path id="Path_188" data-name="Path 188" d="M23.076,0h7.349L6.363,50H-.713Z" transform="translate(804 6808.692)" fill="#fff"/>
    <path id="Path_187" data-name="Path 187" d="M23.076,0h7.349L6.363,50H-.713Z" transform="translate(664 6808.692)" fill="#fff"/>
    <path id="Path_189" data-name="Path 189" d="M23.076,0h7.349L6.363,50H-.713Z" transform="translate(1053.145 6808.692)" fill="#fff"/>
    <path id="Path_190" data-name="Path 190" d="M23.076,0h7.349L6.363,50H-.713Z" transform="translate(1267.145 6808.692)" fill="#fff"/>
    <path id="Path_191" data-name="Path 191" d="M23.076,0h7.349L6.363,50H-.713Z" transform="translate(1407.027 6808.692)" fill="#fff"/>
  </g>
</svg>
