<svg xmlns="http://www.w3.org/2000/svg" width="1100" height="39" viewBox="0 0 1100 39">

  <g id="Group_5007" data-name="Group 5007" transform="translate(-410 -1466)">
    <g id="Group_5006" data-name="Group 5006" transform="translate(-0.262)">
     
      
      <path id="Union_4" data-name="Union 4" d="M0,0H354.609V39H0Z" transform="translate(1155.653 1466)" fill="#e65b12"/>
      <text fill="white" x="5" y="5" >
      The quick brown fox jumps over the lazy dog
    </text>
      <path id="Union_3" data-name="Union 3" d="M466.1,39H0V0H466.108V.006L490.1,19.5,466.108,38.993V39Z" transform="translate(698.31 1466)" fill="#0c4e97"/>
      <path id="Union_2" data-name="Union 2" d="M372.838,39H0V0H372.846V.006L396.839,19.5,372.846,38.994V39Z" transform="translate(410.261 1466)" fill="#ce0109"/>
    </g>
    <path id="Path_7820" data-name="Path 7820" d="M-112.788.208a9.25,9.25,0,0,1-3.64-.663,5.367,5.367,0,0,1-2.4-1.9,4.964,4.964,0,0,1-.845-2.873V-5.8a.3.3,0,0,1,.091-.221.3.3,0,0,1,.221-.091h2.964a.3.3,0,0,1,.221.091.3.3,0,0,1,.091.221v.39a2.125,2.125,0,0,0,.962,1.755,4.265,4.265,0,0,0,2.6.715,3.074,3.074,0,0,0,2.054-.585,1.835,1.835,0,0,0,.676-1.443,1.455,1.455,0,0,0-.416-1.053,3.674,3.674,0,0,0-1.131-.754q-.715-.325-2.275-.9a22.279,22.279,0,0,1-2.951-1.222,5.926,5.926,0,0,1-2.028-1.7,4.28,4.28,0,0,1-.819-2.665,4.693,4.693,0,0,1,.806-2.73,5.132,5.132,0,0,1,2.236-1.794,8.191,8.191,0,0,1,3.3-.624,8.438,8.438,0,0,1,3.523.7,5.743,5.743,0,0,1,2.418,1.963,5.02,5.02,0,0,1,.871,2.925v.39a.3.3,0,0,1-.091.221.3.3,0,0,1-.221.091h-2.99a.3.3,0,0,1-.221-.091.3.3,0,0,1-.091-.221v-.208a2.362,2.362,0,0,0-.9-1.859,3.659,3.659,0,0,0-2.457-.767,3.11,3.11,0,0,0-1.911.52,1.693,1.693,0,0,0-.689,1.43,1.561,1.561,0,0,0,.4,1.092,3.539,3.539,0,0,0,1.2.793q.793.351,2.457.949a30.6,30.6,0,0,1,2.9,1.2,5.776,5.776,0,0,1,1.9,1.547,4.058,4.058,0,0,1,.845,2.665,4.656,4.656,0,0,1-1.794,3.861A7.637,7.637,0,0,1-112.788.208ZM-91.208-18.2a.3.3,0,0,1,.221.091.3.3,0,0,1,.091.221v2.548a.3.3,0,0,1-.091.221.3.3,0,0,1-.221.091h-4.654a.115.115,0,0,0-.13.13V-.312a.3.3,0,0,1-.091.221A.3.3,0,0,1-96.3,0h-3.042a.3.3,0,0,1-.221-.091.3.3,0,0,1-.091-.221V-14.9a.115.115,0,0,0-.13-.13h-4.524a.3.3,0,0,1-.221-.091.3.3,0,0,1-.091-.221v-2.548a.3.3,0,0,1,.091-.221.3.3,0,0,1,.221-.091ZM-78.65,0a.326.326,0,0,1-.338-.26l-.78-2.548q-.052-.1-.13-.1h-6.4q-.078,0-.13.1L-87.178-.26a.326.326,0,0,1-.338.26h-3.3a.291.291,0,0,1-.234-.091.285.285,0,0,1-.026-.273l5.616-17.576a.326.326,0,0,1,.338-.26h4.082a.326.326,0,0,1,.338.26L-75.088-.364a.289.289,0,0,1,.026.13q0,.234-.286.234Zm-6.838-5.9q-.026.156.1.156h4.576q.156,0,.1-.156l-2.34-7.722q-.026-.1-.078-.091t-.078.091ZM-62.79,0a.368.368,0,0,1-.364-.234l-3.25-7.2a.167.167,0,0,0-.156-.1h-2.418a.115.115,0,0,0-.13.13v7.1a.3.3,0,0,1-.091.221A.3.3,0,0,1-69.42,0h-3.042a.3.3,0,0,1-.221-.091.3.3,0,0,1-.091-.221V-17.888a.3.3,0,0,1,.091-.221.3.3,0,0,1,.221-.091h7.436a6.1,6.1,0,0,1,2.925.676,4.74,4.74,0,0,1,1.95,1.924,5.874,5.874,0,0,1,.689,2.886,5.142,5.142,0,0,1-.884,3.029A4.707,4.707,0,0,1-62.816-7.9a.124.124,0,0,0-.078.182l3.536,7.358a.4.4,0,0,1,.052.156q0,.208-.286.208Zm-6.188-15.054a.115.115,0,0,0-.13.13v4.446a.115.115,0,0,0,.13.13h3.406A2.49,2.49,0,0,0-63.791-11a2.218,2.218,0,0,0,.689-1.69,2.259,2.259,0,0,0-.689-1.7,2.462,2.462,0,0,0-1.781-.663Zm24.7-3.146a.3.3,0,0,1,.221.091.3.3,0,0,1,.091.221v2.548a.3.3,0,0,1-.091.221.3.3,0,0,1-.221.091h-4.654a.115.115,0,0,0-.13.13V-.312a.3.3,0,0,1-.091.221A.3.3,0,0,1-49.374,0h-3.042a.3.3,0,0,1-.221-.091.3.3,0,0,1-.091-.221V-14.9a.115.115,0,0,0-.13-.13h-4.524a.3.3,0,0,1-.221-.091.3.3,0,0,1-.091-.221v-2.548a.3.3,0,0,1,.091-.221.3.3,0,0,1,.221-.091ZM-30.186.208a9.25,9.25,0,0,1-3.64-.663,5.367,5.367,0,0,1-2.405-1.9,4.964,4.964,0,0,1-.845-2.873V-5.8a.3.3,0,0,1,.091-.221.3.3,0,0,1,.221-.091H-33.8a.3.3,0,0,1,.221.091.3.3,0,0,1,.091.221v.39a2.125,2.125,0,0,0,.962,1.755,4.265,4.265,0,0,0,2.6.715,3.074,3.074,0,0,0,2.054-.585A1.835,1.835,0,0,0-27.2-4.966a1.455,1.455,0,0,0-.416-1.053,3.674,3.674,0,0,0-1.131-.754q-.715-.325-2.275-.9a22.279,22.279,0,0,1-2.951-1.222A5.926,5.926,0,0,1-36-10.6a4.28,4.28,0,0,1-.819-2.665,4.693,4.693,0,0,1,.806-2.73,5.132,5.132,0,0,1,2.236-1.794,8.191,8.191,0,0,1,3.3-.624,8.438,8.438,0,0,1,3.523.7,5.743,5.743,0,0,1,2.418,1.963,5.02,5.02,0,0,1,.871,2.925v.39a.3.3,0,0,1-.091.221.3.3,0,0,1-.221.091h-2.99a.3.3,0,0,1-.221-.091.3.3,0,0,1-.091-.221v-.208a2.362,2.362,0,0,0-.9-1.859,3.659,3.659,0,0,0-2.457-.767,3.11,3.11,0,0,0-1.911.52,1.693,1.693,0,0,0-.689,1.43,1.561,1.561,0,0,0,.4,1.092,3.539,3.539,0,0,0,1.2.793q.793.351,2.457.949a30.6,30.6,0,0,1,2.9,1.2,5.776,5.776,0,0,1,1.9,1.547A4.058,4.058,0,0,1-23.53-5.07a4.656,4.656,0,0,1-1.794,3.861A7.637,7.637,0,0,1-30.186.208ZM-9.386,0a.326.326,0,0,1-.338-.26l-.78-2.548q-.052-.1-.13-.1h-6.4q-.078,0-.13.1L-17.914-.26a.326.326,0,0,1-.338.26h-3.3a.291.291,0,0,1-.234-.091.285.285,0,0,1-.026-.273L-16.2-17.94a.326.326,0,0,1,.338-.26h4.082a.326.326,0,0,1,.338.26L-5.824-.364a.289.289,0,0,1,.026.13Q-5.8,0-6.084,0Zm-6.838-5.9q-.026.156.1.156h4.576q.156,0,.1-.156l-2.34-7.722q-.026-.1-.078-.091t-.078.091ZM.832,0A.326.326,0,0,1,.494-.26L-4.862-17.836l-.026-.1q0-.26.286-.26h3.276a.342.342,0,0,1,.364.26L2.5-5.252q.026.078.078.078t.078-.078L6.058-17.94a.342.342,0,0,1,.364-.26h3.2a.274.274,0,0,1,.234.1.269.269,0,0,1,.026.26L4.446-.26A.326.326,0,0,1,4.108,0ZM12.48,0a.3.3,0,0,1-.221-.091.3.3,0,0,1-.091-.221V-17.888a.3.3,0,0,1,.091-.221.3.3,0,0,1,.221-.091h3.042a.3.3,0,0,1,.221.091.3.3,0,0,1,.091.221V-.312a.3.3,0,0,1-.091.221A.3.3,0,0,1,15.522,0ZM29.458-17.888a.3.3,0,0,1,.091-.221.3.3,0,0,1,.221-.091h3.042a.3.3,0,0,1,.221.091.3.3,0,0,1,.091.221V-.312a.3.3,0,0,1-.091.221A.3.3,0,0,1,32.812,0H29.874a.372.372,0,0,1-.364-.208L22.776-11.336q-.052-.078-.1-.065t-.052.117L22.672-.312a.3.3,0,0,1-.091.221A.3.3,0,0,1,22.36,0H19.318A.3.3,0,0,1,19.1-.091a.3.3,0,0,1-.091-.221V-17.888a.3.3,0,0,1,.091-.221.3.3,0,0,1,.221-.091h2.938a.372.372,0,0,1,.364.208L29.328-6.916q.052.078.1.065t.052-.117ZM42.692.208A7.491,7.491,0,0,1,39.156-.6a5.84,5.84,0,0,1-2.379-2.249,6.489,6.489,0,0,1-.845-3.341v-5.824a6.56,6.56,0,0,1,.845-3.354,5.73,5.73,0,0,1,2.379-2.249,7.592,7.592,0,0,1,3.536-.793,7.557,7.557,0,0,1,3.5.78,5.921,5.921,0,0,1,2.366,2.119,5.464,5.464,0,0,1,.845,2.977v.182a.3.3,0,0,1-.091.221.3.3,0,0,1-.221.091H46.046a.3.3,0,0,1-.221-.091.3.3,0,0,1-.091-.221v-.078a2.717,2.717,0,0,0-.832-2.015,3.014,3.014,0,0,0-2.21-.819,2.99,2.99,0,0,0-2.249.871,3.129,3.129,0,0,0-.845,2.275v6.032a3.006,3.006,0,0,0,.91,2.275,3.211,3.211,0,0,0,2.314.871,3.133,3.133,0,0,0,2.158-.715,2.521,2.521,0,0,0,.806-1.989v-1.17a.115.115,0,0,0-.13-.13H42.744a.3.3,0,0,1-.221-.091.3.3,0,0,1-.091-.221V-9.646a.3.3,0,0,1,.091-.221.3.3,0,0,1,.221-.091h6.344a.3.3,0,0,1,.221.091.3.3,0,0,1,.091.221v3.432a6.8,6.8,0,0,1-.832,3.432A5.5,5.5,0,0,1,46.215-.559,7.724,7.724,0,0,1,42.692.208Zm25.168-18.1a.3.3,0,0,1,.091-.221.3.3,0,0,1,.221-.091h3.042a.3.3,0,0,1,.221.091.3.3,0,0,1,.091.221V-.312a.3.3,0,0,1-.091.221A.3.3,0,0,1,71.214,0H68.276a.372.372,0,0,1-.364-.208L61.178-11.336q-.052-.078-.1-.065t-.052.117L61.074-.312a.3.3,0,0,1-.091.221A.3.3,0,0,1,60.762,0H57.72A.3.3,0,0,1,57.5-.091a.3.3,0,0,1-.091-.221V-17.888a.3.3,0,0,1,.091-.221.3.3,0,0,1,.221-.091h2.938a.372.372,0,0,1,.364.208L67.73-6.916q.052.078.1.065t.052-.117ZM81.172.286A7.432,7.432,0,0,1,77.6-.546a5.979,5.979,0,0,1-2.4-2.327,6.8,6.8,0,0,1-.858-3.445v-5.564a6.674,6.674,0,0,1,.858-3.406,5.917,5.917,0,0,1,2.4-2.3,7.528,7.528,0,0,1,3.575-.819,7.586,7.586,0,0,1,3.6.819,5.917,5.917,0,0,1,2.4,2.3,6.674,6.674,0,0,1,.858,3.406v5.564a6.869,6.869,0,0,1-.858,3.458,5.869,5.869,0,0,1-2.4,2.327A7.586,7.586,0,0,1,81.172.286Zm0-3.146a3.081,3.081,0,0,0,2.314-.91,3.322,3.322,0,0,0,.884-2.418v-5.72a3.4,3.4,0,0,0-.871-2.431,3.048,3.048,0,0,0-2.327-.923,3.016,3.016,0,0,0-2.3.923A3.4,3.4,0,0,0,78-11.908v5.72a3.351,3.351,0,0,0,.871,2.418A3.038,3.038,0,0,0,81.172-2.86ZM94.484,0a.342.342,0,0,1-.364-.26l-4.6-17.6-.026-.1q0-.234.286-.234H93a.326.326,0,0,1,.338.26L95.81-7.358q.026.1.078.1t.078-.1l2.392-10.556A.333.333,0,0,1,98.7-18.2h3.146a.342.342,0,0,1,.364.26l2.6,10.582q.026.078.078.091t.078-.091l2.392-10.556a.333.333,0,0,1,.338-.286h3.068q.364,0,.286.338L106.782-.26a.342.342,0,0,1-.364.26h-3.094a.326.326,0,0,1-.338-.26l-2.652-11.258q-.026-.1-.078-.1t-.078.1L97.708-.286A.311.311,0,0,1,97.37,0ZM115-6.24a.3.3,0,0,1-.221-.091.3.3,0,0,1-.091-.221l-.338-11.336a.3.3,0,0,1,.091-.221.3.3,0,0,1,.221-.091H117.7a.3.3,0,0,1,.221.091.3.3,0,0,1,.091.221l-.39,11.336a.3.3,0,0,1-.091.221.3.3,0,0,1-.221.091Zm1.014,6.214a1.992,1.992,0,0,1-1.469-.585,1.992,1.992,0,0,1-.585-1.469,2.005,2.005,0,0,1,.572-1.482,2.005,2.005,0,0,1,1.482-.572,1.962,1.962,0,0,1,1.469.572,2.031,2.031,0,0,1,.559,1.482,2.016,2.016,0,0,1-.572,1.469A1.949,1.949,0,0,1,116.012-.026Z" transform="translate(981 1494)" fill="#fff"/>
  </g>
</svg>
