<svg xmlns="http://www.w3.org/2000/svg" width="1100.005" height="34.176" viewBox="0 0 1100.005 34.176">
  <g id="Group_5007" data-name="Group 5007" transform="translate(-410 -1504.983)">
    <path id="Path_7819" data-name="Path 7819" d="M-4251.739,1499v15.014l449.738.332,8.276,18.813h183.974l8.173-19.129,449.838-.015.006-15.032Z" transform="translate(4661.739 6)" fill="#fff"/>
    <path id="Path_7820" data-name="Path 7820" d="M12.681,18.2a5.145,5.145,0,0,1-2.475-.576,4.139,4.139,0,0,1-1.665-1.611,4.706,4.706,0,0,1-.594-2.385V9.774a4.62,4.62,0,0,1,.594-2.358,4.1,4.1,0,0,1,1.665-1.593,5.212,5.212,0,0,1,2.475-.567,5.252,5.252,0,0,1,2.493.567,4.1,4.1,0,0,1,1.665,1.593,4.62,4.62,0,0,1,.594,2.358v3.852a4.755,4.755,0,0,1-.594,2.394,4.063,4.063,0,0,1-1.665,1.611A5.252,5.252,0,0,1,12.681,18.2Zm0-2.178a2.133,2.133,0,0,0,1.6-.63,2.3,2.3,0,0,0,.612-1.674V9.756a2.352,2.352,0,0,0-.6-1.683,2.11,2.11,0,0,0-1.611-.639,2.088,2.088,0,0,0-1.593.639,2.352,2.352,0,0,0-.6,1.683v3.96a2.32,2.32,0,0,0,.6,1.674A2.1,2.1,0,0,0,12.681,16.02Zm11.142-7.4a1.828,1.828,0,0,1,1.026.252.223.223,0,0,1,.108.27L24.579,11.2q-.018.216-.252.126a1.994,1.994,0,0,0-.63-.09,2.977,2.977,0,0,0-.4.036,1.769,1.769,0,0,0-1.1.477,1.471,1.471,0,0,0-.45,1.125v4.914a.215.215,0,0,1-.216.216H19.431a.215.215,0,0,1-.216-.216V8.964a.215.215,0,0,1,.216-.216h2.106a.215.215,0,0,1,.216.216v.684a.073.073,0,0,0,.036.072.036.036,0,0,0,.054-.018A2.286,2.286,0,0,1,23.823,8.622Zm11.16.108a.215.215,0,0,1,.216.216v1.71a.215.215,0,0,1-.216.216H33.237a.08.08,0,0,0-.09.09v6.822a.215.215,0,0,1-.216.216H30.825a.215.215,0,0,1-.216-.216V10.962a.08.08,0,0,0-.09-.09H29.457a.215.215,0,0,1-.216-.216V8.946a.215.215,0,0,1,.216-.216h1.062a.08.08,0,0,0,.09-.09v-.4a3.639,3.639,0,0,1,.342-1.737,1.9,1.9,0,0,1,1.107-.882A6.272,6.272,0,0,1,34.173,5.4h.684a.215.215,0,0,1,.216.216V7.074a.215.215,0,0,1-.216.216h-.594a1.279,1.279,0,0,0-.873.261,1.257,1.257,0,0,0-.243.891v.2a.08.08,0,0,0,.09.09ZM38.043,7.7a1.385,1.385,0,0,1-1.422-1.422,1.423,1.423,0,1,1,2.844,0A1.385,1.385,0,0,1,38.043,7.7ZM36.963,18a.215.215,0,0,1-.216-.216V8.946a.215.215,0,0,1,.216-.216h2.106a.215.215,0,0,1,.216.216v8.838a.215.215,0,0,1-.216.216Zm4.5,0a.215.215,0,0,1-.216-.216V5.616a.215.215,0,0,1,.216-.216h2.106a.215.215,0,0,1,.216.216V17.784a.215.215,0,0,1-.216.216Zm4.392,0a.215.215,0,0,1-.216-.216V5.616a.215.215,0,0,1,.216-.216h2.106a.215.215,0,0,1,.216.216V17.784a.215.215,0,0,1-.216.216Zm11.862.144a4.262,4.262,0,0,1-2.592-.792,3.956,3.956,0,0,1-1.476-2.16,6.406,6.406,0,0,1-.252-1.836,6.679,6.679,0,0,1,.252-1.908A3.868,3.868,0,0,1,55.143,9.36,4.4,4.4,0,0,1,57.735,8.6a4.216,4.216,0,0,1,2.52.747,3.983,3.983,0,0,1,1.476,2.079,6.163,6.163,0,0,1,.288,1.89,6.34,6.34,0,0,1-.252,1.818,4.024,4.024,0,0,1-1.467,2.2A4.19,4.19,0,0,1,57.717,18.144Zm0-2.178a1.483,1.483,0,0,0,1.008-.36,2,2,0,0,0,.594-.99,5.19,5.19,0,0,0,.144-1.26,4.872,4.872,0,0,0-.144-1.278,2,2,0,0,0-.612-.954,1.67,1.67,0,0,0-2.025,0,1.918,1.918,0,0,0-.585.954,4.287,4.287,0,0,0-.144,1.278,4.9,4.9,0,0,0,.126,1.26,1.97,1.97,0,0,0,.6.99A1.542,1.542,0,0,0,57.717,15.966Zm11.34-7a.215.215,0,0,1,.216-.216h2.106a.215.215,0,0,1,.216.216v8.82a.215.215,0,0,1-.216.216H69.273a.215.215,0,0,1-.216-.216v-.612q0-.054-.036-.063t-.072.045a2.6,2.6,0,0,1-2.232.972,3.156,3.156,0,0,1-2.25-.828,3.03,3.03,0,0,1-.882-2.322V8.964a.215.215,0,0,1,.216-.216h2.088a.215.215,0,0,1,.216.216v5.382a1.731,1.731,0,0,0,.387,1.17,1.337,1.337,0,0,0,1.071.45,1.42,1.42,0,0,0,1.008-.369,1.6,1.6,0,0,0,.486-.963Zm9.72,1.6a.215.215,0,0,1-.216.216H76.833a.08.08,0,0,0-.09.09v3.816a1.346,1.346,0,0,0,.243.882.97.97,0,0,0,.783.288h.594a.215.215,0,0,1,.216.216v1.71a.222.222,0,0,1-.216.234q-.756.036-1.08.036a4.047,4.047,0,0,1-2.232-.5A2.123,2.123,0,0,1,74.3,15.7V10.872a.08.08,0,0,0-.09-.09H73.179a.215.215,0,0,1-.216-.216v-1.6a.215.215,0,0,1,.216-.216h1.026a.08.08,0,0,0,.09-.09V6.516a.215.215,0,0,1,.216-.216h2.016a.215.215,0,0,1,.216.216V8.658a.08.08,0,0,0,.09.09h1.728a.215.215,0,0,1,.216.216Zm10.4-1.836a.215.215,0,0,1,.216.216v1.71a.215.215,0,0,1-.216.216H87.435a.08.08,0,0,0-.09.09v6.822a.215.215,0,0,1-.216.216H85.023a.215.215,0,0,1-.216-.216V10.962a.08.08,0,0,0-.09-.09H83.655a.215.215,0,0,1-.216-.216V8.946a.215.215,0,0,1,.216-.216h1.062a.08.08,0,0,0,.09-.09v-.4a3.639,3.639,0,0,1,.342-1.737,1.9,1.9,0,0,1,1.107-.882A6.272,6.272,0,0,1,88.371,5.4h.684a.215.215,0,0,1,.216.216V7.074a.215.215,0,0,1-.216.216h-.594a1.279,1.279,0,0,0-.873.261,1.257,1.257,0,0,0-.243.891v.2a.08.08,0,0,0,.09.09Zm5.22,9.414a4.262,4.262,0,0,1-2.592-.792,3.956,3.956,0,0,1-1.476-2.16,6.406,6.406,0,0,1-.252-1.836,6.679,6.679,0,0,1,.252-1.908A3.868,3.868,0,0,1,91.827,9.36,4.4,4.4,0,0,1,94.419,8.6a4.216,4.216,0,0,1,2.52.747,3.983,3.983,0,0,1,1.476,2.079,6.164,6.164,0,0,1,.288,1.89,6.34,6.34,0,0,1-.252,1.818,4.024,4.024,0,0,1-1.467,2.2A4.19,4.19,0,0,1,94.4,18.144Zm0-2.178a1.483,1.483,0,0,0,1.008-.36,2,2,0,0,0,.594-.99,5.19,5.19,0,0,0,.144-1.26A4.872,4.872,0,0,0,96,12.078a2,2,0,0,0-.612-.954,1.67,1.67,0,0,0-2.025,0,1.918,1.918,0,0,0-.585.954,4.287,4.287,0,0,0-.144,1.278,4.9,4.9,0,0,0,.126,1.26,1.97,1.97,0,0,0,.6.99A1.542,1.542,0,0,0,94.4,15.966Zm10.548-7.344a1.828,1.828,0,0,1,1.026.252.223.223,0,0,1,.108.27l-.378,2.052q-.018.216-.252.126a1.994,1.994,0,0,0-.63-.09,2.977,2.977,0,0,0-.4.036,1.769,1.769,0,0,0-1.1.477,1.471,1.471,0,0,0-.45,1.125v4.914a.215.215,0,0,1-.216.216h-2.106a.215.215,0,0,1-.216-.216V8.964a.215.215,0,0,1,.216-.216h2.106a.215.215,0,0,1,.216.216v.684a.073.073,0,0,0,.036.072.036.036,0,0,0,.054-.018A2.286,2.286,0,0,1,104.949,8.622ZM117.5,8.6a2.861,2.861,0,0,1,2.2.846,3.343,3.343,0,0,1,.792,2.376v5.958a.215.215,0,0,1-.216.216h-2.106a.215.215,0,0,1-.216-.216v-5.4a1.715,1.715,0,0,0-.378-1.17,1.273,1.273,0,0,0-1.008-.432,1.328,1.328,0,0,0-1.026.432,1.638,1.638,0,0,0-.4,1.152v5.418a.215.215,0,0,1-.216.216h-2.088a.215.215,0,0,1-.216-.216v-5.4a1.672,1.672,0,0,0-.4-1.161,1.315,1.315,0,0,0-1.026-.441,1.4,1.4,0,0,0-.963.342,1.445,1.445,0,0,0-.459.954v5.706a.215.215,0,0,1-.216.216h-2.106a.215.215,0,0,1-.216-.216V8.964a.215.215,0,0,1,.216-.216h2.106a.215.215,0,0,1,.216.216v.7a.073.073,0,0,0,.036.072q.036.018.072-.036a2.561,2.561,0,0,1,2.286-1.1,3.17,3.17,0,0,1,1.575.378,2.534,2.534,0,0,1,1.035,1.08q.054.108.126,0a2.593,2.593,0,0,1,1.071-1.1A3.181,3.181,0,0,1,117.5,8.6Zm16.56,2.5a6.514,6.514,0,0,1,.342,2.232,7.018,7.018,0,0,1-.306,2.178,3.964,3.964,0,0,1-1.323,1.926,3.416,3.416,0,0,1-2.151.7,2.463,2.463,0,0,1-2.07-.99.075.075,0,0,0-.072-.027q-.036.009-.036.063v.594a.215.215,0,0,1-.216.216h-2.106a.215.215,0,0,1-.216-.216V5.616a.215.215,0,0,1,.216-.216h2.106a.215.215,0,0,1,.216.216V9.468a.073.073,0,0,0,.036.072q.036.018.072-.036a2.385,2.385,0,0,1,2-.9,3.546,3.546,0,0,1,2.205.675A3.869,3.869,0,0,1,134.055,11.106Zm-2.664,4.086a3.713,3.713,0,0,0,.378-1.8,3.509,3.509,0,0,0-.432-1.908,1.407,1.407,0,0,0-1.278-.7,1.321,1.321,0,0,0-1.206.7,3.786,3.786,0,0,0-.4,1.89,3.656,3.656,0,0,0,.36,1.818,1.369,1.369,0,0,0,1.26.774A1.411,1.411,0,0,0,131.391,15.192Zm12.8-2.772a7.745,7.745,0,0,1,.072,1.53.21.21,0,0,1-.234.216h-5.562q-.108,0-.072.09a3.223,3.223,0,0,0,.2.72,1.887,1.887,0,0,0,1.908,1.008,2.172,2.172,0,0,0,1.818-.936.2.2,0,0,1,.162-.108.2.2,0,0,1,.126.072l1.3,1.278a.248.248,0,0,1,.09.162.371.371,0,0,1-.072.144,3.926,3.926,0,0,1-1.53,1.143,5.112,5.112,0,0,1-2.052.4,4.675,4.675,0,0,1-2.619-.7,3.9,3.9,0,0,1-1.539-1.962,6.172,6.172,0,0,1-.378-2.358,5.181,5.181,0,0,1,.27-1.746,3.957,3.957,0,0,1,1.449-2.034,4.052,4.052,0,0,1,2.457-.756,4,4,0,0,1,2.889,1.044A4.568,4.568,0,0,1,144.189,12.42ZM140,10.782a1.443,1.443,0,0,0-1.494,1.062,4.247,4.247,0,0,0-.126.576.08.08,0,0,0,.09.09h3.114q.108,0,.072-.09-.09-.522-.09-.5a1.555,1.555,0,0,0-.567-.837A1.643,1.643,0,0,0,140,10.782ZM146.043,18a.215.215,0,0,1-.216-.216V5.616a.215.215,0,0,1,.216-.216h2.106a.215.215,0,0,1,.216.216V17.784a.215.215,0,0,1-.216.216Zm8.262.144a4.262,4.262,0,0,1-2.592-.792,3.957,3.957,0,0,1-1.476-2.16,6.406,6.406,0,0,1-.252-1.836,6.679,6.679,0,0,1,.252-1.908,3.868,3.868,0,0,1,1.494-2.088,4.4,4.4,0,0,1,2.592-.756,4.216,4.216,0,0,1,2.52.747,3.983,3.983,0,0,1,1.476,2.079,6.163,6.163,0,0,1,.288,1.89,6.34,6.34,0,0,1-.252,1.818,4.024,4.024,0,0,1-1.467,2.2A4.19,4.19,0,0,1,154.305,18.144Zm0-2.178a1.483,1.483,0,0,0,1.008-.36,2,2,0,0,0,.594-.99,5.189,5.189,0,0,0,.144-1.26,4.872,4.872,0,0,0-.144-1.278,2,2,0,0,0-.612-.954,1.67,1.67,0,0,0-2.025,0,1.918,1.918,0,0,0-.585.954,4.287,4.287,0,0,0-.144,1.278,4.9,4.9,0,0,0,.126,1.26,1.97,1.97,0,0,0,.6.99A1.542,1.542,0,0,0,154.305,15.966ZM162.045,18a.237.237,0,0,1-.252-.18L159.2,8.982l-.018-.072q0-.18.2-.18h2.178a.237.237,0,0,1,.252.18l1.3,5.436q.018.054.054.054t.054-.054l1.35-5.436a.237.237,0,0,1,.252-.18h1.89a.237.237,0,0,1,.252.18l1.422,5.454q.018.054.054.054t.054-.054l1.4-5.454a.237.237,0,0,1,.252-.18l2.16.036a.175.175,0,0,1,.153.063.223.223,0,0,1,.027.171l-2.628,8.82a.226.226,0,0,1-.234.18h-2.178a.237.237,0,0,1-.252-.18L165.807,13q-.018-.054-.054-.054T165.7,13l-1.224,4.824a.237.237,0,0,1-.252.18Z" transform="translate(870 1514)" fill="#12141b"/>
  </g>
</svg>
