<svg xmlns="http://www.w3.org/2000/svg" width="176" height="164" viewBox="0 0 176 164">
  <g id="Group_3734" data-name="Group 3734" transform="translate(-855 -2414)">
    <rect id="Rectangle_818" data-name="Rectangle 818" width="176" height="164" transform="translate(855 2414)" fill="#fff"/>
    <g id="Group_18" data-name="Group 18" transform="translate(555 187.872)">
      <g id="Group_17" data-name="Group 17" transform="translate(321 2261.634)">
        <path id="Path_39" data-name="Path 39" d="M1484.741,1063.407a12.148,12.148,0,0,0-3.3-1.144l-.1-.02v-7.034l.153.043a4.822,4.822,0,0,1,1.734.887,3.23,3.23,0,0,1,1.277,2.435,1.6,1.6,0,1,0,3.19-.054,6.371,6.371,0,0,0-2.447-4.853,8.1,8.1,0,0,0-3.71-1.673l-.1-.017-.028-1.662a1.6,1.6,0,1,0-3.19.056l.028,1.66-.1.021a8.1,8.1,0,0,0-3.651,1.8,6.239,6.239,0,0,0,.064,9.7l.022.019a7.292,7.292,0,0,0,3.562,1.443l.1.017v8.61l-.158-.053a5.226,5.226,0,0,1-2.248-1.426,3.649,3.649,0,0,1-.986-2.394,1.6,1.6,0,0,0-2.742-1.082,1.585,1.585,0,0,0-.448,1.136,6.618,6.618,0,0,0,.76,2.969,7.442,7.442,0,0,0,1.913,2.323,8.849,8.849,0,0,0,3.715,1.766l.093.02.03,1.751a1.6,1.6,0,0,0,1.594,1.567h.029a1.6,1.6,0,0,0,1.567-1.622l-.027-1.575.105-.015a8.924,8.924,0,0,0,4.69-2.094,7.461,7.461,0,0,0,1.831-2.389,6.617,6.617,0,0,0,.659-2.993A7.214,7.214,0,0,0,1484.741,1063.407Zm-6.482-1.625-.148-.035a3.607,3.607,0,0,1-1.474-.631,3.056,3.056,0,0,1-.024-4.863,4.676,4.676,0,0,1,1.485-.872l.161-.059Zm3.236,11.979-.146.031v-8.277l.152.041a8,8,0,0,1,1.685.638,4.067,4.067,0,0,1,2.259,3.39C1485.48,1071.534,1483.855,1073.252,1481.5,1073.761Z" transform="translate(-1419.894 -973.201)" fill="#004c97"/>
        <path id="Path_40" data-name="Path 40" d="M1390.154,767.636l-.005-.025.005-.025a1.717,1.717,0,0,0-2.922-1.544l-10.477,6.347-9.7-7.7a1.724,1.724,0,0,0-1.243-.533h-.177a1.717,1.717,0,0,0-.721,3.275l.037.026,10.558,8.6a1.717,1.717,0,0,0,2.486,0l8.76-4.545v24.1a10.1,10.1,0,1,1-20.194,0v-47.9a13.546,13.546,0,0,0-13.53-13.53H1269.6a13.545,13.545,0,0,0-13.53,13.53V853.988a1.708,1.708,0,0,0,1.079,1.594,1.744,1.744,0,0,0,1.881-.41l5.945-6.243,7.228,7.592a1.722,1.722,0,0,0,1.243.533h.178a1.722,1.722,0,0,0,1.243-.533l7.228-7.592,7.228,7.592a1.722,1.722,0,0,0,1.243.533h.76a1.725,1.725,0,0,0,1.243-.533l7.228-7.592,7.228,7.592a1.72,1.72,0,0,0,1.242.533h.177a1.724,1.724,0,0,0,1.243-.533l7.228-7.592,7.228,7.592a1.722,1.722,0,0,0,1.243.533h.177a1.723,1.723,0,0,0,1.243-.533l7.228-7.592,5.944,6.243a1.745,1.745,0,0,0,1.881.41,1.708,1.708,0,0,0,1.079-1.594V747.723a10.1,10.1,0,1,1,20.194,0v47.9a13.38,13.38,0,0,0,4.306,9.889l.223.208h-25.226a1.717,1.717,0,0,0,0,3.433h34.227a13.545,13.545,0,0,0,13.529-13.53V767.99A1.713,1.713,0,0,0,1390.154,767.636Zm-46.343-29.8a13.379,13.379,0,0,0-4.305,9.889V849.7l-4.228-4.44a1.715,1.715,0,0,0-2.486,0l-7.317,7.684-7.317-7.684a1.716,1.716,0,0,0-2.487,0l-7.316,7.684-7.316-7.684a1.716,1.716,0,0,0-2.487,0l-7.609,7.99-7.608-7.99a1.716,1.716,0,0,0-2.486,0l-7.316,7.684-7.317-7.684a1.716,1.716,0,0,0-2.487,0l-4.227,4.44V747.723a10.109,10.109,0,0,1,10.1-10.1h74.436Z" transform="translate(-1256.068 -734.193)" fill="#004c97"/>
        <path id="Path_41" data-name="Path 41" d="M1307.979,1009.133a1.718,1.718,0,0,0,1.716,1.716h58.5a1.717,1.717,0,0,0,0-3.433h-58.5A1.718,1.718,0,0,0,1307.979,1009.133Z" transform="translate(-1295.511 -941.796)" fill="#efb82a"/>
        <path id="Path_42" data-name="Path 42" d="M1340.493,1111.836h-17.334a1.716,1.716,0,1,0,0,3.433h17.334a1.716,1.716,0,0,0,0-3.433Z" transform="translate(-1305.74 -1021.137)" fill="#efb82a"/>
        <path id="Path_43" data-name="Path 43" d="M1323.158,828.841h26.017a1.716,1.716,0,0,0,0-3.433h-26.017a1.716,1.716,0,1,0,0,3.433Z" transform="translate(-1305.74 -803.501)" fill="#efb82a"/>
        <path id="Path_44" data-name="Path 44" d="M1507.947,828.841h7.654a1.716,1.716,0,1,0,0-3.433h-7.654a1.716,1.716,0,1,0,0,3.433Z" transform="translate(-1446.148 -803.501)" fill="#efb82a"/>
        <path id="Path_45" data-name="Path 45" d="M1323.158,882.011h26.017a1.717,1.717,0,0,0,0-3.433h-26.017a1.717,1.717,0,1,0,0,3.433Z" transform="translate(-1305.74 -843.901)" fill="#efb82a"/>
        <path id="Path_46" data-name="Path 46" d="M1507.947,882.011h7.654a1.717,1.717,0,1,0,0-3.433h-7.654a1.717,1.717,0,1,0,0,3.433Z" transform="translate(-1446.148 -843.901)" fill="#efb82a"/>
        <path id="Path_47" data-name="Path 47" d="M1323.158,935.183h26.017a1.717,1.717,0,0,0,0-3.433h-26.017a1.717,1.717,0,1,0,0,3.433Z" transform="translate(-1305.74 -884.302)" fill="#efb82a"/>
        <path id="Path_48" data-name="Path 48" d="M1507.947,935.183h7.654a1.717,1.717,0,1,0,0-3.433h-7.654a1.717,1.717,0,1,0,0,3.433Z" transform="translate(-1446.148 -884.302)" fill="#efb82a"/>
      </g>
    </g>
  </g>
</svg>
