<svg xmlns="http://www.w3.org/2000/svg" width="341" height="70.295" viewBox="0 0 341 70.295">
  <g id="Group_4624" data-name="Group 4624" transform="translate(-789.5 -2884.407)">
    <path id="Path_7820" data-name="Path 7820" d="M17.32-27.52a.463.463,0,0,1,.14-.34A.463.463,0,0,1,17.8-28h4.68a.463.463,0,0,1,.34.14.463.463,0,0,1,.14.34V-.48a.463.463,0,0,1-.14.34.463.463,0,0,1-.34.14H17.8a.463.463,0,0,1-.34-.14.463.463,0,0,1-.14-.34V-11.52a.177.177,0,0,0-.2-.2H8.28a.177.177,0,0,0-.2.2V-.48a.463.463,0,0,1-.14.34A.463.463,0,0,1,7.6,0H2.92a.463.463,0,0,1-.34-.14.463.463,0,0,1-.14-.34V-27.52a.463.463,0,0,1,.14-.34A.463.463,0,0,1,2.92-28H7.6a.463.463,0,0,1,.34.14.463.463,0,0,1,.14.34v10.76a.177.177,0,0,0,.2.2h8.84a.177.177,0,0,0,.2-.2ZM36.28.32a9.472,9.472,0,0,1-5.76-1.76,8.792,8.792,0,0,1-3.28-4.8,14.236,14.236,0,0,1-.56-4.08,14.843,14.843,0,0,1,.56-4.24,8.6,8.6,0,0,1,3.32-4.64,9.789,9.789,0,0,1,5.76-1.68,9.37,9.37,0,0,1,5.6,1.66A8.851,8.851,0,0,1,45.2-14.6a13.7,13.7,0,0,1,.64,4.2,14.089,14.089,0,0,1-.56,4.04,8.942,8.942,0,0,1-3.26,4.9A9.311,9.311,0,0,1,36.28.32Zm0-4.84a3.3,3.3,0,0,0,2.24-.8,4.446,4.446,0,0,0,1.32-2.2,11.533,11.533,0,0,0,.32-2.8,10.826,10.826,0,0,0-.32-2.84,4.438,4.438,0,0,0-1.36-2.12,3.4,3.4,0,0,0-2.24-.76,3.382,3.382,0,0,0-2.26.76,4.262,4.262,0,0,0-1.3,2.12,9.527,9.527,0,0,0-.32,2.84,10.893,10.893,0,0,0,.28,2.8,4.379,4.379,0,0,0,1.34,2.2A3.427,3.427,0,0,0,36.28-4.52ZM53.48,0a.527.527,0,0,1-.56-.4L47.16-20.04l-.04-.16q0-.4.44-.4H52.4a.527.527,0,0,1,.56.4L55.84-8.12q.04.12.12.12t.12-.12l3-12.08a.527.527,0,0,1,.56-.4h4.2a.527.527,0,0,1,.56.4L67.56-8.08q.04.12.12.12t.12-.12L70.92-20.2a.527.527,0,0,1,.56-.4l4.8.08a.389.389,0,0,1,.34.14.5.5,0,0,1,.06.38L70.84-.4a.5.5,0,0,1-.52.4H65.48a.527.527,0,0,1-.56-.4L61.84-11.12q-.04-.12-.12-.12t-.12.12L58.88-.4a.527.527,0,0,1-.56.4ZM97.64.32A14.23,14.23,0,0,1,92.04-.7a8.258,8.258,0,0,1-3.7-2.92,7.636,7.636,0,0,1-1.3-4.42v-.88a.463.463,0,0,1,.14-.34.463.463,0,0,1,.34-.14h4.56a.463.463,0,0,1,.34.14.463.463,0,0,1,.14.34v.6a3.269,3.269,0,0,0,1.48,2.7,6.561,6.561,0,0,0,4,1.1,4.729,4.729,0,0,0,3.16-.9,2.823,2.823,0,0,0,1.04-2.22,2.238,2.238,0,0,0-.64-1.62,5.653,5.653,0,0,0-1.74-1.16q-1.1-.5-3.5-1.38a34.275,34.275,0,0,1-4.54-1.88A9.118,9.118,0,0,1,88.7-16.3a6.584,6.584,0,0,1-1.26-4.1,7.221,7.221,0,0,1,1.24-4.2,7.9,7.9,0,0,1,3.44-2.76,12.6,12.6,0,0,1,5.08-.96,12.982,12.982,0,0,1,5.42,1.08,8.835,8.835,0,0,1,3.72,3.02,7.723,7.723,0,0,1,1.34,4.5v.6a.463.463,0,0,1-.14.34.463.463,0,0,1-.34.14h-4.6a.463.463,0,0,1-.34-.14.463.463,0,0,1-.14-.34v-.32a3.634,3.634,0,0,0-1.38-2.86,5.629,5.629,0,0,0-3.78-1.18,4.785,4.785,0,0,0-2.94.8,2.6,2.6,0,0,0-1.06,2.2,2.4,2.4,0,0,0,.62,1.68,5.444,5.444,0,0,0,1.84,1.22q1.22.54,3.78,1.46a47.08,47.08,0,0,1,4.46,1.84,8.886,8.886,0,0,1,2.92,2.38,6.243,6.243,0,0,1,1.3,4.1,7.163,7.163,0,0,1-2.76,5.94A11.749,11.749,0,0,1,97.64.32Zm22.92,0a9.472,9.472,0,0,1-5.76-1.76,8.792,8.792,0,0,1-3.28-4.8,14.236,14.236,0,0,1-.56-4.08,14.843,14.843,0,0,1,.56-4.24,8.6,8.6,0,0,1,3.32-4.64,9.789,9.789,0,0,1,5.76-1.68,9.37,9.37,0,0,1,5.6,1.66,8.851,8.851,0,0,1,3.28,4.62,13.7,13.7,0,0,1,.64,4.2,14.089,14.089,0,0,1-.56,4.04,8.942,8.942,0,0,1-3.26,4.9A9.311,9.311,0,0,1,120.56.32Zm0-4.84a3.3,3.3,0,0,0,2.24-.8,4.446,4.446,0,0,0,1.32-2.2,11.533,11.533,0,0,0,.32-2.8,10.826,10.826,0,0,0-.32-2.84,4.438,4.438,0,0,0-1.36-2.12,3.4,3.4,0,0,0-2.24-.76,3.382,3.382,0,0,0-2.26.76,4.262,4.262,0,0,0-1.3,2.12,9.527,9.527,0,0,0-.32,2.84,10.893,10.893,0,0,0,.28,2.8,4.379,4.379,0,0,0,1.34,2.2A3.427,3.427,0,0,0,120.56-4.52ZM134.24,0a.463.463,0,0,1-.34-.14.463.463,0,0,1-.14-.34V-27.52a.463.463,0,0,1,.14-.34.463.463,0,0,1,.34-.14h4.68a.463.463,0,0,1,.34.14.463.463,0,0,1,.14.34V-.48a.463.463,0,0,1-.14.34.463.463,0,0,1-.34.14Zm17.48-20.88a11.387,11.387,0,0,1,4.64.9,7.658,7.658,0,0,1,3.18,2.46,5.758,5.758,0,0,1,1.14,3.48V-.48a.463.463,0,0,1-.14.34.463.463,0,0,1-.34.14h-4.68a.463.463,0,0,1-.34-.14.463.463,0,0,1-.14-.34V-1.8a.161.161,0,0,0-.08-.16q-.08-.04-.16.08-1.68,2.2-5.4,2.2a7.883,7.883,0,0,1-5.04-1.52,5.37,5.37,0,0,1-1.92-4.48,5.734,5.734,0,0,1,2.16-4.78,9.763,9.763,0,0,1,6.16-1.7h4.08a.177.177,0,0,0,.2-.2v-.88a2.667,2.667,0,0,0-.8-2.06,3.426,3.426,0,0,0-2.4-.74,4.324,4.324,0,0,0-2.06.44,2.054,2.054,0,0,0-1.06,1.24.459.459,0,0,1-.52.4l-4.84-.64q-.48-.08-.44-.36A5.326,5.326,0,0,1,144.26-18a7.809,7.809,0,0,1,3.12-2.12A11.812,11.812,0,0,1,151.72-20.88Zm-.8,17a4.657,4.657,0,0,0,2.92-.92,2.848,2.848,0,0,0,1.2-2.36V-8.6a.177.177,0,0,0-.2-.2h-2.88a5.04,5.04,0,0,0-2.82.68,2.177,2.177,0,0,0-1.02,1.92,2.075,2.075,0,0,0,.76,1.7A3.131,3.131,0,0,0,150.92-3.88Zm23.96-16.96a4.063,4.063,0,0,1,2.28.56.5.5,0,0,1,.24.6l-.84,4.56q-.04.48-.56.28a4.432,4.432,0,0,0-1.4-.2,6.614,6.614,0,0,0-.88.08,3.931,3.931,0,0,0-2.44,1.06,3.269,3.269,0,0,0-1,2.5V-.48a.463.463,0,0,1-.14.34.463.463,0,0,1-.34.14h-4.68a.463.463,0,0,1-.34-.14.463.463,0,0,1-.14-.34v-19.6a.463.463,0,0,1,.14-.34.463.463,0,0,1,.34-.14h4.68a.463.463,0,0,1,.34.14.463.463,0,0,1,.14.34v1.52a.161.161,0,0,0,.08.16.079.079,0,0,0,.12-.04A5.081,5.081,0,0,1,174.88-20.84ZM194.52,0a.527.527,0,0,1-.56-.4l-7.08-27.08-.04-.16q0-.36.44-.36h4.96a.5.5,0,0,1,.52.4l3.8,16.28q.04.16.12.16t.12-.16l3.68-16.24A.513.513,0,0,1,201-28h4.84a.527.527,0,0,1,.56.4l4,16.28q.04.12.12.14t.12-.14l3.68-16.24a.513.513,0,0,1,.52-.44h4.72q.56,0,.44.52L213.44-.4a.527.527,0,0,1-.56.4h-4.76a.5.5,0,0,1-.52-.4l-4.08-17.32q-.04-.16-.12-.16t-.12.16L199.48-.44a.479.479,0,0,1-.52.44Zm35.12.32a9.472,9.472,0,0,1-5.76-1.76,8.792,8.792,0,0,1-3.28-4.8,14.236,14.236,0,0,1-.56-4.08,14.843,14.843,0,0,1,.56-4.24,8.6,8.6,0,0,1,3.32-4.64,9.789,9.789,0,0,1,5.76-1.68,9.37,9.37,0,0,1,5.6,1.66,8.851,8.851,0,0,1,3.28,4.62,13.7,13.7,0,0,1,.64,4.2,14.089,14.089,0,0,1-.56,4.04,8.942,8.942,0,0,1-3.26,4.9A9.311,9.311,0,0,1,229.64.32Zm0-4.84a3.3,3.3,0,0,0,2.24-.8,4.446,4.446,0,0,0,1.32-2.2,11.533,11.533,0,0,0,.32-2.8,10.827,10.827,0,0,0-.32-2.84,4.438,4.438,0,0,0-1.36-2.12,3.4,3.4,0,0,0-2.24-.76,3.382,3.382,0,0,0-2.26.76,4.262,4.262,0,0,0-1.3,2.12,9.527,9.527,0,0,0-.32,2.84,10.893,10.893,0,0,0,.28,2.8,4.379,4.379,0,0,0,1.34,2.2A3.427,3.427,0,0,0,229.64-4.52Zm23.44-16.32a4.063,4.063,0,0,1,2.28.56.5.5,0,0,1,.24.6l-.84,4.56q-.04.48-.56.28a4.432,4.432,0,0,0-1.4-.2,6.614,6.614,0,0,0-.88.08,3.931,3.931,0,0,0-2.44,1.06,3.269,3.269,0,0,0-1,2.5V-.48a.463.463,0,0,1-.14.34A.463.463,0,0,1,248,0h-4.68a.463.463,0,0,1-.34-.14.463.463,0,0,1-.14-.34v-19.6a.463.463,0,0,1,.14-.34.463.463,0,0,1,.34-.14H248a.463.463,0,0,1,.34.14.463.463,0,0,1,.14.34v1.52a.161.161,0,0,0,.08.16.079.079,0,0,0,.12-.04A5.081,5.081,0,0,1,253.08-20.84ZM258.64,0a.463.463,0,0,1-.34-.14.463.463,0,0,1-.14-.34V-27.52a.463.463,0,0,1,.14-.34.463.463,0,0,1,.34-.14h4.68a.463.463,0,0,1,.34.14.463.463,0,0,1,.14.34v13.48q0,.12.08.14a.166.166,0,0,0,.16-.06l5.44-6.32a.841.841,0,0,1,.6-.28h5.32q.4,0,.4.28a.684.684,0,0,1-.12.32l-5.08,6.44a.364.364,0,0,0-.04.28L276.52-.56a.614.614,0,0,1,.08.24q0,.32-.44.32h-4.92a.566.566,0,0,1-.56-.36l-3.96-9.36a.187.187,0,0,0-.14-.1.115.115,0,0,0-.14.06l-2.56,3.2a.614.614,0,0,0-.08.24V-.48a.463.463,0,0,1-.14.34.463.463,0,0,1-.34.14Zm28.6.28a13.147,13.147,0,0,1-4.68-.76,7.135,7.135,0,0,1-3.1-2.12,4.767,4.767,0,0,1-1.1-3.08v-.4a.463.463,0,0,1,.14-.34.463.463,0,0,1,.34-.14h4.44a.463.463,0,0,1,.34.14.463.463,0,0,1,.14.34v.04a1.776,1.776,0,0,0,.98,1.5,4.52,4.52,0,0,0,2.46.62,4.012,4.012,0,0,0,2.2-.54,1.571,1.571,0,0,0,.84-1.34,1.153,1.153,0,0,0-.72-1.08,12.229,12.229,0,0,0-2.36-.76,23.76,23.76,0,0,1-2.96-.92,12.711,12.711,0,0,1-4.08-2.16,4.542,4.542,0,0,1-1.52-3.68,5.586,5.586,0,0,1,2.3-4.7,9.858,9.858,0,0,1,6.1-1.74,11.335,11.335,0,0,1,4.48.82,6.883,6.883,0,0,1,2.98,2.3,5.628,5.628,0,0,1,1.06,3.36.463.463,0,0,1-.14.34.463.463,0,0,1-.34.14h-4.28a.463.463,0,0,1-.34-.14.463.463,0,0,1-.14-.34,1.749,1.749,0,0,0-.9-1.48,4.225,4.225,0,0,0-2.38-.6,4.318,4.318,0,0,0-2.16.48,1.467,1.467,0,0,0-.84,1.32,1.281,1.281,0,0,0,.82,1.2,13.992,13.992,0,0,0,2.74.84q.44.12,1,.26t1.2.34a12.992,12.992,0,0,1,4.48,2.16A4.639,4.639,0,0,1,295.88-6a5.347,5.347,0,0,1-2.34,4.62A10.692,10.692,0,0,1,287.24.28Z" transform="translate(812 2912.728)" fill="#fff"/>
    <path id="Path_7821" data-name="Path 7821" d="M-134.525.2a8.5,8.5,0,0,1-3.337-.6,4.89,4.89,0,0,1-2.175-1.7,4.407,4.407,0,0,1-.762-2.575V-5.4a.221.221,0,0,1,.25-.25h1.825a.221.221,0,0,1,.25.25v.6a2.522,2.522,0,0,0,1.1,2.1,4.94,4.94,0,0,0,3.025.825,4,4,0,0,0,2.6-.725,2.348,2.348,0,0,0,.875-1.9,2.025,2.025,0,0,0-.45-1.325,4.289,4.289,0,0,0-1.312-1.013A25.094,25.094,0,0,0-135.15-7.95a25.389,25.389,0,0,1-2.887-1.275,5.34,5.34,0,0,1-1.762-1.513,3.84,3.84,0,0,1-.7-2.362,4.078,4.078,0,0,1,1.537-3.375A6.5,6.5,0,0,1-134.8-17.7a7.907,7.907,0,0,1,3.25.625,4.994,4.994,0,0,1,2.162,1.75,4.523,4.523,0,0,1,.763,2.6v.5a.221.221,0,0,1-.25.25h-1.875a.221.221,0,0,1-.25-.25V-12.6a2.7,2.7,0,0,0-1.038-2.162,4.347,4.347,0,0,0-2.863-.863,3.934,3.934,0,0,0-2.4.637,2.157,2.157,0,0,0-.85,1.837,2.077,2.077,0,0,0,.425,1.35,3.694,3.694,0,0,0,1.262.938q.838.412,2.563,1.062a28.35,28.35,0,0,1,2.875,1.288,5.489,5.489,0,0,1,1.825,1.55,3.855,3.855,0,0,1,.725,2.387,4.227,4.227,0,0,1-1.613,3.487A6.928,6.928,0,0,1-134.525.2Zm14.2,0a5.585,5.585,0,0,1-3.225-.938,4.916,4.916,0,0,1-1.925-2.613,9.619,9.619,0,0,1-.45-3.05,9.223,9.223,0,0,1,.425-3,4.918,4.918,0,0,1,1.925-2.588,5.672,5.672,0,0,1,3.275-.937,5.327,5.327,0,0,1,3.138.938,5.127,5.127,0,0,1,1.912,2.562,9.02,9.02,0,0,1,.45,3,9.561,9.561,0,0,1-.45,3.075,4.961,4.961,0,0,1-1.9,2.613A5.426,5.426,0,0,1-120.325.2Zm0-2.075a2.836,2.836,0,0,0,1.75-.562A3.079,3.079,0,0,0-117.5-4.025a8.576,8.576,0,0,0,.275-2.35,9.089,9.089,0,0,0-.25-2.325,3.079,3.079,0,0,0-1.075-1.588,2.955,2.955,0,0,0-1.825-.562,2.875,2.875,0,0,0-1.775.562A3.079,3.079,0,0,0-123.225-8.7a7.983,7.983,0,0,0-.275,2.325,8.249,8.249,0,0,0,.275,2.35,2.921,2.921,0,0,0,1.063,1.588A3.009,3.009,0,0,0-120.325-1.875ZM-111.4,0a.221.221,0,0,1-.25-.25v-17a.221.221,0,0,1,.25-.25h1.9a.221.221,0,0,1,.25.25v17a.221.221,0,0,1-.25.25Zm10.275-12.925a6.172,6.172,0,0,1,2.662.538,4.079,4.079,0,0,1,1.75,1.5A3.987,3.987,0,0,1-96.1-8.7V-.25a.221.221,0,0,1-.25.25h-1.9a.221.221,0,0,1-.25-.25v-.9q0-.125-.125-.05a4.344,4.344,0,0,1-1.588,1.038A5.746,5.746,0,0,1-102.3.2a4.859,4.859,0,0,1-3.062-.938,3.363,3.363,0,0,1-1.213-2.838,3.739,3.739,0,0,1,1.363-3.062A5.871,5.871,0,0,1-101.4-7.75h2.8a.088.088,0,0,0,.1-.1v-.675a2.263,2.263,0,0,0-.638-1.713,2.7,2.7,0,0,0-1.938-.612,3.2,3.2,0,0,0-1.712.412,1.7,1.7,0,0,0-.812,1.113.265.265,0,0,1-.3.225l-2.025-.275q-.25-.05-.225-.2a3.4,3.4,0,0,1,1.575-2.413A5.988,5.988,0,0,1-101.125-12.925Zm-.65,11.1a3.839,3.839,0,0,0,2.3-.7A2.108,2.108,0,0,0-98.5-4.3V-5.775a.088.088,0,0,0-.1-.1h-2.35a4.228,4.228,0,0,0-2.35.575,1.813,1.813,0,0,0-.875,1.6,1.613,1.613,0,0,0,.662,1.4A2.917,2.917,0,0,0-101.775-1.825Zm14.5-11.025a3.2,3.2,0,0,1,1.45.325.231.231,0,0,1,.125.3l-.4,1.875q-.025.225-.3.15a2.616,2.616,0,0,0-1-.175l-.35.025a2.8,2.8,0,0,0-1.937.813A2.688,2.688,0,0,0-90.45-7.55v7.3A.221.221,0,0,1-90.7,0h-1.9a.221.221,0,0,1-.25-.25V-12.475a.221.221,0,0,1,.25-.25h1.9a.221.221,0,0,1,.25.25v1.325q0,.075.037.088t.063-.038A3.485,3.485,0,0,1-87.275-12.85ZM-72.65.225a6.881,6.881,0,0,1-3.187-.713,5.148,5.148,0,0,1-2.15-2.025,5.887,5.887,0,0,1-.763-3.013V-12a5.752,5.752,0,0,1,.763-2.988,5.2,5.2,0,0,1,2.15-2A6.881,6.881,0,0,1-72.65-17.7a7.009,7.009,0,0,1,3.175.688,5.128,5.128,0,0,1,2.138,1.937,5.457,5.457,0,0,1,.762,2.9v.025a.27.27,0,0,1-.075.2.24.24,0,0,1-.175.075l-1.9.1q-.25,0-.25-.225v-.075a3.434,3.434,0,0,0-1-2.575,3.667,3.667,0,0,0-2.675-.975,3.711,3.711,0,0,0-2.687.975,3.411,3.411,0,0,0-1.013,2.575v6.65A3.411,3.411,0,0,0-75.337-2.85a3.711,3.711,0,0,0,2.688.975,3.667,3.667,0,0,0,2.675-.975,3.434,3.434,0,0,0,1-2.575v-.05q0-.225.25-.225l1.9.1a.221.221,0,0,1,.25.25,5.522,5.522,0,0,1-.762,2.912A5.184,5.184,0,0,1-69.475-.475,6.9,6.9,0,0,1-72.65.225ZM-53.125-7.95a19.856,19.856,0,0,1,.075,2.3.221.221,0,0,1-.25.25h-7.975a.088.088,0,0,0-.1.1,4.327,4.327,0,0,0,.15,1.3,2.673,2.673,0,0,0,1.112,1.563A3.71,3.71,0,0,0-58-1.875,3.211,3.211,0,0,0-55.15-3.4q.125-.25.325-.075l1.425.95a.237.237,0,0,1,.075.325A4.852,4.852,0,0,1-55.312-.425a6.372,6.372,0,0,1-2.912.65,5.591,5.591,0,0,1-3.075-.8A4.879,4.879,0,0,1-63.175-2.85a9.491,9.491,0,0,1-.6-3.575A10.6,10.6,0,0,1-63.5-9.2a4.778,4.778,0,0,1,1.8-2.725,5.348,5.348,0,0,1,3.275-1,5.1,5.1,0,0,1,3.775,1.262A6.075,6.075,0,0,1-53.125-7.95Zm-5.3-2.9a2.83,2.83,0,0,0-1.775.537,2.652,2.652,0,0,0-.95,1.438,5.844,5.844,0,0,0-.225,1.4.088.088,0,0,0,.1.1h5.725a.088.088,0,0,0,.1-.1A7.319,7.319,0,0,0-55.6-8.7a2.836,2.836,0,0,0-.987-1.563A2.856,2.856,0,0,0-58.425-10.85ZM-49.775,0a.221.221,0,0,1-.25-.25v-17a.221.221,0,0,1,.25-.25h1.9a.221.221,0,0,1,.25.25v17a.221.221,0,0,1-.25.25ZM-43.9,0a.221.221,0,0,1-.25-.25v-17a.221.221,0,0,1,.25-.25H-42a.221.221,0,0,1,.25.25v17A.221.221,0,0,1-42,0Zm16.325.2a8.5,8.5,0,0,1-3.338-.6,4.891,4.891,0,0,1-2.175-1.7,4.407,4.407,0,0,1-.763-2.575V-5.4a.221.221,0,0,1,.25-.25h1.825a.221.221,0,0,1,.25.25v.6a2.522,2.522,0,0,0,1.1,2.1,4.94,4.94,0,0,0,3.025.825A4,4,0,0,0-24.8-2.6a2.348,2.348,0,0,0,.875-1.9,2.025,2.025,0,0,0-.45-1.325,4.289,4.289,0,0,0-1.312-1.013A25.1,25.1,0,0,0-28.2-7.95a25.389,25.389,0,0,1-2.888-1.275,5.34,5.34,0,0,1-1.763-1.513,3.84,3.84,0,0,1-.7-2.362,4.078,4.078,0,0,1,1.538-3.375A6.5,6.5,0,0,1-27.85-17.7a7.907,7.907,0,0,1,3.25.625,4.994,4.994,0,0,1,2.163,1.75,4.523,4.523,0,0,1,.762,2.6v.5a.221.221,0,0,1-.25.25H-23.8a.221.221,0,0,1-.25-.25V-12.6a2.7,2.7,0,0,0-1.038-2.162,4.347,4.347,0,0,0-2.862-.863,3.934,3.934,0,0,0-2.4.637,2.157,2.157,0,0,0-.85,1.837,2.077,2.077,0,0,0,.425,1.35,3.694,3.694,0,0,0,1.263.938q.837.412,2.563,1.062a28.352,28.352,0,0,1,2.875,1.288,5.489,5.489,0,0,1,1.825,1.55,3.855,3.855,0,0,1,.725,2.387,4.227,4.227,0,0,1-1.612,3.487A6.928,6.928,0,0,1-27.575.2Zm8.625,4.775q-.175,0-.175-.25V3.25a.221.221,0,0,1,.25-.25h.05a4.776,4.776,0,0,0,1.575-.25,1.946,1.946,0,0,0,.95-.838A7.739,7.739,0,0,0-15.575.075a.1.1,0,0,0,.013-.088l-.013-.063L-19.75-12.45l-.025-.1q0-.175.225-.175h2.025a.292.292,0,0,1,.3.2L-14.4-3.1a.08.08,0,0,0,.075.05.08.08,0,0,0,.075-.05l2.8-9.425a.292.292,0,0,1,.3-.2h1.975q.275,0,.2.275L-13.525.875a10.677,10.677,0,0,1-1.15,2.563,3.128,3.128,0,0,1-1.5,1.188,7.622,7.622,0,0,1-2.6.35ZM-3,.15A7.138,7.138,0,0,1-5.637-.3,4.124,4.124,0,0,1-7.4-1.538a2.731,2.731,0,0,1-.625-1.737V-3.55a.221.221,0,0,1,.25-.25h1.8a.221.221,0,0,1,.25.25v.125A1.49,1.49,0,0,0-4.962-2.2a3.342,3.342,0,0,0,1.938.525A3.129,3.129,0,0,0-1.2-2.162,1.459,1.459,0,0,0-.5-3.4a1.172,1.172,0,0,0-.65-1.088,10.22,10.22,0,0,0-2.1-.762,19.647,19.647,0,0,1-2.387-.812A4.434,4.434,0,0,1-7.262-7.238,2.884,2.884,0,0,1-7.925-9.2a3.159,3.159,0,0,1,1.313-2.663,5.659,5.659,0,0,1,3.487-.988,6.631,6.631,0,0,1,2.563.463A3.907,3.907,0,0,1,1.15-11.1a3.069,3.069,0,0,1,.6,1.85v.075a.221.221,0,0,1-.25.25H-.25a.221.221,0,0,1-.25-.25V-9.25a1.434,1.434,0,0,0-.713-1.213A3.385,3.385,0,0,0-3.15-10.95a3.359,3.359,0,0,0-1.787.425,1.3,1.3,0,0,0-.687,1.15,1.2,1.2,0,0,0,.662,1.1,10.658,10.658,0,0,0,2.138.8,22.923,22.923,0,0,1,2.412.787,4.3,4.3,0,0,1,1.638,1.15A2.887,2.887,0,0,1,1.9-3.55,3.2,3.2,0,0,1,.563-.85,5.809,5.809,0,0,1-3,.15ZM10.95-11a.221.221,0,0,1-.25.25H8a.088.088,0,0,0-.1.1v6.625a2.044,2.044,0,0,0,.475,1.513A2.046,2.046,0,0,0,9.85-2.05h.725a.221.221,0,0,1,.25.25V-.25a.221.221,0,0,1-.25.25q-.8.05-1.15.05A4.918,4.918,0,0,1,6.563-.637,2.923,2.923,0,0,1,5.6-3.175V-10.65a.088.088,0,0,0-.1-.1H3.975a.221.221,0,0,1-.25-.25v-1.475a.221.221,0,0,1,.25-.25H5.5a.088.088,0,0,0,.1-.1v-2.95a.221.221,0,0,1,.25-.25h1.8a.221.221,0,0,1,.25.25v2.95a.088.088,0,0,0,.1.1h2.7a.221.221,0,0,1,.25.25ZM23.9-7.95a19.856,19.856,0,0,1,.075,2.3.221.221,0,0,1-.25.25H15.75a.088.088,0,0,0-.1.1A4.327,4.327,0,0,0,15.8-4a2.673,2.673,0,0,0,1.112,1.563,3.71,3.71,0,0,0,2.112.562A3.211,3.211,0,0,0,21.875-3.4q.125-.25.325-.075l1.425.95A.237.237,0,0,1,23.7-2.2,4.852,4.852,0,0,1,21.713-.425,6.372,6.372,0,0,1,18.8.225a5.591,5.591,0,0,1-3.075-.8A4.879,4.879,0,0,1,13.85-2.85a9.491,9.491,0,0,1-.6-3.575A10.6,10.6,0,0,1,13.525-9.2a4.778,4.778,0,0,1,1.8-2.725,5.348,5.348,0,0,1,3.275-1,5.1,5.1,0,0,1,3.775,1.262A6.075,6.075,0,0,1,23.9-7.95Zm-5.3-2.9a2.83,2.83,0,0,0-1.775.537,2.652,2.652,0,0,0-.95,1.438,5.844,5.844,0,0,0-.225,1.4.088.088,0,0,0,.1.1h5.725a.088.088,0,0,0,.1-.1,7.319,7.319,0,0,0-.15-1.225,2.836,2.836,0,0,0-.988-1.563A2.856,2.856,0,0,0,18.6-10.85ZM40.225-12.9a3.979,3.979,0,0,1,3,1.137,4.36,4.36,0,0,1,1.1,3.162V-.25a.221.221,0,0,1-.25.25H42.2a.221.221,0,0,1-.25-.25V-8.1a2.8,2.8,0,0,0-.687-1.987,2.392,2.392,0,0,0-1.838-.738,2.537,2.537,0,0,0-1.875.725,2.635,2.635,0,0,0-.725,1.95v7.9a.221.221,0,0,1-.25.25H34.7a.221.221,0,0,1-.25-.25V-8.1a2.8,2.8,0,0,0-.687-1.987,2.392,2.392,0,0,0-1.838-.738,2.413,2.413,0,0,0-1.837.725A2.717,2.717,0,0,0,29.4-8.15v7.9a.221.221,0,0,1-.25.25h-1.9A.221.221,0,0,1,27-.25V-12.475a.221.221,0,0,1,.25-.25h1.9a.221.221,0,0,1,.25.25v.85a.084.084,0,0,0,.038.075q.037.025.087-.025a3.922,3.922,0,0,1,3.2-1.325,4.509,4.509,0,0,1,2.175.488,3.38,3.38,0,0,1,1.4,1.437q.075.1.15,0a3.744,3.744,0,0,1,1.587-1.45A4.98,4.98,0,0,1,40.225-12.9ZM53.2,0a.221.221,0,0,1-.25-.25v-17a.221.221,0,0,1,.25-.25h6.05a6.06,6.06,0,0,1,4.15,1.362A4.6,4.6,0,0,1,64.95-12.5V-5A4.6,4.6,0,0,1,63.4-1.362,6.06,6.06,0,0,1,59.25,0Zm2.15-2.175a.088.088,0,0,0,.1.1h3.9a3.076,3.076,0,0,0,2.313-.888A3.365,3.365,0,0,0,62.55-5.35v-6.8a3.279,3.279,0,0,0-.863-2.387,3.109,3.109,0,0,0-2.337-.887h-3.9a.088.088,0,0,0-.1.1Zm14.2-12.55a1.557,1.557,0,0,1-1.15-.45,1.557,1.557,0,0,1-.45-1.15,1.557,1.557,0,0,1,.45-1.15,1.557,1.557,0,0,1,1.15-.45,1.557,1.557,0,0,1,1.15.45,1.557,1.557,0,0,1,.45,1.15,1.557,1.557,0,0,1-.45,1.15A1.557,1.557,0,0,1,69.55-14.725Zm-1,14.7a.221.221,0,0,1-.25-.25v-12.2a.221.221,0,0,1,.25-.25h1.9a.221.221,0,0,1,.25.25v12.2a.221.221,0,0,1-.25.25Zm10.575-12.9a6.172,6.172,0,0,1,2.662.538,4.079,4.079,0,0,1,1.75,1.5A3.987,3.987,0,0,1,84.15-8.7V-.25A.221.221,0,0,1,83.9,0H82a.221.221,0,0,1-.25-.25v-.9q0-.125-.125-.05A4.344,4.344,0,0,1,80.038-.163,5.746,5.746,0,0,1,77.95.2a4.859,4.859,0,0,1-3.062-.938,3.363,3.363,0,0,1-1.213-2.838,3.739,3.739,0,0,1,1.363-3.062A5.871,5.871,0,0,1,78.85-7.75h2.8a.088.088,0,0,0,.1-.1v-.675a2.263,2.263,0,0,0-.638-1.713,2.7,2.7,0,0,0-1.937-.612,3.2,3.2,0,0,0-1.712.412,1.7,1.7,0,0,0-.812,1.113.265.265,0,0,1-.3.225l-2.025-.275q-.25-.05-.225-.2a3.4,3.4,0,0,1,1.575-2.413A5.988,5.988,0,0,1,79.125-12.925Zm-.65,11.1a3.839,3.839,0,0,0,2.3-.7A2.108,2.108,0,0,0,81.75-4.3V-5.775a.088.088,0,0,0-.1-.1H79.3a4.228,4.228,0,0,0-2.35.575,1.813,1.813,0,0,0-.875,1.6,1.613,1.613,0,0,0,.662,1.4A2.917,2.917,0,0,0,78.475-1.825Zm16.75-10.65a.221.221,0,0,1,.25-.25h1.9a.221.221,0,0,1,.25.25V-.65q0,3.025-1.713,4.325a7.4,7.4,0,0,1-4.587,1.3q-.4,0-1.25-.05a.247.247,0,0,1-.25-.275L89.9,2.925a.24.24,0,0,1,.075-.175.208.208,0,0,1,.2-.05q.35.025,1.025.025a4.81,4.81,0,0,0,3.075-.787,3.284,3.284,0,0,0,.95-2.662v-.45a.084.084,0,0,0-.037-.075q-.038-.025-.088.025A3.827,3.827,0,0,1,92.025,0a5.288,5.288,0,0,1-2.937-.85,4.367,4.367,0,0,1-1.812-2.5A11.238,11.238,0,0,1,86.95-6.4a10.6,10.6,0,0,1,.375-3.2,4.722,4.722,0,0,1,1.688-2.413,4.626,4.626,0,0,1,2.862-.912,4.212,4.212,0,0,1,3.225,1.25q.05.05.088.038a.058.058,0,0,0,.037-.062Zm-.15,8.4a8.406,8.406,0,0,0,.112-.85q.038-.45.037-1.5t-.037-1.488a5.323,5.323,0,0,0-.137-.837,2.647,2.647,0,0,0-.9-1.512,2.629,2.629,0,0,0-1.75-.587,2.629,2.629,0,0,0-1.75.587,3.227,3.227,0,0,0-1,1.512,7.247,7.247,0,0,0-.275,2.325,7.312,7.312,0,0,0,.25,2.35,2.826,2.826,0,0,0,.988,1.513,2.779,2.779,0,0,0,1.787.587,2.655,2.655,0,0,0,1.787-.587A2.674,2.674,0,0,0,95.075-4.075ZM106.55-12.85a3.2,3.2,0,0,1,1.45.325.231.231,0,0,1,.125.3l-.4,1.875q-.025.225-.3.15a2.616,2.616,0,0,0-1-.175l-.35.025a2.8,2.8,0,0,0-1.937.813,2.688,2.688,0,0,0-.762,1.988v7.3a.221.221,0,0,1-.25.25h-1.9a.221.221,0,0,1-.25-.25V-12.475a.221.221,0,0,1,.25-.25h1.9a.221.221,0,0,1,.25.25v1.325q0,.075.037.088t.063-.038A3.485,3.485,0,0,1,106.55-12.85Zm8.25-.075a6.172,6.172,0,0,1,2.662.538,4.079,4.079,0,0,1,1.75,1.5,3.987,3.987,0,0,1,.613,2.188V-.25a.221.221,0,0,1-.25.25h-1.9a.221.221,0,0,1-.25-.25v-.9q0-.125-.125-.05a4.344,4.344,0,0,1-1.588,1.038A5.746,5.746,0,0,1,113.625.2a4.859,4.859,0,0,1-3.062-.938,3.363,3.363,0,0,1-1.213-2.838,3.739,3.739,0,0,1,1.363-3.062,5.871,5.871,0,0,1,3.813-1.112h2.8a.088.088,0,0,0,.1-.1v-.675a2.263,2.263,0,0,0-.638-1.713,2.7,2.7,0,0,0-1.937-.612,3.2,3.2,0,0,0-1.712.412,1.7,1.7,0,0,0-.812,1.113.265.265,0,0,1-.3.225L110-9.375q-.25-.05-.225-.2a3.4,3.4,0,0,1,1.575-2.413A5.988,5.988,0,0,1,114.8-12.925Zm-.65,11.1a3.839,3.839,0,0,0,2.3-.7,2.108,2.108,0,0,0,.975-1.775V-5.775a.088.088,0,0,0-.1-.1h-2.35a4.228,4.228,0,0,0-2.35.575,1.813,1.813,0,0,0-.875,1.6,1.613,1.613,0,0,0,.662,1.4A2.917,2.917,0,0,0,114.15-1.825ZM136.3-12.9a3.979,3.979,0,0,1,3,1.137A4.36,4.36,0,0,1,140.4-8.6V-.25a.221.221,0,0,1-.25.25h-1.875a.221.221,0,0,1-.25-.25V-8.1a2.8,2.8,0,0,0-.687-1.987,2.392,2.392,0,0,0-1.837-.738,2.537,2.537,0,0,0-1.875.725,2.635,2.635,0,0,0-.725,1.95v7.9a.221.221,0,0,1-.25.25h-1.875a.221.221,0,0,1-.25-.25V-8.1a2.8,2.8,0,0,0-.687-1.987A2.392,2.392,0,0,0,128-10.825a2.413,2.413,0,0,0-1.838.725,2.717,2.717,0,0,0-.687,1.95v7.9a.221.221,0,0,1-.25.25h-1.9a.221.221,0,0,1-.25-.25V-12.475a.221.221,0,0,1,.25-.25h1.9a.221.221,0,0,1,.25.25v.85a.084.084,0,0,0,.037.075q.038.025.088-.025a3.922,3.922,0,0,1,3.2-1.325,4.509,4.509,0,0,1,2.175.488,3.38,3.38,0,0,1,1.4,1.437q.075.1.15,0a3.744,3.744,0,0,1,1.588-1.45A4.98,4.98,0,0,1,136.3-12.9Z" transform="translate(960 2949.728)" fill="#fff"/>
    <path id="Line_80" data-name="Line 80" d="M341,1H0V-1H341Z" transform="translate(789.5 2925.228)" fill="#fff"/>
  </g>
</svg>
