<svg xmlns="http://www.w3.org/2000/svg" width="65.734" height="67.899" viewBox="0 0 65.734 67.899">
  <g id="Group_58" data-name="Group 58" transform="translate(-962.557 -901.5)">
    <path id="Icon_metro-sun" data-name="Icon metro-sun" d="M26.766,14.652A11.471,11.471,0,1,0,38.237,26.123,11.485,11.485,0,0,0,26.766,14.652Zm0,19.664a8.193,8.193,0,1,1,8.193-8.193A8.193,8.193,0,0,1,26.766,34.317Zm0-22.942A1.639,1.639,0,0,0,28.4,9.736V6.459a1.639,1.639,0,1,0-3.277,0V9.736A1.639,1.639,0,0,0,26.766,11.375Zm0,29.5a1.639,1.639,0,0,0-1.639,1.639v3.277a1.639,1.639,0,1,0,3.277,0V42.51A1.639,1.639,0,0,0,26.766,40.871ZM39.511,15.694l2.317-2.317a1.639,1.639,0,1,0-2.317-2.317l-2.317,2.317a1.639,1.639,0,0,0,2.317,2.317ZM14.021,36.553,11.7,38.87a1.638,1.638,0,0,0,2.317,2.317l2.317-2.317a1.639,1.639,0,1,0-2.317-2.317Zm-2-10.43a1.639,1.639,0,0,0-1.639-1.639H7.1a1.639,1.639,0,1,0,0,3.277h3.277A1.639,1.639,0,0,0,12.018,26.123ZM46.43,24.484H43.153a1.639,1.639,0,0,0,0,3.277H46.43a1.639,1.639,0,0,0,0-3.277ZM14.019,15.694a1.639,1.639,0,0,0,2.317-2.317l-2.317-2.317A1.639,1.639,0,0,0,11.7,13.376ZM39.513,36.55A1.639,1.639,0,0,0,37.2,38.868l2.317,2.317a1.638,1.638,0,0,0,2.317-2.317Z" transform="translate(980.223 899.431)" fill="#efb800"/>
    <path id="Path_61" data-name="Path 61" d="M1332.522,2716.583a.745.745,0,0,0-.7-.473h-7.307a.373.373,0,0,1-.373-.374v-6.866h-1.5v6.866a.373.373,0,0,1-.373.374h-6.95a.749.749,0,1,0,0,1.5h13.665a.373.373,0,0,1,.255.645l-13.961,13.1a.373.373,0,0,1-.511,0l-13.961-13.1a.373.373,0,0,1,.255-.645h5.594a.75.75,0,0,0,.749-.749V2691.74a23.8,23.8,0,0,1,23.761-23.772h.225a.752.752,0,0,0,.755-.743.749.749,0,0,0-.743-.755c-.08,0-.16,0-.238,0a25.249,25.249,0,0,0-25.257,25.271v24a.374.374,0,0,1-.373.374h-7.307a.749.749,0,0,0-.513,1.295l16.8,15.761a.75.75,0,0,0,1.025,0l16.8-15.761A.745.745,0,0,0,1332.522,2716.583Z" transform="translate(-334.426 -1764.47)" fill="#8d8d8d"/>
    <path id="Path_61_-_Outline" data-name="Path 61 - Outline" d="M1315.03,2733.869a1.244,1.244,0,0,1-.855-.338l-16.8-15.761a1.249,1.249,0,0,1,.855-2.159h7.18v-23.87a25.751,25.751,0,0,1,25.757-25.771h.028c.038,0,.077,0,.116,0h.1a1.249,1.249,0,0,1,1.237,1.26,1.255,1.255,0,0,1-1.255,1.238h-.225a23.3,23.3,0,0,0-23.261,23.272v25.119a1.25,1.25,0,0,1-1.249,1.249h-5.273l13.64,12.8,13.64-12.8h-13.344a1.249,1.249,0,1,1,0-2.5h6.823v-7.239h2.5v7.239h7.18a1.249,1.249,0,0,1,.855,2.159l-16.8,15.761A1.246,1.246,0,0,1,1315.03,2733.869Zm-16.8-17.259a.249.249,0,0,0-.17.43l16.8,15.761a.25.25,0,0,0,.342,0l16.8-15.761a.249.249,0,0,0-.17-.43h-7.307a.873.873,0,0,1-.873-.874v-6.366h-.5v6.366a.874.874,0,0,1-.873.874h-6.95a.249.249,0,1,0,0,.5h13.665a.873.873,0,0,1,.6,1.51l-13.96,13.1a.873.873,0,0,1-1.2,0l-13.961-13.1a.873.873,0,0,1,.6-1.51h5.594a.249.249,0,0,0,.249-.249V2691.74a24.3,24.3,0,0,1,24.261-24.272h.228a.253.253,0,0,0,.252-.247.249.249,0,0,0-.248-.251h-.144l-.1,0a24.749,24.749,0,0,0-24.745,24.771v24a.874.874,0,0,1-.873.874Z" transform="translate(-334.426 -1764.47)" fill="#8d8d8d"/>
  </g>
</svg>
