<?xml version="1.0" encoding="UTF-8"?>
<svg xmlns="http://www.w3.org/2000/svg" width="134.782" height="134.781" viewBox="0 0 134.782 134.781" >
  <g id="Group_2447" data-name="Group 2447" transform="translate(-670 -2570)">
    <ellipse id="Ellipse_44" data-name="Ellipse 44" cx="64.5" cy="63" rx="64.5" ry="63" transform="translate(672 2574)" fill="#fff"/>
    <g id="Group_2444" data-name="Group 2444" transform="translate(2 27)">
      <path id="Path_5543" data-name="Path 5543" d="M228.109,462.851a66.772,66.772,0,0,0,66.772-66.772H161.337A66.773,66.773,0,0,0,228.109,462.851Z" transform="translate(507.663 2213.682)" fill="#fce2e2"/>
      <path id="Path_7643" data-name="Path 7643" d="M9.553-5.207a.134.134,0,0,0-.041.164.165.165,0,0,0,.164.082H20.787a.474.474,0,0,1,.348.143.474.474,0,0,1,.143.349V-.492a.474.474,0,0,1-.143.349A.474.474,0,0,1,20.787,0H2.337a.474.474,0,0,1-.348-.144.474.474,0,0,1-.144-.349V-4.264a.834.834,0,0,1,.246-.615Q4.1-6.847,6.191-9.163t2.624-2.891q1.148-1.353,2.337-2.583,3.731-4.141,3.731-6.15a3.03,3.03,0,0,0-1.025-2.357,3.832,3.832,0,0,0-2.665-.923,3.832,3.832,0,0,0-2.665.923A3.124,3.124,0,0,0,7.5-20.7v1.025a.474.474,0,0,1-.143.348.474.474,0,0,1-.348.144H2.173a.474.474,0,0,1-.348-.144.474.474,0,0,1-.144-.348v-1.927a7.047,7.047,0,0,1,1.394-3.916,8.088,8.088,0,0,1,3.382-2.6,11.941,11.941,0,0,1,4.735-.9,11.1,11.1,0,0,1,5.064,1.086,8.19,8.19,0,0,1,3.321,2.932,7.506,7.506,0,0,1,1.168,4.1,8.153,8.153,0,0,1-.861,3.526A19.5,19.5,0,0,1,17.3-13.489q-1.271,1.6-2.747,3.157t-4.387,4.51ZM42.64-13.9a9.972,9.972,0,0,1,.984,4.715,11.081,11.081,0,0,1-.779,4.264,8.34,8.34,0,0,1-3.321,3.813A9.932,9.932,0,0,1,34.194.287a9.969,9.969,0,0,1-5.453-1.455A8.263,8.263,0,0,1,25.42-5.207a10.52,10.52,0,0,1-.738-4.018V-21.566a6.749,6.749,0,0,1,1.168-3.915,7.529,7.529,0,0,1,3.26-2.624,11.779,11.779,0,0,1,4.8-.922,11.383,11.383,0,0,1,4.715.922A7.4,7.4,0,0,1,41.8-25.523a6.661,6.661,0,0,1,1.127,3.834v1.148a.474.474,0,0,1-.143.348.474.474,0,0,1-.349.144h-4.8a.474.474,0,0,1-.349-.144.474.474,0,0,1-.143-.348v-.369a3.06,3.06,0,0,0-.9-2.255,3.162,3.162,0,0,0-2.337-.9,3.439,3.439,0,0,0-2.48.923,3.121,3.121,0,0,0-.963,2.357v3.854q0,.123.082.143a.17.17,0,0,0,.164-.062,6.649,6.649,0,0,1,4.469-1.435,8.635,8.635,0,0,1,4.407,1.128A7.834,7.834,0,0,1,42.64-13.9Zm-5.412,7.38A5.089,5.089,0,0,0,37.843-9.1a5.088,5.088,0,0,0-.656-2.706,3.315,3.315,0,0,0-2.993-1.64,3.15,3.15,0,0,0-3.075,1.681A5.45,5.45,0,0,0,30.5-9.02a5.369,5.369,0,0,0,.533,2.5,3.2,3.2,0,0,0,3.116,1.8A3.214,3.214,0,0,0,37.228-6.519Zm16.81-9.594a6.5,6.5,0,0,1-3.3-.861,6.45,6.45,0,0,1-2.378-2.358,6.308,6.308,0,0,1-.882-3.259,6.2,6.2,0,0,1,.882-3.239,6.663,6.663,0,0,1,2.378-2.358,6.383,6.383,0,0,1,3.3-.882,6.2,6.2,0,0,1,3.239.882,6.716,6.716,0,0,1,2.357,2.358,6.2,6.2,0,0,1,.882,3.239,6.423,6.423,0,0,1-.861,3.259A6.3,6.3,0,0,1,57.3-16.974,6.423,6.423,0,0,1,54.038-16.113ZM52.439,0q-.287,0-.369-.164a.452.452,0,0,1,.041-.41l15.457-27.8a.678.678,0,0,1,.615-.328h3.034q.287,0,.369.164a.452.452,0,0,1-.041.41L56.129-.328A.678.678,0,0,1,55.514,0Zm1.6-19.475a2.9,2.9,0,0,0,2.153-.9,3.046,3.046,0,0,0,.881-2.214,3,3,0,0,0-.881-2.173,2.9,2.9,0,0,0-2.153-.9,3.01,3.01,0,0,0-2.214.9,2.962,2.962,0,0,0-.9,2.173,3.01,3.01,0,0,0,.9,2.214A3.01,3.01,0,0,0,54.038-19.475ZM70.028.369a6.308,6.308,0,0,1-3.259-.881,6.611,6.611,0,0,1-2.378-2.378,6.308,6.308,0,0,1-.882-3.26,6.2,6.2,0,0,1,.882-3.239,6.5,6.5,0,0,1,2.378-2.337,6.423,6.423,0,0,1,3.259-.861,6.423,6.423,0,0,1,3.26.861,6.5,6.5,0,0,1,2.378,2.337,6.2,6.2,0,0,1,.882,3.239,6.308,6.308,0,0,1-.882,3.26A6.611,6.611,0,0,1,73.288-.512,6.308,6.308,0,0,1,70.028.369Zm0-3.4a2.962,2.962,0,0,0,2.173-.9,3.01,3.01,0,0,0,.9-2.214,2.962,2.962,0,0,0-.9-2.173,2.962,2.962,0,0,0-2.173-.9,3,3,0,0,0-2.173.881,2.943,2.943,0,0,0-.9,2.194,3.046,3.046,0,0,0,.882,2.214A2.943,2.943,0,0,0,70.028-3.034Z" transform="translate(699 2649.234)" fill="#c6001c"/>
      <path id="Path_7644" data-name="Path 7644" d="M-33.166-9.758a.4.4,0,0,1,.182-.042h1.106a.124.124,0,0,1,.14.14V-.14a.124.124,0,0,1-.14.14h-1.064a.124.124,0,0,1-.14-.14V-8.358A.047.047,0,0,0-33.1-8.4a.046.046,0,0,0-.049,0l-1.47.5a.156.156,0,0,1-.07.014q-.084,0-.1-.112l-.056-.8q0-.14.084-.168Zm5.054,8.526a.046.046,0,0,0,0,.049.047.047,0,0,0,.042.021h4.214a.124.124,0,0,1,.14.14V-.14a.124.124,0,0,1-.14.14h-5.866a.124.124,0,0,1-.14-.14V-.994a.229.229,0,0,1,.07-.168q.476-.546,2.184-2.562l.966-1.162a4.49,4.49,0,0,0,1.3-2.408,1.357,1.357,0,0,0-.441-1.057,1.676,1.676,0,0,0-1.169-.4,1.632,1.632,0,0,0-1.162.406,1.347,1.347,0,0,0-.42,1.064v.42a.124.124,0,0,1-.14.14H-29.75a.124.124,0,0,1-.14-.14v-.6a2.386,2.386,0,0,1,.413-1.288,2.494,2.494,0,0,1,1.043-.861,3.528,3.528,0,0,1,1.484-.3,3.464,3.464,0,0,1,1.568.336,2.5,2.5,0,0,1,1.036.924,2.475,2.475,0,0,1,.364,1.33,4.721,4.721,0,0,1-1.26,2.744q-.56.714-1.33,1.6T-28.112-1.232ZM-22.484,0q-.154,0-.112-.154l3.29-9.534a.163.163,0,0,1,.168-.112h1.05q.154,0,.112.154l-3.29,9.534A.163.163,0,0,1-21.434,0Zm7.952-1.232a.046.046,0,0,0,0,.049.047.047,0,0,0,.042.021h4.214a.124.124,0,0,1,.14.14V-.14a.124.124,0,0,1-.14.14h-5.866a.124.124,0,0,1-.14-.14V-.994a.229.229,0,0,1,.07-.168q.476-.546,2.184-2.562l.966-1.162a4.49,4.49,0,0,0,1.3-2.408A1.357,1.357,0,0,0-12.2-8.351a1.676,1.676,0,0,0-1.169-.4,1.632,1.632,0,0,0-1.162.406,1.347,1.347,0,0,0-.42,1.064v.42a.124.124,0,0,1-.14.14H-16.17a.124.124,0,0,1-.14-.14v-.6A2.386,2.386,0,0,1-15.9-8.75a2.494,2.494,0,0,1,1.043-.861,3.528,3.528,0,0,1,1.484-.3,3.464,3.464,0,0,1,1.568.336,2.5,2.5,0,0,1,1.036.924,2.475,2.475,0,0,1,.364,1.33,4.721,4.721,0,0,1-1.26,2.744q-.56.714-1.33,1.6T-14.532-1.232ZM-5.474.14a3.1,3.1,0,0,1-2.247-.8,2.869,2.869,0,0,1-.833-2.163V-6.972a2.845,2.845,0,0,1,.833-2.156,3.113,3.113,0,0,1,2.247-.8,3.163,3.163,0,0,1,2.261.8,2.82,2.82,0,0,1,.847,2.156v4.144A2.843,2.843,0,0,1-3.213-.665,3.146,3.146,0,0,1-5.474.14Zm0-1.162a1.755,1.755,0,0,0,1.288-.469A1.68,1.68,0,0,0-3.71-2.744V-7.028a1.68,1.68,0,0,0-.476-1.253A1.755,1.755,0,0,0-5.474-8.75a1.717,1.717,0,0,0-1.26.469A1.68,1.68,0,0,0-7.21-7.028v4.284a1.68,1.68,0,0,0,.476,1.253A1.717,1.717,0,0,0-5.474-1.022ZM-.98,0q-.154,0-.112-.154L2.2-9.688A.163.163,0,0,1,2.366-9.8h1.05q.154,0,.112.154L.238-.112A.163.163,0,0,1,.07,0ZM6.972-1.232a.046.046,0,0,0,0,.049.047.047,0,0,0,.042.021h4.214a.124.124,0,0,1,.14.14V-.14a.124.124,0,0,1-.14.14H5.362a.124.124,0,0,1-.14-.14V-.994a.229.229,0,0,1,.07-.168q.476-.546,2.184-2.562l.966-1.162a4.49,4.49,0,0,0,1.3-2.408A1.357,1.357,0,0,0,9.3-8.351a1.676,1.676,0,0,0-1.169-.4,1.632,1.632,0,0,0-1.162.406,1.347,1.347,0,0,0-.42,1.064v.42a.124.124,0,0,1-.14.14H5.334a.124.124,0,0,1-.14-.14v-.6A2.386,2.386,0,0,1,5.607-8.75,2.494,2.494,0,0,1,6.65-9.611a3.528,3.528,0,0,1,1.484-.3A3.464,3.464,0,0,1,9.7-9.576a2.5,2.5,0,0,1,1.036.924,2.475,2.475,0,0,1,.364,1.33,4.721,4.721,0,0,1-1.26,2.744q-.56.714-1.33,1.6T6.972-1.232ZM16.03.14a3.1,3.1,0,0,1-2.247-.8,2.869,2.869,0,0,1-.833-2.163V-6.972a2.845,2.845,0,0,1,.833-2.156,3.113,3.113,0,0,1,2.247-.8,3.163,3.163,0,0,1,2.261.8,2.82,2.82,0,0,1,.847,2.156v4.144a2.843,2.843,0,0,1-.847,2.163A3.146,3.146,0,0,1,16.03.14Zm0-1.162a1.755,1.755,0,0,0,1.288-.469,1.68,1.68,0,0,0,.476-1.253V-7.028a1.68,1.68,0,0,0-.476-1.253A1.755,1.755,0,0,0,16.03-8.75a1.717,1.717,0,0,0-1.26.469,1.68,1.68,0,0,0-.476,1.253v4.284a1.68,1.68,0,0,0,.476,1.253A1.717,1.717,0,0,0,16.03-1.022Zm6.482-.21a.046.046,0,0,0,0,.049.047.047,0,0,0,.042.021h4.214a.124.124,0,0,1,.14.14V-.14a.124.124,0,0,1-.14.14H20.9a.124.124,0,0,1-.14-.14V-.994a.229.229,0,0,1,.07-.168q.476-.546,2.184-2.562l.966-1.162a4.49,4.49,0,0,0,1.3-2.408,1.357,1.357,0,0,0-.441-1.057,1.676,1.676,0,0,0-1.169-.4,1.632,1.632,0,0,0-1.162.406,1.347,1.347,0,0,0-.42,1.064v.42a.124.124,0,0,1-.14.14H20.874a.124.124,0,0,1-.14-.14v-.6a2.386,2.386,0,0,1,.413-1.288,2.494,2.494,0,0,1,1.043-.861,3.528,3.528,0,0,1,1.484-.3,3.464,3.464,0,0,1,1.568.336,2.5,2.5,0,0,1,1.036.924,2.475,2.475,0,0,1,.364,1.33,4.721,4.721,0,0,1-1.26,2.744q-.56.714-1.33,1.6T22.512-1.232ZM31.57.14a3.1,3.1,0,0,1-2.247-.8,2.869,2.869,0,0,1-.833-2.163V-6.972a2.845,2.845,0,0,1,.833-2.156,3.113,3.113,0,0,1,2.247-.8,3.163,3.163,0,0,1,2.261.8,2.82,2.82,0,0,1,.847,2.156v4.144a2.843,2.843,0,0,1-.847,2.163A3.146,3.146,0,0,1,31.57.14Zm0-1.162a1.755,1.755,0,0,0,1.288-.469,1.68,1.68,0,0,0,.476-1.253V-7.028a1.68,1.68,0,0,0-.476-1.253A1.755,1.755,0,0,0,31.57-8.75a1.717,1.717,0,0,0-1.26.469,1.68,1.68,0,0,0-.476,1.253v4.284a1.68,1.68,0,0,0,.476,1.253A1.717,1.717,0,0,0,31.57-1.022ZM-37.282,11.3a.124.124,0,0,1-.14-.14v-.882a.124.124,0,0,1,.14-.14h4.326a.124.124,0,0,1,.14.14v.882a.124.124,0,0,1-.14.14Zm10.15-6.062A.4.4,0,0,1-26.95,5.2h1.106a.124.124,0,0,1,.14.14v9.52a.124.124,0,0,1-.14.14h-1.064a.124.124,0,0,1-.14-.14V6.642a.047.047,0,0,0-.021-.042.046.046,0,0,0-.049,0l-1.47.5a.156.156,0,0,1-.07.014q-.084,0-.1-.112l-.056-.8q0-.14.084-.168Zm5.054,8.526a.046.046,0,0,0,0,.049.047.047,0,0,0,.042.021h4.214a.124.124,0,0,1,.14.14v.882a.124.124,0,0,1-.14.14h-5.866a.124.124,0,0,1-.14-.14v-.854a.229.229,0,0,1,.07-.168q.476-.546,2.184-2.562l.966-1.162a4.49,4.49,0,0,0,1.3-2.408,1.357,1.357,0,0,0-.441-1.057,1.676,1.676,0,0,0-1.169-.4,1.632,1.632,0,0,0-1.162.406A1.347,1.347,0,0,0-22.5,7.72v.42a.124.124,0,0,1-.14.14h-1.078a.124.124,0,0,1-.14-.14v-.6a2.386,2.386,0,0,1,.413-1.288A2.494,2.494,0,0,1-22.4,5.389a3.528,3.528,0,0,1,1.484-.3,3.464,3.464,0,0,1,1.568.336,2.5,2.5,0,0,1,1.036.924,2.475,2.475,0,0,1,.364,1.33,4.721,4.721,0,0,1-1.26,2.744q-.56.714-1.33,1.6T-22.078,13.768ZM-16.45,15q-.154,0-.112-.154l3.29-9.534A.163.163,0,0,1-13.1,5.2h1.05q.154,0,.112.154l-3.29,9.534A.163.163,0,0,1-15.4,15Zm11.7-4.648a4.161,4.161,0,0,1,.28,1.582,4.068,4.068,0,0,1-.224,1.372,2.576,2.576,0,0,1-1.022,1.337,3.067,3.067,0,0,1-1.722.469,2.948,2.948,0,0,1-1.743-.518,2.715,2.715,0,0,1-1.029-1.4,3.566,3.566,0,0,1-.182-1.12.124.124,0,0,1,.14-.14H-9.17a.124.124,0,0,1,.14.14,2.889,2.889,0,0,0,.112.742,1.539,1.539,0,0,0,.525.826,1.486,1.486,0,0,0,.959.308,1.4,1.4,0,0,0,1.428-.966,2.775,2.775,0,0,0,.182-1.092,3.408,3.408,0,0,0-.224-1.274,1.41,1.41,0,0,0-1.4-.868,1.289,1.289,0,0,0-.6.21.215.215,0,0,1-.084.028.127.127,0,0,1-.112-.07l-.532-.728a.226.226,0,0,1-.028-.1.173.173,0,0,1,.042-.1L-6.37,6.432q.042-.07-.028-.07h-3.724a.124.124,0,0,1-.14-.14V5.34a.124.124,0,0,1,.14-.14H-4.69a.124.124,0,0,1,.14.14V6.348a.308.308,0,0,1-.07.168L-6.748,8.84q-.028.028-.014.049a.105.105,0,0,0,.056.035,2.327,2.327,0,0,1,1.2.441A2.4,2.4,0,0,1-4.746,10.352Zm3.374-5.11A.4.4,0,0,1-1.19,5.2H-.084a.124.124,0,0,1,.14.14v9.52a.124.124,0,0,1-.14.14H-1.148a.124.124,0,0,1-.14-.14V6.642A.047.047,0,0,0-1.309,6.6a.046.046,0,0,0-.049,0l-1.47.5a.156.156,0,0,1-.07.014q-.084,0-.1-.112l-.056-.8q0-.14.084-.168ZM1.694,15q-.154,0-.112-.154l3.29-9.534A.163.163,0,0,1,5.04,5.2H6.09q.154,0,.112.154l-3.29,9.534A.163.163,0,0,1,2.744,15Zm7.952-1.232a.046.046,0,0,0,0,.049.047.047,0,0,0,.042.021H13.9a.124.124,0,0,1,.14.14v.882a.124.124,0,0,1-.14.14H8.036a.124.124,0,0,1-.14-.14v-.854a.229.229,0,0,1,.07-.168q.476-.546,2.184-2.562l.966-1.162a4.49,4.49,0,0,0,1.3-2.408,1.357,1.357,0,0,0-.441-1.057,1.676,1.676,0,0,0-1.169-.4,1.632,1.632,0,0,0-1.162.406,1.347,1.347,0,0,0-.42,1.064v.42a.124.124,0,0,1-.14.14H8.008a.124.124,0,0,1-.14-.14v-.6A2.386,2.386,0,0,1,8.281,6.25a2.5,2.5,0,0,1,1.043-.861,3.528,3.528,0,0,1,1.484-.3,3.464,3.464,0,0,1,1.568.336,2.438,2.438,0,0,1,1.4,2.254,4.721,4.721,0,0,1-1.26,2.744q-.56.714-1.33,1.6T9.646,13.768ZM18.7,15.14a3.1,3.1,0,0,1-2.247-.805,2.869,2.869,0,0,1-.833-2.163V8.028a2.845,2.845,0,0,1,.833-2.156,3.113,3.113,0,0,1,2.247-.8,3.163,3.163,0,0,1,2.261.8,2.82,2.82,0,0,1,.847,2.156v4.144a2.843,2.843,0,0,1-.847,2.163A3.146,3.146,0,0,1,18.7,15.14Zm0-1.162a1.755,1.755,0,0,0,1.288-.469,1.68,1.68,0,0,0,.476-1.253V7.972a1.68,1.68,0,0,0-.476-1.253A1.755,1.755,0,0,0,18.7,6.25a1.717,1.717,0,0,0-1.26.469,1.68,1.68,0,0,0-.476,1.253v4.284a1.68,1.68,0,0,0,.476,1.253A1.717,1.717,0,0,0,18.7,13.978Zm6.482-.21a.046.046,0,0,0,0,.049.047.047,0,0,0,.042.021h4.214a.124.124,0,0,1,.14.14v.882a.124.124,0,0,1-.14.14H23.576a.124.124,0,0,1-.14-.14v-.854a.229.229,0,0,1,.07-.168q.476-.546,2.184-2.562l.966-1.162a4.49,4.49,0,0,0,1.3-2.408,1.357,1.357,0,0,0-.441-1.057,1.676,1.676,0,0,0-1.169-.4,1.632,1.632,0,0,0-1.162.406,1.347,1.347,0,0,0-.42,1.064v.42a.124.124,0,0,1-.14.14H23.548a.124.124,0,0,1-.14-.14v-.6a2.386,2.386,0,0,1,.413-1.288,2.494,2.494,0,0,1,1.043-.861,3.528,3.528,0,0,1,1.484-.3,3.464,3.464,0,0,1,1.568.336,2.438,2.438,0,0,1,1.4,2.254,4.721,4.721,0,0,1-1.26,2.744q-.56.714-1.33,1.6T25.186,13.768Zm7.616,0a.046.046,0,0,0,0,.049.047.047,0,0,0,.042.021h4.214a.124.124,0,0,1,.14.14v.882a.124.124,0,0,1-.14.14H31.192a.124.124,0,0,1-.14-.14v-.854a.229.229,0,0,1,.07-.168q.476-.546,2.184-2.562l.966-1.162a4.49,4.49,0,0,0,1.3-2.408,1.357,1.357,0,0,0-.441-1.057,1.676,1.676,0,0,0-1.169-.4,1.632,1.632,0,0,0-1.162.406,1.347,1.347,0,0,0-.42,1.064v.42a.124.124,0,0,1-.14.14H31.164a.124.124,0,0,1-.14-.14v-.6a2.386,2.386,0,0,1,.413-1.288,2.494,2.494,0,0,1,1.043-.861,3.528,3.528,0,0,1,1.484-.3,3.464,3.464,0,0,1,1.568.336,2.438,2.438,0,0,1,1.4,2.254,4.721,4.721,0,0,1-1.26,2.744q-.56.714-1.33,1.6T32.8,13.768Z" transform="translate(735 2579.604)" fill="#1a1818"/>
      <g id="Group_2440" data-name="Group 2440" transform="translate(668 2543)">
        <path id="Path_5544" data-name="Path 5544" d="M295.782,427.212a67.466,67.466,0,0,0-67.39-67.391h0a67.39,67.39,0,1,0,58.764,100.324l.035.018A67.43,67.43,0,0,0,295.782,427.212Zm-13.876,30.03a61.385,61.385,0,1,1-53.514-91.431h0a61.419,61.419,0,0,1,53.571,91.42l.53.3C282.292,457.441,282.1,457.344,281.906,457.243Z" transform="translate(-161.001 -359.822)" fill="#f18085"/>
        <circle id="Ellipse_42" data-name="Ellipse 42" cx="67.391" cy="67.391" r="67.391" transform="translate(0)" fill="none"/>
        <path id="Path_5545" data-name="Path 5545" d="M264.976,426.583A67.462,67.462,0,0,0,197.6,359.822v5.99a61.464,61.464,0,0,1,61.384,60.771Z" transform="translate(-130.209 -359.822)" fill="#c6001c"/>
      </g>
    </g>
  </g>
</svg>
