<svg xmlns="http://www.w3.org/2000/svg" width="23.139" height="23.14" viewBox="0 0 23.139 23.14">
  <g id="Group_3172" data-name="Group 3172" transform="translate(1 1)">
    <path id="Path_33" data-name="Path 33" d="M13.57,25.139A11.57,11.57,0,0,1,5.389,5.389,11.57,11.57,0,1,1,21.751,21.751,11.494,11.494,0,0,1,13.57,25.139ZM13.57,4a9.57,9.57,0,1,0,9.57,9.57A9.581,9.581,0,0,0,13.57,4Z" transform="translate(-3 -3)" fill="#004c97"/>
    <g id="Group_59" data-name="Group 59" transform="translate(6.342 6.342)">
      <path id="Path_34" data-name="Path 34" d="M18,21.456a1,1,0,0,1-.707-1.707l3.521-3.521-3.521-3.521a1,1,0,1,1,1.414-1.414l4.228,4.228a1,1,0,0,1,0,1.414l-4.228,4.228A1,1,0,0,1,18,21.456Z" transform="translate(-13.772 -12)" fill="#004c97"/>
      <path id="Path_35" data-name="Path 35" d="M20.456,19H12a1,1,0,0,1,0-2h8.456a1,1,0,0,1,0,2Z" transform="translate(-12 -13.772)" fill="#004c97"/>
    </g>
  </g>
</svg>
