<svg xmlns="http://www.w3.org/2000/svg" width="13.11" height="13.086" viewBox="0 0 13.11 13.086">
  <path id="Path_181" data-name="Path 181" d="M218.792,17.961h-2.715V9.218H218.8v8.743Zm-1.358-9.937a1.574,1.574,0,1,1,1.574-1.574A1.575,1.575,0,0,1,217.434,8.024Zm11.536,9.937h-2.715V13.708c0-1.015-.02-2.319-1.411-2.319-1.415,0-1.631,1.1-1.631,2.245v4.327H220.5V9.218H223.1v1.194h.037A2.86,2.86,0,0,1,225.711,9c2.748,0,3.259,1.811,3.259,4.166Z" transform="translate(-215.86 -4.875)" fill="#fff"/>
</svg>
