<svg xmlns="http://www.w3.org/2000/svg" width="176" height="164" viewBox="0 0 176 164">
  <g id="Group_3733" data-name="Group 3733" transform="translate(-512 -2414)">
    <rect id="Rectangle_817" data-name="Rectangle 817" width="176" height="164" transform="translate(512 2414)" fill="#fff"/>
    <g id="Group_40" data-name="Group 40" transform="translate(347.105 286)">
      <g id="Group_25" data-name="Group 25" transform="translate(-618.875 1746.521)">
        <g id="Group_23" data-name="Group 23">
          <g id="Group_21" data-name="Group 21">
            <g id="Group_19" data-name="Group 19">
              <path id="Path_49" data-name="Path 49" d="M894.947,540.275H880.108a2,2,0,0,1-1.924-1.456l-2.349-8.317a60.925,60.925,0,0,1-23.641-.1l-2.378,8.418a2,2,0,0,1-1.924,1.456H833.055a2,2,0,0,1-2-2.1l.8-16.395a41.984,41.984,0,0,1-12.3-13.289h-7.8a2,2,0,0,1-2-2V485.758a2,2,0,0,1,2-2h4.379a36.741,36.741,0,0,1,9.339-16.234,119.193,119.193,0,0,0-4.406-14.912,2,2,0,0,1,.794-2.437c.432-.271,10.491-6.354,23.627,5.075a59.141,59.141,0,0,1,18.771-3c27.118,0,49.179,17.8,49.179,39.68,0,11.709-6.287,22.666-17.3,30.222l.788,16.024a2,2,0,0,1-2,2.1Zm-13.325-4h11.225l-.741-15.054a2,2,0,0,1,.906-1.774c10.448-6.818,16.441-16.847,16.441-27.515,0-19.674-20.267-35.68-45.179-35.68a54.994,54.994,0,0,0-18.557,3.156,2,2,0,0,1-2.029-.413c-8.545-7.88-15.342-7-18.209-6.063a139.7,139.7,0,0,1,4.158,14.764,2,2,0,0,1-.549,1.88,32.623,32.623,0,0,0-9.393,16.586,2,2,0,0,1-1.959,1.6H813.77v16.736h6.981a2,2,0,0,1,1.77,1.07A37.881,37.881,0,0,0,835.03,519.11a2,2,0,0,1,.882,1.757l-.757,15.408h11.223l2.48-8.778a2,2,0,0,1,2.389-1.4,56.877,56.877,0,0,0,25.56.113,2,2,0,0,1,2.369,1.406Z" fill="#004c97"/>
            </g>
            <g id="Group_20" data-name="Group 20">
              <path id="Path_50" data-name="Path 50" d="M913.187,490.417c-1.05,0-1.738-.044-1.874-.054a2,2,0,0,1-1.854-2.133,2.021,2.021,0,0,1,2.132-1.857c.15.01,15.172.943,16.962-7.04.505-2.254.592-5.2-1.86-6.424-1.68-.839-3.637-.414-4.193.237a2.5,2.5,0,0,0-.615,2.626c.261.394,1.09.18,1.433.07a2,2,0,1,1,1.219,3.81c-2.516.8-4.754.184-5.982-1.663-1.382-2.077-1-5.206.9-7.44,1.891-2.214,5.937-2.76,9.025-1.217,1.734.866,5.59,3.66,3.973,10.876C930.373,489.5,917.988,490.417,913.187,490.417Z" fill="#004c97"/>
            </g>
          </g>
          <g id="Group_22" data-name="Group 22">
            <path id="Path_51" data-name="Path 51" d="M891.447,481.247c-10.724-14.538-33.559-12.533-33.791-12.511l-.381-3.982c1.028-.1,25.336-2.224,37.391,14.118Z" fill="#004c97"/>
          </g>
        </g>
        <g id="Group_24" data-name="Group 24">
          <path id="Path_52" data-name="Path 52" d="M832.955,483.517a2,2,0,0,1-.011-4h.011a2,2,0,0,1,0,4Z" fill="#004c97"/>
        </g>
      </g>
      <g id="Group_39" data-name="Group 39" transform="translate(148.952 -7.736)">
        <g id="Group_38" data-name="Group 38">
          <path id="Path_53" data-name="Path 53" d="M2311.559,1680.828a7.252,7.252,0,0,0,3.156,1.473l.025,1.471a1.285,1.285,0,0,0,2.57-.044l-.022-1.33a7.377,7.377,0,0,0,3.972-1.737,6.11,6.11,0,0,0,1.5-1.962,5.427,5.427,0,0,0,.54-2.457,5.924,5.924,0,0,0-3.2-5.028,10.051,10.051,0,0,0-2.816-.963v-5.872a4.008,4.008,0,0,1,1.611.781,2.7,2.7,0,0,1,1.065,2.036,1.285,1.285,0,0,0,2.571-.045,5.226,5.226,0,0,0-2.009-3.982,6.648,6.648,0,0,0-3.156-1.394l-.024-1.4a1.285,1.285,0,1,0-2.571.044l.024,1.4a6.643,6.643,0,0,0-3.106,1.5,5.12,5.12,0,0,0,.057,7.964l.01.008a6.2,6.2,0,0,0,3.039,1.205v7.178a3.648,3.648,0,0,1-2.865-3.238,1.285,1.285,0,1,0-2.571.044,5.431,5.431,0,0,0,.624,2.437A6.116,6.116,0,0,0,2311.559,1680.828Zm5.729-7.942a7.031,7.031,0,0,1,1.564.574,3.388,3.388,0,0,1,1.882,2.827c.029,1.7-1.453,3.146-3.446,3.512Zm-3.882-3.569a2.555,2.555,0,0,1-.019-4.063,3.96,3.96,0,0,1,1.412-.786v5.413A3.279,3.279,0,0,1,2313.406,1669.317Z" transform="translate(-2212.855 511.838)" fill="#004c97"/>
          <path id="Path_54" data-name="Path 54" d="M2257.99,1663.258a18.611,18.611,0,1,0-4-5.931A18.6,18.6,0,0,0,2257.99,1663.258Zm13.2-29.5a16.3,16.3,0,1,1-16.3,16.3A16.323,16.323,0,0,1,2271.186,1633.758Z" transform="translate(-2167.707 533.85)" fill="#efb82a"/>
          <path id="Path_55" data-name="Path 55" d="M2338.7,1565.594a1.179,1.179,0,0,0,1.179-1.179v-5.958a1.179,1.179,0,1,0-2.358,0v5.958A1.179,1.179,0,0,0,2338.7,1565.594Z" transform="translate(-2235.222 592.727)" fill="#004c97"/>
          <path id="Path_56" data-name="Path 56" d="M2338.7,1530.411a1.179,1.179,0,0,0,1.179-1.179v-1.252a1.179,1.179,0,0,0-2.358,0v1.252A1.179,1.179,0,0,0,2338.7,1530.411Z" transform="translate(-2235.222 616.935)" fill="#004c97"/>
          <path id="Path_57" data-name="Path 57" d="M2280.088,1589.229a1.179,1.179,0,0,0,1.179-1.179v-5.958a1.179,1.179,0,1,0-2.358,0v5.958A1.179,1.179,0,0,0,2280.088,1589.229Z" transform="translate(-2188.665 573.953)" fill="#004c97"/>
          <path id="Path_58" data-name="Path 58" d="M2280.088,1554.046a1.179,1.179,0,0,0,1.179-1.179v-1.252a1.179,1.179,0,1,0-2.358,0v1.252A1.179,1.179,0,0,0,2280.088,1554.046Z" transform="translate(-2188.665 598.161)" fill="#004c97"/>
          <path id="Path_59" data-name="Path 59" d="M2397.317,1589.229a1.179,1.179,0,0,0,1.179-1.179v-5.958a1.179,1.179,0,0,0-2.358,0v5.958A1.179,1.179,0,0,0,2397.317,1589.229Z" transform="translate(-2281.781 573.953)" fill="#004c97"/>
          <path id="Path_60" data-name="Path 60" d="M2397.317,1554.046a1.179,1.179,0,0,0,1.179-1.179v-1.252a1.179,1.179,0,0,0-2.358,0v1.252A1.179,1.179,0,0,0,2397.317,1554.046Z" transform="translate(-2281.781 598.161)" fill="#004c97"/>
        </g>
      </g>
    </g>
  </g>
</svg>
