<svg xmlns="http://www.w3.org/2000/svg" width="176" height="164" viewBox="0 0 176 164">
  <g id="Group_3732" data-name="Group 3732" transform="translate(-169 -2414)">
    <rect id="Rectangle_819" data-name="Rectangle 819" width="176" height="164" transform="translate(169 2414)" fill="#fff"/>
    <g id="Group_16" data-name="Group 16" transform="translate(-2811.543 -258.804)">
      <path id="Path_36" data-name="Path 36" d="M3128.121,3002a9.012,9.012,0,0,0-12.486-2.5l-11.468,7.682a1.848,1.848,0,1,0,2.049,3.077l11.47-7.682a5.307,5.307,0,0,1,5.888,8.831l-34.582,23.09a5.259,5.259,0,0,1-3.619.846.554.554,0,0,1-.075-.015l-33.3-9.531a1.966,1.966,0,0,0-.216-.055,9.122,9.122,0,0,0-1.637-.149,8.954,8.954,0,0,0-4.979,1.515l-1.982,1.323a.509.509,0,0,1-.7-.141l-12.819-19.228a.508.508,0,0,1,.139-.7l15.407-10.332a10.725,10.725,0,0,1,5.963-1.813,10.912,10.912,0,0,1,1.974.181.458.458,0,0,1,.063.015l35.859,11.5.042.013,0,0a5.3,5.3,0,0,1,3.48,6.509,5.121,5.121,0,0,1-2.538,3.072,5.4,5.4,0,0,1-4.052.386l-.035-.009-.034-.011-17.508-4.64a1.872,1.872,0,0,0-.476-.062,1.848,1.848,0,0,0-.472,3.635l17.5,4.638h0l.04.01a9.1,9.1,0,0,0,6.766-.678,8.787,8.787,0,0,0,4.352-5.278,9.012,9.012,0,0,0-5.915-11.1l-.025-.009-35.8-11.483-.03-.01a1.95,1.95,0,0,0-.319-.1,14.661,14.661,0,0,0-2.873-.286,14.409,14.409,0,0,0-8.013,2.441l-15.4,10.326a.508.508,0,0,1-.705-.14l-1.363-2.045a1.849,1.849,0,0,0-2.563-.512l-15.748,10.5a1.849,1.849,0,0,0-.513,2.564l12.857,19.284a1.848,1.848,0,1,0,3.076-2.05l-11.549-17.324a.508.508,0,0,1,.141-.7l11.826-7.884a.509.509,0,0,1,.7.141L3042.1,3034.4a.507.507,0,0,1-.141.7l-11.826,7.884a.508.508,0,0,1-.7-.141l-.568-.852a1.849,1.849,0,1,0-3.076,2.051l1.875,2.813a1.85,1.85,0,0,0,2.564.512l15.748-10.5a1.853,1.853,0,0,0,.513-2.564l-1.4-2.093a.507.507,0,0,1,.14-.7l1.983-1.324a5.308,5.308,0,0,1,3.8-.818.5.5,0,0,1,.057.013l33.369,9.549.013,0c.031.008.062.013.094.02l.106.024.026,0a8.948,8.948,0,0,0,1.368.1h0a8.958,8.958,0,0,0,4.994-1.512l34.582-23.09a9.016,9.016,0,0,0,2.5-12.487Z" transform="translate(0 -216.788)" fill="#004c97"/>
      <path id="Path_37" data-name="Path 37" d="M3284.865,2788.977a13.763,13.763,0,0,0,5.961,2.781l.117.023a.509.509,0,0,1,.409.49l.052,3.034a1.894,1.894,0,0,0,1.884,1.853h.035a1.886,1.886,0,0,0,1.852-1.918l-.048-2.768a.507.507,0,0,1,.446-.513l.135-.016a13.89,13.89,0,0,0,7.508-3.28,11.445,11.445,0,0,0,2.818-3.673,10.083,10.083,0,0,0,1.006-4.568,11.077,11.077,0,0,0-6-9.389,19.334,19.334,0,0,0-5.382-1.835l-.118-.023a.508.508,0,0,1-.411-.5v-11.939a.506.506,0,0,1,.624-.494l.186.044a8.639,8.639,0,0,1,3.453,1.677,5.992,5.992,0,0,1,2.351,4.527,1.9,1.9,0,0,0,1.893,1.854h.027a1.888,1.888,0,0,0,1.852-1.919,9.7,9.7,0,0,0-3.736-7.384,12.519,12.519,0,0,0-5.934-2.618l-.125-.021a.508.508,0,0,1-.426-.492l-.05-2.895a1.9,1.9,0,0,0-1.893-1.854h-.027a1.89,1.89,0,0,0-1.852,1.919l.05,2.894a.509.509,0,0,1-.412.507l-.123.024a12.52,12.52,0,0,0-5.841,2.82,9.48,9.48,0,0,0,.1,14.761l.028.023a11.466,11.466,0,0,0,5.692,2.236l.127.02a.508.508,0,0,1,.428.5v14.539a.507.507,0,0,1-.652.487l-.193-.057a9.341,9.341,0,0,1-4.344-2.646,6.674,6.674,0,0,1-1.8-4.384,1.9,1.9,0,0,0-1.892-1.854h-.027a1.887,1.887,0,0,0-1.853,1.919,10.1,10.1,0,0,0,1.162,4.531A11.44,11.44,0,0,0,3284.865,2788.977Zm10.265-15.4a.508.508,0,0,1,.633-.493l.188.048a14.359,14.359,0,0,1,3.256,1.2,7.355,7.355,0,0,1,4.062,6.159c.062,3.615-3.034,6.815-7.36,7.611l-.179.032a.523.523,0,0,1-.091.008.506.506,0,0,1-.508-.508Zm-3.8-5.172a.507.507,0,0,1-.425.1l-.181-.038a7.018,7.018,0,0,1-3.038-1.252,5.715,5.715,0,0,1-.055-9.048,8.446,8.446,0,0,1,3.027-1.687l.2-.063a.507.507,0,0,1,.662.483v11.108A.507.507,0,0,1,3291.332,2768.4Z" transform="translate(-204.589 -33.731)" fill="#004c97"/>
      <path id="Path_38" data-name="Path 38" d="M3199.538,2764.222a36.368,36.368,0,1,0-7.816-11.594A36.352,36.352,0,0,0,3199.538,2764.222Zm25.793-58.714a32.921,32.921,0,1,1-32.921,32.921A32.959,32.959,0,0,1,3225.331,2705.508Z" transform="translate(-136.019 0)" fill="#efb82a"/>
    </g>
  </g>
</svg>
