<svg xmlns="http://www.w3.org/2000/svg" width="21.621" height="21.621" viewBox="0 0 21.621 21.621">
  <g id="Group_60" data-name="Group 60" transform="translate(-681 -1101.189)">
    <path id="Path_33" data-name="Path 33" d="M12.811,2a10.811,10.811,0,0,1,7.644,18.455A10.811,10.811,0,0,1,5.166,5.166,10.74,10.74,0,0,1,12.811,2Zm0,19.621A8.811,8.811,0,1,0,4,12.811,8.821,8.821,0,0,0,12.811,21.621Z" transform="translate(679 1099.189)" fill="#fff"/>
    <g id="Group_59" data-name="Group 59">
      <path id="Path_34" data-name="Path 34" d="M18,20.848a1,1,0,0,1-.707-1.707l3.217-3.217-3.217-3.217a1,1,0,0,1,1.414-1.414l3.924,3.924a1,1,0,0,1,0,1.414l-3.924,3.924A1,1,0,0,1,18,20.848Z" transform="translate(673.811 1096.076)" fill="#fff"/>
      <path id="Path_35" data-name="Path 35" d="M19.848,19H12a1,1,0,0,1,0-2h7.848a1,1,0,0,1,0,2Z" transform="translate(675.886 1094)" fill="#fff"/>
    </g>
  </g>
</svg>
