<svg xmlns="http://www.w3.org/2000/svg" xmlns:xlink="http://www.w3.org/1999/xlink" width="107" height="82" viewBox="0 0 107 82"><defs><clipPath id="a"><rect width="99.267" height="39.177" fill="none"/></clipPath></defs><g transform="translate(-1080 -777)"><rect width="107" height="82" transform="translate(1080 777)" fill="#fff"/><g transform="translate(116 -346)"><path d="M9264.336,1164.234l22.766,35.288,50.736-.93-23.576-35.189Z" transform="translate(-8272.494 -0.826)" fill="#efb82a"/><g transform="translate(968 1161)"><g clip-path="url(#a)"><path d="M98.93,35.949,75.155.874A1.989,1.989,0,0,0,73.514,0H22.665a1.99,1.99,0,0,0-1.64.979L.251,36.218A1.992,1.992,0,0,0,3.682,38.24L22.847,5.7,45.2,38.2a1.991,1.991,0,0,0,1.64.862H97.282a1.99,1.99,0,0,0,1.64-3.11ZM49.941,28.361H43.274l-2.716-3.948h9.106l2.674,3.948Zm-8-24.37,3.318,4.9H36.942l-3.32-4.9Zm11.951,0,3.32,4.9H48.078l-3.3-4.9Zm11.154,0,3.33,4.9H60.057l-3.32-4.9Zm5.528,7.245h6.774l2.676,3.948H69.249l-2.674-3.948h4ZM61.092,28.361H55.169l-2.674-3.948h8.321l2.674,3.948ZM45.959,22.069l-3.081-4.551H51.2l3.081,4.551Zm1.511-10.842H51.8l2.674,3.948H46.152l-2.674-3.948Zm11.951,0h4.33l2.674,3.948H57.287l-2.674-3.948Zm9.214,6.292H74.3l3.081,4.551h-8.3L66,17.518h2.634Zm4.431,10.842H66.32l-2.674-3.946h9.139l2.667,3.946ZM57.118,22.069l-3.081-4.551h9.139l3.081,4.551ZM65.7,30.7h6.742L75.4,35.072H66.271L63.307,30.7Zm12.525,4.37L75.267,30.7H83.59l2.957,4.368Zm5.989-6.714H78.283l-2.674-3.948H86.3l2.676,3.948Zm-3.984-6.292-3.084-4.548h4.483l3.084,4.551ZM36.317,11.229h4.33l2.674,3.948H34.205l-2.718-3.948Zm3.731,6.292,3.081,4.551H38.946l-3.138-4.551ZM54.555,30.7h5.931l2.957,4.368h-8.33L52.153,30.7Zm34.833,4.368L86.423,30.7h4.143l2.962,4.368ZM75.773,8.886H71.208l-3.32-4.9H72.45Zm-44.982-4.9,3.32,4.9H29.875L26.5,3.991ZM44.886,30.7h4.438l2.957,4.368H47.893Z" transform="translate(0)" fill="#0a529d"/></g></g></g></g></svg>