<?xml version="1.0" encoding="utf-8"?>
<!-- Generator: Adobe Illustrator 27.0.0, SVG Export Plug-In . SVG Version: 6.00 Build 0)  -->
<svg version="1.1" id="Layer_1" xmlns="http://www.w3.org/2000/svg" xmlns:xlink="http://www.w3.org/1999/xlink" x="0px" y="0px"
	 viewBox="0 0 55 56.6" style="enable-background:new 0 0 55 56.6;" xml:space="preserve">
<style type="text/css">
	.st0{fill-rule:evenodd;clip-rule:evenodd;fill:#004C97;}
	.st1{fill:#FFFFFF;}
	.st2{fill:none;stroke:#EFB82A;stroke-width:2.5;stroke-linecap:round;stroke-miterlimit:10;}
	.st3{fill:#EFB82A;}
</style>
<g id="Group_5940_00000176757234806717267570000001797928706240966304_" transform="translate(-8)">
	<g id="Group_5939_00000097471355907023285070000002140978562840402056_">
		<g id="Group_2814_00000003807122212507218120000000231995473878273981_" transform="translate(9.668 6.215)">
			<g id="Group_2813_00000044865754678479230350000006053196995173228426_" transform="translate(0 17.529)">
				<path id="Stroke-20_00000145770583951477834000000000991115179826242488_" class="st0" d="M8.7,17.6L17,9.3h12.4l-8.3,8.4H8.7z"
					/>
				<path id="Stroke-21_00000003807080356858314670000017773512647036948869_" class="st0" d="M17.9,8.4L26.3,0h12.4l-8.3,8.4H17.9z
					"/>
				<path id="Stroke-22_00000034800868753420336060000009283925625782565802_" class="st0" d="M31.7,8.4L40,0h12.4l-8.3,8.4H31.7z"
					/>
				<path id="Stroke-23_00000142171782113281730920000011672557600539540386_" class="st0" d="M22.5,17.5l8.3-8.4h12.4l-8.3,8.4
					H22.5z"/>
				<path id="Stroke-24_00000104693857820246514590000011005945398648972186_" class="st0" d="M-0.7,27.1l8.3-8.4H20l-8.3,8.4H-0.7z
					"/>
				<path id="Stroke-26_00000033367508362337188170000009533367964032039567_" class="st0" d="M13.1,27l8.3-8.4h12.4L25.5,27H13.1z"
					/>
				<path id="Page-1_00000162351866396388482110000011716312711154565049_" class="st0" d="M26.1,27.6L52.6,0.9v1.2L26.1,28.9V27.6z
					"/>
				<g id="Group-30_00000065756820712927847710000000224747959197173421_" transform="translate(0 27.803)">
					<path id="Stroke-27_00000052081656668641504160000008680408966371556797_" class="st0" d="M-0.7,1.3h26.2V0H-0.7V1.3z"/>
				</g>
			</g>
			<g id="Group_2813-2_00000100372465770974650600000008029987475308542101_" transform="translate(5.884)">
				<circle id="Ellipse_39_00000021112182062289904700000017373123374768517308_" class="st1" cx="15.4" cy="15.9" r="7.5"/>
				<g id="Group_2071_00000015343029795731517760000012291946938711155381_" transform="translate(0)">
					<path id="Path_4506_00000145742265223054786420000001625356615603660984_" class="st2" d="M15.3,5.6V0 M15.3,32.1v-5.6
						 M25.7,16h5.6 M-0.7,16h5.6 M22.7,8.7l4-4 M4,27.4l4-4 M22.7,23.4l4,4 M7.9,8.7l-4-4 M15.3,9c-3.9,0-7.1,3.2-7.1,7.1
						c0,3.9,3.2,7.1,7.1,7.1c3.9,0,7.1-3.2,7.1-7.1l0,0C22.4,12.1,19.2,9,15.3,9L15.3,9z"/>
					<path id="Path_3319_00000101094367378256047980000011418679093733596596_" class="st3" d="M18.1,15.4h-2.8l1.7-4.3l-4.6,5.6
						h2.8l0,0L13.5,21L18.1,15.4z"/>
				</g>
			</g>
		</g>
	</g>
</g>
</svg>
