<?xml version="1.0"?>
<svg xmlns="http://www.w3.org/2000/svg" viewBox="0 0 50.2 48.17">
  <polygon points="16.15 29.47 2.71 19.42 19.49 19.18 24.9 3.3 30.32 19.18 47.09 19.42 33.66 29.47 38.62 45.51 24.9 35.84 11.19 45.51 16.15 29.47" fill="#0c4e97" fill-rule="evenodd"/>
  <path d="M24.9,5.62l4.88,14.3,15.1.22L32.79,29.19l4.46,14.43L24.9,34.92l-12.34,8.7L17,29.19l-12.09-9L20,19.92,24.9,5.62M24.9,1,23.48,5.14,19,18.44l-14,.2L.5,18.7,4,21.34l11.25,8.42L11.12,43.18l-1.3,4.21,3.6-2.54,11.48-8.1,11.49,8.1L40,47.39l-1.31-4.21L34.53,29.76l11.25-8.42,3.53-2.64-4.41-.06-14-.2L26.32,5.14,24.9,1Z" fill="#0c4e97"/>
</svg>
