<svg xmlns="http://www.w3.org/2000/svg" width="376" height="53" viewBox="0 0 376 53" class="d-block d-md-none">
    <g transform="translate(5189 -614)">
        <rect width="376" height="53" transform="translate(-5189 614)" fill="#0c4e97" />
        <path d="M10,0H114V53H10L26.16,26.234Z" transform="translate(-4927 614)" fill="#ce0109" />
        <g transform="translate(-16 -21)">
            <path d="M10.378,11.3H13.5v3.123H10.378Zm4.684,0h3.123v3.123H15.062Zm4.684,0h3.123v3.123H19.746ZM5.693,20.665H8.816v3.123H5.693Zm4.684,0H13.5v3.123H10.378Zm4.684,0h3.123v3.123H15.062ZM10.378,15.98H13.5V19.1H10.378Zm4.684,0h3.123V19.1H15.062Zm4.684,0h3.123V19.1H19.746Zm-14.052,0H8.816V19.1H5.693ZM22.869,1.928V3.489H19.746V1.928H8.816V3.489H5.693V1.928H2.571V26.91H25.991V1.928H22.869ZM24.43,25.349H4.132V8.174h20.3Z" transform="translate(-5086.571 639.072)" fill="#fff" />
            <path d="M5.568-4.38q-.072.036,0,.072a2.019,2.019,0,0,1,1.224,1.98A2.066,2.066,0,0,1,6.03-.594,3.138,3.138,0,0,1,4.044,0H1.02a.139.139,0,0,1-.1-.042.139.139,0,0,1-.042-.1V-8.256a.139.139,0,0,1,.042-.1.139.139,0,0,1,.1-.042H3.948a3.167,3.167,0,0,1,2.016.564,2.047,2.047,0,0,1,.708,1.7A1.764,1.764,0,0,1,5.568-4.38ZM2.328-7.2a.053.053,0,0,0-.06.06v2.22a.053.053,0,0,0,.06.06h1.62a1.515,1.515,0,0,0,1-.306,1.043,1.043,0,0,0,.366-.846,1.093,1.093,0,0,0-.366-.87,1.476,1.476,0,0,0-1-.318ZM4.044-1.212a1.407,1.407,0,0,0,.99-.336A1.177,1.177,0,0,0,5.4-2.46a1.163,1.163,0,0,0-.372-.918,1.464,1.464,0,0,0-1.008-.33H2.328a.053.053,0,0,0-.06.06v2.376a.053.053,0,0,0,.06.06ZM11.172.12a3.378,3.378,0,0,1-1.6-.366A2.584,2.584,0,0,1,8.5-1.284a3.1,3.1,0,0,1-.378-1.548V-5.568A3.008,3.008,0,0,1,8.508-7.1,2.643,2.643,0,0,1,9.582-8.13a3.342,3.342,0,0,1,1.59-.366,3.369,3.369,0,0,1,1.6.366A2.643,2.643,0,0,1,13.848-7.1a3.008,3.008,0,0,1,.384,1.53v2.736a3.065,3.065,0,0,1-.384,1.548A2.632,2.632,0,0,1,12.774-.246,3.369,3.369,0,0,1,11.172.12Zm0-1.2a1.615,1.615,0,0,0,1.212-.468,1.7,1.7,0,0,0,.456-1.236v-2.8a1.712,1.712,0,0,0-.456-1.248A1.615,1.615,0,0,0,11.172-7.3a1.6,1.6,0,0,0-1.2.468A1.712,1.712,0,0,0,9.516-5.58v2.8a1.7,1.7,0,0,0,.456,1.236A1.6,1.6,0,0,0,11.172-1.08ZM18.624.12a3.378,3.378,0,0,1-1.6-.366,2.584,2.584,0,0,1-1.074-1.038,3.1,3.1,0,0,1-.378-1.548V-5.568A3.008,3.008,0,0,1,15.96-7.1,2.643,2.643,0,0,1,17.034-8.13a3.342,3.342,0,0,1,1.59-.366,3.369,3.369,0,0,1,1.6.366A2.643,2.643,0,0,1,21.3-7.1a3.008,3.008,0,0,1,.384,1.53v2.736A3.065,3.065,0,0,1,21.3-1.284,2.632,2.632,0,0,1,20.226-.246,3.369,3.369,0,0,1,18.624.12Zm0-1.2a1.615,1.615,0,0,0,1.212-.468,1.7,1.7,0,0,0,.456-1.236v-2.8a1.712,1.712,0,0,0-.456-1.248A1.615,1.615,0,0,0,18.624-7.3a1.6,1.6,0,0,0-1.2.468,1.712,1.712,0,0,0-.456,1.248v2.8a1.7,1.7,0,0,0,.456,1.236A1.6,1.6,0,0,0,18.624-1.08ZM23.376,0a.139.139,0,0,1-.1-.042.139.139,0,0,1-.042-.1V-8.256a.139.139,0,0,1,.042-.1.139.139,0,0,1,.1-.042h1.1a.139.139,0,0,1,.1.042.139.139,0,0,1,.042.1v3.588a.048.048,0,0,0,.024.048.039.039,0,0,0,.048-.012l3.12-3.684A.227.227,0,0,1,28-8.4h1.248q.12,0,.12.084a.205.205,0,0,1-.036.1L26.58-4.848a.069.069,0,0,0-.012.084l2.952,4.6a.5.5,0,0,1,.024.084q0,.084-.12.084h-1.26A.188.188,0,0,1,28-.1l-2.376-3.7q-.048-.072-.084-.012l-.888,1.032a.193.193,0,0,0-.024.084V-.144a.139.139,0,0,1-.042.1.139.139,0,0,1-.1.042Zm14.58-8.256a.139.139,0,0,1,.042-.1.139.139,0,0,1,.1-.042h1.1a.139.139,0,0,1,.1.042.139.139,0,0,1,.042.1V-.144a.139.139,0,0,1-.042.1A.139.139,0,0,1,39.2,0H38.136a.172.172,0,0,1-.168-.1L34.512-5.76q-.024-.036-.048-.03t-.024.054l.024,5.592a.139.139,0,0,1-.042.1.139.139,0,0,1-.1.042h-1.1a.139.139,0,0,1-.1-.042.139.139,0,0,1-.042-.1V-8.256a.139.139,0,0,1,.042-.1.139.139,0,0,1,.1-.042h1.068a.172.172,0,0,1,.168.1L37.9-2.64q.024.036.048.03t.024-.054ZM43.944.12a3.378,3.378,0,0,1-1.6-.366,2.584,2.584,0,0,1-1.074-1.038A3.1,3.1,0,0,1,40.9-2.832V-5.568A3.008,3.008,0,0,1,41.28-7.1,2.643,2.643,0,0,1,42.354-8.13a3.342,3.342,0,0,1,1.59-.366,3.369,3.369,0,0,1,1.6.366A2.643,2.643,0,0,1,46.62-7.1,3.008,3.008,0,0,1,47-5.568v2.736a3.065,3.065,0,0,1-.384,1.548A2.632,2.632,0,0,1,45.546-.246,3.369,3.369,0,0,1,43.944.12Zm0-1.2a1.615,1.615,0,0,0,1.212-.468,1.7,1.7,0,0,0,.456-1.236v-2.8a1.712,1.712,0,0,0-.456-1.248A1.615,1.615,0,0,0,43.944-7.3a1.6,1.6,0,0,0-1.2.468,1.712,1.712,0,0,0-.456,1.248v2.8a1.7,1.7,0,0,0,.456,1.236A1.6,1.6,0,0,0,43.944-1.08ZM50.2,0a.158.158,0,0,1-.168-.12L47.844-8.244l-.012-.048q0-.108.132-.108H49.14a.158.158,0,0,1,.168.12l1.368,5.472q.012.036.036.036t.036-.036L52.056-8.28a.151.151,0,0,1,.156-.12h1.152a.158.158,0,0,1,.168.12L54.924-2.8q.012.036.036.036T55-2.8L56.34-8.28a.158.158,0,0,1,.168-.12h1.116q.168,0,.132.156L55.68-.12a.158.158,0,0,1-.168.12H54.4a.158.158,0,0,1-.168-.12l-1.4-5.724q-.012-.036-.036-.042t-.036.042L51.408-.12a.151.151,0,0,1-.156.12Z" transform="translate(-5102 680)" fill="#fff" />
        </g>
        <g transform="translate(-38 -21)">
            <g transform="translate(13.273 -47.5)">
                <path d="M23.127,1.153,18.252.028a1.132,1.132,0,0,0-1.289.652l-2.25,5.25a1.122,1.122,0,0,0,.323,1.312l2.841,2.325a17.372,17.372,0,0,1-8.306,8.306L7.246,15.032a1.124,1.124,0,0,0-1.312-.323l-5.25,2.25a1.138,1.138,0,0,0-.656,1.294l1.125,4.875A1.125,1.125,0,0,0,2.25,24,21.747,21.747,0,0,0,24,2.25,1.124,1.124,0,0,0,23.127,1.153Z" transform="translate(-5003.272 688.5)" fill="#fff" />
                <path d="M7.387,11.386A1.5,1.5,0,0,1,5.915,9.6,8,8,0,0,1,6.564,7.68C7.092,6.6,7.533,6.3,8.032,6.185a1.522,1.522,0,0,1,1.556.562A1.977,1.977,0,0,1,9.6,8.816c-.194.453-.5,1.055-.9,1.791A1.5,1.5,0,0,1,7.387,11.386ZM3.17,11.375A1.516,1.516,0,0,1,3,11.366,1.5,1.5,0,0,1,1.677,9.708a10.993,10.993,0,0,1,9.711-9.7,1.5,1.5,0,1,1,.331,2.982,7.993,7.993,0,0,0-7.061,7.052A1.5,1.5,0,0,1,3.17,11.375Z" transform="translate(-5003.21 690.117)" fill="#fff" />
            </g>
            <path d="M4.248-8.412A2.753,2.753,0,0,1,5.58-8.1a2.207,2.207,0,0,1,.894.882A2.652,2.652,0,0,1,6.792-5.9a2.555,2.555,0,0,1-.324,1.3,2.191,2.191,0,0,1-.918.87,2.959,2.959,0,0,1-1.374.306H2.256a.053.053,0,0,0-.06.06V-.144a.139.139,0,0,1-.042.1.139.139,0,0,1-.1.042H.948a.139.139,0,0,1-.1-.042A.139.139,0,0,1,.8-.144V-8.268a.139.139,0,0,1,.042-.1.139.139,0,0,1,.1-.042Zm-.2,3.852a1.355,1.355,0,0,0,.984-.36A1.259,1.259,0,0,0,5.4-5.868a1.315,1.315,0,0,0-.372-.972,1.33,1.33,0,0,0-.984-.372H2.256a.053.053,0,0,0-.06.06V-4.62a.053.053,0,0,0,.06.06Zm8.544-3.7a.139.139,0,0,1,.042-.1.139.139,0,0,1,.1-.042h1.1a.139.139,0,0,1,.1.042.139.139,0,0,1,.042.1V-.144a.139.139,0,0,1-.042.1.139.139,0,0,1-.1.042h-1.1a.139.139,0,0,1-.1-.042.139.139,0,0,1-.042-.1V-3.576a.053.053,0,0,0-.06-.06H9.468a.053.053,0,0,0-.06.06V-.144a.139.139,0,0,1-.042.1.139.139,0,0,1-.1.042H8.16a.139.139,0,0,1-.1-.042.139.139,0,0,1-.042-.1V-8.256a.139.139,0,0,1,.042-.1.139.139,0,0,1,.1-.042h1.1a.139.139,0,0,1,.1.042.139.139,0,0,1,.042.1V-4.9a.053.053,0,0,0,.06.06h3.06a.053.053,0,0,0,.06-.06ZM18.5.12a3.378,3.378,0,0,1-1.6-.366,2.584,2.584,0,0,1-1.074-1.038,3.1,3.1,0,0,1-.378-1.548V-5.568A3.008,3.008,0,0,1,15.84-7.1,2.643,2.643,0,0,1,16.914-8.13,3.342,3.342,0,0,1,18.5-8.5a3.369,3.369,0,0,1,1.6.366A2.643,2.643,0,0,1,21.18-7.1a3.008,3.008,0,0,1,.384,1.53v2.736a3.065,3.065,0,0,1-.384,1.548A2.632,2.632,0,0,1,20.106-.246,3.369,3.369,0,0,1,18.5.12Zm0-1.2a1.615,1.615,0,0,0,1.212-.468,1.7,1.7,0,0,0,.456-1.236v-2.8a1.712,1.712,0,0,0-.456-1.248A1.615,1.615,0,0,0,18.5-7.3a1.6,1.6,0,0,0-1.2.468,1.712,1.712,0,0,0-.456,1.248v2.8A1.7,1.7,0,0,0,17.3-1.548,1.6,1.6,0,0,0,18.5-1.08ZM28-8.256a.139.139,0,0,1,.042-.1.139.139,0,0,1,.1-.042h1.1a.139.139,0,0,1,.1.042.139.139,0,0,1,.042.1V-.144a.139.139,0,0,1-.042.1.139.139,0,0,1-.1.042H28.176a.172.172,0,0,1-.168-.1L24.552-5.76q-.024-.036-.048-.03t-.024.054L24.5-.144a.139.139,0,0,1-.042.1.139.139,0,0,1-.1.042h-1.1a.139.139,0,0,1-.1-.042.139.139,0,0,1-.042-.1V-8.256a.139.139,0,0,1,.042-.1.139.139,0,0,1,.1-.042h1.068a.172.172,0,0,1,.168.1L27.936-2.64q.024.036.048.03t.024-.054Zm8.724.912a.139.139,0,0,1-.042.1.139.139,0,0,1-.1.042H32.484a.053.053,0,0,0-.06.06V-4.9a.053.053,0,0,0,.06.06h2.748a.139.139,0,0,1,.1.042.139.139,0,0,1,.042.1v.912a.139.139,0,0,1-.042.1.139.139,0,0,1-.1.042H32.484a.053.053,0,0,0-.06.06V-1.26a.053.053,0,0,0,.06.06h4.092a.139.139,0,0,1,.1.042.139.139,0,0,1,.042.1v.912a.139.139,0,0,1-.042.1.139.139,0,0,1-.1.042h-5.4a.139.139,0,0,1-.1-.042.139.139,0,0,1-.042-.1V-8.256a.139.139,0,0,1,.042-.1.139.139,0,0,1,.1-.042h5.4a.139.139,0,0,1,.1.042.139.139,0,0,1,.042.1Z" transform="translate(-4997 680)" fill="#fff" />
        </g>
        <g transform="translate(-49 -21)">
            <path d="M10.808,31.418c-1.729,0-3.458-1.513-4.323-2.162C2.162,26.23.865,25.149,0,24.5v9.078a2.162,2.162,0,0,0,2.162,2.162H19.454a2.162,2.162,0,0,0,2.162-2.162V24.5c-.865.648-2.162,1.729-6.485,4.755C14.266,29.9,12.537,31.418,10.808,31.418ZM19.454,19H2.162A2.162,2.162,0,0,0,0,21.162v1.081c1.729,1.3,1.513,1.3,7.781,5.836.648.432,1.945,1.729,3.026,1.729s2.378-1.3,3.026-1.513c6.268-4.539,6.052-4.539,7.781-5.836v-1.3A2.162,2.162,0,0,0,19.454,19Z" transform="translate(-4908 628)" fill="#fff" />
            <path d="M3.684.1A3.4,3.4,0,0,1,2.1-.258a2.552,2.552,0,0,1-1.056-.99A2.87,2.87,0,0,1,.672-2.724V-5.688a2.87,2.87,0,0,1,.372-1.476A2.513,2.513,0,0,1,2.1-8.148,3.447,3.447,0,0,1,3.684-8.5a3.521,3.521,0,0,1,1.572.336,2.484,2.484,0,0,1,1.056.948A2.672,2.672,0,0,1,6.684-5.8a.139.139,0,0,1-.042.1.139.139,0,0,1-.1.042l-1.1.06q-.144,0-.144-.132a1.53,1.53,0,0,0-.438-1.14A1.594,1.594,0,0,0,3.684-7.3a1.614,1.614,0,0,0-1.176.432,1.518,1.518,0,0,0-.444,1.14v3.06a1.5,1.5,0,0,0,.444,1.128A1.614,1.614,0,0,0,3.684-1.1a1.606,1.606,0,0,0,1.17-.426,1.51,1.51,0,0,0,.438-1.134q0-.132.144-.132l1.1.048a.151.151,0,0,1,.1.036.108.108,0,0,1,.042.084,2.726,2.726,0,0,1-.372,1.434A2.472,2.472,0,0,1,5.256-.24,3.521,3.521,0,0,1,3.684.1ZM11.016.12a3.378,3.378,0,0,1-1.6-.366A2.584,2.584,0,0,1,8.346-1.284a3.1,3.1,0,0,1-.378-1.548V-5.568A3.008,3.008,0,0,1,8.352-7.1,2.643,2.643,0,0,1,9.426-8.13a3.342,3.342,0,0,1,1.59-.366,3.369,3.369,0,0,1,1.6.366A2.643,2.643,0,0,1,13.692-7.1a3.008,3.008,0,0,1,.384,1.53v2.736a3.065,3.065,0,0,1-.384,1.548A2.632,2.632,0,0,1,12.618-.246,3.369,3.369,0,0,1,11.016.12Zm0-1.2a1.615,1.615,0,0,0,1.212-.468,1.7,1.7,0,0,0,.456-1.236v-2.8a1.712,1.712,0,0,0-.456-1.248A1.615,1.615,0,0,0,11.016-7.3a1.6,1.6,0,0,0-1.2.468A1.712,1.712,0,0,0,9.36-5.58v2.8a1.7,1.7,0,0,0,.456,1.236A1.6,1.6,0,0,0,11.016-1.08Zm9.492-7.176a.139.139,0,0,1,.042-.1.139.139,0,0,1,.1-.042h1.1a.139.139,0,0,1,.1.042.139.139,0,0,1,.042.1V-.144a.139.139,0,0,1-.042.1.139.139,0,0,1-.1.042H20.688a.172.172,0,0,1-.168-.1L17.064-5.76q-.024-.036-.048-.03t-.024.054l.024,5.592a.139.139,0,0,1-.042.1.139.139,0,0,1-.1.042h-1.1a.139.139,0,0,1-.1-.042.139.139,0,0,1-.042-.1V-8.256a.139.139,0,0,1,.042-.1.139.139,0,0,1,.1-.042h1.068A.172.172,0,0,1,17-8.3L20.448-2.64q.024.036.048.03t.024-.054ZM29.172-8.4a.139.139,0,0,1,.1.042.139.139,0,0,1,.042.1v.924a.139.139,0,0,1-.042.1.139.139,0,0,1-.1.042H26.964a.053.053,0,0,0-.06.06V-.144a.139.139,0,0,1-.042.1.139.139,0,0,1-.1.042h-1.1a.139.139,0,0,1-.1-.042.139.139,0,0,1-.042-.1V-7.128a.053.053,0,0,0-.06-.06H23.328a.139.139,0,0,1-.1-.042.139.139,0,0,1-.042-.1v-.924a.139.139,0,0,1,.042-.1.139.139,0,0,1,.1-.042Zm5.9,8.4a.151.151,0,0,1-.156-.12l-.4-1.284q-.024-.048-.06-.048H31.3q-.036,0-.06.048L30.84-.12a.151.151,0,0,1-.156.12h-1.2a.134.134,0,0,1-.108-.042.131.131,0,0,1-.012-.126l2.6-8.112a.151.151,0,0,1,.156-.12h1.5a.151.151,0,0,1,.156.12L36.4-.168a.134.134,0,0,1,.012.06q0,.108-.132.108ZM31.608-2.616q-.012.072.048.072h2.436q.072,0,.048-.072L32.9-6.636q-.012-.048-.036-.048t-.036.048ZM40.236.1a3.4,3.4,0,0,1-1.584-.354,2.552,2.552,0,0,1-1.056-.99,2.87,2.87,0,0,1-.372-1.476V-5.688A2.87,2.87,0,0,1,37.6-7.164a2.513,2.513,0,0,1,1.056-.984A3.447,3.447,0,0,1,40.236-8.5a3.521,3.521,0,0,1,1.572.336,2.484,2.484,0,0,1,1.056.948A2.672,2.672,0,0,1,43.236-5.8a.139.139,0,0,1-.042.1.139.139,0,0,1-.1.042l-1.1.06q-.144,0-.144-.132a1.53,1.53,0,0,0-.438-1.14,1.594,1.594,0,0,0-1.17-.432,1.614,1.614,0,0,0-1.176.432,1.518,1.518,0,0,0-.444,1.14v3.06a1.5,1.5,0,0,0,.444,1.128,1.614,1.614,0,0,0,1.176.432,1.606,1.606,0,0,0,1.17-.426,1.51,1.51,0,0,0,.438-1.134q0-.132.144-.132l1.1.048a.151.151,0,0,1,.1.036.108.108,0,0,1,.042.084,2.726,2.726,0,0,1-.372,1.434,2.472,2.472,0,0,1-1.056.954A3.521,3.521,0,0,1,40.236.1Zm9.912-8.5a.139.139,0,0,1,.1.042.139.139,0,0,1,.042.1v.924a.139.139,0,0,1-.042.1.139.139,0,0,1-.1.042H47.94a.053.053,0,0,0-.06.06V-.144a.139.139,0,0,1-.042.1.139.139,0,0,1-.1.042h-1.1a.139.139,0,0,1-.1-.042.139.139,0,0,1-.042-.1V-7.128a.053.053,0,0,0-.06-.06H44.3a.139.139,0,0,1-.1-.042.139.139,0,0,1-.042-.1v-.924a.139.139,0,0,1,.042-.1.139.139,0,0,1,.1-.042Z" transform="translate(-4923 680)" fill="#fff" />
        </g>
        <path d="M-31.152,0a.17.17,0,0,1-.168-.108L-32.9-3.564a.077.077,0,0,0-.072-.048h-1.44a.053.053,0,0,0-.06.06V-.144a.139.139,0,0,1-.042.1.139.139,0,0,1-.1.042h-1.1a.139.139,0,0,1-.1-.042.139.139,0,0,1-.042-.1V-8.256a.139.139,0,0,1,.042-.1.139.139,0,0,1,.1-.042h3.3a2.674,2.674,0,0,1,1.3.306,2.169,2.169,0,0,1,.876.864,2.574,2.574,0,0,1,.312,1.278,2.322,2.322,0,0,1-.426,1.41,2.2,2.2,0,0,1-1.182.81.038.038,0,0,0-.036.024.051.051,0,0,0,0,.048l1.692,3.492a.184.184,0,0,1,.024.072q0,.1-.132.1Zm-3.264-7.2a.053.053,0,0,0-.06.06v2.388a.053.053,0,0,0,.06.06h1.8a1.282,1.282,0,0,0,.93-.342,1.2,1.2,0,0,0,.354-.906,1.222,1.222,0,0,0-.354-.912,1.269,1.269,0,0,0-.93-.348Zm10.752,3.444a4.277,4.277,0,0,1,.048.672l-.012.372a.127.127,0,0,1-.144.144h-3.756a.053.053,0,0,0-.06.06,1.716,1.716,0,0,0,.108.54,1.319,1.319,0,0,0,1.4.876,1.512,1.512,0,0,0,1.3-.672.141.141,0,0,1,.12-.072.115.115,0,0,1,.084.036l.744.612A.128.128,0,0,1-23.8-1a2.451,2.451,0,0,1-.99.816A3.213,3.213,0,0,1-26.16.108a2.881,2.881,0,0,1-1.59-.42A2.417,2.417,0,0,1-28.7-1.488a4.719,4.719,0,0,1-.276-1.8,3.648,3.648,0,0,1,.144-1.128,2.407,2.407,0,0,1,.906-1.326,2.643,2.643,0,0,1,1.6-.486A2.455,2.455,0,0,1-23.664-3.756Zm-2.664-1.272a1.19,1.19,0,0,0-.738.222,1.175,1.175,0,0,0-.414.618,2.083,2.083,0,0,0-.1.528q-.024.06.048.06h2.436a.053.053,0,0,0,.06-.06,2.262,2.262,0,0,0-.072-.456,1.164,1.164,0,0,0-.426-.672A1.287,1.287,0,0,0-26.328-5.028Zm6.936-1.116a.139.139,0,0,1,.1.042.139.139,0,0,1,.042.1v.948a.139.139,0,0,1-.042.1.139.139,0,0,1-.1.042H-20.58a.053.053,0,0,0-.06.06v4.7a.139.139,0,0,1-.042.1.139.139,0,0,1-.1.042h-1.1a.139.139,0,0,1-.1-.042.139.139,0,0,1-.042-.1v-4.7a.053.053,0,0,0-.06-.06h-.744a.139.139,0,0,1-.1-.042.139.139,0,0,1-.042-.1V-6a.139.139,0,0,1,.042-.1.139.139,0,0,1,.1-.042h.744a.053.053,0,0,0,.06-.06V-6.42a2.861,2.861,0,0,1,.2-1.206,1.183,1.183,0,0,1,.672-.606,3.669,3.669,0,0,1,1.32-.168h.42a.139.139,0,0,1,.1.042.139.139,0,0,1,.042.1v.84a.139.139,0,0,1-.042.1.139.139,0,0,1-.1.042h-.312a.982.982,0,0,0-.714.2,1.07,1.07,0,0,0-.2.744v.12a.053.053,0,0,0,.06.06Zm5.94,2.388a4.277,4.277,0,0,1,.048.672l-.012.372a.127.127,0,0,1-.144.144h-3.756a.053.053,0,0,0-.06.06,1.716,1.716,0,0,0,.108.54,1.319,1.319,0,0,0,1.4.876,1.512,1.512,0,0,0,1.3-.672.141.141,0,0,1,.12-.072.115.115,0,0,1,.084.036l.744.612A.128.128,0,0,1-13.584-1a2.451,2.451,0,0,1-.99.816,3.213,3.213,0,0,1-1.374.288,2.881,2.881,0,0,1-1.59-.42,2.417,2.417,0,0,1-.954-1.176,4.719,4.719,0,0,1-.276-1.8,3.648,3.648,0,0,1,.144-1.128,2.407,2.407,0,0,1,.906-1.326,2.643,2.643,0,0,1,1.6-.486A2.455,2.455,0,0,1-13.452-3.756Zm-2.664-1.272a1.19,1.19,0,0,0-.738.222,1.175,1.175,0,0,0-.414.618,2.083,2.083,0,0,0-.1.528q-.024.06.048.06h2.436a.053.053,0,0,0,.06-.06,2.262,2.262,0,0,0-.072-.456,1.164,1.164,0,0,0-.426-.672A1.287,1.287,0,0,0-16.116-5.028ZM-9.4-6.2a1.39,1.39,0,0,1,.672.156.149.149,0,0,1,.072.18l-.2,1.08q-.012.144-.168.084a1.33,1.33,0,0,0-.42-.06,1.814,1.814,0,0,0-.24.012,1.239,1.239,0,0,0-.84.354,1.149,1.149,0,0,0-.336.858v3.4a.139.139,0,0,1-.042.1A.139.139,0,0,1-11,0h-1.1a.139.139,0,0,1-.1-.042.139.139,0,0,1-.042-.1V-5.988a.139.139,0,0,1,.042-.1.139.139,0,0,1,.1-.042H-11a.139.139,0,0,1,.1.042.139.139,0,0,1,.042.1v.54q0,.048.018.054t.042-.03A1.585,1.585,0,0,1-9.4-6.2ZM-.24,0A.151.151,0,0,1-.4-.12L-.792-1.4q-.024-.048-.06-.048H-4.02q-.036,0-.06.048l-.4,1.284A.151.151,0,0,1-4.632,0h-1.2A.134.134,0,0,1-5.94-.042a.131.131,0,0,1-.012-.126l2.6-8.112a.151.151,0,0,1,.156-.12h1.5a.151.151,0,0,1,.156.12L1.08-.168a.134.134,0,0,1,.012.06Q1.092,0,.96,0ZM-3.708-2.616q-.012.072.048.072h2.436q.072,0,.048-.072l-1.236-4.02q-.012-.048-.036-.048t-.036.048ZM10.164-7.344a.139.139,0,0,1-.042.1.139.139,0,0,1-.1.042H5.94a.053.053,0,0,0-.06.06V-4.9a.053.053,0,0,0,.06.06H8.688a.139.139,0,0,1,.1.042.139.139,0,0,1,.042.1v.912a.139.139,0,0,1-.042.1.139.139,0,0,1-.1.042H5.94a.053.053,0,0,0-.06.06V-.144a.139.139,0,0,1-.042.1.139.139,0,0,1-.1.042h-1.1a.139.139,0,0,1-.1-.042.139.139,0,0,1-.042-.1V-8.256a.139.139,0,0,1,.042-.1.139.139,0,0,1,.1-.042H10.02a.139.139,0,0,1,.1.042.139.139,0,0,1,.042.1ZM13.572-6.2a1.39,1.39,0,0,1,.672.156.149.149,0,0,1,.072.18l-.2,1.08q-.012.144-.168.084a1.33,1.33,0,0,0-.42-.06,1.814,1.814,0,0,0-.24.012,1.239,1.239,0,0,0-.84.354,1.149,1.149,0,0,0-.336.858v3.4a.139.139,0,0,1-.042.1.139.139,0,0,1-.1.042h-1.1a.139.139,0,0,1-.1-.042.139.139,0,0,1-.042-.1V-5.988a.139.139,0,0,1,.042-.1.139.139,0,0,1,.1-.042h1.1a.139.139,0,0,1,.1.042.139.139,0,0,1,.042.1v.54q0,.048.018.054t.042-.03A1.585,1.585,0,0,1,13.572-6.2ZM15.9-6.972a.829.829,0,0,1-.612-.24.829.829,0,0,1-.24-.612.829.829,0,0,1,.24-.612.829.829,0,0,1,.612-.24.829.829,0,0,1,.612.24.829.829,0,0,1,.24.612.829.829,0,0,1-.24.612A.829.829,0,0,1,15.9-6.972ZM15.324,0a.139.139,0,0,1-.1-.042.139.139,0,0,1-.042-.1V-6a.139.139,0,0,1,.042-.1.139.139,0,0,1,.1-.042h1.1a.139.139,0,0,1,.1.042.139.139,0,0,1,.042.1V-.144a.139.139,0,0,1-.042.1.139.139,0,0,1-.1.042Zm7.9-3.756a4.277,4.277,0,0,1,.048.672l-.012.372a.127.127,0,0,1-.144.144H19.356a.053.053,0,0,0-.06.06,1.716,1.716,0,0,0,.108.54,1.319,1.319,0,0,0,1.4.876,1.512,1.512,0,0,0,1.3-.672.141.141,0,0,1,.12-.072.115.115,0,0,1,.084.036l.744.612A.128.128,0,0,1,23.088-1a2.451,2.451,0,0,1-.99.816,3.213,3.213,0,0,1-1.374.288,2.881,2.881,0,0,1-1.59-.42,2.417,2.417,0,0,1-.954-1.176,4.719,4.719,0,0,1-.276-1.8,3.648,3.648,0,0,1,.144-1.128,2.407,2.407,0,0,1,.906-1.326,2.643,2.643,0,0,1,1.6-.486A2.455,2.455,0,0,1,23.22-3.756ZM20.556-5.028a1.19,1.19,0,0,0-.738.222,1.175,1.175,0,0,0-.414.618,2.083,2.083,0,0,0-.1.528q-.024.06.048.06h2.436a.053.053,0,0,0,.06-.06,2.262,2.262,0,0,0-.072-.456,1.164,1.164,0,0,0-.426-.672A1.287,1.287,0,0,0,20.556-5.028Zm6.8-1.2a2.112,2.112,0,0,1,1.554.576A2.112,2.112,0,0,1,29.5-4.08V-.144a.139.139,0,0,1-.042.1.139.139,0,0,1-.1.042h-1.1a.139.139,0,0,1-.1-.042.139.139,0,0,1-.042-.1V-3.792a1.275,1.275,0,0,0-.312-.894,1.067,1.067,0,0,0-.828-.342,1.1,1.1,0,0,0-.834.336,1.239,1.239,0,0,0-.318.888v3.66a.139.139,0,0,1-.042.1.139.139,0,0,1-.1.042h-1.1a.139.139,0,0,1-.1-.042.139.139,0,0,1-.042-.1V-5.988a.139.139,0,0,1,.042-.1.139.139,0,0,1,.1-.042h1.1a.139.139,0,0,1,.1.042.139.139,0,0,1,.042.1V-5.6a.048.048,0,0,0,.024.048q.024.012.036-.024A1.75,1.75,0,0,1,27.36-6.228Zm7.224-2.028a.139.139,0,0,1,.042-.1.139.139,0,0,1,.1-.042h1.1a.139.139,0,0,1,.1.042.139.139,0,0,1,.042.1V-.144a.139.139,0,0,1-.042.1.139.139,0,0,1-.1.042h-1.1a.139.139,0,0,1-.1-.042.139.139,0,0,1-.042-.1V-.5a.048.048,0,0,0-.024-.048q-.024-.012-.048.024A1.721,1.721,0,0,1,33.132.1a2.321,2.321,0,0,1-1.44-.444,2.482,2.482,0,0,1-.852-1.236,4.887,4.887,0,0,1-.216-1.5,4.652,4.652,0,0,1,.2-1.464,2.482,2.482,0,0,1,.852-1.236,2.38,2.38,0,0,1,1.476-.444,1.724,1.724,0,0,1,1.356.6.05.05,0,0,0,.048.018q.024-.006.024-.042ZM34.3-1.68a2.878,2.878,0,0,0,.276-1.392,2.771,2.771,0,0,0-.3-1.428,1.016,1.016,0,0,0-.912-.528,1.1,1.1,0,0,0-.96.5,2.572,2.572,0,0,0-.36,1.464,2.919,2.919,0,0,0,.288,1.38,1.1,1.1,0,0,0,1.02.576A1.047,1.047,0,0,0,34.3-1.68ZM-36.372,16.1a3.4,3.4,0,0,1-1.584-.354,2.529,2.529,0,0,1-1.056-1,2.935,2.935,0,0,1-.372-1.488v-2.9a2.926,2.926,0,0,1,.372-1.494,2.54,2.54,0,0,1,1.056-1A3.4,3.4,0,0,1-36.372,7.5a3.383,3.383,0,0,1,1.566.348,2.6,2.6,0,0,1,1.05.948,2.52,2.52,0,0,1,.372,1.356v.1a.139.139,0,0,1-.042.1.139.139,0,0,1-.1.042H-34.62a.139.139,0,0,1-.1-.042.139.139,0,0,1-.042-.1v-.06A1.416,1.416,0,0,0-35.2,9.124a1.62,1.62,0,0,0-1.17-.42,1.6,1.6,0,0,0-1.176.438,1.554,1.554,0,0,0-.444,1.158v3a1.511,1.511,0,0,0,.468,1.158,1.7,1.7,0,0,0,1.212.438,1.618,1.618,0,0,0,1.134-.378,1.335,1.335,0,0,0,.414-1.038v-.744a.053.053,0,0,0-.06-.06H-36.3a.139.139,0,0,1-.1-.042.139.139,0,0,1-.042-.1v-.888a.139.139,0,0,1,.042-.1.139.139,0,0,1,.1-.042h2.772a.139.139,0,0,1,.1.042.139.139,0,0,1,.042.1V13.18a2.818,2.818,0,0,1-.81,2.148A3.035,3.035,0,0,1-36.372,16.1Zm9.456-3.852a4.277,4.277,0,0,1,.048.672l-.012.372a.127.127,0,0,1-.144.144H-30.78a.053.053,0,0,0-.06.06,1.716,1.716,0,0,0,.108.54,1.319,1.319,0,0,0,1.4.876,1.512,1.512,0,0,0,1.3-.672.141.141,0,0,1,.12-.072.115.115,0,0,1,.084.036l.744.612a.128.128,0,0,1,.036.192,2.451,2.451,0,0,1-.99.816,3.213,3.213,0,0,1-1.374.288,2.881,2.881,0,0,1-1.59-.42,2.417,2.417,0,0,1-.954-1.176,4.719,4.719,0,0,1-.276-1.8,3.648,3.648,0,0,1,.144-1.128,2.407,2.407,0,0,1,.906-1.326,2.643,2.643,0,0,1,1.6-.486A2.455,2.455,0,0,1-26.916,12.244Zm-2.664-1.272a1.19,1.19,0,0,0-.738.222,1.175,1.175,0,0,0-.414.618,2.083,2.083,0,0,0-.1.528q-.024.06.048.06h2.436a.053.053,0,0,0,.06-.06,2.262,2.262,0,0,0-.072-.456,1.164,1.164,0,0,0-.426-.672A1.287,1.287,0,0,0-29.58,10.972Zm7-.12a.139.139,0,0,1-.042.1.139.139,0,0,1-.1.042h-1.224a.053.053,0,0,0-.06.06v2.892a.924.924,0,0,0,.2.66.846.846,0,0,0,.63.2h.36a.139.139,0,0,1,.1.042.139.139,0,0,1,.042.1v.9a.148.148,0,0,1-.144.156l-.624.012a2.5,2.5,0,0,1-1.416-.324,1.417,1.417,0,0,1-.48-1.224v-3.42A.053.053,0,0,0-25.4,11h-.684a.139.139,0,0,1-.1-.042.139.139,0,0,1-.042-.1v-.84a.139.139,0,0,1,.042-.1.139.139,0,0,1,.1-.042h.684a.053.053,0,0,0,.06-.06V8.4a.139.139,0,0,1,.042-.1.139.139,0,0,1,.1-.042h1.044a.139.139,0,0,1,.1.042.139.139,0,0,1,.042.1v1.4a.053.053,0,0,0,.06.06h1.224a.139.139,0,0,1,.1.042.139.139,0,0,1,.042.1Zm6.468,5.244a3.42,3.42,0,0,1-1.572-.348,2.54,2.54,0,0,1-1.062-.99,2.866,2.866,0,0,1-.378-1.482V7.744a.139.139,0,0,1,.042-.1.139.139,0,0,1,.1-.042h1.1a.139.139,0,0,1,.1.042.139.139,0,0,1,.042.1V13.3a1.559,1.559,0,0,0,.444,1.152,1.59,1.59,0,0,0,1.176.444,1.59,1.59,0,0,0,1.176-.444A1.559,1.559,0,0,0-14.5,13.3V7.744a.139.139,0,0,1,.042-.1.139.139,0,0,1,.1-.042h1.1a.139.139,0,0,1,.1.042.139.139,0,0,1,.042.1v5.532a2.9,2.9,0,0,1-.372,1.482,2.5,2.5,0,0,1-1.056.99A3.447,3.447,0,0,1-16.116,16.1Zm9.636-4.644a4.539,4.539,0,0,1,.216,1.5,4.652,4.652,0,0,1-.2,1.464,2.5,2.5,0,0,1-.846,1.236,2.354,2.354,0,0,1-1.47.444,1.7,1.7,0,0,1-1.368-.612.039.039,0,0,0-.048-.012.048.048,0,0,0-.024.048v2.6a.139.139,0,0,1-.042.1.139.139,0,0,1-.1.042h-1.1a.139.139,0,0,1-.1-.042.139.139,0,0,1-.042-.1V10.012a.139.139,0,0,1,.042-.1.139.139,0,0,1,.1-.042h1.1a.139.139,0,0,1,.1.042.139.139,0,0,1,.042.1v.36a.048.048,0,0,0,.024.048q.024.012.048-.024a1.721,1.721,0,0,1,1.38-.624,2.321,2.321,0,0,1,1.44.444A2.482,2.482,0,0,1-6.48,11.452Zm-1.56,2.94a2.645,2.645,0,0,0,.36-1.464,2.789,2.789,0,0,0-.288-1.38,1.1,1.1,0,0,0-1.02-.588,1,1,0,0,0-.936.576,2.794,2.794,0,0,0-.276,1.392,2.8,2.8,0,0,0,.3,1.44A.989.989,0,0,0-9,14.9,1.068,1.068,0,0,0-8.04,14.392ZM2.892,7.6a.143.143,0,0,1,.144.144v.924a.143.143,0,0,1-.144.144H.684a.053.053,0,0,0-.06.06v6.984A.143.143,0,0,1,.48,16h-1.1a.139.139,0,0,1-.1-.042.139.139,0,0,1-.042-.1V8.872a.053.053,0,0,0-.06-.06H-2.952a.139.139,0,0,1-.1-.042.139.139,0,0,1-.042-.1V7.744a.139.139,0,0,1,.042-.1.139.139,0,0,1,.1-.042Zm2.832,8.5a2.741,2.741,0,0,1-1.626-.48,2.537,2.537,0,0,1-.954-1.332,4.825,4.825,0,0,1-.012-2.736,2.465,2.465,0,0,1,.96-1.308,2.84,2.84,0,0,1,1.644-.468,2.674,2.674,0,0,1,1.578.468,2.5,2.5,0,0,1,.942,1.3A3.9,3.9,0,0,1,8.472,12.9a4.31,4.31,0,0,1-.2,1.368A2.58,2.58,0,0,1,7.32,15.61,2.65,2.65,0,0,1,5.724,16.1Zm0-1.2a1.189,1.189,0,0,0,.762-.252,1.419,1.419,0,0,0,.462-.708,3.545,3.545,0,0,0,.12-1.008,3.323,3.323,0,0,0-.12-1.008,1.3,1.3,0,0,0-.456-.7,1.272,1.272,0,0,0-.792-.246,1.234,1.234,0,0,0-.768.246,1.368,1.368,0,0,0-.468.7,3.7,3.7,0,0,0-.12,1.008,3.7,3.7,0,0,0,.12,1.008,1.322,1.322,0,0,0,.462.708A1.276,1.276,0,0,0,5.724,14.9Zm11.76-1.152A2.16,2.16,0,0,1,16.9,15.3a2.639,2.639,0,0,1-1.632.744q-.06.024-.06.072l.012.792a.143.143,0,0,1-.144.144h-.936a.143.143,0,0,1-.144-.144l.012-.8q0-.048-.06-.072a2.815,2.815,0,0,1-1.638-.786,2.168,2.168,0,0,1-.594-1.566v-.3a.143.143,0,0,1,.144-.144h1.008a.143.143,0,0,1,.144.144v.228a1.121,1.121,0,0,0,.468.918,2.013,2.013,0,0,0,1.272.366,1.566,1.566,0,0,0,1.062-.312,1.023,1.023,0,0,0,.354-.8.869.869,0,0,0-.192-.57,1.713,1.713,0,0,0-.558-.42q-.366-.186-1.086-.486a11.3,11.3,0,0,1-1.308-.588,2.475,2.475,0,0,1-.84-.75,1.993,1.993,0,0,1-.336-1.182,2.091,2.091,0,0,1,.558-1.5,2.538,2.538,0,0,1,1.518-.732q.06-.024.06-.072l-.024-.888a.143.143,0,0,1,.144-.144h.936a.143.143,0,0,1,.144.144l-.024.9q0,.048.06.072a2.708,2.708,0,0,1,1.614.816,2.274,2.274,0,0,1,.594,1.6v.2a.143.143,0,0,1-.144.144H16.26a.143.143,0,0,1-.144-.144v-.132a1.229,1.229,0,0,0-.438-.954,1.749,1.749,0,0,0-1.206-.39,1.549,1.549,0,0,0-.984.276.938.938,0,0,0-.348.78.9.9,0,0,0,.186.588,1.687,1.687,0,0,0,.552.414q.366.186,1.122.474a12.424,12.424,0,0,1,1.3.588,2.524,2.524,0,0,1,.834.738A1.943,1.943,0,0,1,17.484,13.744Zm6.144-1.512a4,4,0,0,1,.156,1.116,3.592,3.592,0,0,1-.156,1.068,2.284,2.284,0,0,1-.924,1.218,2.963,2.963,0,0,1-3.12.012,2.311,2.311,0,0,1-.924-1.182,3.627,3.627,0,0,1-.156-.6V13.84q0-.132.144-.132h1.14a.154.154,0,0,1,.156.132,1.581,1.581,0,0,0,.06.216,1.222,1.222,0,0,0,.42.612,1.227,1.227,0,0,0,1.416-.018,1.226,1.226,0,0,0,.42-.642,1.872,1.872,0,0,0,.108-.66,2.478,2.478,0,0,0-.1-.684.947.947,0,0,0-.384-.606,1.244,1.244,0,0,0-.732-.21,1.477,1.477,0,0,0-.738.186.861.861,0,0,0-.426.486.17.17,0,0,1-.168.12H18.66a.143.143,0,0,1-.144-.144V7.744A.143.143,0,0,1,18.66,7.6h4.668a.143.143,0,0,1,.144.144v.912a.143.143,0,0,1-.144.144h-3.36a.053.053,0,0,0-.06.06L19.9,11.02q0,.048.024.054a.05.05,0,0,0,.048-.018,2.206,2.206,0,0,1,1.356-.42,2.505,2.505,0,0,1,1.458.426A2.137,2.137,0,0,1,23.628,12.232Zm6.24,0a4,4,0,0,1,.156,1.116,3.592,3.592,0,0,1-.156,1.068,2.284,2.284,0,0,1-.924,1.218,2.963,2.963,0,0,1-3.12.012,2.311,2.311,0,0,1-.924-1.182,3.627,3.627,0,0,1-.156-.6V13.84q0-.132.144-.132h1.14a.154.154,0,0,1,.156.132,1.581,1.581,0,0,0,.06.216,1.222,1.222,0,0,0,.42.612,1.227,1.227,0,0,0,1.416-.018,1.226,1.226,0,0,0,.42-.642,1.872,1.872,0,0,0,.108-.66,2.478,2.478,0,0,0-.1-.684.947.947,0,0,0-.384-.606,1.244,1.244,0,0,0-.732-.21,1.477,1.477,0,0,0-.738.186.861.861,0,0,0-.426.486.17.17,0,0,1-.168.12H24.9a.143.143,0,0,1-.144-.144V7.744A.143.143,0,0,1,24.9,7.6h4.668a.143.143,0,0,1,.144.144v.912a.143.143,0,0,1-.144.144h-3.36a.053.053,0,0,0-.06.06l-.012,2.16q0,.048.024.054a.05.05,0,0,0,.048-.018,2.206,2.206,0,0,1,1.356-.42,2.505,2.505,0,0,1,1.458.426A2.137,2.137,0,0,1,29.868,12.232Zm3.9,3.9a2.752,2.752,0,0,1-2-.714,2.556,2.556,0,0,1-.738-1.926V10.108a2.5,2.5,0,0,1,.738-1.9,2.779,2.779,0,0,1,2-.7,2.823,2.823,0,0,1,2.01.7,2.479,2.479,0,0,1,.75,1.9v3.384a2.534,2.534,0,0,1-.75,1.926A2.794,2.794,0,0,1,33.768,16.132Zm0-1.212a1.358,1.358,0,0,0,1-.366,1.326,1.326,0,0,0,.372-.99v-3.5a1.326,1.326,0,0,0-.372-.99,1.358,1.358,0,0,0-1-.366,1.322,1.322,0,0,0-.978.366,1.338,1.338,0,0,0-.366.99v3.5a1.338,1.338,0,0,0,.366.99A1.322,1.322,0,0,0,33.768,14.92Zm6.016-5.8a.062.062,0,0,1-.07.07h-.875a.025.025,0,0,0-.028.028v2.072a.025.025,0,0,0,.028.028h.875a.062.062,0,0,1,.07.07v.252a.062.062,0,0,1-.07.07h-.875a.025.025,0,0,0-.028.028v1.6a.062.062,0,0,1-.07.07h-.357a.062.062,0,0,1-.07-.07v-1.6a.025.025,0,0,0-.028-.028h-.875a.062.062,0,0,1-.07-.07v-.252a.062.062,0,0,1,.07-.07h.875a.025.025,0,0,0,.028-.028V9.214a.025.025,0,0,0-.028-.028h-.875a.062.062,0,0,1-.07-.07V8.864a.062.062,0,0,1,.07-.07h.875a.025.025,0,0,0,.028-.028V7.17a.062.062,0,0,1,.07-.07h.357a.062.062,0,0,1,.07.07v1.6a.025.025,0,0,0,.028.028h.875a.062.062,0,0,1,.07.07Z" transform="translate(-4860 638)" fill="#fff" />
        <g transform="translate(-18 -21)">
            <path d="M4.94,19.088s-.119-.072-.309-.194C1.784,17.032,0,14.331,0,11.328,0,5.726,6.225,1.181,13.9,1.181S27.806,5.726,27.806,11.328s-6.223,10.151-13.9,10.151a18.769,18.769,0,0,1-2.924-.223l-.3-.044a16.366,16.366,0,0,1-7.285,1.951c-.77,0-1.133-.535-.64-1.082A11.785,11.785,0,0,0,4.94,19.088Z" transform="translate(-5154 641.82)" fill="#fff" />
            <path d="M3.684.1A3.4,3.4,0,0,1,2.1-.258a2.552,2.552,0,0,1-1.056-.99A2.87,2.87,0,0,1,.672-2.724V-5.688a2.87,2.87,0,0,1,.372-1.476A2.513,2.513,0,0,1,2.1-8.148,3.447,3.447,0,0,1,3.684-8.5a3.521,3.521,0,0,1,1.572.336,2.484,2.484,0,0,1,1.056.948A2.672,2.672,0,0,1,6.684-5.8a.139.139,0,0,1-.042.1.139.139,0,0,1-.1.042l-1.1.06q-.144,0-.144-.132a1.53,1.53,0,0,0-.438-1.14A1.594,1.594,0,0,0,3.684-7.3a1.614,1.614,0,0,0-1.176.432,1.518,1.518,0,0,0-.444,1.14v3.06a1.5,1.5,0,0,0,.444,1.128A1.614,1.614,0,0,0,3.684-1.1a1.606,1.606,0,0,0,1.17-.426,1.51,1.51,0,0,0,.438-1.134q0-.132.144-.132l1.1.048a.151.151,0,0,1,.1.036.108.108,0,0,1,.042.084,2.726,2.726,0,0,1-.372,1.434A2.472,2.472,0,0,1,5.256-.24,3.521,3.521,0,0,1,3.684.1Zm9.06-8.352a.139.139,0,0,1,.042-.1.139.139,0,0,1,.1-.042h1.1a.139.139,0,0,1,.1.042.139.139,0,0,1,.042.1V-.144a.139.139,0,0,1-.042.1.139.139,0,0,1-.1.042h-1.1a.139.139,0,0,1-.1-.042.139.139,0,0,1-.042-.1V-3.576a.053.053,0,0,0-.06-.06H9.624a.053.053,0,0,0-.06.06V-.144a.139.139,0,0,1-.042.1A.139.139,0,0,1,9.42,0h-1.1a.139.139,0,0,1-.1-.042.139.139,0,0,1-.042-.1V-8.256a.139.139,0,0,1,.042-.1.139.139,0,0,1,.1-.042h1.1a.139.139,0,0,1,.1.042.139.139,0,0,1,.042.1V-4.9a.053.053,0,0,0,.06.06h3.06a.053.053,0,0,0,.06-.06ZM21.072,0a.151.151,0,0,1-.156-.12L20.52-1.4q-.024-.048-.06-.048H17.292q-.036,0-.06.048l-.4,1.284A.151.151,0,0,1,16.68,0h-1.2a.134.134,0,0,1-.108-.042.131.131,0,0,1-.012-.126l2.6-8.112a.151.151,0,0,1,.156-.12h1.5a.151.151,0,0,1,.156.12L22.392-.168a.134.134,0,0,1,.012.06Q22.4,0,22.272,0ZM17.6-2.616q-.012.072.048.072h2.436q.072,0,.048-.072L18.9-6.636q-.012-.048-.036-.048t-.036.048ZM28.224-8.4a.139.139,0,0,1,.1.042.139.139,0,0,1,.042.1v.924a.139.139,0,0,1-.042.1.139.139,0,0,1-.1.042H26.016a.053.053,0,0,0-.06.06V-.144a.139.139,0,0,1-.042.1.139.139,0,0,1-.1.042h-1.1a.139.139,0,0,1-.1-.042.139.139,0,0,1-.042-.1V-7.128a.053.053,0,0,0-.06-.06H22.38a.139.139,0,0,1-.1-.042.139.139,0,0,1-.042-.1v-.924a.139.139,0,0,1,.042-.1.139.139,0,0,1,.1-.042Z" transform="translate(-5155 680)" fill="#fff" />
        </g>
    </g>
</svg>